<svg xmlns="http://www.w3.org/2000/svg" xmlns:xlink="http://www.w3.org/1999/xlink" viewBox="0 0 599.45 334.68"><defs><style>.cls-1{fill:none;}.cls-2{isolation:isolate;}.cls-3{fill:#eaf4ff;}.cls-4{fill:url(#linear-gradient);}.cls-5{fill:url(#linear-gradient-2);}.cls-6{fill:url(#linear-gradient-3);}.cls-129,.cls-7{fill:#bcd9ff;}.cls-8{fill:url(#linear-gradient-4);}.cls-9{fill:url(#linear-gradient-5);}.cls-10{fill:url(#linear-gradient-6);}.cls-11{fill:url(#linear-gradient-7);}.cls-12{fill:#3cb6d5;}.cls-13{fill:url(#linear-gradient-8);}.cls-14{fill:#051533;}.cls-15{fill:url(#linear-gradient-9);}.cls-16{clip-path:url(#clip-path);}.cls-17{fill:#f3f3f3;}.cls-18{fill:#7bc3f4;}.cls-125,.cls-19{fill:#ff4800;}.cls-20{fill:url(#linear-gradient-10);}.cls-21{fill:#d1d9e8;}.cls-22{fill:url(#linear-gradient-11);}.cls-23{fill:url(#linear-gradient-12);}.cls-24{fill:url(#linear-gradient-13);}.cls-25{fill:url(#linear-gradient-14);}.cls-26{fill:url(#linear-gradient-15);}.cls-27{fill:url(#linear-gradient-16);}.cls-28{opacity:0.6;mix-blend-mode:screen;}.cls-29{fill:url(#linear-gradient-17);}.cls-128,.cls-30{fill:#fff;}.cls-31{fill:url(#linear-gradient-18);}.cls-32{fill:url(#linear-gradient-19);}.cls-33{fill:url(#linear-gradient-20);}.cls-34{fill:url(#linear-gradient-21);}.cls-35{fill:url(#linear-gradient-22);}.cls-36{fill:url(#linear-gradient-23);}.cls-37{fill:url(#linear-gradient-24);}.cls-38{fill:url(#linear-gradient-25);}.cls-39{fill:url(#linear-gradient-26);}.cls-40{fill:url(#linear-gradient-27);}.cls-41{fill:url(#linear-gradient-28);}.cls-42{fill:#d4eeff;}.cls-43{fill:url(#linear-gradient-29);}.cls-44{fill:url(#linear-gradient-30);}.cls-45{fill:url(#linear-gradient-31);}.cls-46{fill:url(#linear-gradient-32);}.cls-47{fill:url(#linear-gradient-33);}.cls-48{fill:url(#linear-gradient-34);}.cls-49{fill:url(#linear-gradient-35);}.cls-50{fill:url(#linear-gradient-36);}.cls-51{fill:url(#linear-gradient-37);}.cls-52{fill:url(#linear-gradient-38);}.cls-53{fill:url(#linear-gradient-39);}.cls-54{fill:url(#linear-gradient-40);}.cls-55{fill:url(#linear-gradient-41);}.cls-56{fill:url(#linear-gradient-42);}.cls-57{fill:url(#linear-gradient-43);}.cls-58{fill:url(#linear-gradient-44);}.cls-119,.cls-59{fill:#ffd2d3;}.cls-60{fill:url(#linear-gradient-45);}.cls-61{fill:url(#linear-gradient-46);}.cls-62{fill:url(#linear-gradient-47);}.cls-63{fill:url(#linear-gradient-48);}.cls-64{fill:url(#linear-gradient-49);}.cls-65{fill:url(#linear-gradient-50);}.cls-66{fill:#e9f6ff;}.cls-120,.cls-67{fill:#f4c3c6;}.cls-68{fill:url(#linear-gradient-51);}.cls-69{fill:url(#linear-gradient-52);}.cls-70{fill:url(#linear-gradient-53);}.cls-71{fill:url(#linear-gradient-54);}.cls-72{fill:url(#linear-gradient-55);}.cls-73{fill:url(#linear-gradient-56);}.cls-74{fill:url(#linear-gradient-57);}.cls-75{fill:url(#linear-gradient-58);}.cls-76{fill:url(#linear-gradient-59);}.cls-77{fill:url(#linear-gradient-60);}.cls-78{fill:url(#linear-gradient-61);}.cls-79{fill:url(#linear-gradient-62);}.cls-80{fill:url(#linear-gradient-63);}.cls-81{fill:url(#linear-gradient-64);}.cls-82{fill:url(#linear-gradient-65);}.cls-83{fill:url(#linear-gradient-66);}.cls-84{fill:url(#linear-gradient-67);}.cls-85{fill:url(#linear-gradient-68);}.cls-86{fill:url(#linear-gradient-69);}.cls-87{fill:url(#linear-gradient-70);}.cls-88{fill:url(#linear-gradient-71);}.cls-89{fill:url(#linear-gradient-72);}.cls-90{fill:url(#linear-gradient-73);}.cls-91{fill:url(#linear-gradient-74);}.cls-92{fill:url(#linear-gradient-75);}.cls-93{fill:url(#linear-gradient-76);}.cls-94{fill:url(#linear-gradient-77);}.cls-95{fill:url(#linear-gradient-78);}.cls-96{fill:url(#linear-gradient-79);}.cls-97{fill:url(#linear-gradient-80);}.cls-98{fill:url(#linear-gradient-81);}.cls-99{fill:url(#linear-gradient-82);}.cls-100{fill:url(#linear-gradient-83);}.cls-101{fill:url(#linear-gradient-84);}.cls-102{fill:url(#linear-gradient-85);}.cls-103{fill:url(#linear-gradient-86);}.cls-104{fill:url(#linear-gradient-87);}.cls-105{fill:url(#linear-gradient-88);}.cls-106{fill:url(#linear-gradient-89);}.cls-107{fill:url(#linear-gradient-90);}.cls-108{fill:url(#linear-gradient-91);}.cls-109{fill:url(#linear-gradient-92);}.cls-110{fill:url(#linear-gradient-93);}.cls-111{fill:url(#linear-gradient-94);}.cls-112{fill:url(#linear-gradient-95);}.cls-113{fill:url(#linear-gradient-96);}.cls-114{fill:url(#linear-gradient-97);}.cls-115{fill:url(#linear-gradient-98);}.cls-116{fill:url(#linear-gradient-99);}.cls-117{fill:url(#linear-gradient-100);}.cls-118{fill:#feae03;}.cls-119,.cls-120,.cls-121,.cls-123,.cls-124,.cls-125,.cls-126,.cls-127,.cls-128,.cls-129,.cls-130,.cls-132,.cls-133{fill-rule:evenodd;}.cls-121{fill:url(#linear-gradient-101);}.cls-122{fill:url(#linear-gradient-102);}.cls-123{fill:url(#linear-gradient-103);}.cls-124{fill:url(#linear-gradient-104);}.cls-126{fill:url(#linear-gradient-105);}.cls-127{fill:url(#linear-gradient-106);}.cls-130{fill:url(#linear-gradient-107);}.cls-131{fill:url(#linear-gradient-108);}.cls-132{fill:url(#linear-gradient-109);}.cls-133{fill:url(#linear-gradient-110);}</style><linearGradient id="linear-gradient" x1="-54.57" y1="227.32" x2="-12.31" y2="227.32" gradientUnits="userSpaceOnUse"><stop offset="0" stop-color="#0059ca"></stop><stop offset="0.02" stop-color="#065dcb"></stop><stop offset="0.39" stop-color="#6a9ee0"></stop><stop offset="0.68" stop-color="#b4cef0"></stop><stop offset="0.89" stop-color="#e2ecf9"></stop><stop offset="1" stop-color="#f3f7fd"></stop></linearGradient><linearGradient id="linear-gradient-2" x1="-22.14" y1="206.08" x2="16.03" y2="206.08" gradientUnits="userSpaceOnUse"><stop offset="0" stop-color="#0049b7"></stop><stop offset="0.05" stop-color="#0045af"></stop><stop offset="0.51" stop-color="#002066"></stop><stop offset="0.84" stop-color="#000a38"></stop><stop offset="1" stop-color="#000127"></stop></linearGradient><linearGradient id="linear-gradient-3" x1="0.15" y1="237.28" x2="39.79" y2="237.28" xlink:href="#linear-gradient"></linearGradient><linearGradient id="linear-gradient-4" x1="-64.06" y1="197.92" x2="2.92" y2="197.92" gradientUnits="userSpaceOnUse"><stop offset="0" stop-color="#f3f7fd"></stop><stop offset="0.11" stop-color="#e2ecf9"></stop><stop offset="0.32" stop-color="#b4cef0"></stop><stop offset="0.61" stop-color="#6a9ee0"></stop><stop offset="0.98" stop-color="#065dcb"></stop><stop offset="1" stop-color="#0059ca"></stop></linearGradient><linearGradient id="linear-gradient-5" x1="152.32" y1="251.87" x2="277.68" y2="251.87" gradientUnits="userSpaceOnUse"><stop offset="0" stop-color="#1e61c5"></stop><stop offset="0.56" stop-color="#0c45b2"></stop><stop offset="1" stop-color="#0034a6"></stop></linearGradient><linearGradient id="linear-gradient-6" x1="121.7" y1="206.15" x2="255.51" y2="206.15" gradientUnits="userSpaceOnUse"><stop offset="0" stop-color="#000127"></stop><stop offset="0.16" stop-color="#000a38"></stop><stop offset="0.49" stop-color="#002066"></stop><stop offset="0.95" stop-color="#0045af"></stop><stop offset="1" stop-color="#0049b7"></stop></linearGradient><linearGradient id="linear-gradient-7" x1="148.51" y1="232.23" x2="242.66" y2="232.23" gradientUnits="userSpaceOnUse"><stop offset="0" stop-color="#5394e0"></stop><stop offset="0.27" stop-color="#64a0e7"></stop><stop offset="0.8" stop-color="#92c1f8"></stop><stop offset="1" stop-color="#a4ceff"></stop></linearGradient><linearGradient id="linear-gradient-8" x1="0.83" y1="134.16" x2="176.98" y2="134.16" xlink:href="#linear-gradient-5"></linearGradient><linearGradient id="linear-gradient-9" x1="-4.29" y1="127" x2="171.28" y2="127" gradientUnits="userSpaceOnUse"><stop offset="0" stop-color="#d7e9ff"></stop><stop offset="0.6" stop-color="#b5d7ff"></stop><stop offset="1" stop-color="#a4ceff"></stop></linearGradient><clipPath id="clip-path" transform="translate(314.03 10.62)"><path class="cls-1" d="M13.16,260.11a14.18,14.18,0,0,1-10.63-4.26,9.74,9.74,0,0,1-2.45-7.91L28.89,13.86C29.82,6.34,38.07,0,46.92,0L153,.16a14.17,14.17,0,0,1,10.62,4.25,9.73,9.73,0,0,1,2.44,7.9l-28.9,234.21c-.93,7.5-9.19,13.83-18,13.83Z"></path></clipPath><linearGradient id="linear-gradient-10" x1="392.12" y1="247.63" x2="452.28" y2="247.63" gradientUnits="userSpaceOnUse"><stop offset="0" stop-color="#ff4800"></stop><stop offset="0.02" stop-color="#ff4a00"></stop><stop offset="0.47" stop-color="#ff7b00"></stop><stop offset="0.81" stop-color="#f90"></stop><stop offset="1" stop-color="#ffa400"></stop></linearGradient><linearGradient id="linear-gradient-11" x1="-0.34" y1="130.18" x2="165.81" y2="130.18" gradientUnits="userSpaceOnUse"><stop offset="0.01" stop-color="#9f19ab"></stop><stop offset="0.43" stop-color="#5f27bd"></stop><stop offset="0.9" stop-color="#3d065f"></stop></linearGradient><linearGradient id="linear-gradient-12" x1="352.1" y1="91.66" x2="399.44" y2="91.66" xlink:href="#linear-gradient-5"></linearGradient><linearGradient id="linear-gradient-13" x1="407.45" y1="91.66" x2="454.79" y2="91.66" xlink:href="#linear-gradient-5"></linearGradient><linearGradient id="linear-gradient-14" x1="345.35" y1="148.51" x2="392.69" y2="148.51" xlink:href="#linear-gradient-5"></linearGradient><linearGradient id="linear-gradient-15" x1="400.7" y1="148.51" x2="448.04" y2="148.51" xlink:href="#linear-gradient-5"></linearGradient><linearGradient id="linear-gradient-16" x1="24.95" y1="179.87" x2="127.62" y2="179.87" xlink:href="#linear-gradient-10"></linearGradient><linearGradient id="linear-gradient-17" x1="21.51" y1="207.97" x2="124.19" y2="207.97" xlink:href="#linear-gradient-10"></linearGradient><linearGradient id="linear-gradient-18" x1="33.58" y1="240.23" x2="38.41" y2="240.23" xlink:href="#linear-gradient-10"></linearGradient><linearGradient id="linear-gradient-19" x1="331.52" y1="38.83" x2="479.85" y2="38.83" gradientUnits="userSpaceOnUse"><stop offset="0" stop-color="#ffa400"></stop><stop offset="0.19" stop-color="#f90"></stop><stop offset="0.53" stop-color="#ff7b00"></stop><stop offset="0.98" stop-color="#ff4a00"></stop><stop offset="1" stop-color="#ff4800"></stop></linearGradient><linearGradient id="linear-gradient-20" x1="323.33" y1="46.15" x2="476.6" y2="46.15" xlink:href="#linear-gradient-10"></linearGradient><linearGradient id="linear-gradient-21" x1="323.33" y1="62.78" x2="475.34" y2="62.78" xlink:href="#linear-gradient-19"></linearGradient><linearGradient id="linear-gradient-22" x1="323.34" y1="55.02" x2="342.89" y2="55.02" xlink:href="#linear-gradient-9"></linearGradient><linearGradient id="linear-gradient-23" x1="361.27" y1="55.02" x2="380.82" y2="55.02" xlink:href="#linear-gradient-9"></linearGradient><linearGradient id="linear-gradient-24" x1="399.63" y1="55.02" x2="419.18" y2="55.02" xlink:href="#linear-gradient-9"></linearGradient><linearGradient id="linear-gradient-25" x1="437.99" y1="55.02" x2="457.54" y2="55.02" xlink:href="#linear-gradient-9"></linearGradient><linearGradient id="linear-gradient-26" x1="28.48" y1="57.95" x2="47.66" y2="57.95" xlink:href="#linear-gradient-10"></linearGradient><linearGradient id="linear-gradient-27" x1="66.84" y1="57.95" x2="86.02" y2="57.95" xlink:href="#linear-gradient-10"></linearGradient><linearGradient id="linear-gradient-28" x1="105.2" y1="57.95" x2="124.38" y2="57.95" xlink:href="#linear-gradient-10"></linearGradient><linearGradient id="linear-gradient-29" x1="-221.22" y1="235.63" x2="-209.55" y2="235.63" gradientTransform="translate(36.69 431.52) rotate(85.42)" xlink:href="#linear-gradient-2"></linearGradient><linearGradient id="linear-gradient-30" x1="-229.87" y1="211.68" x2="-175.63" y2="211.68" gradientTransform="translate(24.46 396.85) rotate(85.42)" xlink:href="#linear-gradient-9"></linearGradient><linearGradient id="linear-gradient-31" x1="-235.64" y1="183.13" x2="-179.53" y2="183.13" gradientTransform="translate(-8.44 375.4) rotate(85.41)" xlink:href="#linear-gradient-9"></linearGradient><linearGradient id="linear-gradient-32" x1="-200.06" y1="174.61" x2="-183.07" y2="174.61" xlink:href="#linear-gradient-9"></linearGradient><linearGradient id="linear-gradient-33" x1="-228.48" y1="180.66" x2="-216.78" y2="180.66" gradientTransform="translate(-24.73 388.11) rotate(85.41)" xlink:href="#linear-gradient-2"></linearGradient><linearGradient id="linear-gradient-34" x1="-198.45" y1="216.89" x2="-163.04" y2="216.89" gradientTransform="translate(50.88 378.3) rotate(85.06)" xlink:href="#linear-gradient-9"></linearGradient><linearGradient id="linear-gradient-35" x1="-217.86" y1="214.78" x2="-192.49" y2="214.78" gradientTransform="translate(26.44 400.74) rotate(85.07)" xlink:href="#linear-gradient-10"></linearGradient><linearGradient id="linear-gradient-36" x1="-196.41" y1="227.29" x2="-166.88" y2="227.29" gradientTransform="translate(60.43 388.72) rotate(85.07)" xlink:href="#linear-gradient-10"></linearGradient><linearGradient id="linear-gradient-37" x1="-215.82" y1="225.18" x2="-196.41" y2="225.18" gradientTransform="translate(35.97 411.16) rotate(85.07)" xlink:href="#linear-gradient-2"></linearGradient><linearGradient id="linear-gradient-38" x1="-194.5" y1="205.13" x2="-164.97" y2="205.13" gradientTransform="translate(40.1 366.54) rotate(85.06)" xlink:href="#linear-gradient-10"></linearGradient><linearGradient id="linear-gradient-39" x1="-213.9" y1="203.02" x2="-194.49" y2="203.02" gradientTransform="translate(15.62 389) rotate(85.07)" xlink:href="#linear-gradient-2"></linearGradient><linearGradient id="linear-gradient-40" x1="-205.42" y1="183.87" x2="-201.1" y2="183.87" gradientTransform="matrix(0.09, 1, -1, 0.09, -2.54, 370.5)" xlink:href="#linear-gradient-2"></linearGradient><linearGradient id="linear-gradient-41" x1="-209.38" y1="228.15" x2="-204.8" y2="228.15" gradientTransform="translate(38 414.89) rotate(85.08)" xlink:href="#linear-gradient-2"></linearGradient><linearGradient id="linear-gradient-42" x1="-218.3" y1="209.41" x2="-196.43" y2="209.41" gradientTransform="translate(63.6 93.53) rotate(22.13)" xlink:href="#linear-gradient-9"></linearGradient><linearGradient id="linear-gradient-43" x1="73.8" y1="220.68" x2="96.84" y2="220.68" xlink:href="#linear-gradient-4"></linearGradient><linearGradient id="linear-gradient-44" x1="95.73" y1="215.05" x2="114.15" y2="215.05" xlink:href="#linear-gradient-2"></linearGradient><linearGradient id="linear-gradient-45" x1="-117.23" y1="250.18" x2="-88.62" y2="250.18" xlink:href="#linear-gradient-5"></linearGradient><linearGradient id="linear-gradient-46" x1="-110.56" y1="249.75" x2="-88.62" y2="249.75" xlink:href="#linear-gradient-2"></linearGradient><linearGradient id="linear-gradient-47" x1="-100.19" y1="248.01" x2="-51.43" y2="248.01" xlink:href="#linear-gradient-5"></linearGradient><linearGradient id="linear-gradient-48" x1="-100.19" y1="248.01" x2="-51.43" y2="248.01" xlink:href="#linear-gradient-2"></linearGradient><linearGradient id="linear-gradient-49" x1="-124.2" y1="192.46" x2="-100.11" y2="192.46" xlink:href="#linear-gradient-10"></linearGradient><linearGradient id="linear-gradient-50" x1="-109.23" y1="202.91" x2="-99.51" y2="202.91" xlink:href="#linear-gradient-10"></linearGradient><linearGradient id="linear-gradient-51" x1="-112.92" y1="166.22" x2="-68.5" y2="157.06" xlink:href="#linear-gradient-2"></linearGradient><linearGradient id="linear-gradient-52" x1="-114.83" y1="165.93" x2="-103.91" y2="165.93" xlink:href="#linear-gradient-2"></linearGradient><linearGradient id="linear-gradient-53" x1="-112.15" y1="169.96" x2="-67.73" y2="160.79" xlink:href="#linear-gradient-2"></linearGradient><linearGradient id="linear-gradient-54" x1="-99.66" y1="161.24" x2="-94.84" y2="161.24" xlink:href="#linear-gradient"></linearGradient><linearGradient id="linear-gradient-55" x1="-113.75" y1="162.19" x2="-69.33" y2="153.02" xlink:href="#linear-gradient-2"></linearGradient><linearGradient id="linear-gradient-56" x1="-111.9" y1="171.16" x2="-67.48" y2="162" xlink:href="#linear-gradient-2"></linearGradient><linearGradient id="linear-gradient-57" x1="-112.37" y1="168.88" x2="-67.95" y2="159.71" xlink:href="#linear-gradient-2"></linearGradient><linearGradient id="linear-gradient-58" x1="-103.21" y1="198.35" x2="-73.15" y2="198.35" xlink:href="#linear-gradient-10"></linearGradient><linearGradient id="linear-gradient-59" x1="-93.02" y1="215.33" x2="-60.65" y2="215.33" xlink:href="#linear-gradient-10"></linearGradient><linearGradient id="linear-gradient-60" x1="-50.25" y1="287.48" x2="-41.32" y2="287.48" xlink:href="#linear-gradient-5"></linearGradient><linearGradient id="linear-gradient-61" x1="-60.61" y1="291.45" x2="-48.36" y2="291.45" xlink:href="#linear-gradient-10"></linearGradient><linearGradient id="linear-gradient-62" x1="-98.24" y1="287.8" x2="-89.7" y2="287.8" xlink:href="#linear-gradient-5"></linearGradient><linearGradient id="linear-gradient-63" x1="-108.14" y1="291.6" x2="-96.43" y2="291.6" xlink:href="#linear-gradient-10"></linearGradient><linearGradient id="linear-gradient-64" x1="-219.36" y1="290.26" x2="-210.35" y2="290.26" xlink:href="#linear-gradient-2"></linearGradient><linearGradient id="linear-gradient-65" x1="-218.09" y1="290.26" x2="-211.62" y2="290.26" xlink:href="#linear-gradient-5"></linearGradient><linearGradient id="linear-gradient-66" x1="94.81" y1="294.63" x2="97.7" y2="294.63" xlink:href="#linear-gradient-5"></linearGradient><linearGradient id="linear-gradient-67" x1="-220.08" y1="287.88" x2="-213.8" y2="287.88" gradientUnits="userSpaceOnUse"><stop offset="0" stop-color="#a4ceff"></stop><stop offset="0.2" stop-color="#92c1f8"></stop><stop offset="0.73" stop-color="#64a0e7"></stop><stop offset="1" stop-color="#5394e0"></stop></linearGradient><linearGradient id="linear-gradient-68" x1="-215.29" y1="290.26" x2="-214.43" y2="290.26" xlink:href="#linear-gradient-5"></linearGradient><linearGradient id="linear-gradient-69" x1="-216.65" y1="290.26" x2="-215.79" y2="290.26" xlink:href="#linear-gradient-5"></linearGradient><linearGradient id="linear-gradient-70" x1="-143.76" y1="290.26" x2="-134.75" y2="290.26" xlink:href="#linear-gradient-2"></linearGradient><linearGradient id="linear-gradient-71" x1="-142.49" y1="290.26" x2="-136.02" y2="290.26" xlink:href="#linear-gradient-5"></linearGradient><linearGradient id="linear-gradient-72" x1="-147.99" y1="280.72" x2="-140.75" y2="280.72" xlink:href="#linear-gradient-5"></linearGradient><linearGradient id="linear-gradient-73" x1="-144.48" y1="287.88" x2="-138.2" y2="287.88" xlink:href="#linear-gradient-67"></linearGradient><linearGradient id="linear-gradient-74" x1="-139.68" y1="290.26" x2="-138.83" y2="290.26" xlink:href="#linear-gradient-5"></linearGradient><linearGradient id="linear-gradient-75" x1="-141.05" y1="290.26" x2="-140.19" y2="290.26" xlink:href="#linear-gradient-5"></linearGradient><linearGradient id="linear-gradient-76" x1="-239.28" y1="231.43" x2="-156.45" y2="231.43" xlink:href="#linear-gradient-5"></linearGradient><linearGradient id="linear-gradient-77" x1="-235.65" y1="248.13" x2="-166.61" y2="248.13" xlink:href="#linear-gradient-5"></linearGradient><linearGradient id="linear-gradient-78" x1="-235.61" y1="244.02" x2="-165.75" y2="244.02" xlink:href="#linear-gradient-5"></linearGradient><linearGradient id="linear-gradient-79" x1="-235.58" y1="239.92" x2="-164.55" y2="239.92" xlink:href="#linear-gradient-5"></linearGradient><linearGradient id="linear-gradient-80" x1="-235.56" y1="235.82" x2="-163.07" y2="235.82" xlink:href="#linear-gradient-5"></linearGradient><linearGradient id="linear-gradient-81" x1="-235.56" y1="231.73" x2="-161.46" y2="231.73" xlink:href="#linear-gradient-5"></linearGradient><linearGradient id="linear-gradient-82" x1="-235.57" y1="227.63" x2="-160.04" y2="227.63" xlink:href="#linear-gradient-5"></linearGradient><linearGradient id="linear-gradient-83" x1="-235.58" y1="223.54" x2="-158.67" y2="223.54" xlink:href="#linear-gradient-5"></linearGradient><linearGradient id="linear-gradient-84" x1="-235.59" y1="219.43" x2="-157.17" y2="219.43" xlink:href="#linear-gradient-5"></linearGradient><linearGradient id="linear-gradient-85" x1="-235.59" y1="215.32" x2="-155.3" y2="215.32" xlink:href="#linear-gradient-5"></linearGradient><linearGradient id="linear-gradient-86" x1="138.96" y1="242.86" x2="150.25" y2="242.86" xlink:href="#linear-gradient-5"></linearGradient><linearGradient id="linear-gradient-87" x1="133.84" y1="242.88" x2="144.11" y2="242.88" xlink:href="#linear-gradient-5"></linearGradient><linearGradient id="linear-gradient-88" x1="128.71" y1="242.9" x2="137.98" y2="242.9" xlink:href="#linear-gradient-5"></linearGradient><linearGradient id="linear-gradient-89" x1="123.58" y1="242.92" x2="131.85" y2="242.92" xlink:href="#linear-gradient-5"></linearGradient><linearGradient id="linear-gradient-90" x1="118.46" y1="242.94" x2="125.71" y2="242.94" xlink:href="#linear-gradient-5"></linearGradient><linearGradient id="linear-gradient-91" x1="113.33" y1="242.95" x2="119.58" y2="242.95" xlink:href="#linear-gradient-5"></linearGradient><linearGradient id="linear-gradient-92" x1="108.2" y1="242.97" x2="113.45" y2="242.97" xlink:href="#linear-gradient-5"></linearGradient><linearGradient id="linear-gradient-93" x1="103.07" y1="242.99" x2="107.31" y2="242.99" xlink:href="#linear-gradient-5"></linearGradient><linearGradient id="linear-gradient-94" x1="97.95" y1="243.01" x2="101.18" y2="243.01" xlink:href="#linear-gradient-5"></linearGradient><linearGradient id="linear-gradient-95" x1="92.82" y1="243.02" x2="95.05" y2="243.02" xlink:href="#linear-gradient-5"></linearGradient><linearGradient id="linear-gradient-96" x1="-239.93" y1="228.74" x2="-157.27" y2="228.74" xlink:href="#linear-gradient-5"></linearGradient><linearGradient id="linear-gradient-97" x1="-239.93" y1="228.57" x2="-157.27" y2="228.57" xlink:href="#linear-gradient-2"></linearGradient><linearGradient id="linear-gradient-98" x1="-222.81" y1="240.48" x2="-145.07" y2="240.48" xlink:href="#linear-gradient-2"></linearGradient><linearGradient id="linear-gradient-99" x1="-155.33" y1="197.55" x2="-139.98" y2="197.55" xlink:href="#linear-gradient-10"></linearGradient><linearGradient id="linear-gradient-100" x1="-114.79" y1="192.98" x2="-91.8" y2="192.98" xlink:href="#linear-gradient-10"></linearGradient><linearGradient id="linear-gradient-101" x1="470.62" y1="235.48" x2="495.85" y2="235.48" xlink:href="#linear-gradient-2"></linearGradient><linearGradient id="linear-gradient-102" x1="162.66" y1="206.2" x2="173.5" y2="206.2" xlink:href="#linear-gradient-5"></linearGradient><linearGradient id="linear-gradient-103" x1="454.3" y1="231.52" x2="500.01" y2="231.52" xlink:href="#linear-gradient-10"></linearGradient><linearGradient id="linear-gradient-104" x1="179.59" y1="165.73" x2="212.41" y2="165.73" xlink:href="#linear-gradient-10"></linearGradient><linearGradient id="linear-gradient-105" x1="192.92" y1="275.26" x2="199.19" y2="275.26" xlink:href="#linear-gradient-10"></linearGradient><linearGradient id="linear-gradient-106" x1="183.72" y1="278.28" x2="189.42" y2="278.28" xlink:href="#linear-gradient-10"></linearGradient><linearGradient id="linear-gradient-107" x1="520.08" y1="202.17" x2="551.78" y2="202.17" xlink:href="#linear-gradient-2"></linearGradient><linearGradient id="linear-gradient-108" x1="220.02" y1="169.61" x2="228.83" y2="169.61" xlink:href="#linear-gradient-5"></linearGradient><linearGradient id="linear-gradient-109" x1="519.13" y1="193.24" x2="557.85" y2="193.24" xlink:href="#linear-gradient"></linearGradient><linearGradient id="linear-gradient-110" x1="187.54" y1="141.58" x2="198.19" y2="141.58" xlink:href="#linear-gradient-10"></linearGradient></defs><title>Asset 4z2</title><g class="cls-2"><g id="Layer_2" data-name="Layer 2"><g id="layer_1-2" data-name="layer 1"><path class="cls-3" d="M-57.77,239.75c-98.33,0-224,7.74-224,17.29,0,6.4,35.87,12,89.16,15C-265.77,275.11-314,280.43-314,286.46c0,6.84,61.9,12.75,151.73,15.55-4.45,1.51-6.83,3.11-6.83,4.76,0,9.55,79.71,17.29,178,17.29,168.68,0,276.5-27.74,276.5-46.79C285.41,253.64,208.69,239.75-57.77,239.75Z" transform="translate(314.03 10.62)"></path><path class="cls-4" d="M-53.38,182.68C-57.85,242.63-50.63,272-17.12,272c13.14,0-2.57-37.88-24.07-61.65C-53,197.21-44.87,191.92-53.38,182.68Z" transform="translate(314.03 10.62)"></path><path class="cls-5" d="M2.89,214.76c.09-9-3-50.28-14.23-75.17,6.18,43-10.72,40.13-10.8,90.77,0,15.33,9.45,40.86,18.16,42.11,8.26,1.19,10.06-9.56,11.69-13.09,4.41-9.55,10.48-76.74,7.55-83.29C8.17,187.26,4,212.71,2.89,214.76Z" transform="translate(314.03 10.62)"></path><path class="cls-6" d="M.15,271.09c0,3.62,18,7,26-31.4,6.23-29.91,10.24-32.82,13.67-38.29C16.14,201.83.27,261.62.15,271.09Z" transform="translate(314.03 10.62)"></path><path class="cls-7" d="M-11,252.39c-1-2.09-3.54-3.77-4.39-5.71-.63-1.46.2-3,.25-4.52.13-4-1.79-7.51-4-10.76-1.27-1.93-4.67-4.17-5.47-6.1-1.54-3.69,1.44-6.6-2.51-10.92-1.2-1.31-3.53-2.37-4.39-3.92s-.45-3.18-.75-4.88c-.81-4.71-4.78-7.81-7.15-11.75-.41,5.46,1.06,10.78.66,16.12-.32,4.31,2.14,8.05,2.36,11.89.24,4.11-1.63,7.4.8,11.95,1.14,2.13,2.68,3.56,3.59,5.55,1.13,2.48,1.42,5.22,2.85,7.74,1,1.76,2.52,3.12,3.54,4.76,2.86,4.6-.09,16.62,8.37,17.41,2,4.14,3.52,5.12,5.6,4,4.42-2.42,1.67-6.76,1.1-9.7C-11.22,260.15-9.1,256.44-11,252.39Z" transform="translate(314.03 10.62)"></path><path class="cls-8" d="M-2.36,246.31c-4.82.22-10.51,5.29-13.27,10.57-.21-3.16-.32-6.32-.37-9.5,3.14-3.42,9-3,12.08-7.34,3.21-4.55-.73-9-5.62-6-2.36,1.45-4.88,5.83-6.5,9.41,0-2.26,0-5.4-.05-7.67,0-2-.05-3.92-.11-5.87,3.69-2.78,12-3.32,12.37-9.83.23-4.57-4.52-7.31-7.82-3.32a32.71,32.71,0,0,0-4.75,8.61q-.32-5.44-1-10.83c4-3.73,13.86-3.6,15.21-10.08,1.1-5.29-5.56-5.92-9.08-3.06s-4.94,7.5-6.31,11.78q-.57-4-1.39-8c2.94-3.56,9.48-6.36,10.35-11.81s-3.82-10.67-8.34-4.91c-2.38,3-3.05,7.44-3.19,11.67-.74-2.91-1.59-5.78-2.53-8.62a35.4,35.4,0,0,1,2.67-6c1.4-2.44,3.56-4.86,3.05-7.78-.9-5-4.56-2.09-6,1.37-1.06,2.5-.63,7.45-.47,10.42-1.16-3.15-3.6-9.83-5-12.88,1.25-5.32,14.16-16.24,3.89-16.24-4.42,0-5.44,8.89-5.1,14.09-.82-1.66-2.83-5.46-3-5.73,1.16-4.37,7.51-18.08,1.1-18.25-5.09-.14-4.32,8.28-3.55,12.39.09.52.19,1.28.33,2.1-1.43-2.48-2.94-5-4.54-7.38a23.66,23.66,0,0,0,2.38-6.1c.35-1.58,1.21-8.45-2.79-5.74-1.53,1-1.81,5.9-1.3,9.3-1.18-1.69-2.41-3.35-3.68-5-7.26-12.53-2.55-25-12.52-27.11-11.07-2.33-9.41,17.56,9.83,25.93,1.29,1.8,6.31,9.85,6.94,10.91-5.23-5.46-15.74-16.18-19.06-9.52-2.95,5.9,14.11,8.81,20.13,11.33,1.85,3.18,6.06,11.43,6.47,12.29-2.36-2.25-4.46-5.77-7.5-7.2-2.69-1.28-8.86-2-8.58,1.8.39,5.43,8.27,5.45,12.2,6.1,2.82.47,4.06,1.62,4.82,1.33q2.86,6.32,5.11,12.91c-3.4-5.13-13-15.92-16.73-9.36-4.78,8.45,11.37,7.28,17.13,10.54,1.48,4.49,2.75,9,3.78,13.69l0,.16c-2.25-4.11-4.08-8.32-8.14-11.26-3.68-2.68-10-3.65-9.49,3.37.39,5.12,9.45,5.32,13.76,7.46,1.92,1,3.36,2.27,4.36,2.8a125.49,125.49,0,0,1,1.85,13.1c-7.73-5.67-14.65-23.36-20.35-14.56-5,7.74,12.37,7.89,20.49,16.1.33,4,.5,8.05.58,12.1a45.82,45.82,0,0,0-4.76-9c-1.34-2.16-8.14-8.25-10.65-3.07s6.89,8.47,9.74,9.81a13.15,13.15,0,0,1,5.71,5.08c0,.74,0,10,0,13.89-2.34-6.52-19.58-29.87-24.69-15.93-3.29,8.94,15.52,9.47,20,12.19,3,1.85,4.13,3.6,4.77,5.46q.09,3.39.34,6.74c-4.09-5.93-14-17.2-18-7.82-4.69,11.08,10.1,7.08,13,8.45,2.55,1.19,5.38,1.85,5.58,5.27A65.74,65.74,0,0,0-16.9,272c.49,1.83,3.38.94,3-.9a102.32,102.32,0,0,1-1.5-10.84C-11.3,257.35-1.81,256.57.9,254,4.66,250.4,2.94,246.06-2.36,246.31Z" transform="translate(314.03 10.62)"></path><path class="cls-9" d="M275.55,236.79c-8.08-5.25-21.84-6.16-29.2,1.68A44.68,44.68,0,0,0,235.68,242c2.6-1.8,5.27-3.91,5.9-7.22.73-3.9-2.46-4.2-4.86-2.62s-2,3.23-2.65,6c-.53,2.39-1.47,4.26-1.66,5.27L229.06,245c-1.69.75-3.38,1.5-5.07,2.23.59-.6,1.17-1.18,1.42-1.48,2.28-2.72,5.4-5.9,6.13-9.82s-2.19-6.8-5.43-4.91c-2.73,1.59-1.63,5.77-1.73,8.79-.12,3.72-1.11,5.55-1.62,8q-4.29,1.84-8.62,3.55a24.38,24.38,0,0,0,6.5-8.41c1.76-4.56-3-5.57-5.94-4.32-3.15,1.38-3.18,5-3.76,8.24a35.64,35.64,0,0,1-1.86,6.44c-1.51.56-3,1.12-4.54,1.66L201,256.13a17.63,17.63,0,0,0,4.38-7.62c.37-1.56,1.2-4.46,0-5.76-1.53-1.66-3.9-.1-5,1.34-2.6,3.56-1.71,9.67-3.36,13.33q-4.51,1.45-9.08,2.7a24.19,24.19,0,0,0,6.11-7c1-1.82,1.55-4.34.41-6-1.26-1.84-3.9-1.38-5.35.27s-2.05,4-2.72,6.26-2.34,5.22-2.66,7.61c-1.44.35-2.88.7-4.33,1l-.79.16c.63-.7,1.19-1.42,1.59-1.93a9.41,9.41,0,0,0,2.41-5.72c0-2.18-1.56-4.44-3.39-4.14-1.54.25-2.55,2.09-2.87,3.87s-.16,3.66-.45,5.45a15.45,15.45,0,0,1-1,3.19c-3.26.58-6.53,1-9.81,1.43a25.08,25.08,0,0,0,4.21-6.35,8.43,8.43,0,0,0,.47-5.12c-.47-1.66-1.95-3-3.4-2.63s-2.36,2.34-2.53,4.15c-.1,1.14-1.15,8.34-1,10.23-3.2.38-6.39.73-9.6,1.16-1.18.15-1.24,2.11,0,2.21a65.67,65.67,0,0,0,12.67-.42c.62,1,1.82,1.9,2.35,3a25.24,25.24,0,0,1,1,2.52H176l-.07-.13a16.53,16.53,0,0,0-6.92-5.85c2.66-.4,5.32-.89,7.93-1.41l.74.35a9,9,0,0,1,3.26,2.25,15.19,15.19,0,0,1,1.64,3.06,18.25,18.25,0,0,0,1,1.73h8.67a7.44,7.44,0,0,0-.86-1.48,15.55,15.55,0,0,0-8.14-5.49,25.72,25.72,0,0,0-4.17-.86q5-1,10-2.42a11.72,11.72,0,0,1,3.06,2.84l3.51,4.58a28.74,28.74,0,0,0,2.41,2.83h10.51a2.64,2.64,0,0,0,.35-1,4.42,4.42,0,0,0-1.61-3.46,22.93,22.93,0,0,0-9.05-5.75,28.9,28.9,0,0,0-4.93-1.25c3-.89,5.94-1.87,8.88-2.9a23.38,23.38,0,0,1,9.22,5.06c1.56,1.46,2.95,3.17,4.54,4.59a8.94,8.94,0,0,0,5.45,2.6A3.43,3.43,0,0,0,225,268.5a4.4,4.4,0,0,0-.15-1.73c-1-3.85-4.55-5.89-7.86-6.87s-8.27-2.13-12.32-1.82q5.67-2.07,11.27-4.45a20.41,20.41,0,0,1,5.76,4c2.95,2.62,5.65,5.65,8.92,7.71,2.06,1.3,4.5,2.19,6.77,1.48a2,2,0,0,0,1-.6,2.63,2.63,0,0,0,.19-2.3,10.56,10.56,0,0,0-3.11-4.68,22.85,22.85,0,0,0-11.88-5.63,36.43,36.43,0,0,0-6.43-.48c3.6-1.54,7.18-3.15,10.74-4.8l.73-.35c1.8,2,3.78,3.76,5.64,5.62s4,3.84,6.41,3.79a3,3,0,0,0,2.13-.86,4.24,4.24,0,0,0,.57-4.27,7.41,7.41,0,0,0-2.71-3.25,22.16,22.16,0,0,0-7.69-3.16c2-1,4.07-2,6.14-2.92l-.06.14c3,2.39,5.41,5.87,8.52,8.11a10,10,0,0,0,8.23,1.65,2.27,2.27,0,0,0,1.87-1.57,2.9,2.9,0,0,0-.62-2.07,15.59,15.59,0,0,0-8.73-6.19,25.31,25.31,0,0,0-6.58-1.16,32,32,0,0,1,10.87-2.39.42.42,0,0,0,.12,0,25.92,25.92,0,0,1,6.44,1.47c2.56,1,5,2.31,7.63,3.13a11.3,11.3,0,0,0,8,0c1.8-.81,3.56-3,2.78-5.12A4.46,4.46,0,0,0,275.55,236.79Z" transform="translate(314.03 10.62)"></path><path class="cls-10" d="M121.78,266.81a15.5,15.5,0,0,0,.87,6.53h47.46c54.88-33.09,11.79-90.81,85.4-133.92C211.66,130.72,123.83,252.38,121.78,266.81Z" transform="translate(314.03 10.62)"></path><path class="cls-11" d="M228.5,195.21c-2.6,1.86-4.1,5.64-7,6.42-2.2.58-4.57-.6-7.24.72a23.44,23.44,0,0,0-6.49,5.18c-3.73,4.06-5.14,8.63-7.83,13.22-2.49,4.23-7.71,4.76-12.16,7a47,47,0,0,0-16.32,14.18c-2.51,3.32-4.42,9.32-7.59,11.32-2.23,1.42-5.51,1.47-7.87,3.13-2.71,1.91-4.72,5.07-6.24,8-1.9,3.67-1.48,6.66.43,9H169c5.25-1.94,10.25-4.59,13-8,2.29-2.85,1.22-3.5,4.23-4.47,5.13-1.65,9.84-1.17,14-5.37a33.14,33.14,0,0,0,7.51-12c1-3.1.27-4.86,2.78-6.87,3.95-3.17,8.5-4.08,11.95-8.23a39.71,39.71,0,0,0,5.5-9.87c1-2.32.54-4.18,1.09-6.3,1-3.81,5.4-5,7.88-8.22,2.7-3.48,4.27-8.15,5.71-12.3C238.33,189.87,232.07,192.66,228.5,195.21Z" transform="translate(314.03 10.62)"></path><path class="cls-12" d="M126.57,216.1c-1.36-6-2.7-13.6-6.72-18.47-.61,3-1.37,6-1.8,9-.3,2.09.08,4.36-.34,6.35a81.33,81.33,0,0,0-8.46-21.13c-3.33-5.73-6.3-13.73-11.25-18.21-.91,6.49-.39,14.4.46,20.9,1.19,9.13,2.44,18.28,3.68,27.4,1.87,13.78,5.53,26.73,9.66,40,.85,2.73,1.65,7.29,3.07,11.42h14.79c.18-1.44.34-2.88.56-4.2,1.51-9.15,2.09-19.3.64-28.46C129.55,232.48,128.4,224.2,126.57,216.1Z" transform="translate(314.03 10.62)"></path><path class="cls-7" d="M214.35,98.56c-12.09-5.41-10.06,17.49-22.22,31.89q-3,2.66-5.84,5.51c1.42-4.24,2.18-10.55.45-12.22-4.51-4.38-5,4.62-4.88,6.73a31.11,31.11,0,0,0,1.64,8.36c-2.6,2.74-5.09,5.57-7.49,8.41.37-1,.66-2,.91-2.6,1.92-5.1,4.82-15.71-1.73-16.69-8.25-1.24-3.24,17.77-2.75,23.64-.25.3-3.69,4.72-5.11,6.65,1.61-6.58,2.32-18.11-3.33-19.22-11.92-2.33.9,14.6,1.29,21.71-2.48,3.59-6,9.26-8.17,13,.88-3.78,1.4-7.69.61-11.14-1.1-4.77-5.13-9.35-7.41-3.12-1.33,3.61.89,7.2,2.13,10.65a46.89,46.89,0,0,1,2.06,8.25q-2.79,5.13-5.21,10.46c.79-5.45.94-11.26-1.42-15.68-4.49-8.4-11.69-2.6-11.81,4.39-.13,7.18,7.61,12.26,10.56,17.49q-2,4.91-3.59,9.9c-.78-5.8-1.61-12.12-5.4-16.53s-12.54-5.18-12.33,1.85c.25,8.61,12.92,10.7,17.19,16.38-1.42,4.49-2.66,9.05-3.75,13.66a42.74,42.74,0,0,0-4.13-12.12c-3.32-5.87-10-3.44-10.78,2.46-1.07,8.43,9.52,11,13.62,15.42q-.79,3.74-1.48,7.5c-.53,2.91-1.29,6.93-1.82,9.82-1.26-5-3.49-11.15-6.18-13.54-5.59-5-11.66-.13-8.58,6.43,2.92,6.24,10.56,7.06,13.81,12.16-.8,4.06-1.66,8.09-2.64,12.09-2.34-7.41-8.47-15.19-14.59-16.58-6.74-1.52-9.93,3.64-5.93,9.1,2.87,3.93,14.86,7.09,19.43,11.71-.78,2.88-1.67,5.73-2.63,8.56h4.69c.33-.93.68-1.84,1-2.78,1-4.33,4.81-4.54,8.35-5.48,4.06-1.09,22.1,7.41,18.61-7.86-3-12.92-18.2-.74-24.79,5.93.73-2.83,1.38-5.68,2-8.56,1.25-2.24,3.09-4.23,7.36-5.91,6.32-2.47,30.53,1.14,28.37-11.07-3.38-19-30.8,7-35.28,14.78,1-5,3-16.83,3.22-17.79a17.17,17.17,0,0,1,8.47-5.2c4-1.07,16.72-3.25,14.72-10.36s-12.14-.95-14.34,1.52c-2.93,3.27-6,6.53-8.15,10.4,1-5.19,2.17-10.32,3.5-15.38,12.29-8.67,34.59-4.89,29.93-16-5.3-12.57-18.2,8.52-29.4,14a168.07,168.07,0,0,1,5.36-16.36c1.4-.45,3.56-1.81,6.23-2.59,6-1.76,17.67,0,19.33-6.42,2.28-8.88-6.06-9.07-11.39-6.48-5.87,2.85-9.18,7.81-13,12.57,0-.07.05-.14.08-.2a182,182,0,0,1,8-16.67c8.11-2.87,28.54,2.31,24.35-9.61-3.24-9.25-18.05,2.39-23.57,8.19q4.38-7.94,9.49-15.39c.9.55,2.76-.64,6.48-.6,5.18.06,15.28,1.83,17-5,1.23-4.82-6.84-5.29-10.58-4.27-4.22,1.15-7.72,5.17-11.26,7.52.72-1,8-10.62,11.11-14.27,8.28-1.86,30.8-1.69,28.37-9.93-2.73-9.29-18.65,2.06-26.6,7.85,1.06-1.21,9.32-10.38,11.39-12.39a61.11,61.11,0,0,0,20.45-9.7C221.12,116.19,228.7,105,214.35,98.56Z" transform="translate(314.03 10.62)"></path><path class="cls-13" d="M172.7,3.13,167.19-5l-6.48,3.25L56.31-1.92c-10.9,0-20.78,7.75-22,17.25L4.72,255.76a5.85,5.85,0,0,0,0,.59L4,256,.83,260,9,268a19,19,0,0,0,13.38,5.11l103.14.25c10.9,0,20.78-7.73,22-17.24L176.89,18.4c.6-4.85-2.07-10.76-4.19-15.26Z" transform="translate(314.03 10.62)"></path><path class="cls-14" d="M117.47,266.65c-.67,0-.76.44-.2,1a3.75,3.75,0,0,0,2.22,1c.67,0,.76-.45.2-1A3.7,3.7,0,0,0,117.47,266.65Z" transform="translate(314.03 10.62)"></path><path class="cls-14" d="M113.67,266.63c-.67,0-.76.44-.2,1a3.7,3.7,0,0,0,2.22,1c.67,0,.76-.44.2-1A3.77,3.77,0,0,0,113.67,266.63Z" transform="translate(314.03 10.62)"></path><path class="cls-14" d="M109.87,266.62c-.67,0-.76.44-.2,1a3.76,3.76,0,0,0,2.22,1c.67,0,.76-.44.2-1A3.71,3.71,0,0,0,109.87,266.62Z" transform="translate(314.03 10.62)"></path><path class="cls-14" d="M106.07,266.61c-.67,0-.76.44-.2,1a3.76,3.76,0,0,0,2.22,1c.67,0,.76-.44.2-1A3.76,3.76,0,0,0,106.07,266.61Z" transform="translate(314.03 10.62)"></path><path class="cls-14" d="M102.27,266.6c-.67,0-.76.44-.2,1a3.77,3.77,0,0,0,2.22,1c.67,0,.76-.44.2-1A3.73,3.73,0,0,0,102.27,266.6Z" transform="translate(314.03 10.62)"></path><path class="cls-14" d="M98.47,266.59c-.67,0-.76.44-.2,1a3.8,3.8,0,0,0,2.22,1c.67,0,.76-.44.2-1A3.67,3.67,0,0,0,98.47,266.59Z" transform="translate(314.03 10.62)"></path><path class="cls-14" d="M94.67,266.57c-.66,0-.75.44-.2,1a3.72,3.72,0,0,0,2.23,1c.66,0,.75-.44.2-1A3.8,3.8,0,0,0,94.67,266.57Z" transform="translate(314.03 10.62)"></path><path class="cls-14" d="M120.54,269.66c-.67,0-.76.44-.2,1a3.8,3.8,0,0,0,2.22,1c.67,0,.76-.44.21-1A3.72,3.72,0,0,0,120.54,269.66Z" transform="translate(314.03 10.62)"></path><path class="cls-14" d="M116.74,269.65c-.67,0-.75.44-.2,1a3.72,3.72,0,0,0,2.23,1c.66,0,.75-.43.2-1A3.72,3.72,0,0,0,116.74,269.65Z" transform="translate(314.03 10.62)"></path><path class="cls-14" d="M112.94,269.63c-.66,0-.75.44-.19,1a3.73,3.73,0,0,0,2.22,1c.66,0,.76-.44.2-1A3.8,3.8,0,0,0,112.94,269.63Z" transform="translate(314.03 10.62)"></path><path class="cls-14" d="M109.15,269.62c-.67,0-.76.44-.2,1a3.73,3.73,0,0,0,2.22,1c.67,0,.76-.44.2-1A3.78,3.78,0,0,0,109.15,269.62Z" transform="translate(314.03 10.62)"></path><path class="cls-14" d="M105.35,269.61c-.67,0-.76.44-.2,1a3.71,3.71,0,0,0,2.22,1c.67,0,.76-.44.2-1A3.76,3.76,0,0,0,105.35,269.61Z" transform="translate(314.03 10.62)"></path><path class="cls-14" d="M101.55,269.6c-.67,0-.76.44-.2,1a3.7,3.7,0,0,0,2.22,1c.67,0,.76-.43.2-1A3.7,3.7,0,0,0,101.55,269.6Z" transform="translate(314.03 10.62)"></path><path class="cls-14" d="M97.75,269.59c-.67,0-.76.44-.2,1a3.7,3.7,0,0,0,2.22,1c.67,0,.76-.43.2-1A3.7,3.7,0,0,0,97.75,269.59Z" transform="translate(314.03 10.62)"></path><path class="cls-14" d="M91,266.56c-.67,0-.76.44-.2,1a3.7,3.7,0,0,0,2.22,1c.67,0,.76-.44.2-1A3.77,3.77,0,0,0,91,266.56Z" transform="translate(314.03 10.62)"></path><path class="cls-14" d="M94.11,269.57c-.67,0-.76.44-.21,1a3.72,3.72,0,0,0,2.23,1c.67,0,.76-.43.2-1A3.77,3.77,0,0,0,94.11,269.57Z" transform="translate(314.03 10.62)"></path><path class="cls-14" d="M87.39,266.55c-.67,0-.76.44-.2,1a3.73,3.73,0,0,0,2.22,1c.67,0,.76-.44.2-1A3.74,3.74,0,0,0,87.39,266.55Z" transform="translate(314.03 10.62)"></path><path class="cls-14" d="M90.46,269.56c-.67,0-.76.44-.2,1a3.76,3.76,0,0,0,2.22,1c.67,0,.76-.44.2-1A3.71,3.71,0,0,0,90.46,269.56Z" transform="translate(314.03 10.62)"></path><path class="cls-14" d="M47.37,266.34c-.67,0-.76.44-.2,1a3.7,3.7,0,0,0,2.22,1c.67,0,.76-.43.2-1A3.77,3.77,0,0,0,47.37,266.34Z" transform="translate(314.03 10.62)"></path><path class="cls-14" d="M43.57,266.33c-.67,0-.76.44-.2,1a3.76,3.76,0,0,0,2.22,1c.67,0,.76-.44.2-1A3.69,3.69,0,0,0,43.57,266.33Z" transform="translate(314.03 10.62)"></path><path class="cls-14" d="M39.77,266.32c-.67,0-.76.44-.2,1a3.78,3.78,0,0,0,2.22,1c.67,0,.76-.44.2-1A3.73,3.73,0,0,0,39.77,266.32Z" transform="translate(314.03 10.62)"></path><path class="cls-14" d="M36,266.31c-.66,0-.75.44-.2,1a3.74,3.74,0,0,0,2.23,1c.66,0,.75-.44.2-1A3.78,3.78,0,0,0,36,266.31Z" transform="translate(314.03 10.62)"></path><path class="cls-14" d="M32.18,266.3c-.67,0-.76.43-.2,1a3.67,3.67,0,0,0,2.22,1c.66,0,.76-.43.2-1A3.72,3.72,0,0,0,32.18,266.3Z" transform="translate(314.03 10.62)"></path><path class="cls-14" d="M28.38,266.29c-.67,0-.76.43-.2,1a3.7,3.7,0,0,0,2.22,1c.67,0,.76-.44.2-1A3.7,3.7,0,0,0,28.38,266.29Z" transform="translate(314.03 10.62)"></path><path class="cls-14" d="M24.58,266.27c-.67,0-.76.44-.2,1a3.76,3.76,0,0,0,2.22,1c.67,0,.76-.44.2-1A3.77,3.77,0,0,0,24.58,266.27Z" transform="translate(314.03 10.62)"></path><path class="cls-14" d="M50.45,269.36c-.67,0-.76.44-.2,1a3.67,3.67,0,0,0,2.22,1c.67,0,.76-.43.2-1A3.7,3.7,0,0,0,50.45,269.36Z" transform="translate(314.03 10.62)"></path><path class="cls-14" d="M46.65,269.34c-.67,0-.76.44-.2,1a3.7,3.7,0,0,0,2.22,1c.67,0,.76-.44.2-1A3.77,3.77,0,0,0,46.65,269.34Z" transform="translate(314.03 10.62)"></path><path class="cls-14" d="M42.85,269.33c-.67,0-.76.44-.2,1a3.76,3.76,0,0,0,2.22,1c.67,0,.76-.44.2-1A3.76,3.76,0,0,0,42.85,269.33Z" transform="translate(314.03 10.62)"></path><path class="cls-14" d="M39.05,269.32c-.67,0-.76.44-.2,1a3.76,3.76,0,0,0,2.22,1c.67,0,.76-.44.2-1A3.76,3.76,0,0,0,39.05,269.32Z" transform="translate(314.03 10.62)"></path><path class="cls-14" d="M35.25,269.31c-.67,0-.76.44-.2,1a3.77,3.77,0,0,0,2.22,1c.67,0,.76-.44.2-1A3.7,3.7,0,0,0,35.25,269.31Z" transform="translate(314.03 10.62)"></path><path class="cls-14" d="M31.45,269.3c-.67,0-.76.43-.2,1a3.7,3.7,0,0,0,2.22,1c.67,0,.76-.44.2-1A3.67,3.67,0,0,0,31.45,269.3Z" transform="translate(314.03 10.62)"></path><path class="cls-14" d="M27.65,269.28c-.67,0-.75.44-.2,1a3.72,3.72,0,0,0,2.23,1c.66,0,.75-.44.19-1A3.75,3.75,0,0,0,27.65,269.28Z" transform="translate(314.03 10.62)"></path><path class="cls-14" d="M20.93,266.26c-.67,0-.75.44-.2,1a3.78,3.78,0,0,0,2.23,1c.66,0,.75-.44.19-1A3.73,3.73,0,0,0,20.93,266.26Z" transform="translate(314.03 10.62)"></path><path class="cls-14" d="M24,269.27c-.67,0-.76.44-.2,1a3.7,3.7,0,0,0,2.22,1c.67,0,.76-.44.2-1A3.71,3.71,0,0,0,24,269.27Z" transform="translate(314.03 10.62)"></path><path class="cls-14" d="M17.29,266.25c-.67,0-.76.44-.2,1a3.76,3.76,0,0,0,2.22,1c.67,0,.76-.44.2-1A3.76,3.76,0,0,0,17.29,266.25Z" transform="translate(314.03 10.62)"></path><path class="cls-14" d="M20.37,269.26c-.67,0-.76.44-.2,1a3.73,3.73,0,0,0,2.22,1c.67,0,.76-.44.2-1A3.78,3.78,0,0,0,20.37,269.26Z" transform="translate(314.03 10.62)"></path><path class="cls-15" d="M153.48-10.46,47.42-10.62c-10.9,0-20.78,7.74-22,17.25L-4.18,247.06c-1.17,9.51,6.8,17.3,17.7,17.33l105.94.24c10.91,0,20.79-7.73,22-17.23L171.16,6.85C172.34-2.65,164.38-10.44,153.48-10.46Z" transform="translate(314.03 10.62)"></path><path class="cls-14" d="M153,.16,46.92,0c-8.85,0-17.1,6.34-18,13.86L.08,247.94a9.74,9.74,0,0,0,2.45,7.91,14.18,14.18,0,0,0,10.63,4.26l106,.24c8.84,0,17.1-6.33,18-13.83l28.9-234.21a9.73,9.73,0,0,0-2.44-7.9A14.17,14.17,0,0,0,153,.16Z" transform="translate(314.03 10.62)"></path><g class="cls-16"><polygon class="cls-17" points="330.24 271.82 398.69 271.82 399.19 202.11 330.24 202.11 330.24 271.82"></polygon><polygon class="cls-18" points="332.86 205.09 333.08 268.85 396.57 268.85 396.35 205.09 332.86 205.09"></polygon><polygon class="cls-18" points="344.45 205.09 396.57 268.09 396.35 205.09 344.45 205.09"></polygon><polygon class="cls-18" points="332.97 238.64 357.95 268.85 377.41 268.85 332.89 215.02 332.97 238.64"></polygon><polygon class="cls-17" points="352.24 271.82 353.82 271.82 354.32 202.11 352.73 202.11 352.24 271.82"></polygon><polygon class="cls-17" points="375.8 271.82 377.39 271.82 377.89 202.11 376.3 202.11 375.8 271.82"></polygon><rect class="cls-19" x="452.28" y="223.42" width="18.59" height="48.41"></rect><rect class="cls-20" x="392.12" y="223.42" width="60.15" height="48.41"></rect><rect class="cls-14" x="406.77" y="237.84" width="30.31" height="33.99"></rect><rect class="cls-19" x="406.77" y="237.84" width="5.53" height="33.99"></rect><rect class="cls-17" x="415.68" y="237.84" width="21.4" height="33.99"></rect><rect class="cls-18" x="417.13" y="239.24" width="18.49" height="31.19"></rect><polygon class="cls-18" points="435.63 253.26 435.63 239.24 421.07 239.24 435.63 253.26"></polygon><polygon class="cls-18" points="417.13 251.99 435.63 269.8 435.63 265.15 417.13 247.34 417.13 251.99"></polygon><path class="cls-18" d="M103.1,249.57l10.63,10.24h3.38l-14-13.49Z" transform="translate(314.03 10.62)"></path><rect class="cls-17" x="425.65" y="238.21" width="1.45" height="33.25"></rect><polygon class="cls-21" points="441.07 225.12 470.87 225.12 470.87 108.56 414.64 108.56 441.07 225.12"></polygon><polygon class="cls-12" points="443.22 222.15 468.41 222.15 468.41 111.53 417.45 111.53 443.22 222.15"></polygon><polygon class="cls-17" points="346.19 108.56 372.62 225.12 441.07 225.12 414.64 108.56 346.19 108.56"></polygon><polygon class="cls-18" points="349 111.53 374.77 222.14 438.26 222.14 412.49 111.53 349 111.53"></polygon><path class="cls-18" d="M86.67,100.91H66.84l41.22,41.22-6-25.86Z" transform="translate(314.03 10.62)"></path><polygon class="cls-18" points="368.7 195.3 395.55 222.14 414.55 222.14 362.75 170.35 368.7 195.3"></polygon><polygon class="cls-17" points="367.26 108.56 393.69 225.12 395.28 225.12 368.85 108.56 367.26 108.56"></polygon><polygon class="cls-17" points="390.82 108.56 417.26 225.12 418.85 225.12 392.41 108.56 390.82 108.56"></polygon><polygon class="cls-21" points="435.77 108.56 462.2 225.12 463.79 225.12 437.36 108.56 435.77 108.56"></polygon></g><path class="cls-22" d="M152.67.16,46.58,0c-8.85,0-17.1,6.34-18,13.86L-.26,247.94a9.74,9.74,0,0,0,2.45,7.91,14.18,14.18,0,0,0,10.63,4.26l106,.24c8.84,0,17.09-6.33,18-13.83l28.9-234.21a9.69,9.69,0,0,0-2.44-7.9A14.17,14.17,0,0,0,152.67.16Z" transform="translate(314.03 10.62)"></path><polygon class="cls-23" points="352.1 113.2 394.12 113.2 399.44 70.12 357.4 70.12 352.1 113.2"></polygon><polygon class="cls-24" points="407.45 113.2 449.47 113.2 454.79 70.12 412.75 70.12 407.45 113.2"></polygon><polygon class="cls-25" points="345.35 170.05 387.37 170.05 392.69 126.97 350.65 126.97 345.35 170.05"></polygon><polygon class="cls-26" points="400.7 170.05 442.73 170.05 448.04 126.97 406 126.97 400.7 170.05"></polygon><path class="cls-27" d="M118.74,169.84H36.28a11.67,11.67,0,0,0-11.26,10,8.7,8.7,0,0,0,8.81,10h82.45a11.66,11.66,0,0,0,11.26-10A8.69,8.69,0,0,0,118.74,169.84Z" transform="translate(314.03 10.62)"></path><g class="cls-28"><path class="cls-29" d="M115.3,197.93H32.85a11.68,11.68,0,0,0-11.26,10,8.69,8.69,0,0,0,8.81,10h82.45a11.67,11.67,0,0,0,11.26-10A8.7,8.7,0,0,0,115.3,197.93Z" transform="translate(314.03 10.62)"></path></g><path class="cls-30" d="M35.29,246.66a.72.72,0,0,1-.72-.7.69.69,0,0,1,.69-.7h0a5.12,5.12,0,0,0,1.29-.16.7.7,0,0,1,.85.51.71.71,0,0,1-.51.86A6.91,6.91,0,0,1,35.29,246.66Zm-4-1.84a.71.71,0,0,1-.55-.26,5.32,5.32,0,0,1-.85-1.48.7.7,0,0,1,1.31-.51,3.83,3.83,0,0,0,.64,1.11.71.71,0,0,1-.11,1A.73.73,0,0,1,31.31,244.82Zm9.13-.78a.7.7,0,0,1-.43-.15.69.69,0,0,1-.13-1,5.92,5.92,0,0,0,.69-1.16.71.71,0,0,1,.93-.34.7.7,0,0,1,.35.93,7.36,7.36,0,0,1-.86,1.42A.7.7,0,0,1,40.44,244Zm-9.68-4.9a.79.79,0,0,1-.29-.06.71.71,0,0,1-.35-.93,7.7,7.7,0,0,1,.85-1.43.7.7,0,0,1,1.12.85,5.66,5.66,0,0,0-.69,1.15A.7.7,0,0,1,30.76,239.14Zm10.68-.78a.71.71,0,0,1-.66-.45,4,4,0,0,0-.63-1.12.7.7,0,0,1,.11-1,.71.71,0,0,1,1,.11,5.93,5.93,0,0,1,.85,1.49.72.72,0,0,1-.41.91A.73.73,0,0,1,41.44,238.36Zm-6.23-3A.7.7,0,0,1,35,234a6.76,6.76,0,0,1,1.67-.21.7.7,0,1,1,0,1.4,5.32,5.32,0,0,0-1.29.17Z" transform="translate(314.03 10.62)"></path><path class="cls-31" d="M36.29,237.83a2.8,2.8,0,0,0-2.7,2.4,2.09,2.09,0,0,0,2.11,2.4,2.79,2.79,0,0,0,2.69-2.4A2.07,2.07,0,0,0,36.29,237.83Z" transform="translate(314.03 10.62)"></path><path class="cls-30" d="M49.9,243.5a3,3,0,0,1-2.25-1,3.05,3.05,0,0,1-.71-2.38A3.73,3.73,0,0,1,50.53,237a2.93,2.93,0,0,1,3,3.36A3.72,3.72,0,0,1,49.9,243.5Zm.63-5.15a2.31,2.31,0,0,0-2.19,2,1.6,1.6,0,0,0,.37,1.28,1.55,1.55,0,0,0,1.19.51,2.3,2.3,0,0,0,2.19-2,1.63,1.63,0,0,0-.36-1.28A1.6,1.6,0,0,0,50.53,238.35Z" transform="translate(314.03 10.62)"></path><path class="cls-30" d="M64.12,243.5a2.92,2.92,0,0,1-3-3.36A3.71,3.71,0,0,1,64.75,237a2.93,2.93,0,0,1,3,3.36A3.71,3.71,0,0,1,64.12,243.5Zm.63-5.15a2.31,2.31,0,0,0-2.19,2,1.6,1.6,0,0,0,.37,1.28,1.55,1.55,0,0,0,1.19.51,2.32,2.32,0,0,0,2.2-2,1.54,1.54,0,0,0-1.57-1.79Z" transform="translate(314.03 10.62)"></path><path class="cls-30" d="M78.35,243.5a2.93,2.93,0,0,1-3-3.36A3.71,3.71,0,0,1,79,237a2.93,2.93,0,0,1,3,3.36A3.71,3.71,0,0,1,78.35,243.5Zm.63-5.15a2.32,2.32,0,0,0-2.2,2,1.6,1.6,0,0,0,.37,1.28,1.57,1.57,0,0,0,1.2.51,2.31,2.31,0,0,0,2.19-2,1.6,1.6,0,0,0-.37-1.28A1.58,1.58,0,0,0,79,238.35Z" transform="translate(314.03 10.62)"></path><path class="cls-30" d="M92.57,243.5a2.93,2.93,0,0,1-3-3.36A3.72,3.72,0,0,1,93.2,237a3,3,0,0,1,2.25,1,3,3,0,0,1,.7,2.38A3.71,3.71,0,0,1,92.57,243.5Zm.63-5.15a2.3,2.3,0,0,0-2.19,2,1.63,1.63,0,0,0,.36,1.28,1.57,1.57,0,0,0,1.2.51,2.31,2.31,0,0,0,2.19-2,1.52,1.52,0,0,0-1.56-1.79Z" transform="translate(314.03 10.62)"></path><path class="cls-30" d="M106.79,243.5a2.93,2.93,0,0,1-3-3.36,3.73,3.73,0,0,1,3.59-3.19,2.93,2.93,0,0,1,3,3.36A3.72,3.72,0,0,1,106.79,243.5Zm.63-5.15a2.31,2.31,0,0,0-2.19,2,1.63,1.63,0,0,0,.36,1.28,1.58,1.58,0,0,0,1.2.51,2.31,2.31,0,0,0,2.19-2,1.63,1.63,0,0,0-.36-1.28A1.6,1.6,0,0,0,107.42,238.35Z" transform="translate(314.03 10.62)"></path><path class="cls-14" d="M78.44,267.11a1,1,0,0,0-.7-.34H60.46c-.57,0-.76.63-.34,1.11l2.41,2.75a.94.94,0,0,0,.69.34H80.5c.57,0,.77-.63.35-1.11Z" transform="translate(314.03 10.62)"></path><path class="cls-30" d="M112.41,218.71H111a.71.71,0,0,1-.71-.71.7.7,0,0,1,.71-.7h1.39a.7.7,0,0,1,.7.7A.71.71,0,0,1,112.41,218.71Zm-5.57,0h-1.39a.7.7,0,0,1-.7-.71.7.7,0,0,1,.7-.7h1.39a.7.7,0,0,1,.71.7A.71.71,0,0,1,106.84,218.71Zm-5.56,0H99.89a.7.7,0,0,1-.7-.71.7.7,0,0,1,.7-.7h1.39a.7.7,0,0,1,.7.7A.7.7,0,0,1,101.28,218.71Zm-5.56,0H94.33a.7.7,0,0,1-.7-.71.7.7,0,0,1,.7-.7h1.39a.7.7,0,0,1,.7.7A.7.7,0,0,1,95.72,218.71Zm-5.56,0h-1.4a.71.71,0,0,1-.7-.71.7.7,0,0,1,.7-.7h1.4a.7.7,0,0,1,.7.7A.71.71,0,0,1,90.16,218.71Zm-5.57,0H83.2a.7.7,0,0,1-.7-.71.7.7,0,0,1,.7-.7h1.39a.7.7,0,0,1,.7.7A.7.7,0,0,1,84.59,218.71Zm-5.56,0H77.64a.7.7,0,0,1-.7-.71.7.7,0,0,1,.7-.7H79a.7.7,0,0,1,.7.7A.7.7,0,0,1,79,218.71Zm-5.56,0H72.08a.71.71,0,0,1-.71-.71.7.7,0,0,1,.71-.7h1.39a.7.7,0,0,1,.7.7A.7.7,0,0,1,73.47,218.71Zm-5.56,0h-1.4a.71.71,0,0,1-.7-.71.7.7,0,0,1,.7-.7h1.4a.7.7,0,0,1,.7.7A.71.71,0,0,1,67.91,218.71Zm-5.57,0H61a.7.7,0,0,1-.7-.71.7.7,0,0,1,.7-.7h1.39a.7.7,0,0,1,.7.7A.7.7,0,0,1,62.34,218.71Zm-5.56,0H55.39a.7.7,0,0,1-.7-.71.7.7,0,0,1,.7-.7h1.39a.7.7,0,0,1,.7.7A.7.7,0,0,1,56.78,218.71Zm-5.56,0H49.83a.71.71,0,0,1-.71-.71.7.7,0,0,1,.71-.7h1.39a.7.7,0,0,1,.7.7A.71.71,0,0,1,51.22,218.71Zm-5.57,0H44.26a.7.7,0,0,1-.7-.71.7.7,0,0,1,.7-.7h1.39a.7.7,0,0,1,.71.7A.71.71,0,0,1,45.65,218.71Zm-5.56,0H38.7A.7.7,0,0,1,38,218a.7.7,0,0,1,.7-.7h1.39a.7.7,0,0,1,.7.7A.7.7,0,0,1,40.09,218.71Zm-5.56,0H33.14a.7.7,0,0,1-.7-.71.7.7,0,0,1,.7-.7h1.39a.7.7,0,0,1,.7.7A.7.7,0,0,1,34.53,218.71ZM29,218.6h-.1a11.48,11.48,0,0,1-1.46-.33.71.71,0,0,1-.47-.88.7.7,0,0,1,.88-.46,9.89,9.89,0,0,0,1.25.28.69.69,0,0,1,.59.79A.7.7,0,0,1,29,218.6Zm87.53-.55a.7.7,0,0,1-.24-1.36,10.6,10.6,0,0,0,1.2-.52.7.7,0,1,1,.63,1.25,10.81,10.81,0,0,1-1.35.59A.67.67,0,0,1,116.5,218.05Zm-92.44-1.86a.73.73,0,0,1-.49-.2,8.81,8.81,0,0,1-1-1.14.7.7,0,0,1,.16-1,.69.69,0,0,1,1,.16,8.4,8.4,0,0,0,.83,1,.7.7,0,0,1,0,1A.69.69,0,0,1,24.06,216.19Zm97-1.19a.7.7,0,0,1-.51-1.18,11.53,11.53,0,0,0,.84-1,.69.69,0,0,1,1-.14.7.7,0,0,1,.15,1c-.3.39-.61.77-.94,1.13A.74.74,0,0,1,121.09,215Zm-99.48-3.69a.7.7,0,0,1-.69-.6,10.56,10.56,0,0,1-.11-1.49.7.7,0,0,1,.7-.7h0a.7.7,0,0,1,.7.7,10.86,10.86,0,0,0,.1,1.28.7.7,0,0,1-.59.8Zm102.2-1.1a.63.63,0,0,1-.19,0,.7.7,0,0,1-.49-.86,11,11,0,0,0,.26-1.27.71.71,0,0,1,.8-.6.69.69,0,0,1,.59.79,10.37,10.37,0,0,1-.3,1.45A.69.69,0,0,1,123.81,210.21ZM22.33,205.86a.86.86,0,0,1-.27-.05.71.71,0,0,1-.38-.92,12.58,12.58,0,0,1,.65-1.33.7.7,0,0,1,1.22.69,12.63,12.63,0,0,0-.57,1.17A.7.7,0,0,1,22.33,205.86Zm101.46-1.14a.73.73,0,0,1-.68-.5,7.18,7.18,0,0,0-.47-1.19.7.7,0,0,1,.33-.93.7.7,0,0,1,.94.32,9.8,9.8,0,0,1,.55,1.39.71.71,0,0,1-.47.88Zm-98.21-3.31a.67.67,0,0,1-.53-.25.7.7,0,0,1,.08-1,12.86,12.86,0,0,1,1.17-.89.7.7,0,0,1,.78,1.17,11.38,11.38,0,0,0-1,.79A.73.73,0,0,1,25.58,201.41Zm95-1.13a.67.67,0,0,1-.41-.13,8.21,8.21,0,0,0-1.1-.66.7.7,0,1,1,.62-1.26A8.79,8.79,0,0,1,121,199a.71.71,0,0,1,.17,1A.7.7,0,0,1,120.61,200.28Zm-90.12-1.37a.71.71,0,0,1-.16-1.39,12.5,12.5,0,0,1,1.47-.24.7.7,0,0,1,.13,1.4,9.23,9.23,0,0,0-1.28.21Zm84.9-.27h-1.48a.71.71,0,0,1,0-1.41h1.39a.75.75,0,0,1,.75.7A.68.68,0,0,1,115.39,198.64Zm-5.65,0h-1.39a.71.71,0,0,1,0-1.41h1.39a.71.71,0,0,1,0,1.41Zm-5.56,0h-1.39a.71.71,0,1,1,0-1.41h1.39a.71.71,0,0,1,0,1.41Zm-5.57,0H97.22a.71.71,0,0,1,0-1.41h1.39a.71.71,0,1,1,0,1.41Zm-5.56,0H91.66a.71.71,0,0,1,0-1.41h1.39a.71.71,0,0,1,0,1.41Zm-5.56,0H86.1a.71.71,0,1,1,0-1.41h1.39a.71.71,0,0,1,0,1.41Zm-5.56,0H80.54a.71.71,0,1,1,0-1.41h1.39a.71.71,0,0,1,0,1.41Zm-5.57,0H75a.71.71,0,0,1,0-1.41h1.39a.71.71,0,0,1,0,1.41Zm-5.56,0H69.41a.71.71,0,0,1,0-1.41H70.8a.71.71,0,0,1,0,1.41Zm-5.56,0H63.85a.71.71,0,1,1,0-1.41h1.39a.71.71,0,0,1,0,1.41Zm-5.57,0H58.28a.71.71,0,0,1,0-1.41h1.39a.71.71,0,1,1,0,1.41Zm-5.56,0H52.72a.71.71,0,0,1,0-1.41h1.39a.71.71,0,0,1,0,1.41Zm-5.56,0H47.16a.71.71,0,0,1,0-1.41h1.39a.71.71,0,0,1,0,1.41Zm-5.56,0h-1.4a.71.71,0,0,1,0-1.41H43a.71.71,0,0,1,0,1.41Zm-5.57,0H36a.71.71,0,0,1,0-1.41h1.39a.71.71,0,1,1,0,1.41Z" transform="translate(314.03 10.62)"></path><polygon class="cls-32" points="331.52 31.06 471.75 31.21 476.6 50.82 479.85 26.84 343.25 26.89 331.52 31.06"></polygon><polygon class="cls-33" points="331.52 31.06 323.33 46.24 461.11 46.24 475.34 61.23 476.6 50.82 471.75 31.21 331.52 31.06"></polygon><polygon class="cls-34" points="323.33 46.24 323.33 63.8 457.6 63.8 473.16 79.31 475.34 61.23 461.11 46.24 323.33 46.24"></polygon><polygon class="cls-30" points="331.51 31.06 351.02 31.17 362.56 26.97 343.24 26.89 331.51 31.06"></polygon><polygon class="cls-3" points="323.34 46.24 342.89 46.24 351.02 31.17 331.51 31.06 323.34 46.24"></polygon><rect class="cls-35" x="323.34" y="46.24" width="19.55" height="17.56"></rect><polygon class="cls-30" points="369.44 31.06 388.95 31.17 400.49 26.97 381.17 26.89 369.44 31.06"></polygon><polygon class="cls-3" points="361.27 46.24 380.82 46.24 388.95 31.17 369.44 31.06 361.27 46.24"></polygon><rect class="cls-36" x="361.27" y="46.24" width="19.55" height="17.56"></rect><polygon class="cls-30" points="407.8 31.06 427.31 31.17 438.85 26.97 419.53 26.89 407.8 31.06"></polygon><polygon class="cls-3" points="399.63 46.24 419.18 46.24 427.31 31.17 407.8 31.06 399.63 46.24"></polygon><rect class="cls-37" x="399.63" y="46.24" width="19.55" height="17.56"></rect><polygon class="cls-30" points="446.16 31.06 465.68 31.17 477.21 26.97 457.89 26.89 446.16 31.06"></polygon><polygon class="cls-3" points="437.99 46.24 457.54 46.24 465.68 31.17 446.16 31.06 437.99 46.24"></polygon><rect class="cls-38" x="437.99" y="46.24" width="19.55" height="17.56"></rect><path class="cls-3" d="M9.31,53c0,.08,0,.17,0,.26a9.59,9.59,0,0,0,19.18,0c0-.09,0-.18,0-.26Z" transform="translate(314.03 10.62)"></path><path class="cls-39" d="M28.49,53c0,.08,0,.17,0,.26a9.59,9.59,0,1,0,19.18,0c0-.09,0-.18,0-.26Z" transform="translate(314.03 10.62)"></path><path class="cls-3" d="M47.67,53c0,.08,0,.17,0,.26a9.59,9.59,0,0,0,19.18,0c0-.09,0-.18,0-.26Z" transform="translate(314.03 10.62)"></path><path class="cls-40" d="M66.85,53c0,.08,0,.17,0,.26a9.59,9.59,0,1,0,19.18,0c0-.09,0-.18,0-.26Z" transform="translate(314.03 10.62)"></path><path class="cls-3" d="M86,53a2.11,2.11,0,0,0,0,.26,9.59,9.59,0,1,0,19.18,0c0-.09,0-.18,0-.26Z" transform="translate(314.03 10.62)"></path><path class="cls-41" d="M105.22,53a2.11,2.11,0,0,0,0,.26,9.59,9.59,0,1,0,19.18,0c0-.09,0-.18,0-.26Z" transform="translate(314.03 10.62)"></path><path class="cls-3" d="M124.4,53c0,.08,0,.17,0,.26a9.59,9.59,0,1,0,19.18,0c0-.09,0-.18,0-.26Z" transform="translate(314.03 10.62)"></path><polygon class="cls-42" points="435.24 164.65 436.48 164.66 437.57 157.88 436.33 157.87 435.24 164.65"></polygon><polygon class="cls-42" points="432.9 161.86 439.76 161.89 439.91 160.66 433.04 160.64 432.9 161.86"></polygon><polygon class="cls-42" points="379.66 164.65 380.89 164.66 381.99 157.88 380.75 157.87 379.66 164.65"></polygon><polygon class="cls-42" points="377.31 161.86 384.18 161.89 384.33 160.66 377.46 160.64 377.31 161.86"></polygon><polygon class="cls-42" points="441.21 108.37 442.45 108.38 443.54 101.6 442.31 101.59 441.21 108.37"></polygon><polygon class="cls-42" points="438.87 105.58 445.74 105.61 445.89 104.38 439.02 104.36 438.87 105.58"></polygon><polygon class="cls-42" points="385.63 108.37 386.87 108.38 387.96 101.6 386.72 101.59 385.63 108.37"></polygon><polygon class="cls-42" points="383.29 105.58 390.15 105.61 390.3 104.38 383.44 104.36 383.29 105.58"></polygon><rect class="cls-7" x="-213.67" y="210.86" width="24.2" height="53.89" transform="translate(-108.46 28.48) rotate(-85.41)"></rect><rect class="cls-14" x="-197.32" y="223.63" width="24.2" height="30.97" transform="matrix(0.08, -1, 1, 0.08, -94.74, 46)"></rect><rect class="cls-30" x="-206.39" y="242.48" width="5.44" height="3.73" transform="translate(-117.05 32.55) rotate(-85.45)"></rect><path class="cls-42" d="M-185.14,235.27c3.6.29,7-2.75,9.16-7.55l-17-1.36C-191.62,231.44-188.74,235-185.14,235.27Z" transform="translate(314.03 10.62)"></path><rect class="cls-43" x="-216.79" y="229.89" width="2.82" height="11.48" transform="translate(-119.04 12.75) rotate(-85.42)"></rect><rect class="cls-44" x="-216.6" y="185.58" width="27.71" height="52.19" transform="translate(-83.51 3.28) rotate(-85.42)"></rect><rect class="cls-14" x="-199.41" y="197.57" width="27.71" height="30.97" transform="translate(-69.06 21.7) rotate(-85.42)"></rect><rect class="cls-30" x="-207.19" y="217.38" width="6.23" height="3.73" transform="translate(-92.34 8.99) rotate(-85.43)"></rect><path class="cls-42" d="M-185.42,208.65c3.6.29,7.06-3.23,9.25-8.74l-17-1.36C-191.86,204.34-189,208.36-185.42,208.65Z" transform="translate(314.03 10.62)"></path><rect class="cls-14" x="-217.31" y="203.67" width="3.23" height="11.48" transform="translate(-93.17 -11.7) rotate(-85.42)"></rect><rect class="cls-45" x="-221.85" y="156.13" width="28.54" height="54" transform="matrix(0.08, -1, 1, 0.08, -59.49, -27.82)"></rect><rect class="cls-7" x="-205.56" y="168.95" width="28.54" height="30.97" transform="translate(-45.8 -10.37) rotate(-85.41)"></rect><rect class="cls-30" x="-214.24" y="188.89" width="6.42" height="3.73" transform="translate(-70.22 -24.26) rotate(-85.4)"></rect><path class="cls-46" d="M-192.34,179.8c3.59.29,7.06-3.35,9.27-9l-17-1.37C-198.78,175.37-195.94,179.51-192.34,179.8Z" transform="translate(314.03 10.62)"></path><rect class="cls-47" x="-224.29" y="174.92" width="3.33" height="11.48" transform="translate(-70.85 -45.1) rotate(-85.41)"></rect><rect class="cls-48" x="-215.44" y="202.11" width="69.39" height="29.55" transform="translate(-67.24 28.77) rotate(-85.06)"></rect><rect class="cls-49" x="-239.87" y="205.04" width="69.39" height="19.48" transform="translate(-87.49 2.53) rotate(-85.07)"></rect><rect class="cls-50" x="-182.11" y="212.52" width="0.92" height="29.55" transform="translate(-78.44 37.39) rotate(-85.07)"></rect><rect class="cls-51" x="-206.57" y="215.48" width="0.92" height="19.4" transform="translate(-98.7 11.09) rotate(-85.07)"></rect><rect class="cls-52" x="-180.19" y="190.35" width="0.92" height="29.55" transform="translate(-54.6 19.03) rotate(-85.06)"></rect><rect class="cls-53" x="-204.66" y="193.32" width="0.92" height="19.4" transform="translate(-74.87 -7.26) rotate(-85.07)"></rect><rect class="cls-30" x="-170.77" y="199.36" width="4.29" height="4.97" transform="translate(-41.18 27.1) rotate(-85.06)"></rect><rect class="cls-30" x="-193.34" y="219.51" width="4.3" height="4.97" transform="translate(-81.88 23.04) rotate(-85.06)"></rect><polygon class="cls-30" points="119.71 256.07 124.02 259.16 125.6 255.34 121.28 252.25 119.71 256.07"></polygon><rect class="cls-54" x="-205.9" y="181.93" width="5.29" height="3.88" transform="translate(-54.87 -23.87) rotate(-85.05)"></rect><rect class="cls-14" x="-207.79" y="203.83" width="5.29" height="3.88" transform="translate(-78.53 -5.65) rotate(-85.08)"></rect><rect class="cls-55" x="-209.9" y="226.1" width="5.61" height="4.12" transform="translate(-102.59 12.86) rotate(-85.08)"></rect><rect class="cls-3" x="-236.2" y="203.28" width="23.68" height="26.08" transform="translate(216.04 -57.95) rotate(-22.12)"></rect><rect class="cls-56" x="-213.87" y="196.37" width="13.01" height="26.08" transform="translate(219.89 -52.06) rotate(-22.13)"></rect><polygon class="cls-57" points="73.8 219.32 78.53 230.96 96.84 223.51 95.75 210.4 73.8 219.32"></polygon><polygon class="cls-58" points="95.73 210.4 96.03 210.88 105.75 224.59 114.15 221.17 107.78 205.5 95.73 210.4"></polygon><polygon class="cls-3" points="72.7 228.72 95.23 219.56 95.76 210.36 73.92 219.24 72.7 228.72"></polygon><polygon class="cls-3" points="95.84 210.33 102.91 218.26 114.85 213.41 107.78 205.47 95.84 210.33"></polygon><path class="cls-18" d="M-100.91,223c-2.25-.36-6.42.91-5.35,2.63,0,0,2.62,1.95,5.12,1.65S-98.65,223.34-100.91,223Z" transform="translate(314.03 10.62)"></path><path class="cls-59" d="M-100.68,265.38c-1.56-3.63-3-7.61-4.73-8.74s-10,.8-7.17,5.63c0,0,13.31,19.84,13.81,20.66s2.7,1.7,3.56.53.76-2-.15-4.18S-99.12,269-100.68,265.38Z" transform="translate(314.03 10.62)"></path><path class="cls-60" d="M-101.73,223.27c-8.43,10.47-15.5,27.26-15.5,30.16,0,1.73,12.81,25.37,14.27,26.79a13.18,13.18,0,0,0,8.38-3.54s-9.31-19.86-9.14-20.81a7.77,7.77,0,0,1,.18-1.38c.41-.82-.64-1-.36-1.46s9.81-10.27,14.14-17.91S-94.28,214-101.73,223.27Z" transform="translate(314.03 10.62)"></path><path class="cls-61" d="M-101.73,223.27c-.48.6-1,1.24-1.44,1.9,2.23,1.09,6.81,5.34,3.66,6.3-1.17.36-3.46.42-2.48,1.25,0,0,3.69,3.89,3.76,4.74.14,1.73-3.54,3.28-4.61,4.62-1.39,1.75-3.78,4-3.68,4.82.78,6.61-3.73,5.55-4,7.33-.21,1.3,2.52,2.7,3.3,3.69,3,3.78,1.26,8.33,3.75,12a51.4,51.4,0,0,1,4.61,9.43,12.24,12.24,0,0,0,4.31-2.69s-9.31-19.86-9.14-20.81a7.77,7.77,0,0,1,.18-1.38c.41-.82-.64-1-.36-1.46s9.81-10.27,14.14-17.91S-94.28,214-101.73,223.27Z" transform="translate(314.03 10.62)"></path><path class="cls-59" d="M-58.66,268.13c-2.84-2.73-5.73-5.84-7.75-6.21s-9,4.64-4.42,8c0,0,9.78,5.68,14.83,9.16a50.89,50.89,0,0,1,5.92,4.51c.79.57,3.15.53,3.48-.9s-.07-2.13-1.76-3.78S-55.81,270.86-58.66,268.13Z" transform="translate(314.03 10.62)"></path><path class="cls-62" d="M-71.59,255.91c-.63-.41-1.35.26-1.46-.48s-.39-34.11-7.76-38c-4.49-2.38-10.85-1.81-14.78-.13-2.78,1.2-5.47,5.62-4.34,7.79s16.7,36.05,18.22,37.68,24.53,17.48,24.53,17.48,5-3.28,5.75-7.32c0,0-16.09-15-19.18-15.67C-71.43,257.06-70.95,256.32-71.59,255.91Z" transform="translate(314.03 10.62)"></path><path class="cls-63" d="M-71.59,255.91c-.63-.41-1.35.26-1.46-.48s-.39-34.11-7.76-38c-4.49-2.38-10.85-1.81-14.78-.13-2.78,1.2-5.47,5.62-4.34,7.79.16.32.42.77.74,1.32a3.84,3.84,0,0,1,4.19-.13c2.87,1.62,5.58,3.5,8.46,5.1,2.49,1.38,4.34,2.74,5.63,5.32,1.78,3.52.31,7.49.5,11.36.1,1.95,1.89,3.42,2.52,5.29,1.52,4.43,1.47,9.52,5.72,12.36a117.91,117.91,0,0,0,10.93,6.37c2.69,1.4,2.48,4.32.93,6.11l3.13,2.06s5-3.28,5.75-7.32c0,0-16.09-15-19.18-15.67C-71.43,257.06-70.95,256.32-71.59,255.91Z" transform="translate(314.03 10.62)"></path><path class="cls-59" d="M-124.2,193.05c-2.91-.05-19.7,2.19-21,1.79s-2.93-2.38-3.21-2.49-.71-.36-.94-.46-.61.05-1.3.32a12.34,12.34,0,0,0-2.36,1.58c-.13.16-.43,1.13-.71,1.53s-.35.57-.14.6a1.71,1.71,0,0,0,1.22-.6c.3-.41.35-.88.62-1a3.27,3.27,0,0,1,1.58-.07,16.41,16.41,0,0,1,1.75,2c.71.89,2.07,1.32,3.87,1.14,4,.66,11.81,1.72,15.3,1.9s5.78.54,6.75-.34a4.16,4.16,0,0,0,1.35-3.38C-121.61,194.53-121.29,193.09-124.2,193.05Z" transform="translate(314.03 10.62)"></path><path class="cls-64" d="M-108.57,184.45c-3.22,1.76-15.63,8.6-15.63,8.6l1.45,8.4s4.46-.42,4.81-.77.51-.81.86-1,10.1-3.77,13.15-5.63c4.09-2.5,4.88-6.49,2.43-9.17C-102.72,183.58-105.38,182.7-108.57,184.45Z" transform="translate(314.03 10.62)"></path><path class="cls-19" d="M-120.94,191.25c-1.18-.74-5,1.17-4.19,1.83.4.3,1,2.65.87,4s-.7,3.82-.06,3.85,3.38.39,3.78.3.53-.4.66-1S-118.26,192.94-120.94,191.25Z" transform="translate(314.03 10.62)"></path><path class="cls-65" d="M-107.48,185.83c-.57,2.08.26,4.39-.62,8s-1.61,5.17-.71,8,3.25,2.35,2.89,6.31-1.14,12.28,6.41,15l-3.23-40.25A3.78,3.78,0,0,0-107.48,185.83Z" transform="translate(314.03 10.62)"></path><path class="cls-66" d="M-104.14,184.91s-1,7.63-1.38,10.8-3.27,6.13-.64,8.94c4.5,4.8,2.3,16,.78,17.71s-1.6,2.59-.9,3.25c0,0-.87-1.25,2.8-.65s9.69,3.89,16.7,2.84,9.59-3.61,10-4.65c0,0-9-17.08-10.53-29C-88,189-104.14,184.91-104.14,184.91Z" transform="translate(314.03 10.62)"></path><path class="cls-42" d="M-101.4,191.19c.06,3,.84,4.14,2.86,6.22,1.24,1.28-5.19,4-4.82,5.83.87,4.18,7.21,3.74,5,6.93-.36.53-4.14,4,5.08,6.25,3.26.78,3.74,2.28,6.71,3.72,4.85,2.34,2,5.08,2.51,7.11,4.94-1.22,6.88-3.21,7.19-4.1,0,0-9-17.08-10.53-29C-87.86,190.4-101.42,190.25-101.4,191.19Z" transform="translate(314.03 10.62)"></path><path class="cls-59" d="M-100.77,174l-7,6.27s3.09,1.54,3.5,3.11,0,4.82,0,5.85,3.19-.42,4.45-2.51a55.17,55.17,0,0,0,2.93-6.62S-100.3,177.36-100.77,174Z" transform="translate(314.03 10.62)"></path><path class="cls-67" d="M-100.77,174l-7,6.27a23.21,23.21,0,0,0,2.89.57c3.05.12,5.36-2.4,5.36,1.19,0,1.65,0,3.66,1.07,1.63.72-1.36,1.56-3.56,1.56-3.56S-100.3,177.36-100.77,174Z" transform="translate(314.03 10.62)"></path><path class="cls-68" d="M-72.13,153.87c-2.94-2.13-5.76-1.38-8.2.08s-3.9,3.6-6.52,3.76c-1.61.09-5.37-2.91-9.2-1-3.34,1.67-2.87,3.82-2.87,3.82s.78.83,1.33,1.57a2.08,2.08,0,0,0,2.57.35c1.09-.58,1.34-1.75,3.35-.74s4.15,5.66,8.48,4.6,5.29-4.29,8.48-6.09,5.34,1.48,5.34,1.48C-69.32,158.1-69.19,156-72.13,153.87Z" transform="translate(314.03 10.62)"></path><path class="cls-69" d="M-111.43,161.82c-1.61.84-3.66,3-3.38,5.21s2.31,4.68,6.79,3.39,4.83-6.56,3.25-7.95A5.9,5.9,0,0,0-111.43,161.82Z" transform="translate(314.03 10.62)"></path><path class="cls-59" d="M-106.29,160.92c-6,1.27-6.62,5.29-6.95,9a5.74,5.74,0,0,1-.82,2.88c-.53.9-1.22,1.51-1.22,2.2s1.33.77,1.46,1,1.17,4.49,1.43,4.71c.62.54,1,.56,2.48.34s4.7-.93,8.07-5.31c4.4-1.81,6.1-3.72,6.33-7.74S-100.27,159.66-106.29,160.92Z" transform="translate(314.03 10.62)"></path><path class="cls-67" d="M-114.14,174.93c-.22-.09-.31.29-.31.29.29,0,.82.33.83.29A1.53,1.53,0,0,0-114.14,174.93Z" transform="translate(314.03 10.62)"></path><path class="cls-70" d="M-95.43,164c-1-2-3.09-4.19-7.26-4.86s-6.12,1.6-6.12,1.6c-.62.14-3.79-.42-5,1-4.44,5.12,12.06,5.69,12.06,9.43,0,0,.24,3.44,1.22,4.68s5.94,1.41,5.42-2.89C-95.43,170.21-93.47,168-95.43,164Z" transform="translate(314.03 10.62)"></path><path class="cls-59" d="M-100.86,171.43c-1.31.32-1.31,1.1-1.59,1.83s-.65,2.69.51,2.93c.92.19,1.37-.81,2.23-1.54C-98.49,173.61-99,171-100.86,171.43Z" transform="translate(314.03 10.62)"></path><path class="cls-14" d="M-101.45,174.86a.42.42,0,0,0-.48.34.42.42,0,0,0,.27.53.42.42,0,0,0,.48-.35A.42.42,0,0,0-101.45,174.86Z" transform="translate(314.03 10.62)"></path><path class="cls-71" d="M-98.55,158.87s-1,.25-1.11,1.1l4,3.65a1.21,1.21,0,0,0,.82-1.25A6.59,6.59,0,0,0-98.55,158.87Z" transform="translate(314.03 10.62)"></path><path class="cls-72" d="M-68.11,153l-.29.3-.43.33a1.53,1.53,0,0,1-.25.16,1.82,1.82,0,0,0-.27.15,2.64,2.64,0,0,1-.3.1l-.15,0a.44.44,0,0,1-.16,0,1.73,1.73,0,0,1-.32,0c-.11,0-.22,0-.33,0l-.33-.08-.33-.13a7,7,0,0,1-.69-.31l-.7-.33c-.25-.11-.48-.22-.73-.31a5.15,5.15,0,0,0-.71-.21,5.43,5.43,0,0,0-.68-.13l-.3,0h-.19l-.37,0,.19,2.16.36-.08.19,0,.16,0a2.1,2.1,0,0,1,.4,0,5.43,5.43,0,0,1,.55,0c.2,0,.43.06.66.1l.76.15c.26.06.55.11.83.15l.45,0h.46a3.5,3.5,0,0,0,.45-.07,2.07,2.07,0,0,0,.42-.14l.19-.08.18-.11c.11-.08.23-.14.32-.22l.27-.24a1.71,1.71,0,0,0,.22-.25l.35-.44.22-.37.19-.32,0,0Z" transform="translate(314.03 10.62)"></path><path class="cls-73" d="M-72.86,164.7a5.15,5.15,0,0,0-.2-.59c0-.11-.1-.23-.16-.36a3.85,3.85,0,0,0-.23-.38,2.93,2.93,0,0,0-.75-.74,3,3,0,0,0-1.13-.45,7.17,7.17,0,0,0-2.49.07c-.81.13-1.59.31-2.3.46s-1.35.27-1.9.35l-.74.09c-.22,0-.38,0-.53,0l-.53,0,.56,3.09.52-.17.66-.23.79-.31c.57-.24,1.21-.54,1.87-.87s1.35-.67,2-1a6.39,6.39,0,0,1,2-.58,2.32,2.32,0,0,1,.88.1,2.3,2.3,0,0,1,.71.42,3.7,3.7,0,0,1,.28.28,3.11,3.11,0,0,1,.23.28c.14.18.24.36.33.5l.18.35a.73.73,0,0,0,.07.13,1.31,1.31,0,0,0,0-.14C-72.79,165-72.81,164.87-72.86,164.7Z" transform="translate(314.03 10.62)"></path><path class="cls-74" d="M-104.39,170.44c-2.31.69-6.09-4-6.56-5.73l-1.44.53c.85,2.25,3.44,5.06,5.69,5.79,3.39,1.09,5-2.4,5-2.4A4.8,4.8,0,0,1-104.39,170.44Z" transform="translate(314.03 10.62)"></path><path class="cls-75" d="M-79.5,214.18c-3.81-.78-.07-3.55-1.71-5.74-.7-.94-3.52-3.76-3.56-6.59s-1.23-6.37-2.06-10.56A16.6,16.6,0,0,0-92,182.08c-2.74-2.48-5.74-3.16-6.63-3.78,0,0-4.49,9.54-4.57,18.44a20.63,20.63,0,0,0,14.58,19.65c8.46,2.39,12.43.59,15.48,2A11.9,11.9,0,0,0-79.5,214.18Z" transform="translate(314.03 10.62)"></path><path class="cls-76" d="M-78.44,213.32c-5.18,2.85-12.54,2.53-14.58.92,7,6.17,20,8.55,23.57,3.54a14.17,14.17,0,0,1,8.8-5.72C-67.76,208.56-73.26,210.46-78.44,213.32Z" transform="translate(314.03 10.62)"></path><path class="cls-14" d="M-41.48,283.45l-7.3,10.29-11.82-.18v.64c0,.19,0,.56.71.56H-49a1.84,1.84,0,0,0,1.72-.71c.55-.56,6.26-9.21,6.37-9.4a.67.67,0,0,0,0-.67A3.66,3.66,0,0,0-41.48,283.45Z" transform="translate(314.03 10.62)"></path><path class="cls-59" d="M-47.62,279.64c-.27-.29-1.31.15-1.9.67s-1.42,2.58-1.87,4.64-.9,3.82-1.24,4.08-5.65,2.32-5.84,2.77-.3,1.84.82,1.91,8.06,0,8.73-.45A48.06,48.06,0,0,0-44,286.6c1-1.73,1.5-3.3.9-3.94S-47.34,279.93-47.62,279.64Z" transform="translate(314.03 10.62)"></path><path class="cls-77" d="M-44.8,280.94a.42.42,0,0,0-.55.17S-48,290-48.15,290.4a1.69,1.69,0,0,1-1.05.78c-.32,0-1,0-1,0a32.26,32.26,0,0,0,1.89,2.87s6.76-9.78,7-10.15-.08-.67-.23-.84A26.59,26.59,0,0,0-44.8,280.94Z" transform="translate(314.03 10.62)"></path><path class="cls-78" d="M-53.71,288.88a41.42,41.42,0,0,0-5.92,2.83,2.11,2.11,0,0,0-1,1.85c0,.49.18.49.78.49h11.46a8.24,8.24,0,0,0-2-3.73C-51.71,289.18-53,288.73-53.71,288.88Z" transform="translate(314.03 10.62)"></path><path class="cls-14" d="M-89.86,284l-7,9.84-11.31-.17v.6c0,.18,0,.54.68.54h10.37a1.76,1.76,0,0,0,1.64-.68c.52-.54,6-8.81,6.09-9a.64.64,0,0,0,0-.64A3.4,3.4,0,0,0-89.86,284Z" transform="translate(314.03 10.62)"></path><path class="cls-59" d="M-95.72,280.31c-.26-.28-1.26.14-1.82.63s-1.36,2.47-1.79,4.44-.86,3.65-1.18,3.91-5.41,2.21-5.59,2.64-.28,1.76.79,1.83,7.7,0,8.34-.43A48.25,48.25,0,0,0-92.28,287c1-1.65,1.43-3.15.86-3.76S-95.46,280.58-95.72,280.31Z" transform="translate(314.03 10.62)"></path><path class="cls-79" d="M-93,281.55a.41.41,0,0,0-.53.16s-2.5,8.54-2.68,8.88a1.59,1.59,0,0,1-1,.75c-.3,0-1,0-1,0a28.79,28.79,0,0,0,1.81,2.74s6.46-9.34,6.66-9.7-.08-.64-.22-.81A27.17,27.17,0,0,0-93,281.55Z" transform="translate(314.03 10.62)"></path><path class="cls-80" d="M-101.55,289.14a40.52,40.52,0,0,0-5.66,2.71,2,2,0,0,0-.93,1.77c0,.46.18.46.76.46h10.95a7.86,7.86,0,0,0-1.9-3.56A4.64,4.64,0,0,0-101.55,289.14Z" transform="translate(314.03 10.62)"></path><path class="cls-81" d="M-214.86,285.75a4.51,4.51,0,0,0-4.5,4.51,4.51,4.51,0,0,0,4.5,4.5,4.51,4.51,0,0,0,4.51-4.5A4.51,4.51,0,0,0-214.86,285.75Z" transform="translate(314.03 10.62)"></path><path class="cls-82" d="M-214.86,287a3.24,3.24,0,0,0-3.23,3.24,3.23,3.23,0,0,0,3.23,3.23,3.24,3.24,0,0,0,3.24-3.23A3.24,3.24,0,0,0-214.86,287Z" transform="translate(314.03 10.62)"></path><rect class="cls-83" x="94.81" y="292.88" width="2.89" height="3.5"></rect><path class="cls-84" d="M-215.29,285.46a1.36,1.36,0,0,0-1.22-.91h-2.62a1,1,0,0,0-1,.95v2a2.17,2.17,0,0,0,.75,1.54l2,1.57a3.24,3.24,0,0,0,1.7.58h1.1a.67.67,0,0,0,.68-.91Z" transform="translate(314.03 10.62)"></path><path class="cls-85" d="M-214.86,289.83a.43.43,0,0,0-.43.43.44.44,0,0,0,.43.43.43.43,0,0,0,.43-.43A.43.43,0,0,0-214.86,289.83Z" transform="translate(314.03 10.62)"></path><path class="cls-86" d="M-216.22,289.83a.43.43,0,0,0-.43.43.43.43,0,0,0,.43.43.44.44,0,0,0,.43-.43A.43.43,0,0,0-216.22,289.83Z" transform="translate(314.03 10.62)"></path><path class="cls-87" d="M-139.25,285.75a4.51,4.51,0,0,0-4.51,4.51,4.51,4.51,0,0,0,4.51,4.5,4.51,4.51,0,0,0,4.5-4.5A4.51,4.51,0,0,0-139.25,285.75Z" transform="translate(314.03 10.62)"></path><path class="cls-88" d="M-139.25,287a3.24,3.24,0,0,0-3.24,3.24,3.24,3.24,0,0,0,3.24,3.23,3.23,3.23,0,0,0,3.23-3.23A3.24,3.24,0,0,0-139.25,287Z" transform="translate(314.03 10.62)"></path><path class="cls-89" d="M-143.48,277.5c-.84-.42-3.21-1.52-3.31-1.57l-1.2,2.6s2.43,1.12,3.23,1.52c.55.27,1.16.89,1.16,1.35v4.1h2.85v-4.1A4.7,4.7,0,0,0-143.48,277.5Z" transform="translate(314.03 10.62)"></path><path class="cls-90" d="M-139.69,285.46a1.36,1.36,0,0,0-1.22-.91h-2.62a1,1,0,0,0-.95.95v2a2.21,2.21,0,0,0,.75,1.54l2,1.57a3.24,3.24,0,0,0,1.7.58h1.1a.67.67,0,0,0,.68-.91Z" transform="translate(314.03 10.62)"></path><path class="cls-91" d="M-139.25,289.83a.43.43,0,0,0-.43.43.43.43,0,0,0,.43.43.43.43,0,0,0,.42-.43A.42.42,0,0,0-139.25,289.83Z" transform="translate(314.03 10.62)"></path><path class="cls-92" d="M-140.62,289.83a.43.43,0,0,0-.43.43.43.43,0,0,0,.43.43.43.43,0,0,0,.43-.43A.43.43,0,0,0-140.62,289.83Z" transform="translate(314.03 10.62)"></path><path class="cls-93" d="M-235.37,216.25c2.13-.34,52.55-4.34,78.92-6.41l-.17-1.59c-3.11.25-76.34,6-79.08,6.43a3.81,3.81,0,0,0-3.58,4.25v25a4.69,4.69,0,0,0,3.9,5c1.43.21,64.49,5.44,67.17,5.66L-168,253c-22.66-1.88-65.82-5.47-67-5.65s-2.38-1.14-2.38-3.41v-25C-237.46,217.45-237.12,216.54-235.37,216.25Z" transform="translate(314.03 10.62)"></path><path class="cls-94" d="M-235.65,245.87c1.39.2,60.3,4.9,68.89,5.58l.15-1.06c-23.85-1.9-67.72-5.41-68.85-5.57Z" transform="translate(314.03 10.62)"></path><path class="cls-95" d="M-235.61,242.46c1.82.13,59.39,3.56,69.65,4.17.07-.35.13-.7.21-1.06-9.92-.58-67.94-4-69.76-4.17Z" transform="translate(314.03 10.62)"></path><path class="cls-96" d="M-235.58,239.05c2.27.07,59.66,2.36,70.74,2.8.09-.35.19-.7.29-1.06-10.46-.41-68.69-2.73-71-2.81Z" transform="translate(314.03 10.62)"></path><path class="cls-97" d="M-235.56,235.63c2.74,0,61,1.22,72.13,1.45.11-.35.24-.71.36-1.06-10.24-.21-69.7-1.43-72.48-1.45Z" transform="translate(314.03 10.62)"></path><path class="cls-98" d="M-235.56,231.15v1.07c3.24,0,63.12.07,73.74.09.12-.35.24-.71.35-1.06C-171,231.23-232.27,231.12-235.56,231.15Z" transform="translate(314.03 10.62)"></path><path class="cls-99" d="M-235.54,228.8c3.73-.09,64.67-1.09,75.19-1.26.11-.36.21-.72.31-1.07-9.49.15-71.75,1.18-75.53,1.27Z" transform="translate(314.03 10.62)"></path><path class="cls-100" d="M-235.53,225.39l76.54-2.63c.11-.36.22-.72.32-1.08l-76.91,2.64Z" transform="translate(314.03 10.62)"></path><path class="cls-101" d="M-235.53,222c4.71-.2,67.4-3.44,78-4,.11-.36.23-.72.35-1.08-9.19.47-73.64,3.81-78.42,4Z" transform="translate(314.03 10.62)"></path><path class="cls-102" d="M-235.52,218.56c5.26-.26,70.29-4.73,79.76-5.38.15-.37.3-.74.46-1.1-7.09.49-74.92,5.15-80.29,5.42Z" transform="translate(314.03 10.62)"></path><polygon class="cls-103" points="138.96 263.78 140.15 264 150.25 221.94 149.06 221.73 138.96 263.78"></polygon><polygon class="cls-104" points="133.84 263.33 135.03 263.53 144.11 222.43 142.92 222.23 133.84 263.33"></polygon><polygon class="cls-105" points="128.71 262.88 129.9 263.06 137.98 222.92 136.79 222.74 128.71 262.88"></polygon><polygon class="cls-106" points="123.58 262.43 124.78 262.59 131.85 223.41 130.65 223.24 123.58 262.43"></polygon><polygon class="cls-107" points="118.46 261.98 119.66 262.12 125.71 223.89 124.51 223.75 118.46 261.98"></polygon><polygon class="cls-108" points="113.33 261.52 114.53 261.65 119.58 224.38 118.38 224.25 113.33 261.52"></polygon><polygon class="cls-109" points="108.2 261.07 109.41 261.18 113.45 224.87 112.24 224.76 108.2 261.07"></polygon><polygon class="cls-110" points="103.08 260.63 104.28 260.71 107.31 225.35 106.1 225.27 103.08 260.63"></polygon><polygon class="cls-111" points="97.95 260.18 99.16 260.23 101.18 225.84 99.97 225.78 97.95 260.18"></polygon><polygon class="cls-112" points="92.82 259.73 94.04 259.76 95.05 226.32 93.83 226.29 92.82 259.73"></polygon><path class="cls-113" d="M-239.93,218.36v25c0,3.05,2,5.5,4.27,5.83,1.43.21,5.19.6,5.76.6s1.63-.24,1.63-1.15v-26.2c0-3.46.42-4.13,4.59-4.46s64.87-4.42,64.87-4.42l1.54-5.9c-3.11.25-76.34,6-79.08,6.43A3.81,3.81,0,0,0-239.93,218.36Z" transform="translate(314.03 10.62)"></path><path class="cls-114" d="M-239.93,218.36v25c0,3.05,2,5.5,4.27,5.83.46.07,1.18.15,1.95.24a5.94,5.94,0,0,1-3.2-5.5v-25c0-1,0-3.66,3.58-4.25,2.44-.39,61.11-5,75.85-6.17l.21-.83c-3.11.25-76.34,6-79.08,6.43A3.81,3.81,0,0,0-239.93,218.36Z" transform="translate(314.03 10.62)"></path><path class="cls-115" d="M-148.87,267.35c-1.24-.87-10.27-5.14-12.7-6.52-3-1.69-4-4.3-3.14-7.76.6-2.26,12.38-52.7,12.78-54.43l-3.25-.75c-.1.42-12.17,52.12-12.75,54.33-1.3,5,.37,9,4.72,11.51,2.54,1.44,11.42,5.64,12.42,6.35a5.51,5.51,0,0,1,2,6.51c-1,2.46-3.36,3.14-10.84,3.14h-61.49a1.67,1.67,0,0,0-1.67,1.67,1.67,1.67,0,0,0,1.67,1.66h61.49c7.1,0,11.9-.36,13.92-5.19A8.85,8.85,0,0,0-148.87,267.35Z" transform="translate(314.03 10.62)"></path><path class="cls-116" d="M-142,195l-11.69,1.49a1.84,1.84,0,0,0-1.59,2,1.83,1.83,0,0,0,2,1.59l11.69-1.49a1.82,1.82,0,0,0,1.58-2A1.82,1.82,0,0,0-142,195Z" transform="translate(314.03 10.62)"></path><path class="cls-59" d="M-111.87,199.62c-1.65-.72-1.56-1.54-4.84-2s-19-.1-20.47-.73-3-3.09-3.28-3.25-.76-.5-1-.65-.7,0-1.51.18a13.45,13.45,0,0,0-2.88,1.47c-.17.16-.64,1.21-1,1.62s-.48.6-.24.66a2,2,0,0,0,1.45-.5c.4-.43.53-1,.85-1s-.23,2.55,1.14,3.19c.3.14,1.67-1.63,2.35-.54s2.15,1.77,4.21,1.82c4.47,1.29,13.08,3.55,17,4.24s6.45,1.4,7.67.54,2.55-1.81,2.52-3S-111.11,200-111.87,199.62Z" transform="translate(314.03 10.62)"></path><path class="cls-67" d="M-111.87,199.62c-1.24-.55-1.5-1.14-2.95-1.59a2.5,2.5,0,0,1-1.88,3.07c-4.78,1.24-9-1.18-13.63-1.77-2.56-.32-5.53.79-8-.05-2-.68-3.3-2.61-4.87-3.95a2.46,2.46,0,0,1-.91-1.68,12.64,12.64,0,0,0-1.75,1c-.17.16-.64,1.21-1,1.62s-.48.6-.24.66a2,2,0,0,0,1.45-.5c.4-.43.53-1,.85-1s-.23,2.55,1.14,3.19c.3.14,1.67-1.63,2.35-.54s2.15,1.77,4.21,1.82c4.47,1.29,13.08,3.55,17,4.24s6.45,1.4,7.67.54,2.55-1.81,2.52-3S-111.11,200-111.87,199.62Z" transform="translate(314.03 10.62)"></path><path class="cls-117" d="M-94.71,181.74c-1.78-1.06-3.86-.71-6.27,2.7s-5.45,5.63-7.68,8.15a77.23,77.23,0,0,1-6.13,5.81l2.29,5.83a8.84,8.84,0,0,1,3,.05c.93.33,1.7.75,2,.25s.29-1.06.62-1.35,9.86-7.49,12.6-10.55C-90.67,188.53-91.13,183.88-94.71,181.74Z" transform="translate(314.03 10.62)"></path><path class="cls-19" d="M-92.27,186.3c.19,1-1.92,3-4.48,4.51-1.94,1.14-3.44,1-4.65,2.94-.92,1.45-.69,3.75-2,3.18-.11-.05-2.59-1.28-2.76.7-.16,1.8-1.74,4.8-3.49,3.67-1-.67-2.25,1-3.46,1.35l.62,1.58a8.84,8.84,0,0,1,3,.05c.93.33,1.7.75,2,.25s.29-1.06.62-1.35,9.86-7.49,12.6-10.55C-90.67,188.53-92.34,186-92.27,186.3Z" transform="translate(314.03 10.62)"></path><path class="cls-19" d="M-112.78,196.32a1,1,0,0,0-1,.05,19.5,19.5,0,0,0-2.26,1.25c-.07.16-.14.27.11.78a18,18,0,0,1,1.42,3.77,14.43,14.43,0,0,1,.26,2.61c.07.2.13,1.08,1,.89a30.25,30.25,0,0,0,3.54-.74c.4-.22.45-.61.4-1.29S-110,198.64-112.78,196.32Z" transform="translate(314.03 10.62)"></path><path class="cls-118" d="M-108.86,197.64a.47.47,0,0,0-.62-.08,12.17,12.17,0,0,1-5.43,3.16.29.29,0,0,0-.13.31c0,.23.39,1.38.44,1.62a.38.38,0,0,0,.25.28,6.57,6.57,0,0,0,3.22-.81A12.4,12.4,0,0,0-108,200a.71.71,0,0,0,.15-.72C-108,199.14-108.75,197.79-108.86,197.64Z" transform="translate(314.03 10.62)"></path><path class="cls-19" d="M-108.81,198.75a.64.64,0,0,0-.83.34.64.64,0,0,0,.34.84.64.64,0,0,0,.83-.34A.64.64,0,0,0-108.81,198.75Z" transform="translate(314.03 10.62)"></path><path class="cls-30" d="M-109,198.66a.65.65,0,0,0-.84.34.65.65,0,0,0,.35.84.64.64,0,0,0,.83-.34A.65.65,0,0,0-109,198.66Z" transform="translate(314.03 10.62)"></path><path class="cls-119" d="M180,181.51c-.89,1.46-1.52,3-2.44,4.42-2.75,4.15-3.06,7.83-4.75,9.83a2.31,2.31,0,0,1-1.47.94,5.5,5.5,0,0,0-3.34,2c-.8.91.81.6,0,1.8-.48.71-2.11,2.63-1.91,2.9.41.57.92,0,1.47-.69a.64.64,0,0,0,1.09.12.88.88,0,0,0,1.3-.07c.56.46,1.07.21,1.57-.6s1.65-2,3.14-4.32c2-3,3.7-4.65,5-6.85,1.16-1.92,3.11-4.32,3.91-7.8C183.75,182.53,180.35,181.71,180,181.51Z" transform="translate(314.03 10.62)"></path><path class="cls-120" d="M182.28,182.29c-.7,1.91-1.81,3.63-2.69,5.55s-1.71,3.38-2.74,5.26c-1.64,3-3.25,5.29-6.58,5.84a3.2,3.2,0,0,1-2.09,1.12,1.34,1.34,0,0,1-.19.42c-.48.71-2.11,2.63-1.91,2.9.41.57.92,0,1.47-.69a.64.64,0,0,0,1.09.12.88.88,0,0,0,1.3-.07c.56.46,1.07.21,1.57-.6s1.65-2,3.14-4.32c2-3,3.7-4.65,5-6.85,1.16-1.92,3.11-4.32,3.91-7.8C183.66,182.89,183,182.57,182.28,182.29Z" transform="translate(314.03 10.62)"></path><path class="cls-14" d="M170.37,200.65H168a3.47,3.47,0,0,0-3.46,3.46v7.17h9.26v-7.17A3.46,3.46,0,0,0,170.37,200.65Zm2.66,9.83h-7.65v-6.37a2.66,2.66,0,0,1,2.65-2.66h2.34a2.66,2.66,0,0,1,2.66,2.66Z" transform="translate(314.03 10.62)"></path><polygon class="cls-121" points="472.51 217.7 470.62 253.25 495.85 253.25 493.93 217.7 472.51 217.7"></polygon><path class="cls-122" d="M170.88,201l-2.26-.57a3.48,3.48,0,0,0-4.21,2.51l-1.75,7,9,2.27,1.76-7A3.47,3.47,0,0,0,170.88,201Zm1.73,4-1.56,6.19-7.42-1.88,1.56-6.18a2.67,2.67,0,0,1,3.23-1.93l2.27.57A2.66,2.66,0,0,1,172.61,205Z" transform="translate(314.03 10.62)"></path><polygon class="cls-123" points="454.3 238.14 497 248.91 500.01 223.28 463.77 214.13 454.3 238.14"></polygon><path class="cls-119" d="M165.47,200.09a1.44,1.44,0,0,0,1.93-.55,3.17,3.17,0,0,0,1.78-.85l.59-1.47-2.55,1.3A9,9,0,0,1,165.47,200.09Z" transform="translate(314.03 10.62)"></path><path class="cls-119" d="M167.71,201c-.64.76-.78.95-1.36,1.75-.23.32-.2.62,0,.7s.38.12.68-.26a16.16,16.16,0,0,0,1.27-1.94C168.59,200.71,168.31,200.31,167.71,201Z" transform="translate(314.03 10.62)"></path><path class="cls-119" d="M169.39,200c-.59.8-1,1.6-1.61,2.39-.23.32-.09.47.1.56s.42.11.68-.3a20.32,20.32,0,0,0,1.38-2.44C170.21,199.58,169.94,199.21,169.39,200Z" transform="translate(314.03 10.62)"></path><path class="cls-119" d="M170.24,200.22c-.49.74-.82,1.43-1.31,2.17-.19.29,0,.46.18.55s.41.11.63-.27a16.37,16.37,0,0,0,1.1-2.27C171.05,199.85,170.7,199.52,170.24,200.22Z" transform="translate(314.03 10.62)"></path><path class="cls-119" d="M171.33,200.43c-.49.74-.71,1.13-1.2,1.86a.32.32,0,0,0,.15.53c.18.08.4.11.62-.26a13.19,13.19,0,0,0,1-1.91C172.07,200.09,171.79,199.74,171.33,200.43Z" transform="translate(314.03 10.62)"></path><path class="cls-124" d="M205.76,172.87c.29,3.31,1.6,7.44,4.75,9.62-3.35-15.65-1.19-30.66-7.45-40.39-4.76-7.39-11.07-7.29-14.72-6.31-12.92,3.45-8,19.44-7,23.15,1.87,7.29,14.11,30.17,31.11,37.21C209.38,189.21,204.48,179.86,205.76,172.87Z" transform="translate(314.03 10.62)"></path><path class="cls-125" d="M205.76,172.87c.29,3.31,1.6,7.44,4.75,9.62-3.35-15.65-1.19-30.66-7.45-40.39-4.76-7.39-11.07-7.29-14.72-6.31-1.36.36,8.66.23,11.87,7.92,1.22,2.92,9.81,5.94,2.59,16.32-7.06,10.16.68,32.42,9.61,36.12C209.38,189.21,204.48,179.86,205.76,172.87Z" transform="translate(314.03 10.62)"></path><path class="cls-120" d="M197.24,264.4a24.51,24.51,0,0,1-1.4-3.38c-1.67-5.81-.05-10.47-1.58-18.09-.3-1.5-1.08-2.83-.92-4.56s.31-2.9.22-4.15-.49-2.39-.6-3.83a209.1,209.1,0,0,1-.13-23.06l-11.63-5.87c.22,7.21,3,25.12,3.1,25.89,1.29,6.68.81,7.75,1.54,13.44.76,6,4.55,15.43,6.23,21.74.58,2.18,1.21,12.13,1.09,13.88-.07,1.11-.82,2.9.73,2.9,1.29,0,4.76-1.46,5.21-3s-.91-4.46-1.43-7.3C197.27,266.86,197.63,265.51,197.24,264.4Z" transform="translate(314.03 10.62)"></path><path class="cls-119" d="M189.42,243c-1.86-5.89-3.22-11.92-1.78-18,1.52-6.42.33-13,1.51-19.53l-8-4c.22,7.21,3,25.12,3.1,25.89,1.29,6.68.81,7.75,1.54,13.44.76,6,4.55,15.43,6.23,21.74.58,2.18,1.21,12.13,1.09,13.88-.07,1.11-.82,2.9.73,2.9a7.91,7.91,0,0,0,2.93-.92c-.19-5.36-3-10.75-3.25-16.11C193.25,255.3,191.5,249.61,189.42,243Z" transform="translate(314.03 10.62)"></path><path class="cls-126" d="M198.16,271.36a8.6,8.6,0,0,1-1.25,3.55c-1.14,1.56-3.5.92-3.75-.27,0,.81,0,1.44,0,1.77-.07,1.11-.82,2.9.73,2.9,1.29,0,4.76-1.46,5.21-3,.35-1.18-.33-3.07-.91-5.13A.7.7,0,0,0,198.16,271.36Z" transform="translate(314.03 10.62)"></path><path class="cls-125" d="M198.16,271.36a8.6,8.6,0,0,1-1.25,3.55,2.11,2.11,0,0,1-.36.37,2.27,2.27,0,0,1-.05.35,4,4,0,0,1-3.56,2.84.82.82,0,0,0,.95.84c1.29,0,4.76-1.46,5.21-3,.35-1.18-.33-3.07-.91-5.13A.7.7,0,0,0,198.16,271.36Z" transform="translate(314.03 10.62)"></path><path class="cls-119" d="M196.54,158.84c-3.47.95-2.7-2.9-3.15-6.26l-4.72,1.66c.59,3.16,1,5.41-1.52,6.4-1.47.57-4,1-5.14,1.57-4.59,2.32-2.06,15.88-2.06,19.55l3.65,1.41a37,37,0,0,0,1.18-10.24l15.28-2-1.26-5.18,5.15-1.83C202.66,158.48,200.68,157.7,196.54,158.84Z" transform="translate(314.03 10.62)"></path><path class="cls-120" d="M196.54,158.84c-3.47.95-2.7-2.9-3.15-6.26l-4.72,1.66c.12.62.23,1.2.31,1.74,1.27,1.92,3.81,4.89,6,4.62,1.2-.15,2.3-1.54,3.69-1.71a7.18,7.18,0,0,1,2.95.28C200.44,158.17,198.82,158.22,196.54,158.84Z" transform="translate(314.03 10.62)"></path><path class="cls-120" d="M182.73,173.4c0,.75-.1,1.53-.12,2.33-.07,2.33.1,4.75-.46,6.88l1.45.56a32.85,32.85,0,0,0,1.14-8A7.59,7.59,0,0,1,182.73,173.4Z" transform="translate(314.03 10.62)"></path><path class="cls-119" d="M193.69,139.66a6.43,6.43,0,0,0-4.1-.41c-4.11.73-5,4.28-4.76,7.79a11.64,11.64,0,0,0,1.2,5.26c.45.74,3.17,3.91,5.1,3.91,2.11,0,4.64-3.55,5-4.53a14,14,0,0,0,.65-4.51c0-.15,0-.28,0-.42C196.83,143.68,196,140.81,193.69,139.66Z" transform="translate(314.03 10.62)"></path><path class="cls-120" d="M193.69,139.66a9.17,9.17,0,0,0-5.54.37s1.89,6.39,8.65,6.72C196.83,143.68,196,140.81,193.69,139.66Z" transform="translate(314.03 10.62)"></path><path class="cls-119" d="M193.09,197.05c-3.71,7.63-2.89,12.47-2.78,22.66A114.19,114.19,0,0,1,190,233c-.11,1.44-.52,2.63-.6,3.82s.16,2.52.22,4.16-.62,3.06-.92,4.55c-1.53,7.63.17,13.12-1.5,18.93-.55,1.9-1.2,1.73-1.48,2.55-.39,1.1,0,2.45-.43,4.65-.52,2.83-1.93,5.72-1.43,7.29.33,1,2.75,3.82,4,3.82,1.5,0,1.38-2.64,1.5-3.74s.26-9.07.31-9.7c.18-2.3,6.33-19.24,7.1-25.24.72-5.69.35-8.33,1.64-15,1.72-8.93,3.07-17.12,3.31-25l-.91-7Z" transform="translate(314.03 10.62)"></path><path class="cls-127" d="M188.17,278.91c-2.67,0-3.38-4.68-3.47-5.06-.58,2-1.25,3.89-.88,5s2.75,3.82,4,3.82c1.5,0,1.38-2.64,1.5-3.74,0-.17,0-.52.06-1C189.06,278.33,188.7,278.91,188.17,278.91Z" transform="translate(314.03 10.62)"></path><path class="cls-125" d="M188.17,278.91a2.17,2.17,0,0,1-.86-.18,3.67,3.67,0,0,1,0,.93,1.47,1.47,0,0,1-1.8,1,4,4,0,0,1-.7-.26c.91,1.11,2.23,2.3,3.07,2.3,1.5,0,1.38-2.64,1.5-3.74,0-.17,0-.52.06-1C189.06,278.33,188.7,278.91,188.17,278.91Z" transform="translate(314.03 10.62)"></path><path class="cls-128" d="M201.35,171.27c.17-.69-2.08-5.86-2.08-5.86-5.23.16-10.15-.11-14.3,1.67a5.31,5.31,0,0,0-3.09,4.25,5.41,5.41,0,0,0,1.84,4.36,30.63,30.63,0,0,1-.12,7.48c-.37,6.49-5.06,10.68-5.06,17.09,0,15.92,3,21.57,4.4,32.14a19.19,19.19,0,0,0,4.94,1.22c4.61.33,10.08-.25,11.72-1.65,2.8-13.47,6.08-23.54,4.93-33.72C203.8,191.78,199.09,180.3,201.35,171.27Z" transform="translate(314.03 10.62)"></path><path class="cls-129" d="M201.34,171c.16-.69-2.07-5.55-2.07-5.55-.67,0-8.36,0-11.11.71.25,1.2,4.7,3.7,4.7,5.24,0,2.41-3.8,4.57-2.07,6.46.6.64,4.93,2.49,4.38,4.89-.74,3.22,1.25,6.49,1.65,9.85.37,3.09-4.79,5.06-4.1,8.09,1.6,7-1.43,3.44-1.93,7.65-.68,5.78,1.42,19.66.43,25.4,3.64-.07,7.13-.66,8.38-1.73,2.8-13.47,6.08-23.54,4.93-33.72C203.8,191.78,199.07,180,201.34,171Z" transform="translate(314.03 10.62)"></path><path class="cls-120" d="M190,151.41c-.15.2.26.32.47.33a2.86,2.86,0,0,1,.35.06,1.23,1.23,0,0,0,.54,0,2.73,2.73,0,0,1,.34-.06c.21,0,.58-.1.48-.33a1.85,1.85,0,0,0-1.15-.32A1.46,1.46,0,0,0,190,151.41Z" transform="translate(314.03 10.62)"></path><path class="cls-119" d="M198.54,165s4.91,11.35,6.88,13.91l3.46-1.48c-.92-2.35-3.23-11.76-5.74-16.16Z" transform="translate(314.03 10.62)"></path><path class="cls-119" d="M226.21,161.85c-.28-.19-2.16,1.48-2.86,2-1.19.83-.91-.79-1.8,0a5.06,5.06,0,0,0-1.91,3.38c-.14,1.62-7.29,4.45-11.79,6.42-1.54.67-3.09,5.55-1.82,5.55,3.57,0,6.18-2.27,8.07-3.48,2.16-1.39,3.77-3.17,6.74-5.19,2.26-1.54,3.44-2.62,4.24-3.23s1-1,.57-1.59a.87.87,0,0,0,0-1.29.66.66,0,0,0-.15-1.1C226.22,162.76,226.78,162.24,226.21,161.85Z" transform="translate(314.03 10.62)"></path><polygon class="cls-130" points="520.08 221.06 549.39 224.34 551.78 182.78 526.9 180 520.08 221.06"></polygon><path class="cls-131" d="M226.12,164.92l-2-.23a3,3,0,0,0-3.36,2.69l-.7,6.27,8.09.9.7-6.27A3,3,0,0,0,226.12,164.92Zm2,3.28-.63,5.57L220.8,173l.62-5.57a2.34,2.34,0,0,1,2.58-2.06l2,.23A2.34,2.34,0,0,1,228.11,168.2Z" transform="translate(314.03 10.62)"></path><path class="cls-14" d="M225.49,164.64h-2.05a3,3,0,0,0-3.05,3V174h8.14v-6.31A3,3,0,0,0,225.49,164.64Zm2.33,8.65H221.1v-5.61a2.34,2.34,0,0,1,2.34-2.34h2.05a2.34,2.34,0,0,1,2.34,2.34Z" transform="translate(314.03 10.62)"></path><polygon class="cls-132" points="522.04 181.99 519.13 204.49 557.85 204.49 554.9 181.99 522.04 181.99"></polygon><path class="cls-119" d="M221.37,163.1,220,165.8l1.56-.75a3.11,3.11,0,0,0,.81-1.79,1.45,1.45,0,0,0,.51-1.95A9.6,9.6,0,0,1,221.37,163.1Z" transform="translate(314.03 10.62)"></path><path class="cls-119" d="M225.61,162.14a19,19,0,0,0-1.72,1.39c-.7.62-.3.88.26.55a14.37,14.37,0,0,0,1.91-1.31c.38-.3.34-.51.25-.68S225.92,161.9,225.61,162.14Z" transform="translate(314.03 10.62)"></path><path class="cls-119" d="M225.22,163.57c-.79.6-1.57,1.06-2.36,1.66s-.37.83.22.54a19.47,19.47,0,0,0,2.46-1.33c.4-.28.39-.57.3-.75A.37.37,0,0,0,225.22,163.57Z" transform="translate(314.03 10.62)"></path><path class="cls-119" d="M225.43,164.57c-.72.51-1.53,1-2.25,1.51s-.35.82.2.6a18,18,0,0,0,2.3-1.1.57.57,0,0,0,.24-.76C225.84,164.63,225.72,164.38,225.43,164.57Z" transform="translate(314.03 10.62)"></path><path class="cls-119" d="M225.31,165.87c-.72.5-1.1.73-1.83,1.24s-.33.75.22.53a11.44,11.44,0,0,0,1.89-1c.37-.23.34-.45.25-.63S225.6,165.67,225.31,165.87Z" transform="translate(314.03 10.62)"></path><path class="cls-133" d="M187.54,138.53s2.27,7.62,10.65,6.65C198.19,145.18,197.19,135.32,187.54,138.53Z" transform="translate(314.03 10.62)"></path></g></g></g></svg>