<svg xmlns="http://www.w3.org/2000/svg" xmlns:xlink="http://www.w3.org/1999/xlink" viewBox="0 0 136.44 97.11"><defs><style>.cls-1{fill:none;}.cls-2{fill:#7c84ff;}.cls-3{fill:#776df2;}.cls-4{fill:#2cbfc6;}.cls-5{fill:#fe9249;}.cls-6{fill:#f7682f;}.cls-7{fill:#f4efe9;}.cls-8{clip-path:url(#clip-path);}.cls-9{fill:#fff;}.cls-10{fill:#ffd3d2;}.cls-11{fill:#4396ca;}.cls-12{fill:#5757f3;}</style><clipPath id="clip-path" transform="translate(0 0.9)"><path class="cls-1" d="M122.91,7.59A4.1,4.1,0,0,0,119.11,5H14.54L6.15,25.57H130.26Z"></path></clipPath></defs><title>Asset 2z3</title><g id="Layer_2" data-name="Layer 2"><g id="Layer_1-2" data-name="Layer 1"><polygon class="cls-2" points="0 86.94 13.81 74.16 124.26 74.16 136.44 86.94 0 86.94"></polygon><path class="cls-3" d="M122.53,74.71H13.91a3.3,3.3,0,0,1-3.25-3.35v-68A3.31,3.31,0,0,1,13.91,0H122.53a3.3,3.3,0,0,1,3.25,3.36v68A3.3,3.3,0,0,1,122.53,74.71Z" transform="translate(0 0.9)"></path><rect class="cls-4" x="15.13" y="6.14" width="106.18" height="66.67" rx="2.99"></rect><path class="cls-5" d="M122.6,6.83A2.88,2.88,0,0,0,119.93,5H16.85a3.44,3.44,0,0,0-3.19,2.14L6.15,25.57H130.26Z" transform="translate(0 0.9)"></path><path class="cls-6" d="M26.55,32.22h-.09a4.09,4.09,0,0,1-4.26-3.9V25.57h8.61v2.75A4.09,4.09,0,0,1,26.55,32.22Z" transform="translate(0 0.9)"></path><path class="cls-6" d="M43,32.22H43a4.19,4.19,0,0,1-4.44-3.9V25.57h9v2.75A4.19,4.19,0,0,1,43,32.22Z" transform="translate(0 0.9)"></path><path class="cls-6" d="M59.79,32.22h-.1c-2.49,0-4.51-1.74-4.51-3.9V25.57H64.3v2.75C64.3,30.48,62.28,32.22,59.79,32.22Z" transform="translate(0 0.9)"></path><path class="cls-6" d="M76.58,32.22h-.09a4.18,4.18,0,0,1-4.42-3.9V25.57H81v2.75A4.18,4.18,0,0,1,76.58,32.22Z" transform="translate(0 0.9)"></path><path class="cls-6" d="M93.11,32.22H93a4.18,4.18,0,0,1-4.42-3.9V25.57h8.93v2.75A4.18,4.18,0,0,1,93.11,32.22Z" transform="translate(0 0.9)"></path><path class="cls-6" d="M109.83,32.22h-.08a4.13,4.13,0,0,1-4.34-3.9V25.57h8.76v2.75A4.13,4.13,0,0,1,109.83,32.22Z" transform="translate(0 0.9)"></path><path class="cls-6" d="M126.28,32.22h-.08a4,4,0,0,1-4-3.9V25.57h8.1v2.75A4,4,0,0,1,126.28,32.22Z" transform="translate(0 0.9)"></path><path class="cls-7" d="M18.16,32.22h-.08a4,4,0,0,1-4-3.9V25.57H22.2v2.75A4,4,0,0,1,18.16,32.22Z" transform="translate(0 0.9)"></path><path class="cls-7" d="M34.7,32.22h-.08a3.85,3.85,0,0,1-3.81-3.9V25.57h7.7v2.75A3.85,3.85,0,0,1,34.7,32.22Z" transform="translate(0 0.9)"></path><path class="cls-7" d="M51.39,32.22h-.08a3.88,3.88,0,0,1-3.85-3.9V25.57h7.78v2.75A3.88,3.88,0,0,1,51.39,32.22Z" transform="translate(0 0.9)"></path><path class="cls-7" d="M68.24,32.22h-.08a3.87,3.87,0,0,1-3.84-3.9V25.57h7.77v2.75A3.87,3.87,0,0,1,68.24,32.22Z" transform="translate(0 0.9)"></path><path class="cls-7" d="M84.82,32.22h-.07A3.83,3.83,0,0,1,81,28.32V25.57h7.59v2.75A3.83,3.83,0,0,1,84.82,32.22Z" transform="translate(0 0.9)"></path><path class="cls-7" d="M101.53,32.22h-.08a3.92,3.92,0,0,1-3.94-3.9V25.57h8v2.75A3.91,3.91,0,0,1,101.53,32.22Z" transform="translate(0 0.9)"></path><path class="cls-7" d="M118.24,32.22h-.08a4,4,0,0,1-4-3.9V25.57h8.1v2.75A4,4,0,0,1,118.24,32.22Z" transform="translate(0 0.9)"></path><g class="cls-8"><rect class="cls-9" x="64.3" y="3.33" width="7.81" height="33.27"></rect><polygon class="cls-9" points="54.13 35.54 46.4 34.41 50.92 1.59 58.22 2.39 54.13 35.54"></polygon><polygon class="cls-9" points="36.79 34.15 29.23 32.21 38.12 0 44.26 1.95 36.79 34.15"></polygon><polygon class="cls-9" points="82.15 35.54 89.88 34.41 84.48 1.45 77.89 2.53 82.15 35.54"></polygon><polygon class="cls-9" points="116.71 34.03 124.05 31.34 112.6 0.11 105.96 2.6 116.71 34.03"></polygon><polygon class="cls-9" points="19.61 34.03 12.28 31.34 23.73 0.11 30.37 2.6 19.61 34.03"></polygon><polygon class="cls-9" points="99.49 34.15 107.05 32.21 98.15 0.14 91.2 1.93 99.49 34.15"></polygon></g><path class="cls-10" d="M69.44,2.19A1.22,1.22,0,1,1,68.22,1,1.22,1.22,0,0,1,69.44,2.19Z" transform="translate(0 0.9)"></path><path class="cls-9" d="M61.94,62H74.31a2.76,2.76,0,0,0,2.75-2.76v0a2.76,2.76,0,0,0-2.75-2.76H61.94a.72.72,0,0,0,0,1.44H74.31a1.32,1.32,0,0,1,1.31,1.32v0a1.31,1.31,0,0,1-1.31,1.31H61.94a.73.73,0,0,0,0,1.45Z" transform="translate(0 0.9)"></path><path class="cls-9" d="M75.57,57.85a.53.53,0,0,0,.51-.38L79.86,45H58.78l2.39,12.44a.53.53,0,0,0,.63.43.55.55,0,0,0,.43-.63L60.09,46.05H78.4l-3.35,11.1a.54.54,0,0,0,.36.68Z" transform="translate(0 0.9)"></path><path class="cls-9" d="M79.13,46.05a.54.54,0,0,0,.51-.35l1.21-3.39h2.72a.54.54,0,1,0,0-1.08H80.08l-1.46,4.1A.54.54,0,0,0,79,46Z" transform="translate(0 0.9)"></path><path class="cls-9" d="M83.58,42.67h2.93a.9.9,0,0,0,0-1.8H83.58a.9.9,0,0,0,0,1.8Z" transform="translate(0 0.9)"></path><path class="cls-9" d="M72.16,64.91a2.48,2.48,0,1,0,2.48-2.48A2.48,2.48,0,0,0,72.16,64.91Z" transform="translate(0 0.9)"></path><path class="cls-9" d="M60.5,64.91A2.48,2.48,0,1,0,63,62.43,2.48,2.48,0,0,0,60.5,64.91Z" transform="translate(0 0.9)"></path><path class="cls-11" d="M73.48,64.91a1.16,1.16,0,1,0,2.31,0,1.16,1.16,0,0,0-2.31,0Z" transform="translate(0 0.9)"></path><path class="cls-11" d="M61.71,64.91a1.16,1.16,0,1,0,1.15-1.15A1.15,1.15,0,0,0,61.71,64.91Z" transform="translate(0 0.9)"></path><path class="cls-9" d="M73.08,57.55a.54.54,0,0,0,.53-.45l1.92-11.05a.55.55,0,0,0-.44-.63.54.54,0,0,0-.62.44L72.54,56.92a.54.54,0,0,0,.44.62Z" transform="translate(0 0.9)"></path><path class="cls-9" d="M70.37,57.31a.54.54,0,0,0,.54-.5l.72-10.94a.53.53,0,0,0-.5-.57.54.54,0,0,0-.58.5l-.72,10.94a.54.54,0,0,0,.51.57Z" transform="translate(0 0.9)"></path><path class="cls-9" d="M64.72,57.55h.09a.55.55,0,0,0,.45-.62L63.52,45.87a.56.56,0,0,0-.62-.45.54.54,0,0,0-.45.62L64.19,57.1A.54.54,0,0,0,64.72,57.55Z" transform="translate(0 0.9)"></path><path class="cls-9" d="M67.61,57.31h0a.55.55,0,0,0,.51-.57l-.54-10.93A.54.54,0,0,0,67,45.3a.53.53,0,0,0-.51.56l.54,10.94A.53.53,0,0,0,67.61,57.31Z" transform="translate(0 0.9)"></path><path class="cls-9" d="M60.64,49.86h17.3a.54.54,0,0,0,0-1.08H60.64a.54.54,0,0,0,0,1.08Z" transform="translate(0 0.9)"></path><path class="cls-9" d="M61.24,53.71H76.5a.54.54,0,1,0,0-1.08H61.24a.54.54,0,1,0,0,1.08Z" transform="translate(0 0.9)"></path><path class="cls-12" d="M129.45,96.21H7a7,7,0,0,1-7-7V86H136.44v3.18A7,7,0,0,1,129.45,96.21Z" transform="translate(0 0.9)"></path><path class="cls-10" d="M44.67,74.68a1.22,1.22,0,0,1-1.22,1.22H29.64a1.22,1.22,0,0,1-1.21-1.22h0a1.22,1.22,0,0,1,1.21-1.22H43.45a1.22,1.22,0,0,1,1.22,1.22Z" transform="translate(0 0.9)"></path><path class="cls-10" d="M110.05,74.68a1.22,1.22,0,0,1-1.22,1.22H95a1.22,1.22,0,0,1-1.22-1.22h0A1.22,1.22,0,0,1,95,73.46h13.81a1.22,1.22,0,0,1,1.22,1.22Z" transform="translate(0 0.9)"></path><polygon class="cls-9" points="52.18 85.11 56.72 80.91 80.26 80.91 84.26 85.11 52.18 85.11"></polygon><rect class="cls-9" x="64.67" y="78.33" width="7.61" height="0.41"></rect><rect class="cls-9" x="16.35" y="78.33" width="7.61" height="0.41"></rect><rect class="cls-9" x="13.1" y="80.82" width="7.61" height="0.41"></rect><rect class="cls-9" x="31.17" y="78.33" width="7.61" height="0.41"></rect><rect class="cls-9" x="27.31" y="80.82" width="7.61" height="0.41"></rect><rect class="cls-9" x="36.55" y="83.79" width="8.53" height="0.41"></rect><rect class="cls-9" x="45.59" y="78.33" width="7.61" height="0.41"></rect><rect class="cls-9" x="41.73" y="80.82" width="7.61" height="0.41"></rect><rect class="cls-9" x="22.94" y="84.4" width="8.53" height="0.41"></rect><rect class="cls-9" x="120.2" y="83.79" width="8.53" height="0.41"></rect><rect class="cls-9" x="113.9" y="78.33" width="7.61" height="0.41"></rect><rect class="cls-9" x="117.15" y="80.82" width="7.61" height="0.41"></rect><rect class="cls-9" x="99.08" y="78.33" width="7.61" height="0.41"></rect><rect class="cls-9" x="102.94" y="80.82" width="7.61" height="0.41"></rect><rect class="cls-9" x="92.79" y="83.79" width="8.53" height="0.41"></rect><rect class="cls-9" x="84.67" y="78.33" width="7.61" height="0.41"></rect><rect class="cls-9" x="88.52" y="80.82" width="7.61" height="0.41"></rect><rect class="cls-9" x="106.39" y="84.4" width="8.53" height="0.41"></rect></g></g></svg>