<svg xmlns="http://www.w3.org/2000/svg" viewBox="0 0 146.28 116.32"><defs><style>.cls-1{fill:#ffd3d2;}.cls-2{fill:#fff;}.cls-3{fill:#ff4f4f;}.cls-4{fill:#7c84ff;}.cls-5{fill:#2cc1c7;}.cls-6{fill:#5c55f0;}.cls-7{fill:#3287b2;}.cls-8{fill:#fe9249;}.cls-9{fill:#ffb6b6;}.cls-10{opacity:0.19;}.cls-11{fill:#6855ef;}.cls-12{fill:#2cbfc6;}.cls-13{fill:#ff9149;}</style></defs><title>Asset 10z3</title><g id="Layer_2" data-name="Layer 2"><g id="Layer_1-2" data-name="Layer 1"><path class="cls-1" d="M79.41,42.44a5.08,5.08,0,1,1-5.08-5.08A5.08,5.08,0,0,1,79.41,42.44Z"></path><path class="cls-2" d="M73.87,44.65a.78.78,0,0,1-.5-.17L71.52,43a.81.81,0,0,1-.13-1.14.8.8,0,0,1,1.14-.13l1.37,1.09,2.74-2a.81.81,0,1,1,.94,1.32L74.35,44.5A.83.83,0,0,1,73.87,44.65Z"></path><path class="cls-3" d="M77.55,5.32A5.32,5.32,0,1,1,72.23,0,5.32,5.32,0,0,1,77.55,5.32Z"></path><polygon class="cls-2" points="72.23 1.57 73.37 3.87 75.89 4.23 74.06 6.02 74.5 8.54 72.23 7.35 69.97 8.54 70.4 6.02 68.57 4.23 71.1 3.87 72.23 1.57"></polygon><path class="cls-4" d="M97.3,55.4a7,7,0,1,1-7-7A7,7,0,0,1,97.3,55.4Z"></path><path class="cls-2" d="M93.35,52.85A2.55,2.55,0,0,0,90.26,54a2.63,2.63,0,0,0-3.15-1.12,2,2,0,0,0-.78,2.88c.6,1.11,3.93,3.83,3.93,3.8s3.34-2.69,3.94-3.8A2,2,0,0,0,93.35,52.85Z"></path><path class="cls-5" d="M36.85,50.51a4.64,4.64,0,1,1-6.49-1A4.63,4.63,0,0,1,36.85,50.51Z"></path><rect class="cls-2" x="32.6" y="50.7" width="1.06" height="5.14" transform="translate(-25.2 30.18) rotate(-36.53)"></rect><rect class="cls-2" x="30.56" y="52.74" width="5.14" height="1.06" transform="translate(-25.2 30.18) rotate(-36.52)"></rect><path class="cls-4" d="M27.11,104.35h-17a3.92,3.92,0,0,1-3.84-4V62.52a3.93,3.93,0,0,1,3.84-4h17a3.92,3.92,0,0,1,3.83,4v37.83A3.91,3.91,0,0,1,27.11,104.35Z"></path><path class="cls-6" d="M24.85,100.74H12.26a3.76,3.76,0,0,1-4-3.49v-33a3.76,3.76,0,0,1,4-3.49H24.85a3.76,3.76,0,0,1,4,3.49v33A3.76,3.76,0,0,1,24.85,100.74Z"></path><path class="cls-7" d="M22.6,102.38a.77.77,0,0,1-.77.76H16.22a.76.76,0,0,1-.76-.76h0a.77.77,0,0,1,.76-.77h5.61a.78.78,0,0,1,.77.77Z"></path><rect class="cls-3" x="10.63" y="76.68" width="15.69" height="7.63" rx="1.38"></rect><path class="cls-8" d="M1.94,107.87C.79,105.44-.78,91.76.44,89.43c.5-.94,4.57-9.61,5.69-9.61.68,0-.4,10.51.68,10.29.63-.13,5.27-4.47,8-6.5a2.16,2.16,0,0,1,3,3.12c-2,2-6.67,8.53-6.77,9.61-.54,6.22-.49,11.27-.49,11.27Z"></path><path class="cls-3" d="M17.08,85.64a1.34,1.34,0,1,1-1.34-1.34A1.35,1.35,0,0,1,17.08,85.64Z"></path><path class="cls-1" d="M1.75,107.48h8.76v7.94a.89.89,0,0,1-.89.9h-7a.89.89,0,0,1-.89-.9Z"></path><path class="cls-9" d="M1.49,106.2h9v4.1h-9a1.08,1.08,0,0,1-1.08-1.09v-1.92A1.08,1.08,0,0,1,1.49,106.2Z"></path><path class="cls-2" d="M15,81.79V79.31h1.26a.74.74,0,0,1,.57.2A.64.64,0,0,1,17,80a.59.59,0,0,1-.1.34.49.49,0,0,1-.31.2.55.55,0,0,1,.48.58.82.82,0,0,1-.17.5.93.93,0,0,1-.73.21Zm.7-1.53h.36a.2.2,0,0,0,.18-.07.2.2,0,0,0,.06-.14c0-.14-.09-.21-.26-.21h-.34Zm0,1h.37a.27.27,0,0,0,.21-.07.2.2,0,0,0,.06-.15.25.25,0,0,0-.06-.16.29.29,0,0,0-.23-.07h-.35Z"></path><path class="cls-2" d="M19.62,79.31V81a.8.8,0,0,1-.28.68,1.26,1.26,0,0,1-.73.2,1.3,1.3,0,0,1-.75-.19.74.74,0,0,1-.28-.65V79.31h.77v1.6a.4.4,0,0,0,.08.26.33.33,0,0,0,.24.08.38.38,0,0,0,.22-.06.24.24,0,0,0,.11-.14,1.57,1.57,0,0,0,0-.29V79.31Z"></path><path class="cls-2" d="M22.27,79.31l-.78,1.43v1.05h-.74V80.74l-.83-1.43h.83l.44.82.42-.82Z"></path><g class="cls-10"><path class="cls-2" d="M23.21,77.27a1.16,1.16,0,0,1-1.16,1.17h0a1.17,1.17,0,0,1-1.17-1.17V64a1.17,1.17,0,0,1,1.17-1.17h0A1.16,1.16,0,0,1,23.21,64Z"></path></g><g class="cls-10"><path class="cls-2" d="M26.82,68.78a1.16,1.16,0,0,1-1.16,1.16h0a1.16,1.16,0,0,1-1.17-1.16V64a1.17,1.17,0,0,1,1.17-1.17h0A1.16,1.16,0,0,1,26.82,64Z"></path></g><circle class="cls-11" cx="16.48" cy="46.24" r="9.97"></circle><path class="cls-2" d="M22,50.68H11.18a.81.81,0,0,1-.81-.81V42.93a.81.81,0,0,1,.81-.81H22a.81.81,0,0,1,.81.81v6.94A.81.81,0,0,1,22,50.68ZM12,49.06h9.23V43.74H12Z"></path><path class="cls-2" d="M18.29,46.22a1.55,1.55,0,1,1-1.55-1.54A1.54,1.54,0,0,1,18.29,46.22Z"></path><path class="cls-2" d="M19.53,43.53a1,1,0,0,1-1-1v-.83a1,1,0,0,1,2,0v.83A1,1,0,0,1,19.53,43.53Z"></path><path class="cls-4" d="M47.77,36.9A10.18,10.18,0,1,1,37.59,26.72,10.18,10.18,0,0,1,47.77,36.9Z"></path><path class="cls-2" d="M33.37,41.51a.83.83,0,0,1-.58-.25.82.82,0,0,1,0-1.15L41.12,32a.81.81,0,1,1,1.13,1.16l-8.31,8.11A.83.83,0,0,1,33.37,41.51Z"></path><path class="cls-2" d="M36.55,33.51a1.95,1.95,0,1,1-1.94-1.95A1.94,1.94,0,0,1,36.55,33.51Z"></path><path class="cls-2" d="M42.81,39.57a2,2,0,1,1-2-2A2,2,0,0,1,42.81,39.57Z"></path><path class="cls-4" d="M41.68,39.57a.82.82,0,1,1-.82-.82A.82.82,0,0,1,41.68,39.57Z"></path><path class="cls-4" d="M35.42,33.51a.82.82,0,1,1-.81-.81A.81.81,0,0,1,35.42,33.51Z"></path><circle class="cls-12" cx="61.96" cy="24.72" r="14.51" transform="translate(15.23 72.33) rotate(-67.29)"></circle><path class="cls-2" d="M72.57,25.63s-4,5.91-11,5.52a13.48,13.48,0,0,1-9.81-5.52s2.86-6.48,9.81-6.67A11.61,11.61,0,0,1,72.57,25.63Z"></path><path class="cls-12" d="M66.76,25.16a4.39,4.39,0,1,1-4.39-4.38A4.39,4.39,0,0,1,66.76,25.16Z"></path><path class="cls-3" d="M26.33,28.39a6.16,6.16,0,1,1-6.16-6.16A6.16,6.16,0,0,1,26.33,28.39Z"></path><path class="cls-2" d="M20,29c0-.39,0-.47-.38-.61a1.71,1.71,0,0,1-1.3-1.61,1.67,1.67,0,0,1,1.43-1.66c.14,0,.22-.06.23-.26s.26-.15.39-.15.14.07.14.18.26.18.49.21.91.16.91.34-.3.94-.41.94-.37-.31-.8-.31c-.19,0-.16.26-.16.38v.66c0,.35,0,.47.39.6a1.89,1.89,0,0,1,1.46,1.82,1.65,1.65,0,0,1-1.58,1.8c-.17,0-.24.12-.24.3s-.12.15-.28.15-.26,0-.26-.12-.13-.33-.39-.33c-.42,0-1.22-.37-1.22-.51s.26-1.2.4-1.2.47.45,1,.45c.23,0,.21-.22.21-.37Zm0-2.56c0-.22,0-.37-.16-.37-.34,0-.5.33-.5.64a.76.76,0,0,0,.52.66c.11,0,.14-.28.14-.5Zm.54,3.33c0,.18,0,.3.22.3a.6.6,0,0,0,.61-.6.88.88,0,0,0-.68-.68c-.16,0-.15.14-.15.29Z"></path><path class="cls-13" d="M56,6.12A5.35,5.35,0,1,1,50.6.77,5.35,5.35,0,0,1,56,6.12Z"></path><path class="cls-2" d="M53.2,3.74c.26.08.44.62.25,1.49S53,8.08,53,8.08h-.72S52.58,6,51.9,5.76s-1.11,2.32-2.66,2.32-2.51.05-2.56-.38,2.08-.83,3-1.94C50.91,4.12,52.77,3.59,53.2,3.74Z"></path><path class="cls-11" d="M46.67,17a7.92,7.92,0,1,1-7.92-7.92A7.92,7.92,0,0,1,46.67,17Z"></path><path class="cls-2" d="M43,20.5H34.34a.81.81,0,0,1-.81-.81v-5.5a.81.81,0,0,1,.81-.81H43a.81.81,0,0,1,.81.81v5.5A.81.81,0,0,1,43,20.5Zm-7.79-1.62h7V15h-7Z"></path><path class="cls-2" d="M38.77,18.32a.82.82,0,0,1-.49-.16l-4.42-3.32,1-1.3,3.92,2.94,3.69-2.93,1,1.28-4.18,3.32A.82.82,0,0,1,38.77,18.32Z"></path><circle class="cls-11" cx="108.11" cy="24.5" r="8.76" transform="translate(63.28 125.88) rotate(-78.92)"></circle><path class="cls-2" d="M108.11,30.87a6.37,6.37,0,1,1,6.36-6.37A6.38,6.38,0,0,1,108.11,30.87Zm0-11.11a4.74,4.74,0,1,0,4.74,4.74A4.75,4.75,0,0,0,108.11,19.76Z"></path><path class="cls-2" d="M108.11,25.31a.81.81,0,0,1-.37-.09l-2.11-1.06a.81.81,0,0,1,.73-1.45l1.73.87,2.58-1.43a.82.82,0,0,1,.79,1.43l-3,1.63A.78.78,0,0,1,108.11,25.31Z"></path><circle class="cls-13" cx="87.74" cy="15.58" r="10.31"></circle><path class="cls-2" d="M90,22.2a.85.85,0,0,1-.58-.23l-2.18-2.19-2,2a.81.81,0,0,1-1.38-.47l-1.3-9.93a.82.82,0,0,1,.7-.91.81.81,0,0,1,.91.7l1.09,8.3,1.42-1.43a.83.83,0,0,1,1.15,0L90,20.24l1.07-1.06a.8.8,0,0,1,1.14,0,.81.81,0,0,1,0,1.15L90.57,22A.83.83,0,0,1,90,22.2Z"></path><path class="cls-2" d="M91.9,20.3a.85.85,0,0,1-.58-.23.83.83,0,0,1,0-1.15l1.07-1.07L90.2,15.66a.81.81,0,0,1,0-1.15l1.43-1.42L83.33,12a.81.81,0,0,1,.21-1.61l9.93,1.29a.81.81,0,0,1,.67.55.82.82,0,0,1-.2.83l-2,2,2.19,2.19a.78.78,0,0,1,.24.57.8.8,0,0,1-.24.58l-1.64,1.64A.83.83,0,0,1,91.9,20.3Z"></path><path class="cls-3" d="M115.79,103.62H87a1.63,1.63,0,0,1,0-3.25h28.84a3.13,3.13,0,0,0,3.13-3.13v-.1A3.13,3.13,0,0,0,115.79,94H87a1.63,1.63,0,0,1,0-3.25h28.84a6.38,6.38,0,0,1,6.38,6.37v.1A6.38,6.38,0,0,1,115.79,103.62Z"></path><path class="cls-3" d="M118.73,94a1.1,1.1,0,0,1-.35,0,1.22,1.22,0,0,1-.82-1.52l7.85-25.94H82.58l5,26.06a1.22,1.22,0,1,1-2.4.46l-5.55-29h49.06L119.9,93.14A1.23,1.23,0,0,1,118.73,94Z"></path><path class="cls-3" d="M127.05,66.49a1.18,1.18,0,0,1-.41-.07,1.23,1.23,0,0,1-.74-1.56l3.4-9.54h8.11a1.22,1.22,0,0,1,0,2.44H131l-2.82,7.92A1.22,1.22,0,0,1,127.05,66.49Z"></path><path class="cls-3" d="M144.25,58.57h-6.82a2,2,0,0,1,0-4.06h6.82a2,2,0,0,1,0,4.06Z"></path><path class="cls-1" d="M110.79,110.52a5.78,5.78,0,1,0,5.78-5.78A5.78,5.78,0,0,0,110.79,110.52Z"></path><path class="cls-1" d="M83.6,110.52a5.78,5.78,0,1,0,5.78-5.78A5.78,5.78,0,0,0,83.6,110.52Z"></path><circle class="cls-2" cx="116.57" cy="110.52" r="2.7"></circle><path class="cls-2" d="M86.4,110.52a2.7,2.7,0,1,0,2.7-2.7A2.7,2.7,0,0,0,86.4,110.52Z"></path><path class="cls-3" d="M112.93,93.31l-.21,0a1.22,1.22,0,0,1-1-1.41l4.49-25.78a1.22,1.22,0,1,1,2.4.41L114.13,92.3A1.23,1.23,0,0,1,112.93,93.31Z"></path><path class="cls-3" d="M106.62,92.75h-.08a1.23,1.23,0,0,1-1.14-1.3l1.68-25.51a1.22,1.22,0,0,1,2.44.16l-1.69,25.51A1.21,1.21,0,0,1,106.62,92.75Z"></path><path class="cls-3" d="M93.44,93.31a1.22,1.22,0,0,1-1.2-1L88.18,66.49a1.21,1.21,0,0,1,2.4-.38L94.65,91.9a1.23,1.23,0,0,1-1,1.4Z"></path><path class="cls-3" d="M100.17,92.75A1.23,1.23,0,0,1,99,91.59L97.69,66.08a1.22,1.22,0,0,1,2.44-.12l1.26,25.51a1.23,1.23,0,0,1-1.16,1.28Z"></path><path class="cls-3" d="M124.28,75.37H83.91a1.22,1.22,0,0,1,0-2.44h40.37a1.22,1.22,0,0,1,0,2.44Z"></path><path class="cls-3" d="M120.91,84.34H85.32a1.22,1.22,0,0,1,0-2.44h35.59a1.22,1.22,0,0,1,0,2.44Z"></path><path class="cls-1" d="M25.87,17a2.42,2.42,0,1,1-2.42-2.42A2.42,2.42,0,0,1,25.87,17Z"></path><path class="cls-12" d="M122.46,34.17a2.85,2.85,0,1,1-2.84-2.84A2.85,2.85,0,0,1,122.46,34.17Z"></path><path class="cls-12" d="M63.39,4.43a2,2,0,1,1-2-2A2,2,0,0,1,63.39,4.43Z"></path><path class="cls-1" d="M131.26,46.22a1.9,1.9,0,1,1-1.9-1.89A1.9,1.9,0,0,1,131.26,46.22Z"></path><path class="cls-12" d="M81.73,50.65a2.17,2.17,0,1,1-2.17-2.16A2.17,2.17,0,0,1,81.73,50.65Z"></path><path class="cls-13" d="M122.82,49.41A12.32,12.32,0,1,1,110.5,37.1,12.32,12.32,0,0,1,122.82,49.41Z"></path><path class="cls-2" d="M105.06,56.44a4.6,4.6,0,1,1,4.59-4.59A4.6,4.6,0,0,1,105.06,56.44Zm0-7.56a3,3,0,1,0,3,3A3,3,0,0,0,105.06,48.88Z"></path><path class="cls-2" d="M115.54,56.65a4.6,4.6,0,1,1,4.59-4.6A4.6,4.6,0,0,1,115.54,56.65Zm0-7.57a3,3,0,1,0,3,3A3,3,0,0,0,115.54,49.08Z"></path><path class="cls-2" d="M111.88,52.52h0l-6.5-.08a.8.8,0,0,1-.69-.4.79.79,0,0,1,0-.8l2.75-5a.81.81,0,0,1,1.36-.1l3.75,5a.82.82,0,0,1,.07.85A.81.81,0,0,1,111.88,52.52Zm-5.13-1.69,3.5,0-2-2.71Z"></path><path class="cls-2" d="M109.89,45a.73.73,0,0,1-.25,0l-2.83-.91a.81.81,0,0,1,.5-1.55l2.83.92a.81.81,0,0,1-.25,1.58Z"></path><path class="cls-2" d="M115.54,52.52h-.09a.81.81,0,0,1-.72-.89l.93-8.41a.81.81,0,1,1,1.61.17l-.92,8.41A.82.82,0,0,1,115.54,52.52Z"></path><path class="cls-2" d="M119,45.53a.77.77,0,0,1-.45-.14l-4.49-3.06a.8.8,0,0,1-.21-1.12A.82.82,0,0,1,115,41l4.48,3.06a.81.81,0,0,1-.46,1.48Z"></path><rect class="cls-2" x="111.88" y="50.89" width="3.66" height="1.62"></rect><path class="cls-2" d="M108.21,47.62a.81.81,0,0,1-.81-.81V44A.81.81,0,0,1,109,44v2.83A.81.81,0,0,1,108.21,47.62Z"></path><circle class="cls-3" cx="90.04" cy="37.11" r="9.07" transform="translate(-2.38 67.82) rotate(-40.78)"></circle><path class="cls-2" d="M86.17,40.36a3,3,0,1,1,3-3A3,3,0,0,1,86.17,40.36Zm0-4.45a1.41,1.41,0,1,0,1.42,1.41A1.41,1.41,0,0,0,86.17,35.91Z"></path><path class="cls-2" d="M93.37,40.36a3,3,0,1,1,3-3A3,3,0,0,1,93.37,40.36Zm0-4.45a1.41,1.41,0,1,0,1.41,1.41A1.41,1.41,0,0,0,93.37,35.91Z"></path><rect class="cls-2" x="88.66" y="36.51" width="2.22" height="1.62"></rect></g></g></svg>