<svg xmlns="http://www.w3.org/2000/svg" xmlns:xlink="http://www.w3.org/1999/xlink" viewBox="0 0 147.23 113.73"><defs><style>.cls-1{fill:none;}.cls-2{fill:#fe9249;}.cls-3{fill:#7c84ff;}.cls-4{fill:#fff;}.cls-5{fill:#ffd3d2;}.cls-6{fill:#3287b2;}.cls-7{clip-path:url(#clip-path);}.cls-8{fill:#ff4f4f;}.cls-9{fill:#6855ef;}.cls-10{fill:#2cbfc6;}.cls-11{clip-path:url(#clip-path-2);}.cls-12{fill:#6d54ed;}.cls-13{clip-path:url(#clip-path-3);}.cls-14{opacity:0.19;}.cls-15{fill:#4396ca;}</style><clipPath id="clip-path"><path class="cls-1" d="M111.73,85H32.78a5.24,5.24,0,0,1-5.39-5.08v-48a5.24,5.24,0,0,1,5.39-5.07h79a5.24,5.24,0,0,1,5.4,5.07v48A5.25,5.25,0,0,1,111.73,85Z"></path></clipPath><clipPath id="clip-path-2"><path class="cls-2" d="M14.71,90.33c-1.74-3.67-3.87-24.75-1-27.45A17.14,17.14,0,0,1,21.48,59c1-.19-1-13,3.09-13.73,2.28-.43,4.84.39,4.64,7.73C29,62.71,27.67,90,27.67,90Z"></path></clipPath><clipPath id="clip-path-3"><path class="cls-2" d="M85.18,83.66c-1.15-2.21.51-4.2,3.66-9,.78-1.19.16-3.72-1.39-7C84.19,60.82,82,55.87,85.89,53.53s4.66,4.19,6.52,9.15,2.33,8.07,3.57,8.07A9.94,9.94,0,0,1,99.1,70c2-.12,1.81.8,3.12.87s2.58-.79,4.28-.51c.59.1,1.48.76,2.46,1.09s2.83-.43,4.14.8c3.36,3.17.56,22.52.56,22.52l-13.85,5s-6.21-3.86-8.69-5.65C89.53,93,87.06,87.29,85.18,83.66Z"></path></clipPath></defs><title>Asset 5z3</title><g id="Layer_2" data-name="Layer 2"><g id="Layer_1-2" data-name="Layer 1"><circle class="cls-3" cx="10.22" cy="71.15" r="10.22"></circle><path class="cls-4" d="M9.31,74.78a.81.81,0,0,1-.51-.18l-3.72-3a.81.81,0,1,1,1-1.27L9.34,73l6-4.29a.8.8,0,0,1,1.13.18A.82.82,0,0,1,16.3,70L9.78,74.63A.8.8,0,0,1,9.31,74.78Z"></path><rect class="cls-3" x="23.52" y="22.7" width="99.2" height="66.42" rx="5.8"></rect><path class="cls-5" d="M111.73,85H32.78a5.24,5.24,0,0,1-5.39-5.08v-48a5.24,5.24,0,0,1,5.39-5.07h79a5.24,5.24,0,0,1,5.4,5.07v48A5.25,5.25,0,0,1,111.73,85Z"></path><path class="cls-6" d="M120,50.51a1.15,1.15,0,0,1,1.15,1.16v8.48A1.14,1.14,0,0,1,120,61.3h0a1.15,1.15,0,0,1-1.16-1.15V51.67A1.16,1.16,0,0,1,120,50.51Z"></path><g class="cls-7"><polygon class="cls-4" points="46.61 37.25 19.61 37.25 19.61 36.85 46.2 36.85 46.2 22.16 46.61 22.16 46.61 37.25"></polygon><polygon class="cls-4" points="122.33 41.72 122.33 41.31 122.33 41.72 23.08 41.72 23.08 41.31 122.33 41.31 122.33 41.72"></polygon><polygon class="cls-4" points="75.14 87.67 74.73 87.67 74.73 68.85 122.08 68.85 122.08 69.26 75.14 69.26 75.14 87.67"></polygon><polygon class="cls-4" points="44.87 89.65 44.46 89.65 44.46 53.88 16.63 53.88 16.63 53.47 44.87 53.47 44.87 89.65"></polygon><polygon class="cls-4" points="94.99 32.54 84.16 32.54 84.16 23.4 84.57 23.4 84.57 32.13 94.58 32.13 94.58 24.64 94.99 24.64 94.99 32.54"></polygon></g><rect class="cls-8" x="51.6" y="45.49" width="41.31" height="20.1" rx="3.63"></rect><circle class="cls-8" cx="18.33" cy="15.56" r="7.62" transform="translate(-1.03 29.81) rotate(-76.67)"></circle><polygon class="cls-4" points="18.33 10.2 19.95 13.48 23.58 14.01 20.95 16.56 21.57 20.17 18.33 18.47 15.09 20.17 15.71 16.56 13.09 14.01 16.71 13.48 18.33 10.2"></polygon><circle class="cls-3" cx="127.54" cy="15.56" r="7.62" transform="translate(3.69 49.76) rotate(-22.39)"></circle><path class="cls-4" d="M130.89,12.8c-1.14-.62-2.64.15-3.34,1.22-.7-1.07-2.27-1.84-3.41-1.22a2.14,2.14,0,0,0-.84,3.11c.64,1.21,4.25,4.15,4.25,4.11s3.61-2.9,4.26-4.11A2.17,2.17,0,0,0,130.89,12.8Z"></path><circle class="cls-9" cx="73.12" cy="9.97" r="9.97"></circle><circle class="cls-10" cx="127.54" cy="96.66" r="7.62" transform="translate(-27.2 55.87) rotate(-22.39)"></circle><rect class="cls-4" x="126.67" y="92.44" width="1.74" height="8.44"></rect><rect class="cls-4" x="123.32" y="95.79" width="8.44" height="1.74"></rect><path class="cls-2" d="M14.71,90.33c-1.74-3.67-3.87-24.75-1-27.45A17.14,17.14,0,0,1,21.48,59c1-.19-1-13,3.09-13.73,2.28-.43,4.84.39,4.64,7.73C29,62.71,27.67,90,27.67,90Z"></path><g class="cls-11"><rect class="cls-5" x="21.66" y="48.89" width="0.41" height="15.01" transform="translate(-1.57 0.63) rotate(-1.6)"></rect></g><path class="cls-5" d="M27.57,48.76a2,2,0,1,1-2-2A2,2,0,0,1,27.57,48.76Z"></path><path class="cls-12" d="M14.42,89.75H27.67v22.63a1.35,1.35,0,0,1-1.36,1.35H15.77a1.35,1.35,0,0,1-1.35-1.35Z"></path><path class="cls-12" d="M99.63,89.75l14,5,2.41,17.58a1.35,1.35,0,0,1-1.35,1.35H101a1.35,1.35,0,0,1-1.36-1.35Z"></path><path class="cls-2" d="M85.18,83.66c-1.15-2.21.51-4.2,3.66-9,.78-1.19.16-3.72-1.39-7C84.19,60.82,82,55.87,85.89,53.53s4.66,4.19,6.52,9.15,2.33,8.07,3.57,8.07A9.94,9.94,0,0,1,99.1,70c2-.12,1.81.8,3.12.87s2.58-.79,4.28-.51c.59.1,1.48.76,2.46,1.09s2.83-.43,4.14.8c3.36,3.17.56,22.52.56,22.52l-13.85,5s-6.21-3.86-8.69-5.65C89.53,93,87.06,87.29,85.18,83.66Z"></path><g class="cls-13"><rect class="cls-5" x="90.44" y="71.32" width="0.41" height="15.01" transform="translate(-17.25 26.02) rotate(-14.93)"></rect></g><path class="cls-5" d="M89.58,57.46a2,2,0,1,1-2-2A2,2,0,0,1,89.58,57.46Z"></path><path class="cls-10" d="M14,87.82H27.67V94H14a1.64,1.64,0,0,1-1.64-1.64V89.46A1.64,1.64,0,0,1,14,87.82Z"></path><rect class="cls-10" x="97.14" y="97.49" width="18.75" height="6.19" rx="1.64" transform="translate(-27.75 41.96) rotate(-19.77)"></rect><path class="cls-4" d="M63.16,58.94V52.4h3.32a2,2,0,0,1,1.51.52,1.72,1.72,0,0,1,.47,1.2,1.52,1.52,0,0,1-.27.88,1.47,1.47,0,0,1-.82.55,1.46,1.46,0,0,1,1.27,1.52,2.05,2.05,0,0,1-.45,1.3,2.41,2.41,0,0,1-1.92.57Zm1.85-4h.93a.59.59,0,0,0,.49-.18.57.57,0,0,0,.15-.38c0-.36-.23-.54-.67-.54H65Zm0,2.58h1a.69.69,0,0,0,.53-.18.6.6,0,0,0,.17-.41.59.59,0,0,0-.16-.41.78.78,0,0,0-.61-.19H65Z"></path><path class="cls-4" d="M75.26,52.4v4.33a2,2,0,0,1-.73,1.77,3.13,3.13,0,0,1-1.91.54,3.46,3.46,0,0,1-2-.51,1.91,1.91,0,0,1-.75-1.69V52.4h2v4.2a1,1,0,0,0,.2.69.83.83,0,0,0,.63.21,1.11,1.11,0,0,0,.6-.15.59.59,0,0,0,.27-.35,4.06,4.06,0,0,0,.05-.77V52.4Z"></path><path class="cls-4" d="M82.25,52.4l-2,3.77v2.77H78.26V56.17l-2.2-3.77h2.19l1.15,2.16,1.1-2.16Z"></path><g class="cls-14"><path class="cls-4" d="M105.21,60.62a2.48,2.48,0,0,1-2.48,2.48h0a2.48,2.48,0,0,1-2.48-2.48V32.34a2.48,2.48,0,0,1,2.48-2.49h0a2.48,2.48,0,0,1,2.48,2.49Z"></path></g><g class="cls-14"><path class="cls-4" d="M112.9,42.51A2.48,2.48,0,0,1,110.42,45h0a2.48,2.48,0,0,1-2.48-2.48V32.34a2.48,2.48,0,0,1,2.48-2.49h0a2.48,2.48,0,0,1,2.48,2.49Z"></path></g><path class="cls-4" d="M78.67,14.41H67.82A.82.82,0,0,1,67,13.6V6.66a.82.82,0,0,1,.82-.81H78.67a.81.81,0,0,1,.81.81V13.6A.81.81,0,0,1,78.67,14.41Zm-10-1.62h9.23V7.47H68.63Z"></path><path class="cls-4" d="M74.92,10a1.54,1.54,0,1,1-1.54-1.54A1.54,1.54,0,0,1,74.92,10Z"></path><path class="cls-4" d="M76.17,7.26a1,1,0,0,1-1-1V5.42a1,1,0,1,1,2,0v.83A1,1,0,0,1,76.17,7.26Z"></path><path class="cls-3" d="M54.19,10.47A9.23,9.23,0,1,1,45,1.24,9.23,9.23,0,0,1,54.19,10.47Z"></path><path class="cls-4" d="M41.13,14.72a.81.81,0,0,1-.57-1.39L48.1,6a.81.81,0,0,1,1.14,1.16L41.7,14.49A.78.78,0,0,1,41.13,14.72Z"></path><path class="cls-4" d="M44,7.4a1.77,1.77,0,1,1-1.77-1.77A1.77,1.77,0,0,1,44,7.4Z"></path><path class="cls-4" d="M49.69,12.89a1.77,1.77,0,1,1-1.77-1.77A1.77,1.77,0,0,1,49.69,12.89Z"></path><circle class="cls-15" cx="47.92" cy="12.89" r="0.74"></circle><path class="cls-15" d="M43,7.4a.74.74,0,1,1-.73-.74A.74.74,0,0,1,43,7.4Z"></path><path class="cls-10" d="M110.76,10.47a9.23,9.23,0,1,1-9.23-9.23A9.23,9.23,0,0,1,110.76,10.47Z"></path><path class="cls-4" d="M108.28,11.05a8,8,0,0,1-13.21,0s1.82-4.13,6.24-4.25A7.39,7.39,0,0,1,108.28,11.05Z"></path><path class="cls-10" d="M104.58,10.75A2.79,2.79,0,1,1,101.8,8,2.78,2.78,0,0,1,104.58,10.75Z"></path><path class="cls-8" d="M147.23,71.15A10.22,10.22,0,1,1,137,60.92,10.22,10.22,0,0,1,147.23,71.15Z"></path><path class="cls-4" d="M136.74,72.18c0-.64,0-.78-.61-1A2.87,2.87,0,0,1,134,68.5a2.77,2.77,0,0,1,2.37-2.76c.24,0,.38-.1.39-.43s.43-.25.65-.25.23.11.23.3c0,.34.44.29.81.36.2,0,1.51.26,1.51.55,0,.1-.5,1.57-.68,1.57s-.61-.52-1.33-.52c-.31,0-.26.43-.26.63V69c0,.59,0,.78.64,1a3.1,3.1,0,0,1,2.42,3,2.73,2.73,0,0,1-2.62,3c-.28,0-.39.2-.39.5s-.2.25-.47.25-.42.06-.44-.21c0-.42-.21-.54-.64-.54-.7,0-2-.62-2-.86s.43-2,.66-2c.47,0,.79.74,1.62.74.37,0,.33-.35.33-.6Zm0-4.24c0-.37.07-.62-.25-.62-.56,0-.84.55-.84,1.07a1.24,1.24,0,0,0,.87,1.08c.19,0,.22-.47.22-.83Zm.91,5.52c0,.29,0,.49.36.49a1,1,0,0,0,1-1,1.46,1.46,0,0,0-1.12-1.13c-.28,0-.25.24-.25.49Z"></path><path class="cls-2" d="M147.23,41.73A10.22,10.22,0,1,1,137,31.51,10.22,10.22,0,0,1,147.23,41.73Z"></path><path class="cls-4" d="M142,37.18c.5.17.83,1.2.46,2.87s-.92,5.44-.92,5.44h-1.38s.64-4.06-.65-4.43-2.12,4.43-5.08,4.43-4.8.09-4.89-.74,4-1.57,5.63-3.69C137.61,37.92,141.15,36.91,142,37.18Z"></path><circle class="cls-9" cx="10.22" cy="41.73" r="10.22" transform="translate(-32.45 46.79) rotate(-83)"></circle><path class="cls-4" d="M15.64,46.05H4.53a.81.81,0,0,1-.81-.81v-7.1a.81.81,0,0,1,.81-.81H15.64a.81.81,0,0,1,.81.81v7.1A.81.81,0,0,1,15.64,46.05ZM5.35,44.42h9.47V39H5.35Z"></path><path class="cls-4" d="M10.24,43.23a.77.77,0,0,1-.48-.16L4.05,38.79l1-1.3,5.21,3.91,4.9-3.9,1,1.27-5.39,4.29A.8.8,0,0,1,10.24,43.23Z"></path><circle class="cls-9" cx="73.12" cy="101.28" r="9.97" transform="translate(-44.6 143.08) rotate(-73.72)"></circle><path class="cls-4" d="M73.12,108.42a7.14,7.14,0,1,1,7.14-7.14A7.14,7.14,0,0,1,73.12,108.42Zm0-12.65a5.52,5.52,0,1,0,5.52,5.51A5.51,5.51,0,0,0,73.12,95.77Z"></path><path class="cls-4" d="M73.12,102.09a.83.83,0,0,1-.37-.08l-2.4-1.21a.81.81,0,1,1,.74-1.45l2,1,3-1.65a.8.8,0,0,1,1.1.32.81.81,0,0,1-.32,1.1L73.51,102A.76.76,0,0,1,73.12,102.09Z"></path><path class="cls-2" d="M54.19,101.28A9.23,9.23,0,1,1,45,92.05,9.23,9.23,0,0,1,54.19,101.28Z"></path><path class="cls-4" d="M47,107.29a.82.82,0,0,1-.58-.24l-1.9-1.89-1.74,1.74a.81.81,0,0,1-1.38-.47l-1.16-8.89a.81.81,0,0,1,1.61-.21l1,7.25,1.15-1.15a.83.83,0,0,1,1.15,0l1.9,1.9.89-.89A.81.81,0,0,1,49,105.59l-1.47,1.46A.81.81,0,0,1,47,107.29Z"></path><path class="cls-4" d="M48.68,105.59a.81.81,0,0,1-.58-1.38l.9-.9-1.9-1.9a.82.82,0,0,1-.24-.57.84.84,0,0,1,.24-.58l1.15-1.15L41,98.17a.82.82,0,0,1,.21-1.62l8.89,1.16a.83.83,0,0,1,.66.55.82.82,0,0,1-.19.83l-1.75,1.75,1.9,1.9a.82.82,0,0,1,.24.57.84.84,0,0,1-.24.58l-1.47,1.46A.81.81,0,0,1,48.68,105.59Z"></path></g></g></svg>