<svg xmlns="http://www.w3.org/2000/svg" xmlns:xlink="http://www.w3.org/1999/xlink" viewBox="0 0 104.82 130.47"><defs><style>.cls-1{fill:none;}.cls-2{fill:#7d85ff;}.cls-3{fill:#f27936;}.cls-4{fill:#ff4f4f;}.cls-5{fill:#fff;}.cls-6{fill:#4396ca;}.cls-7{fill:#2cc1c7;}.cls-8{fill:#fe9249;}.cls-9{fill:#5c55f1;}.cls-10{fill:#7e84fc;}.cls-11{fill:#6855ef;}.cls-12{fill:#fe924a;}.cls-13{fill:#189d9a;}.cls-14{clip-path:url(#clip-path);}.cls-15{fill:#4035d8;}.cls-16{fill:#6e54ed;}</style><clipPath id="clip-path"><path class="cls-1" d="M19.46,76.82,7.64,77.94a2.21,2.21,0,0,1-2.41-2L2,59.07a2.21,2.21,0,0,1,2-2.41l15-2.21c1.21-.12,2.85,2.13,3,3.34l-.54,16.62A2.21,2.21,0,0,1,19.46,76.82Z"></path></clipPath></defs><title>Asset 9z3</title><g id="Layer_2" data-name="Layer 2"><g id="Layer_1-2" data-name="Layer 1"><path class="cls-2" d="M6.09,84.93,23.26,87.1l.51,40.58H20.15s-2.74-24.52-3.77-35.79H13.86l-.75,35.79H9.49S5.64,95.9,5.76,89.77C5.66,89.31,6.09,84.93,6.09,84.93Z"></path><path class="cls-3" d="M19.67,65.87l4.4-.13a22.94,22.94,0,0,1-1.56,5.07c-.8,1.94-5.34,5.22-3,6.64S24.32,69.17,26,68.6s5.38.59,4.5,2.21-3.25-.2-3.79.55-2.37,9.67-7.45,10-7.1-2.23-6.09-4.74S19.67,65.87,19.67,65.87Z"></path><circle class="cls-4" cx="68.04" cy="51.4" r="7.62" transform="translate(-14.45 29.79) rotate(-22.39)"></circle><polygon class="cls-5" points="68.04 46.04 69.67 49.32 73.29 49.85 70.67 52.41 71.29 56.02 68.04 54.31 64.8 56.02 65.42 52.41 62.8 49.85 66.42 49.32 68.04 46.04"></polygon><circle class="cls-6" cx="42.11" cy="50.46" r="7.62"></circle><path class="cls-5" d="M45.46,47.7c-1.14-.61-2.64.16-3.33,1.22-.7-1.06-2.28-1.83-3.42-1.22a2.16,2.16,0,0,0-.84,3.12c.65,1.2,4.25,4.14,4.26,4.11s3.6-2.91,4.25-4.11A2.18,2.18,0,0,0,45.46,47.7Z"></path><circle class="cls-7" cx="54.71" cy="35.68" r="7.62"></circle><rect class="cls-5" x="53.84" y="31.46" width="1.74" height="8.44"></rect><rect class="cls-5" x="50.49" y="34.81" width="8.44" height="1.74"></rect><circle class="cls-8" cx="55.71" cy="67.64" r="9.97" transform="translate(-21.75 26.67) rotate(-22.65)"></circle><path class="cls-5" d="M61.27,72.08H50.41a.81.81,0,0,1-.81-.81V64.33a.81.81,0,0,1,.81-.81H61.27a.81.81,0,0,1,.81.81v6.94A.81.81,0,0,1,61.27,72.08ZM51.22,70.46h9.23V65.14H51.22Z"></path><path class="cls-5" d="M57.52,67.62A1.55,1.55,0,1,1,56,66.08,1.54,1.54,0,0,1,57.52,67.62Z"></path><path class="cls-5" d="M58.76,64.93a1,1,0,0,1-1-1v-.83a1,1,0,1,1,2,0v.83A1,1,0,0,1,58.76,64.93Z"></path><path class="cls-9" d="M82.93,31.31a9.23,9.23,0,1,1-9.23-9.23A9.23,9.23,0,0,1,82.93,31.31Z"></path><path class="cls-5" d="M69.87,35.56a.82.82,0,0,1-.58-.24.81.81,0,0,1,0-1.15l7.53-7.35a.81.81,0,0,1,1.15,0A.82.82,0,0,1,78,28l-7.54,7.35A.83.83,0,0,1,69.87,35.56Z"></path><path class="cls-5" d="M72.76,28.24A1.77,1.77,0,1,1,71,26.47,1.76,1.76,0,0,1,72.76,28.24Z"></path><path class="cls-5" d="M78.43,33.73A1.77,1.77,0,1,1,76.66,32,1.76,1.76,0,0,1,78.43,33.73Z"></path><circle class="cls-6" cx="76.66" cy="33.73" r="0.74"></circle><circle class="cls-6" cx="70.99" cy="28.24" r="0.74"></circle><circle class="cls-7" cx="79.32" cy="67.94" r="9.23" transform="translate(-3.83 131.13) rotate(-77.81)"></circle><path class="cls-5" d="M86.07,68.51s-2.54,3.76-7,3.52a8.56,8.56,0,0,1-6.24-3.52s1.82-4.12,6.24-4.24A7.38,7.38,0,0,1,86.07,68.51Z"></path><path class="cls-7" d="M82.38,68.22a2.79,2.79,0,1,1-2.79-2.79A2.78,2.78,0,0,1,82.38,68.22Z"></path><circle class="cls-4" cx="53.82" cy="14.38" r="10.22" transform="translate(8.47 46.73) rotate(-50.46)"></circle><path class="cls-5" d="M53.56,15.41c0-.64,0-.78-.62-1a2.87,2.87,0,0,1-2.17-2.68A2.77,2.77,0,0,1,53.14,9c.24-.05.38-.1.39-.43s.43-.25.65-.25.23.11.23.3c0,.34.44.29.82.35.2,0,1.5.27,1.5.56,0,.1-.5,1.57-.68,1.57s-.61-.52-1.33-.52c-.31,0-.26.43-.26.63v1.09c0,.59,0,.78.64,1a3.1,3.1,0,0,1,2.42,3,2.73,2.73,0,0,1-2.62,3c-.28,0-.39.2-.39.5s-.2.25-.46.25-.43.06-.44-.21c0-.42-.22-.54-.64-.54-.71,0-2-.62-2-.86s.42-2,.65-2c.48,0,.79.74,1.62.74.37,0,.34-.35.34-.6Zm0-4.24c0-.37.06-.62-.25-.62-.57,0-.85.55-.85,1.07a1.24,1.24,0,0,0,.87,1.08c.19,0,.23-.47.23-.83Zm.9,5.52c0,.29,0,.49.36.49a1,1,0,0,0,1-1,1.46,1.46,0,0,0-1.12-1.13c-.27,0-.25.24-.25.49Z"></path><path class="cls-10" d="M104.5,47A11.14,11.14,0,1,1,93.36,35.82,11.14,11.14,0,0,1,104.5,47Z"></path><path class="cls-5" d="M98.78,42c.54.18.9,1.31.5,3.12s-1,5.93-1,5.93h-1.5s.7-4.42-.71-4.82-2.31,4.82-5.53,4.82-5.23.1-5.33-.8,4.33-1.71,6.14-4C94,42.81,97.87,41.7,98.78,42Z"></path><circle class="cls-8" cx="94.6" cy="22.99" r="10.22" transform="translate(11.45 73.63) rotate(-45)"></circle><path class="cls-5" d="M100,27.31H88.91a.81.81,0,0,1-.81-.81V19.4a.81.81,0,0,1,.81-.81H100a.81.81,0,0,1,.81.81v7.1A.81.81,0,0,1,100,27.31Zm-10.3-1.62H99.2V20.21H89.72Z"></path><path class="cls-5" d="M94.62,24.5a.83.83,0,0,1-.49-.17l-5.7-4.28,1-1.3,5.21,3.91,4.9-3.9,1,1.28-5.39,4.28A.81.81,0,0,1,94.62,24.5Z"></path><path class="cls-11" d="M45.25,29.29a10,10,0,1,1-10-10A10,10,0,0,1,45.25,29.29Z"></path><path class="cls-5" d="M35.28,36.42a7.14,7.14,0,1,1,7.14-7.13A7.14,7.14,0,0,1,35.28,36.42Zm0-12.65a5.52,5.52,0,1,0,5.51,5.52A5.52,5.52,0,0,0,35.28,23.77Z"></path><path class="cls-5" d="M35.28,30.1a.81.81,0,0,1-.37-.09l-2.4-1.21a.81.81,0,0,1,.73-1.45l2,1,3-1.66a.83.83,0,0,1,1.11.32.82.82,0,0,1-.32,1.1L35.67,30A.9.9,0,0,1,35.28,30.1Z"></path><path class="cls-10" d="M85,9.23A9.23,9.23,0,1,1,75.81,0,9.23,9.23,0,0,1,85,9.23Z"></path><path class="cls-5" d="M77.83,15.24a.84.84,0,0,1-.58-.24l-1.89-1.9-1.75,1.75a.8.8,0,0,1-.83.19.81.81,0,0,1-.55-.66L71.07,5.49a.81.81,0,0,1,1.61-.21l.95,7.25,1.15-1.15a.83.83,0,0,1,.58-.24h0a.82.82,0,0,1,.57.24l1.9,1.9.89-.9a.83.83,0,0,1,1.15,0,.81.81,0,0,1,0,1.15L78.4,15A.82.82,0,0,1,77.83,15.24Z"></path><path class="cls-5" d="M79.53,13.54A.82.82,0,0,1,79,13.3a.83.83,0,0,1,0-1.15l.9-.89L78,9.36a.81.81,0,0,1,0-1.15L79.1,7.06l-7.25-.95a.8.8,0,0,1-.7-.91.82.82,0,0,1,.91-.7L81,5.66a.81.81,0,0,1,.66.55.8.8,0,0,1-.19.83L79.67,8.79l1.9,1.89a.81.81,0,0,1,0,1.15L80.1,13.3A.8.8,0,0,1,79.53,13.54Z"></path><path class="cls-11" d="M22.84,88.18,7.5,88.43a2.22,2.22,0,0,1-2.41-2L2,59.07a2.21,2.21,0,0,1,2-2.41l13.91-2.09A4.15,4.15,0,0,1,22,57.79l2.84,28A2.2,2.2,0,0,1,22.84,88.18Z"></path><path class="cls-11" d="M15.34,55l.76,12.42,9-.91s-2-8-2.91-10.56c-.43-1.2-2.36-1.49-3.72-1.49A16.35,16.35,0,0,0,15.34,55Z"></path><rect class="cls-12" x="9.02" y="49.38" width="4.49" height="7.01" transform="translate(-7.76 2.27) rotate(-8.58)"></rect><path class="cls-12" d="M15.8,48.63a5.48,5.48,0,1,1-4.31-6.44A5.48,5.48,0,0,1,15.8,48.63Z"></path><path class="cls-12" d="M6.56,50a1.45,1.45,0,1,1-1.14-1.72A1.45,1.45,0,0,1,6.56,50Z"></path><path class="cls-13" d="M82,118.28H54.12a6.22,6.22,0,0,1-6.21-6.22V112a6.22,6.22,0,0,1,6.21-6.21H82A1.63,1.63,0,0,1,82,109H54.12a3,3,0,0,0-3,3v.09a3,3,0,0,0,3,3H82a1.63,1.63,0,0,1,0,3.25Z"></path><path class="cls-13" d="M51.29,109a1.22,1.22,0,0,1-1.17-.87L41.61,80H89.1l-5.37,28a1.22,1.22,0,1,1-2.4-.46L86.15,82.4H44.89l7.56,25a1.22,1.22,0,0,1-.81,1.52A1.48,1.48,0,0,1,51.29,109Z"></path><path class="cls-13" d="M43.25,82.4a1.2,1.2,0,0,1-1.14-.81L39.39,74H33.24a1.22,1.22,0,1,1,0-2.43H41.1l3.3,9.24a1.2,1.2,0,0,1-.74,1.55A1.14,1.14,0,0,1,43.25,82.4Z"></path><path class="cls-13" d="M33.23,74.78H26.64a2,2,0,0,1,0-4.06h6.59a2,2,0,0,1,0,4.06Z"></path><path class="cls-4" d="M59,124.89a5.59,5.59,0,1,1-5.59-5.58A5.58,5.58,0,0,1,59,124.89Z"></path><circle class="cls-4" cx="79.63" cy="124.89" r="5.58"></circle><path class="cls-5" d="M56,124.89a2.61,2.61,0,1,1-2.61-2.61A2.6,2.6,0,0,1,56,124.89Z"></path><path class="cls-5" d="M82.51,124.89a2.61,2.61,0,1,1-2.61-2.61A2.6,2.6,0,0,1,82.51,124.89Z"></path><path class="cls-13" d="M56.89,108.31a1.23,1.23,0,0,1-1.2-1L51.36,82.39a1.22,1.22,0,1,1,2.4-.41l4.33,24.9a1.21,1.21,0,0,1-1,1.41Z"></path><path class="cls-13" d="M63,107.77a1.22,1.22,0,0,1-1.21-1.14L60.15,82a1.22,1.22,0,0,1,2.43-.16l1.62,24.64a1.2,1.2,0,0,1-1.13,1.29Z"></path><path class="cls-13" d="M75.71,108.31l-.19,0a1.2,1.2,0,0,1-1-1.39L78.43,82a1.22,1.22,0,0,1,2.41.38l-3.93,24.91A1.21,1.21,0,0,1,75.71,108.31Z"></path><path class="cls-13" d="M69.21,107.77h-.06A1.23,1.23,0,0,1,68,106.49l1.22-24.64a1.22,1.22,0,0,1,2.44.12l-1.22,24.64A1.22,1.22,0,0,1,69.21,107.77Z"></path><path class="cls-13" d="M84.91,91h-39a1.22,1.22,0,1,1,0-2.43h39a1.22,1.22,0,1,1,0,2.43Z"></path><path class="cls-13" d="M83.56,99.65H49.18a1.22,1.22,0,0,1,0-2.44H83.56a1.22,1.22,0,0,1,0,2.44Z"></path><path class="cls-12" d="M.76,64.1s5,2.11,5,2.59S9,75,10.92,76.93C12,78,20.67,69.83,22.58,69.32s5,0,5.48,1.29-.67,2-2,1.35-2.62-.72-3.11-.33-8.07,10.82-11.33,10C7,80.41.59,72.6.76,64.1Z"></path><g class="cls-14"><path class="cls-12" d="M15.1,54.29a3.73,3.73,0,1,1-2.93-4.38A3.73,3.73,0,0,1,15.1,54.29Z"></path></g><path class="cls-15" d="M6.16,57.58c2.45,2.87.92,11.68.92,11.68L0,69s0-7.87.74-10.37S5.13,56.36,6.16,57.58Z"></path><path class="cls-4" d="M5,48.21c0-1.63-1.08-6.16,3.73-7,3.47-.64,3.69.13,5.66-.74,2.19-1,1.45-1.88,1.65-2s1.08.62,1.35,2.18a4.25,4.25,0,0,1-2,4.58c-2,1.15-4.06.34-6.16,1.09s-.32,2.82-.27,3.38-1.34,1.17-1.62.14C6.61,47.33,5,48.21,5,48.21Z"></path><path class="cls-16" d="M23.82,127.62H20.14v2.83h7.47c.49,0,.66-1.11.23-1.35Z"></path><path class="cls-16" d="M13,127.62H9.32v2.83h7.47c.49,0,.66-1.11.23-1.35Z"></path></g></g></svg>