<svg xmlns="http://www.w3.org/2000/svg" xmlns:xlink="http://www.w3.org/1999/xlink" viewBox="0 0 145.33 108.61"><defs><style>.cls-1{fill:none;}.cls-2{fill:#4035d8;}.cls-3{fill:#6855ef;}.cls-4{fill:#fe924a;}.cls-5{fill:#7c84ff;}.cls-6{fill:#ffd3d2;}.cls-7{fill:#fff;}.cls-8{fill:#2cc1c7;}.cls-9{fill:#ff4f4f;}.cls-10{clip-path:url(#clip-path);}.cls-11{fill:#5756f2;}.cls-12{clip-path:url(#clip-path-2);}.cls-13{clip-path:url(#clip-path-3);}.cls-14{clip-path:url(#clip-path-4);}</style><clipPath id="clip-path" transform="translate(2.4)"><rect class="cls-1" y="18.35" width="27.41" height="58.92" rx="1.82"></rect></clipPath><clipPath id="clip-path-2" transform="translate(2.4)"><rect class="cls-2" x="115.53" y="18.35" width="27.41" height="58.92" rx="1.82"></rect></clipPath><clipPath id="clip-path-3" transform="translate(2.4)"><rect class="cls-3" x="62.55" y="36.91" width="16.3" height="22.34" rx="2.21"></rect></clipPath><clipPath id="clip-path-4" transform="translate(2.4)"><circle class="cls-4" cx="71.02" cy="29.73" r="5.34"></circle></clipPath></defs><title>Asset 4z3</title><g id="Layer_2" data-name="Layer 2"><g id="Layer_1-2" data-name="Layer 1"><path class="cls-5" d="M93.11,97.34h-44a4.14,4.14,0,0,1-4-4.27V4.28a4.15,4.15,0,0,1,4-4.28h44a4.15,4.15,0,0,1,4,4.28V93.07A4.14,4.14,0,0,1,93.11,97.34Z" transform="translate(2.4)"></path><path class="cls-6" d="M89.87,89.25H52.33a3.6,3.6,0,0,1-3.41-3.77V7.24a3.6,3.6,0,0,1,3.41-3.77H89.87a3.61,3.61,0,0,1,3.41,3.77V85.48A3.61,3.61,0,0,1,89.87,89.25Z" transform="translate(2.4)"></path><rect class="cls-7" x="59.79" y="18.35" width="27.41" height="58.92" rx="1.82"></rect><rect class="cls-8" x="2.4" y="18.99" width="27.41" height="58.92" rx="1.82"></rect><polygon class="cls-9" points="43.9 53.05 34.08 43.71 43.9 34.36 43.9 53.05"></polygon><polygon class="cls-9" points="102.94 53.05 112.76 43.71 102.94 34.36 102.94 53.05"></polygon><polygon class="cls-6" points="69.25 37.69 58.55 37.69 58.55 37.28 68.85 37.28 68.85 17.34 69.25 17.34 69.25 37.69"></polygon><rect class="cls-6" x="77.77" y="16.62" width="0.41" height="65.62"></rect><path class="cls-7" d="M74.69,20.4H67.51a.7.7,0,0,1-.7-.71V15.41a.7.7,0,0,1,.7-.71h7.18a.7.7,0,0,1,.7.71v4.28A.7.7,0,0,1,74.69,20.4Z" transform="translate(2.4)"></path><path class="cls-7" d="M73.64,16.78c0,.21-.13.37-.27.37H68.83c-.15,0-.27-.16-.27-.37h0c0-.2.12-.37.27-.37h4.54c.14,0,.27.17.27.37Z" transform="translate(2.4)"></path><path class="cls-6" d="M71.78,16.75a.73.73,0,1,1-.73-.72A.73.73,0,0,1,71.78,16.75Z" transform="translate(2.4)"></path><path class="cls-8" d="M16.72,20.4H9.54a.7.7,0,0,1-.7-.71V15.41a.7.7,0,0,1,.7-.71h7.18a.7.7,0,0,1,.7.71v4.28A.7.7,0,0,1,16.72,20.4Z" transform="translate(2.4)"></path><path class="cls-8" d="M15.67,16.78c0,.21-.12.37-.27.37H10.86c-.14,0-.27-.16-.27-.37h0c0-.2.13-.37.27-.37H15.4c.15,0,.27.17.27.37Z" transform="translate(2.4)"></path><path class="cls-8" d="M13.81,16.75a.73.73,0,1,1-.73-.72A.73.73,0,0,1,13.81,16.75Z" transform="translate(2.4)"></path><g class="cls-10"><rect class="cls-7" y="24.04" width="36.98" height="0.41"></rect><rect class="cls-7" y="60.88" width="36.98" height="0.41"></rect><rect class="cls-7" y="68.36" width="36.98" height="0.41"></rect></g><rect class="cls-11" x="117.92" y="18.35" width="27.41" height="58.92" rx="1.82"></rect><path class="cls-11" d="M132.24,20.4h-7.17a.71.71,0,0,1-.71-.71V15.41a.71.71,0,0,1,.71-.71h7.17a.71.71,0,0,1,.71.71v4.28A.71.71,0,0,1,132.24,20.4Z" transform="translate(2.4)"></path><path class="cls-11" d="M131.19,16.78c0,.21-.12.37-.27.37h-4.53c-.15,0-.27-.16-.27-.37h0c0-.2.12-.37.27-.37h4.53c.15,0,.27.17.27.37Z" transform="translate(2.4)"></path><path class="cls-11" d="M129.34,16.75a.73.73,0,1,1-.73-.72A.73.73,0,0,1,129.34,16.75Z" transform="translate(2.4)"></path><path class="cls-9" d="M90.54,18.35a5.47,5.47,0,1,1-5.47-5.47A5.46,5.46,0,0,1,90.54,18.35Z" transform="translate(2.4)"></path><polygon class="cls-7" points="87.47 14.36 88.63 16.72 91.23 17.09 89.35 18.93 89.79 21.52 87.47 20.3 85.14 21.52 85.58 18.93 83.7 17.09 86.3 16.72 87.47 14.36"></polygon><rect class="cls-3" x="64.95" y="36.91" width="16.3" height="28.84" rx="2.21"></rect><rect class="cls-2" x="117.92" y="18.35" width="27.41" height="58.92" rx="1.82"></rect><g class="cls-12"><polygon class="cls-7" points="136.08 83.1 135.67 83.1 135.67 24.45 127.59 24.45 127.59 81.08 127.18 81.08 127.18 24.04 136.08 24.04 136.08 83.1"></polygon></g><path class="cls-8" d="M62.18,63.54H78.85L80.33,88,79,108.61H75.67L74.33,87s-1.81-9.8-2.09-13.6H70l-.8,14.44L57.16,104l-2.51-2.7L63.5,85.84s-1.35-16.49-1.3-19.4C62.11,65.93,62.18,63.54,62.18,63.54Z" transform="translate(2.4)"></path><rect class="cls-3" x="64.95" y="36.91" width="16.3" height="22.34" rx="2.21"></rect><g class="cls-13"><path class="cls-4" d="M75.18,36.64a4.27,4.27,0,1,1-4.26-4.26A4.26,4.26,0,0,1,75.18,36.64Z" transform="translate(2.4)"></path></g><path class="cls-4" d="M56.91,42.84s-6.64,6.06-6.75,7.25,12.25,12.49,12.28,13c.11,1.73-2.8-.32-2.91.65,0,.39,1.92,2.31,2.81,2.27C64,66,65.1,63.42,64.82,62.16c-.43-1.94-8.2-10.56-8.41-11.57-.25-1.25,4.75-4.75,4.75-4.75Z" transform="translate(2.4)"></path><path class="cls-3" d="M68,42.79,56.9,49.57l-3.69-6L63.7,37.2a1.53,1.53,0,0,1,2,.43Z" transform="translate(2.4)"></path><path class="cls-4" d="M85,43.06c.29,0,4.1,3.45,5.61,4.75,1.07.91,0,1.64.77.78.54-.58,6.4-2.1,8.08-4.34a18.12,18.12,0,0,0,1.62-2.7c.29-.65,1.8-3.74,2.3-3.24s-.79,2.38-.72,2.88,1.09,1.26,1,1.76c-.22,1.41-2,2.16-2.37,2.7-2.1,3.49-9.07,7.64-10.64,7.69-2.15.07-9.44-7.8-9.44-7.8Z" transform="translate(2.4)"></path><path class="cls-3" d="M73.64,42.79l11.12,6.78,3.7-6L78,37.2a1.52,1.52,0,0,0-1.94.43Z" transform="translate(2.4)"></path><rect class="cls-4" x="71.42" y="33.56" width="3.67" height="4.96"></rect><circle class="cls-4" cx="73.42" cy="29.73" r="5.34"></circle><g class="cls-14"><path class="cls-9" d="M75.07,28a5.34,5.34,0,1,1-5.34-5.35A5.34,5.34,0,0,1,75.07,28Z" transform="translate(2.4)"></path></g><path class="cls-4" d="M75.07,30.16a1.35,1.35,0,1,1,1.35,1.35A1.35,1.35,0,0,1,75.07,30.16Z" transform="translate(2.4)"></path><path class="cls-9" d="M70.16,25.69c-.54-1-1.71-5.37-7.12-5.89-5.13-.48-9.34,2.38-9,7.13s1.29,5.66,1.67,9.39a15,15,0,0,1-.59,4.37s5.61-2.59,6-7.45S62,26,64.93,24.88C67.32,24,70.16,25.69,70.16,25.69Z" transform="translate(2.4)"></path><path class="cls-8" d="M69.94,24.63a.89.89,0,1,1-.89-.89A.89.89,0,0,1,69.94,24.63Z" transform="translate(2.4)"></path></g></g></svg>