<svg xmlns="http://www.w3.org/2000/svg" xmlns:xlink="http://www.w3.org/1999/xlink" viewBox="0 0 112.77 76.13"><defs><style>.cls-1{isolation:isolate;}.cls-2{fill:#272c66;}.cls-3{fill:#060d42;}.cls-4{fill:url(#linear-gradient);}.cls-5{fill:url(#radial-gradient);}.cls-6{fill:#ffd451;}.cls-7{fill:#fff;}.cls-8{fill:#fe3da6;}.cls-9{fill:#9c48d1;}.cls-10{fill:#1e88f5;}.cls-11{fill:#110239;}.cls-12{fill:#36c;}.cls-13{fill:#2135ad;}.cls-14{fill:#fee08d;}.cls-15{fill:#f88667;}.cls-16{fill:#e45940;}.cls-17{fill:#330045;opacity:0.32;mix-blend-mode:multiply;}.cls-18{fill:#6cd3fe;}</style><linearGradient id="linear-gradient" x1="41.62" y1="-0.19" x2="41.62" y2="52.97" gradientUnits="userSpaceOnUse"><stop offset="0" stop-color="#36c"></stop><stop offset="0.06" stop-color="#3869ce"></stop><stop offset="0.44" stop-color="#5578d9"></stop><stop offset="0.76" stop-color="#6781e0"></stop><stop offset="1" stop-color="#6d84e2"></stop></linearGradient><radialGradient id="radial-gradient" cx="43.08" cy="19.61" r="23.94" gradientUnits="userSpaceOnUse"><stop offset="0" stop-color="#59c7ef"></stop><stop offset="0.3" stop-color="#50c6ee"></stop><stop offset="0.79" stop-color="#38c4ed"></stop><stop offset="1" stop-color="#2cc3ec"></stop></radialGradient></defs><title>Asset 5a5</title><g class="cls-1"><g id="Layer_2" data-name="Layer 2"><g id="Layer_1-2" data-name="Layer 1"><polygon class="cls-2" points="49.24 69.29 33.99 69.29 35.25 50.91 47.99 50.91 49.24 69.29"></polygon><path class="cls-3" d="M36.6,64.72c3.81-1.27,8.32-2.18,12-4L48,50.91H35.25l-1,14.57Z"></path><path class="cls-2" d="M51.24,66.34a1,1,0,0,0-.83-.44H32.82a1,1,0,0,0-.82.44l-2.31,3.44a1,1,0,0,0,.83,1.55H52.71a1,1,0,0,0,.83-1.55Z"></path><rect class="cls-2" width="83.23" height="55.79" rx="4.29"></rect><rect class="cls-4" x="3.83" y="3.7" width="75.57" height="47.82"></rect><path class="cls-5" d="M58.67,29.79h0v0c0-.43,0-.85-.05-1.27a.57.57,0,0,1,0-.13,17.23,17.23,0,0,0-34.35,0,.57.57,0,0,0,0,.13c0,.42-.06.84-.06,1.27v0h0c0,.43,0,.86.06,1.28a.62.62,0,0,0,0,.13,17.23,17.23,0,0,0,34.35,0,.53.53,0,0,1,0-.13C58.65,30.65,58.67,30.22,58.67,29.79Z"></path><path class="cls-6" d="M26.49,24.14c1.09,0,.47.56.52,1.43,0,1.11.95.92,1.55,1.65.19.23.2.52.37.77a2.85,2.85,0,0,0,1,.71c.61.36,1.08,1.13,1.73,1.37,1.63.6-.09-2,0-2.5.05-.35.32-.36.18-.7a.66.66,0,0,0-.72-.37c-.19,0-.42.42-.66.24s.2-.53.25-.7c.18-.64-.74-1.08-1.08-.55-.15.24.09.88-.34.73s-.53-1.09-.5-1.36c.12-1.13.95-1.35,2-1.36.7,0,1.06.12,1.21.87s-.18,1,.46,1.38,1.19.13.84-.73c-.18-.43-.72-1-.52-1.52.08-.19.39-.33.52-.49.23-.31,0-.27.37-.51s.69-.16.84-.71-.06-.48.29-.84c.71-.7,1.25.18,1.9-.17a3.31,3.31,0,0,1-.34-.74c.16-.2,1.77-.07.83-.84.58-.35.47.63,1,.53.65-.13-.44-.72-.47-.83-.09-.45.63-.45.89-.28s.22,1,.82.88c.07.53.73.35.73-.07s-.46-.3-.46-.76.39-.48.1-.93-.62-.13-.54-.66c-.24,0-.45.4-.53.17-.21-.58-.46-1.79-1.25-.94-.33-.26-.46-.72-.9-.71s-.5.68-.83,1.06c-.15.18-.41.28-.56.47s0,.47-.34.54c-.65.12-.45-.75-.37-1.06-1-.1-.63-.93.13-.95.29,0,.71.21,1,0s.18-.63.58-.63c.1,1,.84.13,1.32.06,0,.12,0,.33,0,.45,1.54.24,0-1.89,1.06-2.28.68-.25.8.36.78.89a1.43,1.43,0,0,0,.37,1.28c.38.44.76.92,1.13.12.07-.15,0-.6.12-.7s.61-.13.82-.29c.74-.54.29-1.47-.36-2a17.2,17.2,0,0,0-5.94,1.09.9.9,0,0,0-.21.38.91.91,0,0,1-.57-.06,17.34,17.34,0,0,0-8.08,7.17,2.3,2.3,0,0,0,0,.28.69.69,0,0,0,.05.13,3.68,3.68,0,0,1,.24,1.09C26.8,23.15,26.4,23.63,26.49,24.14Z"></path><path class="cls-6" d="M58.67,29.76c0-.43,0-.85-.05-1.27a.57.57,0,0,1,0-.13,17.31,17.31,0,0,0-1.38-5.49h0c-.1-.24-.21-.47-.33-.7l0-.06-.33-.62,0-.09-.33-.58a.41.41,0,0,1-.07-.11c-.11-.18-.23-.36-.35-.53l-.08-.13-.36-.5a.64.64,0,0,0-.1-.13c-.12-.17-.25-.33-.38-.49l-.09-.12-.08-.08a1,1,0,0,0-1,.69c-.13.33-.09,1.38-.55,1.48s-.88-2.6-1.85-1.11c-.13.2-.06.46-.16.65s-.26.26-.46.36c.3-.59-.52-1.95.33-1.91.19-.41-.11-.85,0-1.28.23-.85.41-.09.6.29.11.22.56,1.06.95.77s-.07-1.12,0-1.41c.35.06.45.55.82.64a1.73,1.73,0,0,0,.66,0l0,0c-.28-.3-.57-.59-.87-.86h0c-.31-.28-.64-.55-1-.82h0c-.32-.26-.66-.5-1-.73L51,15.41a17.69,17.69,0,0,0-2.16-1.23l-.07,0q-.56-.26-1.14-.48l-.1,0a17.75,17.75,0,0,0-2.42-.71l-.06,0a1,1,0,0,1,0,.46c-.06.36-.24.3,0,.65s.72.34,1,.59.19.35.35.51.52.27.68.55c.07.12.16.22.22.34-.37.08-.93-.5-1.14-.17s.4.75.49,1-.21.85.35.89.34-.56.31-.88c.59-.07.66.42.9.74s.79.33,1.12.66c.69.68-.11.5-.42.52s-.41-.07-.64.19-.11.16,0,.49a7.12,7.12,0,0,0,.61,1.33,4.17,4.17,0,0,0,1.48.26,7.36,7.36,0,0,0-.7.87c-.57.68-.28.48-.18,1.24s-.44.86-.62,1.42.3,1.38.38,2,.34.61.55,1a7.77,7.77,0,0,0,.39,1c.34.52,1.2,1.44,1.92,1.36.51-.06.3-.5.61-.72s.8.14.77-.51c.19,0,.68.35.83.29s.17-.64.19-.89c.76-.12.62.91.45,1.29-.08.19-.33.46-.34.66,0,.35.2.25.36.58a5.2,5.2,0,0,1-.35,3c-.3.48-1.07.68-1,1.4.07.45.62.63.73,1.09s-.17,1.11.09,1.69.5,1.24.75,1.94a2.4,2.4,0,0,0,.11.23,17.39,17.39,0,0,0,2.5-4.82,1.48,1.48,0,0,1,0-.21v0a3.69,3.69,0,0,1,.44-1.36.64.64,0,0,1,0-.07,18.24,18.24,0,0,0,.36-2.35.53.53,0,0,1,0-.13c0-.42.05-.84.05-1.27h0v0Z"></path><path class="cls-6" d="M44.6,33.43c-.28-.12-.67.1-1-.06s-.19-.44-.71-.54c-.33-.07-.63.09-.95,0s-.67-.48-1.08-.46c-.64-.51-.66-1.16-1.09-1.83s-.76-.48-1.42-.47-1.09-.62-1.73-.77a2.16,2.16,0,0,0-.67,0,2.22,2.22,0,0,1-.76,0c-.2,0-.52,0-.7-.06a2.4,2.4,0,0,1-.27,0c-.12,0,0-.3-.22-.31a4.08,4.08,0,0,0-1.51.77c-.22.4.2.57.24.88s-.09.41-.28.67a10.34,10.34,0,0,0-1.64,3.39c-.15.61,0,.76.28,1.26s.25,1.23.52,1.82.76.59,1.33,1,.56.79.63,1.37a11.52,11.52,0,0,1,.13,1.33c0,.24-.18.33-.08.57s.6.49.85.73.42.54.67.78a5,5,0,0,1,1.62,2,1.83,1.83,0,0,1,0,1,15.69,15.69,0,0,0,1.68.37c.09,0,.15-1.06.19-1.17.14-.43.39-.5.7-.84s.3-.61.43-1.09c.32-1.2.92-1.3,1.91-1.81.82-.43,1.49-.87,1.25-1.79s.22-1.53.87-2.31a5.9,5.9,0,0,0,1.24-2.86C45.16,34.22,45.07,33.62,44.6,33.43Z"></path><polygon class="cls-7" points="57.09 11.32 50.93 15.95 57.92 13.09 57.09 11.32"></polygon><polygon class="cls-7" points="67.27 27.25 57.89 30.16 67.27 29.57 67.27 27.25"></polygon><polygon class="cls-7" points="18.65 44.52 32.59 36.08 17.94 42.31 18.65 44.52"></polygon><polygon class="cls-7" points="28.52 26.21 16.26 24.89 16.26 22.24 28.52 26.21"></polygon><polygon class="cls-7" points="40.26 39.47 51.34 46.77 51.34 44.3 40.26 39.47"></polygon><path class="cls-8" d="M50.63,16.72a1.47,1.47,0,1,1-1.47-1.46A1.47,1.47,0,0,1,50.63,16.72Z"></path><path class="cls-8" d="M31.89,26.89a1.47,1.47,0,1,1-1.47-1.47A1.47,1.47,0,0,1,31.89,26.89Z"></path><path class="cls-8" d="M40.26,38.56a1.47,1.47,0,1,1-1.47-1.46A1.47,1.47,0,0,1,40.26,38.56Z"></path><path class="cls-8" d="M35.74,35.14a1.47,1.47,0,1,1-1.47-1.47A1.46,1.46,0,0,1,35.74,35.14Z"></path><path class="cls-8" d="M57.69,30.83a1.47,1.47,0,1,1-1.47-1.47A1.47,1.47,0,0,1,57.69,30.83Z"></path><path class="cls-7" d="M26.15,25.32a.21.21,0,0,0-.31,0,.22.22,0,0,0,0,.31c.54.48,1.11,1,1.7,1.45a.24.24,0,0,0,.14,0,.23.23,0,0,0,.17-.08.21.21,0,0,0,0-.31C27.25,26.27,26.69,25.79,26.15,25.32Z"></path><path class="cls-7" d="M30.85,15.24a.23.23,0,0,0,.21-.15.22.22,0,0,0-.13-.28c-.74-.27-1.45-.51-2.12-.72a.22.22,0,0,0-.28.14.22.22,0,0,0,.15.28c.66.21,1.37.45,2.09.71Z"></path><path class="cls-7" d="M23,22.25a.21.21,0,0,0-.31,0,.22.22,0,0,0,0,.31c.49.52,1,1.05,1.58,1.58a.25.25,0,0,0,.16.06.21.21,0,0,0,.16-.07.22.22,0,0,0,0-.31C24,23.29,23.44,22.77,23,22.25Z"></path><path class="cls-7" d="M33.13,30.79a.22.22,0,1,0-.25.37c.59.42,1.21.84,1.83,1.26a.22.22,0,0,0,.31-.06.22.22,0,0,0-.06-.31Z"></path><path class="cls-7" d="M29.57,28.15a.22.22,0,0,0-.31,0,.23.23,0,0,0,0,.32c.57.44,1.16.9,1.77,1.35a.22.22,0,0,0,.13,0,.21.21,0,0,0,.18-.09.23.23,0,0,0,0-.31C30.73,29,30.14,28.59,29.57,28.15Z"></path><path class="cls-7" d="M24.39,13.46c.67.11,1.4.26,2.16.45h.05a.23.23,0,0,0,.22-.17.22.22,0,0,0-.16-.27c-.78-.2-1.52-.35-2.2-.46a.22.22,0,0,0-.25.18A.23.23,0,0,0,24.39,13.46Z"></path><path class="cls-7" d="M66.54,40.35a.24.24,0,0,0,.2.12.17.17,0,0,0,.1,0,.21.21,0,0,0,.1-.29,14.23,14.23,0,0,0-1.19-1.92.22.22,0,0,0-.36.26A12.43,12.43,0,0,1,66.54,40.35Z"></path><path class="cls-7" d="M18.74,15.36a2.15,2.15,0,0,1,0-.45.22.22,0,0,0-.43-.09,2.36,2.36,0,0,0-.05.54,4.72,4.72,0,0,0,.39,1.75.23.23,0,0,0,.21.14H19a.23.23,0,0,0,.13-.29A4.2,4.2,0,0,1,18.74,15.36Z"></path><path class="cls-7" d="M22.22,12.8h-.14a6.21,6.21,0,0,0-2.13.32.22.22,0,0,0-.14.28.24.24,0,0,0,.21.15l.08,0a5.89,5.89,0,0,1,2-.28h.13a.24.24,0,0,0,.23-.22A.23.23,0,0,0,22.22,12.8Z"></path><path class="cls-7" d="M20.16,18.85a.22.22,0,0,0-.31-.06.22.22,0,0,0-.06.31,20.5,20.5,0,0,0,1.35,1.79.23.23,0,0,0,.17.08.19.19,0,0,0,.14,0,.21.21,0,0,0,0-.31A21.2,21.2,0,0,1,20.16,18.85Z"></path><path class="cls-7" d="M58.73,43.81c-.67-.19-1.38-.4-2.12-.64a.22.22,0,0,0-.28.14.22.22,0,0,0,.14.28c.75.24,1.47.46,2.15.64h.05a.22.22,0,0,0,.22-.16A.22.22,0,0,0,58.73,43.81Z"></path><path class="cls-7" d="M38.69,34.46c-.64-.39-1.26-.79-1.88-1.18a.21.21,0,0,0-.3.06.22.22,0,0,0,.06.31c.62.4,1.25.8,1.89,1.19a.2.2,0,0,0,.11,0,.21.21,0,0,0,.19-.1A.22.22,0,0,0,38.69,34.46Z"></path><path class="cls-7" d="M63.06,44.61a19.81,19.81,0,0,1-2.18-.3.22.22,0,0,0-.26.18.23.23,0,0,0,.18.26,20.28,20.28,0,0,0,2.23.3h0a.21.21,0,0,0,.22-.21A.21.21,0,0,0,63.06,44.61Z"></path><path class="cls-7" d="M67.62,42.34a.24.24,0,0,0-.24-.21.23.23,0,0,0-.21.24.76.76,0,0,1,0,.15,1.87,1.87,0,0,1-.26,1,2.39,2.39,0,0,1-1.71,1,.22.22,0,0,0-.17.27.22.22,0,0,0,.22.17h0a2.87,2.87,0,0,0,2-1.2,2.3,2.3,0,0,0,.32-1.23Z"></path><path class="cls-7" d="M62.82,34.84a.22.22,0,0,0-.31.31c.54.55,1,1.1,1.5,1.62a.23.23,0,0,0,.17.08.2.2,0,0,0,.14-.06.21.21,0,0,0,0-.31C63.88,36,63.37,35.4,62.82,34.84Z"></path><path class="cls-7" d="M61.07,33.67a.24.24,0,0,0,.16-.07.23.23,0,0,0,0-.32c-.52-.48-1.08-1-1.66-1.49a.22.22,0,0,0-.32,0,.21.21,0,0,0,0,.31c.57.5,1.13,1,1.65,1.48A.2.2,0,0,0,61.07,33.67Z"></path><path class="cls-7" d="M42.51,36.72c-.63-.36-1.28-.73-1.92-1.11a.22.22,0,0,0-.3.08.21.21,0,0,0,.07.3c.65.38,1.29.76,1.93,1.12l.11,0a.24.24,0,0,0,.2-.12A.22.22,0,0,0,42.51,36.72Z"></path><path class="cls-7" d="M54.52,42.43c-.67-.25-1.36-.53-2.06-.82a.23.23,0,0,0-.17.42c.7.29,1.4.56,2.08.82h.08a.22.22,0,0,0,.2-.14A.21.21,0,0,0,54.52,42.43Z"></path><path class="cls-7" d="M46.42,38.82l-2-1a.22.22,0,0,0-.3.09.22.22,0,0,0,.09.3c.66.36,1.32.7,2,1a.19.19,0,0,0,.1,0,.24.24,0,0,0,.2-.12A.22.22,0,0,0,46.42,38.82Z"></path><path class="cls-7" d="M50.43,40.74c-.66-.3-1.34-.61-2-.94a.22.22,0,0,0-.29.11.21.21,0,0,0,.1.29l2,.94a.16.16,0,0,0,.1,0,.23.23,0,0,0,.2-.13A.22.22,0,0,0,50.43,40.74Z"></path><path class="cls-7" d="M28.26,45.51c-.71.23-1.41.43-2.06.61a.21.21,0,0,0-.16.26.21.21,0,0,0,.2.16h.07c.66-.18,1.36-.39,2.08-.62a.22.22,0,0,0,.14-.27A.23.23,0,0,0,28.26,45.51Z"></path><path class="cls-7" d="M24.11,46.61a20.94,20.94,0,0,1-2.11.3.22.22,0,0,0-.2.24.22.22,0,0,0,.21.19h0A21.58,21.58,0,0,0,24.19,47a.21.21,0,0,0,.17-.25A.2.2,0,0,0,24.11,46.61Z"></path><path class="cls-7" d="M36.25,42.33c-.67.31-1.32.6-2,.88a.22.22,0,0,0-.11.29.23.23,0,0,0,.19.13l.1,0,2-.89a.22.22,0,0,0,.1-.29A.21.21,0,0,0,36.25,42.33Z"></path><path class="cls-7" d="M32.3,44c-.69.28-1.36.54-2,.77a.23.23,0,0,0-.13.28.2.2,0,0,0,.19.14h.09c.66-.24,1.33-.5,2-.78a.22.22,0,1,0-.16-.4Z"></path><path class="cls-7" d="M55.29,18.17h.06c.73-.21,1.43-.39,2.08-.53a.21.21,0,1,0-.09-.42c-.66.14-1.37.32-2.1.53a.21.21,0,0,0-.15.27A.2.2,0,0,0,55.29,18.17Z"></path><path class="cls-7" d="M40.11,40.42c-.65.34-1.29.66-1.92,1a.22.22,0,0,0-.1.29.2.2,0,0,0,.18.12.15.15,0,0,0,.11,0l1.93-1a.22.22,0,0,0,.09-.29A.21.21,0,0,0,40.11,40.42Z"></path><path class="cls-7" d="M23.74,35.77a.21.21,0,0,0-.3,0c-.56.5-1.09,1-1.58,1.48a.21.21,0,0,0,0,.31.2.2,0,0,0,.14.06.19.19,0,0,0,.16-.06c.49-.48,1-1,1.57-1.47A.21.21,0,0,0,23.74,35.77Z"></path><path class="cls-7" d="M18.05,42.21a.23.23,0,0,0-.29.09A6.18,6.18,0,0,0,17,44.39a.21.21,0,0,0,.18.24h0a.24.24,0,0,0,.23-.19,5.67,5.67,0,0,1,.7-1.94A.22.22,0,0,0,18.05,42.21Z"></path><path class="cls-7" d="M19.89,46.91a3.5,3.5,0,0,1-1.88-.7.22.22,0,0,0-.3,0,.21.21,0,0,0,0,.3,3.85,3.85,0,0,0,2.11.8h0a.24.24,0,0,0,.23-.19A.22.22,0,0,0,19.89,46.91Z"></path><path class="cls-7" d="M20.36,38.8c-.52.57-1,1.14-1.4,1.67a.22.22,0,0,0,0,.3.21.21,0,0,0,.12,0,.25.25,0,0,0,.19-.09,20.52,20.52,0,0,1,1.37-1.64.22.22,0,0,0,0-.31A.21.21,0,0,0,20.36,38.8Z"></path><path class="cls-7" d="M51.16,33.74,49.38,35a.21.21,0,0,0-.06.3.2.2,0,0,0,.17.09.17.17,0,0,0,.12,0c.62-.41,1.21-.81,1.8-1.22a.22.22,0,1,0-.25-.35Z"></path><path class="cls-7" d="M61.67,16.73a14.18,14.18,0,0,0-2.18.11.22.22,0,0,0-.19.25.2.2,0,0,0,.2.18h0a13.38,13.38,0,0,1,2.12-.11.21.21,0,0,0,.22-.2A.22.22,0,0,0,61.67,16.73Z"></path><path class="cls-7" d="M61.06,25.49c-.47.5-1,1-1.52,1.52a.22.22,0,0,0,0,.31.27.27,0,0,0,.14.07.23.23,0,0,0,.16-.06c.54-.52,1.06-1,1.53-1.54a.22.22,0,0,0,0-.31A.22.22,0,0,0,61.06,25.49Z"></path><path class="cls-7" d="M64,22.08a.21.21,0,0,0-.29.07,20.65,20.65,0,0,1-1.24,1.73.22.22,0,0,0,.15.35.21.21,0,0,0,.18-.08,17.71,17.71,0,0,0,1.27-1.77A.21.21,0,0,0,64,22.08Z"></path><path class="cls-7" d="M64.88,18.11a2.4,2.4,0,0,0-1-.91.22.22,0,0,0-.29.1.21.21,0,0,0,.09.29,2,2,0,0,1,.85.74,2.1,2.1,0,0,1,.24,1.08,4.76,4.76,0,0,1-.15.85.2.2,0,0,0,.14.26h.05a.22.22,0,0,0,.22-.15,4.34,4.34,0,0,0,.17-.95A2.39,2.39,0,0,0,64.88,18.11Z"></path><path class="cls-7" d="M47.57,36.12l-1.83,1.13a.21.21,0,0,0-.08.3.22.22,0,0,0,.18.1.27.27,0,0,0,.12,0l1.84-1.14a.21.21,0,0,0,.07-.29A.21.21,0,0,0,47.57,36.12Z"></path><path class="cls-7" d="M58,28.47c-.52.45-1.07.92-1.64,1.39a.21.21,0,0,0,.13.38.19.19,0,0,0,.14,0c.58-.47,1.13-.94,1.65-1.4a.21.21,0,0,0-.28-.32Z"></path><path class="cls-7" d="M43.88,38.34c-.63.37-1.25.72-1.88,1.06a.21.21,0,0,0-.08.29.25.25,0,0,0,.18.12.2.2,0,0,0,.11,0c.63-.34,1.26-.7,1.89-1.06a.23.23,0,0,0,.08-.3A.23.23,0,0,0,43.88,38.34Z"></path><path class="cls-7" d="M54.63,31.2c-.55.43-1.13.86-1.72,1.29a.22.22,0,0,0,0,.3.19.19,0,0,0,.16.09.23.23,0,0,0,.14,0l1.73-1.3a.22.22,0,0,0,0-.3A.21.21,0,0,0,54.63,31.2Z"></path><circle class="cls-7" cx="71.65" cy="28.13" r="5.16"></circle><ellipse class="cls-8" cx="71.65" cy="26.6" rx="1.46" ry="1.5"></ellipse><path class="cls-8" d="M71.67,28.33h0A2.57,2.57,0,0,0,69,30.91v1.65a5.11,5.11,0,0,0,2.61.73,5.17,5.17,0,0,0,2.61-.73V30.91A2.58,2.58,0,0,0,71.67,28.33Z"></path><circle class="cls-7" cx="13.95" cy="43.54" r="5.16"></circle><ellipse class="cls-9" cx="13.95" cy="42.01" rx="1.46" ry="1.5"></ellipse><path class="cls-9" d="M14,43.74h-.05a2.58,2.58,0,0,0-2.59,2.58V48a5,5,0,0,0,5.22,0V46.32A2.57,2.57,0,0,0,14,43.74Z"></path><circle class="cls-7" cx="55.46" cy="45.23" r="5.16"></circle><ellipse class="cls-10" cx="55.46" cy="43.7" rx="1.46" ry="1.5"></ellipse><path class="cls-10" d="M55.49,45.43h-.06A2.58,2.58,0,0,0,52.85,48v1.65a5,5,0,0,0,5.22,0V48A2.58,2.58,0,0,0,55.49,45.43Z"></path><circle class="cls-7" cx="61.43" cy="10.03" r="5.16"></circle><path class="cls-9" d="M62.88,8.5A1.46,1.46,0,1,1,61.43,7,1.48,1.48,0,0,1,62.88,8.5Z"></path><path class="cls-9" d="M61.46,10.22H61.4a2.59,2.59,0,0,0-2.58,2.59v1.65a5,5,0,0,0,5.22,0V12.81A2.59,2.59,0,0,0,61.46,10.22Z"></path><path class="cls-7" d="M17.65,22.05a5.16,5.16,0,1,1-5.15-5.16A5.15,5.15,0,0,1,17.65,22.05Z"></path><path class="cls-8" d="M14,20.51A1.46,1.46,0,1,1,12.5,19,1.48,1.48,0,0,1,14,20.51Z"></path><path class="cls-8" d="M12.52,22.24h0a2.58,2.58,0,0,0-2.58,2.58v1.65a5,5,0,0,0,5.22,0V24.82A2.59,2.59,0,0,0,12.52,22.24Z"></path><path class="cls-7" d="M36.25,8.63h-1v-1a.2.2,0,0,0-.2-.2h0a.2.2,0,0,0-.21.2v1h-1a.21.21,0,0,0-.21.2h0a.22.22,0,0,0,.21.21h1v1a.2.2,0,0,0,.21.2h0a.2.2,0,0,0,.2-.2V9h1a.21.21,0,0,0,.2-.21h0A.2.2,0,0,0,36.25,8.63Z"></path><path class="cls-7" d="M71.38,45.49h-1v-1a.2.2,0,0,0-.21-.2h0a.2.2,0,0,0-.2.2v1H69a.2.2,0,0,0-.2.21h0a.2.2,0,0,0,.2.2h1v1a.2.2,0,0,0,.2.2h0a.2.2,0,0,0,.21-.2v-1h1a.21.21,0,0,0,.21-.2h0A.21.21,0,0,0,71.38,45.49Z"></path><path class="cls-7" d="M11.72,12.39h-.64v-.64a.13.13,0,0,0-.13-.13h0a.13.13,0,0,0-.13.13v.64h-.64a.13.13,0,0,0-.13.14h0a.13.13,0,0,0,.13.13h.64v.64a.13.13,0,0,0,.13.14h0a.13.13,0,0,0,.13-.14v-.64h.64a.13.13,0,0,0,.13-.13h0A.13.13,0,0,0,11.72,12.39Z"></path><path class="cls-7" d="M74.88,14h-.64v-.64a.14.14,0,0,0-.14-.14h0a.13.13,0,0,0-.13.14V14h-.64a.13.13,0,0,0-.13.13h0a.13.13,0,0,0,.13.13H74v.64a.13.13,0,0,0,.13.14h0a.14.14,0,0,0,.14-.14v-.64h.64A.13.13,0,0,0,75,14.1h0A.13.13,0,0,0,74.88,14Z"></path><path class="cls-7" d="M32.9,48.12h-.64v-.64a.13.13,0,0,0-.13-.14h0a.13.13,0,0,0-.13.14v.64h-.64a.13.13,0,0,0-.13.13h0a.13.13,0,0,0,.13.13H32V49a.13.13,0,0,0,.13.14h0a.13.13,0,0,0,.13-.14v-.64h.64a.13.13,0,0,0,.13-.13h0A.13.13,0,0,0,32.9,48.12Z"></path><path class="cls-7" d="M16.3,32.68h-1v-1a.2.2,0,0,0-.2-.2h0a.2.2,0,0,0-.21.2v1h-1a.2.2,0,0,0-.21.2h0a.21.21,0,0,0,.21.21h1v1a.21.21,0,0,0,.21.21h0a.21.21,0,0,0,.2-.21v-1h1a.2.2,0,0,0,.2-.21h0A.2.2,0,0,0,16.3,32.68Z"></path><path class="cls-11" d="M95.42,70.29s-.58,2.55-.21,3.26,8,1,8.45.46-.3-1.38-.71-1.58-5.61-2.14-5.61-2.14Z"></path><path class="cls-11" d="M85.5,69.6h2.07a11.7,11.7,0,0,1,.25,2.82c-.19.52-2.77,3.71-4.11,3.71-.73,0-1.63,0-1.77-.64a4.06,4.06,0,0,1,.86-2.29C83.77,71.85,85.5,69.6,85.5,69.6Z"></path><path class="cls-9" d="M95.83,39s-4.73,1.35-7.66-.08a6.94,6.94,0,0,0-2.07,4.54c-.08,1-2,27.43-2,27.43h4s1.35-13.76,1.65-15.5S92,45.43,92,45.43s1.62,7.27,2.07,9.91c.07.41.9,15.36.9,15.36h3.89S98.3,54.4,98.3,55.27C98.3,55.63,97.85,43.83,95.83,39Z"></path><path class="cls-12" d="M104.42,19.05l2.81,6.25s-.82.92-1.09.72-4.5-5.28-4.92-5.54S104.42,19.05,104.42,19.05Z"></path><path class="cls-13" d="M102.13,21.29a13.7,13.7,0,0,1,2.08-.69l.77-.31-.56-1.24s-3.61,1.16-3.2,1.43a8.55,8.55,0,0,1,.84.86Z"></path><path class="cls-6" d="M97.44,19.82s0,1.8,1.11,2.21c0,0,5.63-2.33,6.76-2.55a51.79,51.79,0,0,1,5.26-.26l-4.16-7.42s-2,4-3.81,5.29A35.1,35.1,0,0,1,97.44,19.82Z"></path><path class="cls-11" d="M101.09,21l1.37-.53a5.78,5.78,0,0,1-1.19-2.55c-.43.25-.87.49-1.3.7A5.13,5.13,0,0,0,101.09,21Z"></path><path class="cls-14" d="M112.1,13.71c1.17,2.83.76,5.69-.93,6.38s-4-1-5.17-3.85-.76-5.69.93-6.39S110.93,10.88,112.1,13.71Z"></path><path class="cls-11" d="M111.87,13.8c1,2.41.65,4.84-.79,5.44s-3.4-.88-4.4-3.29-.64-4.84.79-5.43S110.87,11.39,111.87,13.8Z"></path><path class="cls-15" d="M104.05,23.55c-.14-.08-.1-.59-.07-.72s.18-.47,0-.67-.6.59-.65.72a.93.93,0,0,0-.06.62,2.31,2.31,0,0,0,.54.82l-.09.29a7,7,0,0,1,.67.34c.28.16.26.35.52.53l.25-.58A11.63,11.63,0,0,0,104.05,23.55Z"></path><path class="cls-15" d="M105.85,21.5c-.24-.26-.62-.16-.91.05s-.84.66-.67,1,.93-.37.93-.37c-.29.25-.84.45-.7.71s.85-.12,1-.24c-.15,0-.93.52-.62.76s.78-.18,1-.3c-.23.07-.55.27-.49.59.1.17.45.06.64,0s.57-.17.59-.53a.61.61,0,0,0,0-.19,2,2,0,0,0-.25-.79A3.24,3.24,0,0,0,105.85,21.5Z"></path><path class="cls-15" d="M88.31,20s1.35,5.24.58,5.66c0,0,2.75,5.7,4,5.43s.57-5.13.57-5.13a2.14,2.14,0,0,1-.94-.54A27.9,27.9,0,0,1,91.4,22Z"></path><path class="cls-16" d="M90.62,28.72a3.19,3.19,0,0,1-.69-2.15c.15-1.1,1.23-1.62,2.21-2A19.91,19.91,0,0,0,91.4,22l-3.09-2s1.35,5.24.58,5.66c0,0,2.75,5.7,4,5.43.31-.07.5-.45.61-1A3,3,0,0,1,90.62,28.72Z"></path><path class="cls-15" d="M76.2,23.58a3.68,3.68,0,0,1-.32-.7c-.07-.2-.12-.42-.2-.62a1.65,1.65,0,0,1-.14-.62,2.45,2.45,0,0,1,.08-.37c0-.16.1-.32.13-.48s0-.28,0-.43a2.62,2.62,0,0,1,.24-.78,2.59,2.59,0,0,1,.37-.5,1.51,1.51,0,0,1,.21-.23.66.66,0,0,0,.2-.24.23.23,0,0,0-.17-.31.85.85,0,0,0-.8.26c-.21.29-.31.65-.55.93-.72.86-1.4-.15-2.24-.52a4.72,4.72,0,0,1-.82-.52c-.15-.11-.79-.73-1.1-.57s.22.64.43.76.8.64.9.67a4.9,4.9,0,0,1-1.21-.75c-.32-.25-.63-.5-.81-.36-.53.44,1.57,1.45,1.74,1.54-.18,0-1.83-1.15-2-.72-.09.23.25.47.53.62s.94.33,1.07.43c-.24.08-1.33-.66-1.33-.21s.67.52.93.6,1,.6,1.28.72c.81.39,1.15.34,1.47.83.2.31.57,1.95.86,2.58Z"></path><path class="cls-11" d="M103.59,24.39c-.72,2.11-2.27,5.85-2.79,5.59-1-.49-3-2.19-4.57-3.22a11.42,11.42,0,0,0-1.8-1l1.07,5.11s5.11,3.87,6.17,3.28c.85-.47,2.91-6.36,3.64-8.8Z"></path><path class="cls-17" d="M98.54,31.67a34.35,34.35,0,0,0-3.36-3.36l.17,2.42s5.14,3.87,6.28,3.39A13.52,13.52,0,0,1,98.54,31.67Z"></path><path class="cls-11" d="M94.43,25.72l-1.94-.28a1.87,1.87,0,0,1-1.31.64,5.9,5.9,0,0,1-2.07-.92,23.44,23.44,0,0,0-2.89,1.44,18.85,18.85,0,0,1,.16,3.83l-.63,11.73a52.64,52.64,0,0,0,6.61.39A18.9,18.9,0,0,0,97,42s-.41-9.76-1.31-12.72C95.33,28.11,94.43,25.72,94.43,25.72Z"></path><path class="cls-11" d="M87.07,26.36s-7.57,2.17-8.26,2-3-6.65-3-6.65l-1.9.77s2,9.33,3.34,9.77,9.09-1.81,9.09-1.81A4.77,4.77,0,0,0,87.07,26.36Z"></path><path class="cls-18" d="M108.9,15.52A1.6,1.6,0,0,0,107,14.38a1.28,1.28,0,0,0-.65.47,8.29,8.29,0,0,0,.36,1.1,7.63,7.63,0,0,0,1,1.69,1.13,1.13,0,0,0,.36-.06A1.59,1.59,0,0,0,108.9,15.52Z"></path><path class="cls-15" d="M88.22,17.44a3.22,3.22,0,0,1,2.3-1c1.36,0,2.16.24,2.57,1.31s1.16,3.81,1.16,3.81-.07,2.49-2.33,1.81-4.68-2.11-4.38-3.12S88.22,17.44,88.22,17.44Z"></path><path class="cls-11" d="M88.54,17s1.21.37,1.2.92a5.83,5.83,0,0,0,.19,2.75s-.33.29-.59.06-.11-1.25-.78-1.09-.51,1.35.23,1.45a2,2,0,0,0,1.37.71c.73-.06,1.65-.88,2-.95a5.32,5.32,0,0,1,1.87,0s1,2.84-.15,3.37-4.05-.27-5.57-1.85c0,0-1.68.05-1.52-2.26.13-1.74-1-2.12-.07-3.37C87.4,15.87,88.54,17,88.54,17Z"></path><path class="cls-11" d="M87.2,16.53s.29-1.29,2.25-1.57,2.16.82,2.9.88.89-.37.61-.53c0,0,.46-.47,1.29.57s-.27,2.7-1.81,2.89A5.15,5.15,0,0,1,87.2,16.53Z"></path><path class="cls-7" d="M93.43,21.89a3,3,0,0,1-1.45.24s.15.39,1,.32C93.4,22.42,93.43,21.89,93.43,21.89Z"></path></g></g></g></svg>