<svg xmlns="http://www.w3.org/2000/svg" xmlns:xlink="http://www.w3.org/1999/xlink" viewBox="0 0 108.65 78.94"><defs><style>.cls-1{fill:#01c7e2;}.cls-2{fill:#fff;}.cls-3{fill:#c2c3d4;}.cls-4{fill:#e45940;}.cls-5{fill:#f88667;}.cls-6{fill:#110239;}.cls-7{fill:#e5e6ed;}.cls-8{fill:#00a7cc;}.cls-9{fill:#9c48d1;}.cls-10{fill:url(#linear-gradient);}</style><linearGradient id="linear-gradient" x1="41.08" y1="43.39" x2="91.95" y2="43.39" gradientUnits="userSpaceOnUse"><stop offset="0" stop-color="#36c"></stop><stop offset="0.06" stop-color="#3869ce"></stop><stop offset="0.44" stop-color="#5578d9"></stop><stop offset="0.76" stop-color="#6781e0"></stop><stop offset="1" stop-color="#6d84e2"></stop></linearGradient></defs><title>Asset 3a8</title><g id="Layer_2" data-name="Layer 2"><g id="Layer_1-2" data-name="Layer 1"><path class="cls-1" d="M88.39,67c-2.3-2.6-9.11-6.14-7.32-10.2,1.52-3.45,8.82-3,7.94-7.18-.52-2.46-1.19-4.57.4-7.36,1.73-3,6.9-1.39,8.7-4.22,1.54-2.44-.47-6.19,2.72-7.82,2.82-1.44,6.24,1.38,6.75,3.87.63,3.13-2.46,4.59-2.85,7.31-.26,1.73,1.32,2.33,2.22,3.54a8.38,8.38,0,0,1,1.7,4.27c.17,4.32-4.56,4.87-6.8,7.62C99.77,59.4,103.6,61,103,63.8c-.62,3-4.87,4.61-7.86,4.57C93.1,68.34,89.82,68.64,88.39,67Z"></path><path class="cls-2" d="M91.41,68.45h-.06a.16.16,0,0,1-.07-.24,30.48,30.48,0,0,0,4.51-14.39c.16-5.32,2.37-8.73,4.19-11.52,1.09-1.69,2-3.16,2.19-4.64a.24.24,0,0,1,.25-.2.19.19,0,0,1,.2.22c-.16,1.58-1.14,3.09-2.27,4.83-1.78,2.74-4,6.09-4.13,11.3a30.88,30.88,0,0,1-4.59,14.57A.21.21,0,0,1,91.41,68.45Z"></path><path class="cls-2" d="M96.15,53.83a.2.2,0,0,1-.16-.21.23.23,0,0,1,.24-.18c1.79.11,4.18-.93,4.9-2.68.09-.21.17-.44.26-.68.44-1.18,1-2.64,2.14-3.17a2.56,2.56,0,0,1,1.93,0,.19.19,0,0,1,.11.26.24.24,0,0,1-.29.13,2,2,0,0,0-1.58,0c-1,.45-1.49,1.82-1.9,2.92-.09.24-.18.48-.27.69-.82,2-3.41,3.07-5.35,2.95Z"></path><path class="cls-2" d="M94.88,53.63A3.18,3.18,0,0,1,93,52.54a4.08,4.08,0,0,1-.29-3.73l.17-.54c.37-1.13.94-2.87.38-3.83a1.32,1.32,0,0,0-.9-.63.21.21,0,0,1-.16-.26.24.24,0,0,1,.28-.15h0a1.86,1.86,0,0,1,1.18.83c.64,1.12,0,3-.36,4.15l-.17.53a3.71,3.71,0,0,0,.23,3.39A3.33,3.33,0,0,0,96,53.37a.2.2,0,0,1,.2.21.22.22,0,0,1-.24.18A6.42,6.42,0,0,1,94.88,53.63Z"></path><path class="cls-2" d="M93.86,65.94a2.27,2.27,0,0,1-.69-.25.16.16,0,0,1,0-.25.24.24,0,0,1,.29,0c1.07.65,3.25-.19,4.17-.84a5.51,5.51,0,0,0,1.1-1.25c.66-.9,1.35-1.84,2.43-1.87a.17.17,0,0,1,.2.18.22.22,0,0,1-.21.19c-.85,0-1.47.87-2.07,1.68a5.88,5.88,0,0,1-1.2,1.34A6.32,6.32,0,0,1,93.86,65.94Z"></path><path class="cls-2" d="M92.11,65.55a3,3,0,0,1-.74-.26A5.65,5.65,0,0,1,89,61.66a5.91,5.91,0,0,1,.24-2.14c.3-1.29.6-2.64-.24-3.25A.18.18,0,0,1,89,56a.23.23,0,0,1,.3,0c1,.76.68,2.28.38,3.62a5.48,5.48,0,0,0-.24,2A5.32,5.32,0,0,0,91.59,65a2.09,2.09,0,0,0,1.51.18.21.21,0,0,1,.25.12.19.19,0,0,1-.15.22A2.53,2.53,0,0,1,92.11,65.55Z"></path><path class="cls-3" d="M19.77,66.94c-3.44,2.33-6.23,4-9.94.56A6.83,6.83,0,0,1,7.65,61c.31-2.2.6-3.21-.75-5-2.11-2.87-5.4-4-6.62-7.63-1.34-4,2.61-6.66,1.54-10.46-.94-3.35-3-6.46-.57-9.71,2.05-2.75,5.85-1.53,7.06,1.37C9,31.22,9,33.1,9.88,34.65S12.2,36.48,13.71,37c3.4,1.11,6.38,3.1,6,7.42-.24,2.59-.3,4.69,2.23,5.82,2.71,1.21,4.22,2,4,5.81-.15,2.86-1.54,4.37-3.06,6.47-1.41,1.95-2.83,5-5.15,5.86Z"></path><path class="cls-2" d="M20.21,65.55a3.85,3.85,0,0,1-1.65-.5c-2.06-1.18-2.62-4.19-3.12-6.9a16,16,0,0,0-.89-3.49,14.21,14.21,0,0,0-4.78-5.73C7,46.78,6.4,45.16,6.21,41.62c-.16-3-.47-6-1.67-7.79a.35.35,0,0,1,.1-.46.3.3,0,0,1,.44,0c1.28,1.9,1.61,5.05,1.76,8.11.17,3.42.68,4.89,3.36,6.94a14.88,14.88,0,0,1,5,5.95A16.94,16.94,0,0,1,16.08,58c.48,2.61,1,5.51,2.86,6.57a3.91,3.91,0,0,0,2.69.35.32.32,0,0,1,.39.21.29.29,0,0,1-.28.32A5.76,5.76,0,0,1,20.21,65.55Z"></path><path class="cls-2" d="M12.42,51.12a.44.44,0,0,1-.19-.07.28.28,0,0,1,0-.41c1.1-1.11.76-2.92.39-4.87-.32-1.72-.65-3.51,0-5a.4.4,0,0,1,.45-.22.27.27,0,0,1,.16.39c-.59,1.31-.27,3,0,4.64.37,2,.75,4.08-.59,5.42A.39.39,0,0,1,12.42,51.12Z"></path><path class="cls-2" d="M15.09,55.15l-.12,0a7,7,0,0,1-1.07-.59,3.54,3.54,0,0,0-1.71-.68,8.92,8.92,0,0,0-1.15,0,4.51,4.51,0,0,1-2.46-.42,12.08,12.08,0,0,1-3.75-3.51c-.17-.23-.38-.6-.6-1-.32-.55-.92-1.58-1.17-1.65a.27.27,0,0,1-.2-.34.31.31,0,0,1,.35-.23c.46.08.89.78,1.55,1.91a10.78,10.78,0,0,0,.57.94,12,12,0,0,0,3.58,3.36,3.86,3.86,0,0,0,2.15.35,10.62,10.62,0,0,1,1.25,0,4.15,4.15,0,0,1,2,.77,6.56,6.56,0,0,0,1,.54.26.26,0,0,1,.13.38A.37.37,0,0,1,15.09,55.15Z"></path><path class="cls-4" d="M38.71,9.78c.36.56.72,1.63,1.32,2a5.72,5.72,0,0,0,2.81.39c-.51-1.11-.64-3.64.47-4.62-.73-.45-.77,1-1.32.4-.2-.22-1.73-2.6-1.88-2.87-.43.51-.25,2.24-.67,3.65a1.58,1.58,0,0,1-.75,1Z"></path><path class="cls-5" d="M42.3,1.54s3.89.44,4.09,1.51-.47,2.38-.49,3.07.57,1.68.56,2-.87.45-1,.6-1.34,2-2.13,2.14-3.66-2.37-3.82-4.23c0-.35-.51-1-.42-1.47C39.42,3.36,41.38,1.63,42.3,1.54Z"></path><path class="cls-6" d="M41.51.26C39.9,0,40.88.89,39.09,1.61a1.65,1.65,0,0,0-.63,2.52c.16.25.08.5-.16.93-.14.88,1.39,2.85,1.86,2.25.12-.14-.31-1.06-.29-1.45-.09-.65.48-1.31,1-.73a1.07,1.07,0,0,1,.35.71c0,.77.23,1,.56.72.5-.38-.07-1.92.31-2.24a3.8,3.8,0,0,0,1.12-1.64C44,1.91,43.12.51,41.51.26Z"></path><rect class="cls-7" x="18.07" y="28.53" width="71.75" height="45.87"></rect><rect class="cls-6" x="22.18" y="37.07" width="3.42" height="28.78"></rect><rect class="cls-6" x="26.88" y="37.07" width="1.68" height="28.78"></rect><rect class="cls-6" x="31.78" y="37.07" width="3.47" height="28.78"></rect><rect class="cls-6" x="37.17" y="37.07" width="1.3" height="28.78"></rect><rect class="cls-6" x="42.78" y="37.07" width="1.12" height="28.78"></rect><rect class="cls-6" x="29.62" y="37.07" width="1.12" height="28.78"></rect><rect class="cls-6" x="39.91" y="37.07" width="1.69" height="28.78"></rect><rect class="cls-6" x="46" y="37.07" width="2.67" height="28.78"></rect><rect class="cls-6" x="49.9" y="37.07" width="1.68" height="28.78"></rect><rect class="cls-6" x="53.1" y="37.07" width="0.84" height="28.78"></rect><rect class="cls-6" x="59.78" y="37.07" width="0.58" height="28.78"></rect><rect class="cls-6" x="55.45" y="37.07" width="1.42" height="28.78"></rect><rect class="cls-6" x="63.69" y="37.07" width="0.71" height="28.78"></rect><rect class="cls-6" x="71.98" y="37.07" width="0.98" height="28.78"></rect><rect class="cls-6" x="81.5" y="37.07" width="0.98" height="28.78"></rect><rect class="cls-6" x="65.05" y="37.07" width="0.55" height="28.78"></rect><rect class="cls-6" x="70.68" y="37.07" width="0.43" height="28.78"></rect><rect class="cls-6" x="79.94" y="37.07" width="0.64" height="28.78"></rect><rect class="cls-6" x="57.45" y="37.07" width="1.42" height="28.78"></rect><rect class="cls-6" x="61.44" y="37.07" width="1.54" height="28.78"></rect><rect class="cls-6" x="69.14" y="37.07" width="1.2" height="28.78"></rect><rect class="cls-6" x="66.54" y="37.07" width="1.88" height="28.78"></rect><rect class="cls-6" x="73.76" y="37.07" width="2.64" height="28.78"></rect><rect class="cls-6" x="77.63" y="37.07" width="1.57" height="28.78"></rect><rect class="cls-6" x="83.79" y="37.07" width="2.09" height="28.78"></rect><path class="cls-1" d="M46.33,14.19s.29.25.57,1.47c1,4.14,1.92,9.81,2.34,11,.51,1.45,4.11,8.92,4.11,8.92l-2.93,2.06s-4.28-8.2-4.82-9.59-3.27-8.4-3.27-8.4Z"></path><path class="cls-8" d="M47.56,28.12a37,37,0,0,1-3.05-10l-2.18,1.59s2.72,7,3.27,8.4,4.82,9.59,4.82,9.59l.73-.51C49.94,33.86,49.24,31.18,47.56,28.12Z"></path><path class="cls-1" d="M32.57,18.65c-1,2.36-2.65,8.84-3.22,9.89H43.48c.8-2.94,1.75-6.55,2.09-8.21a30.24,30.24,0,0,0,.75-6.17s-2.11-1.84-3.74-2.94c0,0-1.77,1.67-3.8-1.55,0,0-4.67,1.27-5.68,1.63C32.69,11.45,33.68,16,32.57,18.65Z"></path><path class="cls-8" d="M34.5,15c-.72,1.27-1.59,2.67-2.19,3.82-1,2.43-2.25,8.73-2.81,9.76h6.09c0-.48-.24-1.27-.24-1.81a10.9,10.9,0,0,1,.71-4.42c.56-1.29-.15-5.59-.4-5.89C35.25,15.94,34.87,15.45,34.5,15Z"></path><path class="cls-6" d="M85.88,27.07c-9.59,4.58-7.32,3.83-8.88,4.24s-10.73,1-10.73,1l-1,3.94s11.18-.62,12.71-1S85.9,32.5,85.9,32.5Z"></path><path class="cls-6" d="M70.43,32.55a1.61,1.61,0,0,0,1.51.82,39.44,39.44,0,0,0,4.53-.31A12.14,12.14,0,0,0,79,32.57a31.19,31.19,0,0,0,4.42-1.63,23.79,23.79,0,0,1,2.43-.79V32.5S79.48,34.93,78,35.28s-12.71,1-12.71,1l1-3.9C67.62,32.48,69,32.55,70.43,32.55Z"></path><path class="cls-6" d="M87.19,73.49a8.22,8.22,0,0,1,.42,2.11c0,.92-.07,1.89-.35,2.12-.56.46-7.68.52-8.26-.13s-.19-1.73,1.32-2.09a24.25,24.25,0,0,0,2.86-.62A1.35,1.35,0,0,0,84,73.35Z"></path><path class="cls-6" d="M102.81,72.16A8,8,0,0,1,103.94,74c.33.85.62,1.79.44,2.1-.37.63-7,3.23-7.77,2.82s-.79-1.54.48-2.42a26.54,26.54,0,0,0,2.46-1.59,1.35,1.35,0,0,0,.17-1.71Z"></path><path class="cls-9" d="M87.24,43.24l9.59,1.07S88.25,58,87.61,60.22s.23,14.18.23,14.18H83.5s-.93-14.14-.72-15.21S87.24,43.24,87.24,43.24Z"></path><path class="cls-9" d="M87.61,44H98.55s1.28,3.36.7,5.92a56.28,56.28,0,0,0-.93,9c.06,1,5.4,13.75,5.4,13.75l-4,1.48s-5.5-12.19-6-13.58S87.61,44,87.61,44Z"></path><path class="cls-5" d="M88.07,21.3a10,10,0,0,0,2.64-.2,4.2,4.2,0,0,0,.9-.32c.09,1.1.4,3.67,1.31,4.63,0,0-.12,1.3-2.39,1.62s-2.75-1.37-2.75-1.37A22.84,22.84,0,0,0,88.07,21.3Z"></path><path class="cls-4" d="M92.92,25.45l0,.1h0a.53.53,0,0,1-.06.14h0c0,.05-.06.11-.09.17l0,0a1.69,1.69,0,0,1-.37.41l0,0a1.64,1.64,0,0,1-.29.2l0,0a2.69,2.69,0,0,1-.38.18,3.19,3.19,0,0,0-.87-1.53A4,4,0,0,0,88,24.05a16,16,0,0,0,.08-2.75,10,10,0,0,0,2.64-.2,4.2,4.2,0,0,0,.9-.32c.09,1.1.4,3.67,1.31,4.63v0Z"></path><path class="cls-5" d="M91.76,14.76s-3.81-.94-4.37,0-.38,2.4-.6,3.06-1.12,1.39-1.2,1.65.65.72.76.92.59,2.31,1.26,2.75,4.12-1,4.91-2.66S92.79,15.26,91.76,14.76Z"></path><path class="cls-6" d="M87.78,25.28s2.68,1.33,4.85-.27c0,0,4.13.72,4.64.93s-.69,6-.21,9,2.4,10.12,2.4,10.12S94.4,49,85.71,46.51c0,0-.28-10-.19-12.84.14-4.08.17-6.5.17-6.5A24.66,24.66,0,0,1,87.78,25.28Z"></path><path class="cls-6" d="M94.11,41.54a11.55,11.55,0,0,0,.37-4.68c-.3-1.74,1-4,1.18-5.8s.45-3.18,1.69-4.23c-.08,1.79-.66,5.83-.29,8.12.48,3,2.4,10.12,2.4,10.12a14.47,14.47,0,0,1-8.9,2.23C92.8,45.94,93.48,44.12,94.11,41.54Z"></path><path class="cls-6" d="M90.12,15.3a3.72,3.72,0,0,0,.49,1.92c.24.44-.83,1.69-.49,2.22.23.35.53.24.77-.48a1,1,0,0,1,.58-.55c.9-.44,1.18.95.38,1.4-.57.32-.16,1.77-.16,1.77.65.45,2.67-.22,2.37-1.71-.18-.94-.26-1.3.06-1.55a1.66,1.66,0,0,0,.28-2.59c-1.43-1.3-.2-1.79-1.8-2.11S89.73,14.32,90.12,15.3Z"></path><path class="cls-6" d="M92.89,14.37c-.11-.34-.75-.76-1.07-1a4.54,4.54,0,0,0-1.66-.65,4,4,0,0,0-1.8,0c-.51.12-.93.37-1.46.45A1.7,1.7,0,0,1,85.58,13a3.4,3.4,0,0,0,0,1.19,3.78,3.78,0,0,0,.74,1.28,3.91,3.91,0,0,0,4.35,1,3.1,3.1,0,0,0,1.63-1.24A3.54,3.54,0,0,1,92.89,14.37Z"></path><path class="cls-2" d="M32.36,50.27a4.35,4.35,0,0,1-.94-.32L31,49.77a4.15,4.15,0,0,1-1.48-1A3,3,0,0,1,29,45.63a4.5,4.5,0,0,1,2.49-2.76,4.87,4.87,0,0,1,1.62-.4l.17,0a4,4,0,0,0,1.93-1.1l.1-.08c.24-.2.46-.41.69-.63l.48-.46c2.24-2,5.45-1.65,7.75-1l-.13.45c-2.18-.63-5.22-1-7.3.88L36.3,41c-.22.22-.46.44-.71.66l-.1.08a4.39,4.39,0,0,1-2.17,1.2l-.17,0a4.4,4.4,0,0,0-1.48.36,4,4,0,0,0-2.24,2.48,2.49,2.49,0,0,0,.47,2.73,3.64,3.64,0,0,0,1.32.84l.4.19a5.33,5.33,0,0,0,2.7.35,10.56,10.56,0,0,1,1.68,0,4.67,4.67,0,0,0,3.55-1.1l.08-.07a12.9,12.9,0,0,1,4.6-2.62L44.5,46c1.4-.4,2.32-.66,3.12-1.89a4.06,4.06,0,0,0,.55-3.64,2,2,0,0,0-1.74-1.09l0-.46a2.45,2.45,0,0,1,2.11,1.35A4.58,4.58,0,0,1,48,44.4a5,5,0,0,1-3.38,2.09l-.28.07a12.65,12.65,0,0,0-4.44,2.55l-.08.07A5.07,5.07,0,0,1,36,50.37a9.66,9.66,0,0,0-1.61,0A7.77,7.77,0,0,1,32.36,50.27Z"></path><path class="cls-10" d="M88,37.22,53.68,30.1a5,5,0,0,0-3,.31L44.5,33.1a5,5,0,0,0-2.88,3.55l-.44,2.12a5,5,0,0,0,1.24,4.4L47,48.1a5,5,0,0,0,2.62,1.47L84,56.68a5,5,0,0,0,5.87-3.85l2-9.74A5,5,0,0,0,88,37.22ZM50.84,42.13a3.07,3.07,0,0,1-3.33-5.08,1.72,1.72,0,0,1,.62-.41,3.07,3.07,0,0,1,3.33,5.08A1.72,1.72,0,0,1,50.84,42.13Z"></path><path class="cls-2" d="M56.09,45l2.54-7.94,2,.42a5.49,5.49,0,0,1,.79.22,3,3,0,0,1,.62.33,1.35,1.35,0,0,1,.42.48,1.61,1.61,0,0,1,.15.66,2.12,2.12,0,0,1-.06.49,2.66,2.66,0,0,1-.1.38c-.32,1-.89,1.42-1.71,1.37a1.47,1.47,0,0,1,.91,1.89,2.47,2.47,0,0,1-3.19,2.19Zm2-.78.47.09a1.18,1.18,0,0,0,1-.11,1.61,1.61,0,0,0,.55-.89c0-.11.06-.21.08-.32a1.1,1.1,0,0,0,0-.73,1,1,0,0,0-.81-.49l-.41-.09Zm1.15-3.62.41.09a1.26,1.26,0,0,0,.94-.09,1.62,1.62,0,0,0,.5-.83,1.33,1.33,0,0,0,0-.19.7.7,0,0,0-.1-.64,1.57,1.57,0,0,0-.88-.41l-.24-.05Z"></path><path class="cls-2" d="M61.81,46.17l2.53-7.94,2,.42a6.13,6.13,0,0,1,.89.25,2.33,2.33,0,0,1,.66.36,1.36,1.36,0,0,1,.43.5,1.41,1.41,0,0,1,.15.67,2.2,2.2,0,0,1-.06.5c0,.12-.06.25-.1.38a3.15,3.15,0,0,1-.64,1.18,1.86,1.86,0,0,1-1,.55l0,4.13L65,46.84l.14-3.8-.58-.12-1.15,3.59ZM64.88,42l.41.08a1.19,1.19,0,0,0,.94-.09,1.56,1.56,0,0,0,.55-.84c0-.1,0-.19.07-.28a1,1,0,0,0,0-.63.91.91,0,0,0-.71-.44l-.5-.1Z"></path><path class="cls-2" d="M67.1,47.27l4.14-7.61L73,40l-.94,8.27L70.55,48l.26-1.83-1.3-.27-.87,1.71ZM70,44.92l1,.2.52-3.28Z"></path><path class="cls-2" d="M72.86,48.46l2.53-7.94,1.13.24.5,4.57,1.34-4.19,1.35.28-2.53,7.94-1.08-.23-.44-4.83-1.42,4.45Z"></path><path class="cls-2" d="M78.38,49.61l2.53-7.94,2,.41a4.67,4.67,0,0,1,1.23.4,1.62,1.62,0,0,1,.67.62A1.75,1.75,0,0,1,85,44a3.93,3.93,0,0,1-.08.54,6.18,6.18,0,0,1-.16.61L83.81,48a4.36,4.36,0,0,1-.71,1.42,2,2,0,0,1-1.07.66,3.72,3.72,0,0,1-1.65,0Zm2-.77.35.07a1.59,1.59,0,0,0,.36,0l.28,0a.51.51,0,0,0,.22-.11c.06-.06.12-.11.17-.17a1.17,1.17,0,0,0,.14-.24c.05-.12.09-.21.12-.3s.07-.21.12-.37l1-3.13a3.78,3.78,0,0,0,.13-.47c0-.09,0-.17,0-.24a.53.53,0,0,0-.14-.45,1.3,1.3,0,0,0-.62-.25l-.34-.07Z"></path><path class="cls-2" d="M48.82,41.14a2.19,2.19,0,0,1-.44.2,4.58,4.58,0,0,1-.76,2.81,4.64,4.64,0,0,1-1.55,1.33,7.91,7.91,0,0,1-1.11.43l.28.39a9,9,0,0,0,1-.4,4.65,4.65,0,0,0,2.57-4.76Z"></path><path class="cls-5" d="M63.49,31.83a2.16,2.16,0,0,1,2.43-.38c.57.25.61.87.69,1.79a2.71,2.71,0,0,1-.08,1.4c-.74.54-.76-1.53-.89-2.06,0,0,.29,2.19-.1,2.38-.72.33-.69-1.69-.77-2.2a3.37,3.37,0,0,1,0,1.5c0,.39-.3.32-.38.27-.37-.22-.36-1.88-.36-1.88,0,.3.22,1.38-.25,1.16-.31-.14-.33-.61-.39-.86A1.69,1.69,0,0,1,63.49,31.83Z"></path><path class="cls-5" d="M95,41.45c-.75,0-1.67.12-2.44.12-.35,0-.72-.06-1.07-.08s-.67-.08-.8.16.3.37.47.41.78,0,.83.36-.85.62-1.21.78-1.22.46-.64.78c.39.22,1.21-.28,1.54-.41a5.25,5.25,0,0,0-1.2.5c-.23.13-.67.31-.67.56s.82.15,1,.06a3.55,3.55,0,0,0,.92-.5c-.34.18-1.62.72-1.2,1.16.25.27,1.25-.49,1.64-.65-.21.2-.87.31-.81.73,0,.22.39,0,.57,0s.47-.33.72-.45a3.89,3.89,0,0,0,.54-.36,6.42,6.42,0,0,0,1.25-.82,12.52,12.52,0,0,1,1.08-1.1C94.83,42.38,95.56,41.84,95,41.45Z"></path><path class="cls-6" d="M93.91,41.25,95,43.72s11-3.57,10.49-6.46c-.45-2.54-6.85-11-8.25-11.34-1.87-.41-2.62,4.06-1.55,5.14,2.27,2.28,5.51,5.5,5.25,6S93.91,41.25,93.91,41.25Z"></path><path class="cls-5" d="M35.53,40.72c.09.3.69.8.42,1.16-.13.18-.67-.29-.78-.47a21.83,21.83,0,0,1-1.34-2.91c-.1-.45-.2-.9-.33-1.32a6.15,6.15,0,0,0,1.36-.87c.6.37,1.24.85,1.84,1.19.32.19.68.33,1,.49s.65.27.64.57-.46.17-.64.12-.72-.39-.94-.11.45,1,.69,1.34,1.08,1.27.38,1.26a8.74,8.74,0,0,1-1.17-1.07l.62.76c.13.24.55.74.39,1-.35.45-1.25-.93-1.39-1.11l.34.54c.3.41.47.75.18.84S35.81,41.08,35.53,40.72Z"></path><path class="cls-1" d="M35.72,36.41,33.18,38s-5.6-9.72-5.7-12.52c-.08-2.26.39-5.06,2.58-10,1.4-3.17,2.92-4.44,3.55-4.19.45.18,3,1.31,1.74,5.2-.43,1.36-3.29,7.15-3.34,7.7S35.72,36.41,35.72,36.41Z"></path><path class="cls-5" d="M49.22,37.6a2.11,2.11,0,0,0,2.42.38c.58-.24.62-.87.7-1.78a2.7,2.7,0,0,0-.08-1.4c-.74-.54-.76,1.53-.89,2.05,0,0,.29-2.18-.1-2.37-.72-.33-.69,1.69-.77,2.19a3.33,3.33,0,0,0,0-1.49c0-.4-.3-.32-.38-.28-.37.23-.37,1.88-.37,1.88,0-.29.23-1.37-.24-1.15-.31.14-.33.61-.39.86A1.66,1.66,0,0,0,49.22,37.6Z"></path><path class="cls-6" d="M48,1.33S49.13,2.91,46.58,4s-6.19-1.72-6.19-1.72.09-1.38,2.12-2c1.51-.44,2.93-.38,3.71.5C47.53,2.26,48,1.33,48,1.33Z"></path></g></g></svg>