<svg xmlns="http://www.w3.org/2000/svg" xmlns:xlink="http://www.w3.org/1999/xlink" viewBox="0 0 130.55 84.36"><defs><style>.cls-1{isolation:isolate;}.cls-2{fill:#272c66;}.cls-3{fill:#060d42;}.cls-4{fill:url(#linear-gradient);}.cls-5{fill:#fff;}.cls-6{fill:#fe3da6;}.cls-7{fill:#9c48d1;}.cls-8{fill:#f88667;}.cls-9{fill:#e45940;}.cls-10{fill:#110239;}.cls-11{fill:#cfd7db;}.cls-12{fill:#9c9eb9;}.cls-13{fill:#00bad1;}.cls-14{fill:#00a1cc;opacity:0.65;mix-blend-mode:multiply;}.cls-15{fill:#199fb3;}</style><linearGradient id="linear-gradient" x1="65.67" y1="-14.87" x2="65.67" y2="63.16" gradientUnits="userSpaceOnUse"><stop offset="0" stop-color="#2cc3ec"></stop><stop offset="0.21" stop-color="#38c4ed"></stop><stop offset="0.7" stop-color="#50c6ee"></stop><stop offset="1" stop-color="#59c7ef"></stop></linearGradient></defs><title>Asset 1b1</title><g class="cls-1"><g id="Layer_2" data-name="Layer 2"><g id="Layer_1-2" data-name="Layer 1"><polygon class="cls-2" points="73.88 74.59 57.47 74.59 58.81 54.81 72.53 54.81 73.88 74.59"></polygon><path class="cls-3" d="M60.27,69.68c4.1-1.37,9-2.35,13-4.33l-.72-10.54H58.81L57.74,70.5Z"></path><path class="cls-2" d="M76,71.43a1.07,1.07,0,0,0-.89-.48H56.21a1.08,1.08,0,0,0-.9.48l-2.48,3.7a1.08,1.08,0,0,0,.9,1.67H77.62a1.07,1.07,0,0,0,.89-1.67Z"></path><rect class="cls-2" x="20.87" width="89.61" height="60.07" rx="4.62"></rect><rect class="cls-4" x="24.99" y="3.98" width="81.36" height="51.49"></rect><path class="cls-5" d="M97.15,46.63H37.22V10.05H97.15ZM38.33,45.51H96V11.17H38.33Z"></path><rect class="cls-6" x="82.86" y="19.26" width="5.57" height="23.86"></rect><rect class="cls-5" x="72.53" y="32.15" width="5.57" height="10.97"></rect><rect class="cls-7" x="62.21" y="29.49" width="5.57" height="13.63"></rect><rect class="cls-5" x="51.88" y="21.78" width="5.57" height="21.34"></rect><rect class="cls-5" x="41.55" y="26.46" width="5.57" height="16.66"></rect><polygon class="cls-5" points="98.3 50.37 31.3 50.37 31.3 10.13 31.86 10.13 31.86 49.81 98.3 49.81 98.3 50.37"></polygon><polygon class="cls-5" points="31.58 7.76 30.21 11.1 31.58 10.31 32.94 11.1 31.58 7.76"></polygon><path class="cls-5" d="M100.32,50.09a10,10,0,0,0-2.86,1.6l.57-1.6-.57-1.6A10,10,0,0,0,100.32,50.09Z"></path><polygon class="cls-2" points="75.44 27.89 64.86 25.79 54.66 16.04 44.52 24.99 44.15 24.57 54.67 15.28 65.13 25.27 75.2 27.27 85.42 12.87 85.88 13.2 75.44 27.89"></polygon><path class="cls-6" d="M45.59,24.78a1.26,1.26,0,1,1-1.25-1.26A1.25,1.25,0,0,1,45.59,24.78Z"></path><path class="cls-6" d="M55.85,15.66a1.26,1.26,0,1,1-1.26-1.26A1.26,1.26,0,0,1,55.85,15.66Z"></path><path class="cls-6" d="M66.25,25.52A1.26,1.26,0,1,1,65,24.26,1.25,1.25,0,0,1,66.25,25.52Z"></path><path class="cls-6" d="M76.58,27.3A1.26,1.26,0,1,1,75.32,26,1.26,1.26,0,0,1,76.58,27.3Z"></path><path class="cls-6" d="M86.91,13.28A1.26,1.26,0,1,1,85.65,12,1.26,1.26,0,0,1,86.91,13.28Z"></path><path class="cls-8" d="M100.91,23.52a8.76,8.76,0,0,1-.73-1.88c0-.43.21-.89.23-1.47s.79-1.93.62-2.31-.64-.29-1.1.62-.3,1.49-.67,1.23a9.79,9.79,0,0,1-1.56-1.87c-.29-.47-1.21-1.41-1.46-1.25s-.31.39,1.32,2.69c0,0-1.85-2.76-2.39-2.26-.38.34,1.42,2.37,1.68,2.69,0,0-1.66-2.09-2.16-1.6s1.82,2.2,1.82,2.2S94.8,19,94.57,19.36s.77,1.28,1.75,1.83,1.23.69,1.48,1.06,1.14,1.89,1.14,1.89A2,2,0,0,0,100.91,23.52Z"></path><path class="cls-9" d="M121.38,13.68l-3.48.53s-.2,6.5-3,7c0,0-1,10.66,2.66,9.77s5.61-10.13,5.61-10.13S120,20,121.38,13.68Z"></path><path class="cls-8" d="M121.65,8.83s-3.76-1.55-5.25-.61-1.37,4.18-1.59,5.67c-.35,2.32.65,4.58,1.26,4.81s5.31-1.05,6.05-4.45S122.54,9.41,121.65,8.83Z"></path><path class="cls-10" d="M116.69,77.78s.58,2.9.2,3.63-9,1.26-9.49.75,0-1.45.43-1.66l5.65-2.7Z"></path><path class="cls-10" d="M125.07,77.78h-2.76a13.92,13.92,0,0,0,0,2.84c.18.52,2.79,3.74,4.14,3.74.73,0,1.64,0,1.78-.65a4.14,4.14,0,0,0-.86-2.31C126.39,80,125.07,77.78,125.07,77.78Z"></path><path class="cls-10" d="M121,14.74a7.18,7.18,0,0,1-2.21.8c-.87.07-1.41-1-2.64-.7l-1.38.31s-.65,4.4,1,4.27a10.61,10.61,0,0,0,5.47-3.05,2.18,2.18,0,0,0,1.7-1,9.39,9.39,0,0,0,1-6.08c-.58-1.9-3.15-2.65-4.23-1.76a3.61,3.61,0,0,0-2.39-.6c-1.56.08-1.88.91-2.54,1.41s-1.32.5-1.54.07c0,0-.47.79.38,2.14s1.81,1.15,3.12.85a9.64,9.64,0,0,0,3-1.61s-.07,2.71.61,3.71c0,0,.24.11.34,0s0-1.52.79-1.21S121.65,14.2,121,14.74Z"></path><path class="cls-5" d="M115.83,16a4.16,4.16,0,0,0,2.08.1s-.61.8-1.29.69A.88.88,0,0,1,115.83,16Z"></path><path class="cls-5" d="M122.16,19.89l-3.22,1.74-2.51-1.5a23,23,0,0,0-.91,8.18c.37,4.34,1.07,7.47,4,3.42S123.56,21.3,122.16,19.89Z"></path><path class="cls-11" d="M122.16,19.89l-3.22,1.74-2.51-1.5a23,23,0,0,0-.91,8.18c.37,4.34,1.07,7.47,4,3.42S123.56,21.3,122.16,19.89Z"></path><path class="cls-10" d="M118.33,23.62s-1.73,9.37-1.58,9.55c.09-.12,1.15,2.55,1.75,0,.48-2,.54-9.33.61-9.42s.91-1,1.43-1.45c.35-.32.69-.64,1-1,.08-.16.17-.31.24-.48-.05.12-.1.23-.14.34a6.42,6.42,0,0,1,.68-1.09,1.2,1.2,0,0,0-.17-.21l-3.22,1.74-2.51-1.5s-.07.22-.18.62c.26.36.5.73.71,1.09A21.89,21.89,0,0,0,118.33,23.62Z"></path><path class="cls-10" d="M111.72,37.33l9.89-.19s1.51,2.47,1.84,9.59c.23,4.87.43,6.22.92,12.66.33,4.37,1.88,19.14,1.88,19.14H121s-2.22-17.14-2.34-18.18l-1.34-12.12s.21,10.8.21,11.87.23,17.89.23,17.89h-5.53s-.63-14-.68-17.67C111.46,54.39,111,39.24,111.72,37.33Z"></path><path class="cls-12" d="M116.43,20.13s-3.48.67-4.83,1.12c0,0,.43,8-.91,10.06l-.62,17.51s7.63-.09,7.87-9.59.23-9.91.23-9.91Z"></path><path class="cls-10" d="M117.51,30.41a.3.3,0,0,1-.59,0,.3.3,0,1,1,.59,0Z"></path><path class="cls-10" d="M117.32,33.29a.28.28,0,0,1-.3.28.28.28,0,0,1-.28-.29.29.29,0,1,1,.58,0Z"></path><path class="cls-10" d="M117.14,36.16a.3.3,0,1,1-.59,0,.3.3,0,0,1,.3-.29A.31.31,0,0,1,117.14,36.16Z"></path><path class="cls-10" d="M117,39a.28.28,0,0,1-.3.28A.29.29,0,1,1,117,39Z"></path><path class="cls-12" d="M126.91,22.11l-4.75-2.22-4,9.43-.85,11s.1,9.68,8.37,8.49L125,31.05S125,24.55,126.91,22.11Z"></path><path class="cls-12" d="M100.91,22.11l-3.26,1.3s4.46,16.11,7,14.7,6-6.44,6-6.44a12,12,0,0,0,1.33-4,15.48,15.48,0,0,0-.4-6.41,13.06,13.06,0,0,0-4.16,5.16c-1.9,3.79-2.48,4.88-2.65,4.64S100.91,22.11,100.91,22.11Z"></path><polygon class="cls-5" points="118.94 21.39 116.7 19.68 116.16 20.18 117.02 23.25 118.94 21.82 120.66 23.43 122.33 19.96 121.49 19.09 118.94 21.39"></polygon><path class="cls-8" d="M125.44,46.86c-.33.4-1.44,1.72-1.26,2.31s1.1-.47,1.44-.83.38.85.29,1.5-1.41,1.73-1.28,2.18.9-.18,1.72-1.39c0,0-1.3,1.49-1,1.7s1-.55,1.62-1.43c0,0-1.26,1.41-1,1.58s1.18-.82,1.51-1.32c0,0-1.07,1.16-.78,1.35s1-.55,1.32-1.47-.6-3.93-.55-4.5a9.06,9.06,0,0,1,.22-1.29l-1.85-.41A3.64,3.64,0,0,1,125.44,46.86Z"></path><path class="cls-12" d="M125.42,45.87l2.56.67s3-9.79,2.52-12.12S129,23.33,126.94,22.11A4.15,4.15,0,0,0,124.21,26a13.79,13.79,0,0,0,.65,4.07,18.35,18.35,0,0,1,1.81,5.24C126.85,37.13,125.42,45.87,125.42,45.87Z"></path><path class="cls-8" d="M33.57,26.66a3,3,0,0,0,1.36-.7,1.77,1.77,0,0,1,.55-.47,3.26,3.26,0,0,0,.67-.47,1.57,1.57,0,0,1,.71-.4c.34,0,.16.37,0,.61s-1.09.64-1,1S37,26,37.17,25.92c.51-.25.54-.68.85-1.1.18-.24.33-.3.44,0s-.09.5-.21.7a3,3,0,0,1-1.06,1.08,3.62,3.62,0,0,0,1.09-.9c.17-.21.75-1.22,1.1-1,.71.49-1.23,2.28-1.69,2.42a4.35,4.35,0,0,0,1.16-.84c.21-.19.69-.65.77-.16.12.74-1.32,1.28-1.92,1.63a5.18,5.18,0,0,0,1.24-.55c.53-.27.55.22,0,.6a8,8,0,0,1-.78.44,4.63,4.63,0,0,1-2.94.42c-.42-.05-1.23.31-1.48,0C33.3,28.23,33.56,27.26,33.57,26.66Z"></path><path class="cls-13" d="M33.88,26.51l.85,2.82s-10,2.58-12.42,3-7.77-5.73-7.77-5.73-1.82-4.41-.46-4.36c1.05.05,8.7,5.89,9.13,6.11S33.88,26.51,33.88,26.51Z"></path><path class="cls-8" d="M7.71,76.94A10.48,10.48,0,0,0,8,79.75c.32.9,2.63,2.27,2.63,2.27s-2.09.41-2.89-.21S5,78,5.13,77.52s.7-1.72.7-1.72Z"></path><path class="cls-8" d="M20.14,75.77a10.48,10.48,0,0,0,.25,2.81c.33.9,2.63,2.27,2.63,2.27s-2.08.4-2.89-.21-2.7-3.86-2.57-4.29.7-1.72.7-1.72Z"></path><path class="cls-10" d="M5.6,76.94s-1.75.59-1.31,2.12a13.11,13.11,0,0,1,.36,3.5h.51s.11-2.19.44-2.12,1.06,2.12,1.79,2.12h4.12s.44-.44,0-.69S8.28,81.72,8,81.1,5.6,76.94,5.6,76.94Z"></path><path class="cls-10" d="M18.13,75.72s-1.75.59-1.31,2.12a13.11,13.11,0,0,1,.36,3.5h.51s.11-2.19.44-2.12,1.06,2.12,1.79,2.12H24s.44-.44,0-.69-3.23-.15-3.55-.77S18.13,75.72,18.13,75.72Z"></path><path class="cls-10" d="M17,37.65s-4.9,1.72-8.46,0A8.46,8.46,0,0,0,6,43.15a20.21,20.21,0,0,0,.15,4.14A57.83,57.83,0,0,1,6.64,58C6.09,62.9,4.58,77,4.58,77L8,77.52s3.11-17,3.47-19.11S13,47.78,13,47.78s2.11,6.59,2.65,9.79c.08.49,1.59,18.56,1.59,18.56l3.27,0s-.18-20.07-.18-19C20.31,57.52,19.42,43.56,17,37.65Z"></path><path class="cls-14" d="M15.27,50.42a15.28,15.28,0,0,0-2.7-5.35c.15.92.3,1.83.4,2.75v0s1.8,5.64,2.5,9C15.41,53.16,15.81,52.07,15.27,50.42Z"></path><path class="cls-9" d="M13.5,17.61c-.34-.07-2-3.5-2.66-4.17-.33,2.34-1.75,7.9-1.75,7.9,1.72,1.84,5.15.71,5.15.71A11.46,11.46,0,0,1,13.5,17.61Z"></path><path class="cls-8" d="M12.82,9.45s3.33.75,4,1.72.64,3.5,1,4.17c.22.4.41.73.51,1s-.14.33-.43.43a.49.49,0,0,0-.31.32c-.2.61-.75,2.18-1.3,2.39a4.53,4.53,0,0,1-5.1-2.79C10.13,13.7,10.68,8.81,12.82,9.45Z"></path><path class="cls-13" d="M9.6,20.18a41.79,41.79,0,0,0,4.58,1.74s2.69,5.31,2.87,6.79S18.62,40.3,18.62,40.3s-5.33,3.39-13,.71c0,0,1.85-8,1.43-11.11S6.94,22.51,9.6,20.18Z"></path><path class="cls-15" d="M8.67,41.79c-.09-3.38.68-6.45.75-9.84.06-2.73-1.07-4.29-2.44-6A16,16,0,0,0,7,29.9C7.42,33,5.57,41,5.57,41A19,19,0,0,0,8.67,41.79Z"></path><path class="cls-10" d="M5.57,29.54c1.88-1.56,1.11-3.13,3-4.61L9,24.61c.1-.81-1.87-.39-1.33-1.21.76-1.16,3.95-2.9,3.88-4a1.89,1.89,0,0,1,.08-1.05c.16-.87.53-1-.15-1.67-.48-.44-.88-.92-.5-1.59s.8-.71,1.23-.19c.11.13.67,1.26.81.62,0-.17-.19-.52-.22-.72a.78.78,0,0,1,.23-.71c.34-.36.83-.55,1.18-.91s.49-1,1.12-1.29a1.63,1.63,0,0,1,1,0c.15,0,.78.46.88.42,1.08-.42.6-2.09-.14-2.6A8.08,8.08,0,0,0,12.47,8.1c-2,0-3.74,1.55-4.87,3-.82,1.06-.77,2.18-1.36,3.32s-1.7,1.56-2.4,2.5A3.58,3.58,0,0,0,3.43,20a5.65,5.65,0,0,1,.29,2.37c-.16,1-1,1.8-1.27,2.79A4.49,4.49,0,0,0,2.4,28C2.9,29.85,4,30.35,5.57,29.54Z"></path><path class="cls-8" d="M2.67,46.37A2.86,2.86,0,0,0,3,47.79a1.59,1.59,0,0,1,.32.6,3,3,0,0,0,.29.73,1.42,1.42,0,0,1,.21.75c0,.32-.37.07-.56-.13s-.36-1.16-.68-1.2-.08,1.11,0,1.33c.12.53.51.66.83,1s.21.38-.13.41-.44-.19-.6-.35a2.92,2.92,0,0,1-.77-1.22A3.35,3.35,0,0,0,2.52,51c.15.2,1,1,.67,1.24-.61.54-1.85-1.64-1.88-2.1a4.17,4.17,0,0,0,.53,1.25c.12.24.45.79,0,.75C1.1,52,.92,50.59.72,50A4.45,4.45,0,0,0,1,51.22c.13.56-.33.47-.56-.08a7.63,7.63,0,0,1-.25-.83,4.4,4.4,0,0,1,.26-2.82c.13-.38,0-1.21.28-1.38C1.27,45.78,2.12,46.22,2.67,46.37Z"></path><path class="cls-13" d="M3.07,46.4,0,46.57s0-9.09.78-12.18,6.64-11.39,8-12c1.59-.75,6.33,1.27,2.86,4s-6.77,9.12-6.9,9.38S3.07,46.4,3.07,46.4Z"></path></g></g></g></svg>