<svg xmlns="http://www.w3.org/2000/svg" xmlns:xlink="http://www.w3.org/1999/xlink" viewBox="0 0 96.44 89.99"><defs><style>.cls-1{isolation:isolate;}.cls-2{fill:#fe3da6;}.cls-3{fill:#fff;}.cls-4{fill:#110239;}.cls-5{fill:#272c66;}.cls-6{fill:url(#linear-gradient);}.cls-7{fill:#cbcbcb;}.cls-8{fill:#00a1cc;opacity:0.65;}.cls-15,.cls-8{mix-blend-mode:multiply;}.cls-9{fill:#00bad1;}.cls-10{fill:#d3e9ff;}.cls-11{fill:#ffd451;}.cls-12{fill:#6cd3fe;}.cls-13{fill:#f88667;}.cls-14{fill:#e45940;}.cls-15{fill:#ca0045;opacity:0.32;}</style><linearGradient id="linear-gradient" x1="54.37" y1="34.31" x2="54.37" y2="85.86" gradientUnits="userSpaceOnUse"><stop offset="0" stop-color="#36c"></stop><stop offset="0.06" stop-color="#3869ce"></stop><stop offset="0.44" stop-color="#5578d9"></stop><stop offset="0.76" stop-color="#6781e0"></stop><stop offset="1" stop-color="#6d84e2"></stop></linearGradient></defs><title>Asset 3b1</title><g class="cls-1"><g id="Layer_2" data-name="Layer 2"><g id="Layer_1-2" data-name="Layer 1"><circle class="cls-2" cx="67.27" cy="29.27" r="16.6"></circle><circle class="cls-3" cx="67.27" cy="29.27" r="12.58" transform="translate(-1 56.14) rotate(-45)"></circle><circle class="cls-2" cx="67.27" cy="29.27" r="8.99"></circle><path class="cls-3" d="M73.45,29.27a6.18,6.18,0,1,1-6.18-6.18A6.19,6.19,0,0,1,73.45,29.27Z"></path><circle class="cls-2" cx="67.27" cy="29.27" r="2.85"></circle><path class="cls-2" d="M88.54,18.31c-.26-.29-1-1.29-2.75.26s-3.61,3.59-3.61,3.59,2.8-.73,4.88-1.45S88.74,18.64,88.54,18.31Z"></path><path class="cls-4" d="M86.11,19l-2.88,1.1a14.86,14.86,0,0,0-2.5,1.23L67.27,29.45l13.55-5.57A15.75,15.75,0,0,0,85,21.31L86.56,20A2.68,2.68,0,0,1,86.11,19Z"></path><path class="cls-2" d="M81.78,22.16s.39-4.27,2.71-6.06,1.83,3.45,1.83,3.45Z"></path><path class="cls-2" d="M81.78,22.13s3.88,1.8,6.6.68-2.07-3.31-2.07-3.31Z"></path><rect class="cls-5" x="15.98" y="36.04" width="80.46" height="53.95" rx="1.87"></rect><rect class="cls-6" x="19.68" y="39.61" width="69.37" height="46.24"></rect><path class="cls-3" d="M93.94,63a1.46,1.46,0,1,1-1.46-1.45A1.46,1.46,0,0,1,93.94,63Z"></path><path class="cls-7" d="M73.76,45.88H70.92v32.2h2.84a2.29,2.29,0,0,0,2.34-2.23V48.1A2.28,2.28,0,0,0,73.76,45.88Z"></path><path class="cls-8" d="M76.1,54V48.1a2.28,2.28,0,0,0-2.34-2.22H70.92V54Z"></path><rect class="cls-3" x="31.99" y="45.78" width="41.88" height="33.91" rx="2.34"></rect><path class="cls-9" d="M73.76,45.78H34.33A2.34,2.34,0,0,0,32,48.12v5.77H73.87V49.77a2.64,2.64,0,0,1,0-.29,1.12,1.12,0,0,1,2.19,0,2.64,2.64,0,0,1,0,.29V48.1A2.37,2.37,0,0,0,73.76,45.78Z"></path><rect class="cls-10" x="31.99" y="53.14" width="41.88" height="0.75"></rect><rect class="cls-10" x="34.87" y="55.85" width="4.49" height="3.4"></rect><rect class="cls-10" x="41.2" y="55.85" width="4.49" height="3.4"></rect><rect class="cls-10" x="47.52" y="55.85" width="4.49" height="3.4"></rect><rect class="cls-10" x="53.85" y="55.85" width="4.49" height="3.4"></rect><rect class="cls-10" x="60.18" y="55.85" width="4.49" height="3.4"></rect><rect class="cls-10" x="66.5" y="55.85" width="4.49" height="3.4"></rect><rect class="cls-10" x="34.87" y="61.66" width="4.49" height="3.4"></rect><rect class="cls-10" x="41.2" y="61.66" width="4.49" height="3.4"></rect><rect class="cls-10" x="47.52" y="61.66" width="4.49" height="3.4"></rect><rect class="cls-10" x="53.85" y="61.66" width="4.49" height="3.4"></rect><rect class="cls-10" x="60.18" y="61.66" width="4.49" height="3.4"></rect><rect class="cls-10" x="66.5" y="61.66" width="4.49" height="3.4"></rect><rect class="cls-10" x="34.87" y="67.46" width="4.49" height="3.4"></rect><rect class="cls-10" x="41.2" y="67.46" width="4.49" height="3.4"></rect><rect class="cls-10" x="47.52" y="67.46" width="4.49" height="3.4"></rect><rect class="cls-10" x="53.85" y="67.46" width="4.49" height="3.4"></rect><rect class="cls-10" x="60.18" y="67.46" width="4.49" height="3.4"></rect><rect class="cls-10" x="66.5" y="67.46" width="4.49" height="3.4"></rect><rect class="cls-10" x="34.87" y="73.27" width="4.49" height="3.4"></rect><rect class="cls-10" x="41.2" y="73.27" width="4.49" height="3.4"></rect><rect class="cls-10" x="47.52" y="73.27" width="4.49" height="3.4"></rect><rect class="cls-10" x="53.85" y="73.27" width="4.49" height="3.4"></rect><polygon class="cls-11" points="37.11 56.15 37.46 57.22 38.59 57.22 37.68 57.88 38.02 58.95 37.11 58.29 36.2 58.95 36.55 57.88 35.64 57.22 36.77 57.22 37.11 56.15"></polygon><polygon class="cls-11" points="37.11 62.02 37.46 63.09 38.59 63.09 37.68 63.75 38.02 64.82 37.11 64.16 36.2 64.82 36.55 63.75 35.64 63.09 36.77 63.09 37.11 62.02"></polygon><polygon class="cls-11" points="43.44 56.15 43.79 57.22 44.91 57.22 44 57.88 44.35 58.95 43.44 58.29 42.53 58.95 42.88 57.88 41.97 57.22 43.09 57.22 43.44 56.15"></polygon><polygon class="cls-11" points="49.77 56.15 50.11 57.22 51.24 57.22 50.33 57.88 50.68 58.95 49.77 58.29 48.86 58.95 49.2 57.88 48.3 57.22 49.42 57.22 49.77 56.15"></polygon><polygon class="cls-11" points="49.77 61.96 50.11 63.02 51.24 63.02 50.33 63.69 50.68 64.75 49.77 64.09 48.86 64.75 49.2 63.69 48.3 63.02 49.42 63.02 49.77 61.96"></polygon><polygon class="cls-11" points="56.09 56.15 56.44 57.22 57.56 57.22 56.65 57.88 57 58.95 56.09 58.29 55.18 58.95 55.53 57.88 54.62 57.22 55.74 57.22 56.09 56.15"></polygon><polygon class="cls-11" points="56.09 61.96 56.44 63.02 57.56 63.02 56.65 63.69 57 64.75 56.09 64.09 55.18 64.75 55.53 63.69 54.62 63.02 55.74 63.02 56.09 61.96"></polygon><polygon class="cls-11" points="62.42 56.15 62.77 57.22 63.89 57.22 62.98 57.88 63.33 58.95 62.42 58.29 61.51 58.95 61.86 57.88 60.95 57.22 62.07 57.22 62.42 56.15"></polygon><polygon class="cls-11" points="43.44 67.83 43.79 68.9 44.91 68.9 44 69.56 44.35 70.63 43.44 69.97 42.53 70.63 42.88 69.56 41.97 68.9 43.09 68.9 43.44 67.83"></polygon><polygon class="cls-11" points="43.44 73.57 43.79 74.64 44.91 74.64 44 75.3 44.35 76.37 43.44 75.71 42.53 76.37 42.88 75.3 41.97 74.64 43.09 74.64 43.44 73.57"></polygon><polygon class="cls-11" points="56.09 67.76 56.44 68.83 57.56 68.83 56.65 69.49 57 70.56 56.09 69.9 55.18 70.56 55.53 69.49 54.62 68.83 55.74 68.83 56.09 67.76"></polygon><polygon class="cls-11" points="62.42 67.76 62.77 68.83 63.89 68.83 62.98 69.49 63.33 70.56 62.42 69.9 61.51 70.56 61.86 69.49 60.95 68.83 62.07 68.83 62.42 67.76"></polygon><circle class="cls-2" cx="76.1" cy="58.95" r="9.98" transform="translate(-19.39 71.07) rotate(-45)"></circle><path class="cls-3" d="M83.33,59a7.23,7.23,0,1,1-7.23-7.23A7.23,7.23,0,0,1,83.33,59Z"></path><path class="cls-12" d="M75.51,58.9c-.17,0-1.6-4.13-2.09-4-.68.23-2.54,1.13-2.59,1.91s3.76,7.45,4.39,7.45c1.34,0,7-7.41,6.5-8.25s-2.57-2-2.89-1.68S75.65,58.9,75.51,58.9Z"></path><path class="cls-9" d="M30.7,13.36s-2.21,8-3.3,9.28-4.64,3.22-4.64,3.22l.94,1.67s6.46-3.29,7.58-6a20,20,0,0,0,1.3-4.13c.18-1,.91-3.45.55-4.43A1.4,1.4,0,0,0,30.7,13.36Z"></path><path class="cls-8" d="M30.7,13.36s-2.21,8-3.3,9.28-4.64,3.22-4.64,3.22l.94,1.67s6.46-3.29,7.58-6a20,20,0,0,0,1.3-4.13c.18-1,.91-3.45.55-4.43A1.4,1.4,0,0,0,30.7,13.36Z"></path><path class="cls-4" d="M8.54,51.42,6.91,49.9S.4,49.42,0,50,6.2,53.66,7,53.6,8.43,52.05,8.54,51.42Z"></path><path class="cls-13" d="M20.49,29.38s-6.16-1.57-6.67-.56S6.91,49.9,6.91,49.9l1.63,1.52s6.86-16.93,8.85-18.7S21.41,30.08,20.49,29.38Z"></path><path class="cls-14" d="M20.49,29.38s-6.16-1.57-6.67-.56S6.91,49.9,6.91,49.9l1.63,1.52s6.86-16.93,8.85-18.7S21.41,30.08,20.49,29.38Z"></path><path class="cls-13" d="M23.67,25.68a5.27,5.27,0,0,1-1.28-.51,1.71,1.71,0,0,0-1.09-.31c-.29,0-2.66,1-2,1.47.2.14.71-.11.92-.18s.58-.25.86-.37c-.26,0-1.54.53-1.4.83.23.52,1.53-.18,1.83-.35-.23,0-1,.34-1,.63,0,.46,1,.08,1.16,0a1.37,1.37,0,0,1,.44-.21,1.65,1.65,0,0,1,.58.1,3.41,3.41,0,0,0,1,0c.19,0,.65,0,.75-.15a.69.69,0,0,0-.13-.71A1.46,1.46,0,0,0,23.67,25.68Z"></path><path class="cls-14" d="M23.67,25.68a5.27,5.27,0,0,1-1.28-.51,1.71,1.71,0,0,0-1.09-.31c-.29,0-2.66,1-2,1.47.2.14.71-.11.92-.18s.58-.25.86-.37c-.26,0-1.54.53-1.4.83.23.52,1.53-.18,1.83-.35-.23,0-1,.34-1,.63,0,.46,1,.08,1.16,0a1.37,1.37,0,0,1,.44-.21,1.65,1.65,0,0,1,.58.1,3.41,3.41,0,0,0,1,0c.19,0,.65,0,.75-.15a.69.69,0,0,0-.13-.71A1.46,1.46,0,0,0,23.67,25.68Z"></path><polygon class="cls-4" points="12.99 15.03 11.54 15.63 16.52 27.64 17.99 26.85 12.99 15.03"></polygon><rect class="cls-4" x="17.46" y="26.64" width="9.48" height="1.47"></rect><path class="cls-4" d="M43.7,19.79c-1.27-.72-1.48-1.53-.78-4.18A5.56,5.56,0,0,0,40,9.48c-1.3-.53-2.44-.77-3.23-2.15S37.5,3,35,.8C33.17-.79,30.56.48,30.56.48c-.56-.31-.8,3-.84,5.44C32.89,10.77,32,17.1,30.83,22.53a1.89,1.89,0,0,1-.11.36c.25,4.2.45,7.68.45,7.68s7.61,4.31,12.79.62S46.24,21.24,43.7,19.79Z"></path><path class="cls-4" d="M21.31,50.43l-1.93,1.11S17,57.63,17.44,58.16s5.32-4.83,5.51-5.65S21.88,50.72,21.31,50.43Z"></path><path class="cls-13" d="M23.78,29s-12.43.87-13.59,2,9.39,20.42,9.39,20.42l1.73-1S18.7,41.25,18,39.12s-2-4.69-1.74-5S29,35.64,29,32.11,23.78,29,23.78,29Z"></path><path class="cls-13" d="M29.9,8.06s1.31,3.56.51,6.2l4.35-1s-1.78-5.94-2.54-7S29.9,8.06,29.9,8.06Z"></path><path class="cls-14" d="M31.71,11.25A2.18,2.18,0,0,1,34,13.41l.81-.2s-1.78-5.94-2.54-7S29.9,8.06,29.9,8.06a14.34,14.34,0,0,1,.73,3.45A2.3,2.3,0,0,1,31.71,11.25Z"></path><path class="cls-13" d="M29.45,3.43a6.59,6.59,0,0,0-2.09,1.49c-.41.68-.05,1.62-.09,2.25a10.31,10.31,0,0,0-.11,1.7c.1.15.72,0,.82.13s.91.64,1.16,1.21.59.62,1.18.34,2.84-3.27,2.87-4.66S31.13,2.86,29.45,3.43Z"></path><path class="cls-4" d="M30.88,1.54A11.73,11.73,0,0,0,30,3.74a5.22,5.22,0,0,0,.87,2.72c.36.25.06-2.07,1-1.36s-.06,2,0,2.31a1.67,1.67,0,0,0,1.38,1.23c.93.08,2.45-4.52,1.44-5.66A5.2,5.2,0,0,0,30.88,1.54Z"></path><path class="cls-4" d="M31,.61a2.51,2.51,0,0,0-3,.14c-1.55,1.25-1.49,3.13-2.77,3,0,0,.84,2.18,2.69,1.66S31.68,1.92,31,.61Z"></path><path class="cls-2" d="M36.1,25.2l-5.76-.44s-3,3.35-6,3.35H14.25a19.37,19.37,0,0,0,3,8s9.62.3,14.31-.09S40.69,30.44,36.1,25.2Z"></path><path class="cls-15" d="M36.64,25.87c-.17-.22-.34-.45-.54-.67l-5.76-.44S27.42,28,24.5,28.1C28,28.46,34.77,29.24,36.64,25.87Z"></path><path class="cls-15" d="M16.93,28.79c1.47-.15,2.89-.5,4.34-.68H14.91C15.54,28.43,15.85,28.89,16.93,28.79Z"></path><path class="cls-9" d="M34.21,11.2a23.91,23.91,0,0,1-3.54,1.14s-1.87,4.11-2.59,5.22,1.84,5.37,2,7.2c0,0,1.54,1.47,6.21.57C36.27,25.33,37.49,13.79,34.21,11.2Z"></path><path class="cls-8" d="M34.91,13.66a2.24,2.24,0,0,0-2.61.82c-.48,1,0,2.79,0,3.87a21.87,21.87,0,0,1-.42,3.78,8,8,0,0,1-1.52,2.81c.59.37,2.33,1.09,6,.39,0,0,.74-7-.5-11.35C35.44,13.86,35.13,13.76,34.91,13.66Z"></path><path class="cls-13" d="M24.57,25.68a5.61,5.61,0,0,1-1.28-.51,1.68,1.68,0,0,0-1.09-.31c-.29,0-2.66,1-2,1.47.21.14.72-.11.92-.18s.59-.25.87-.37c-.26,0-1.54.53-1.41.83.24.52,1.54-.18,1.84-.35-.23,0-1,.34-1,.63,0,.46.95.08,1.16,0a1.32,1.32,0,0,1,.43-.21,1.61,1.61,0,0,1,.58.1,3.42,3.42,0,0,0,1,0c.2,0,.66,0,.76-.15a.73.73,0,0,0-.13-.71A1.5,1.5,0,0,0,24.57,25.68Z"></path><path class="cls-9" d="M24.17,25.62l.51,1.91s12.47-1.45,12.76-3.66-.51-12.51-3.51-11.44,0,8.54-.51,9.12S24.17,25.62,24.17,25.62Z"></path></g></g></g></svg>