<svg xmlns="http://www.w3.org/2000/svg" xmlns:xlink="http://www.w3.org/1999/xlink" viewBox="0 0 93.12 83.01"><defs><style>.cls-1{isolation:isolate;}.cls-2{fill:#272c66;}.cls-3{fill:#060d42;}.cls-4{fill:url(#linear-gradient);}.cls-5{fill:#fff;}.cls-6{fill:#fe3da6;}.cls-7{fill:#d3e9ff;}.cls-8{fill:#01d9e0;}.cls-9{fill:#110239;}.cls-10{fill:#ca0045;opacity:0.32;mix-blend-mode:multiply;}.cls-11{fill:#f88667;}.cls-12{fill:#e45940;}.cls-13{fill:#6cd3fe;}.cls-14{fill:#259dfe;}.cls-15{fill:#ffd451;}.cls-16{fill:#262c66;}.cls-17{fill:#fefced;}</style><linearGradient id="linear-gradient" x1="46.56" y1="0.37" x2="46.56" y2="57.6" gradientUnits="userSpaceOnUse"><stop offset="0" stop-color="#36c"></stop><stop offset="0.06" stop-color="#3869ce"></stop><stop offset="0.44" stop-color="#5578d9"></stop><stop offset="0.76" stop-color="#6781e0"></stop><stop offset="1" stop-color="#6d84e2"></stop></linearGradient></defs><title>Asset 6a6</title><g class="cls-1"><g id="Layer_2" data-name="Layer 2"><g id="Layer_1-2" data-name="Layer 1"><polygon class="cls-2" points="55.09 77.52 38.03 77.52 39.43 56.96 53.69 56.96 55.09 77.52"></polygon><path class="cls-3" d="M41,72.41c4.26-1.42,9.3-2.44,13.48-4.5L53.69,57H39.43l-1.11,16.3Z"></path><path class="cls-2" d="M57.32,74.22a1.12,1.12,0,0,0-.92-.49H36.72a1.12,1.12,0,0,0-.92.49l-2.58,3.85a1.11,1.11,0,0,0,.93,1.73H59a1.11,1.11,0,0,0,.93-1.73Z"></path><rect class="cls-2" width="93.12" height="62.42" rx="4.8"></rect><rect class="cls-4" x="4.29" y="4.14" width="84.55" height="53.5"></rect><rect class="cls-5" x="14.19" y="9.94" width="64.73" height="47.7"></rect><rect class="cls-6" x="14.19" y="9.94" width="64.73" height="5.61"></rect><rect class="cls-7" x="19.78" y="20.6" width="33.33" height="3.38"></rect><rect class="cls-7" x="19.78" y="27.1" width="33.33" height="3.38"></rect><rect class="cls-7" x="19.78" y="41.33" width="33.33" height="3.38"></rect><rect class="cls-7" x="19.78" y="47.83" width="33.33" height="3.38"></rect><rect class="cls-7" x="58.85" y="18.68" width="14.12" height="14.12"></rect><path class="cls-8" d="M65.61,26.39c-.16,0-2.25-4.84-2.71-4.69-.65.22-1.61.49-1.65,1.23s3.59,7.12,4.19,7.12c1.28,0,6.64-7.07,6.2-7.88s-1.81-1.36-2.11-1.05S65.75,26.39,65.61,26.39Z"></path><rect class="cls-7" x="58.85" y="39.02" width="14.12" height="14.12"></rect><path class="cls-8" d="M65.61,46.73c-.16,0-2.25-4.84-2.71-4.68-.65.21-1.61.49-1.65,1.23s3.59,7.11,4.19,7.11c1.28,0,6.64-7.07,6.2-7.87s-1.81-1.36-2.11-1.06S65.75,46.73,65.61,46.73Z"></path><path class="cls-9" d="M7.91,77s-1.4,2.75-1.08,3.32S13,83.33,13.7,83s.73-1.36-.39-2.17-2-.74-2.71-1.4,0-1.9,0-1.9Z"></path><path class="cls-9" d="M27.59,78s-.07,3,.44,3.4,6.85.37,7.36-.22.18-1.42-1.11-1.68-2,0-2.91-.35-1.22-2.06-1.22-2.06Z"></path><path class="cls-6" d="M22.46,45.87l-8.27.51S21.14,62,22,63.76s5.2,14.67,5.2,14.67l3.36-1.25s-3.82-13.42-4.29-14.59S22.46,45.87,22.46,45.87Z"></path><path class="cls-10" d="M19.66,52c.27-1.38.46-3.18.76-4.56.12-.54.88-.57.94-1.11A1.52,1.52,0,0,1,21,46l-6.84.42S21.14,62,22,63.76a8.31,8.31,0,0,1,.35.83c0-.3,0-.6,0-.9C22.13,61.29,19.35,53.54,19.66,52Z"></path><path class="cls-6" d="M20.13,46.57H13.07a10.65,10.65,0,0,0-.82,5.59,98.74,98.74,0,0,1,.48,10.72c-.05.77-4.73,11.38-5.27,14.28l3.25,1.16s6.42-13.12,6.63-13.43S20.13,46.57,20.13,46.57Z"></path><path class="cls-11" d="M22.11,43.42s1.4,2,2.37,1.87,6.87-4.23,6.87-4.23l-.55-1.32s-5.39,3.68-5.94,3.53-1.24-1.63-1.24-1.63Z"></path><path class="cls-12" d="M22.11,43.42s1.4,2,2.37,1.87,6.87-4.23,6.87-4.23l-.55-1.32s-5.39,3.68-5.94,3.53-1.24-1.63-1.24-1.63Z"></path><path class="cls-13" d="M11.23,49s7.09,1.6,12.52-.36c0,0-1.21-5-1.64-7.82s-1-7.19-2.6-8.28a7.56,7.56,0,0,0-2.68-1.25,2,2,0,0,1-1.28,1.28c-1,.23-3-1.28-3-1.28s-4.5,2.07-5,2.91c-1,1.72,3.15,6.48,3.77,9A15,15,0,0,1,11.23,49Z"></path><path class="cls-14" d="M14.8,42.5c-.33-1.15-.29-3.73-1.66-5-.79-.75-1.75-1.92-2.92-2.12-1.42-.25-1.51,0-2.77-.25.26,2.13,3.38,5.9,3.91,8a15,15,0,0,1-.13,5.8,30.65,30.65,0,0,0,6.22.61A30.22,30.22,0,0,1,14.8,42.5Z"></path><path class="cls-11" d="M11.71,28s1.59,2.83.81,3.68c0,0,2.14,1.94,3.81,1.13s.7-1.55.7-1.55-1.17-.51-1.75-3S11.71,28,11.71,28Z"></path><path class="cls-12" d="M13.39,32.34a4,4,0,0,1,1.08-1.16,3.81,3.81,0,0,1,1.8-.59,6,6,0,0,1-1-2.26c-.58-2.45-3.57-.31-3.57-.31s1.59,2.83.81,3.68A6.36,6.36,0,0,0,13.39,32.34Z"></path><ellipse class="cls-9" cx="9" cy="22.41" rx="1.82" ry="1.8"></ellipse><path class="cls-11" d="M14.51,22.27A2.24,2.24,0,0,1,16,23.65c.27,1,.13.6.37.74s1.45,1,1.35,1.2a3.62,3.62,0,0,1-.87.62s.27.47.62,1.11-1.92,1.43-2.71,1.14S11.94,26.91,11.86,25,12.65,21.71,14.51,22.27Z"></path><path class="cls-9" d="M9.7,22.27s1.47-.7,2.16-1a3.76,3.76,0,0,1,2.5-.54,1.81,1.81,0,0,1,1.39,2.46s-.72-1-1.42-.77-.54,1.26-.93,1.8.36,2.47.78,2.94c0,0,2.69.21,3-.24,0,0,.24.37.59,1s.93,1.61.1,2a6.06,6.06,0,0,1-3.57-.23c-.22-.21-.91-2-1.69-1.74s-.57.72-.57.72-.48.32-1.58-.61a2.91,2.91,0,0,1-1-3.08A14.94,14.94,0,0,0,9.7,22.27Z"></path><path class="cls-11" d="M13.24,27a5.66,5.66,0,0,0-.87-1.2c-.44-.4-1.13.07-.95.93S13.51,27.45,13.24,27Z"></path><rect class="cls-15" x="3.45" y="35.28" width="47.02" height="6.75" transform="translate(-8.79 7.95) rotate(-14.45)"></rect><rect class="cls-16" x="3.45" y="38.26" width="47.02" height="0.78" transform="translate(-8.79 7.95) rotate(-14.45)"></rect><rect class="cls-16" x="2.96" y="36.36" width="47.02" height="0.78" transform="translate(-8.33 7.77) rotate(-14.45)"></rect><rect class="cls-16" x="3.97" y="40.27" width="47.02" height="0.78" transform="translate(-9.28 8.14) rotate(-14.45)"></rect><polygon class="cls-17" points="50.57 36.05 48.89 29.52 56.55 30.92 50.57 36.05"></polygon><polygon class="cls-8" points="52.4 30.16 53.31 33.69 56.55 30.92 52.4 30.16"></polygon><path class="cls-11" d="M12.29,39.39s2,4.15,2.45,4.19,7.78-.54,8.31-.85a6.8,6.8,0,0,0,.82-.69c.12-.1.25-.21.38-.3a4.53,4.53,0,0,0,.48-.27c.11-.09.51-.69.74-.63s.16.18.13.32-.29.37-.42.5-.28.29-.24.41.41-.12.49-.17a1.22,1.22,0,0,0,.34-.3,4.4,4.4,0,0,0,.31-.41l.18-.26c.09-.15.18-.28.26-.43s.17-.24.31-.17,0,.36-.06.48-.12.24-.18.37-.18.23-.13.33a1.81,1.81,0,0,0,.41-.46c.07-.1.45-.72.62-.6s0,.6-.18.77a1.67,1.67,0,0,1-.28.31c-.05,0-.25.26-.22.26.26,0,.45-.42.61-.61s.42-.44.46-.11a.53.53,0,0,1-.13.35,1.9,1.9,0,0,1-.41.44,1.54,1.54,0,0,0-.26.3c.19,0,.57-.5.75-.37s0,.32-.08.39a6,6,0,0,1-1.7,1.15,20.46,20.46,0,0,1-2,.91c-1,.38-9,2.91-10,2.79S10.54,42,9.81,40.52,12.29,39.39,12.29,39.39Z"></path><path class="cls-13" d="M9.53,41.64a15,15,0,0,0,4-2.28s-3.3-7.42-5.65-5.56S9.53,41.64,9.53,41.64Z"></path><path class="cls-12" d="M11.9,26.11a.68.68,0,0,1,.73.28c.27.39.06.95-.21.7s-.14-.42-.17-.6A.58.58,0,0,0,11.9,26.11Z"></path><path class="cls-11" d="M31.12,40.82c.13-.08.3,0,.52.2-.29-.36-.63-.73-.29-.78s.55.46.79.61c-.13-.17-.88-.7-.59-1.09.18-.23,1,.68,1.15.86-.16-.14-.84-.86-.48-1s.79.48,1,.68.41.26.45.49c.07.46-.59.77-.93.86a1.81,1.81,0,0,1-1.36-.22C31.17,41.28,31,40.9,31.12,40.82Z"></path></g></g></g></svg>