<svg xmlns="http://www.w3.org/2000/svg" xmlns:xlink="http://www.w3.org/1999/xlink" viewBox="0 0 120.24 79.33"><defs><style>.cls-1{isolation:isolate;}.cls-2{fill:#110239;}.cls-3{fill:#272c66;}.cls-4{fill:url(#linear-gradient);}.cls-5{fill:#fff;}.cls-6{fill:#9c9eb9;}.cls-7{fill:#d0d1de;}.cls-8{fill:#fe3da6;}.cls-9{fill:#5b52c7;}.cls-10{fill:#7c4e69;opacity:0.55;mix-blend-mode:multiply;}.cls-11{fill:#f88667;}.cls-12{fill:#9c48d1;}.cls-13{fill:#ffd451;}.cls-14{fill:#e45940;}.cls-15{fill:#6d008d;}</style><linearGradient id="linear-gradient" x1="49.74" y1="-0.02" x2="49.74" y2="52.74" gradientUnits="userSpaceOnUse"><stop offset="0" stop-color="#2cc3ec"></stop><stop offset="0.21" stop-color="#38c4ed"></stop><stop offset="0.7" stop-color="#50c6ee"></stop><stop offset="1" stop-color="#59c7ef"></stop></linearGradient></defs><title>Asset 4b1</title><g class="cls-1"><g id="Layer_2" data-name="Layer 2"><g id="Layer_1-2" data-name="Layer 1"><rect class="cls-2" x="14.75" y="48.78" width="69.98" height="10.28"></rect><rect class="cls-3" x="8.12" width="83.26" height="55.81" rx="4.29"></rect><rect class="cls-4" x="11.95" y="3.7" width="75.59" height="47.84"></rect><rect class="cls-5" x="19.99" y="21.52" width="24.64" height="24.56"></rect><path class="cls-2" d="M0,70.71v1.53c0,.84.92,1.53,2.05,1.53H97.43c1.14,0,2.06-.69,2.06-1.53V70.71Z"></path><path class="cls-3" d="M49.74,58.94H8.91c-.14.15-6.56,5.89-8.52,10.16-.84,1.83-.29,2.79,1.27,2.79H97.83c1.56,0,2.1-1,1.27-2.79-2-4.27-8.38-10-8.52-10.16Z"></path><polygon class="cls-6" points="94.32 69.7 7.31 69.7 13.34 60.78 88.29 60.78 94.32 69.7"></polygon><path class="cls-7" d="M93.26,68.14l-.19-.28h-5.8l-1.08-2.17h5.42l-.19-.28H86.05L85,63.25h5L89.77,63H84.83l-1.1-2.19h-.5L84.31,63H78.09l-.87-2.19h-.5L77.57,63H71.36l-.65-2.19h-.5L70.84,63H64.62l-.42-2.19h-.51L64.1,63H57.89l-.21-2.19h-.5L57.37,63h-5.9V60.78h-.55V63H44.8L45,60.78h-.5L44.28,63H38.07l.41-2.19H38L37.55,63H31.33L32,60.78h-.5L30.81,63H24.6l.85-2.19H25L24.08,63H17.86l1.08-2.19h-.5L17.34,63H11.86l-.19.28H17.2l-1.08,2.16H10.21l-.19.28h6L14.9,67.86H8.56l-.19.28h6.39L14,69.7h.57l.77-1.56H22L21.4,69.7H22l.61-1.56h6.7l-.46,1.56h.57l.45-1.56h6.7l-.3,1.56h.57l.29-1.56h6.7l-.14,1.56h.57l.13-1.56h6.56V69.7h.55V68.14h6.34l.13,1.56h.57l-.14-1.56h6.7l.29,1.56h.57l-.3-1.56h6.7l.45,1.56h.57l-.46-1.56h6.7l.61,1.56h.57l-.62-1.56h6.7l.77,1.56h.57l-.78-1.56ZM24.49,63.25h6.24l-.64,2.16H23.64Zm-6.76,0H24l-.86,2.16H16.66Zm4.4,4.61H15.46l1.06-2.17H23Zm7.24,0H22.69l.85-2.17H30Zm7.23,0H29.92l.63-2.17H37Zm.47-2.45H30.63l.62-2.16h6.24Zm6.76,2.45H37.15l.41-2.17H44Zm.23-2.45H37.61l.4-2.16h6.25Zm6.86,2.45H44.39l.18-2.17h6.35Zm0-2.45H44.59l.19-2.16h6.14Zm.55-2.16h5.92l.19,2.16H51.47Zm0,4.61V65.69H57.6l.19,2.17Zm33-4.61,1.07,2.16H79.06l-.86-2.16Zm-6.76,0,.85,2.16H72.08l-.64-2.16Zm-19.77,0h6.25l.4,2.16H58.12Zm.43,4.61-.2-2.17h6.47L65,67.86Zm6.34-4.61h6.24l.62,2.16H65.1Zm.89,4.61-.42-2.17h6.47l.63,2.17Zm7.23,0-.64-2.17h6.47l.85,2.17Zm7.24,0-.87-2.17h6.48l1.06,2.17Z"></path><path class="cls-2" d="M49.74,71.89H45.52a.85.85,0,0,0,.21.58.45.45,0,0,0,.32.12h7.39a.45.45,0,0,0,.32-.12.85.85,0,0,0,.21-.58Z"></path><polygon class="cls-8" points="16.13 11.49 8.69 11.49 11.57 3.7 18.48 3.7 16.13 11.49"></polygon><polygon class="cls-9" points="23.56 11.49 16.13 11.49 18.48 3.7 25.4 3.7 23.56 11.49"></polygon><polygon class="cls-8" points="31 11.49 23.56 11.49 25.4 3.7 32.31 3.7 31 11.49"></polygon><polygon class="cls-9" points="38.44 11.49 31 11.49 32.31 3.7 39.22 3.7 38.44 11.49"></polygon><polygon class="cls-8" points="45.87 11.49 38.44 11.49 39.22 3.7 46.13 3.7 45.87 11.49"></polygon><polygon class="cls-9" points="53.3 11.49 45.87 11.49 46.13 3.7 53.04 3.7 53.3 11.49"></polygon><polygon class="cls-8" points="60.74 11.49 53.3 11.49 53.04 3.7 59.95 3.7 60.74 11.49"></polygon><polygon class="cls-9" points="68.17 11.49 60.74 11.49 59.95 3.7 66.87 3.7 68.17 11.49"></polygon><polygon class="cls-8" points="75.61 11.49 68.17 11.49 66.87 3.7 73.78 3.7 75.61 11.49"></polygon><polygon class="cls-9" points="83.05 11.49 75.61 11.49 73.78 3.7 80.69 3.7 83.05 11.49"></polygon><polygon class="cls-8" points="90.48 11.49 83.05 11.49 80.69 3.7 87.6 3.7 90.48 11.49"></polygon><path class="cls-8" d="M12.45,18.05h-.08c-2,0-3.68-1.37-3.68-3.05V11.49h7.44V15C16.13,16.68,14.48,18.05,12.45,18.05Z"></path><path class="cls-9" d="M19.88,18.05h-.07c-2,0-3.68-1.37-3.68-3.05V11.49h7.43V15C23.56,16.68,21.92,18.05,19.88,18.05Z"></path><path class="cls-8" d="M27.32,18.05h-.08c-2,0-3.68-1.37-3.68-3.05V11.49H31V15C31,16.68,29.35,18.05,27.32,18.05Z"></path><path class="cls-9" d="M34.75,18.05h-.07c-2,0-3.68-1.37-3.68-3.05V11.49h7.43V15C38.43,16.68,36.79,18.05,34.75,18.05Z"></path><path class="cls-8" d="M42.19,18.05h-.08c-2,0-3.68-1.37-3.68-3.05V11.49h7.44V15C45.87,16.68,44.22,18.05,42.19,18.05Z"></path><path class="cls-9" d="M49.62,18.05h-.07c-2,0-3.68-1.37-3.68-3.05V11.49H53.3V15C53.3,16.68,51.66,18.05,49.62,18.05Z"></path><path class="cls-8" d="M57.06,18.05H57c-2,0-3.69-1.37-3.69-3.05V11.49h7.44V15C60.74,16.68,59.09,18.05,57.06,18.05Z"></path><path class="cls-9" d="M64.49,18.05h-.07c-2,0-3.68-1.37-3.68-3.05V11.49h7.43V15C68.17,16.68,66.53,18.05,64.49,18.05Z"></path><path class="cls-8" d="M71.93,18.05h-.07c-2,0-3.69-1.37-3.69-3.05V11.49h7.44V15C75.61,16.68,74,18.05,71.93,18.05Z"></path><path class="cls-9" d="M79.36,18.05h-.07c-2,0-3.68-1.37-3.68-3.05V11.49H83V15C83,16.68,81.4,18.05,79.36,18.05Z"></path><path class="cls-8" d="M86.8,18.05h-.07c-2,0-3.69-1.37-3.69-3.05V11.49h7.44V15C90.48,16.68,88.83,18.05,86.8,18.05Z"></path><path class="cls-10" d="M83,11.49H8.69V15c0,1.68,1.65,3.05,3.68,3.05h.08c2,0,3.68-1.37,3.68-3.05,0,1.68,1.65,3.05,3.68,3.05h.07c2,0,3.68-1.37,3.68-3.05,0,1.68,1.65,3.05,3.68,3.05h.08c2,0,3.68-1.37,3.68-3.05,0,1.68,1.65,3.05,3.68,3.05h.07c2,0,3.68-1.37,3.68-3.05,0,1.68,1.65,3.05,3.68,3.05h.08c2,0,3.68-1.37,3.68-3.05,0,1.68,1.65,3.05,3.68,3.05h.07c2,0,3.68-1.37,3.68-3.05,0,1.68,1.65,3.05,3.69,3.05h.07c2,0,3.68-1.37,3.68-3.05,0,1.68,1.65,3.05,3.68,3.05h.07c2,0,3.68-1.37,3.68-3.05,0,1.68,1.65,3.05,3.69,3.05h.07c2,0,3.68-1.37,3.68-3.05,0,1.68,1.65,3.05,3.68,3.05h.07c2,0,3.68-1.37,3.68-3.05,0,1.68,1.65,3.05,3.69,3.05h.07c2,0,3.68-1.37,3.68-3.05V11.49Z"></path><rect class="cls-8" x="53.04" y="37.8" width="28.76" height="9.13" rx="3.27"></rect><path class="cls-5" d="M64.54,41.24a1,1,0,0,1-.76,1,1.1,1.1,0,0,1,.91,1.12c0,.77-.67,1.24-1.71,1.24h-2.2V40.11h2.11C63.9,40.11,64.54,40.55,64.54,41.24Zm-1.19.2c0-.27-.19-.43-.52-.42h-.89v.86h.89C63.16,41.88,63.35,41.72,63.35,41.44Zm.14,1.74c0-.28-.25-.46-.66-.45h-.89v.93h.89C63.24,43.66,63.49,43.48,63.49,43.18Z"></path><path class="cls-5" d="M67.31,43.62a.84.84,0,0,0,.87-.92V40.11h1.16V42.7a1.84,1.84,0,0,1-2,1.91,1.85,1.85,0,0,1-2.06-1.91V40.11h1.16V42.7A.86.86,0,0,0,67.31,43.62Z"></path><path class="cls-5" d="M72.46,43.14v1.42H71.3V43.17l-1.64-3.06h1.16L71.88,42l1-1.91h1.16Z"></path><path class="cls-8" d="M34,33.06l1.5-4.51,1.85,1.32L38.77,28l-3-2.82h-2.2a1.31,1.31,0,0,1-2.6,0H28.8L25.85,28l1.38,1.9,1.85-1.32,1.49,4.51a12.34,12.34,0,0,0-2.21,3.5c-.58,1.68-1.69,7.26-1.69,7.26H37.94s-1.1-5.58-1.68-7.26A12.52,12.52,0,0,0,34,33.06Z"></path><rect class="cls-9" x="55.5" y="21.42" width="26.31" height="3.72"></rect><rect class="cls-5" x="55.5" y="27.62" width="22.17" height="1.64"></rect><rect class="cls-5" x="55.5" y="30.36" width="22.17" height="1.64"></rect><rect class="cls-5" x="55.5" y="33.11" width="17.73" height="1.64"></rect><path class="cls-2" d="M96.72,20.18c.37-2.76,1.15-4.66.81-7a5.39,5.39,0,0,0-1.26-.83s-3-1.44-5.25.19c-1.94,1.4-1.66,3.35-2.23,5.38a10.43,10.43,0,0,1-3.4,5.28,5.12,5.12,0,0,0-2,4.41,6.15,6.15,0,0,0,2.26,5c1.84,1.35,4.35,1.38,6.53,1.24a4.9,4.9,0,0,0,3.23-1.58,10.78,10.78,0,0,0,1.76-2.47l.11-.22C97,26.44,96.32,23.18,96.72,20.18Z"></path><path class="cls-11" d="M107.85,43.24A3.28,3.28,0,0,1,109.48,42c-.29-.17-.7-.45-.55-.58s.84.23,1.09.21.57-.08.4-.28a1.13,1.13,0,0,0-.57-.25,2.74,2.74,0,0,1-.61-.21,1.59,1.59,0,0,0-.54-.13,2.09,2.09,0,0,1-1-.52c-.4.26-1.14.55-1.26,1.08-.06.27.53.61.68.89A4.23,4.23,0,0,0,107.85,43.24Z"></path><path class="cls-12" d="M107.89,40l-1.6,2s-5.52-4.73-6.94-6.84-3.24-10-2.88-11.15c.22-.74,1.25-.59,2.21-.26a3,3,0,0,1,1,.71,7.39,7.39,0,0,1,1.16,3.1,44.61,44.61,0,0,0,1.52,5.89C102.4,33.61,107.89,40,107.89,40Z"></path><path class="cls-11" d="M102.46,76.63a9.65,9.65,0,0,1-.23-2.56s.14-16.33.15-17c0,0-.84-12.43-3-17.74,0,0-4.47,1.58-7.71,0a7.7,7.7,0,0,0-2.28,5,18,18,0,0,0,.13,3.78,51.55,51.55,0,0,1,.43,9.81c-.45,4-.69,13.73-.73,15.57h0s-.3.9-.42,1.28a10,10,0,0,0,2.13,3.89c.73.57,2.63.2,2.63.2s-2.1-1.25-2.4-2.07a7.43,7.43,0,0,1-.23-2.18h0s3-14.45,3.39-16.36,1.41-9.7,1.41-9.7,1.92,6,2.42,8.93L100.51,73s-.18,1.34-.29,1.72a9,9,0,0,0,2,3.75c.73.57,2.63.2,2.63.2S102.76,77.45,102.46,76.63Z"></path><path class="cls-11" d="M102.38,57Z"></path><path class="cls-13" d="M86.82,59.85c6.45,1.29,16.33.59,17.51.3a54.89,54.89,0,0,0-2.6-16c-.59-1.77-1.85-3.57-2.39-4.88,0,0-4.47,1.58-7.71,0a9.62,9.62,0,0,0-2.71,4.76C88.63,45.06,87.71,47.8,86.82,59.85Z"></path><path class="cls-13" d="M102.38,57Z"></path><path class="cls-2" d="M89,74.21s-1.6.53-1.2,1.93a12,12,0,0,1,.33,3.19h.47s.1-2,.4-1.93,1,1.93,1.63,1.93h3.76s.4-.4,0-.63-3-.14-3.24-.7S89,74.21,89,74.21Z"></path><path class="cls-2" d="M100.4,74s-1.6.54-1.2,1.93a12.11,12.11,0,0,1,.33,3.2H100s.1-2,.4-1.93,1,1.93,1.63,1.93h3.76s.4-.4,0-.64-3-.13-3.24-.69S100.4,74,100.4,74Z"></path><path class="cls-11" d="M92.69,18.55S94,24,93.2,24.41c0,0,2.91,6,4.2,5.75s.61-5.43.61-5.43a2.35,2.35,0,0,1-1-.57c-.24-.22-.78-.59-.85-1a19.37,19.37,0,0,1-.31-2.69Z"></path><path class="cls-14" d="M95,27.63a3.37,3.37,0,0,1-.72-2.28,2.85,2.85,0,0,1,1.8-2.41,22.46,22.46,0,0,1-.26-2.43l-3.26-2.09s1.43,5.55.61,6c0,0,2.91,6,4.2,5.75.33-.07.53-.48.65-1A3.19,3.19,0,0,1,95,27.63Z"></path><path class="cls-12" d="M98.68,23.69l-2.57-.75s1.38,4.7.56,4.66-3.23-4.51-3.23-4.51a15.73,15.73,0,0,0-4.21,1.24s.69,3.7.43,4.19c0,0,.85,2.39,1.41,3.5s.63,7.31.63,7.31a9.92,9.92,0,0,0,4.44,1.14c2.46,0,3.2-1,3.2-1s0-7.09.31-7.69,1.74-2.92.49-5.14C99.48,25.43,98.68,23.69,98.68,23.69Z"></path><path class="cls-15" d="M92.5,33.9c-.86-1.59-.73-3.45-1.17-5.3A12.85,12.85,0,0,0,89.55,25a14.27,14.27,0,0,1,.11,3.54s.85,2.39,1.41,3.5.63,7.31.63,7.31a10,10,0,0,0,3.46,1.08A7.1,7.1,0,0,1,92.5,33.9Z"></path><path class="cls-15" d="M91.91,29.75a8.57,8.57,0,0,0,2.6.95c2.14,0,2.54-1.42,2.54-1.42s1.12,1.34,2.11,1.25a1.18,1.18,0,0,0,1.15-.77s-.08,2.07-1.81,2.26a2,2,0,0,1-1.34-.22,1.53,1.53,0,0,0-1.47,0,2.93,2.93,0,0,1-1.07.27A2.44,2.44,0,0,1,91.91,29.75Z"></path><path class="cls-11" d="M94.61,13.94s2-.8,3,.48.56,2.3.76,2.93.11,3.79-.71,4.21A3.84,3.84,0,0,1,94,20.63c-.88-.87-1.12-.51-1.75-1.45C90.7,16.8,93,13.73,94.61,13.94Z"></path><path class="cls-2" d="M94.77,13.14s1.08,2.69,3.69,2.47C98.46,15.61,98.63,11.3,94.77,13.14Z"></path><path class="cls-2" d="M95.83,13.05s2,2.39-1,3.28c-.88.26-1.17,2.07-1.24,2.28a.37.37,0,0,1-.21-.17c-.18-.39-.66-.85-1.16-.34s.24,1.39.69,1.45a.91.91,0,0,1,.31.26,3.55,3.55,0,0,0-.5,1.08,2.1,2.1,0,0,1-.93-.64C90.56,18.91,90.86,12.12,95.83,13.05Z"></path><path class="cls-14" d="M92.47,18.1a.66.66,0,0,1,.61.47c.14.43-.21.9-.4.59s0-.43,0-.61A.55.55,0,0,0,92.47,18.1Z"></path><path class="cls-2" d="M84.59,50.29c0-.2.06-.4.1-.6.49-2,1.91-3.45,3.18-3.15s1.92,2.2,1.44,4.24a4.39,4.39,0,0,1-.18.58l.42.1a5.5,5.5,0,0,0,.16-.58c.57-2.4-.18-4.63-1.68-5s-3.17,1.31-3.74,3.71c-.05.2-.08.39-.11.59Z"></path><polygon class="cls-8" points="90.18 64.49 77.77 61.55 81.84 49.04 92.15 51.48 90.18 64.49"></polygon><path class="cls-2" d="M108.23,47.09a4.82,4.82,0,0,1-.22-.57c-.61-2-.1-3.94,1.15-4.32s2.77.92,3.38,2.93a4.25,4.25,0,0,1,.15.59l.4-.13c0-.19-.09-.39-.15-.59-.72-2.35-2.5-3.9-4-3.44s-2.07,2.73-1.35,5.09l.21.57Z"></path><polygon class="cls-2" points="120.24 56.5 108.05 60.26 105.22 47.41 115.35 44.29 120.24 56.5"></polygon><path class="cls-11" d="M87.41,43.54a1.94,1.94,0,0,1,.18.36,1.72,1.72,0,0,0,.43.79,3.32,3.32,0,0,1,.88,1.25c.06.25.28,1.78-.43,1.66-.09,0-.28-.14-.28-.19s0-.63,0-.63a3.49,3.49,0,0,1,0,.44.71.71,0,0,1-.06.25.39.39,0,0,1-.48,0c-.09-.1,0-.24,0-.37h0c0,.13,0,.36-.36.35s-.22-.2-.24-.36a1,1,0,0,1,0-.17c0,.06,0,.3,0,.35s-.57,0-.64-.23,0-.63,0-.71a6,6,0,0,1-.23-1.45,8.36,8.36,0,0,1,0-1.15A2,2,0,0,0,87.41,43.54Z"></path><path class="cls-12" d="M88.11,44l-2.48.54s-1.35-7.15-1.14-9.68S88.22,25,89.21,24.36c1.18-.81,3.82,2.44,1.39,5a11.28,11.28,0,0,0-2.73,6C87.8,35.61,88.11,44,88.11,44Z"></path><path class="cls-11" d="M110.15,42.7a2.16,2.16,0,0,1-1.84.92c-.46,0-.63-.44-.74-.77a1.58,1.58,0,0,1-.07-.91c.49-.6.71.71.86,1,0,0-.44-1.31-.17-1.56.51-.48.71.83.83,1.14a1.76,1.76,0,0,1-.21-1,.26.26,0,0,1,.26-.31c.31,0,.51,1.09.51,1.09,0-.19-.34-.82.06-.85s.34.28.42.43A.92.92,0,0,1,110.15,42.7Z"></path></g></g></g></svg>