<svg xmlns="http://www.w3.org/2000/svg" xmlns:xlink="http://www.w3.org/1999/xlink" viewBox="0 0 85.88 71.39"><defs><style>.cls-1{isolation:isolate;}.cls-2{fill:#272c66;}.cls-3{fill:url(#linear-gradient);}.cls-4{fill:#fefefe;}.cls-5{fill:#d0d1de;}.cls-6{fill:#110239;}.cls-7{fill:#b1b3c8;}.cls-10,.cls-7{opacity:0.32;mix-blend-mode:multiply;}.cls-8{fill:#e45940;}.cls-9{fill:#00bad1;}.cls-10{fill:#00547a;}.cls-11{fill:#f88667;}</style><linearGradient id="linear-gradient" x1="4.06" y1="32.26" x2="51.14" y2="32.26" gradientTransform="translate(52.74 -1.96) rotate(76.85)" gradientUnits="userSpaceOnUse"><stop offset="0" stop-color="#36c"></stop><stop offset="0.06" stop-color="#3869ce"></stop><stop offset="0.44" stop-color="#5578d9"></stop><stop offset="0.76" stop-color="#6781e0"></stop><stop offset="1" stop-color="#6d84e2"></stop></linearGradient></defs><title>Asset 1a7</title><g class="cls-1"><g id="Layer_2" data-name="Layer 2"><g id="Layer_1-2" data-name="Layer 1"><circle class="cls-2" cx="27.6" cy="32.26" r="27.6"></circle><circle class="cls-3" cx="27.6" cy="32.26" r="23.54" transform="translate(-10.09 51.8) rotate(-76.85)"></circle><rect class="cls-4" x="27.16" y="13.04" width="0.93" height="19.81" rx="0.46"></rect><path class="cls-4" d="M28,32.64h0a.46.46,0,0,1-.63.18l-11.2-6a.46.46,0,0,1-.18-.62h0a.46.46,0,0,1,.62-.19l11.2,6A.45.45,0,0,1,28,32.64Z"></path><rect class="cls-5" x="35.63" y="33.23" width="50.25" height="31.1"></rect><polygon class="cls-6" points="60.76 50.16 85.88 34.61 85.88 33.23 35.63 33.23 35.63 34.61 60.76 50.16"></polygon><polygon class="cls-5" points="60.76 48.78 35.63 33.23 85.88 33.23 60.76 48.78"></polygon><polygon class="cls-7" points="35.63 64.33 79.63 64.33 79.63 39.49 79.63 38.11 79.63 38.11 35.63 38.11 35.63 64.33"></polygon><rect class="cls-5" x="26.95" y="40.28" width="50.25" height="31.1"></rect><polygon class="cls-6" points="52.07 57.21 77.2 41.66 77.2 40.28 26.95 40.28 26.95 41.66 52.07 57.21"></polygon><polygon class="cls-5" points="52.07 55.84 26.95 40.28 77.2 40.28 52.07 55.84"></polygon><path class="cls-8" d="M63.14,5.92l1.8-.13,1.8-.12s.87,4.87,1.85,5.39c0,0,1.56,5.71-2.85,6-5.35.38-3.67-5.57-3.67-5.57C63,10.86,63.14,5.92,63.14,5.92Z"></path><path class="cls-9" d="M73.69,33.25l2-10.59c-.27-4.78-.92-9.5-.92-9.5a23.16,23.16,0,0,0-6.13-2.1l0,0a5.52,5.52,0,0,1-6.44.46l0,0a23.15,23.15,0,0,0-6.11,3,24.72,24.72,0,0,0,.29,6,55.35,55.35,0,0,0,2,8.12l1.55,4.62Z"></path><path class="cls-10" d="M73.69,33.25l2-10.59c0-1-.06-2,0-2.9-2.76,4.16-6,8.22-11.25,6.9-3.23-.82-5.42-4.78-7.77-6.82l-.52-.43c.08.41.16.85.24,1.3a51.5,51.5,0,0,0,2,7.94l1.54,4.6Z"></path><path class="cls-11" d="M60.33,7.08c.45-.6,1.11.23,1.11.23s-1-3.19-.32-4.67,3.44-.92,3.44-.92,2.62-.94,3.54.43.33,4.67.33,4.67.54-.92,1.08-.38-.68,2.08-1,2.27c0,0-1.67,3.73-3.22,3.84S61.6,9.2,61.6,9.2C61.29,9.05,59.87,7.69,60.33,7.08Z"></path><path class="cls-6" d="M65.32,3s2.05.21,2.35,1.28a4.26,4.26,0,0,1,0,1.63,11.51,11.51,0,0,0-.05,1.8.3.3,0,0,0,.26-.07,3.65,3.65,0,0,0,.63-.87c.34-.59.9-.53,1.08-.19,0,0,.08-5.36-2.16-5.39S65.32,3,65.32,3Z"></path><path class="cls-6" d="M64,3.05s-2,.5-2.15,1.6a4.2,4.2,0,0,0,.23,1.61A9.68,9.68,0,0,1,62.38,8a.3.3,0,0,1-.26,0,3.65,3.65,0,0,1-.74-.78c-.43-.53-1-.4-1.1,0,0,0-.83-5.3,1.39-5.64S64,3.05,64,3.05Z"></path><path class="cls-11" d="M70,42.41c-.16.3-.92.72-.7,1.17.11.22.8-.18,1-.35a23.71,23.71,0,0,0,2.07-2.89c.21-.48.41-.94.64-1.37a6.59,6.59,0,0,1-1.3-1.23c-.74.27-1.53.66-2.26.91-.39.13-.81.21-1.2.32s-.77.16-.82.48.47.29.68.27.86-.27,1,.08c.26.52-.7,1-1,1.32s-1.43,1.15-.67,1.29a9.49,9.49,0,0,0,1.5-.92l-.83.7c-.2.23-.76.69-.63,1,.29.56,1.55-.75,1.74-.92l-.48.51c-.4.4-.67.73-.36.89S69.6,42.73,70,42.41Z"></path><path class="cls-9" d="M70.17,38,72.69,40s8.78-9.4,8.14-13.11c-1.06-6.09-4.17-13-6-13.63-.77-.25-1.64,2.86-.62,7.26,0,0,1.8,6.48,1.69,7.15S70.17,38,70.17,38Z"></path><path class="cls-11" d="M60.65,47.57c.14.31.85.79.6,1.22-.13.21-.78-.24-.92-.42a25.24,25.24,0,0,1-1.82-3.06c-.17-.49-.33-1-.52-1.41a7,7,0,0,0,1.39-1.12c.72.33,1.47.78,2.18,1.09.37.17.78.28,1.17.42s.75.22.78.55-.5.25-.7.21-.84-.35-1.05,0c-.3.49.62,1.06.93,1.4s1.33,1.27.56,1.34a9.65,9.65,0,0,1-1.42-1s.74.72.77.77c.18.24.71.75.55,1-.34.54-1.49-.88-1.66-1.07l.43.56c.38.42.61.78.3.91S61,47.92,60.65,47.57Z"></path><path class="cls-9" d="M60.49,43.23l-2.38,1.59S49.87,34.67,50.69,31c1.34-6,3.62-15.26,5.46-16.67.64-.49,2.69,3.38,2.54,5.8,0,0-3,12.05-3,12.73S60.49,43.23,60.49,43.23Z"></path><path class="cls-6" d="M68.22,1.79A1.53,1.53,0,0,0,67.33.47a5,5,0,0,0-4.25,0c-1.47.73-1.91.9-2.34.65s-.16-.48-.16-.48-1,0-.91,1.48,1.88,3.34,4.27,3.34C67.6,5.46,68.78,2.9,68.22,1.79Z"></path></g></g></g></svg>