<svg xmlns="http://www.w3.org/2000/svg" xmlns:xlink="http://www.w3.org/1999/xlink" viewBox="0 0 1156.09 1092.77"><defs><style>.cls-1{isolation:isolate;}.cls-2{fill:url(#linear-gradient);}.cls-11,.cls-15,.cls-3,.cls-40,.cls-41,.cls-44,.cls-49,.cls-53,.cls-57,.cls-61,.cls-62,.cls-66,.cls-70,.cls-78{mix-blend-mode:color-dodge;}.cls-3{fill:url(#radial-gradient);}.cls-4{opacity:0.6;mix-blend-mode:screen;fill:url(#radial-gradient-2);}.cls-5{fill:url(#linear-gradient-2);}.cls-6{fill:url(#linear-gradient-3);}.cls-7{fill:url(#linear-gradient-4);}.cls-8{fill:url(#linear-gradient-5);}.cls-9{fill:url(#linear-gradient-6);}.cls-10{fill:url(#linear-gradient-7);}.cls-11{fill:url(#radial-gradient-3);}.cls-12{fill:#bcbec0;}.cls-12,.cls-13,.cls-18,.cls-39{mix-blend-mode:multiply;}.cls-13{opacity:0.5;fill:url(#linear-gradient-8);}.cls-14{fill:url(#linear-gradient-9);}.cls-16{fill:url(#radial-gradient-4);}.cls-17{fill:url(#radial-gradient-5);}.cls-18{fill:url(#linear-gradient-10);}.cls-19{fill:url(#radial-gradient-6);}.cls-20{fill:url(#linear-gradient-11);}.cls-21{fill:url(#radial-gradient-7);}.cls-22{fill:url(#linear-gradient-12);}.cls-23{fill:url(#linear-gradient-13);}.cls-24{fill:url(#linear-gradient-14);}.cls-25{fill:url(#linear-gradient-15);}.cls-26{fill:url(#linear-gradient-16);}.cls-27{fill:url(#linear-gradient-17);}.cls-28{fill:url(#linear-gradient-18);}.cls-29{fill:url(#linear-gradient-19);}.cls-30{fill:url(#linear-gradient-20);}.cls-31{fill:url(#radial-gradient-8);}.cls-32{fill:url(#linear-gradient-21);}.cls-33{fill:url(#radial-gradient-9);}.cls-34{fill:url(#linear-gradient-22);}.cls-35{fill:url(#linear-gradient-23);}.cls-36{fill:url(#linear-gradient-24);}.cls-37{fill:url(#linear-gradient-25);}.cls-38{fill:url(#linear-gradient-26);}.cls-39{fill:url(#linear-gradient-27);}.cls-40{fill:url(#radial-gradient-10);}.cls-41{fill:url(#radial-gradient-11);}.cls-42{fill:url(#linear-gradient-28);}.cls-43{fill:url(#linear-gradient-29);}.cls-44{fill:url(#radial-gradient-12);}.cls-45{fill:#fff;}.cls-46{fill:url(#linear-gradient-30);}.cls-47{fill:url(#linear-gradient-31);}.cls-48{fill:url(#linear-gradient-32);}.cls-49{fill:url(#radial-gradient-13);}.cls-50{fill:url(#linear-gradient-33);}.cls-51{fill:url(#linear-gradient-34);}.cls-52{fill:url(#linear-gradient-35);}.cls-53{fill:url(#radial-gradient-14);}.cls-54{fill:url(#linear-gradient-36);}.cls-55{fill:url(#linear-gradient-37);}.cls-56{fill:url(#linear-gradient-38);}.cls-57{fill:url(#radial-gradient-15);}.cls-58{fill:#25054d;}.cls-59{fill:url(#linear-gradient-39);}.cls-60{fill:url(#linear-gradient-40);}.cls-61{fill:url(#linear-gradient-41);}.cls-62{fill:url(#linear-gradient-42);}.cls-63{fill:url(#linear-gradient-43);}.cls-64{fill:url(#linear-gradient-44);}.cls-65{fill:url(#linear-gradient-45);}.cls-66{fill:url(#radial-gradient-16);}.cls-67{fill:url(#linear-gradient-46);}.cls-68{fill:url(#linear-gradient-47);}.cls-69{fill:url(#linear-gradient-48);}.cls-70{fill:url(#radial-gradient-17);}.cls-71{fill:url(#linear-gradient-49);}.cls-72{fill:url(#linear-gradient-50);}.cls-73{fill:url(#linear-gradient-51);}.cls-74{fill:url(#linear-gradient-52);}.cls-75{fill:url(#radial-gradient-18);}.cls-76{fill:url(#radial-gradient-19);}.cls-77{fill:url(#radial-gradient-20);}.cls-78{fill:url(#radial-gradient-21);}</style><linearGradient id="linear-gradient" x1="669.28" y1="83.49" x2="1002.28" y2="660.26" gradientUnits="userSpaceOnUse"><stop offset="0.06" stop-color="#200041"></stop><stop offset="0.26" stop-color="#210243"></stop><stop offset="0.36" stop-color="#25084b"></stop><stop offset="0.43" stop-color="#2c1358"></stop><stop offset="0.47" stop-color="#311b61"></stop><stop offset="0.48" stop-color="#351f65"></stop><stop offset="0.5" stop-color="#422c73"></stop><stop offset="0.51" stop-color="#584188"></stop><stop offset="0.52" stop-color="#765fa7"></stop><stop offset="0.53" stop-color="#8770b8"></stop><stop offset="0.54" stop-color="#7e67ae"></stop><stop offset="0.56" stop-color="#5c468d"></stop><stop offset="0.59" stop-color="#442e75"></stop><stop offset="0.61" stop-color="#362066"></stop><stop offset="0.63" stop-color="#311b61"></stop><stop offset="0.67" stop-color="#2a1155"></stop><stop offset="0.75" stop-color="#230446"></stop><stop offset="0.81" stop-color="#200041"></stop><stop offset="1" stop-color="#200041"></stop></linearGradient><radialGradient id="radial-gradient" cx="1186.77" cy="317.82" r="624.9" gradientUnits="userSpaceOnUse"><stop offset="0" stop-color="#711f56"></stop><stop offset="0.16" stop-color="#6c1e52"></stop><stop offset="0.36" stop-color="#5c1946"></stop><stop offset="0.58" stop-color="#431233"></stop><stop offset="0.82" stop-color="#200918"></stop><stop offset="1"></stop></radialGradient><radialGradient id="radial-gradient-2" cx="1082.22" cy="273.17" r="368.15" gradientUnits="userSpaceOnUse"><stop offset="0" stop-color="#af8afc"></stop><stop offset="1" stop-color="#10054d"></stop></radialGradient><linearGradient id="linear-gradient-2" x1="1111.91" y1="615.37" x2="94.16" y2="296.77" gradientUnits="userSpaceOnUse"><stop offset="0.19" stop-color="#3d065f"></stop><stop offset="0.93" stop-color="#3d065f"></stop></linearGradient><linearGradient id="linear-gradient-3" x1="1125.17" y1="1009.26" x2="608.33" y2="-82.83" gradientUnits="userSpaceOnUse"><stop offset="0" stop-color="#311b61"></stop><stop offset="0.2" stop-color="#290f52"></stop><stop offset="0.49" stop-color="#200041"></stop><stop offset="1" stop-color="#0f001f"></stop></linearGradient><linearGradient id="linear-gradient-4" x1="746.36" y1="551.74" x2="1070.94" y2="551.74" xlink:href="#linear-gradient-3"></linearGradient><linearGradient id="linear-gradient-5" x1="709.68" y1="172.35" x2="1203.51" y2="1113.99" gradientUnits="userSpaceOnUse"><stop offset="0.01" stop-color="#f4766c"></stop><stop offset="0.43" stop-color="#e8635d"></stop><stop offset="0.9" stop-color="#ee4731"></stop></linearGradient><linearGradient id="linear-gradient-6" x1="894.64" y1="8671.53" x2="952.71" y2="8671.53" gradientTransform="matrix(-0.5, 1.44, -0.87, 0.5, 9074.37, -5223.47)" xlink:href="#linear-gradient-3"></linearGradient><linearGradient id="linear-gradient-7" x1="1117.93" y1="446.16" x2="1077.88" y2="444.44" gradientUnits="userSpaceOnUse"><stop offset="0" stop-color="#3d065f"></stop><stop offset="1" stop-color="#5f27bd"></stop></linearGradient><radialGradient id="radial-gradient-3" cx="1097.79" cy="429.08" r="23.52" xlink:href="#radial-gradient"></radialGradient><linearGradient id="linear-gradient-8" x1="6497.1" y1="789.98" x2="6734.73" y2="718.83" gradientTransform="matrix(-1, 0, 0, 1, 7432.52, 0)" gradientUnits="userSpaceOnUse"><stop offset="0.1" stop-color="#45108a"></stop><stop offset="1" stop-color="#7c1dc9"></stop></linearGradient><linearGradient id="linear-gradient-9" x1="6502.41" y1="793.52" x2="6740.04" y2="722.37" gradientTransform="matrix(-1, 0, 0, 1, 7432.52, 0)" gradientUnits="userSpaceOnUse"><stop offset="0.04" stop-color="#d33b2f"></stop><stop offset="0.31" stop-color="#db4a3e"></stop><stop offset="0.83" stop-color="#f17167"></stop><stop offset="0.89" stop-color="#f4766c"></stop></linearGradient><radialGradient id="radial-gradient-4" cx="874.93" cy="733.44" r="22.15" gradientUnits="userSpaceOnUse"><stop offset="0" stop-color="#fff"></stop><stop offset="0.07" stop-color="#d8d8d8"></stop><stop offset="0.16" stop-color="#a6a6a6"></stop><stop offset="0.26" stop-color="#797979"></stop><stop offset="0.37" stop-color="#545454"></stop><stop offset="0.47" stop-color="#353535"></stop><stop offset="0.59" stop-color="#1e1e1e"></stop><stop offset="0.7" stop-color="#0d0d0d"></stop><stop offset="0.84" stop-color="#030303"></stop><stop offset="1"></stop></radialGradient><radialGradient id="radial-gradient-5" cx="942.33" cy="776.57" r="37.31" xlink:href="#radial-gradient-4"></radialGradient><linearGradient id="linear-gradient-10" x1="838.03" y1="811.04" x2="770.54" y2="665.76" gradientUnits="userSpaceOnUse"><stop offset="0" stop-color="#fff"></stop><stop offset="1"></stop></linearGradient><radialGradient id="radial-gradient-6" cx="1023.17" cy="334.85" r="0.01" gradientUnits="userSpaceOnUse"><stop offset="0" stop-color="#271273"></stop><stop offset="0.08" stop-color="#210f60"></stop><stop offset="0.26" stop-color="#150a3d"></stop><stop offset="0.44" stop-color="#0c0522"></stop><stop offset="0.62" stop-color="#05020f"></stop><stop offset="0.81" stop-color="#010104"></stop><stop offset="1"></stop></radialGradient><linearGradient id="linear-gradient-11" x1="1047.54" y1="7.72" x2="838.83" y2="405.48" gradientUnits="userSpaceOnUse"><stop offset="0.04" stop-color="#d33b2f"></stop><stop offset="0.54" stop-color="#e2493d"></stop><stop offset="0.86" stop-color="#ef5448"></stop></linearGradient><radialGradient id="radial-gradient-7" cx="829.83" cy="405.44" r="157.24" xlink:href="#radial-gradient-6"></radialGradient><linearGradient id="linear-gradient-12" x1="779.97" y1="291.56" x2="702.41" y2="439.37" gradientUnits="userSpaceOnUse"><stop offset="0.04" stop-color="#9d9eb3"></stop><stop offset="0.58" stop-color="#d4d1d8"></stop><stop offset="1" stop-color="#eeebf2"></stop></linearGradient><linearGradient id="linear-gradient-13" x1="431.8" y1="440.46" x2="781.04" y2="440.46" xlink:href="#linear-gradient-12"></linearGradient><linearGradient id="linear-gradient-14" x1="457.54" y1="-951.24" x2="1009.05" y2="-1116.38" gradientTransform="matrix(0.87, -0.5, 0, 0.99, 445.6, 1672.45)" xlink:href="#linear-gradient-11"></linearGradient><linearGradient id="linear-gradient-15" x1="431.8" y1="493.06" x2="781.04" y2="493.06" xlink:href="#linear-gradient-12"></linearGradient><linearGradient id="linear-gradient-16" x1="317.24" y1="-1003.67" x2="515.82" y2="-1063.13" gradientTransform="matrix(0.87, -0.5, 0, 0.99, 445.6, 1672.45)" xlink:href="#linear-gradient-12"></linearGradient><linearGradient id="linear-gradient-17" x1="306.07" y1="-807.51" x2="712.52" y2="-807.51" gradientTransform="matrix(0.87, -0.5, 0, 0.99, 445.6, 1672.45)" gradientUnits="userSpaceOnUse"><stop offset="0.04" stop-color="#6b24d6"></stop><stop offset="0.29" stop-color="#7733dc"></stop><stop offset="0.79" stop-color="#975ced"></stop><stop offset="1" stop-color="#a56ef4"></stop></linearGradient><linearGradient id="linear-gradient-18" x1="822.67" y1="624.86" x2="1493.34" y2="424.04" gradientUnits="userSpaceOnUse"><stop offset="0.04" stop-color="#ce2027"></stop><stop offset="0.33" stop-color="#d42f36"></stop><stop offset="0.89" stop-color="#e5555f"></stop><stop offset="1" stop-color="#e85d67"></stop></linearGradient><linearGradient id="linear-gradient-19" x1="431.8" y1="728.53" x2="781.04" y2="728.53" xlink:href="#linear-gradient-12"></linearGradient><linearGradient id="linear-gradient-20" x1="716.15" y1="737.42" x2="916.97" y2="677.29" xlink:href="#linear-gradient-12"></linearGradient><radialGradient id="radial-gradient-8" cx="807.31" cy="601.57" r="162.38" xlink:href="#radial-gradient-6"></radialGradient><linearGradient id="linear-gradient-21" x1="860.67" y1="482.05" x2="1027.26" y2="444.71" xlink:href="#linear-gradient-11"></linearGradient><radialGradient id="radial-gradient-9" cx="807.3" cy="601.57" r="162.39" xlink:href="#radial-gradient-6"></radialGradient><linearGradient id="linear-gradient-22" x1="1078.67" y1="110.77" x2="813.96" y2="615.25" xlink:href="#linear-gradient-18"></linearGradient><linearGradient id="linear-gradient-23" x1="431.8" y1="680.63" x2="781.04" y2="680.63" xlink:href="#linear-gradient-12"></linearGradient><linearGradient id="linear-gradient-24" x1="780.76" y1="526.07" x2="702.61" y2="674.99" xlink:href="#linear-gradient-12"></linearGradient><linearGradient id="linear-gradient-25" x1="552.18" y1="757.18" x2="807.61" y2="699.92" xlink:href="#linear-gradient-12"></linearGradient><linearGradient id="linear-gradient-26" x1="552.18" y1="521.73" x2="807.61" y2="464.47" xlink:href="#linear-gradient-12"></linearGradient><linearGradient id="linear-gradient-27" x1="827.68" y1="132.32" x2="1086.07" y2="934.95" xlink:href="#linear-gradient-5"></linearGradient><radialGradient id="radial-gradient-10" cx="744.39" cy="428.14" r="112.34" xlink:href="#radial-gradient-4"></radialGradient><radialGradient id="radial-gradient-11" cx="744.39" cy="664.38" r="112.34" xlink:href="#radial-gradient-4"></radialGradient><linearGradient id="linear-gradient-28" x1="5858.6" y1="598.85" x2="5749.75" y2="453" gradientTransform="matrix(-1, 0, 0, 1, 5985.02, 0)" gradientUnits="userSpaceOnUse"><stop offset="0.04" stop-color="#f7aa90"></stop><stop offset="0.23" stop-color="#f9b996"></stop><stop offset="0.61" stop-color="#ffe2a6"></stop><stop offset="0.63" stop-color="#ffe4a7"></stop><stop offset="0.87" stop-color="#f7aa90"></stop></linearGradient><linearGradient id="linear-gradient-29" x1="5753.08" y1="549.92" x2="5951.82" y2="490.41" gradientTransform="matrix(-0.5, -0.86, -0.86, 0.5, 3588.04, 5260.05)" gradientUnits="userSpaceOnUse"><stop offset="0.04" stop-color="#ffa98c"></stop><stop offset="0.32" stop-color="#ffb892"></stop><stop offset="0.86" stop-color="#fee1a3"></stop><stop offset="1" stop-color="#feeca8"></stop></linearGradient><radialGradient id="radial-gradient-12" cx="5822.63" cy="530.84" r="68.04" gradientTransform="matrix(-1, 0, 0, 1, 5985.02, 0)" xlink:href="#radial-gradient-4"></radialGradient><linearGradient id="linear-gradient-30" x1="35.46" y1="1413.07" x2="206.44" y2="1361.88" gradientTransform="matrix(0.88, 0.12, -0.07, 1.13, 528.04, -593.71)" xlink:href="#linear-gradient-9"></linearGradient><linearGradient id="linear-gradient-31" x1="-144" y1="1432.89" x2="84.78" y2="1381.6" gradientTransform="matrix(0.88, 0.12, -0.07, 1.13, 528.04, -593.71)" xlink:href="#linear-gradient-9"></linearGradient><linearGradient id="linear-gradient-32" x1="89.61" y1="1223.63" x2="1.68" y2="1391.22" gradientTransform="matrix(0.88, 0.12, -0.07, 1.13, 528.04, -593.71)" xlink:href="#linear-gradient-9"></linearGradient><radialGradient id="radial-gradient-13" cx="-2.47" cy="1420.1" r="59.37" gradientTransform="matrix(0.88, 0.12, -0.07, 1.13, 528.04, -593.71)" xlink:href="#radial-gradient-4"></radialGradient><linearGradient id="linear-gradient-33" x1="492.33" y1="686.71" x2="746.18" y2="610.7" gradientTransform="matrix(1, 0, 0, 1, 0, 0)" xlink:href="#linear-gradient-9"></linearGradient><linearGradient id="linear-gradient-34" x1="280.1" y1="716.24" x2="537.68" y2="658.49" gradientTransform="matrix(1, 0, 0, 1, 0, 0)" xlink:href="#linear-gradient-9"></linearGradient><linearGradient id="linear-gradient-35" x1="587.3" y1="416.12" x2="456.73" y2="664.95" gradientTransform="matrix(1, 0, 0, 1, 0, 0)" xlink:href="#linear-gradient-9"></linearGradient><radialGradient id="radial-gradient-14" cx="452.37" cy="700.26" r="77.81" xlink:href="#radial-gradient-4"></radialGradient><linearGradient id="linear-gradient-36" x1="427.71" y1="654.62" x2="517.32" y2="718.94" gradientUnits="userSpaceOnUse"><stop offset="0" stop-color="#7c1dc9"></stop><stop offset="0.03" stop-color="#741bbd"></stop><stop offset="0.16" stop-color="#56148b"></stop><stop offset="0.3" stop-color="#3b0e60"></stop><stop offset="0.43" stop-color="#26093e"></stop><stop offset="0.57" stop-color="#150523"></stop><stop offset="0.71" stop-color="#09020f"></stop><stop offset="0.85" stop-color="#020104"></stop><stop offset="1"></stop></linearGradient><linearGradient id="linear-gradient-37" x1="44.6" y1="921.39" x2="257.82" y2="921.39" gradientUnits="userSpaceOnUse"><stop offset="0" stop-color="#ffbb96"></stop><stop offset="0.23" stop-color="#fffbc9"></stop><stop offset="0.54" stop-color="#f9b673"></stop><stop offset="0.64" stop-color="#f9b876"></stop><stop offset="0.72" stop-color="#fabe81"></stop><stop offset="0.81" stop-color="#fcc993"></stop><stop offset="0.86" stop-color="#fed2a3"></stop><stop offset="0.97" stop-color="#ffc28c"></stop></linearGradient><linearGradient id="linear-gradient-38" x1="345.3" y1="689.79" x2="140.55" y2="895.84" gradientUnits="userSpaceOnUse"><stop offset="0.04" stop-color="#ffba78"></stop><stop offset="0.4" stop-color="#ffc987"></stop><stop offset="1" stop-color="#feeca8"></stop></linearGradient><radialGradient id="radial-gradient-15" cx="109.01" cy="944.85" r="42" xlink:href="#linear-gradient-10"></radialGradient><linearGradient id="linear-gradient-39" x1="906.97" y1="901.57" x2="962.7" y2="817.04" gradientTransform="matrix(1.1, 0.13, 0.43, 0.96, -808.13, -413.98)" xlink:href="#linear-gradient-9"></linearGradient><linearGradient id="linear-gradient-40" x1="925.12" y1="881.35" x2="1098.22" y2="829.52" gradientTransform="matrix(1.1, 0.13, 0.43, 0.96, -808.13, -413.98)" xlink:href="#linear-gradient-9"></linearGradient><linearGradient id="linear-gradient-41" x1="602.3" y1="509.95" x2="630.38" y2="509.95" gradientTransform="matrix(1, 0, 0, 1, 0, 0)" xlink:href="#linear-gradient-9"></linearGradient><linearGradient id="linear-gradient-42" x1="569.37" y1="545.36" x2="606.94" y2="545.36" gradientTransform="matrix(1, 0, 0, 1, 0, 0)" xlink:href="#linear-gradient-9"></linearGradient><linearGradient id="linear-gradient-43" x1="5491.38" y1="511.85" x2="5709.66" y2="446.49" gradientTransform="matrix(-1, 0, 0, 1, 5942.7, 0)" gradientUnits="userSpaceOnUse"><stop offset="0.04" stop-color="#138bbd"></stop><stop offset="0.23" stop-color="#169ac7"></stop><stop offset="0.59" stop-color="#1fc3df"></stop><stop offset="1" stop-color="#2af6ff"></stop></linearGradient><linearGradient id="linear-gradient-44" x1="5495.01" y1="572.66" x2="5583.19" y2="552.89" xlink:href="#linear-gradient-43"></linearGradient><linearGradient id="linear-gradient-45" x1="5497.78" y1="416.81" x2="5587.65" y2="570.33" gradientTransform="matrix(-1, 0, 0, 1, 5942.7, 0)" gradientUnits="userSpaceOnUse"><stop offset="0" stop-color="#4ec1de"></stop><stop offset="0.24" stop-color="#4dc4de"></stop><stop offset="0.45" stop-color="#49cfde"></stop><stop offset="0.64" stop-color="#43e1de"></stop><stop offset="0.65" stop-color="#43e2de"></stop><stop offset="0.77" stop-color="#3dabc8"></stop><stop offset="0.84" stop-color="#3a91bd"></stop><stop offset="0.88" stop-color="#3b96bf"></stop><stop offset="1" stop-color="#3ca0c3"></stop></linearGradient><radialGradient id="radial-gradient-16" cx="5542.08" cy="501.12" r="66.3" gradientTransform="matrix(-1, 0, 0, 1, 5942.7, 0)" xlink:href="#linear-gradient-10"></radialGradient><linearGradient id="linear-gradient-46" x1="352.29" y1="847.24" x2="689.89" y2="746.15" gradientTransform="matrix(1, 0, 0, 1, 0, 0)" xlink:href="#linear-gradient-43"></linearGradient><linearGradient id="linear-gradient-47" x1="503.89" y1="620.76" x2="377.54" y2="861.55" gradientTransform="matrix(1, 0, 0, 1, 0, 0)" xlink:href="#linear-gradient-43"></linearGradient><linearGradient id="linear-gradient-48" x1="377.05" y1="887.65" x2="450.57" y2="865.64" gradientTransform="matrix(1, 0, 0, 1, 0, 0)" xlink:href="#linear-gradient-43"></linearGradient><radialGradient id="radial-gradient-17" cx="412.68" cy="864.3" r="74.65" xlink:href="#radial-gradient-4"></radialGradient><linearGradient id="linear-gradient-49" x1="6737.17" y1="731.7" x2="6983.98" y2="657.79" gradientTransform="matrix(-1, 0, 0, 1, 6985.56, 0)" xlink:href="#linear-gradient-43"></linearGradient><linearGradient id="linear-gradient-50" x1="5080.46" y1="-1287.19" x2="4965.76" y2="-1068.61" gradientTransform="matrix(-0.87, 0.5, 0.86, 0.5, 5466.28, -1232.08)" xlink:href="#linear-gradient-43"></linearGradient><linearGradient id="linear-gradient-51" x1="608.57" y1="810.7" x2="599.37" y2="710.88" gradientTransform="matrix(1, 0, 0, 1, 0, 0)" xlink:href="#linear-gradient-29"></linearGradient><linearGradient id="linear-gradient-52" x1="638.62" y1="717.96" x2="572.17" y2="800.13" gradientTransform="matrix(1, 0, 0, 1, 0, 0)" xlink:href="#linear-gradient-29"></linearGradient><radialGradient id="radial-gradient-18" cx="544.69" cy="765.16" r="12.21" xlink:href="#radial-gradient-4"></radialGradient><radialGradient id="radial-gradient-19" cx="658.6" cy="776.28" r="15.1" xlink:href="#radial-gradient-4"></radialGradient><radialGradient id="radial-gradient-20" cx="592.64" cy="804.62" r="34.44" xlink:href="#radial-gradient-4"></radialGradient><radialGradient id="radial-gradient-21" cx="186.43" cy="744.31" r="58.88" xlink:href="#radial-gradient-4"></radialGradient></defs><g class="cls-1"><g id="Layer_1" data-name="Layer 1"><path class="cls-2" d="M1060.45,1022.71,805.52,875.53c-28.75-16.61-52.06-61.15-52.06-99.49V97.13c0-19.5-16-23.81-6.32-30.81.37-.27,22.75-10.44,23.18-10.6,10.45-4,21.63-5.79,35.2,2.05L1060.45,205c28.76,16.61,52.07,61.15,52.07,99.49V983.35c0,20.37-6.58,34.89-17.06,41.54-.63.39-27.6,13.22-28.29,13.45C1057.88,1041.44,1073,1030,1060.45,1022.71Z"></path><path class="cls-3" d="M1058.1,205.74,803.17,58.55C789.6,50.72,1044,210.43,1044,210.43c28.76,16.61,52.07,61.15,52.07,99.49,0,0,14.09,694.58,14.09,674.21V305.22C1110.17,266.88,1086.86,222.34,1058.1,205.74Z"></path><path class="cls-4" d="M1040.65,1031.76,785.72,884.58C757,868,733.65,823.44,733.65,785.09V106.19c0-38.34,23.32-56,52.07-39.36L1040.65,214c28.76,16.6,52.07,61.14,52.07,99.48V992.4C1092.72,1030.74,1069.41,1048.36,1040.65,1031.76Z"></path><path class="cls-5" d="M1036.11,1034.21,781.19,887c-28.76-16.6-52.07-61.14-52.07-99.48V108.64c0-38.34,23.31-56,52.07-39.36l254.92,147.18c28.76,16.6,52.07,61.14,52.07,99.48V994.85C1088.18,1033.19,1064.87,1050.82,1036.11,1034.21Z"></path><path class="cls-6" d="M736.22,792.06V112.32c0-33.61,20.43-49.06,45.64-34.51l253.58,146.41c25.21,14.55,45.64,53.6,45.64,87.21V991.17c0,33.61-20.43,49.06-45.64,34.51L781.86,879.27C756.65,864.72,736.22,825.67,736.22,792.06Z"></path><path class="cls-7" d="M746.36,796.2V119.9c0-28.14,17.11-41.07,38.21-28.89l248.16,143.28c21.1,12.19,38.21,44.87,38.21,73v676.3c0,28.14-17.11,41.07-38.21,28.88L784.57,869.2C763.47,857,746.36,824.33,746.36,796.2Z"></path><path class="cls-8" d="M787.44,98.49c-19.89-11.48-36-2.29-36,20.53V802.93c0,22.82,16.12,50.62,36,62.11l242.42,140c19.89,11.48,36,2.29,36-20.53V300.56c0-22.82-16.12-50.62-36-62.11Z"></path><path class="cls-9" d="M1095,473V427.2c0-5.86,3.56-12.67,8-15.21h0c4.4-2.54,8,.16,8,6v45.83c0,5.86-3.56,12.67-8,15.21h0C1098.59,481.58,1095,478.89,1095,473Z"></path><path class="cls-10" d="M1099.83,478.28c-2.27,0-3.08-2.83-3.08-5.25V427.2c0-5.22,3.25-11.5,7.1-13.72a4.77,4.77,0,0,1,2.29-.72c2.27,0,3.08,2.83,3.08,5.25v45.83c0,5.21-3.25,11.49-7.1,13.72A4.77,4.77,0,0,1,1099.83,478.28Z"></path><path class="cls-11" d="M1099.1,474.2V428.37c0-5.21,3.25-11.49,7.09-13.71a4.91,4.91,0,0,1,2-.68,2.44,2.44,0,0,0-2.09-1.22,4.77,4.77,0,0,0-2.29.72c-3.85,2.22-7.1,8.5-7.1,13.72V473c0,2.42.81,5.25,3.08,5.25.08,0,.17,0,.25,0A7.71,7.71,0,0,1,1099.1,474.2Z"></path><path class="cls-12" d="M1029.86,238.45l-242.42-140c-19.89-11.48-36-2.29-36,20.53V802.93c0,22.82,16.12,50.62,36,62.11l242.42,140c19.89,11.48,36,2.29,36-20.53V300.56C1065.87,277.74,1049.75,249.93,1029.86,238.45Zm32.88,746c0,7.08-1.67,12.9-4.82,16.83a14.69,14.69,0,0,1-11.89,5.51h0c-4.42,0-9.47-1.56-14.59-4.53L789,862.32c-19-11-34.45-37.6-34.45-59.39V119c0-13.78,6.41-22.34,16.72-22.34,4.42,0,9.47,1.57,14.6,4.53l242.42,140c19,11,34.44,37.61,34.44,59.39Z"></path><path class="cls-13" d="M878.66,714c11.5,6.64,21.46,19.86,26.45,33.67,5-8,15-9.76,26.46-3.12,16.49,9.52,29.86,32.58,29.86,51.51,0,34.59-56.32,44.84-56.32,44.84S848.8,765.62,848.8,731C848.8,712.11,862.17,704.48,878.66,714Z"></path><path class="cls-14" d="M873.35,717.54c11.5,6.64,21.46,19.86,26.45,33.67,5-8.05,15-9.76,26.46-3.12,16.49,9.52,29.86,32.58,29.86,51.51,0,34.59-56.32,44.84-56.32,44.84s-56.31-75.28-56.31-109.87C843.49,715.65,856.86,708,873.35,717.54Z"></path><g class="cls-15"><path class="cls-16" d="M868.93,719.76c11.5,6.63,21.46,19.85,26.45,33.66a15.35,15.35,0,0,1,3.68-4c-5.18-13.14-14.72-25.5-25.71-31.85-9-5.2-17.07-5.25-22.54-1.17C855.84,714.85,862.11,715.82,868.93,719.76Z"></path><path class="cls-17" d="M926.26,748.09c-9-5.2-17-5.22-22.49-1.15,5-1.51,11.26-.57,18.06,3.36,16.5,9.52,29.87,32.59,29.87,51.51,0,16.07-12.16,26.88-25.18,33.86,14.55-6.82,29.6-18.18,29.6-36.07C956.12,780.67,942.75,757.61,926.26,748.09Z"></path></g><polygon class="cls-18" points="885.57 700.45 790.59 877.02 755.43 846.15 737.42 795.56 755.43 727.82 885.57 700.45"></polygon><path class="cls-19" d="M1023.18,334.86h0l0,0Z"></path><path class="cls-20" d="M951.55,293.22v0c-26.83-15-63.71-12.47-104.42,11L713.45,381.47l67,38.85L914.17,343.1c39.44-22.77,75.28-25.82,101.88-12.39Z"></path><polygon class="cls-21" points="643.62 421.79 643.62 526.98 710.66 488.27 710.66 460.6 780.43 420.31 713.45 381.47 643.62 421.79"></polygon><polygon class="cls-22" points="643.62 421.79 710.66 460.6 780.43 420.31 713.45 381.47 643.62 421.79"></polygon><polygon class="cls-23" points="780.43 420.31 710.66 460.6 780.43 420.31 780.43 420.31"></polygon><path class="cls-24" d="M914.17,343.1,780.43,420.32l.61.35V525.16L914.17,448.3c31.35-18.1,56.84-3.56,56.84,32.4,0,.46,0,.92,0,1.37l91.67-52.54c0-.58,0-1.17,0-1.76h0C1062.69,333.65,996.2,295.75,914.17,343.1Z"></path><polygon class="cls-25" points="780.43 420.31 710.66 460.6 710.66 488.27 710.66 565.8 781.04 525.16 781.04 420.67 780.43 420.31"></polygon><polygon class="cls-26" points="780.43 420.31 710.66 460.6 710.66 488.27 710.66 565.8 781.04 525.16 781.04 420.67 780.43 420.31"></polygon><path class="cls-27" d="M914.17,578.74,710.66,696.24V801.43l203.51-117.5c81.52-47.06,147.66-160.61,148.48-254.4L971,482.07C970.35,517.78,945.12,560.87,914.17,578.74Z"></path><path class="cls-28" d="M971,482.07c-.63,35.71-25.86,78.8-56.81,96.67L781,655.64l.06,0V760.8l133.13-76.87c81.52-47.06,147.66-160.61,148.48-254.4Z"></path><polygon class="cls-29" points="780.98 655.63 710.66 696.24 710.66 801.43 781.04 760.8 781.04 655.67 780.98 655.63"></polygon><polygon class="cls-30" points="780.98 655.63 710.66 696.24 710.66 801.43 781.04 760.8 781.04 655.67 780.98 655.63"></polygon><polygon class="cls-31" points="643.62 762.62 675.06 744.47 643.62 726.12 643.62 762.62"></polygon><path class="cls-32" d="M971,482.12c0-.47,0-.95,0-1.42,0-36-25.49-50.5-56.84-32.4l-1.94,1.12L970.88,482Z"></path><path class="cls-33" d="M710.66,696.24l203.51-117.5c30.94-17.86,56.16-60.93,56.81-96.62l-.1-.1-58.65-32.6-9.29,5.36c-5,33-28.13,69.16-55.81,85.14L643.61,657.42v68.7l31.45,18.34,35.6-20.55Z"></path><path class="cls-34" d="M970.88,482l-58.65-32.6-9.29,5.36c-5,33-28.13,69.16-55.81,85.14L714,616.79l67,38.85,133.19-76.9c30.94-17.86,56.16-60.93,56.81-96.62Z"></path><polygon class="cls-35" points="643.62 657.42 643.62 726.12 675.06 744.47 710.66 723.91 710.66 696.24 780.98 655.63 714 616.79 643.62 657.42"></polygon><polygon class="cls-36" points="643.62 657.42 710.66 696.24 780.98 655.63 714 616.79 643.62 657.42"></polygon><polygon class="cls-37" points="710.66 801.25 643.51 761.91 643.51 657.11 710.66 696.05 710.66 801.25"></polygon><polygon class="cls-38" points="710.66 565.8 643.51 526.46 643.51 421.66 710.66 460.6 710.66 565.8"></polygon><path class="cls-39" d="M1015.15,330.32c.28.14.58.25.86.39l-64.5-37.49v0c-26.82-15-63.7-12.47-104.42,11l-31.34,18.09,69.78,37.56V464.81l28.61-16.51-1.95,1.12-9.29,5.36c-5,33-28.13,69.16-55.81,85.14l-30.81,17.46,69.25,40.09v103l28.61-16.52c81.51-47.06,147.65-160.61,148.47-254.4,0-.58,0-1.17,0-1.76C1062.65,378.43,1044.35,344.58,1015.15,330.32Z"></path><polygon class="cls-40" points="643.51 421.66 711.27 457.27 885.57 359.94 712.99 461.56 710.66 565.8 709.13 460.27 643.51 421.66"></polygon><polygon class="cls-41" points="643.51 657.9 711.27 693.51 885.57 596.19 712.99 697.8 710.66 802.04 709.13 696.51 643.51 657.9"></polygon><path class="cls-42" d="M119,565.2c0,19.5,6.73,33.3,17.67,40,.33.2,18.68,11.59,19,11.77,11.38,6.37,4.1-8.07,21.38-18.05,34.78-20.08,63-68.71,63-108.62,0-19.74,18.24-19.9,7.07-26.49l-21.18-12.09c-11.35-6.14-26.86-5-44,4.87C147.17,476.66,119,525.29,119,565.2Z"></path><ellipse class="cls-43" cx="202.56" cy="541.12" rx="88.79" ry="51.26" transform="translate(-366.82 442.89) rotate(-59.69)"></ellipse><path class="cls-44" d="M199.53,467.34c16.68-9.62,31.82-10.92,43.09-5.29-10.5-2.93-23.53-.74-37.65,7.41-34.78,20.08-63,68.71-63,108.63,0,20.78,7.65,35.07,19.89,41.19-15.38-4.3-25.33-19.6-25.33-43.31C136.56,536.06,164.75,487.43,199.53,467.34Z"></path><path class="cls-45" d="M204.78,486.13c-27.08,15.63-49.11,53.63-49.11,84.71s22,43.63,49.11,28,49.11-53.64,49.11-84.71S231.86,470.49,204.78,486.13Zm14.44,26.52c3.95-2.28,7.15-.46,7.15,4.07A15.73,15.73,0,0,1,219.22,529c-3.94,2.28-7.14.46-7.14-4.07A15.73,15.73,0,0,1,219.22,512.65Zm-28.89,16.68c3.95-2.28,7.15-.46,7.15,4.07a15.73,15.73,0,0,1-7.15,12.32c-3.94,2.28-7.14.46-7.14-4.07A15.75,15.75,0,0,1,190.33,529.33Zm14.32,51.89c-11.78,6.81-22.57,4.56-26.83-5.58l6.59-6.75c3.22,7.66,11.35,9.35,20.24,4.21,9.17-5.29,17.39-16.69,20.46-28.36l6.66-1.13C227.7,559.09,216.8,574.21,204.65,581.22Z"></path><polygon class="cls-46" points="435.66 1020.69 434.81 1034.5 507.98 994.52 508.88 979.91 435.66 1020.69"></polygon><polygon class="cls-47" points="435.75 1020.71 434.89 1034.52 367.11 971.41 368.01 956.8 435.75 1020.71"></polygon><polygon class="cls-48" points="368.01 956.8 435.75 1020.71 508.88 979.91 440.97 916.27 368.01 956.8"></polygon><polygon class="cls-49" points="508.88 979.91 436.26 1018.07 368.01 956.8 435.75 1020.71 508.88 979.91"></polygon><polygon class="cls-50" points="451.74 707.89 451.74 721.63 571.51 654.78 571.51 640.25 451.74 707.89"></polygon><polygon class="cls-51" points="451.86 707.89 451.86 721.63 360.51 668.85 360.51 654.32 451.86 707.89"></polygon><polygon class="cls-52" points="360.51 654.32 451.86 707.89 571.51 640.25 479.96 586.95 360.51 654.32"></polygon><polygon class="cls-53" points="571.51 640.25 452.3 705.22 360.51 654.32 451.86 707.89 571.51 640.25"></polygon><path class="cls-45" d="M502.12,615.73h0a13.53,13.53,0,0,0-12.25,0l-24.32,14-12.48-7.21c-5.14-3-13.45-3-18.56,0h0c-1.64.94-1.63,2.48,0,3.43L445.07,632c3.06,1.76,4.84,4.12,5,6.6l1,14.57,26.87,15.52a12.3,12.3,0,0,0,11.1,0l13.16-7.6,16.41-9.47,8.78-5.07c3.27-1.89,3.59-5,.49-7a11.78,11.78,0,0,0-5.54-1.65c3.19-2,3.13-5-.21-7a13.5,13.5,0,0,0-8.52-1.28l.09-.06c3.34-1.92,3.6-5.08.34-7.08a13.69,13.69,0,0,0-10.29-1C505.4,619.69,504.86,617.31,502.12,615.73Z"></path><path class="cls-54" d="M474.48,677.3,462,684.54c-2.76,1.59-6.92,1.76-9.31.38l-30.91-17.84c-2.38-1.38-2.08-3.78.67-5.37l12.54-7.24c2.75-1.59,6.92-1.76,9.3-.39l30.91,17.85C477.54,673.3,477.24,675.71,474.48,677.3Z"></path><path class="cls-55" d="M260.21,884H43.57v10.82l0-1.71c0,.29,0,2.29,0,2.58,0,34.84,48.49,63.08,108.32,63.08s108.32-28.24,108.32-63.08c0-.29,0-2.29,0-2.58h0Z"></path><ellipse class="cls-56" cx="151.89" cy="884.43" rx="108.32" ry="54.29"></ellipse><path class="cls-57" d="M151.89,937.41C93.61,937.41,46.1,913,43.68,884.07c-.06.77-.11,1.54-.11,2.31,0,30,48.49,54.29,108.32,54.29s108.32-24.31,108.32-54.29c0-.77,0-1.54-.11-2.31C257.68,913,210.17,937.41,151.89,937.41Z"></path><path class="cls-58" d="M199.47,881c5.34,3.09,5.37,8.06.06,11.13s-13.92,3-19.26,0-5.36-8.06-.06-11.12S194.14,877.88,199.47,881Z"></path><path class="cls-58" d="M160.4,858.41c5.34,3.08,5.36,8.06.06,11.12s-13.93,3-19.26,0-5.36-8.06-.06-11.12S155.06,855.33,160.4,858.41Z"></path><path class="cls-58" d="M109.31,910.27c-16-9.2-20.61-23.35-11.61-35.21l12.36,3.17c-6.79,8.94-3.27,19.61,8.75,26.55,12.39,7.16,31.3,9.08,47.05,4.78l5.83,7C150.81,922.3,125.74,919.76,109.31,910.27Z"></path><path class="cls-59" d="M627.41,513.7,632,500.93s-14-7.18-15.9-7.89a17.42,17.42,0,0,0-14.08.48c-6.8,3.38-10.59,11.06-10.65,19.69l-4.6-2.11c-1.33-.78-4.55-2.1-4.55-2.1v.06a17.31,17.31,0,0,0-13.07.82c-10.25,5.11-13.72,19.94-7.76,33.13,3.92,8.66,12.67,15.79,22.29,21.4v.19l21.73,10.9.65-1.81c5,1.65,8.28,2.49,8.28,2.49S631.25,538.93,627.41,513.7Z"></path><path class="cls-60" d="M614.92,500c-7.15,3.56-11,11.84-10.64,21-6.55-6.08-15.09-8.2-22.23-4.64-10.25,5.1-13.72,19.93-7.76,33.13,10.9,24.11,59.37,36.5,59.37,36.5s21.52-47.23,10.61-71.35C638.31,501.48,625.17,494.92,614.92,500Z"></path><path class="cls-61" d="M606,522.17c-.34-9.16,3.5-17.45,10.64-21a17.46,17.46,0,0,1,13.75-.59c-5.62-3.21-12-3.86-17.46-1.12-6.86,3.41-10.62,11.19-10.62,19.9A26.35,26.35,0,0,1,606,522.17Z"></path><path class="cls-62" d="M576,550.66c-6-13.19-2.5-28,7.75-33.13a17.42,17.42,0,0,1,13.75-.57c-5.62-3.22-12-3.89-17.46-1.14-10.25,5.1-13.72,19.93-7.76,33.13,5.57,12.32,20.94,21.57,34.65,27.68C594.27,570.55,581.08,561.88,576,550.66Z"></path><path class="cls-63" d="M370.21,494.84l97.68-56.72c11.62-6.71,21,.41,21,15.91v15.28c0,15.5-9.42,33.51-21,40.22l-36.45,21L415.33,578l-16.11-28.83-29,17.07c-11.62,6.71-21-.42-21-15.92V535.05C349.16,519.55,358.59,501.55,370.21,494.84Z"></path><polygon class="cls-64" points="392.67 552.97 399.23 549.18 415.33 578.01 402.4 570.39 392.67 552.97"></polygon><path class="cls-65" d="M359.37,488.48,457,431.76c5-2.87,9.54-3.19,13.15-1.42l.11-.12L481.81,437l-.05.14c-3.7-2.21-8.55-2.06-13.87,1l-97.68,56.72c-11.62,6.71-21,24.71-21,40.21v15.28c0,7.54,2.24,13.07,5.86,16l-6.41-4.23c-5.39-3.09-10.29-7.89-10.29-18.15V528.69C338.32,513.19,347.74,495.19,359.37,488.48Z"></path><path class="cls-66" d="M369,493.85l97.67-56.71c5.78-3.34,11-3.25,14.81-.43-3.45-1.31-7.67-.83-12.25,1.81l-97.67,56.71c-11.62,6.71-21,24.72-21,40.22v15.28c0,7.8,2.39,13.47,6.25,16.33-5.33-2-8.81-8.31-8.81-17.71V534.07C348,518.57,357.41,500.56,369,493.85Z"></path><polygon class="cls-45" points="394.27 533.34 416.59 521.05 416.59 525.6 394.27 537.89 394.27 533.34"></polygon><polygon class="cls-45" points="427.84 480.89 405.61 493.21 405.61 488.66 427.84 476.34 427.84 480.89"></polygon><polygon class="cls-45" points="427.02 505.2 427.02 509.76 403 522.93 403 518.38 427.02 505.2"></polygon><polygon class="cls-45" points="402.13 504.92 402.13 500.36 410.84 495.33 410.84 499.89 402.13 504.92"></polygon><polygon class="cls-45" points="388.96 498.13 388.96 502.68 374.8 510.69 374.8 506.14 388.96 498.13"></polygon><polygon class="cls-45" points="434.42 486.79 415.39 497.26 415.39 492.7 434.42 482.24 434.42 486.79"></polygon><polygon class="cls-45" points="410.08 509.55 410.08 504.99 424.18 497.42 424.18 501.98 410.08 509.55"></polygon><polygon class="cls-45" points="421.14 523 421.14 518.44 425.06 516.16 425.06 520.72 421.14 523"></polygon><polygon class="cls-45" points="405.53 507.58 405.53 512.14 390.86 520.5 390.86 515.94 405.53 507.58"></polygon><polygon class="cls-45" points="431.57 507.15 431.57 502.6 436.76 499.57 436.76 504.13 431.57 507.15"></polygon><polygon class="cls-45" points="397.64 502.95 397.64 507.51 379.23 517.82 379.23 513.26 397.64 502.95"></polygon><polygon class="cls-45" points="389.72 540.5 382.39 544.7 382.39 540.14 389.72 535.95 389.72 540.5"></polygon><polygon class="cls-45" points="401.12 495.8 393.51 500.11 393.51 495.55 401.12 491.25 401.12 495.8"></polygon><polygon class="cls-45" points="449.15 473.72 468.81 462.3 468.81 466.85 449.15 478.28 449.15 473.72"></polygon><polygon class="cls-45" points="453.7 480.57 460.97 476.33 460.97 480.89 453.7 485.13 453.7 480.57"></polygon><polygon class="cls-45" points="441.31 496.97 475.26 477.47 475.26 482.02 441.31 501.52 441.31 496.97"></polygon><polygon class="cls-45" points="428.73 494.83 449.22 483.16 449.22 487.71 428.73 499.39 428.73 494.83"></polygon><polygon class="cls-45" points="429.61 518.11 429.61 513.55 445.93 504.22 445.93 508.77 429.61 518.11"></polygon><polygon class="cls-45" points="444.66 480.87 438.97 484.16 438.97 479.61 444.66 476.31 444.66 480.87"></polygon><polygon class="cls-45" points="386.31 523.09 363.29 536.2 363.29 531.64 386.31 518.53 386.31 523.09"></polygon><polygon class="cls-45" points="398.44 525.54 373.09 540.04 373.09 535.49 398.44 520.98 398.44 525.54"></polygon><path class="cls-67" d="M497.61,844.66V830.82l-10.7,4.23L390.5,779.39c-6.29-3.63-16.45-3.65-22.7,0l-56.73,32.76-7.95-5.94v14c-.2,2.52,1.31,5.08,4.66,7l64,37L372,901l31.81-18.37,6.41,3.7c6.28,3.63,16.45,3.65,22.69,0l60.1-34.7C496.34,849.73,497.83,847.18,497.61,844.66Z"></path><path class="cls-68" d="M493,823.75,390.5,764.6c-6.29-3.63-16.45-3.64-22.7,0l-60.09,34.7c-6.25,3.61-6.22,9.47.07,13.1l64,37,.2,36.85,31.82-18.36,6.4,3.69c6.28,3.63,16.45,3.65,22.69,0L493,836.86C499.27,833.25,499.24,827.38,493,823.75Z"></path><path class="cls-45" d="M385.36,802.47c0,3.84-5.35,6.94-12,6.93s-12.06-3.13-12.08-7,5.35-6.94,12-6.93S385.34,798.63,385.36,802.47Z"></path><ellipse class="cls-45" cx="401.08" cy="818.47" rx="6.95" ry="12.04" transform="translate(-419.56 1215.1) rotate(-89.69)"></ellipse><path class="cls-45" d="M440.86,834.51c0,3.84-5.35,6.94-12,6.93s-12.05-3.14-12.07-7,5.35-6.94,12-6.93S440.84,830.67,440.86,834.51Z"></path><polygon class="cls-69" points="403.82 867.82 403.82 882.6 372.01 900.97 372.01 886.18 403.82 867.82"></polygon><path class="cls-70" d="M493,836.24l-60.1,34.7c-6.24,3.6-16.41,3.59-22.69,0l-6.41-3.7L372,885.57l-.2-36.86-64-37a9,9,0,0,1-4.48-5.07c-.85,2.86.63,5.92,4.48,8.15l64,37,.2,36.85,31.81-18.37,6.41,3.7c6.28,3.63,16.45,3.64,22.69,0l60.1-34.7c3.78-2.18,5.22-5.19,4.41-8A9,9,0,0,1,493,836.24Z"></path><path class="cls-71" d="M141.1,734v-10.8l3-.68c4.63-9.45,14.6-19.3,29.36-27.82,33.4-19.28,78.58-24.46,100.92-11.56a27.14,27.14,0,0,1,8.54,7.42l3.82-.88v11.53l-.11,0c.46,12.68-10.89,27.82-32.28,40.17-3.45,2-7,3.82-10.68,5.5,1.64,15.23-24,33.75-24,33.75s-3.31-11.14-16.22-21.87c-19.66,2.8-38.07,1.07-50-5.81-8.06-4.65-12-11-12.26-18.17h0Z"></path><path class="cls-72" d="M153.39,742.4c-22.34-12.9-13.37-39,20-58.27S252,659.67,274.34,672.57s13.37,39-20,58.26c-3.45,2-7,3.82-10.68,5.5,1.64,15.23-24,33.75-24,33.75s-3.32-11.14-16.22-21.87C183.71,751,165.3,749.28,153.39,742.4Z"></path><path class="cls-73" d="M677.24,777.31v-11.2l-19.91,4.77L635.61,767c-2.41-.44-4.3-1.53-5.06-2.92l-11.37-20.94c-1.91-3.51-9.94-4.26-13.59-1.27l-21.82,17.85a10.17,10.17,0,0,1-6.34,1.86l-37.95-.35h-.2l-7.69-7.69v11.72l.15.09a3.27,3.27,0,0,0,1.54,2.93l22.79,17.6c1.51,1.17,1.94,2.69,1.14,4.07l-6.8,11.68-5.62-.92v10.89a2.57,2.57,0,0,0,0,1.07v.2l.06,0c.76,2.53,5.31,4.39,10,3.47l35.9-7a12.42,12.42,0,0,1,7.06.66l30.48,13.15c5.1,2.21,12.33.09,12.23-3.58l-.6-21.91c0-1.45,1.16-2.82,3.22-3.66l30.91-12.6C676.53,780.37,677.52,778.8,677.24,777.31Z"></path><path class="cls-74" d="M635.61,755.38,671.89,762c6.07,1.1,7.37,5.74,2.19,7.85l-30.91,12.59c-2.06.84-3.26,2.21-3.22,3.66l.6,21.91c.1,3.67-7.13,5.79-12.23,3.59l-30.48-13.16a12.48,12.48,0,0,0-7.05-.66l-35.91,7c-6,1.17-11.77-2.16-9.75-5.63l12.08-20.73c.8-1.38.37-2.9-1.14-4.07l-22.79-17.6c-3.82-2.94-.15-7.12,6.2-7.06l37.95.35a10.17,10.17,0,0,0,6.34-1.86l21.82-17.85c3.65-3,11.68-2.24,13.59,1.27l11.37,20.94C631.31,753.85,633.2,755,635.61,755.38Z"></path><g class="cls-15"><path class="cls-75" d="M557.22,776.63c.78-1.37.36-2.88-1.15-4L533.28,755a4.3,4.3,0,0,1-1.14-1.28c-.69,1.27-.47,2.72,1.14,4l22.79,17.6A4.25,4.25,0,0,1,557.22,776.63Z"></path><path class="cls-76" d="M674.08,768.11,643.17,780.7c-2.06.84-3.26,2.21-3.22,3.66l.06,2.33c.15-1.32,1.27-2.55,3.16-3.31l30.91-12.6c2.94-1.19,3.72-3.19,2.81-4.9A5.35,5.35,0,0,1,674.08,768.11Z"></path><path class="cls-77" d="M628.32,809.86,597.84,796.7a12.48,12.48,0,0,0-7.05-.66l-35.91,7c-4.35.85-8.54-.68-9.77-2.9-1.93,3.45,3.79,6.74,9.77,5.58l35.91-7a12.48,12.48,0,0,1,7.05.65l30.48,13.16c5.1,2.2,12.33.09,12.23-3.58l-.06-2.38C640.18,810.05,633.28,812,628.32,809.86Z"></path></g><path class="cls-78" d="M254.31,727.4c-3.45,2-7,3.82-10.68,5.5,1.64,15.23-24,33.75-24,33.75s-3.32-11.14-16.22-21.87c-19.66,2.8-38.07,1.07-50-5.81-7.33-4.23-11.22-9.89-12.06-16.25-1,8.44,2.81,16,12.06,21.39,11.91,6.88,30.32,8.62,50,5.81,12.9,10.74,16.22,21.88,16.22,21.88s25.68-18.53,24-33.75c3.66-1.68,7.23-3.51,10.68-5.5,22.44-13,33.79-29,32.08-42C285,702.48,273.88,716.1,254.31,727.4Z"></path><path class="cls-45" d="M467,672.43c0,1.61-2.24,2.91-5,2.9s-5.05-1.31-5.06-2.92,2.25-2.9,5-2.9S467,670.82,467,672.43Z"></path></g></g></svg>