<svg xmlns="http://www.w3.org/2000/svg" xmlns:xlink="http://www.w3.org/1999/xlink" id="Layer_1" x="0px" y="0px" viewBox="0 0 461.7 322.9" style="enable-background:new 0 0 461.7 322.9;" xml:space="preserve">
<style type="text/css">
	.st0{fill:#B72B00;}
	.st1{font-family:'Arial-BoldMT';}
	.st2{font-size:161.05px;}
	.st3{fill:none;stroke:#000000;stroke-miterlimit:10;}
	.st4{fill:#FFFFFF;}
	.st5{font-family:'ArialMT';}
	.st6{font-size:70.43px;}
	.st7{fill:#FCFCFC;}
	.st8{font-family:'ArialNarrow';}
	.st9{font-size:9.87px;}
	.st10{letter-spacing:2;}
	.st11{fill:#ECBF4C;}
	.st12{fill:#E58F31;}
	.st13{fill:#D14F42;}
	.st14{fill:#DD6E5C;}
	.st15{fill:#5F5EA5;}
	.st16{fill:#C3B7FC;}
	.st17{fill:#514E92;}
	.st18{fill:#DFDBFC;}
	.st19{fill:#363271;}
	.st20{fill:#F0C9A1;}
	.st21{fill:#E9B588;}
	.st22{fill:#8690F1;}
	.st23{fill:#E08675;}
</style>
<title>Asset 5z4</title>
<g id="Layer_2_1_">
	<g id="OBJECTS">
		<ellipse class="st0" cx="227.8" cy="291.6" rx="216.5" ry="31.3"></ellipse>
		<rect x="213.5" y="22.2" class="st0" width="33.5" height="127.5"></rect>
		<text transform="matrix(1.12 0 0 1 89.1201 136.3454)" class="st0 st1 st2">D</text>
		<line class="st3" x1="90.9" y1="147" x2="195.9" y2="147"></line>
		<path d="M198.3,147c0,1.3-1.1,2.4-2.4,2.4c-1.3,0-2.4-1.1-2.4-2.4c0-1.3,1.1-2.4,2.4-2.4C197.2,144.6,198.3,145.7,198.3,147    C198.3,147,198.3,147,198.3,147z"></path>
		<path d="M93.9,147c0,1.3-1.1,2.4-2.4,2.4s-2.4-1.1-2.4-2.4s1.1-2.4,2.4-2.4c0,0,0,0,0,0C92.8,144.6,93.9,145.7,93.9,147    C93.9,147,93.9,147,93.9,147z"></path>
		<line class="st3" x1="209.8" y1="147.6" x2="209.8" y2="24.3"></line>
		<path d="M209.8,21.9c1.3,0,2.4,1.1,2.4,2.4c0,1.3-1.1,2.4-2.4,2.4s-2.4-1.1-2.4-2.4c0,0,0,0,0,0C207.4,23,208.5,21.9,209.8,21.9z"></path>
		<path d="M209.8,144.6c1.3,0,2.4,1.1,2.4,2.4c0,1.3-1.1,2.4-2.4,2.4c-1.3,0-2.4-1.1-2.4-2.4c0,0,0,0,0,0    C207.4,145.7,208.5,144.6,209.8,144.6z"></path>
		<text transform="matrix(1 0 0 1 212.14 81.46)" class="st4 st5 st6">e</text>
		<text transform="matrix(1 0 0 1 247.42 81.46)" class="st5 st6">si</text>
		<text transform="matrix(1 0 0 1 291.79 81.46)" class="st5 st6">g</text>
		<text transform="matrix(1 0 0 1 330.74 81.46)" class="st5 st6">n</text>
		<text transform="matrix(1 0 0 1 213.51 121.17)" class="st7 st8 st9 st10">YOUR</text>
		<text transform="matrix(1 0 0 1 248.73 121.17)" class="st8 st9 st10"> SLOGAN HERE</text>
		<path class="st11" d="M421.2,99.2c0,1.3,0,2.6-0.1,3.9c-0.5,8.8-1.9,17.5-4.3,25.9c-0.4,1.4-0.8,2.8-1.2,4.2    c-2.6,8.1-6,16-10.1,23.5c-0.7,1.4-1.5,2.7-2.3,4c-5,8.4-10.8,16.2-17.4,23.4c-1.1,1.2-2.2,2.4-3.4,3.5    c-8.6,8.7-18.4,16-29.1,21.9c-1.9,1-3.8,2-5.8,2.9c-2.2,1.1-4.5,2-6.8,2.9c-2.9,1.1-7.6,3.1-11.5,3.1c-1.2,0-2.4-0.2-3.5-0.7    c-0.2-0.1-0.4-0.2-0.6-0.4c-5.6-3.8-2.7-17.9-1.7-23.7c0.4-2,0.8-4.1,1.2-6.1c0.6-2.4,1.2-4.9,1.9-7.3c2.2-7.4,5-14.6,8.3-21.5    c0.8-1.6,1.6-3.3,2.4-4.9l0.1-0.2c3.7-7.1,7.8-14.1,12.2-20.8c0.8-1.3,1.6-2.5,2.5-3.8c2.8-4.2,5.7-8.3,8.7-12.4    c1-1.5,2.1-2.9,3.2-4.3l2.4-3.3c4.5-6.2,9.1-12.4,13.4-18.8c0.8-1.1,1.5-2.3,2.2-3.4c1.2-1.8,2.3-3.5,3.4-5.3    c2.6-4.2,5.1-8.6,7.4-13c0.7-1.3,1.4-2.7,2-4c0.4-0.9,0.8-1.8,1.3-2.7c0.9-1.9,4.8-9.6,6.7-15.2c0.1-0.4,0.3-0.7,0.6-1    c1-0.9,2.4-0.8,3.3,0.2c0.1,0.1,0.2,0.2,0.3,0.3l0,0c4.5,7.3,8,15.2,10.4,23.4c0.4,1.2,0.7,2.5,1,3.7    C420.3,81.8,421.3,90.5,421.2,99.2z"></path>
		<path class="st12" d="M396.4,109.2l24.8-9.9c0,1.3,0,2.6-0.1,3.9l-26.5,10.6c-3.7,8.6-8,17-12.9,25c1.4-0.3,2.8-0.6,4.2-0.9    c3-0.7,5.9-1.4,8.9-2.1c7.4-1.9,14.8-4.1,22-6.6c-0.4,1.4-0.8,2.8-1.2,4.2c-1.7,0.6-3.5,1.1-5.2,1.7c-6.3,2-12.7,3.8-19.2,5.3    c-3.2,0.8-6.4,1.5-9.5,2.1c-0.8,0.2-1.7,0.4-2.5,0.5c-4.2,6.8-8.8,13.3-13.6,19.6l-0.4,0.5c13.5-1.8,26.9-3.9,40.3-6.3    c-0.7,1.4-1.5,2.7-2.3,4c-13.6,2.3-27.3,4.4-41,6.3c-4.7,6-9.5,11.8-14.1,17.9c12.6-0.7,25.1-1,37.7-0.8c-1.1,1.2-2.2,2.4-3.4,3.5    c-12.4-0.1-24.7,0.2-37,0.9c-2.9,4-5.5,8.1-7.9,12.3c-1.1,2-2.1,3.9-3.1,6c1.3,0.3,2.7,0.4,4,0.6c5,0.8,10,1.5,15,2    c-1.9,1-3.8,2-5.8,2.9c-4.2-0.5-8.3-1.2-12.5-1.9c-0.8-0.1-1.6-0.3-2.3-0.5c-1.3,2.7-2.4,5.5-3.5,8.4c-1.2,0-2.4-0.2-3.5-0.7    c1.3-3.3,2.6-6.5,4.1-9.7c-0.2-0.4-0.4-0.7-0.5-1.1c-0.9-3.2-1.6-6.5-2.4-9.8s-1.5-6.4-2.3-9.6c0.6-2.4,1.2-4.9,1.9-7.3l3.5,14.5    c0.7,2.8,1.4,5.6,2,8.4c1.3-2.7,2.8-5.3,4.3-7.8c1.8-2.9,3.7-5.7,5.6-8.5l-7.2-28.2c0.8-1.6,1.6-3.3,2.4-4.9l7.5,29.4    c4.6-6.2,9.5-12.1,14.3-18.1c-2.9-10.8-6.1-21.6-9.5-32.2c0.8-1.3,1.6-2.5,2.5-3.8c3.5,10.8,6.7,21.6,9.7,32.5    c1-1.3,1.9-2.5,2.9-3.8c4-5.4,7.8-11,11.4-16.7c-0.2-0.4-0.4-0.8-0.5-1.2c-3.4-9.4-7.3-18.6-11.7-27.6l2.4-3.3    c1.9,3.9,3.8,7.9,5.5,11.9c2.4,5.4,4.5,10.8,6.6,16.4c3.6-5.9,6.9-12,9.9-18.2c1-2,1.9-4.1,2.8-6.2c-3.7-7.6-7.5-15.2-11.4-22.8    c0.8-1.1,1.5-2.3,2.2-3.4c3.8,7.2,7.4,14.5,11,21.8c3.2-7.9,5.7-16,7.6-24.3c-0.2-0.1-0.3-0.3-0.5-0.6c-2.4-5.1-4.9-10.2-7.3-15.3    c0.7-1.3,1.4-2.7,2-4c2.3,4.8,4.6,9.6,6.9,14.4c2-11,2.6-22.1,1.7-33.2c1-0.9,2.4-0.8,3.3,0.2c0.1,0.1,0.2,0.2,0.3,0.3l0,0    c0.8,10.8,0.2,21.6-1.6,32.2c4.1-2.8,8.1-5.7,12-8.8c0.4,1.2,0.7,2.5,1,3.7c-4.6,3.5-9.2,6.8-14,10    C402.3,92.1,399.7,100.8,396.4,109.2z"></path>
		<path class="st13" d="M444.4,147.6c-0.4,0.9-0.8,1.7-1.2,2.6c-2.9,5.8-6.4,11.4-10.5,16.4c-0.7,0.8-1.4,1.6-2.1,2.5    c-4.1,4.8-8.7,9.2-13.7,13.1c-0.9,0.7-1.8,1.4-2.7,2.1c-5.8,4.3-12.1,7.9-18.7,10.8c-1.1,0.5-2.2,1-3.3,1.4    c-8.4,3.4-17.2,5.6-26.2,6.5c-1.6,0.1-3.2,0.2-4.8,0.3c-1.8,0.1-3.7,0.1-5.5,0c-2.3-0.1-6.1-0.1-8.7-1.2c-0.8-0.3-1.6-0.9-2.2-1.5    c-0.1-0.1-0.2-0.3-0.3-0.4c-2.7-4.2,3.4-13,5.8-16.6c0.8-1.3,1.7-2.6,2.6-3.8c1.1-1.5,2.2-3,3.4-4.4c3.7-4.4,7.7-8.4,12-12.2    c1-0.9,2-1.8,3.1-2.6l0.1-0.1c4.6-3.8,9.4-7.3,14.3-10.6c0.9-0.6,1.9-1.2,2.8-1.9c3.1-2,6.3-4,9.5-5.9c1.1-0.7,2.3-1.3,3.4-2    l2.6-1.5c4.9-2.9,9.8-5.8,14.6-8.9c0.8-0.6,1.7-1.1,2.5-1.7c1.3-0.9,2.6-1.8,3.9-2.7c3-2.1,6-4.4,8.8-6.7c0.9-0.7,1.7-1.4,2.5-2.2    c0.5-0.5,1.1-1,1.6-1.4c3.1-2.7,6.1-5.5,9-8.4c0.2-0.2,0.4-0.4,0.7-0.5c0.9-0.3,1.9,0.2,2.2,1.1c0,0.1,0.1,0.2,0.1,0.3l0,0    c0.9,6.3,1,12.7,0.3,19c-0.1,0.9-0.3,1.9-0.4,2.8C448.9,135.5,447,141.7,444.4,147.6z"></path>
		<path class="st0" d="M424.6,147.1l19.7,0.4c-0.4,0.9-0.8,1.7-1.2,2.6c-7-0.2-14.1-0.3-21.1-0.5c-5,4.8-10.4,9.2-16,13.3    c1,0.2,2.1,0.4,3.1,0.6c2.2,0.4,4.4,0.8,6.7,1.1c5.6,0.9,11.3,1.5,16.9,1.9c-0.7,0.8-1.4,1.6-2.1,2.5c-1.4-0.1-2.7-0.2-4-0.4    c-4.9-0.5-9.8-1.2-14.6-2c-2.4-0.4-4.8-0.8-7.1-1.3c-0.6-0.1-1.2-0.2-1.8-0.4c-4.9,3.4-9.9,6.5-15,9.4l-0.4,0.2    c9.7,2.7,19.4,5.1,29.2,7.4c-0.9,0.7-1.8,1.4-2.7,2.1c-10-2.4-19.9-4.9-29.8-7.7c-4.9,2.7-9.9,5.3-14.8,8.1    c8.8,3.2,17.4,6.7,25.9,10.5c-1.1,0.5-2.2,1-3.3,1.4c-8.4-3.7-16.9-7.1-25.5-10.1c-3.1,1.9-6.1,3.9-9,6.1c-1.3,1-2.6,2.1-3.9,3.1    c0.8,0.6,1.7,1.1,2.6,1.6c3.1,2,6.4,3.9,9.6,5.7c-1.6,0.1-3.2,0.2-4.8,0.3c-2.7-1.6-5.3-3.2-8-4.9c-0.5-0.3-1-0.6-1.4-1    c-1.6,1.5-3.3,3.1-4.8,4.7c-0.8-0.3-1.6-0.9-2.2-1.5c1.8-1.9,3.7-3.7,5.6-5.4c0-0.3,0-0.6,0-0.9c0.3-2.4,0.8-4.9,1.2-7.3    s0.8-4.8,1.2-7.2c1.1-1.5,2.2-3,3.4-4.4c-0.6,3.6-1.2,7.3-1.9,10.9c-0.4,2.1-0.7,4.2-1.1,6.3c1.7-1.4,3.4-2.8,5.2-4    c2-1.5,4.1-2.8,6.3-4.1l3.3-21.3c1-0.9,2-1.8,3.1-2.6c-1.2,7.4-2.3,14.8-3.5,22.2c4.9-2.9,10-5.5,15-8.2    c1.1-8.2,2.1-16.5,2.9-24.7c0.9-0.6,1.9-1.2,2.8-1.9c-0.8,8.4-1.7,16.7-2.9,25c1-0.6,2-1.2,3.1-1.8c4.3-2.5,8.5-5.2,12.6-8.1    c0-0.3,0-0.6,0-0.9c0.4-7.4,0.4-14.8,0.1-22.2l2.6-1.5c0.2,3.2,0.3,6.5,0.3,9.7c0,4.4-0.1,8.7-0.3,13.1c4.1-3,8.2-6.1,12-9.5    c1.3-1.1,2.5-2.2,3.7-3.4c-0.3-6.3-0.7-12.5-1.1-18.8c0.8-0.6,1.7-1.1,2.5-1.7c0.5,6,0.9,12,1.1,18c4.4-4.4,8.5-9.2,12.2-14.3    c-0.1-0.2-0.1-0.3-0.1-0.5l-0.5-12.5c0.9-0.7,1.7-1.4,2.5-2.2l0.5,11.8c4.6-6.9,8.2-14.3,10.9-22.1c0.9-0.3,1.9,0.2,2.2,1.1    c0,0.1,0.1,0.2,0.1,0.3l0,0c-2.6,7.6-6.1,14.8-10.5,21.5c3.6-0.7,7.2-1.6,10.8-2.5c-0.1,0.9-0.3,1.9-0.4,2.8    c-4.1,1-8.3,1.9-12.4,2.7C433.7,137.3,429.4,142.4,424.6,147.1z"></path>
		<rect x="201.7" y="273" class="st13" width="100.6" height="9.4"></rect>
		<circle class="st14" cx="365.1" cy="226.2" r="55.9"></circle>
		<circle class="st4" cx="365.1" cy="226.2" r="42.8"></circle>
		
			<ellipse transform="matrix(0.9326 -0.3608 0.3608 0.9326 -57.0099 146.9525)" class="st14" cx="365.1" cy="226.2" rx="28.5" ry="28.4"></ellipse>
		<circle class="st4" cx="365.1" cy="226.2" r="14.4"></circle>
		<path class="st15" d="M423.6,194.8l2,1l-53.9,29.6L367,228l-2.4-4.3l4.7-2.6l53.8-29.6l-0.2,2C422.9,194,423.2,194.5,423.6,194.8z    "></path>
		<path class="st15" d="M439.3,196.2l-5.6,3.1c-0.4,0.2-0.8,0.2-1.1,0l-6.9-3.6l-2-1c-0.4-0.2-0.7-0.7-0.6-1.2l0.2-2l0.8-7.8    c0-0.4,0.3-0.7,0.6-0.9l5.6-3.1c-0.3,0.2-0.6,0.5-0.6,0.9l-0.8,7.8l-0.2,2c0,0.5,0.2,1,0.6,1.2l2,1l6.9,3.6    C438.5,196.4,438.9,196.4,439.3,196.2z"></path>
		<path class="st11" d="M444.6,193.3l-5.4,3c-0.4,0.2-0.8,0.2-1.1,0l-6.9-3.6l-2-1c-0.4-0.2-0.7-0.7-0.6-1.2l0.2-2l0.8-7.8    c0-0.4,0.3-0.7,0.6-0.9l5.4-3c-0.3,0.2-0.6,0.5-0.6,0.9l-0.8,7.8l-0.2,2c0,0.5,0.2,1,0.6,1.2l2,1l6.9,3.6    C443.9,193.4,444.3,193.5,444.6,193.3z"></path>
		<path class="st15" d="M449.8,190.4l-5.2,2.8l0,0c-0.3,0.2-0.8,0.2-1.1,0l-6.9-3.6l-2-1c-0.4-0.2-0.7-0.7-0.6-1.2l0.2-2l0.8-7.8    c0-0.4,0.3-0.7,0.6-0.9l0,0l5.2-2.9c-0.3,0.2-0.6,0.5-0.6,0.9l-0.8,7.8l-0.2,2c0,0.5,0.2,1,0.6,1.2l2,1l6.9,3.6    C449.1,190.6,449.5,190.6,449.8,190.4z"></path>
		<path class="st11" d="M455,187.6l-5.2,2.8l0,0c-0.3,0.2-0.8,0.2-1.1,0l-6.9-3.6l-2-1c-0.4-0.2-0.7-0.7-0.6-1.2l0.2-2l0.8-7.8    c0-0.4,0.3-0.7,0.6-0.9l5.2-2.8c-0.3,0.2-0.6,0.5-0.6,0.9l-1,9.8c0,0.5,0.2,1,0.7,1.2l8.9,4.6C454.2,187.8,454.7,187.8,455,187.6z    "></path>
		<path class="st15" d="M460,184.9l-5,2.7c-0.4,0.2-0.8,0.2-1.1,0L445,183c-0.4-0.2-0.7-0.7-0.6-1.2l1-9.8c0-0.4,0.3-0.7,0.6-0.9    l5-2.7c-0.3,0.2-0.6,0.5-0.6,0.9l-1,9.8c-0.1,0.5,0.2,1,0.6,1.2l8.9,4.6C459.2,185,459.6,185,460,184.9z"></path>
		<path class="st11" d="M461,184.3l-1.1,0.6c-0.4,0.2-0.8,0.2-1.1,0l-8.9-4.6c-0.4-0.2-0.7-0.7-0.6-1.2l1-9.8c0-0.4,0.3-0.7,0.6-0.9    l1.1-0.6c0.6-0.3,1.3-0.1,1.6,0.5c0.1,0.2,0.2,0.4,0.2,0.6v8.1c0,0.4,0.2,0.8,0.6,1l6.8,4.3c0.6,0.3,0.7,1.1,0.4,1.7    C461.4,184,461.2,184.2,461,184.3z"></path>
		<path class="st11" d="M375.2,233.6l-19-1.6c-0.5-0.1-0.8-0.6-0.7-1.1c0,0,0-0.1,0-0.1l8.8-16.9c0.2-0.4,0.8-0.3,1.1,0.2l10.2,18.6    C375.9,233.1,375.7,233.6,375.2,233.6z"></path>
		<path class="st14" d="M88.9,270c-1,1.6-2.3,3-3.9,4c-3.2,2.2-7.2,3.5-10.5,4.6c-3.3,1.1-6.7,1.9-10.1,2.4    c-0.9,0.1-1.8,0.3-2.8,0.4s-1.8,0.2-2.7,0.2c-0.5,0-1,0.1-1.5,0.1c-0.1,0-0.3,0-0.5,0h-1.2h-1.3h-2.1l-1.4-0.1    c-1.3-0.1-2.5-0.2-3.8-0.3c-0.9-0.1-1.8-0.2-2.6-0.4c-5.3-0.9-10.3-2.9-14-6.6c-1.9-2-3.6-4.5-3.6-7.2s2.3-5.6,5-5.4    c1.2,0.2,2.3,0.7,3.3,1.4l5,3.1c-1.8-2.1-3.3-4.5-4.4-7.1c-1-2-1.3-4.3-1.1-6.6c0.3-2.3,1.9-4.2,4.1-4.8c1.9-0.3,3.7,0.3,5.1,1.6    c1.3,1.3,2.4,2.9,3.1,4.6c1.3,2.7,2.4,5.4,3.2,8.2c-0.3-6.8-0.3-14.1,3.9-19.4c0.4-0.6,1-1.1,1.6-1.4c1.3-0.4,2.7,0,3.6,1    c1.8,1.7,2.2,4.4,2.4,6.9c0.3,5,0,10-1,14.9c2.2-4.2,4.6-8.3,7.4-12.2c0.9-1.4,2.1-2.7,3.5-3.7c1.4-1,3.2-1.3,4.9-0.7    c1.6,0.8,2.7,2.5,2.8,4.3c0.1,1.8-0.3,3.6-1.1,5.2c-2.1,4.7-5.6,8.6-10,11.2c3.6-1.8,7.2-3.4,11-4.8c1.7-0.7,3.4-1.1,5.3-1.1    c1.8,0,3.6,0.9,4.6,2.4C90,266.4,89.9,268.4,88.9,270z"></path>
		<path class="st13" d="M47.1,281.3c-0.9-0.1-1.8-0.2-2.6-0.4c-5.1-4.1-9.7-8.6-13.9-13.6c-0.5-0.6,0.4-1.6,0.9-0.9    C36.1,271.8,41.4,276.9,47.1,281.3z"></path>
		<path class="st13" d="M39.5,252.8c4.3,9.6,8.6,19.2,12.9,28.9l-1.4-0.1c-4.2-9.4-8.4-18.8-12.6-28.2C38,252.6,39.1,252,39.5,252.8    z"></path>
		<path class="st13" d="M56.7,249c-0.3,10.9-0.7,21.8-1,32.7h-1.3c0.3-10.9,0.7-21.8,1-32.6C55.5,248.2,56.8,248.2,56.7,249z"></path>
		<path class="st13" d="M74.8,253.6c-6,8.9-11.3,18.3-15.9,27.9c-0.5,0-1,0.1-1.5,0.1c4.7-9.9,10.1-19.5,16.3-28.7    C74.1,252.2,75.3,252.9,74.8,253.6z"></path>
		<path class="st13" d="M84.7,269c-7.1,3.5-13.8,7.5-20.3,12c-0.9,0.1-1.8,0.3-2.8,0.4c7.1-5.1,14.6-9.6,22.4-13.5    C84.7,267.5,85.4,268.6,84.7,269z"></path>
		<path class="st13" d="M35.8,159.4c-0.5,0-1.1,0.2-1.5,0.6c-0.2,0.3-0.3,0.7-0.3,1.1c-0.2,7.1,3.7,13.9,9.4,18s13,5.8,20,5.5    c4.9-0.2,10.9-1,15.3-3.2c4.9-2.4,0-6.6-2.6-9c-7-6.2-15.5-10.4-24.7-12.3C46.3,159.1,41,158.9,35.8,159.4z"></path>
		<path class="st16" d="M48.4,190.7c-0.5,0.1-1,0.4-1.3,0.9c-0.1,0.4-0.1,0.8,0,1.2c1.4,6.9,6.7,12.7,13.2,15.5s14,2.7,20.8,0.9    c4.7-1.3,10.4-3.4,14.2-6.5c4.2-3.4-1.5-6.4-4.6-8.1c-8.2-4.5-17.5-6.7-26.9-6.5C58.6,188.1,53.4,189,48.4,190.7z"></path>
		<path class="st13" d="M79.7,102.9c0.3-0.4,0.8-0.7,1.3-0.8c0.4,0,0.8,0.2,1.1,0.5c5.8,4.1,8.8,11.4,8.7,18.4s-3.3,13.8-7.8,19.3    c-3.1,3.8-7.4,8.1-11.8,10.3c-4.9,2.4-5.3-4-5.5-7.5c-0.7-9.3,1.1-18.7,5.2-27.2C73.2,111.1,76.1,106.7,79.7,102.9z"></path>
		<path class="st13" d="M91.8,130.9c0.3-0.5,0.8-0.8,1.3-0.9c0.4,0,0.8,0.1,1.1,0.4c6,3.7,9.5,10.8,9.8,17.8s-2.4,14-6.5,19.7    c-2.9,4-6.8,8.5-11.1,11c-4.7,2.8-5.5-3.6-6-7.1c-1.3-9.3-0.1-18.7,3.4-27.4C85.8,139.5,88.5,135,91.8,130.9z"></path>
		<path class="st13" d="M107,155c0.3-0.7,1.1-1,1.8-0.7c0.1,0.1,0.3,0.1,0.4,0.2c5.5,3.4,8.7,9.9,9,16.3s-2.2,12.9-6,18.1    c-2.6,3.6-6.3,7.8-10.2,10.1c-4.3,2.5-5-3.4-5.5-6.6c-1.2-8.5-0.1-17.2,3.1-25.1C101.4,162.9,103.9,158.7,107,155z"></path>
		<path class="st13" d="M21,133.1c-0.5,0-1.1,0.2-1.5,0.6c-0.2,0.4-0.3,0.8-0.3,1.2c0,7.1,4.1,13.8,9.9,17.8s13.2,5.4,20.2,4.9    c4.9-0.3,10.8-1.3,15.2-3.6c4.8-2.5-0.2-6.6-2.9-8.9c-7.2-6-15.8-10-25-11.7C31.5,132.5,26.2,132.4,21,133.1z"></path>
		<path class="st13" d="M65.3,112.4c-1.7-8.3-6.1-15.8-11.4-22.4c-2.3-2.8-5-5.7-8.6-5.9c-5.5,12.5-5,26.8,1.1,39    c1.8,3.5,10.7,16.4,15.2,12.5C67,130.9,66.7,118.6,65.3,112.4z"></path>
		<path class="st0" d="M115.8,213.1c-5.8-4.2-11.2-8.9-16.2-14c8-11.1,11.9-24.7,11-38.4c-0.1-1.5-2.5-1.6-2.4-0.1    c0.9,13-2.7,26-10.3,36.7c-5.2-5.6-10-11.7-14.3-18.1l0.2-0.2c8.7-12.2,13-27,12-41.9c-0.1-1.7-2.8-1.8-2.6-0.1    c1,14.2-2.9,28.2-11.1,39.9c-0.4-0.6-0.8-1.3-1.2-1.9c-4.9-7.7-9.1-15.8-12.8-24.2c0.2-0.1,0.4-0.2,0.5-0.4    c9.5-11.6,14.7-26.1,14.7-41.1c0-1.7-2.6-2-2.6-0.3c0,14.2-4.8,28-13.7,39.1c-3.5-8.1-6.5-16.3-9.1-24.7    c-3.4-10.5-6.2-21.3-8.9-32c-0.4-1.7-3-0.9-2.5,0.7c4.8,19.3,10.3,38.6,18.1,57c-14,0.6-27.8-3.5-39.1-11.8    c-1.4-1-2.7,1.3-1.3,2.3c12.1,8.7,26.7,12.9,41.6,12c3.8,8.6,8.2,17,13.2,25c-14,0.2-27.7-4.3-38.8-12.8c-1.3-1-2.7,1.2-1.4,2.3    c11.9,9.1,26.6,13.8,41.6,13.2h0.3c3.7,5.6,7.7,11,12.1,16.1c0.7,0.8,1.4,1.6,2.1,2.4c-13.7,3.5-28.2,2.2-41.1-3.7    c-1.5-0.7-2.4,1.8-0.8,2.5c13.6,6.2,29,7.4,43.5,3.5c0.2,0,0.4-0.1,0.5-0.3c5.4,5.7,11.3,10.9,17.7,15.5    C115.9,216.4,117.2,214.1,115.8,213.1z"></path>
		<path class="st11" d="M18.9,211.9c-0.4,0.1-0.7,0.4-0.9,0.8c-0.1,0.3,0,0.6,0.1,0.9c1.8,5.1,6.6,8.8,11.8,10.2    c5.3,1.2,10.9,0.6,15.8-1.8c3.4-1.5,7.5-3.8,10-6.6c2.8-3.1-1.9-4.7-4.4-5.6c-6.7-2.4-14-3-21.1-1.8    C26.3,208.7,22.4,210,18.9,211.9z"></path>
		<path class="st11" d="M36.7,230.6c-0.3,0.2-0.6,0.6-0.7,1c0,0.3,0.1,0.6,0.3,0.9c2.9,4.6,8.4,7.1,13.8,7.3c5.4,0,10.7-1.9,15-5.3    c3-2.3,6.4-5.4,8.3-8.6c2-3.6-2.9-4.2-5.6-4.5c-7.1-0.8-14.3,0.2-20.9,3C43.2,225.8,39.7,227.9,36.7,230.6z"></path>
		<path class="st11" d="M34.1,159.2c0.1-0.4,0.4-0.8,0.7-1c0.3-0.1,0.6-0.1,0.9,0c5.3,1.3,9.5,5.6,11.4,10.7    c1.7,5.2,1.7,10.8-0.1,15.9c-1.2,3.6-3,7.8-5.5,10.6c-2.8,3.1-4.9-1.4-6.1-3.8c-3.1-6.5-4.5-13.6-4-20.8    C31.8,166.9,32.7,163,34.1,159.2z"></path>
		<path class="st11" d="M50.7,175.8c0.1-0.4,0.3-0.8,0.7-1c0.3-0.1,0.6-0.1,0.9,0c5.3,0.9,9.8,5,12,9.9c2.1,5,2.4,10.6,1,15.9    c-0.9,3.6-2.5,8-4.8,11c-2.6,3.3-5-1-6.3-3.4c-3.5-6.2-5.4-13.3-5.3-20.5C48.8,183.6,49.4,179.6,50.7,175.8z"></path>
		<path class="st11" d="M68.2,188.6c0.1-0.4,0.3-0.7,0.6-0.9c0.3-0.1,0.6-0.1,0.8,0c4.9,1.1,9,4.5,11,9.1c1.9,4.6,2.2,9.7,0.9,14.6    c-0.8,3.3-2.3,7.3-4.4,10.1c-2.4,3-4.6-1-5.8-3.1c-3.2-5.7-4.9-12.2-4.9-18.8C66.5,195.8,67.1,192.2,68.2,188.6z"></path>
		<path class="st11" d="M0.9,197.3c-0.4,0.2-0.7,0.5-0.9,0.9c-0.1,0.3,0,0.6,0.1,0.9c2,5,6.8,8.6,12.1,9.8c5.4,1,10.9,0.3,15.8-2.2    c3.4-1.6,7.3-4,9.8-6.9c2.7-3.2-2-4.7-4.6-5.5c-6.8-2.2-14.1-2.6-21.1-1.2C8.2,193.9,4.4,195.3,0.9,197.3z"></path>
		<path class="st11" d="M26.6,170c-3.6-5.4-8.8-9.5-14.4-12.7c-2.4-1.3-5.2-2.6-7.8-1.7c-0.3,10.4,4,20.4,11.8,27.4    c2.3,2,12.2,8.7,14.3,4.6C33,182.7,29.3,174.1,26.6,170z"></path>
		<path class="st12" d="M91,227.4c-5.3-1.3-10.5-3.1-15.4-5.4c2.6-10.2,1.5-20.9-3-30.4c-0.5-1.1-2.3-0.5-1.8,0.6    c4.3,9,5.4,19.3,3.1,29c-5.3-2.5-10.4-5.5-15.3-8.8c0-0.1,0.1-0.1,0.1-0.2c2.8-11.1,1.5-22.9-3.4-33.3c-0.6-1.2-2.5-0.5-1.9,0.7    c4.7,9.8,5.9,20.9,3.4,31.5l-1.4-1c-5.6-4.1-10.9-8.7-15.9-13.6c0.1-0.1,0.2-0.3,0.3-0.4c3.5-10.9,3.1-22.7-1.2-33.3    c-0.5-1.2-2.4-0.7-2,0.6c4.1,10.1,4.5,21.3,1.3,31.7c-4.7-4.8-9.2-9.8-13.5-15C19,173.5,14,166.7,9,159.8    c-0.8-1.1-2.4,0.2-1.6,1.2c8.9,12.4,18.2,24.6,29,35.4c-9.8,4.4-20.8,5.3-31.1,2.7c-1.3-0.3-1.5,1.7-0.3,2    c11.1,2.8,22.7,1.7,33-3.2c5.1,5.1,10.6,9.7,16.5,14c-9.9,4.1-20.9,4.7-31.2,1.8c-1.3-0.4-1.6,1.6-0.4,2c11,3.1,22.8,2.3,33.3-2.3    l0.2-0.1c4.2,3,8.6,5.6,13.2,8l2.2,1.1c-8.8,6.4-19.5,9.5-30.3,9c-1.3-0.1-1.2,2,0.1,2c11.4,0.5,22.7-2.9,31.9-9.8    c0.1-0.1,0.2-0.2,0.3-0.3c5.5,2.5,11.2,4.5,17,6C91.9,229.8,92.2,227.8,91,227.4z"></path>
		<path class="st4" d="M185,206.4v71.1c0,4.4-3.5,7.9-7.9,7.9H73.2c-4.4,0-7.9-3.5-7.9-7.9c0,0,0,0,0,0v-71.1H185z"></path>
		<path class="st17" d="M185,197v9.5H65.3V197c0-4.4,3.5-7.9,7.9-7.9c0,0,0,0,0,0h103.9C181.5,189.1,185,192.6,185,197z"></path>
		<path class="st11" d="M162.9,197.5c0,2.5-2,4.5-4.5,4.5s-4.5-2-4.5-4.5c0-2.5,2-4.5,4.5-4.5S162.9,195,162.9,197.5L162.9,197.5z"></path>
		<path class="st14" d="M176,197.5c0,2.5-2,4.5-4.5,4.5s-4.5-2-4.5-4.5c0-2.5,2-4.5,4.5-4.5S176,195,176,197.5L176,197.5z"></path>
		<rect x="72.2" y="217.5" class="st0" width="47.3" height="37.7"></rect>
		<rect x="125.7" y="218.4" class="st18" width="52.4" height="7.5"></rect>
		<rect x="125.7" y="232.2" class="st18" width="52.4" height="7.5"></rect>
		<rect x="125.7" y="247.4" class="st18" width="52.4" height="7.5"></rect>
		<path class="st11" d="M429.8,275c-1,1.6-2.3,3-3.9,4c-3.2,2.2-7.3,3.5-10.5,4.6c-3.3,1.1-6.7,1.9-10.1,2.4    c-0.9,0.1-1.8,0.3-2.8,0.4s-1.8,0.2-2.7,0.2c-0.5,0-1,0.1-1.5,0.1c-0.1,0-0.3,0-0.4,0h-1.2h-1.3h-2.1c-0.5,0-1,0-1.4-0.1    c-1.3-0.1-2.5-0.2-3.8-0.3c-0.9-0.1-1.8-0.2-2.6-0.4c-5.3-0.9-10.3-2.9-14-6.6c-1.9-2-3.6-4.5-3.6-7.2s2.3-5.6,5-5.4    c1.2,0.2,2.3,0.7,3.3,1.4l5,3.1c-1.8-2.1-3.3-4.5-4.4-7.1c-1-2-1.3-4.3-1.1-6.5c0.3-2.3,1.9-4.2,4.1-4.8c1.9-0.3,3.8,0.3,5.1,1.6    c1.3,1.3,2.4,2.9,3.1,4.6c1.3,2.7,2.4,5.4,3.3,8.2c-0.3-6.8-0.3-14.1,3.9-19.4c0.4-0.6,1-1.1,1.6-1.4c1.3-0.4,2.7,0,3.6,1    c1.8,1.7,2.2,4.4,2.4,6.9c0.3,5,0,10-1,14.9c2.2-4.2,4.6-8.3,7.4-12.2c0.9-1.4,2.1-2.7,3.5-3.7c1.4-1,3.2-1.3,4.9-0.7    c1.6,0.8,2.7,2.5,2.8,4.3c0.1,1.8-0.3,3.6-1.1,5.2c-2.1,4.7-5.6,8.6-10,11.2c3.6-1.8,7.2-3.4,11-4.8c1.7-0.7,3.4-1.1,5.2-1.1    c1.8,0,3.6,0.9,4.6,2.4C431,271.4,430.8,273.4,429.8,275z"></path>
		<path class="st12" d="M388.1,286.3c-0.9-0.1-1.8-0.2-2.6-0.4c-5.1-4.1-9.7-8.6-13.9-13.6c-0.5-0.6,0.4-1.6,0.9-0.9    C377.1,276.8,382.3,281.9,388.1,286.3z"></path>
		<path class="st12" d="M380.4,257.8c4.3,9.6,8.6,19.2,12.9,28.9c-0.5,0-1,0-1.4-0.1c-4.2-9.4-8.4-18.8-12.6-28.2    C378.9,257.6,380.1,257,380.4,257.8z"></path>
		<path class="st12" d="M397.7,254c-0.3,10.9-0.6,21.8-1,32.7h-1.3c0.3-10.9,0.6-21.8,1-32.6C396.4,253.2,397.7,253.2,397.7,254z"></path>
		<path class="st12" d="M415.7,258.6c-6,8.9-11.3,18.3-15.9,28c-0.5,0-1,0.1-1.5,0.1c4.7-9.9,10.1-19.5,16.3-28.7    C415.1,257.2,416.2,257.9,415.7,258.6z"></path>
		<path class="st12" d="M425.6,274c-7,3.5-13.8,7.5-20.3,12c-0.9,0.1-1.8,0.3-2.8,0.4c7.1-5.1,14.6-9.6,22.4-13.5    C425.7,272.5,426.4,273.6,425.6,274z"></path>
		<path class="st11" d="M150.5,307.9c0.4,0.4,0.7,0.9,0.9,1.4c0.1,1-0.4,2-1.4,2.3c-0.9,0.3-1.9,0.4-2.9,0.2c-2.6-0.4-5-1.5-7-3.1    c-0.7-0.5-1.3-1.2-1.8-1.9c-0.7-1.4-1.1-3-1.1-4.6c-0.1-0.3,0-0.6,0.1-0.9c0.2-0.2,0.4-0.3,0.6-0.4c2.1-0.8,4.8-1.6,6.4,0.2    C146.4,303.4,148.4,305.6,150.5,307.9z"></path>
		<path class="st11" d="M110.7,308.9c0.1,0.6,0,1.1-0.2,1.7c-0.5,0.9-1.5,1.3-2.5,1c-0.9-0.3-1.8-0.9-2.4-1.6    c-1.8-1.9-3-4.2-3.6-6.8c-0.2-0.8-0.3-1.7-0.2-2.5c0.3-1.6,1-3,1.9-4.3c0.2-0.3,0.4-0.5,0.7-0.6c0.2,0,0.4,0,0.6,0.1    c2.1,0.7,4.8,1.7,5,4.1C110.2,302.9,110.4,305.9,110.7,308.9z"></path>
		<path class="st19" d="M109.1,283.4c1-2.4,2.1-4.8,3-7.1l0.7-1.8c0.2-0.6,0.5-1.2,0.7-1.7c0.4-1.1,0.8-2.1,1.1-3.2    c0.3-0.9,0.4-1.9,0.5-2.9c0.1-1,0.1-2,0-3c-0.1-1.1-0.2-2.3-0.3-3.7l-0.4-3.9l-1.6-21.4l28.5-0.6c0.2,5.6,0.5,11.3,0.9,16.9    c0.4,5.6,0.8,11.3,1.3,17s0.9,11.4,1.4,17.1s0.9,11.4,1.2,17.2l-9.3,0.9c-0.8-5.6-1.6-11.3-2.4-16.9s-1.7-11.3-2.6-17    c-0.9-5.7-1.7-11.3-2.5-17.1c0-0.3-0.1-0.5-0.1-0.8c-0.4-0.1-0.7-0.2-1.1-0.3c-0.2,0-0.4,0-0.7,0l0.1,4l0.1,4c0,1.3,0.1,2.7,0,4.2    c0,1.6-0.1,3.3-0.4,4.9c-0.3,1.6-0.7,3.2-1.3,4.8c-0.5,1.4-1.1,2.8-1.7,4.2l-0.9,1.9l-0.9,1.8c-1.2,2.4-2.4,4.8-3.7,7.1    c-2.5,4.7-5.2,9.4-7.9,14l-8.2-4.5C104.8,292.8,107,288.1,109.1,283.4z"></path>
		<path class="st20" d="M149,239c0,0.2,0.1,0.3,0.2,0.5c0.1,0.2,0.3,0.2,0.5,0.2c0.2,0,0.4-0.2,0.5-0.4l0.6-0.9    c0.4,0.8,0.6,1.7,0.8,2.6c0.1,0.4,0.1,0.8,0.4,1c0.2,0.1,0.4,0.1,0.7,0c1-0.2,1.8-0.8,2.4-1.6c0.2-0.2,0.3-0.5,0.4-0.8    c0.1-0.4,0.1-0.7,0-1.1c-0.3-1.1-0.7-2.1-1.3-3c-0.5-0.9-1.1-1.8-1.7-2.7c0-0.1-0.1-0.1-0.2-0.2c-0.1,0-0.2,0-0.2-0.1    c-1.3,0-2.5,0.4-3.4,1.2c-0.3,0.2-0.6,0.6-0.6,1c-0.1,0.7,0.6,1.2,0.7,1.9C148.6,237.4,148.8,238.2,149,239z"></path>
		<path class="st14" d="M142,205L142,205c-1.7,1.6-3.9,2.5-6.2,2.6c3,10.2,7.1,20.1,12.1,29.4l6-3.2C148.9,224.6,144.9,215,142,205z    "></path>
		<path class="st4" d="M142.9,239c-0.3,0.4-0.8,0.6-1.4,0.6c-1,0.1-2,0.3-3,0.4c-2.4,0.3-4.8,0.5-7.3,0.6    c-5.6,0.3-11.2,0.2-16.8-0.3c-2-0.2-3.2,0.2-3.8-1.6s1-16.1,1.2-20.8c0.3-5,0.6-10,2.1-14.8s4.3-9.3,8.6-11.8    c0.5-0.3,1-0.5,1.5-0.8c1.9-0.9,4.1-1.2,6.2-1c2,0.3,4,1.2,5.6,2.5c2,1.7,3.6,3.9,4.6,6.4c1.8,4.4,1.9,9.2,2,13.9    c0.2,8.5,0.5,17.1,0.7,25.6C143.1,238.3,143,238.7,142.9,239z"></path>
		<path class="st14" d="M131.3,240.5c-5.6,0.3-11.2,0.2-16.8-0.3c-2-0.2-3.2,0.2-3.8-1.6s1-16.1,1.2-20.8c0.3-5,0.6-10,2.1-14.8    s4.3-9.3,8.6-11.8c0.5-0.3,1-0.5,1.5-0.8c1.3,1.2,2.3,2.7,3,4.3c3.3,6.4,4,13.9,4.2,21C131.6,224.1,131.6,232.3,131.3,240.5z"></path>
		<path class="st14" d="M142.9,239c-0.3,0.4-0.8,0.6-1.4,0.6c-1,0.1-2,0.3-3,0.4c0.3-10.7,0.2-21.4-0.4-32.2    c-0.1-5-0.8-10.1-2.1-14.9l-0.2-0.7c2,1.7,3.6,3.9,4.6,6.4c1.8,4.4,1.9,9.2,2,13.9c0.2,8.5,0.5,17.1,0.7,25.6    C143.1,238.3,143,238.7,142.9,239z"></path>
		<path class="st20" d="M150,189c0.4-0.2,0.9-0.1,1.2,0.3c0.3,0.3,0.4,0.8,0.5,1.2c0.2-1.3,0.4-2.7,0.6-4c0-0.7,0.3-1.3,0.6-1.8    c0.1-0.2,0.4-0.3,0.6-0.2c0.1,0.1,0.2,0.2,0.2,0.3c0.2,0.7,0.2,1.4,0.2,2.1c0,0.2,0,0.5,0,0.7c0.3,1,1.6,1.1,2.4,1.8    c0.6,0.6,0.8,1.4,0.8,2.2c-0.1,0.8-0.3,1.6-0.6,2.3c-0.3,0.8-0.6,1.7-1,2.5c-0.1,0.3-0.2,0.5-0.4,0.7c-0.2,0.1-0.5,0.2-0.7,0.2    c-0.8,0.1-1.6,0.1-2.4-0.1c-0.9-0.2-1.9-0.6-2.1-1.5s0.4-2,0.3-3C150.1,192.2,149.5,189.3,150,189z"></path>
		<path class="st14" d="M156.6,195.4c-1.9,7.4-4.6,14.5-8.1,21.2c-1.1,2.3-3.6,7.3-8.7,8c-0.3,0-0.7,0.1-1,0.1c-4.1,0-7-3.2-8.2-4.6    c-4.8-5.5-8.9-11.5-12.3-18c-0.9-1.8-0.2-4,1.5-4.9c0,0,0.1,0,0.1-0.1c0.5-0.2,1-0.4,1.6-0.4c1.4,0,2.6,0.8,3.2,2    c3.1,5.9,7,11.5,11.4,16.6c1.6,1.8,2.3,2.1,2.6,2.1c0.8,0,1.9-1.4,3.3-4.1c3.2-6.2,5.7-12.7,7.5-19.5c2.4,0,4.7,0.5,6.9,1.4    L156.6,195.4z"></path>
		<path class="st19" d="M115.3,176.6c-0.2,1.3-0.1,2.6,0.3,3.8c0.7,2.8,2.4,5.4,4.7,7.2c2.6,2,5.6,2.5,8.8,2.5    c0.9,0.1,1.8-0.2,2.4-0.9c0.3-0.8,0.3-1.7-0.1-2.5c-1.6-4.3-3.9-8.4-6.8-12c-1.4-1.8-3.5-3.7-5.9-2.8    C116.7,172.7,115.4,174.5,115.3,176.6z"></path>
		<path class="st20" d="M126.6,181.5v9.5c-0.1,1.9,1.3,3.5,3.2,3.6c1.9,0.1,3.5-1.3,3.6-3.2c0-0.1,0-0.2,0-0.4v-9.5H126.6z"></path>
		<path class="st21" d="M126.6,183.8v7c1.4-0.3,3.3-0.6,3.6-0.7c1.1-0.3,2.2-0.8,3.2-1.3c0.6-0.3,1.2-0.7,1.8-1.2    c2.1-1.6-0.1-2.5-1.8-3.2l0,0c-1.8-0.7-3.8-1.1-5.8-1.1c-0.2,0-0.4,0-0.6,0.1C126.8,183.5,126.6,183.6,126.6,183.8z"></path>
		<path class="st20" d="M138.9,174.8c2.5,5.6,1.5,11.4-3.1,13.5s-10.4-0.8-12.9-6.4s-0.7-11.8,3.9-13.8S136.4,169.3,138.9,174.8z"></path>
		<path class="st20" d="M125.4,181.9c1.1,1.4,1.1,3.3-0.1,4.2s-3,0.4-4.1-1s-1.1-3.3,0.1-4.2S124.3,180.5,125.4,181.9z"></path>
		<path class="st19" d="M130.4,174.8c2.1-0.7,4.1-1.7,5.8-3.1c1.7-1.4,2.8-3.5,2.9-5.7c0-2.3-1.5-4.3-3.6-4.9    c-1.6-0.2-3.3,0.2-4.7,1.1c-1.1,0.6-2.1,1.3-3,2.1c-0.3,0.3-0.6,0.5-0.9,0.7c-0.4,0.1-0.8,0.2-1.2,0.3c-3.2,0.5-6.1,2.3-8,5    c-0.7,0.9-1.1,2-1.3,3.2c-0.3,3.5,2.8,3.4,5.4,3.2C124.8,176.5,127.7,175.9,130.4,174.8z"></path>
		<path class="st19" d="M123.5,175.4c0.1,0.7,0.1,1.5,0.2,2.2c0.2,1.6,0.8,3.1,1.8,4.3c-0.3,0.5-0.8,0.8-1.3,1l-1.4-1    c-1.4-0.9-2.6-1.9-3.7-3.2c-1.1-1.2-1.6-2.9-1.4-4.5c0.1-0.6,0.4-1.2,0.8-1.6c0.4-0.4,1-0.6,1.6-0.6    C121.8,172.5,123.1,173.8,123.5,175.4z"></path>
		<path class="st4" d="M136.7,173.6c-1.2,0.5-1.9,1.8-1.7,3.1l-1.4,0.6c-1-1.2-2.8-1.4-4-0.4c-1.2,1-1.4,2.8-0.4,4s2.8,1.4,4,0.4    c1-0.8,1.3-2.2,0.8-3.4c0,0,0,0,0-0.1l1.3-0.6v0.1c0.6,1.4,2.3,2.1,3.8,1.5s2.1-2.3,1.5-3.8S138.2,173,136.7,173.6    C136.7,173.6,136.7,173.6,136.7,173.6L136.7,173.6z M132.3,181.2c-1.1,0.5-2.5,0-3-1.2c-0.5-1.1,0-2.5,1.2-3    c1.1-0.5,2.4,0,2.9,1.1C133.9,179.3,133.4,180.7,132.3,181.2C132.3,181.2,132.3,181.2,132.3,181.2z M138.8,178.3    c-1.1,0.5-2.5,0-3-1.2c-0.5-1.1,0-2.5,1.2-3c1.1-0.5,2.4,0,2.9,1.1C140.5,176.4,140,177.8,138.8,178.3    C138.8,178.3,138.8,178.3,138.8,178.3z"></path>
		
			<rect x="122.6" y="179.9" transform="matrix(0.9789 -0.2043 0.2043 0.9789 -34.1696 29.49)" class="st4" width="6.3" height="0.7"></rect>
		<path class="st18" d="M322.1,194c-4.8,7.1-11.4,12.9-19.1,16.7c-5.3,2.6-11,4.3-16.9,5c0.4,2.4,1,4.8,1.6,7.1    c0.1,0.2,0.2,0.4,0.3,0.6c16.5-2.2,31.2-11.3,40.5-25L322.1,194z"></path>
		
			<rect x="274.8" y="186.5" transform="matrix(0.9526 -0.3044 0.3044 0.9526 -50.9095 95.2937)" class="st15" width="10.8" height="48.9"></rect>
		<path class="st17" d="M277.7,219.8l9.6-3.1c0.8-0.3,1.7,0.2,1.9,1c0,0,0,0,0,0l10.9,34.1c1.1,3.4-0.8,7.1-4.3,8.2l0,0    c-3.4,1.1-7.1-0.8-8.2-4.2c0,0,0,0,0,0l-10.9-34.1C276.5,220.9,276.9,220,277.7,219.8C277.7,219.8,277.7,219.8,277.7,219.8z"></path>
		<polygon class="st11" points="262.7,180.1 263.7,164.9 267,163.9 276.6,175.6 275.5,185.1 269,187.2   "></polygon>
		<path class="st22" d="M267.1,184.9l8.7-2.8c1.2-0.4,2.6,0.3,3,1.5c0,0,0,0,0,0l0,0c0.4,1.2-0.3,2.6-1.5,3c0,0,0,0,0,0l-8.7,2.8    c-1.3,0.4-2.6-0.3-3-1.5c0,0,0,0,0,0l0,0C265.2,186.6,265.8,185.3,267.1,184.9C267.1,184.9,267.1,184.9,267.1,184.9z"></path>
		<path class="st4" d="M267.4,176.5c-0.3-0.9,0.2-1.9,1.1-2.2s1.9,0.2,2.2,1.1c0.3,0.9-0.2,1.9-1.1,2.2c0,0,0,0,0,0    C268.7,177.9,267.7,177.4,267.4,176.5C267.4,176.5,267.4,176.5,267.4,176.5z"></path>
		<path class="st4" d="M268.4,176l-3.7-11.4l1.1-0.4l3.7,11.5c0.1,0.3-0.1,0.6-0.4,0.7c0,0,0,0,0,0c-0.1,0.1-0.3,0.1-0.5,0    C268.6,176.3,268.5,176.2,268.4,176z"></path>
		<path class="st11" d="M276.6,219.5l11.5-3.7c0.8-0.2,1.6,0.2,1.8,1c0,0,0,0,0,0l0,0c0.2,0.8-0.2,1.6-1,1.8l-11.5,3.7    c-0.8,0.2-1.6-0.2-1.8-0.9l0,0C275.4,220.6,275.8,219.8,276.6,219.5C276.6,219.5,276.6,219.5,276.6,219.5z"></path>
		<path class="st11" d="M284.5,224.4L284.5,224.4c1.2-0.4,2.4,0.3,2.8,1.5l10.6,33.3c0.4,1.2-0.3,2.4-1.4,2.8c0,0,0,0,0,0l0,0    c-1.2,0.4-2.4-0.3-2.8-1.5L283,227.2C282.6,226,283.3,224.7,284.5,224.4z"></path>
		<path class="st11" d="M233.7,178.5l-0.9-0.5c3.2-6.2,9.7-10.7,19.2-13.6c3-0.9,6.1-1.6,9.1-2.3c4.7-0.9,9.3-2.2,13.8-3.9    c8.4-3.4,14.2-9.4,15.5-16.1l1,0.2c-1.4,7-7.4,13.3-16.1,16.8c-4.5,1.7-9.2,3-13.9,3.9c-3,0.7-6.1,1.4-9,2.3    C243.1,168.2,236.8,172.6,233.7,178.5z"></path>
		<path class="st11" d="M266.4,161.3c0.1,1.1-0.6,2.1-1.7,2.3s-2.1-0.6-2.3-1.7c-0.1-1.1,0.6-2.1,1.6-2.2    C265.1,159.4,266.2,160.1,266.4,161.3C266.4,161.3,266.4,161.3,266.4,161.3z"></path>
		<path class="st11" d="M235.3,177.9c0.1,1.1-0.6,2.1-1.7,2.3s-2.1-0.6-2.3-1.7c-0.1-1.1,0.6-2.1,1.6-2.2    C234,176,235.1,176.8,235.3,177.9C235.3,177.9,235.3,177.9,235.3,177.9z"></path>
		<path class="st11" d="M292.9,142.1c0.1,1.1-0.6,2.1-1.7,2.3s-2.1-0.6-2.3-1.7c-0.1-1.1,0.6-2.1,1.6-2.2    C291.6,140.2,292.6,141,292.9,142.1C292.8,142.1,292.8,142.1,292.9,142.1z"></path>
		<path class="st19" d="M319.2,176.1c5,0.4,9.3,3.8,11,8.6c0.7,2.3,0.8,4.7,1.2,7.1s1.3,4.8,3.1,6.2c1.3,0.9,2.9,1.2,4.2,2.1    c3,2,3.8,7,1.5,9.9c-0.5,0.5-1,1.1-1.4,1.7c-0.7,1.1-0.7,2.6-1.2,3.8c-0.5,1.1-1.4,2.1-2.4,2.8c-4.5,3.1-10.9,1.3-14.5-2.9    s-4.7-10.3-4.3-16c0.3-4.1,1.1-8.9-1.5-11.9c-1.7-2-4.3-2.6-6.7-3.1c-4.7-0.9-1.5-3.8,0.8-5.3C311.9,177,315.5,175.9,319.2,176.1z    "></path>
		<path class="st23" d="M294,311.5c-0.4,0.4-0.7,0.9-0.9,1.4c-0.1,1,0.4,2,1.4,2.4c0.9,0.4,1.9,0.4,2.9,0.2c2.6-0.4,5-1.5,7-3.1    c0.7-0.5,1.3-1.2,1.7-1.9c0.7-1.4,1.1-3,1.1-4.6c0.1-0.3,0-0.6-0.1-0.9c-0.1-0.2-0.3-0.3-0.5-0.3c-2.1-0.8-4.8-1.6-6.4,0.2    C298.1,307,296.1,309.3,294,311.5z"></path>
		<path class="st23" d="M333.9,312.5c-0.1,0.6,0,1.1,0.2,1.7c0.5,0.9,1.5,1.3,2.5,1c0.9-0.3,1.8-0.9,2.4-1.6c1.8-1.9,3-4.2,3.6-6.8    c0.2-0.8,0.3-1.7,0.2-2.5c-0.3-1.6-1-3-1.9-4.3c-0.1-0.3-0.4-0.5-0.7-0.6c-0.2,0-0.4,0-0.6,0.1c-2.1,0.7-4.8,1.7-5,4.1    C334.3,306.5,334.1,309.5,333.9,312.5z"></path>
		<path class="st11" d="M335.4,287c-1-2.4-2-4.8-3-7.1l-0.7-1.8c-0.2-0.6-0.5-1.2-0.7-1.7c-0.4-1.1-0.7-2.1-1-3.2    c-0.3-0.9-0.4-1.9-0.5-2.9c-0.1-1-0.1-2,0-3c0.1-1.1,0.2-2.3,0.3-3.7l0.4-3.9l1.6-21.4l-28.5-0.6c-0.2,5.6-0.5,11.3-0.9,16.9    c-0.4,5.6-0.8,11.3-1.3,17s-0.9,11.4-1.4,17.1s-0.9,11.5-1.2,17.2l9.3,0.9c0.8-5.6,1.6-11.3,2.4-16.9s1.7-11.3,2.5-16.9    c0.9-5.7,1.7-11.4,2.5-17.1c0-0.3,0.1-0.5,0.1-0.8c0.4-0.1,0.7-0.2,1.1-0.3c0.2,0,0.5,0,0.7,0l-0.1,4l-0.1,4c0,1.3-0.1,2.7,0,4.2    c0,1.6,0.1,3.3,0.4,4.9c0.3,1.6,0.7,3.2,1.3,4.8c0.5,1.4,1.1,2.8,1.7,4.2l0.9,1.9l0.9,1.8c1.2,2.4,2.4,4.8,3.7,7.1    c2.5,4.7,5.2,9.4,7.9,14l8.2-4.5C339.7,296.5,337.5,291.7,335.4,287z"></path>
		<path class="st15" d="M333.8,245.6c0,0.7-0.4,1.3-1.1,1.6c-7.6,2.5-15.5,3.5-23.5,3c-2.5-0.2-5-0.4-7.5-0.9l0,0    c-0.8-0.2-1.4-1-1.2-1.8c0,0,0-0.1,0-0.1c0-0.1,0.1-0.3,0.1-0.4c1-3.7,1.4-7.4,2.2-11.2c1-5.3,1.9-10.6,2.5-15.9    c0.5-3.7-0.3-10.1,2.8-12.9c3.6-3.3,9.4-5.4,14.1-3.4c0.5,0.2,1,0.4,1.4,0.7c4.2,2.7,5.8,8.6,6.7,13.1    C332,225.1,333.1,235.9,333.8,245.6z"></path>
		<path class="st20" d="M283.3,241c-0.9,0.1-1.9-0.3-2.5-1c-0.2-0.3-0.4-0.6-0.4-1c-0.2-0.6-0.1-1.2,0.1-1.7c0.4-0.5,1-0.8,1.7-0.8    c0.8-0.1,1.7-0.2,2.5-0.3c-0.5-0.2-0.9-0.6-1.1-1c-0.1-0.2-0.2-0.5-0.1-0.6c0.2-0.1,0.4-0.2,0.6-0.2l5.1,0.1c0.2,0,0.4,0,0.6,0.1    c0.1,0.1,0.2,0.2,0.3,0.4c0.5,0.9,0.8,1.9,0.8,2.9c0,1.1-0.4,1.3-1.4,1.8C287.6,240.6,285.5,241.1,283.3,241z"></path>
		<path class="st18" d="M325.1,213.2c0,0.7-0.2,1.4-0.6,2c-8,12.9-20.7,22.3-35.4,26c-0.5-0.9-0.9-1.8-1.2-2.7    c-0.5-1.5-0.8-3.1-1-4.7c5.5-1.5,10.8-3.8,15.6-7c6.2-4,11.4-9.4,15.2-15.6c1.1-1.9,3.6-2.4,5.4-1.3    C324.3,210.5,325,211.8,325.1,213.2L325.1,213.2z"></path>
		<path class="st19" d="M327.6,182.6c0.6,1,1,2.2,1,3.3c0.4,3-0.1,6.1-1.4,8.9c-1.3,2.8-3.6,4.9-6.5,6c-0.6,0.3-1.3,0.2-1.8-0.1    c-0.2-0.3-0.4-0.7-0.4-1.1c-0.6-4.7-0.6-9.5,0.1-14.2c0.1-1.3,0.5-2.5,1.2-3.7C321.7,179.1,325.9,180.2,327.6,182.6z"></path>
		<path class="st20" d="M320.4,194.9v9.5c0,1.9-1.5,3.4-3.4,3.4c-1.9,0-3.4-1.5-3.4-3.4c0,0,0,0,0,0v-9.5H320.4z"></path>
		<path class="st21" d="M320.4,197.2v7c-1.5-0.3-3.3-0.6-3.6-0.7c-1.1-0.3-2.2-0.8-3.2-1.3c-0.6-0.3-1.2-0.7-1.8-1.1    c-2.1-1.6,0.1-2.5,1.8-3.2l0,0c1.8-0.7,3.8-1.1,5.8-1.1c0.2,0,0.4,0,0.6,0.1C320.1,196.9,320.3,197.1,320.4,197.2z"></path>
		<path class="st20" d="M305.7,191.3c0,6.1,3.2,11,8.3,11s9.2-4.9,9.2-11s-4.1-11-9.2-11S305.7,185.2,305.7,191.3z"></path>
		<path class="st20" d="M320.9,192.4c-0.4,1.8,0.4,3.5,1.8,3.8s2.9-0.8,3.3-2.6s-0.4-3.5-1.8-3.8S321.3,190.6,320.9,192.4z"></path>
		<path class="st19" d="M320.6,191.1c-0.1,0.5-0.1,1.1,0.1,1.6c0.2,0.5,0.7,0.9,1.2,0.8c0.3-0.1,0.6-0.4,0.7-0.7    c1.5-2.3,2.3-5,2.1-7.8c0-0.7-0.2-1.4-0.7-1.9c-0.2-0.2-0.5-0.3-0.8-0.4c-0.5-0.2-1.1-0.3-1.7-0.2c-0.9,0.3-1.6,1-1.8,2    C319.1,186.9,320.7,188.7,320.6,191.1z"></path>
		<path class="st19" d="M306,179.6c-2.3,1.4-3.9,3.9-4.1,6.6c-0.1,0.9,0.2,1.9,0.9,2.6c0.4,0.3,0.9,0.5,1.4,0.6    c2.9,0.6,5.6-0.9,8.2-2.4c-0.1,1.1,1.3,1.7,2.4,1.9c2.8,0.3,5.7,0,8.4-1.1c1.5-0.5,2.7-1.5,3.3-2.9c0.7-2.1-0.8-4.3-2.6-5.6    C318.7,175.4,311.3,176.1,306,179.6z"></path>
		<rect x="346.7" y="157.7" width="20.5" height="4"></rect>
		<rect x="93.9" width="20.5" height="4"></rect>
	</g>
</g>
</svg>