<svg xmlns="http://www.w3.org/2000/svg" xmlns:xlink="http://www.w3.org/1999/xlink" viewBox="0 0 647.57 635.45"><defs><style>.cls-1{fill:#fbc4b3;}.cls-2{fill:#b77634;}.cls-3{fill:#f79f8e;}.cls-4{fill:#0f112a;}.cls-5{fill:url(#linear-gradient);}.cls-6{fill:#fff;}.cls-7{fill:url(#linear-gradient-2);}.cls-8{fill:url(#linear-gradient-3);}.cls-9{fill:url(#linear-gradient-4);}.cls-10{fill:#e7b470;}.cls-11{fill:#d99d56;}.cls-12{fill:url(#linear-gradient-5);}.cls-13{fill:url(#linear-gradient-6);}.cls-14{fill:url(#linear-gradient-7);}.cls-15{fill:url(#linear-gradient-8);}.cls-16{fill:#7dc1ea;}.cls-17{fill:#232323;}.cls-18{fill:#abdff8;}.cls-19{fill:#b3b3b3;}.cls-20{fill:#f48284;}.cls-21{fill:#f1625d;}.cls-22{fill:#e04033;}.cls-23{fill:#d3d3d3;}.cls-24{fill:#c2c1c1;}.cls-25{fill:#989898;}.cls-26{fill:#050709;}.cls-27{fill:#045a99;}.cls-28{fill:#898989;}.cls-29{fill:#482f2d;}.cls-30{fill:#2b79b7;}.cls-31{fill:#ddd;}.cls-32{fill:#cc8d46;}.cls-33{fill:#bc7a38;}.cls-34{fill:#4eb0e3;}.cls-35{fill:url(#linear-gradient-9);}.cls-36{fill:url(#linear-gradient-10);}.cls-37{fill:url(#linear-gradient-11);}.cls-38{fill:#333;}.cls-39{fill:#cd2927;}.cls-40{fill:#f9b4af;}.cls-41{fill:#f0dfed;}.cls-42{fill:url(#linear-gradient-12);}.cls-43{fill:url(#linear-gradient-13);}.cls-44{fill:#fbf4f9;}.cls-45{fill:url(#linear-gradient-14);}.cls-46{fill:#fbd0ca;}</style><linearGradient id="linear-gradient" x1="4.14" y1="317.09" x2="41.41" y2="317.09" gradientUnits="userSpaceOnUse"><stop offset="0" stop-color="#101137"></stop><stop offset="1" stop-color="#1d1753"></stop></linearGradient><linearGradient id="linear-gradient-2" x1="82.84" y1="210.04" x2="25.6" y2="292.72" gradientUnits="userSpaceOnUse"><stop offset="0.17" stop-color="#ffc546"></stop><stop offset="1" stop-color="#f36f56"></stop></linearGradient><linearGradient id="linear-gradient-3" x1="27.21" y1="270.86" x2="43.26" y2="270.86" xlink:href="#linear-gradient-2"></linearGradient><linearGradient id="linear-gradient-4" x1="64.95" y1="228.43" x2="37.12" y2="252.96" xlink:href="#linear-gradient-2"></linearGradient><linearGradient id="linear-gradient-5" x1="4.07" y1="277.06" x2="29.46" y2="277.06" xlink:href="#linear-gradient-2"></linearGradient><linearGradient id="linear-gradient-6" x1="62" y1="233.02" x2="45.26" y2="243.47" xlink:href="#linear-gradient-2"></linearGradient><linearGradient id="linear-gradient-7" x1="-31.09" y1="318.77" x2="14.79" y2="281.52" xlink:href="#linear-gradient-2"></linearGradient><linearGradient id="linear-gradient-8" x1="8.86" y1="266.06" x2="35.34" y2="266.06" xlink:href="#linear-gradient"></linearGradient><linearGradient id="linear-gradient-9" x1="48.7" y1="384.56" x2="74.67" y2="384.56" xlink:href="#linear-gradient"></linearGradient><linearGradient id="linear-gradient-10" x1="38.91" y1="382.06" x2="61.04" y2="382.06" xlink:href="#linear-gradient"></linearGradient><linearGradient id="linear-gradient-11" x1="108.38" y1="437.11" x2="141.19" y2="437.11" xlink:href="#linear-gradient"></linearGradient><linearGradient id="linear-gradient-12" x1="579.97" y1="391.3" x2="605.35" y2="391.3" xlink:href="#linear-gradient"></linearGradient><linearGradient id="linear-gradient-13" x1="600.09" y1="395.46" x2="635.51" y2="395.46" xlink:href="#linear-gradient"></linearGradient><linearGradient id="linear-gradient-14" x1="581.89" y1="321.35" x2="625.9" y2="321.35" xlink:href="#linear-gradient-2"></linearGradient></defs><g id="Layer_2" data-name="Layer 2"><g id="Layer_1-2" data-name="Layer 1"><path class="cls-1" d="M64.86,282.54s4.38,1.37,8.58,3.1,4.65,1.9,3.73,2.44c-.68.39-2.58-.2-3.54,0s1.55,2.18,2.63,5.73c1.56,5.13-2.91,4.53-5.63,2.62a29.87,29.87,0,0,1-3.88-3.66,46.89,46.89,0,0,0-4.88-4.8,19.71,19.71,0,0,1-4-4.66S61.48,280.83,64.86,282.54Z"></path><path class="cls-2" d="M26.21,217.91s-1.27-12.46-12-8.71-10,26.07-10,36.66a136.29,136.29,0,0,0,1.25,18.93S27.44,265.66,26.21,217.91Z"></path><path class="cls-3" d="M38.12,331.08S36.6,340.67,36.53,345a56.28,56.28,0,0,1-1.07,11.47c-.88,5-2.2,24.95-2.23,31.55s4,12.75,5.52,15.14-3.28,6.11-6.92,2.63-4-4.16-6.06-5.25-3.58-5.79-2-11S24.65,374,22.92,365s.79-20.44-.22-23.13S38.12,331.08,38.12,331.08Z"></path><path class="cls-4" d="M38.75,403.12a67,67,0,0,1,6,5.54c1.49,1.82-3.14,4.5-7.55,3s-8-5.69-11.53-8.82-4.36-4.16-4.19-7.68c.08-1.73,1.87-3.55,1.87-3.55s1.09,7.13,6.11,10.12C34.24,404.55,36.21,405,38.75,403.12Z"></path><path class="cls-1" d="M24.12,338.82s-.54,9.64-.6,13.93-.74,5.66-2,10.55-2.25,25.82-2.28,32.43,4,12.74,5.52,15.13-3.28,6.11-6.92,2.63-4-4.15-6.07-5.25-3.57-5.78-1.95-11,.84-15.48-.89-24.48,1.15-20.5.52-23.31C7.89,342.57,4.17,332,8.05,329.62,12.12,327.18,24.12,338.82,24.12,338.82Z"></path><path class="cls-4" d="M24.75,410.86a67.55,67.55,0,0,1,6,5.55c1.49,1.82-3.14,4.49-7.55,3s-8-5.69-11.53-8.82-4.36-4.16-4.19-7.68c.08-1.73,1.87-3.55,1.87-3.55s1.09,7.13,6.11,10.12C20.24,412.29,22.21,412.73,24.75,410.86Z"></path><path class="cls-5" d="M40.92,294.59s.22,10.62.39,19.44c.22,10.85,0,25.62,0,25.62S26.26,350.83,14,346.91c-.76-3.25-1.81-11.27-1.81-11.27a22.85,22.85,0,0,0-1.63,10.45c-2.78-.57-6.46-3.39-6.46-3.39S3.93,313,8.49,296.8,40.57,286.16,40.92,294.59Z"></path><path class="cls-6" d="M3.34,259.62c.84-5.85,14.14-13.76,14.14-13.76s2.18,6.51,4.21,8.11a51,51,0,0,1,5.48,5.78h0a44,44,0,0,0-2.45-11.32c-.64-1.73.33-6.81.33-6.81s.81-.2,2-.41c1.76,2,5.21,7.12,7.09,9.26s7.13,9.23,5.5,16a74.28,74.28,0,0,0-2,16.22c.17,3.27,3.62,13.67,3.62,13.67s-6.83,6.77-16,6.59c-9.42-.19-16.08-7.06-16.08-7.06s2.25-14.23,2-20.11A15.67,15.67,0,0,1,3.34,259.62Z"></path><path class="cls-7" d="M24.38,242.5S31.78,235.06,39,248c3.39,6,6.35,15.69,8.81,21.6,2.63,1.49,6.08,3.73,9.64,6.06,3.13,2,9.79,6.64,9.79,6.64A10.32,10.32,0,0,0,64.34,286a16.68,16.68,0,0,0-1.26,4.6,42.83,42.83,0,0,1-11.66-4.12c-5.1-2.76-7.07-4.12-9.26-6.51C35.16,272.29,24.38,242.5,24.38,242.5Z"></path><path class="cls-8" d="M27.21,247.32s2.88,8.19,5.55,15.4S35.39,290,36.17,293c1.27,4.87,4.75,6.77,7.09,5.09,0,0-5.36-23.51-3.59-31.58S39.5,256.38,34,249.1s-5.34-5.91-5.34-5.91Z"></path><path class="cls-9" d="M28.68,244.72c2.12,2.86,6.13,8.31,6.13,8.31l-1.57,2.2a8.5,8.5,0,0,1,2.42,2.23c0,3.66-1.12,13.94-1.12,13.94s-2.26-11.5-8.13-21c-1.91-3.08-.8-3.12-.8-3.12S27.68,244.6,28.68,244.72Z"></path><path class="cls-10" d="M25,216.21s-2.21-4.35-6.55-2.44a6.91,6.91,0,0,0-4,6.54Z"></path><path class="cls-3" d="M25.7,242.4s-.07,5.81,1,8.92c2,4.81-3.69,4.73-5.62,3.18a24.09,24.09,0,0,1-6.12-6.92l1.13-15.76Z"></path><path class="cls-1" d="M19.77,221.64c3.94-2.71,13-3.2,15.83,6.26,3,9.93-6.45,21.68-11.06,19.39C22,246,16.78,243,15.47,237.75,14,231.88,16.71,223.74,19.77,221.64Z"></path><path class="cls-11" d="M15.67,236.15c-.2,1.6,0,2.78-.26,4.49C13.5,236.7,12.18,233.53,12,229c-.39-9.6,5.4-11.69,8.18-12.68,5.56-2,9.21.13,14.12,5.11,3,3,4.21,6.41,4,11.73,0,0-8.21,5.28-13,6-1.65.26-3.72-.47-5.4-1.26a10.17,10.17,0,0,0-2.25-2.24C17,235.22,15.75,235.46,15.67,236.15Z"></path><path class="cls-12" d="M14.84,245.86a51.7,51.7,0,0,1,11.42,23.33c.79,3.88,2.73,12.39,3.12,19.8.41,7.83-.83,14.51-3.84,16.85-9.06,7.07-20.09-3.62-20.09-3.62s4.39-14.78,3.62-19.33-6.49-24.43-4.63-27.66S14.84,245.86,14.84,245.86Z"></path><path class="cls-13" d="M15.29,242.33s4.76,9.61,6.6,12.9a44.15,44.15,0,0,1,5.32,19.32l-9.54-12.07L19.29,259l-3.53-2.39s-3.33-6.46-3.51-8C11.93,245.84,15.29,242.33,15.29,242.33Z"></path><path class="cls-1" d="M24.38,298.77a14.31,14.31,0,0,0,4.42,1.9,17.54,17.54,0,0,1,5,2.27c2,1.47,5.37,2.9,4.47,3.47s-3.26-.21-4.26-.5.3,2,1.9,3.83,2.47,3.83,1.61,6.13-6.3-2.38-8.38-4.52c-2.57-2.65-6.37-7.3-6.37-7.3Z"></path><path class="cls-14" d="M.19,283.64C.3,278.42-.07,272,0,266.3s1.4-11.84,6.33-12.62c3.5.91,7,5.93,7.84,11.72.73,5.05-.34,17.82-.68,21.46,1.89,1,16.68,12.6,16.68,12.6a13.1,13.1,0,0,0-3.82,4.59,12.81,12.81,0,0,0-1.07,4.65S8.84,300.24,4.07,297,.06,289.33.19,283.64Z"></path><path class="cls-15" d="M32.34,286.25l.5-1.27c.2-.52,3.78-20.05,2-28.12a25.79,25.79,0,0,0-5.18-11c-.32.2-.5.53-.88.66a24.2,24.2,0,0,1,4.94,10.58c1.36,6.28-.35,22.83-1.51,26.2-1.45-2.88-6.64-17.49-12.55-24.09C15.92,255,11,251,9.84,249.87a.57.57,0,1,0-.81.81c1.22,1.2,6.12,5.2,9.8,9.3,7.37,8.22,12.91,24.94,13,25Z"></path><polygon class="cls-16" points="35.59 278.97 36.35 290.49 36.35 290.5 29.04 294.73 28.27 283.2 35.59 278.97"></polygon><polygon class="cls-17" points="35.11 280.04 35.19 281.33 28.98 284.93 28.89 283.63 35.11 280.04"></polygon><polygon class="cls-6" points="32.92 283.75 33.47 291.32 29.7 293.49 29.16 285.93 32.92 283.75"></polygon><polygon class="cls-18" points="341.21 5.07 341.54 187.54 519.79 291.71 519.46 109.72 341.21 5.07"></polygon><polygon class="cls-6" points="355.08 45.23 355.33 183.1 508.86 272.35 508.61 134.85 355.08 45.23"></polygon><polygon class="cls-19" points="519.65 291.71 521.81 290.54 521.81 113.15 519.65 114.33 519.65 291.71"></polygon><polygon class="cls-20" points="516.73 113.01 331.65 4.67 339.65 0 524.73 108.34 516.73 113.01"></polygon><polygon class="cls-21" points="516.73 113.01 331.65 4.63 331.65 19.22 516.73 127.6 516.73 113.01"></polygon><polygon class="cls-22" points="524.73 108.34 516.73 112.98 516.73 127.6 524.73 122.96 524.73 108.34"></polygon><polygon class="cls-17" points="502.04 242.05 359.89 159.07 359.89 157.84 502.04 240.82 502.04 242.05"></polygon><polygon class="cls-17" points="502.04 221.51 359.89 138.52 359.89 137.29 502.04 220.28 502.04 221.51"></polygon><polygon class="cls-17" points="502.04 200.96 359.89 117.98 359.89 116.75 502.04 199.74 502.04 200.96"></polygon><polygon class="cls-17" points="502.04 180.42 359.89 97.43 359.89 96.21 502.04 179.19 502.04 180.42"></polygon><polygon class="cls-17" points="502.04 160.13 359.89 77.14 359.89 75.92 502.04 158.9 502.04 160.13"></polygon><polygon class="cls-17" points="502.04 139.59 359.89 56.6 359.89 55.37 502.04 138.36 502.04 139.59"></polygon><polygon class="cls-10" points="364.38 180.97 378.32 108.88 388.05 142.9 402.63 96.93 409.62 121.97 413.57 112.91 423.6 143.16 436.06 114.97 449.51 160.54 455.81 138.35 463.9 180.46 371.87 184.53 364.38 180.97"></polygon><polygon class="cls-22" points="368.02 183.09 378.63 130.25 388.35 160.15 402.63 124.34 408.41 143.5 419.65 102.11 429.38 147.73 436.06 129.96 444.26 157.48 448.33 147.53 458.86 175.25 468.13 149.44 485.93 230.03 368.02 183.09"></polygon><polygon class="cls-16" points="498.67 259.36 483.28 193.85 474.39 208.5 458.86 132.58 446.16 188.08 437.87 163 429.38 184.1 423.9 161.66 416.61 191.02 410.84 174.48 405.07 186.68 390.48 101.12 375.89 177.05 371.34 165.03 368.02 183.09 498.67 259.36"></polygon><polygon class="cls-17" points="502.5 262.18 359.43 178.66 359.43 55.11 360.35 55.65 360.35 177.97 501.59 260.42 501.59 138.1 502.5 138.63 502.5 262.18"></polygon><polygon class="cls-23" points="601.04 387.02 641.26 363.8 635.4 360.5 595.18 383.72 601.04 387.02"></polygon><polygon class="cls-24" points="622.89 287.8 622.89 374.42 619.53 376.36 619.53 287.8 622.89 287.8"></polygon><polygon class="cls-19" points="619.53 286.95 619.53 376.36 613.74 373.02 613.74 286.95 619.53 286.95"></polygon><polygon class="cls-24" points="601.04 389.15 641.26 365.93 641.26 363.8 601.04 387.02 601.04 389.15"></polygon><polygon class="cls-19" points="601.04 389.15 595.18 385.85 595.18 383.72 601.04 387.02 601.04 389.15"></polygon><polygon class="cls-23" points="529.4 345.36 569.62 322.13 563.77 318.83 523.55 342.06 529.4 345.36"></polygon><polygon class="cls-24" points="551.25 246.75 551.25 332.75 547.89 334.69 547.89 246.75 551.25 246.75"></polygon><polygon class="cls-19" points="547.89 246.1 547.89 334.69 542.11 331.35 542.11 246.1 547.89 246.1"></polygon><polygon class="cls-24" points="529.4 347.48 569.62 324.26 569.62 322.13 529.4 345.36 529.4 347.48"></polygon><polygon class="cls-19" points="529.4 347.48 523.55 344.18 523.55 342.06 529.4 345.36 529.4 347.48"></polygon><polygon class="cls-25" points="523.55 245.01 645.42 315.45 645.42 214.5 523.55 143.72 523.55 245.01"></polygon><polygon class="cls-6" points="528.41 151.91 528.62 243.46 640.35 308.04 640.14 216.78 528.41 151.91"></polygon><polygon class="cls-19" points="528.65 152.07 527.4 151.35 527.4 242.78 640.39 308.08 640.39 306.63 528.65 242.06 528.65 152.07"></polygon><polygon class="cls-19" points="645.42 315.45 647.57 314.29 647.57 213.33 645.42 214.5 645.42 315.45"></polygon><polygon class="cls-24" points="525.71 142.55 523.55 143.72 645.42 214.5 647.57 213.33 525.71 142.55"></polygon><path class="cls-22" d="M552.05,202.47v21l15.73,9.08c0,11.58-7,16.9-15.73,11.88s-15.72-18.46-15.72-30S543.37,197.45,552.05,202.47Z"></path><path class="cls-16" d="M552.05,202.47c8.69,5,15.73,18.47,15.73,30.05l-15.73-9.08Z"></path><path class="cls-17" d="M578.58,209.82,577,206.11a4.4,4.4,0,0,1-.58-1.91c0-.64.3-.77.69-.55a2.14,2.14,0,0,1,.49.38.57.57,0,0,1,.17.48v.78l.84.41v-1.76a6.26,6.26,0,0,0-1.67-1.48c-1-.59-1.56-.11-1.56,1a6.18,6.18,0,0,0,.7,2.5l1.33,2.86-2.06-1.19v1.09l3.28,1.9Z"></path><path class="cls-17" d="M573.17,201.49l.16,1.78c-1.12-.53-2.08-.46-2.08,1.09a3.77,3.77,0,0,0,1.82,3.25,2.46,2.46,0,0,0,1.61.38l-.33-1.21a1.76,1.76,0,0,1-1.23-.24,1.67,1.67,0,0,1-.84-1.56c0-1.2,1.15-.68,2-.21l-.35-3.9-1.64-1a.44.44,0,0,1-.19-.42V199l-.78-.38v1.75Z"></path><path class="cls-17" d="M567.88,199.22a3,3,0,0,0,1.31,2.81c.82.47,1.26.05,1.26-1.27a3.09,3.09,0,0,0-1.3-2.78C568.39,197.55,567.88,197.87,567.88,199.22Zm.72.45c0-.95.24-1.1.56-.92s.58.67.58,1.63-.24,1.07-.56.88S568.6,200.67,568.6,199.67Zm.38,5.16-2.41-8.29h-.67l2.42,8.32Zm-4.58-4.24a3,3,0,0,0,1.31,2.8c.83.48,1.27.05,1.27-1.27a3.09,3.09,0,0,0-1.31-2.77C564.91,198.91,564.4,199.23,564.4,200.59Zm.73.45c0-1,.23-1.11.56-.92s.57.66.57,1.62-.23,1.07-.56.89S565.13,202,565.13,201Z"></path><rect class="cls-17" x="554.94" y="213.82" width="16.75" height="0.57" transform="translate(-1.61 423.92) rotate(-41.19)"></rect><path class="cls-17" d="M568.53,208.48a1.69,1.69,0,0,0,.7,1.34c.39.22.7,0,.7-.53a1.69,1.69,0,0,0-.7-1.35C568.84,207.72,568.53,208,568.53,208.48Z"></path><path class="cls-17" d="M616.88,208.64c-.93-.54-1.78-.65-1.78.81a3.21,3.21,0,0,0,.76,2c-.62-.15-1,.18-1,1.16a3.84,3.84,0,0,0,2.11,3.4l2.32,1.34v-.89l-.28-.19a.52.52,0,0,1-.23-.45v-5.12l.46.24V210Zm.85,3.5-.61-.35a1.83,1.83,0,0,1-1-1.6c0-.8.41-.74.94-.43l.67.38Zm0,3.28L617,215a1.93,1.93,0,0,1-1.07-1.78c0-.74.37-.92,1-.54l.82.47Z"></path><path class="cls-17" d="M612.9,211.29c0,1.08-.42,1.16-1.08.78a2.18,2.18,0,0,1-1.07-2v-4l.48.24v-.93l-2-1.13v.89l.27.19a.54.54,0,0,1,.24.47v3.93a4.06,4.06,0,0,0,2.07,3.48c1.35.78,2,.45,2-1.28v-4l.48.24v-.94l-2-1.15v.9l.27.18a.56.56,0,0,1,.24.51Z"></path><path class="cls-17" d="M606.23,207.77c0-.7.47-.62,1-.5.81.17,1.57.17,1.57-1.24a3.83,3.83,0,0,0-1.91-3.26,2.82,2.82,0,0,0-1.55-.45V204l.84.56v-.64c0-.21,0-.28.17-.26a1.8,1.8,0,0,1,1.4,1.66c0,.69-.48.6-1.09.49s-1.54-.11-1.54,1.31a4,4,0,0,0,2,3.4,3.05,3.05,0,0,0,1.67.51v-1.74l-.84-.57v.67c0,.21,0,.29-.18.27a2.21,2.21,0,0,1-.59-.24A1.79,1.79,0,0,1,606.23,207.77Z"></path><path class="cls-17" d="M604.12,202.24l.47.24v-.94l-2-1.15v.9l.27.18a.56.56,0,0,1,.24.5v5.08l-.47-.24v.93l2,1.15V208l-.27-.19a.52.52,0,0,1-.24-.5Z"></path><path class="cls-17" d="M602.1,206.54l-.3-.2a.48.48,0,0,1-.21-.44v-5.12l.47.24v-.94l-1.48-.86-2.34,3.72v-4.1l.54.28v-.94l-2-1.16v.9l.3.2a.49.49,0,0,1,.19.45v6.06l1,.56,2.38-3.76h0v4.17l-.54-.28v.94l2,1.16Z"></path><path class="cls-17" d="M596.27,204.06v-.89L596,203a.51.51,0,0,1-.24-.44v-5.13l.47.24v-.94l-3.77-2.18v1.83l.84.56v-.43c0-.22,0-.34.24-.21l1.22.7v1.89l-1.9-1.1v1.12l1.9,1.1v2.06l-1.33-.76a.47.47,0,0,1-.23-.49v-.55l-.84-.41v2Z"></path><path class="cls-17" d="M589,197.84c0-.69.47-.62,1.05-.5.81.18,1.57.18,1.57-1.23a3.84,3.84,0,0,0-1.91-3.27,2.87,2.87,0,0,0-1.55-.44v1.65l.84.56V194c0-.21,0-.29.18-.27a2.13,2.13,0,0,1,.53.22,1.64,1.64,0,0,1,.87,1.45c0,.68-.48.59-1.1.49s-1.54-.12-1.54,1.3a4,4,0,0,0,2,3.4,3.05,3.05,0,0,0,1.67.51v-1.74l-.84-.56v.67c0,.21,0,.29-.18.27a2.22,2.22,0,0,1-.59-.25A1.79,1.79,0,0,1,589,197.84Z"></path><path class="cls-17" d="M584.74,195.36c0-.7.47-.62,1-.5.82.17,1.57.17,1.57-1.24a3.82,3.82,0,0,0-1.9-3.26,2.85,2.85,0,0,0-1.55-.45v1.66l.84.56v-.64c0-.21,0-.28.17-.26a1.8,1.8,0,0,1,1.4,1.66c0,.69-.48.6-1.1.49s-1.54-.11-1.54,1.31a4,4,0,0,0,2,3.4,3,3,0,0,0,1.66.51v-1.74l-.84-.57V197c0,.21,0,.29-.17.27a2.4,2.4,0,0,1-.6-.24A1.8,1.8,0,0,1,584.74,195.36Z"></path><path class="cls-17" d="M581.49,194.64l-.27-.19A.51.51,0,0,1,581,194v-5.12l.47.24v-.94l-2.36-1.36c-1.21-.7-2-.36-2,1.12a4.26,4.26,0,0,0,2.13,3.74l.7.41v1.6l-.79-.43v.94l2.31,1.33Zm-2.11-4a2.19,2.19,0,0,1-1.21-2c0-1.13.49-1,1.3-.56l.5.29V191Z"></path><path class="cls-17" d="M576.62,192.72v-.89l-.27-.19a.51.51,0,0,1-.24-.45v-5.12l.47.24v-.94l-2-1.15v.9l.28.19a.52.52,0,0,1,.23.49v4.91l-1.36-.79c-.18-.1-.19-.25-.19-.46v-.77l-.84-.41v2.18Z"></path><path class="cls-17" d="M570.57,182.86l.51.23v-.89l-1.88-1.09-1.68,5.39h0l-.47-.24v.94l2.13,1.23v-.9l-.32-.21c-.17-.12-.25-.24-.19-.44l.17-.59,1.92,1.12.25,1.11-.49-.25v.93l1.9,1.1v-.89l-.27-.19a.66.66,0,0,1-.25-.45Zm0,3.41-1.54-.89.75-2.71h0Z"></path><path class="cls-17" d="M566.73,186.11l-.3-.2a.45.45,0,0,1-.21-.43v-5.12l.47.23v-.93l-1.49-.86-2.33,3.71h0v-4.09l.55.29v-.94l-2-1.16v.89l.3.21a.49.49,0,0,1,.19.45v6.06l1,.56,2.39-3.76h0v4.16l-.53-.27v.93l2,1.17Z"></path><polygon class="cls-22" points="619.67 285.07 625.03 288.17 625.03 238.94 619.67 235.84 619.67 285.07"></polygon><polygon class="cls-22" points="610.35 279.69 615.71 282.79 615.71 243.05 610.35 239.96 610.35 279.69"></polygon><polygon class="cls-22" points="601.01 274.3 606.37 277.39 606.37 242.68 601.01 239.58 601.01 274.3"></polygon><polygon class="cls-22" points="591.51 268.81 596.87 271.91 596.87 244.04 591.51 240.94 591.51 268.81"></polygon><polygon class="cls-22" points="582.57 263.65 587.93 266.75 587.93 246.88 582.57 243.78 582.57 263.65"></polygon><polygon class="cls-17" points="574.22 259.11 631.11 291.95 631.11 233.18 630.7 232.94 630.7 291.17 574.22 258.56 574.22 259.11"></polygon><path class="cls-19" d="M258.94,410c-1.09-8.33-2-15.52-12.86-9.27l-5.33,3.08-8.22,4.75-5.32,3.07c-10.84,6.26-11.78,14.53-12.86,24.12-1,8.7-3.22,33.91-3.24,34.17l2.18-1.36c0-.25,2.21-24.94,3.19-33.58,1.16-10.32,2.11-15.5,10.73-20.47l5.32-3.08,8.22-4.74,5.33-3.08c8.62-5,9.56-.89,10.73,8.08,1,7.52,3.15,29.66,3.17,29.89l2.2-1.15C262.16,440.24,259.92,417.61,258.94,410Z"></path><path class="cls-19" d="M260,441.62l3.26,1.9s-.47-15.46-1.06-21.25-3.29-18.8-3.29-18.8l-1.29,1Z"></path><path class="cls-19" d="M214.37,471.86l-3.26-1.9s3.76-28.64,4.4-33,3-14.67,3-14.67l3.61.9s-2.71,6.58-3.09,11S214.37,471.86,214.37,471.86Z"></path><path class="cls-25" d="M262.2,412c-1.09-8.34-2-15.53-12.86-9.27L244,405.75l-8.23,4.75-5.32,3.07c-10.84,6.26-11.78,14.54-12.86,24.12-1,8.7-3.22,33.92-3.24,34.17l2.18-1.35c0-.26,2.21-24.94,3.19-33.59,1.17-10.32,2.11-15.49,10.73-20.47l5.32-3.07,8.23-4.75,5.32-3.08c8.62-5,9.56-.88,10.73,8.08,1,7.52,3.15,29.67,3.17,29.89l2.2-1.15C265.42,442.14,263.18,419.51,262.2,412Z"></path><path class="cls-21" d="M258.38,397.87l-31.8,18.36c-11.49,6.63-15.64,6-19.33-2.93-3.41-8.25-13.56-34.95-15.19-39.39l4-2.3c.11.29,11.08,29.67,14.47,37.87,3.09,7.49,5.94,7.84,16.07,2l31.8-18.36Z"></path><path class="cls-19" d="M270.46,423.9l-5.58,3.23-5.32,3.07c-10.84,6.26-11.78,14.53-12.86,24.12-1,8.7-3.22,33.91-3.24,34.17l2.18-1.36c0-.25,2.21-24.94,3.19-33.58,1.17-10.32,2.11-15.5,10.73-20.47l5.32-3.08,6.53-3.77C271.09,425.46,270.78,424.68,270.46,423.9Z"></path><path class="cls-19" d="M246.72,490.39l-3.26-1.9s3.76-28.64,4.4-33,3-14.67,3-14.67l3.61.9s-2.7,6.58-3.09,11S246.72,490.39,246.72,490.39Z"></path><path class="cls-25" d="M270.67,427.57,268.14,429l-5.32,3.07C252,438.36,251.05,446.64,250,456.22c-1,8.7-3.22,33.92-3.24,34.17L248.9,489c0-.26,2.21-24.94,3.19-33.59,1.17-10.32,2.11-15.49,10.73-20.47l5.32-3.07,3.28-1.89C271.14,429.21,270.89,428.39,270.67,427.57Z"></path><path class="cls-20" d="M299.54,416.76l-41.16-23.65-20.72,12s11.27,33.75,15.79,35C265.42,443.25,299.54,416.76,299.54,416.76Z"></path><path class="cls-26" d="M310.49,434.27c-1.8-1.13-10.95,4.2-10.95,4.2l-12.63,4.23-.94,9.1a7.5,7.5,0,0,0,10.46,1.43c3.71-2.5,12.38-6.8,14.45-11.05S312.3,435.4,310.49,434.27Z"></path><path class="cls-26" d="M297.39,427c-1.8-1.13-10.95,4.2-10.95,4.2l-12.63,4.24-.94,9.09a7.49,7.49,0,0,0,10.46,1.43c3.71-2.5,12.38-6.79,14.45-11S299.2,428.09,297.39,427Z"></path><path class="cls-27" d="M289.26,399.5c-1.4-8.36-1.57-12.42-6.62-14.45-3-1.19-14.09,1.7-21.21,3.24-.91,6.41,0,13.64,3.4,19.14,2.42-1.3,4.81-2.61,7.06-3.84C272.74,405.69,289.32,399.85,289.26,399.5Z"></path><path class="cls-27" d="M287.77,426.14c-2.38,1.54-4.8,3-7.15,4.62a70.59,70.59,0,0,1-8.83,5.47c1.35.95,5.87,4.64,11.31,2.33,10.3-4.38,8.61-11,8.61-11S288.12,428.16,287.77,426.14Z"></path><path class="cls-27" d="M232.24,338.09c-4.22,3.63-9.09,21.92-9.7,27-.34,2.93-1.26,12.62,5.21,15.22,5.39,2.16,6.12-4,7.87-7,2.21-3.78,3.17-20,3.17-20l3.4-16.64S236.47,334.46,232.24,338.09Z"></path><path class="cls-1" d="M252.51,307.17c-3.59-2.48-10.48-1.71-13.47,4.61-1.66,3.5.68,12.91,1.05,19.52a16.06,16.06,0,0,1-1.49,8.41l4.57,1.88a13.77,13.77,0,0,0,9.34,0l-.15-8.12s4.92-.74,5.79-1.53c2.07-1.9,3.17-7.55,2.21-14.84C258.93,306.24,253.83,308.09,252.51,307.17Z"></path><path class="cls-27" d="M299.54,416.76c.28,1.6-10.29,5.68-11.09,8.9-.93,3.76-2.5,18.53-2.48,19.55,2.36,1.76,8.77,1.4,10.32.89a12.1,12.1,0,0,0,7.87-6.79c-1.13-9.5.79-27.64.29-31.33-1.15-8.48-2.83-15.2-7.88-17.22-3.59-1.44-11.58-.32-21.32,2.35-10.06,2.77-20.68,9.47-20.68,9.47l-22.25,1.16s-1.14,9,5.24,13.64,20,11.75,31,6c5.25-2.75,16.39-9.28,21.45-12.05C291.47,412.23,297.79,415.76,299.54,416.76Z"></path><path class="cls-28" d="M278.34,373.16,305.79,389c.61.36,1.11,0,1.11-.84V366.24a2.67,2.67,0,0,0-1.11-2.12l-27.45-15.85c-.61-.35-1.11,0-1.11.85V371A2.67,2.67,0,0,0,278.34,373.16Z"></path><polygon class="cls-28" points="306.49 389.08 305.03 389.9 305.15 388.22 306.49 389.08"></polygon><polygon class="cls-28" points="276.14 349.06 277.62 348.21 278.15 351.13 276.14 349.06"></polygon><path class="cls-19" d="M276.84,374l27.44,15.85c.62.35,1.12,0,1.12-.84V367.1a2.67,2.67,0,0,0-1.12-2.13l-27.44-15.84c-.61-.35-1.11,0-1.11.84v21.92A2.66,2.66,0,0,0,276.84,374Z"></path><polygon class="cls-26" points="276.69 371.51 304.43 387.53 304.43 366.31 276.69 350.29 276.69 371.51"></polygon><path class="cls-29" d="M288.79,380.13l3.54,2c.18.1.33,0,.33-.26h0a.81.81,0,0,0-.33-.63l-3.54-2c-.18-.11-.33,0-.33.25h0A.81.81,0,0,0,288.79,380.13Z"></path><polygon class="cls-6" points="278.15 372.36 303.03 386.72 303.03 367.38 278.15 353.01 278.15 372.36"></polygon><path class="cls-28" d="M254.08,390.08l26.51,15.3a3.09,3.09,0,0,0,2.77-.11l20.27-11.71c.82-.47.91-1.19.2-1.6l-26.51-15.3a3.06,3.06,0,0,0-2.77.12l-20.27,11.7C253.46,389,253.37,389.67,254.08,390.08Z"></path><rect class="cls-28" x="302.48" y="390.89" width="1.82" height="1.82" transform="translate(606.79 783.6) rotate(180)"></rect><rect class="cls-28" x="253.6" y="387.65" width="1.82" height="1.82" transform="translate(509.03 777.12) rotate(180)"></rect><path class="cls-19" d="M254.08,388.41l26.51,15.3a3.06,3.06,0,0,0,2.77-.12l20.27-11.7c.82-.47.91-1.19.2-1.6L277.32,375a3.09,3.09,0,0,0-2.77.11l-20.27,11.7C253.46,387.28,253.37,388,254.08,388.41Z"></path><polygon class="cls-25" points="262.43 383.67 288.7 398.84 302.03 391.14 275.76 375.98 262.43 383.67"></polygon><polygon class="cls-25" points="263.9 392.67 273.2 398.04 278.17 395.17 268.88 389.8 263.9 392.67"></polygon><polygon class="cls-28" points="300.88 391.11 299.04 390.05 297.73 390.81 299.56 391.87 300.88 391.11"></polygon><polygon class="cls-28" points="298.96 392.22 297.13 391.16 295.81 391.92 297.64 392.98 298.96 392.22"></polygon><polygon class="cls-28" points="297.05 393.33 294.57 391.9 293.25 392.66 295.73 394.09 297.05 393.33"></polygon><polygon class="cls-28" points="273.34 379.64 272.14 378.95 268.91 380.82 270.1 381.51 273.34 379.64"></polygon><polygon class="cls-28" points="295.13 394.43 292.65 393 291.33 393.76 293.81 395.19 295.13 394.43"></polygon><polygon class="cls-28" points="293.21 395.54 289.94 393.65 288.62 394.41 291.89 396.3 293.21 395.54"></polygon><polygon class="cls-28" points="273.16 383.96 268.27 381.14 266.95 381.9 271.84 384.72 273.16 383.96"></polygon><polygon class="cls-28" points="291.3 396.64 289.46 395.59 288.14 396.35 289.98 397.41 291.3 396.64"></polygon><polygon class="cls-28" points="298.58 389.79 296.75 388.73 295.43 389.49 297.27 390.55 298.58 389.79"></polygon><polygon class="cls-28" points="296.67 390.89 294.83 389.84 293.52 390.6 295.35 391.66 296.67 390.89"></polygon><polygon class="cls-28" points="296.27 388.45 294.44 387.39 293.12 388.15 294.95 389.21 296.27 388.45"></polygon><polygon class="cls-28" points="294.35 389.56 292.52 388.5 291.2 389.26 293.03 390.32 294.35 389.56"></polygon><polygon class="cls-28" points="293.98 387.13 292.14 386.07 290.82 386.83 292.66 387.89 293.98 387.13"></polygon><polygon class="cls-28" points="292.06 388.23 290.23 387.18 288.91 387.94 290.74 389 292.06 388.23"></polygon><polygon class="cls-28" points="291.67 385.79 289.83 384.74 288.51 385.5 290.35 386.56 291.67 385.79"></polygon><polygon class="cls-28" points="289.75 386.9 287.92 385.84 286.6 386.6 288.43 387.66 289.75 386.9"></polygon><polygon class="cls-28" points="289.37 384.47 287.54 383.41 286.22 384.17 288.06 385.23 289.37 384.47"></polygon><polygon class="cls-28" points="287.46 385.58 285.62 384.52 284.3 385.28 286.14 386.34 287.46 385.58"></polygon><polygon class="cls-28" points="287.06 383.13 285.22 382.07 283.9 382.83 285.74 383.89 287.06 383.13"></polygon><polygon class="cls-28" points="285.14 384.24 283.31 383.18 281.99 383.94 283.82 385 285.14 384.24"></polygon><polygon class="cls-28" points="294.05 391.6 292.22 390.54 290.9 391.3 292.73 392.36 294.05 391.6"></polygon><polygon class="cls-28" points="292.13 392.7 290.3 391.64 288.98 392.41 290.82 393.46 292.13 392.7"></polygon><polygon class="cls-28" points="291.74 390.26 289.9 389.2 288.58 389.96 290.42 391.02 291.74 390.26"></polygon><polygon class="cls-28" points="289.82 391.37 287.99 390.31 286.67 391.07 288.5 392.13 289.82 391.37"></polygon><polygon class="cls-28" points="289.44 388.94 287.61 387.88 286.29 388.64 288.12 389.7 289.44 388.94"></polygon><polygon class="cls-28" points="287.52 390.04 285.69 388.98 284.37 389.75 286.21 390.8 287.52 390.04"></polygon><polygon class="cls-28" points="287.13 387.6 285.3 386.54 283.98 387.31 285.81 388.36 287.13 387.6"></polygon><polygon class="cls-28" points="285.21 388.71 283.38 387.65 282.06 388.41 283.9 389.47 285.21 388.71"></polygon><polygon class="cls-28" points="284.84 386.28 283.01 385.22 281.69 385.98 283.52 387.04 284.84 386.28"></polygon><polygon class="cls-28" points="282.92 387.38 281.09 386.33 279.77 387.09 281.6 388.15 282.92 387.38"></polygon><polygon class="cls-28" points="282.52 384.94 280.69 383.88 279.37 384.64 281.2 385.7 282.52 384.94"></polygon><polygon class="cls-28" points="280.61 386.05 278.77 384.99 277.45 385.75 279.29 386.81 280.61 386.05"></polygon><polygon class="cls-28" points="280.22 383.61 278.39 382.56 277.07 383.32 278.9 384.37 280.22 383.61"></polygon><polygon class="cls-28" points="278.31 384.72 276.47 383.66 275.15 384.42 276.99 385.48 278.31 384.72"></polygon><polygon class="cls-28" points="289.31 393.28 287.47 392.23 286.15 392.99 287.99 394.05 289.31 393.28"></polygon><polygon class="cls-28" points="286.99 391.95 285.16 390.89 283.84 391.65 285.67 392.71 286.99 391.95"></polygon><polygon class="cls-28" points="284.7 390.62 282.86 389.56 281.55 390.32 283.38 391.38 284.7 390.62"></polygon><polygon class="cls-28" points="282.39 389.29 280.55 388.23 279.24 388.99 281.07 390.05 282.39 389.29"></polygon><polygon class="cls-28" points="280.09 387.96 278.26 386.91 276.94 387.67 278.78 388.73 280.09 387.96"></polygon><polygon class="cls-28" points="277.78 386.63 275.94 385.57 274.63 386.33 276.46 387.39 277.78 386.63"></polygon><polygon class="cls-28" points="275.48 385.3 273.64 384.24 272.32 385 274.16 386.06 275.48 385.3"></polygon><polygon class="cls-28" points="277.91 382.28 276.07 381.22 274.75 381.98 276.59 383.04 277.91 382.28"></polygon><polygon class="cls-28" points="275.99 383.38 274.16 382.32 272.84 383.08 274.67 384.14 275.99 383.38"></polygon><polygon class="cls-28" points="275.61 380.95 273.78 379.89 272.46 380.65 274.3 381.71 275.61 380.95"></polygon><polygon class="cls-28" points="273.7 382.06 271.86 381 270.55 381.76 272.38 382.82 273.7 382.06"></polygon><polygon class="cls-28" points="284.76 381.81 282.93 380.75 281.61 381.51 283.44 382.57 284.76 381.81"></polygon><polygon class="cls-28" points="282.85 382.92 281.01 381.86 279.69 382.62 281.53 383.68 282.85 382.92"></polygon><polygon class="cls-28" points="282.42 380.45 280.58 379.4 279.27 380.16 281.1 381.22 282.42 380.45"></polygon><polygon class="cls-28" points="280.5 381.56 278.67 380.5 277.35 381.26 279.18 382.32 280.5 381.56"></polygon><polygon class="cls-28" points="280.13 379.13 278.29 378.07 276.97 378.83 278.81 379.89 280.13 379.13"></polygon><polygon class="cls-28" points="278.21 380.24 276.38 379.18 275.06 379.94 276.89 381 278.21 380.24"></polygon><polygon class="cls-28" points="277.81 377.79 275.98 376.74 274.66 377.5 276.49 378.56 277.81 377.79"></polygon><polygon class="cls-28" points="275.89 378.9 274.06 377.84 272.74 378.6 274.57 379.66 275.89 378.9"></polygon><polygon class="cls-28" points="289 395.32 287.17 394.26 285.85 395.02 287.68 396.08 289 395.32"></polygon><polygon class="cls-28" points="286.69 393.98 284.85 392.93 283.53 393.69 285.37 394.75 286.69 393.98"></polygon><polygon class="cls-28" points="274.67 387.05 272.84 385.99 271.52 386.75 273.35 387.81 274.67 387.05"></polygon><polygon class="cls-28" points="272.38 385.72 270.54 384.66 269.23 385.43 271.06 386.48 272.38 385.72"></polygon><polygon class="cls-28" points="270.06 384.38 268.23 383.33 266.91 384.09 268.74 385.15 270.06 384.38"></polygon><polygon class="cls-28" points="267.79 383.08 266.39 382.27 265.07 383.03 266.47 383.84 267.79 383.08"></polygon><polygon class="cls-28" points="284.37 392.65 275.11 387.3 273.8 388.06 283.05 393.41 284.37 392.65"></polygon><polygon class="cls-26" points="299.92 395.32 302.52 393.82 302.52 392.98 299.92 394.49 299.92 395.32"></polygon><polygon class="cls-26" points="296.9 397.07 299.51 395.56 299.51 394.72 296.9 396.23 296.9 397.07"></polygon><path class="cls-30" d="M264.15,366.15c-.91-9.11-1.07-14.81-2.79-18.57s-8.85-6-8.85-6l-13-4.42A20,20,0,0,0,229,353.31c-.44,5.33,1.23,18.61,1.15,34.52-.09,15.48-.32,27,4.15,27.79,8.27,1.49,11.82,9.17,27.92,6.65,2.75-.43,12.66-7.32,14.13-16.31C274.32,394,265.44,379.08,264.15,366.15Z"></path><path class="cls-11" d="M254.32,322.06a4.22,4.22,0,0,0,1.93-1.13c.28-1.88,1.11-6.64,2.29-7.91,1.67-1.79,4-4.1,2.17-9.25-6.68.48-14.27-3.09-20.29-1.64-3.81.91-11.51,12.9-5,23,4.63,7.19,6.47,9.85,6.47,9.85s6.68-.63,8-9.72c.25-1.66-2.49-4.94-.56-6.7S254.15,320.77,254.32,322.06Z"></path><path class="cls-19" d="M290.63,424.09l-1.52,1.25a1.61,1.61,0,0,1-.66.32c.27,1.34.48,2.88.71,4.6,1,7.52,3.15,29.66,3.18,29.89l2.19-1.15c0-.23-2.26-22.86-3.24-30.43C291.09,427,290.89,425.49,290.63,424.09Z"></path><path class="cls-19" d="M291.52,423.36l-1.47,1.21,2.29,35.58,3.26,1.9s-.48-15.46-1.07-21.25C294.06,436.14,292.22,426.84,291.52,423.36Z"></path><path class="cls-25" d="M294.55,430.48a35.23,35.23,0,0,0-1.68-8.22h0l-2.23,1.82c.88,1.76,1.32,4.53,1.78,8.08,1,7.52,3.15,29.67,3.18,29.89l2.19-1.15C297.77,460.67,295.53,438,294.55,430.48Z"></path><path class="cls-21" d="M211.78,419.79l41.67,24s-9-23.1-12-30.38-7.1-18.18-7.1-18.18L194.2,373.73Z"></path><path class="cls-22" d="M299.54,421.52l-31.8,18.36c-11.49,6.63-15.65,6-19.34-2.93-3.4-8.26-13.55-34.95-15.18-39.4l4-2.3c.11.29,11.08,29.68,14.46,37.88,3.09,7.49,6,7.84,16.08,2l31.8-18.36Z"></path><polygon class="cls-20" points="196.04 371.61 192.06 373.91 233.22 397.55 237.2 395.25 196.04 371.61"></polygon><path class="cls-1" d="M282.86,379.05s6.13.66,8.57,1.95,2.11,6.83,1.39,8.79c-.24.65-1.44,4.29-2.78,3.51s0-3.1,0-3.1-2,2.27-2.62,1.9c-1.42-.84.52-2.81.52-2.81l-5-3.56Z"></path><path class="cls-27" d="M286.18,379.54a26.14,26.14,0,0,0-9.2-3.71c-1.68-5.4-7.76-26.71-16.76-29.69-2.84-.94-5.89,6.08-5,13a92.42,92.42,0,0,0,6.64,23.09c1.25,2.6,3.35,6.81,7.72,8.35,3.83,1.34,7.52,2.67,14,.48S291.61,382.8,286.18,379.54Z"></path><path class="cls-31" d="M236.64,339l2.64-4.73s6.16,2.58,9.74,3.75c6,2,7.15,5.67,7.15,5.67S244,344.55,236.64,339Z"></path><path class="cls-27" d="M236.64,336.12a27.11,27.11,0,0,0-3.76,5.77c-1.24,2.87,8.82,7.3,14.85,6.62a103.65,103.65,0,0,0,12.49-2.37A6.06,6.06,0,0,0,255,342C250.83,341.49,238.45,337.17,236.64,336.12Z"></path><path class="cls-19" d="M326.18,447.82c-1.08-8.35-2-15.57-12.89-9.29L308,441.61l-8.25,4.76-5.34,3.08c-10.87,6.28-11.81,14.58-12.9,24.19-1,8.73-3.23,34-3.25,34.27l2.19-1.36c0-.25,2.22-25,3.2-33.68,1.17-10.35,2.12-15.54,10.76-20.53l5.34-3.08,8.25-4.77,5.34-3.08c8.64-5,9.59-.89,10.76,8.11,1,7.53,3.16,29.74,3.18,30l2.2-1.15C329.41,478.11,327.17,455.41,326.18,447.82Z"></path><path class="cls-19" d="M327.23,479.49l3.27,1.91s-.48-15.51-1.07-21.32-3.3-18.85-3.3-18.85l-1.29,1Z"></path><path class="cls-19" d="M281.48,509.82l-3.27-1.91s3.78-28.72,4.42-33.11,3-14.72,3-14.72l3.61.91s-2.71,6.6-3.09,11S281.48,509.82,281.48,509.82Z"></path><path class="cls-25" d="M329.45,449.73c-1.08-8.35-2-15.57-12.89-9.3l-5.34,3.09L303,448.28l-5.34,3.08c-10.87,6.28-11.81,14.58-12.9,24.19-1,8.73-3.23,34-3.25,34.27l2.19-1.36c0-.25,2.22-25,3.2-33.68,1.17-10.35,2.12-15.54,10.76-20.53l5.34-3.08,8.25-4.77,5.34-3.08c8.64-5,9.59-.89,10.76,8.1,1,7.54,3.16,29.75,3.18,30l2.21-1.15C332.68,480,330.44,457.32,329.45,449.73Z"></path><path class="cls-21" d="M325.63,435.61,293.73,454c-11.52,6.65-15.69,6-19.39-2.94-3.41-8.28-13.59-35-15.23-39.51l4-2.31c.11.3,11.11,29.77,14.5,38,3.1,7.51,6,7.86,16.12,2l31.9-18.42Z"></path><path class="cls-1" d="M347.05,478.76c3.52-1.76,6.86-3.91,5.79-5.91a3.54,3.54,0,0,0-2.68-1.49c-3.24,1.07-4.86,1.79-4.86,1.79s.34-18.82,1.72-26.63c.46-2.57-11.84-2.66-11.84-2.66-.44,1.79-.82,17.62,0,27.26a28,28,0,0,1-.13,6.9c.84.36,2.56,1.12,3.85,1.7C340.66,480.52,343.54,480.52,347.05,478.76Z"></path><path class="cls-26" d="M334.9,483.14c1.18,2.8,3.89,2.54,9.37.57a47.19,47.19,0,0,0,12.33-6.29c3.46-2.56,3.49-2.9,3.95-4.63.64-2.42-2.89-3.78-8.77-2l-1.62.52a3.54,3.54,0,0,1,2.68,1.49c1.07,2-2.27,4.15-5.79,5.91s-6.39,1.76-8.15,1c-1.29-.58-3-1.34-3.85-1.7C334.69,480.37,334.2,481.46,334.9,483.14Z"></path><path class="cls-1" d="M361.35,487c3.52-1.76,6.86-3.91,5.79-5.92a3.54,3.54,0,0,0-2.69-1.49c-3.24,1.07-4.86,1.8-4.86,1.8s1.74-30.43,3.13-38.23c.46-2.58-12.72,2.17-12.72,2.17-.44,1.8-1.35,24.39-.52,34a27.85,27.85,0,0,1-.14,6.9c.84.37,2.57,1.12,3.86,1.71C355,488.78,357.83,488.78,361.35,487Z"></path><path class="cls-26" d="M349.2,491.4c1.18,2.8,3.89,2.54,9.37.56a47.18,47.18,0,0,0,12.33-6.28c3.45-2.56,3.49-2.9,4-4.63.64-2.42-2.9-3.78-8.78-1.95l-1.62.51a3.54,3.54,0,0,1,2.69,1.49c1.07,2-2.27,4.16-5.79,5.92s-6.39,1.76-8.15,1c-1.29-.59-3-1.34-3.86-1.71C349,488.63,348.49,489.72,349.2,491.4Z"></path><path class="cls-19" d="M358.63,466.41c-1.09-8.36-2-15.57-12.9-9.3l-5.34,3.08L332.15,465,326.81,468c-10.87,6.27-11.81,14.57-12.9,24.19-1,8.72-3.23,34-3.25,34.27l2.19-1.36c0-.26,2.22-25,3.2-33.69,1.17-10.34,2.11-15.54,10.76-20.53l5.34-3.08,8.24-4.76,5.34-3.08c8.65-5,9.59-.89,10.76,8.1,1,7.54,3.17,29.75,3.19,30l2.2-1.16C361.86,496.69,359.62,474,358.63,466.41Z"></path><path class="cls-19" d="M359.68,498.08,363,500s-.48-15.51-1.07-21.32-3.3-18.85-3.3-18.85l-1.29,1Z"></path><path class="cls-19" d="M313.93,528.41l-3.27-1.91s3.77-28.73,4.42-33.12,3-14.71,3-14.71l3.61.9s-2.71,6.6-3.1,11.05S313.93,528.41,313.93,528.41Z"></path><path class="cls-25" d="M361.9,468.32c-1.09-8.36-2-15.58-12.9-9.3l-5.34,3.08-8.24,4.76L330.08,470c-10.87,6.27-11.81,14.57-12.9,24.18-1,8.73-3.23,34-3.25,34.28l2.19-1.36c0-.26,2.22-25,3.2-33.69,1.17-10.34,2.11-15.54,10.76-20.53l5.34-3.08,8.24-4.76L349,461.9c8.65-5,9.59-.88,10.76,8.11,1,7.54,3.17,29.75,3.19,30l2.2-1.16C365.13,498.6,362.89,475.9,361.9,468.32Z"></path><path class="cls-20" d="M366.9,454.56l-41.27-23.72-20.79,12s11.31,33.84,15.84,35.06C332.69,481.13,366.9,454.56,366.9,454.56Z"></path><path class="cls-1" d="M319.69,344.49c1.33.92,6.23,2.06,7.67,13,1,7.33-1.47,10.61-3.55,12.52-.87.79-4.27.93-4.27.93l.15,8.17s-7.63,5-12.6,5.06C298,384.26,302,376,302,376s4.76-3.68,4.46-9c-.37-6.65-2-14.31-.34-17.83C309.16,342.76,316.09,342,319.69,344.49Z"></path><path class="cls-10" d="M290.59,448.9c1.4,10.17,14.22,13.11,24,12.57,9.29-.52,16.08-5.27,22.66-10.89-1.23-8.52-4.05-13.89-7.13-21.82-.77-2-3.57-13.81,2-25.64,2.71-5.79-2.59-17-4.32-20.8s-8.08-5.35-8.08-5.35-7.94,4.63-13.2,3.34a4.85,4.85,0,0,1-3.46-5.6c.31-1.77-1.81,0-1.81,0s-5.62,5.6-6.07,13.59c-.43,7.66.31,14.61,1.51,24.23.34,2.68,0,11.69-4.53,23.29C291.3,438,290.92,443.18,290.59,448.9Z"></path><path class="cls-1" d="M324.49,359.08s-2.87-4.92-4.1,0a5,5,0,0,0,2.84,6.1Z"></path><path class="cls-32" d="M348.84,426.93c-5.52-1.8-14.47-1.9-19.84-1.77a6.11,6.11,0,0,1-.21,3.92,18.67,18.67,0,0,1-5.22,7.06,20.21,20.21,0,0,1-10.49,5L300.93,458s5,8.43,27.39,3.41c20.52-4.6,34.34-8.67,34.63-14.82C363.45,436.15,360.12,430.6,348.84,426.93Z"></path><path class="cls-33" d="M329.28,425.35a11.38,11.38,0,0,1,.15,10.8c-2.91,6.13-6.28,8-9.25,11.76s7.39,4.84,10.32-1.37,2.85-11.9,5.37-12.66,6.49,8,9.73,7.35-4.69-15.7-4.69-15.7Z"></path><path class="cls-6" d="M329.24,425.12a13.23,13.23,0,0,1-5.11,10.18c-7.33,5.57-23.25,3.61-23.25,3.61l-.49,1.91S319.21,445,327,437.64c5.12-4.85,3.5-12.51,3.5-12.51Z"></path><path class="cls-21" d="M278.89,457.6l41.79,24.09s-9.07-23.17-12.06-30.47S301.49,433,301.49,433L261.26,411.4Z"></path><path class="cls-22" d="M366.9,459.33,335,477.74c-11.53,6.66-15.69,6-19.39-2.94-3.42-8.27-13.59-35-15.23-39.5l4-2.31c.11.29,11.11,29.76,14.51,38,3.1,7.5,6,7.86,16.12,2l31.89-18.41Z"></path><polygon class="cls-20" points="263.11 409.27 259.11 411.58 300.39 435.3 304.38 432.99 263.11 409.27"></polygon><polygon class="cls-11" points="347.46 429.77 330.67 420.26 345.52 392.49 362.27 402.07 347.46 429.77"></polygon><polygon class="cls-10" points="346.6 429.26 329.81 419.75 344.65 391.98 361.41 401.56 346.6 429.26"></polygon><polygon class="cls-6" points="346.47 426.57 331.77 418.24 344.77 393.92 359.44 402.31 346.47 426.57"></polygon><path class="cls-1" d="M356,413.87c-.93.58-3,2.52-4.33,2.39-1.11-.1-6.08-3.8-12.39-7.49-3-7.71-9.36-28.15-13.32-28.53-2.7-.26-5.51,4.66-5.24,10.8s7.39,20.32,12,25.6c3.26,3.72,16.72,7.14,21.05,5.64S358.26,415,356,413.87Z"></path><path class="cls-1" d="M352,416.6s0-2.29-.12-3.49c-.1-1.53.88-1.53,1.45-.53a29.35,29.35,0,0,1,1.46,3.66A7.75,7.75,0,0,1,352,416.6Z"></path><path class="cls-17" d="M311.33,341c-11.41,2.76-15.06,14.5-14.43,24.17.42,6.46.67,9.12,8.86,12.89s17.8-1.33,17.8-1.33-2.94-3-1.22-12.05a26.08,26.08,0,0,1,2-5.76c1.71-1.43,3.11-2.76,3.34-5.22C328.43,346,322.94,338.19,311.33,341Z"></path><path class="cls-19" d="M400.59,490.43c-1.09-8.36-2-15.58-12.89-9.3l-5.34,3.08L374.11,489l-5.34,3.09c-10.87,6.27-11.81,14.57-12.9,24.18-1,8.73-3.23,34-3.25,34.28l2.19-1.36c0-.26,2.22-25,3.2-33.69,1.17-10.34,2.11-15.54,10.76-20.53l5.34-3.08,8.25-4.76L387.7,484c8.64-5,9.58-.88,10.75,8.11,1,7.54,3.17,29.75,3.19,30l2.2-1.16C403.82,520.71,401.58,498,400.59,490.43Z"></path><path class="cls-19" d="M401.64,522.1l3.27,1.9s-.48-15.51-1.07-21.31-3.3-18.85-3.3-18.85l-1.29,1Z"></path><path class="cls-19" d="M355.89,552.42l-3.27-1.9s3.77-28.73,4.42-33.12,3-14.71,3-14.71l3.61.9s-2.71,6.6-3.1,11S355.89,552.42,355.89,552.42Z"></path><path class="cls-25" d="M403.86,492.33c-1.09-8.35-2-15.57-12.89-9.29l-5.34,3.08-8.25,4.76L372,494c-10.87,6.27-11.81,14.57-12.9,24.18-1,8.73-3.23,34-3.25,34.27l2.19-1.35c0-.26,2.22-25,3.2-33.69,1.17-10.34,2.11-15.54,10.76-20.53l5.34-3.08,8.25-4.76,5.34-3.09c8.64-5,9.58-.89,10.75,8.11,1,7.54,3.17,29.75,3.19,30l2.2-1.15C407.09,522.62,404.85,499.92,403.86,492.33Z"></path><path class="cls-1" d="M417.28,521.91c3.34-1.67,6.5-3.71,5.49-5.61a3.38,3.38,0,0,0-2.55-1.41c-3.07,1-4.61,1.7-4.61,1.7s.33-17.85,1.64-25.25c.44-2.44-11.22-2.53-11.22-2.53-.42,1.7-.79,16.71,0,25.85a27.09,27.09,0,0,1-.13,6.54c.79.35,2.43,1.06,3.65,1.62C411.22,523.57,414,523.57,417.28,521.91Z"></path><path class="cls-26" d="M405.76,526.06c1.11,2.65,3.69,2.41,8.88.54a44.78,44.78,0,0,0,11.69-6c3.28-2.43,3.31-2.75,3.75-4.39.6-2.3-2.75-3.59-8.32-1.85l-1.54.49a3.38,3.38,0,0,1,2.55,1.41c1,1.9-2.15,3.94-5.49,5.61s-6.06,1.66-7.73.91c-1.22-.56-2.86-1.27-3.65-1.62C405.56,523.43,405.09,524.47,405.76,526.06Z"></path><path class="cls-1" d="M434.66,528.38c3.34-1.66,6.51-3.7,5.49-5.6a3.4,3.4,0,0,0-2.54-1.42c-3.08,1-4.61,1.71-4.61,1.71s1.65-28.86,3-36.26c.44-2.43-12.06,2.07-12.06,2.07-.42,1.7-1.28,23.12-.49,32.25a27.16,27.16,0,0,1-.13,6.55c.79.35,2.43,1.06,3.65,1.61C428.6,530.05,431.33,530.05,434.66,528.38Z"></path><path class="cls-26" d="M423.14,532.54c1.12,2.65,3.69,2.41,8.88.54a44.71,44.71,0,0,0,11.7-6c3.27-2.42,3.31-2.74,3.74-4.38.61-2.3-2.75-3.59-8.32-1.86l-1.53.49a3.4,3.4,0,0,1,2.54,1.42c1,1.9-2.15,3.94-5.49,5.6s-6.06,1.67-7.73.91c-1.22-.55-2.86-1.26-3.65-1.61C422.94,529.91,422.47,530.94,423.14,532.54Z"></path><path class="cls-33" d="M406.63,488.35s.14,21.83,0,23,0,6.64,0,6.64,4.32,3.83,8.74,1.29a40.88,40.88,0,0,0,7.47-5.55l-2.48-38Z"></path><path class="cls-32" d="M422.25,494.64s.14,21.83,0,23,0,6.64,0,6.64,4.33,3.83,8.74,1.29a40.88,40.88,0,0,0,7.47-5.55l-1.87-40.34Z"></path><path class="cls-21" d="M400,478.22l-31.89,18.41c-11.52,6.65-15.69,6-19.39-2.94-3.42-8.28-13.59-35.05-15.23-39.51l4-2.3c.11.29,11.11,29.76,14.51,38,3.1,7.5,6,7.86,16.12,2L400,473.45Z"></path><path class="cls-19" d="M433,509c-1.09-8.36-2-15.57-12.9-9.3l-5.34,3.09-8.25,4.76-5.34,3.08c-10.87,6.28-11.8,14.58-12.89,24.19-1,8.73-3.23,34-3.25,34.27l2.19-1.36c0-.25,2.21-25,3.19-33.69,1.17-10.34,2.12-15.53,10.76-20.52l5.34-3.09,8.25-4.76,5.34-3.08c8.64-5,9.59-.89,10.76,8.1,1,7.54,3.16,29.75,3.19,30l2.2-1.15C436.27,539.3,434,516.6,433,509Z"></path><path class="cls-19" d="M434.09,540.68l3.27,1.91s-.48-15.51-1.07-21.32-3.3-18.85-3.3-18.85l-1.3,1Z"></path><path class="cls-19" d="M388.34,571l-3.27-1.91s3.77-28.72,4.42-33.11,3-14.72,3-14.72l3.62.9s-2.71,6.6-3.1,11.05S388.34,571,388.34,571Z"></path><path class="cls-25" d="M436.31,510.92c-1.09-8.36-2-15.57-12.9-9.3l-5.34,3.09-8.25,4.76-5.34,3.08c-10.87,6.28-11.8,14.58-12.89,24.19-1,8.72-3.23,34-3.25,34.27l2.19-1.36c0-.25,2.21-25,3.19-33.69,1.18-10.34,2.12-15.53,10.76-20.52l5.34-3.09,8.25-4.76,5.34-3.08c8.64-5,9.59-.89,10.76,8.1,1,7.54,3.17,29.75,3.19,30l2.2-1.16C439.54,541.21,437.3,518.51,436.31,510.92Z"></path><path class="cls-20" d="M441.31,497.16,400,473.45l-20.78,12s11.3,33.85,15.84,35.07C407.1,523.73,441.31,497.16,441.31,497.16Z"></path><path class="cls-11" d="M386.84,422.2c-2.75-1.31-5.06-6.12-10.43-1.08-4.46,4.18-6.74,15.25.51,21.57S386.84,422.2,386.84,422.2Z"></path><path class="cls-1" d="M396.56,391c1.26.88,5.9,2,7.27,12.31.91,6.95-1.39,10.06-3.37,11.87-.82.75-4,.88-4,.88l.14,7.75a13.14,13.14,0,0,1-8.9,0L383.3,422a15.41,15.41,0,0,0,1.42-8c-.36-6.3-2.59-15.27-1-18.6C386.56,389.36,393.14,388.62,396.56,391Z"></path><path class="cls-33" d="M408.38,467.69a179.56,179.56,0,0,1-18.06,3.65v25.93l.38,0c12.42-1.89,25.91-8.92,30.76-12.16C423.45,475,422.57,463.75,408.38,467.69Z"></path><path class="cls-32" d="M383.15,500.35c3.52,1.95,6.74,6.09,19.19,4.2s28.91-16.77,33.76-20c1.41-10.67-.8-14.54-15-10.6-10.59,2.94-27.52,5.72-27.52,5.72s-16.15-8.24-18.52-1.17C370.75,491.36,376.81,496.83,383.15,500.35Z"></path><path class="cls-28" d="M421.64,475.65l-11.11-6.4c-2.55-1.59-1.6-3.14-.43-5.36l10.18-19.44c1.17-2.22,2.06-4.3,5.18-2.5l11.48,6.51c2.42,1.51.66,3.76-.51,6l-10.58,20.18C424.59,477,423.41,476.85,421.64,475.65Z"></path><path class="cls-19" d="M420.75,475.12l-11.1-6.41c-2.56-1.58-1.6-3.14-.44-5.36l10.19-19.43c1.16-2.23,2.06-4.31,5.17-2.51l11.48,6.52c2.42,1.51.66,3.75-.5,6L425,474.08C423.7,476.45,422.52,476.31,420.75,475.12Z"></path><polygon class="cls-6" points="423.83 472.6 410.1 464.81 422.24 442.11 435.94 449.94 423.83 472.6"></polygon><polygon class="cls-6" points="417.18 471.47 413.98 469.62 414.63 468.47 417.83 470.31 417.18 471.47"></polygon><path class="cls-1" d="M400.16,467.64s2.92.54,7,1.39,5,1.13,5,1.13.63-.63-.37-1.89a7.14,7.14,0,0,0-3.41-1.82l4.33-3.08s-1.17-6.3-6.51-7.3a14.77,14.77,0,0,0-8.77.71Z"></path><path class="cls-10" d="M373.78,478.87C376,485,388,491.05,393.59,491c3.77-.06,8.39-.86,11.7-3.21s4.62-3.67,3.11-9.95c-.48-2-5.34-20-.09-31.21,2.58-5.49-3.25-15.45-4.89-19s-6.87-5.76-6.87-5.76l-13.4-1.58s-8,2.6-8,14.63c0,7.27,1.2,12.94,2.34,22.06.32,2.54,1.23,8.54-3.06,19.53A14.33,14.33,0,0,0,373.78,478.87Z"></path><path class="cls-11" d="M382.08,421.17s.67,2.18,5.09,3.59a16.1,16.1,0,0,0,12.79-1c0-2.87-3.48-4.15-3.48-4.15a12.94,12.94,0,0,1-8.45,0l-4.47-1.6Z"></path><path class="cls-17" d="M388.62,387.7c-5.91,1.24-12.12,5-9.92,17.55a19.85,19.85,0,0,0,4.95,8.41c1.17,1.2,2.55,2.48,2.84,4.16,4.74-.55,9.22-8,11.82-10.74s5.52-3.78,5.85-7.33C404.84,392.45,399.71,385.35,388.62,387.7Z"></path><path class="cls-1" d="M401.11,404.83s-2.72-4.66-3.89,0a4.74,4.74,0,0,0,2.69,5.79Z"></path><path class="cls-21" d="M353.3,500.2l41.79,24.09S386,501.13,383,493.82s-7.13-18.23-7.13-18.23L335.67,454Z"></path><path class="cls-22" d="M441.31,501.93l-31.9,18.42c-11.52,6.65-15.69,6-19.38-2.94-3.42-8.28-13.6-35-15.23-39.51l4-2.31c.11.29,11.11,29.77,14.5,38,3.1,7.51,6,7.86,16.12,2l31.9-18.42Z"></path><polygon class="cls-20" points="337.51 451.88 333.52 454.18 374.8 477.9 378.79 475.59 337.51 451.88"></polygon><path class="cls-1" d="M426.75,462.11a22.77,22.77,0,0,0,3.08-3.48c1.05-1.63,1.69-.48,1.53.43a15.29,15.29,0,0,1-1.08,3.15,5.82,5.82,0,0,1,2.58.43c.61.49,3.33,5.4-1.14,8.22s-8.92-1.8-8.92-1.8Z"></path><path class="cls-11" d="M427.36,460.83c-2.56-1.32-8.57-5.43-11.58-6.83a110.12,110.12,0,0,0-4.57-16.16c-3.19-8.18-6.45-13.31-11.25-11.47,0,0-3,1.73-3.31,9s.38,13.46,4.46,20.51c1.41,2.45,5.61,8.29,9.57,10.23,3.71,1.82,13.79,5.91,15.88,5.95C429.56,470.16,431.72,465.45,427.36,460.83Z"></path><path class="cls-17" d="M402.08,398s-.3,8.86-2.12,14.69-6.52,17.12-4.87,19.15a3.87,3.87,0,0,0,4.16,1.11s-.19,4.58-4.16,5.07a5.39,5.39,0,0,1-4.77-1.91s-.49,6.25-2,9c-3.09,5.48-8,3.38-8,3.38,1-1.23,1.79-2,1.14-5.68a19.31,19.31,0,0,0-1.43-4.76s-2.1,2.67-4.3,2.25c-3-.57-3.91-2.15-3.91-2.15s4.87-1.45,4.87-5.75c0-7.19-3.18-19.6-1.05-28.74,2.19-9.46,5-11.44,5-11.44Z"></path><path class="cls-19" d="M71,472.45c-1.08-8.36-2-15.57-12.89-9.3l-5.34,3.09L44.56,471l-5.34,3.08c-10.87,6.28-11.81,14.58-12.9,24.19-1,8.72-3.23,34-3.25,34.27l2.19-1.36c0-.25,2.22-25,3.2-33.69C29.63,487.15,30.58,482,39.22,477l5.34-3.09,8.25-4.76L58.15,466c8.64-5,9.59-.89,10.76,8.1,1,7.54,3.16,29.75,3.18,30l2.2-1.16C74.27,502.74,72,480,71,472.45Z"></path><path class="cls-19" d="M72.09,504.12,75.36,506s-.48-15.51-1.07-21.32S71,465.86,71,465.86l-1.29,1Z"></path><path class="cls-19" d="M26.34,534.45l-3.27-1.91s3.78-28.73,4.42-33.12,3-14.71,3-14.71l3.61.9s-2.71,6.6-3.09,11.05S26.34,534.45,26.34,534.45Z"></path><path class="cls-25" d="M74.31,474.36c-1.08-8.36-2-15.57-12.89-9.3l-5.34,3.08-8.25,4.77L42.49,476c-10.87,6.27-11.81,14.57-12.9,24.19-1,8.72-3.23,34-3.25,34.27l2.19-1.36c0-.26,2.22-25,3.2-33.69,1.17-10.34,2.12-15.53,10.76-20.52l5.34-3.09L56.08,471,61.42,468c8.64-5,9.59-.89,10.76,8.1,1,7.54,3.16,29.75,3.18,30l2.2-1.16C77.54,504.64,75.3,481.94,74.31,474.36Z"></path><path class="cls-1" d="M87.73,503.93c3.34-1.67,6.51-3.71,5.49-5.61a3.37,3.37,0,0,0-2.54-1.41c-3.08,1-4.61,1.7-4.61,1.7s.32-17.85,1.63-25.25c.44-2.44-11.22-2.53-11.22-2.53-.42,1.71-.79,16.71,0,25.85a27.18,27.18,0,0,1-.13,6.55c.79.34,2.43,1,3.65,1.61C81.67,505.6,84.4,505.6,87.73,503.93Z"></path><path class="cls-26" d="M76.21,508.08c1.12,2.66,3.69,2.41,8.88.54a44.47,44.47,0,0,0,11.69-6c3.28-2.43,3.32-2.75,3.75-4.39.61-2.3-2.75-3.58-8.32-1.85l-1.53.49a3.37,3.37,0,0,1,2.54,1.41c1,1.9-2.15,3.94-5.49,5.61s-6.06,1.67-7.73.91c-1.22-.56-2.86-1.27-3.65-1.61C76,505.46,75.54,506.49,76.21,508.08Z"></path><path class="cls-1" d="M105.12,510.41c3.33-1.67,6.5-3.71,5.48-5.61a3.34,3.34,0,0,0-2.54-1.41c-3.08,1-4.61,1.7-4.61,1.7s1.65-28.85,3-36.25c.44-2.44-12.06,2.06-12.06,2.06-.41,1.71-1.27,23.12-.49,32.26a26.58,26.58,0,0,1-.13,6.54c.8.35,2.43,1.06,3.65,1.62C99.05,512.08,101.78,512.08,105.12,510.41Z"></path><path class="cls-26" d="M93.59,514.56c1.12,2.66,3.69,2.41,8.89.54a44.93,44.93,0,0,0,11.69-6c3.28-2.43,3.31-2.75,3.74-4.39.61-2.3-2.74-3.58-8.32-1.85l-1.53.49a3.34,3.34,0,0,1,2.54,1.41c1,1.9-2.15,3.94-5.48,5.61s-6.07,1.67-7.74.91c-1.22-.56-2.85-1.27-3.65-1.62C93.39,511.93,92.93,513,93.59,514.56Z"></path><path class="cls-26" d="M77.08,470.37s.14,21.84,0,23S77,500,77,500s4.33,3.83,8.74,1.29a40.88,40.88,0,0,0,7.47-5.55l-2.48-37.95Z"></path><path class="cls-17" d="M92.71,476.66s.13,21.84,0,23,0,6.63,0,6.63,4.33,3.83,8.74,1.29a41.19,41.19,0,0,0,7.48-5.55L107,461.71Z"></path><path class="cls-21" d="M70.49,460.24l-31.9,18.41c-11.52,6.66-15.69,6-19.39-2.94-3.41-8.27-13.59-35-15.23-39.5l4-2.31c.11.29,11.11,29.76,14.5,38,3.1,7.51,6,7.86,16.12,2l31.9-18.41Z"></path><path class="cls-19" d="M103.49,491c-1.09-8.35-2-15.57-12.9-9.29l-5.34,3.08L77,489.58l-5.34,3.09c-10.87,6.27-11.81,14.57-12.9,24.18-1,8.73-3.23,34-3.25,34.27l2.19-1.36c0-.25,2.21-25,3.2-33.68,1.17-10.35,2.11-15.54,10.76-20.53L77,492.47l8.24-4.76,5.34-3.09c8.65-5,9.59-.89,10.76,8.11,1,7.54,3.17,29.74,3.19,30l2.2-1.15C106.72,521.32,104.48,498.62,103.49,491Z"></path><path class="cls-19" d="M104.54,522.7l3.27,1.91s-.48-15.51-1.07-21.32-3.3-18.84-3.3-18.84l-1.29,1Z"></path><path class="cls-19" d="M58.79,553l-3.27-1.91S59.29,522.4,59.94,518s3-14.72,3-14.72l3.61.91s-2.71,6.6-3.1,11S58.79,553,58.79,553Z"></path><path class="cls-25" d="M106.76,492.94c-1.09-8.35-2-15.57-12.9-9.29l-5.34,3.08-8.24,4.76-5.34,3.08c-10.87,6.28-11.81,14.58-12.9,24.19-1,8.73-3.23,34-3.25,34.27L61,551.67c0-.25,2.22-25,3.2-33.68,1.17-10.35,2.11-15.54,10.76-20.53l5.34-3.08,8.24-4.77,5.34-3.08c8.65-5,9.59-.89,10.76,8.1,1,7.54,3.17,29.75,3.19,30l2.2-1.15C110,523.23,107.75,500.53,106.76,492.94Z"></path><path class="cls-20" d="M111.76,479.19,70.49,455.47l-20.79,12S61,501.31,65.54,502.53C77.55,505.76,111.76,479.19,111.76,479.19Z"></path><path class="cls-34" d="M57.29,404.23c-2.75-1.32-5.06-6.13-10.43-1.09-4.45,4.19-6.74,15.25.51,21.58S57.29,404.23,57.29,404.23Z"></path><path class="cls-1" d="M67,373c1.26.87,5.91,2,7.27,12.3.92,7-1.39,10.06-3.37,11.87-.82.75-4,.89-4,.89l.14,7.74a13.13,13.13,0,0,1-8.9,0L53.75,404a15.39,15.39,0,0,0,1.42-8c-.35-6.3-2.58-15.27-1-18.61C57,371.39,63.59,370.64,67,373Z"></path><path class="cls-26" d="M78.83,449.71a178.79,178.79,0,0,1-18,3.65v25.93l.37-.05c12.42-1.88,25.91-8.92,30.76-12.15C93.9,457,93,445.77,78.83,449.71Z"></path><path class="cls-17" d="M53.61,482.37c3.51,2,6.73,6.1,19.18,4.21s28.91-16.78,33.76-20c1.41-10.68.3-14-13.89-10.06-10.59,2.94-28.61,5.17-28.61,5.17s-16.16-8.23-18.53-1.17C41.2,473.38,47.26,478.86,53.61,482.37Z"></path><path class="cls-28" d="M82.13,435.91l27.45,15.85c.61.35,1.11,0,1.11-.84V429a2.69,2.69,0,0,0-1.11-2.13L82.13,411c-.61-.36-1.11,0-1.11.84v21.92A2.67,2.67,0,0,0,82.13,435.91Z"></path><polygon class="cls-28" points="110.28 451.83 108.82 452.65 108.94 450.98 110.28 451.83"></polygon><polygon class="cls-28" points="79.93 411.81 81.42 410.97 81.94 413.89 79.93 411.81"></polygon><path class="cls-19" d="M80.63,436.77l27.44,15.84c.62.35,1.12,0,1.12-.84V429.85a2.65,2.65,0,0,0-1.12-2.12L80.63,411.88c-.61-.35-1.11,0-1.11.84v21.92A2.69,2.69,0,0,0,80.63,436.77Z"></path><polygon class="cls-26" points="80.48 434.27 108.22 450.29 108.22 429.06 80.48 413.04 80.48 434.27"></polygon><path class="cls-29" d="M92.59,442.88l3.53,2c.18.1.33,0,.33-.25h0a.81.81,0,0,0-.33-.64l-3.53-2c-.19-.1-.34,0-.34.25h0A.79.79,0,0,0,92.59,442.88Z"></path><polygon class="cls-6" points="81.94 435.11 106.82 449.48 106.82 430.13 81.94 415.77 81.94 435.11"></polygon><path class="cls-28" d="M57.87,452.83l26.51,15.3a3.09,3.09,0,0,0,2.77-.11l20.27-11.7c.82-.48.91-1.2.2-1.6L81.11,439.41a3.09,3.09,0,0,0-2.77.12l-20.27,11.7C57.25,451.7,57.17,452.42,57.87,452.83Z"></path><rect class="cls-28" x="106.27" y="453.64" width="1.82" height="1.82" transform="translate(214.37 909.1) rotate(180)"></rect><rect class="cls-28" x="57.4" y="450.4" width="1.82" height="1.82" transform="translate(116.61 902.63) rotate(180)"></rect><path class="cls-19" d="M57.87,451.16l26.51,15.3a3.09,3.09,0,0,0,2.77-.11l20.27-11.71c.82-.47.91-1.19.2-1.6l-26.51-15.3a3.09,3.09,0,0,0-2.77.11L58.07,449.56C57.25,450,57.17,450.75,57.87,451.16Z"></path><polygon class="cls-25" points="66.22 446.43 92.49 461.59 105.82 453.9 79.55 438.73 66.22 446.43"></polygon><polygon class="cls-25" points="67.7 455.42 76.99 460.79 81.96 457.92 72.67 452.55 67.7 455.42"></polygon><polygon class="cls-28" points="104.67 453.87 102.84 452.81 101.52 453.57 103.35 454.63 104.67 453.87"></polygon><polygon class="cls-28" points="102.75 454.97 100.92 453.91 99.6 454.67 101.43 455.73 102.75 454.97"></polygon><polygon class="cls-28" points="100.84 456.08 98.36 454.65 97.04 455.41 99.52 456.84 100.84 456.08"></polygon><polygon class="cls-28" points="77.13 442.39 75.93 441.7 72.7 443.57 73.89 444.26 77.13 442.39"></polygon><polygon class="cls-28" points="98.92 457.18 96.44 455.76 95.13 456.52 97.6 457.95 98.92 457.18"></polygon><polygon class="cls-28" points="97 458.29 93.73 456.4 92.41 457.16 95.68 459.05 97 458.29"></polygon><polygon class="cls-28" points="76.95 446.71 72.06 443.89 70.74 444.65 75.63 447.47 76.95 446.71"></polygon><polygon class="cls-28" points="95.09 459.4 93.25 458.34 91.93 459.1 93.77 460.16 95.09 459.4"></polygon><polygon class="cls-28" points="102.38 452.54 100.54 451.48 99.22 452.24 101.06 453.3 102.38 452.54"></polygon><polygon class="cls-28" points="100.46 453.65 98.63 452.59 97.31 453.35 99.14 454.41 100.46 453.65"></polygon><polygon class="cls-28" points="100.06 451.2 98.23 450.14 96.91 450.91 98.74 451.96 100.06 451.2"></polygon><polygon class="cls-28" points="98.14 452.31 96.31 451.25 94.99 452.01 96.83 453.07 98.14 452.31"></polygon><polygon class="cls-28" points="97.77 449.88 95.93 448.82 94.62 449.58 96.45 450.64 97.77 449.88"></polygon><polygon class="cls-28" points="95.85 450.99 94.02 449.93 92.7 450.69 94.53 451.75 95.85 450.99"></polygon><polygon class="cls-28" points="95.46 448.55 93.62 447.49 92.31 448.25 94.14 449.31 95.46 448.55"></polygon><polygon class="cls-28" points="93.54 449.65 91.71 448.59 90.39 449.36 92.22 450.41 93.54 449.65"></polygon><polygon class="cls-28" points="93.17 447.22 91.33 446.16 90.01 446.93 91.85 447.98 93.17 447.22"></polygon><polygon class="cls-28" points="91.25 448.33 89.41 447.27 88.1 448.03 89.93 449.09 91.25 448.33"></polygon><polygon class="cls-28" points="90.85 445.88 89.02 444.83 87.7 445.59 89.53 446.65 90.85 445.88"></polygon><polygon class="cls-28" points="88.93 446.99 87.1 445.93 85.78 446.69 87.61 447.75 88.93 446.99"></polygon><polygon class="cls-28" points="97.84 454.35 96.01 453.29 94.69 454.05 96.52 455.11 97.84 454.35"></polygon><polygon class="cls-28" points="95.93 455.46 94.09 454.4 92.77 455.16 94.61 456.22 95.93 455.46"></polygon><polygon class="cls-28" points="95.53 453.01 93.69 451.95 92.37 452.71 94.21 453.77 95.53 453.01"></polygon><polygon class="cls-28" points="93.61 454.12 91.78 453.06 90.46 453.82 92.29 454.88 93.61 454.12"></polygon><polygon class="cls-28" points="93.23 451.69 91.4 450.63 90.08 451.39 91.92 452.45 93.23 451.69"></polygon><polygon class="cls-28" points="91.32 452.8 89.48 451.74 88.17 452.5 90 453.56 91.32 452.8"></polygon><polygon class="cls-28" points="90.92 450.36 89.09 449.3 87.77 450.06 89.61 451.12 90.92 450.36"></polygon><polygon class="cls-28" points="89.01 451.46 87.17 450.4 85.86 451.16 87.69 452.22 89.01 451.46"></polygon><polygon class="cls-28" points="88.63 449.03 86.8 447.97 85.48 448.73 87.31 449.79 88.63 449.03"></polygon><polygon class="cls-28" points="86.71 450.14 84.88 449.08 83.56 449.84 85.4 450.9 86.71 450.14"></polygon><polygon class="cls-28" points="86.31 447.69 84.48 446.63 83.16 447.4 85 448.45 86.31 447.69"></polygon><polygon class="cls-28" points="84.4 448.8 82.56 447.74 81.25 448.5 83.08 449.56 84.4 448.8"></polygon><polygon class="cls-28" points="84.01 446.37 82.18 445.31 80.86 446.07 82.69 447.13 84.01 446.37"></polygon><polygon class="cls-28" points="82.1 447.47 80.26 446.41 78.94 447.18 80.78 448.23 82.1 447.47"></polygon><polygon class="cls-28" points="93.1 456.04 91.26 454.98 89.95 455.74 91.78 456.8 93.1 456.04"></polygon><polygon class="cls-28" points="90.78 454.7 88.95 453.64 87.63 454.4 89.46 455.46 90.78 454.7"></polygon><polygon class="cls-28" points="88.49 453.38 86.66 452.32 85.34 453.08 87.17 454.14 88.49 453.38"></polygon><polygon class="cls-28" points="86.18 452.04 84.34 450.98 83.03 451.74 84.86 452.8 86.18 452.04"></polygon><polygon class="cls-28" points="83.89 450.72 82.05 449.66 80.73 450.42 82.57 451.48 83.89 450.72"></polygon><polygon class="cls-28" points="81.57 449.38 79.74 448.32 78.42 449.08 80.25 450.14 81.57 449.38"></polygon><polygon class="cls-28" points="79.27 448.05 77.44 446.99 76.12 447.75 77.95 448.81 79.27 448.05"></polygon><polygon class="cls-28" points="81.7 445.03 79.86 443.97 78.55 444.73 80.38 445.79 81.7 445.03"></polygon><polygon class="cls-28" points="79.78 446.13 77.95 445.08 76.63 445.84 78.46 446.9 79.78 446.13"></polygon><polygon class="cls-28" points="79.41 443.7 77.57 442.65 76.25 443.41 78.09 444.47 79.41 443.7"></polygon><polygon class="cls-28" points="77.49 444.81 75.66 443.75 74.34 444.51 76.17 445.57 77.49 444.81"></polygon><polygon class="cls-28" points="88.56 444.56 86.72 443.5 85.4 444.26 87.24 445.32 88.56 444.56"></polygon><polygon class="cls-28" points="86.64 445.67 84.81 444.61 83.49 445.37 85.32 446.43 86.64 445.67"></polygon><polygon class="cls-28" points="86.21 443.21 84.38 442.15 83.06 442.91 84.89 443.97 86.21 443.21"></polygon><polygon class="cls-28" points="84.29 444.31 82.46 443.25 81.14 444.02 82.97 445.07 84.29 444.31"></polygon><polygon class="cls-28" points="83.92 441.88 82.08 440.82 80.77 441.59 82.6 442.64 83.92 441.88"></polygon><polygon class="cls-28" points="82 442.99 80.17 441.93 78.85 442.69 80.68 443.75 82 442.99"></polygon><polygon class="cls-28" points="81.6 440.55 79.77 439.49 78.45 440.25 80.28 441.31 81.6 440.55"></polygon><polygon class="cls-28" points="79.68 441.65 77.85 440.59 76.53 441.36 78.37 442.41 79.68 441.65"></polygon><polygon class="cls-28" points="92.79 458.07 90.96 457.01 89.64 457.78 91.47 458.83 92.79 458.07"></polygon><polygon class="cls-28" points="90.48 456.74 88.64 455.68 87.33 456.44 89.16 457.5 90.48 456.74"></polygon><polygon class="cls-28" points="78.46 449.8 76.63 448.74 75.31 449.5 77.14 450.56 78.46 449.8"></polygon><polygon class="cls-28" points="76.17 448.48 74.33 447.42 73.02 448.18 74.85 449.24 76.17 448.48"></polygon><polygon class="cls-28" points="73.85 447.14 72.02 446.08 70.7 446.84 72.53 447.9 73.85 447.14"></polygon><polygon class="cls-28" points="71.58 445.83 70.18 445.02 68.87 445.78 70.26 446.59 71.58 445.83"></polygon><polygon class="cls-28" points="88.16 455.4 78.91 450.06 77.59 450.82 86.84 456.16 88.16 455.4"></polygon><polygon class="cls-26" points="103.71 458.08 106.31 456.57 106.31 455.73 103.71 457.24 103.71 458.08"></polygon><polygon class="cls-26" points="100.69 459.82 103.3 458.32 103.3 457.48 100.69 458.98 100.69 459.82"></polygon><path class="cls-1" d="M71.72,447.33s2.93.55,7,1.39,5,1.13,5,1.13.62-.63-.37-1.89A7.14,7.14,0,0,0,80,446.14l4.32-3.08s-1.16-6.3-6.5-7.3a14.81,14.81,0,0,0-8.78.71Z"></path><path class="cls-16" d="M44.23,460.89C46.4,467,58.41,473.08,64.05,473c3.76-.06,8.38-.85,11.69-3.2s4.62-3.68,3.11-10c-.47-2-5.34-20-.08-31.2,2.57-5.49-3.26-15.46-4.9-19S67,403.82,67,403.82l-13.39-1.58s-8,2.6-8,14.63c0,7.27,1.2,12.94,2.34,22.06.32,2.54,1.23,8.54-3.06,19.53A14.33,14.33,0,0,0,44.23,460.89Z"></path><path class="cls-34" d="M52.53,403.19s.67,2.18,5.1,3.59a16.08,16.08,0,0,0,12.78-1c0-2.86-3.48-4.15-3.48-4.15a12.94,12.94,0,0,1-8.45,0L54,400Z"></path><path class="cls-35" d="M59.08,369.72c-5.91,1.25-12.13,5-9.93,17.56a20,20,0,0,0,5,8.41c1.17,1.19,2.55,2.47,2.84,4.16,4.75-.56,9.23-8,11.82-10.75s5.52-3.78,5.85-7.33C75.29,374.47,70.16,367.38,59.08,369.72Z"></path><path class="cls-1" d="M71.56,386.86s-2.72-4.66-3.89,0a4.72,4.72,0,0,0,2.69,5.78Z"></path><path class="cls-21" d="M23.75,482.22l41.79,24.09s-9.07-23.16-12.06-30.47-7.13-18.22-7.13-18.22L6.12,436Z"></path><path class="cls-22" d="M111.76,484,79.87,502.37c-11.53,6.65-15.69,6-19.39-2.94-3.42-8.28-13.59-35.05-15.23-39.51l4-2.3c.11.29,11.11,29.76,14.51,38,3.09,7.51,6,7.87,16.12,2l31.89-18.41Z"></path><polygon class="cls-20" points="7.97 433.9 3.97 436.21 45.25 459.92 49.24 457.62 7.97 433.9"></polygon><path class="cls-34" d="M70.41,408.39s-3,1.73-3.31,9S68.94,429,73,436c1.78,3.09,8.09,11,12,11.53s15.43-2.14,19.92-6.72c3.11-3.18.84-6.93,0-8.58-2.23-.86-11.3.18-15.63,1.65-3.14-5.33-4.49-5.85-7.68-14S75.21,406.56,70.41,408.39Z"></path><path class="cls-36" d="M55.6,364.34c-4.13-1-7.41,1.11-10,5.1S42.76,380,44.06,384.56s2.62,9.27,0,10.48c-4.3,2-4.94-2.4-4.94-2.4s-2,7.38,6.45,7.38S58.69,394,60.51,382C61.82,373.26,60.88,365.63,55.6,364.34Z"></path><path class="cls-1" d="M105,432.25s1.58-3.13,1.29-4.82.65-1.16,1.1-.46a9,9,0,0,1,1,2.52,15.25,15.25,0,0,1,2.29-.49c.73,0,4.59,1.28,3.25,5.76s-7.37,4.38-7.37,4.38Z"></path><path class="cls-16" d="M102.75,432a8.57,8.57,0,0,1,2.26,4.6,8.42,8.42,0,0,1,0,4.28s2.91-.53,3.34-3S107.53,429.46,102.75,432Z"></path><path class="cls-19" d="M139.6,512.48c-1.09-8.36-2-15.57-12.89-9.3l-5.34,3.08L113.12,511l-5.34,3.08C96.91,520.39,96,528.69,94.88,538.3c-1,8.72-3.23,34-3.25,34.27l2.19-1.36c0-.26,2.22-25,3.2-33.69C98.19,527.18,99.13,522,107.78,517l5.34-3.09,8.25-4.76,5.34-3.08c8.64-5,9.58-.89,10.75,8.1,1,7.54,3.17,29.75,3.19,30l2.2-1.16C142.83,542.76,140.59,520.06,139.6,512.48Z"></path><path class="cls-19" d="M140.65,544.15l3.27,1.91s-.48-15.51-1.07-21.32-3.3-18.85-3.3-18.85l-1.29,1Z"></path><path class="cls-19" d="M94.9,574.48l-3.27-1.91s3.77-28.73,4.42-33.12,3-14.71,3-14.71l3.61.9s-2.71,6.6-3.1,11.05S94.9,574.48,94.9,574.48Z"></path><path class="cls-25" d="M142.87,514.39c-1.09-8.36-2-15.57-12.89-9.3l-5.34,3.08-8.25,4.77L111.05,516c-10.87,6.27-11.81,14.57-12.9,24.19-1,8.72-3.23,34-3.25,34.27l2.19-1.36c0-.26,2.22-25,3.2-33.69,1.17-10.34,2.12-15.54,10.76-20.53l5.34-3.08,8.25-4.76L130,508c8.64-5,9.58-.89,10.76,8.1,1,7.54,3.16,29.75,3.18,30l2.2-1.16C146.1,544.67,143.86,522,142.87,514.39Z"></path><path class="cls-21" d="M139,500.27l-31.89,18.41c-11.52,6.66-15.69,6-19.39-2.94-3.41-8.27-13.59-35.05-15.23-39.5l4-2.31c.12.29,11.12,29.76,14.51,38,3.1,7.5,6,7.86,16.12,2L139,495.5Z"></path><path class="cls-1" d="M160.47,543.42c3.52-1.76,6.86-3.91,5.79-5.92a3.6,3.6,0,0,0-2.68-1.49c-3.25,1.07-4.87,1.8-4.87,1.8s.35-18.83,1.73-26.63c.46-2.57-11.84-2.67-11.84-2.67-.44,1.8-.82,17.63,0,27.26a28.59,28.59,0,0,1-.13,6.91c.84.36,2.56,1.11,3.85,1.7C154.08,545.18,157,545.18,160.47,543.42Z"></path><path class="cls-26" d="M148.32,547.8c1.18,2.8,3.89,2.54,9.37.57A47.19,47.19,0,0,0,170,542.08c3.46-2.56,3.49-2.9,3.95-4.63.64-2.42-2.9-3.78-8.78-2l-1.61.51a3.6,3.6,0,0,1,2.68,1.49c1.07,2-2.27,4.16-5.79,5.92s-6.39,1.76-8.15,1c-1.29-.59-3-1.34-3.85-1.7C148.11,545,147.62,546.12,148.32,547.8Z"></path><path class="cls-1" d="M174.77,551.67c3.52-1.76,6.86-3.91,5.79-5.91a3.54,3.54,0,0,0-2.69-1.49c-3.24,1.07-4.86,1.79-4.86,1.79s1.74-30.43,3.13-38.23c.46-2.57-12.72,2.18-12.72,2.18-.44,1.8-1.35,24.38-.52,34a27.85,27.85,0,0,1-.14,6.9c.84.36,2.57,1.12,3.86,1.7C168.37,553.43,171.25,553.43,174.77,551.67Z"></path><path class="cls-26" d="M162.62,556.05c1.17,2.8,3.89,2.54,9.36.57a47.1,47.1,0,0,0,12.34-6.29c3.45-2.55,3.49-2.89,4-4.63.63-2.42-2.9-3.78-8.78-2l-1.62.52a3.54,3.54,0,0,1,2.69,1.49c1.07,2-2.27,4.15-5.79,5.91s-6.4,1.76-8.15,1c-1.29-.58-3-1.34-3.86-1.7C162.41,553.28,161.91,554.37,162.62,556.05Z"></path><path class="cls-19" d="M172.05,531.06c-1.09-8.35-2-15.57-12.9-9.29l-5.34,3.08-8.25,4.76-5.34,3.08c-10.87,6.28-11.8,14.58-12.89,24.19-1,8.73-3.23,34-3.25,34.27l2.19-1.36c0-.25,2.21-25,3.19-33.68,1.18-10.35,2.12-15.54,10.76-20.53l5.34-3.08,8.25-4.77,5.34-3.08c8.65-5,9.59-.89,10.76,8.1,1,7.54,3.17,29.75,3.19,30l2.2-1.15C175.28,561.35,173,538.65,172.05,531.06Z"></path><path class="cls-19" d="M173.1,562.73l3.27,1.91s-.48-15.51-1.07-21.32-3.3-18.85-3.3-18.85l-1.3,1Z"></path><path class="cls-19" d="M127.35,593.06l-3.27-1.91s3.77-28.72,4.42-33.11,3-14.72,3-14.72l3.62.91s-2.71,6.59-3.1,11S127.35,593.06,127.35,593.06Z"></path><path class="cls-25" d="M175.32,533c-1.09-8.35-2-15.57-12.9-9.3l-5.34,3.09-8.25,4.76-5.34,3.08c-10.86,6.28-11.8,14.58-12.89,24.19-1,8.73-3.23,34-3.25,34.27l2.19-1.36c0-.25,2.21-25,3.2-33.68,1.17-10.35,2.11-15.54,10.75-20.53l5.34-3.08,8.25-4.77,5.34-3.08c8.65-5,9.59-.89,10.76,8.1,1,7.54,3.17,29.75,3.19,30l2.2-1.15C178.55,563.26,176.31,540.56,175.32,533Z"></path><path class="cls-20" d="M180.32,519.22,139,495.5l-20.78,12s11.3,33.85,15.84,35.07C146.11,545.78,180.32,519.22,180.32,519.22Z"></path><path class="cls-1" d="M133.11,409.14c1.33.92,6.23,2.07,7.67,13,1,7.33-1.47,10.6-3.55,12.52-.87.79-4.27.93-4.27.93l.15,8.17a13.89,13.89,0,0,1-9.38,0l-4.6-1.89a16.18,16.18,0,0,0,1.5-8.46c-.38-6.64-2.73-16.1-1.06-19.62C122.57,407.42,129.51,406.64,133.11,409.14Z"></path><path class="cls-30" d="M108.05,511.83c1.41,10.17,10.18,14.84,20,14.29,9.3-.52,16.09-5.26,22.67-10.89-1.23-8.52-4-13.89-7.13-21.81-.77-2-3.57-13.81,2-25.64,2.71-5.79-3.43-16.3-5.16-20.08s-7.25-6.07-7.25-6.07-1.34,2.95-6.67,2c-2.07-.37-7.45-3.22-7.45-3.22s-4.8,10.19-5.78,17.8S111.77,469,113,478.66c.34,2.68,1.3,9-3.22,20.59C108.91,501.39,108.38,506.11,108.05,511.83Z"></path><path class="cls-37" d="M141.13,418.37c-.35,3.75-3.43,4.87-6.17,7.73s-4.21,5.6-10.18,9.86c-2.18,1.56-1.63,13.66-5.8,22.25-4.45,9.15-1.86,10.82-1.86,10.82s-12.67-4.09-7.51-18.23c1.89-5.17,9.12-9.39,9.37-14.84.11-2.5-3.24-5-4.31-9.76-3.38-14.91,3.53-19.16,10.08-20.54C136.44,403.19,141.85,410.67,141.13,418.37Z"></path><path class="cls-1" d="M137.91,423.74s-2.87-4.92-4.1,0a5,5,0,0,0,2.83,6.1Z"></path><path class="cls-30" d="M117.86,433.08s-.17,3.12.48,3.82c.88,1,4.19,2,5.39,1.55a6.22,6.22,0,0,0,2.7-3.54A40.75,40.75,0,0,1,117.86,433.08Z"></path><path class="cls-30" d="M114.35,522.6s5,8.43,27.39,3.41c20.52-4.6,34.34-8.67,34.63-14.81.49-10.39-2.83-15.94-14.11-19.61-8.29-2.7-24.35-1.58-24.35-1.58Z"></path><path class="cls-27" d="M142.7,490a11.37,11.37,0,0,1,.15,10.8c-2.91,6.12-6.28,8-9.25,11.75s7.39,4.84,10.32-1.36,2.85-11.9,5.37-12.66,6.49,8,9.73,7.35-4.69-15.7-4.69-15.7Z"></path><path class="cls-26" d="M156.46,495.69l-11.1-6.4c-2.56-1.59-1.6-3.14-.43-5.36l10.18-19.44c1.16-2.22,2.06-4.3,5.17-2.5l11.49,6.51c2.41,1.51.66,3.76-.51,6l-10.58,20.18C159.41,497,158.23,496.89,156.46,495.69Z"></path><path class="cls-38" d="M155.58,495.16l-11.11-6.41c-2.55-1.58-1.6-3.14-.43-5.36L154.22,464c1.17-2.23,2.06-4.31,5.17-2.51L170.88,468c2.42,1.51.66,3.75-.51,6l-10.58,20.18C158.53,496.49,157.35,496.35,155.58,495.16Z"></path><polygon class="cls-6" points="158.66 492.63 144.93 484.85 157.07 462.14 170.77 469.98 158.66 492.63"></polygon><polygon class="cls-6" points="152.01 491.51 148.81 489.66 149.46 488.51 152.66 490.35 152.01 491.51"></polygon><path class="cls-21" d="M92.31,522.25l41.79,24.09S125,523.18,122,515.87s-7.13-18.23-7.13-18.23L74.68,476.05Z"></path><path class="cls-22" d="M180.32,524,148.43,542.4c-11.53,6.65-15.69,6-19.39-2.94-3.42-8.28-13.6-35.05-15.23-39.51l4-2.31c.11.3,11.11,29.77,14.51,38,3.09,7.51,6,7.87,16.12,2l31.89-18.41Z"></path><polygon class="cls-20" points="76.53 473.93 72.53 476.24 113.81 499.95 117.8 497.64 76.53 473.93"></polygon><path class="cls-1" d="M169.89,480.07c-1.08-2.14-3.51,2.1-4.87,2-1.11-.1-5.76-5.63-12.06-9.33-3-7.71-10.25-26.18-14.21-26.56-2.7-.26-5.51,4.66-5.24,10.8s7.24,17.83,11.87,23.11c3.26,3.72,17.47,9.25,21.8,7.75S171,482.21,169.89,480.07Z"></path><path class="cls-1" d="M164.39,482.41s0-2.3-.12-3.49c-.11-1.53.88-1.54,1.45-.54a29.93,29.93,0,0,1,1.46,3.67A7.75,7.75,0,0,1,164.39,482.41Z"></path><path class="cls-19" d="M213.94,555.1c-1.09-8.33-2-15.53-12.86-9.27l-5.32,3.07-8.23,4.75-5.32,3.07c-10.84,6.26-11.78,14.54-12.86,24.12-1,8.7-3.22,33.92-3.24,34.17l2.18-1.35c0-.26,2.21-24.94,3.19-33.59,1.17-10.32,2.11-15.49,10.73-20.47l5.32-3.07,8.23-4.75,5.32-3.07c8.62-5,9.56-.89,10.73,8.07,1,7.52,3.15,29.67,3.18,29.89l2.19-1.15C217.16,585.3,214.92,562.66,213.94,555.1Z"></path><path class="cls-19" d="M215,586.67l3.26,1.91s-.48-15.47-1.07-21.26-3.29-18.79-3.29-18.79l-1.29,1Z"></path><path class="cls-19" d="M169.37,616.92,166.11,615s3.76-28.64,4.4-33,3-14.67,3-14.67l3.61.9s-2.71,6.58-3.09,11S169.37,616.92,169.37,616.92Z"></path><path class="cls-25" d="M217.2,557c-1.09-8.33-2-15.53-12.86-9.27L199,550.81l-8.23,4.74-5.32,3.08c-10.84,6.25-11.78,14.53-12.86,24.11-1,8.7-3.22,33.92-3.24,34.18l2.18-1.36c0-.25,2.21-24.94,3.19-33.59,1.17-10.31,2.11-15.49,10.73-20.47l5.32-3.07,8.23-4.75,5.32-3.07c8.62-5,9.56-.89,10.73,8.08,1,7.52,3.15,29.66,3.18,29.89l2.19-1.15C220.42,587.2,218.18,564.56,217.2,557Z"></path><path class="cls-21" d="M213.38,542.92l-31.8,18.36c-11.49,6.64-15.64,6-19.33-2.93-3.41-8.25-13.55-34.94-15.19-39.39l4-2.3c.11.29,11.07,29.68,14.46,37.88,3.09,7.48,5.94,7.84,16.07,2l31.8-18.36Z"></path><path class="cls-19" d="M225.47,569l-5.59,3.22-5.32,3.07c-10.84,6.26-11.77,14.54-12.86,24.12-1,8.7-3.22,33.92-3.24,34.17l2.18-1.35c0-.26,2.21-24.94,3.19-33.59,1.17-10.31,2.11-15.49,10.73-20.47l5.32-3.07,6.54-3.77C226.1,570.51,225.78,569.74,225.47,569Z"></path><path class="cls-19" d="M201.72,635.45l-3.26-1.91s3.76-28.64,4.41-33,3-14.67,3-14.67l3.6.9s-2.7,6.58-3.09,11S201.72,635.45,201.72,635.45Z"></path><path class="cls-25" d="M225.67,572.63l-2.53,1.45-5.32,3.08C207,583.41,206.05,591.69,205,601.27c-1,8.71-3.22,33.92-3.24,34.18l2.18-1.36c0-.25,2.21-24.94,3.19-33.59,1.17-10.31,2.11-15.49,10.73-20.46l5.32-3.08,3.28-1.89C226.14,574.26,225.89,573.45,225.67,572.63Z"></path><path class="cls-20" d="M254.54,561.81l-41.16-23.64-20.72,12s11.27,33.74,15.8,35C220.43,588.31,254.54,561.81,254.54,561.81Z"></path><path class="cls-26" d="M265.5,579.32c-1.81-1.13-11,4.2-11,4.2l-12.63,4.24-.94,9.09a7.49,7.49,0,0,0,10.46,1.43c3.71-2.5,12.38-6.79,14.45-11S267.3,580.45,265.5,579.32Z"></path><path class="cls-26" d="M252.4,572c-1.81-1.13-11,4.2-11,4.2l-12.63,4.24-.94,9.1A7.5,7.5,0,0,0,238.33,591c3.71-2.5,12.38-6.8,14.45-11.05S254.2,573.14,252.4,572Z"></path><path class="cls-27" d="M244.27,544.56c-1.41-8.37-1.58-12.43-6.63-14.45-3-1.2-14.09,1.69-21.21,3.23-.91,6.41,0,13.65,3.4,19.15,2.42-1.31,4.82-2.61,7.07-3.85C227.74,550.74,244.32,544.9,244.27,544.56Z"></path><path class="cls-27" d="M242.77,571.19c-2.37,1.54-4.8,3-7.14,4.63a70.62,70.62,0,0,1-8.84,5.46c1.35,1,5.87,4.64,11.32,2.33,10.3-4.37,8.6-11,8.6-11S243.12,573.21,242.77,571.19Z"></path><path class="cls-24" d="M188.27,484.18c-4.22,3.63-9.1,21.92-9.7,27-.35,2.93-1.26,12.62,5.2,15.22,5.39,2.16,6.12-4,7.87-7,2.22-3.78,3.18-20,3.18-20l3.4-16.64S192.49,480.55,188.27,484.18Z"></path><path class="cls-1" d="M207.51,452.23c-3.58-2.49-10.48-1.71-13.47,4.61-1.66,3.5.68,12.91,1.05,19.52a16.11,16.11,0,0,1-1.48,8.4l4.57,1.89a13.81,13.81,0,0,0,9.33,0l-.15-8.13s4.93-.73,5.79-1.52c2.07-1.9,3.17-7.56,2.21-14.85C213.93,451.3,208.83,453.15,207.51,452.23Z"></path><path class="cls-30" d="M254.54,561.81c.28,1.61-10.29,5.68-11.09,8.91-.93,3.76-2.5,18.53-2.48,19.54,2.36,1.76,8.77,1.41,10.32.89a12,12,0,0,0,7.87-6.79c-1.12-9.49.79-27.64.29-31.33-1.15-8.47-2.83-15.19-7.88-17.21-3.59-1.44-11.58-.33-21.32,2.35-10.06,2.76-20.68,9.46-20.68,9.46l-22.25,1.16s-1.14,9,5.24,13.64,20,11.75,31,6c5.25-2.75,16.39-9.28,21.45-12.06C246.47,557.28,252.79,560.81,254.54,561.81Z"></path><path class="cls-26" d="M230.73,518.51l27.44,15.85c.61.35,1.11,0,1.11-.84V511.6a2.69,2.69,0,0,0-1.11-2.13l-27.44-15.84c-.62-.36-1.12,0-1.12.84v21.92A2.65,2.65,0,0,0,230.73,518.51Z"></path><polygon class="cls-26" points="258.87 534.43 257.42 535.25 257.54 533.58 258.87 534.43"></polygon><polygon class="cls-26" points="228.52 494.41 230.01 493.57 230.53 496.49 228.52 494.41"></polygon><path class="cls-38" d="M229.22,519.37l27.45,15.84c.61.36,1.11,0,1.11-.84V512.45a2.67,2.67,0,0,0-1.11-2.12l-27.45-15.85c-.61-.35-1.11,0-1.11.84v21.92A2.69,2.69,0,0,0,229.22,519.37Z"></path><polygon class="cls-26" points="229.07 516.87 256.82 532.88 256.82 511.66 229.07 495.64 229.07 516.87"></polygon><path class="cls-29" d="M241.18,525.48l3.53,2c.18.1.33,0,.33-.25h0a.81.81,0,0,0-.33-.64l-3.53-2c-.18-.1-.33,0-.33.25h0A.81.81,0,0,0,241.18,525.48Z"></path><polygon class="cls-16" points="230.53 517.71 255.41 532.08 255.41 512.73 230.53 498.37 230.53 517.71"></polygon><path class="cls-26" d="M206.47,535.43l26.5,15.3a3.09,3.09,0,0,0,2.77-.11L256,538.92c.82-.48.91-1.2.2-1.6L229.71,522a3.11,3.11,0,0,0-2.78.12l-20.27,11.7C205.85,534.3,205.76,535,206.47,535.43Z"></path><rect class="cls-26" x="254.87" y="536.24" width="1.82" height="1.82" transform="translate(511.55 1074.3) rotate(180)"></rect><rect class="cls-28" x="205.99" y="533" width="1.82" height="1.82" transform="translate(413.8 1067.83) rotate(180)"></rect><path class="cls-38" d="M206.47,533.76l26.5,15.3a3.09,3.09,0,0,0,2.77-.11L256,537.24c.82-.47.91-1.19.2-1.6l-26.5-15.3a3.11,3.11,0,0,0-2.78.11l-20.27,11.71C205.85,532.63,205.76,533.35,206.47,533.76Z"></path><polygon class="cls-26" points="214.81 529.02 241.08 544.19 254.41 536.5 228.14 521.33 214.81 529.02"></polygon><polygon class="cls-26" points="216.29 538.02 225.58 543.39 230.56 540.52 221.26 535.15 216.29 538.02"></polygon><polygon class="cls-6" points="253.26 536.47 251.43 535.41 250.11 536.17 251.94 537.23 253.26 536.47"></polygon><polygon class="cls-6" points="251.34 537.57 249.51 536.51 248.19 537.27 250.03 538.33 251.34 537.57"></polygon><polygon class="cls-6" points="249.43 538.68 246.95 537.25 245.63 538.01 248.11 539.44 249.43 538.68"></polygon><polygon class="cls-6" points="225.72 524.99 224.53 524.3 221.29 526.17 222.49 526.86 225.72 524.99"></polygon><polygon class="cls-6" points="247.51 539.78 245.04 538.36 243.72 539.12 246.19 540.55 247.51 539.78"></polygon><polygon class="cls-6" points="245.59 540.89 242.32 539 241 539.76 244.28 541.65 245.59 540.89"></polygon><polygon class="cls-6" points="225.54 529.31 220.66 526.49 219.34 527.25 224.22 530.07 225.54 529.31"></polygon><polygon class="cls-6" points="243.68 542 241.84 540.94 240.53 541.7 242.36 542.76 243.68 542"></polygon><polygon class="cls-6" points="250.97 535.14 249.14 534.08 247.82 534.84 249.65 535.9 250.97 535.14"></polygon><polygon class="cls-6" points="249.05 536.25 247.22 535.19 245.9 535.95 247.73 537.01 249.05 536.25"></polygon><polygon class="cls-6" points="248.65 533.8 246.82 532.75 245.5 533.51 247.33 534.57 248.65 533.8"></polygon><polygon class="cls-6" points="246.74 534.91 244.9 533.85 243.58 534.61 245.42 535.67 246.74 534.91"></polygon><polygon class="cls-6" points="246.36 532.48 244.53 531.42 243.21 532.18 245.04 533.24 246.36 532.48"></polygon><polygon class="cls-6" points="244.44 533.59 242.61 532.53 241.29 533.29 243.13 534.35 244.44 533.59"></polygon><polygon class="cls-6" points="244.05 531.15 242.22 530.09 240.9 530.85 242.73 531.91 244.05 531.15"></polygon><polygon class="cls-6" points="242.13 532.25 240.3 531.2 238.98 531.96 240.81 533.01 242.13 532.25"></polygon><polygon class="cls-6" points="241.76 529.82 239.92 528.76 238.6 529.53 240.44 530.58 241.76 529.82"></polygon><polygon class="cls-6" points="239.84 530.93 238.01 529.87 236.69 530.63 238.52 531.69 239.84 530.93"></polygon><polygon class="cls-6" points="239.44 528.49 237.61 527.43 236.29 528.19 238.12 529.25 239.44 528.49"></polygon><polygon class="cls-6" points="237.52 529.59 235.69 528.53 234.37 529.29 236.21 530.35 237.52 529.59"></polygon><polygon class="cls-6" points="246.44 536.95 244.6 535.89 243.28 536.65 245.12 537.71 246.44 536.95"></polygon><polygon class="cls-6" points="244.52 538.06 242.69 537 241.37 537.76 243.2 538.82 244.52 538.06"></polygon><polygon class="cls-6" points="244.12 535.61 242.28 534.55 240.97 535.32 242.8 536.37 244.12 535.61"></polygon><polygon class="cls-6" points="242.2 536.72 240.37 535.66 239.05 536.42 240.88 537.48 242.2 536.72"></polygon><polygon class="cls-6" points="241.83 534.29 239.99 533.23 238.67 533.99 240.51 535.05 241.83 534.29"></polygon><polygon class="cls-6" points="239.91 535.39 238.08 534.34 236.76 535.1 238.59 536.16 239.91 535.39"></polygon><polygon class="cls-6" points="239.52 532.96 237.68 531.9 236.36 532.66 238.2 533.72 239.52 532.96"></polygon><polygon class="cls-6" points="237.6 534.06 235.77 533 234.45 533.76 236.28 534.82 237.6 534.06"></polygon><polygon class="cls-6" points="237.22 531.63 235.39 530.57 234.07 531.33 235.9 532.39 237.22 531.63"></polygon><polygon class="cls-6" points="235.31 532.74 233.47 531.68 232.15 532.44 233.99 533.5 235.31 532.74"></polygon><polygon class="cls-6" points="234.91 530.29 233.07 529.24 231.75 530 233.59 531.05 234.91 530.29"></polygon><polygon class="cls-6" points="232.99 531.4 231.16 530.34 229.84 531.1 231.67 532.16 232.99 531.4"></polygon><polygon class="cls-6" points="232.61 528.97 230.77 527.91 229.45 528.67 231.29 529.73 232.61 528.97"></polygon><polygon class="cls-6" points="230.69 530.07 228.86 529.01 227.54 529.77 229.37 530.83 230.69 530.07"></polygon><polygon class="cls-6" points="241.69 538.64 239.86 537.58 238.54 538.34 240.37 539.4 241.69 538.64"></polygon><polygon class="cls-6" points="239.37 537.3 237.54 536.24 236.22 537 238.06 538.06 239.37 537.3"></polygon><polygon class="cls-6" points="237.08 535.98 235.25 534.92 233.93 535.68 235.76 536.74 237.08 535.98"></polygon><polygon class="cls-6" points="234.77 534.64 232.94 533.58 231.62 534.35 233.45 535.4 234.77 534.64"></polygon><polygon class="cls-6" points="232.48 533.32 230.65 532.26 229.33 533.02 231.16 534.08 232.48 533.32"></polygon><polygon class="cls-6" points="230.16 531.98 228.33 530.92 227.01 531.68 228.84 532.74 230.16 531.98"></polygon><polygon class="cls-6" points="227.86 530.65 226.03 529.59 224.71 530.36 226.54 531.41 227.86 530.65"></polygon><polygon class="cls-6" points="230.29 527.63 228.46 526.57 227.14 527.33 228.97 528.39 230.29 527.63"></polygon><polygon class="cls-6" points="228.37 528.74 226.54 527.68 225.22 528.44 227.06 529.5 228.37 528.74"></polygon><polygon class="cls-6" points="228 526.3 226.16 525.25 224.84 526.01 226.68 527.07 228 526.3"></polygon><polygon class="cls-6" points="226.08 527.41 224.25 526.35 222.93 527.11 224.76 528.17 226.08 527.41"></polygon><polygon class="cls-6" points="237.15 527.16 235.31 526.1 234 526.87 235.83 527.92 237.15 527.16"></polygon><polygon class="cls-6" points="235.23 528.27 233.4 527.21 232.08 527.97 233.91 529.03 235.23 528.27"></polygon><polygon class="cls-6" points="234.8 525.81 232.97 524.75 231.65 525.51 233.48 526.57 234.8 525.81"></polygon><polygon class="cls-6" points="232.89 526.91 231.05 525.86 229.73 526.62 231.57 527.68 232.89 526.91"></polygon><polygon class="cls-6" points="232.51 524.48 230.68 523.42 229.36 524.19 231.19 525.25 232.51 524.48"></polygon><polygon class="cls-6" points="230.59 525.59 228.76 524.53 227.44 525.29 229.27 526.35 230.59 525.59"></polygon><polygon class="cls-6" points="230.19 523.15 228.36 522.09 227.04 522.85 228.88 523.91 230.19 523.15"></polygon><polygon class="cls-6" points="228.28 524.25 226.44 523.2 225.13 523.96 226.96 525.01 228.28 524.25"></polygon><polygon class="cls-6" points="241.39 540.67 239.55 539.62 238.23 540.38 240.07 541.43 241.39 540.67"></polygon><polygon class="cls-6" points="239.07 539.34 237.24 538.28 235.92 539.04 237.75 540.1 239.07 539.34"></polygon><polygon class="cls-6" points="227.01 528.29 225.2 529.38 223.87 528.65 225.68 527.55 227.01 528.29"></polygon><polygon class="cls-6" points="224.75 529.66 222.93 530.75 221.6 530.02 223.41 528.92 224.75 529.66"></polygon><polygon class="cls-6" points="222.46 531.04 220.65 532.13 219.31 531.4 221.12 530.3 222.46 531.04"></polygon><polygon class="cls-6" points="220.22 532.39 218.83 533.23 217.5 532.5 218.88 531.66 220.22 532.39"></polygon><polygon class="cls-6" points="236.75 538 227.5 532.65 226.18 533.42 235.44 538.76 236.75 538"></polygon><polygon class="cls-6" points="252.3 540.68 254.91 539.17 254.91 538.33 252.3 539.84 252.3 540.68"></polygon><polygon class="cls-6" points="249.28 542.42 251.89 540.92 251.89 540.08 249.28 541.58 249.28 542.42"></polygon><path class="cls-31" d="M219.15,511.2c-.9-9.1-1.07-14.81-2.79-18.56s-8.85-6-8.85-6l-17.13-1.88s-3.14,6.6-4.12,18.32c-.44,5.33-.14,15.1.15,28.55.2,9.1-5.07,14.72-1.23,18.69,5.85,6,19.23,10.22,26.71,8.21,4.47-1.19,10.09-6.33,13.1-10C223,536.61,220.44,524.13,219.15,511.2Z"></path><path class="cls-24" d="M207.14,484.11s-6.66,2-10.59-1.1c-5.56-4.34-6.17,1.76-6.17,1.76a14.61,14.61,0,0,0,7,4.75,16.85,16.85,0,0,0,13.41-1.06C210.82,485.46,207.14,484.11,207.14,484.11Z"></path><path class="cls-11" d="M209,465.88c.18.47,3-.3,2.95-.86.55-1.82,1.79-6,2.1-7.75a8.28,8.28,0,0,0-2.23-7.73c-2.71-2.81-12.08-3.72-15.47-1.76s-10.64,7.27-8.12,19a31.6,31.6,0,0,0,7.27,14.71,13.63,13.63,0,0,0,9.41-11.17c.25-1.67-2.5-4.95-.57-6.71S208.5,464.68,209,465.88Z"></path><path class="cls-19" d="M245.63,569.15l-1.52,1.24a1.71,1.71,0,0,1-.66.33c.27,1.33.49,2.87.71,4.59,1,7.52,3.15,29.67,3.18,29.89l2.19-1.15c0-.22-2.25-22.86-3.24-30.42C246.09,572.07,245.89,570.55,245.63,569.15Z"></path><path class="cls-19" d="M246.52,568.42l-1.47,1.2,2.29,35.58,3.26,1.91s-.48-15.47-1.07-21.26C249.06,581.19,247.22,571.89,246.52,568.42Z"></path><path class="cls-25" d="M249.55,575.53a34.83,34.83,0,0,0-1.68-8.22h0l-2.23,1.83c.88,1.76,1.32,4.53,1.78,8.08,1,7.52,3.16,29.66,3.18,29.89l2.19-1.15C252.77,605.73,250.54,583.09,249.55,575.53Z"></path><path class="cls-21" d="M166.78,564.84l41.68,24s-9.05-23.09-12-30.38-7.1-18.17-7.1-18.17l-40.11-21.53Z"></path><path class="cls-22" d="M254.54,566.57l-31.8,18.36c-11.49,6.64-15.65,6-19.34-2.93-3.4-8.25-13.55-35-15.18-39.39l4-2.3c.11.29,11.08,29.67,14.46,37.88,3.09,7.48,6,7.83,16.08,2l31.8-18.37Z"></path><polygon class="cls-20" points="151.05 516.66 147.06 518.96 188.22 542.61 192.2 540.31 151.05 516.66"></polygon><path class="cls-1" d="M237.86,524.1s6.13.66,8.58,2,2.1,6.82,1.38,8.78c-.24.65-1.43,4.29-2.78,3.52s0-3.11,0-3.11-2,2.28-2.62,1.9c-1.42-.83.52-2.8.52-2.8l-5-3.57Z"></path><path class="cls-24" d="M241.18,524.59a26.45,26.45,0,0,0-9.2-3.71c-1.68-5.39-7.76-26.7-16.76-29.69-2.84-.93-5.89,6.08-5,13a91.8,91.8,0,0,0,6.65,23.09c1.24,2.6,3.34,6.82,7.71,8.35,3.83,1.35,7.52,2.67,14,.49S246.61,527.85,241.18,524.59Z"></path><polygon class="cls-17" points="94.7 189.53 93.66 189.05 119.14 134.16 140.58 162.03 139.68 162.73 119.38 136.35 94.7 189.53"></polygon><polygon class="cls-31" points="154.05 138.28 154.05 248.02 83.91 288.96 83.91 178.81 154.05 138.28"></polygon><polygon class="cls-6" points="150.33 146.73 150.33 246.01 88.78 281.93 88.78 182.3 150.33 146.73"></polygon><polygon class="cls-39" points="108.3 220.93 116.97 215.92 116.97 197.02 108.3 202.03 108.3 220.93"></polygon><polygon class="cls-30" points="108.3 191.13 108.3 202.03 116.97 197.02 116.97 186.12 108.3 191.13"></polygon><polygon class="cls-39" points="96.29 227.87 104.96 222.86 104.96 197.87 96.29 202.88 96.29 227.87"></polygon><polygon class="cls-30" points="96.29 188.47 96.29 202.88 104.96 197.87 104.96 183.46 96.29 188.47"></polygon><polygon class="cls-39" points="120.65 213.86 129.32 208.86 129.32 194.04 120.65 199.05 120.65 213.86"></polygon><polygon class="cls-30" points="120.65 190.5 120.65 202.25 129.32 197.24 129.32 185.5 120.65 190.5"></polygon><polygon class="cls-39" points="133 206.67 141.67 201.66 141.67 194.3 133 199.3 133 206.67"></polygon><polygon class="cls-30" points="133 195.06 133 202.99 141.67 197.98 141.67 190.05 133 195.06"></polygon><polygon class="cls-17" points="108.3 179.02 144.7 158.01 144.7 154.7 108.3 175.72 108.3 179.02"></polygon><polygon class="cls-39" points="102.96 251.96 111.27 223.83 117.84 233.47 123.1 219.09 125.87 224.15 127.97 219.34 133.25 226.36 135.19 221.43 139.44 230.9 134.08 247.44 110.39 262.29 102.96 251.96"></polygon><polygon class="cls-30" points="100.62 251.45 100.62 269.53 145.03 243.89 145.03 222.12 139.37 217.12 129.9 242.84 124.78 233.81 119.87 246.46 111.7 233.09 107.39 246.78 103.51 243.1 100.62 251.45"></polygon><polygon class="cls-17" points="179.93 91.45 178.9 90.97 204.37 36.08 225.81 63.95 224.91 64.65 204.62 38.27 179.93 91.45"></polygon><polygon class="cls-31" points="239.45 40.68 239.45 114.81 169.31 155.75 169.31 81.21 239.45 40.68"></polygon><polygon class="cls-6" points="234.96 49.83 234.96 113.15 173.32 148.79 173.32 85.17 234.96 49.83"></polygon><polygon class="cls-22" points="176.96 142.84 176.28 142.63 185 114.33 190.21 121.78 199.96 95.38 208.32 100.93 224.07 60.81 224.74 61.07 208.67 102.02 200.32 96.48 190.41 123.32 185.25 115.95 176.96 142.84"></polygon><polygon class="cls-30" points="176.96 142.86 176.28 142.6 190.89 103.34 196.69 110.03 210.42 75.19 228.43 97.14 227.88 97.59 210.64 76.59 196.93 111.4 191.14 104.72 176.96 142.86"></polygon><polygon class="cls-10" points="176.95 142.88 176.29 142.58 189.76 112.67 196.75 126.44 203.53 107.23 210.28 113.41 225.71 75.75 226.37 76.02 210.56 114.64 203.85 108.5 196.87 128.26 189.8 114.33 176.95 142.88"></polygon><polygon class="cls-17" points="176.26 143.35 176.26 88.61 176.98 88.61 176.98 142.11 231.96 110.37 232.32 110.99 176.26 143.35"></polygon><polygon class="cls-30" points="181.16 87.29 180.8 86.66 193.06 79.64 193.42 80.26 181.16 87.29"></polygon><polygon class="cls-10" points="181.16 91.5 180.8 90.88 193.06 83.85 193.42 84.48 181.16 91.5"></polygon><polygon class="cls-22" points="181.16 95.95 180.8 95.33 193.06 88.3 193.42 88.93 181.16 95.95"></polygon><path class="cls-40" d="M565.84,297.12c-3.21-4-8-9.28-11.76-14.37s-5.59-6.11-7.82-10.48c-2.94-5.75-4.75-8.15-5.19-6.07s.4,3,1,4.91a28.74,28.74,0,0,0,1.79,4.18s-3.28,2.32-4.38,4.63.61,4.57,2.66,6.17,5.07.78,6.25,2.13c2.32,2.64,4.38,11.12,9,17.17s6.67,6.54,9.35,7.91c3.09,1.58,10,.8,11.13-.78.65-.95-2-4.36-2.08-5.83C575.49,302.76,567.14,298.73,565.84,297.12Z"></path><polygon class="cls-40" points="590.32 301.01 577.79 313.18 569.53 301.94 581.89 291.72 590.32 301.01"></polygon><path class="cls-41" d="M575.19,295.44a55.34,55.34,0,0,0,8.29,9.71,20.32,20.32,0,0,0,7.67,4.55,134.81,134.81,0,0,0,10-21.64c2.73-7.45-7-11.53-12.31-7.22C581.89,286.5,575.19,295.44,575.19,295.44Z"></path><path class="cls-4" d="M580.21,451.69c3.39-3.3,5.93-6.07,5.93-6.07l15.45-.65v5.11a6.45,6.45,0,0,1-2.87,3.63,66.59,66.59,0,0,1-9.68,5,58.53,58.53,0,0,1-12.92,2.79c-3.24.13-4.64-1.4-2.94-3.06C576.1,455.64,577.07,454.75,580.21,451.69Z"></path><path class="cls-4" d="M616.07,454.15,630,452.59a36.19,36.19,0,0,1-1.31,18c-3.26,9.13-9,9.22-11,8.5s-2.94-6.53-2.58-13.11S616.07,454.15,616.07,454.15Z"></path><path class="cls-42" d="M597.88,332.84c-6.41,1.91-12.33,4.21-12.33,4.21s-4.06,30-5.31,48c-1.41,20.49,3.2,60.88,3.2,60.88s.72,4.38,8.27,3.76c5.78-.48,10.19-5.57,10.19-5.57l-3.18-46.6,6.63-28.88C604.37,352.23,599.19,349.23,597.88,332.84Z"></path><path class="cls-43" d="M635.41,449s-3.95-29.83-12.6-49.29c-.72-14.77,4.79-31.71,1.43-46.35-4.2-18.3-10.78-17.8-10.78-17.8.4-3.08-6.35-2.55-13.37-1.21,0,12.26.09,24.51,0,36.77l.14-.73s1,24.35,4.76,37.61c5,17.51,8.46,48,8.46,48s9.82,3.51,16.54.15S635.41,449,635.41,449Z"></path><path class="cls-44" d="M595.54,284a4.26,4.26,0,0,1,2,1.84l15.46.28s12.57,2.59,15.53,12.33a85.17,85.17,0,0,1-.63,13.37c-.45.28-3.39-.19-3.61.44-3.93,11.44-3.4,25.42-2.58,36.93-1.43,2.92-31.64,3-37.63-.39C587.33,326.3,577.66,300.3,595.54,284Z"></path><path class="cls-16" d="M598,301.69a5.05,5.05,0,0,0,1.28-1.16,12.16,12.16,0,0,0,2-4.23,4.07,4.07,0,0,1-2.36,0c-1.69-.59-2.69-.82-2.69-.82s-1.23,3.64-.73,5.1c-1.26,2.54-4.38,10.09-4.38,10.09l3.12,7.31,5.64-6.5s-.15-.47-.67-2A75.74,75.74,0,0,1,598,301.69Z"></path><path class="cls-45" d="M584,306.72c2-17.62,11-25.57,11-25.57l4.23,2.5s-5,11-5.49,16a47.2,47.2,0,0,0,1.45,16s6-15.52,12.36-22c5.91-6,7-7.58,7-7.58l5.74,3s-7.83,11.37-6.71,24.11c1,11,8.44,11.16,8.44,11.16l3.85,30.31s-9.41,6.28-17.12,6.81a83,83,0,0,1-11.54-.2c0-3-1.71-9.15-1.71-9.15s-2.11,4.94-2.11,8.18a15.66,15.66,0,0,1-11.53-8.18S584,337.46,584,329.55C584,317.33,583.66,310,584,306.72Z"></path><path class="cls-40" d="M599.23,283.65,611,275.12l2.49,13.8a21.92,21.92,0,0,1-5.91,4.7c-2.94,1.54-6.25,1.68-9.46,2.68a5,5,0,0,1-.25-4.54Z"></path><path class="cls-46" d="M612.35,260c2.59,3.31,3.4,11.61-.18,17.45-3.17,5.19-10.42,8.12-13.64,8.64-5.75.93-12-15-5.39-24.67C599.4,252.11,609,255.69,612.35,260Z"></path><path class="cls-4" d="M606.82,252.92a11.7,11.7,0,0,1,7.57,5c5.86,1.25,5.26,9.69,3.8,12.88-2.81,6.16-6,6.58-6,6.58s.84-3.36.1-4.82c-.63-1.25-2.63-1.47-3.3.75a5.21,5.21,0,0,1-1.63.17l.68-4.44a8,8,0,0,1-7.22-.51,7.28,7.28,0,0,0-8.26.31,8.67,8.67,0,0,1-.58-4.52c-2.28-1.6-4.45-3-4.12-4.12a6.62,6.62,0,0,0,5.45-.51,13,13,0,0,1-3-3.4C594.32,256.83,603,252.29,606.82,252.92Z"></path><path class="cls-41" d="M598.85,285.86a73.12,73.12,0,0,0-.76,10.44l-6.94-3.25,3.79-8.46C595.29,285,597.21,286.48,598.85,285.86Z"></path><path class="cls-41" d="M612.29,282.45s2.06,2.42,2.29,3.59c.73,3.7-2.79,8.72-5.75,12.58-3.11-1.63-10.74-2.32-10.74-2.32s4.19-3.76,6.8-5.82C611,285.63,612.29,282.45,612.29,282.45Z"></path><path class="cls-46" d="M625.71,294.89c-2.66.19-8.36,4.18-12.05,9.35-3,4.25-2.63,8.17-5.9,14.42a26.32,26.32,0,0,0-2.75,8.57s-16.72-4-20.19-5.75-4-5.36-7-8.3c-2-2-6.65-3-8.66-1.49a5.46,5.46,0,0,0-2.6,5.18c0,2.46,5.42,5,6.67,5.85s.78,2.77,5.28,4.34c1.79.63,2,1.37,4.4,2.6s17.14,9,21.69,10.42c3.92,1.2,6-1.19,8.11-2.84,4.63-3.58,8.71-16.23,13.32-24.61S629,300.44,625.71,294.89Z"></path><path class="cls-41" d="M622.48,290.44s-4.29-.33-8.38,7.62S607,317.27,607,317.27a20.89,20.89,0,0,0,8.76,5.89c5.46,1.71,6.11.63,8-.48,0,0,6.09-14.48,6.9-18.95C632.44,294.06,622.48,290.44,622.48,290.44Z"></path></g></g></svg>