<svg xmlns="http://www.w3.org/2000/svg" xmlns:xlink="http://www.w3.org/1999/xlink" viewBox="0 0 200 200"><defs><style>.cls-1{isolation:isolate;}.cls-2,.cls-75{opacity:0.2;}.cls-3{fill:url(#linear-gradient);}.cls-4{fill:url(#linear-gradient-2);}.cls-5{fill:url(#linear-gradient-3);}.cls-6{fill:url(#New_Gradient_Swatch_copy_7);}.cls-7{fill:url(#New_Gradient_Swatch_copy_7-2);}.cls-8{fill:url(#linear-gradient-4);}.cls-9{fill:url(#New_Gradient_Swatch_copy_7-3);}.cls-10{fill:url(#New_Gradient_Swatch_copy_7-4);}.cls-11{fill:url(#New_Gradient_Swatch_copy_16);}.cls-12,.cls-15,.cls-18,.cls-22,.cls-32,.cls-35,.cls-38,.cls-42,.cls-52,.cls-55,.cls-58,.cls-62{mix-blend-mode:color-dodge;}.cls-12{fill:url(#Radial_Gradient_1);}.cls-13{fill:url(#New_Gradient_Swatch_copy_7-5);}.cls-14{fill:url(#New_Gradient_Swatch_copy_16-2);}.cls-15{fill:url(#Radial_Gradient_1-2);}.cls-16{fill:url(#New_Gradient_Swatch_copy_7-6);}.cls-17{fill:url(#New_Gradient_Swatch_copy_16-3);}.cls-18{fill:url(#Radial_Gradient_1-3);}.cls-19{fill:url(#New_Gradient_Swatch_copy_7-7);}.cls-20{fill:url(#New_Gradient_Swatch_copy_7-8);}.cls-21{fill:url(#New_Gradient_Swatch_copy_16-4);}.cls-22{fill:url(#Radial_Gradient_1-4);}.cls-23{fill:url(#New_Gradient_Swatch_copy_13);}.cls-24{fill:url(#New_Gradient_Swatch_copy_13-2);}.cls-25{fill:url(#New_Gradient_Swatch_copy_13-3);}.cls-26{fill:url(#New_Gradient_Swatch_copy_8);}.cls-27{fill:url(#New_Gradient_Swatch_copy_8-2);}.cls-28{fill:url(#New_Gradient_Swatch_copy_8-3);}.cls-29{fill:url(#New_Gradient_Swatch_copy_8-4);}.cls-30{fill:url(#New_Gradient_Swatch_copy_8-5);}.cls-31{fill:url(#New_Gradient_Swatch_copy_17);}.cls-32{fill:url(#Radial_Gradient_1-5);}.cls-33{fill:url(#New_Gradient_Swatch_copy_8-6);}.cls-34{fill:url(#New_Gradient_Swatch_copy_17-2);}.cls-35{fill:url(#Radial_Gradient_1-6);}.cls-36{fill:url(#New_Gradient_Swatch_copy_8-7);}.cls-37{fill:url(#New_Gradient_Swatch_copy_17-3);}.cls-38{fill:url(#Radial_Gradient_1-7);}.cls-39{fill:url(#New_Gradient_Swatch_copy_8-8);}.cls-40{fill:url(#New_Gradient_Swatch_copy_8-9);}.cls-41{fill:url(#New_Gradient_Swatch_copy_17-4);}.cls-42{fill:url(#Radial_Gradient_1-8);}.cls-43{fill:url(#linear-gradient-5);}.cls-44{fill:url(#linear-gradient-6);}.cls-45{fill:url(#linear-gradient-7);}.cls-46{fill:url(#New_Gradient_Swatch_copy_9);}.cls-47{fill:url(#New_Gradient_Swatch_copy_9-2);}.cls-48{fill:url(#New_Gradient_Swatch_copy_9-3);}.cls-49{fill:url(#New_Gradient_Swatch_copy_9-4);}.cls-50{fill:url(#New_Gradient_Swatch_copy_9-5);}.cls-51{fill:url(#New_Gradient_Swatch_copy_18);}.cls-52{fill:url(#Radial_Gradient_1-9);}.cls-53{fill:url(#New_Gradient_Swatch_copy_9-6);}.cls-54{fill:url(#New_Gradient_Swatch_copy_18-2);}.cls-55{fill:url(#Radial_Gradient_1-10);}.cls-56{fill:url(#New_Gradient_Swatch_copy_9-7);}.cls-57{fill:url(#New_Gradient_Swatch_copy_18-3);}.cls-58{fill:url(#Radial_Gradient_1-11);}.cls-59{fill:url(#New_Gradient_Swatch_copy_9-8);}.cls-60{fill:url(#New_Gradient_Swatch_copy_9-9);}.cls-61{fill:url(#New_Gradient_Swatch_copy_18-4);}.cls-62{fill:url(#Radial_Gradient_1-12);}.cls-63{fill:#333;}.cls-64{fill:#fff;}.cls-65{fill:#f26b61;}.cls-66{fill:#e6e7e8;}.cls-67{fill:#414042;}.cls-68{fill:#6d6e71;}.cls-69{fill:#231f20;}.cls-70{opacity:0.3;}.cls-71{mix-blend-mode:screen;}.cls-72{fill:#76db26;}.cls-73{fill:#ed1c24;}.cls-74{fill:#58dfec;}.cls-76{opacity:0;}.cls-77{opacity:0.09;}.cls-78{opacity:0.18;}.cls-79{opacity:0.27;}.cls-80{opacity:0.36;}.cls-81{opacity:0.45;}.cls-82{opacity:0.55;}.cls-83{opacity:0.64;}.cls-84{opacity:0.73;}.cls-85{opacity:0.82;}.cls-86{opacity:0.91;}.cls-87{fill:url(#New_Gradient_Swatch_copy_7-9);}.cls-88{fill:url(#New_Gradient_Swatch_copy_7-10);}.cls-89{fill:url(#New_Gradient_Swatch_copy_7-11);}.cls-90{fill:url(#New_Gradient_Swatch_copy_7-12);}.cls-91{fill:url(#New_Gradient_Swatch_copy_7-13);}.cls-92{fill:#f1f2f2;}.cls-92,.cls-93{mix-blend-mode:multiply;}.cls-93,.cls-94{fill:#c7bcd6;}.cls-95{fill:url(#linear-gradient-8);}.cls-96{fill:url(#linear-gradient-9);}.cls-97{fill:url(#linear-gradient-10);}.cls-98{fill:url(#linear-gradient-11);}.cls-99{fill:url(#linear-gradient-12);}</style><linearGradient id="linear-gradient" x1="163.03" y1="58.58" x2="214.62" y2="43.13" gradientUnits="userSpaceOnUse"><stop offset="0.04" stop-color="#ee4731"></stop><stop offset="0.72" stop-color="#ef5040"></stop><stop offset="1" stop-color="#ef5448"></stop></linearGradient><linearGradient id="linear-gradient-2" x1="115.35" y1="64.85" x2="183.42" y2="49.59" xlink:href="#linear-gradient"></linearGradient><linearGradient id="linear-gradient-3" x1="176.87" y1="2.58" x2="156.32" y2="41.75" xlink:href="#linear-gradient"></linearGradient><linearGradient id="New_Gradient_Swatch_copy_7" x1="165.6" y1="57.78" x2="186.34" y2="51.57" gradientUnits="userSpaceOnUse"><stop offset="0.04" stop-color="#138bbd"></stop><stop offset="0.23" stop-color="#169ac7"></stop><stop offset="0.59" stop-color="#1fc3df"></stop><stop offset="1" stop-color="#2af6ff"></stop></linearGradient><linearGradient id="New_Gradient_Swatch_copy_7-2" x1="161.95" y1="31.19" x2="157.35" y2="39.96" xlink:href="#New_Gradient_Swatch_copy_7"></linearGradient><linearGradient id="linear-gradient-4" x1="6728.77" y1="60.64" x2="6758.53" y2="53.97" gradientTransform="matrix(-1, 0, 0, 1, 6891.87, 0)" xlink:href="#New_Gradient_Swatch_copy_7"></linearGradient><linearGradient id="New_Gradient_Swatch_copy_7-3" x1="6738.1" y1="31.42" x2="6733.58" y2="40.04" gradientTransform="matrix(-1, 0, 0, 1, 6891.87, 0)" xlink:href="#New_Gradient_Swatch_copy_7"></linearGradient><linearGradient id="New_Gradient_Swatch_copy_7-4" x1="161.63" y1="34.54" x2="166.24" y2="39.87" xlink:href="#New_Gradient_Swatch_copy_7"></linearGradient><linearGradient id="New_Gradient_Swatch_copy_16" x1="159.91" y1="38.92" x2="166.34" y2="30.19" gradientUnits="userSpaceOnUse"><stop offset="0.04" stop-color="#1bb0d4"></stop><stop offset="0.2" stop-color="#1ebfdd"></stop><stop offset="0.53" stop-color="#27e8f6"></stop><stop offset="0.63" stop-color="#2af6ff"></stop><stop offset="0.87" stop-color="#1bb0d4"></stop></linearGradient><radialGradient id="Radial_Gradient_1" cx="165.41" cy="34.45" r="3.28" gradientUnits="userSpaceOnUse"><stop offset="0" stop-color="#fff"></stop><stop offset="1"></stop></radialGradient><linearGradient id="New_Gradient_Swatch_copy_7-5" x1="6736.95" y1="34.66" x2="6741.57" y2="40" gradientTransform="matrix(-1, 0, 0, 1, 6891.01, 0)" xlink:href="#New_Gradient_Swatch_copy_7"></linearGradient><linearGradient id="New_Gradient_Swatch_copy_16-2" x1="6735.23" y1="39.05" x2="6741.66" y2="30.32" gradientTransform="matrix(-1, 0, 0, 1, 6891.01, 0)" xlink:href="#New_Gradient_Swatch_copy_16"></linearGradient><radialGradient id="Radial_Gradient_1-2" cx="6740.73" cy="34.57" r="3.28" gradientTransform="matrix(-1, 0, 0, 1, 6891.01, 0)" xlink:href="#Radial_Gradient_1"></radialGradient><linearGradient id="New_Gradient_Swatch_copy_7-6" x1="6728.33" y1="38.78" x2="6729.5" y2="44.66" gradientTransform="matrix(-1, 0, 0, 1, 6891.01, 0)" xlink:href="#New_Gradient_Swatch_copy_7"></linearGradient><linearGradient id="New_Gradient_Swatch_copy_16-3" x1="6730.53" y1="38.34" x2="6726.48" y2="44.31" gradientTransform="matrix(-1, 0, 0, 1, 6891.01, 0)" xlink:href="#New_Gradient_Swatch_copy_16"></linearGradient><radialGradient id="Radial_Gradient_1-3" cx="6728.59" cy="41.27" r="3.19" gradientTransform="matrix(-1, 0, 0, 1, 6891.01, 0)" xlink:href="#Radial_Gradient_1"></radialGradient><linearGradient id="New_Gradient_Swatch_copy_7-7" x1="157.86" y1="41.03" x2="157.86" y2="37.84" xlink:href="#New_Gradient_Swatch_copy_7"></linearGradient><linearGradient id="New_Gradient_Swatch_copy_7-8" x1="152.8" y1="38.78" x2="153.97" y2="44.66" xlink:href="#New_Gradient_Swatch_copy_7"></linearGradient><linearGradient id="New_Gradient_Swatch_copy_16-4" x1="155" y1="38.34" x2="150.95" y2="44.31" xlink:href="#New_Gradient_Swatch_copy_16"></linearGradient><radialGradient id="Radial_Gradient_1-4" cx="153.06" cy="41.27" r="3.19" xlink:href="#Radial_Gradient_1"></radialGradient><linearGradient id="New_Gradient_Swatch_copy_13" x1="148.37" y1="75.53" x2="186.14" y2="64.22" gradientUnits="userSpaceOnUse"><stop offset="0.04" stop-color="#6b24d6"></stop><stop offset="0.29" stop-color="#7733dc"></stop><stop offset="0.79" stop-color="#975ced"></stop><stop offset="1" stop-color="#a56ef4"></stop></linearGradient><linearGradient id="New_Gradient_Swatch_copy_13-2" x1="112.1" y1="80.12" x2="161.92" y2="68.95" xlink:href="#New_Gradient_Swatch_copy_13"></linearGradient><linearGradient id="New_Gradient_Swatch_copy_13-3" x1="159.25" y1="34.09" x2="142.66" y2="65.71" xlink:href="#New_Gradient_Swatch_copy_13"></linearGradient><linearGradient id="New_Gradient_Swatch_copy_8" x1="150.45" y1="74.88" x2="163.31" y2="71.03" gradientUnits="userSpaceOnUse"><stop offset="0.04" stop-color="#ffa98c"></stop><stop offset="0.32" stop-color="#ffb892"></stop><stop offset="0.86" stop-color="#fee1a3"></stop><stop offset="1" stop-color="#feeca8"></stop></linearGradient><linearGradient id="New_Gradient_Swatch_copy_8-2" x1="147.21" y1="57.18" x2="143.49" y2="64.26" xlink:href="#New_Gradient_Swatch_copy_8"></linearGradient><linearGradient id="New_Gradient_Swatch_copy_8-3" x1="6746.25" y1="76.72" x2="6765.14" y2="72.49" gradientTransform="matrix(-1, 0, 0, 1, 6891.87, 0)" xlink:href="#New_Gradient_Swatch_copy_8"></linearGradient><linearGradient id="New_Gradient_Swatch_copy_8-4" x1="6751.27" y1="57.37" x2="6747.62" y2="64.33" gradientTransform="matrix(-1, 0, 0, 1, 6891.87, 0)" xlink:href="#New_Gradient_Swatch_copy_8"></linearGradient><linearGradient id="New_Gradient_Swatch_copy_8-5" x1="146.94" y1="59.88" x2="150.67" y2="64.19" xlink:href="#New_Gradient_Swatch_copy_8"></linearGradient><linearGradient id="New_Gradient_Swatch_copy_17" x1="145.56" y1="63.43" x2="150.75" y2="56.38" gradientUnits="userSpaceOnUse"><stop offset="0.04" stop-color="#f7aa90"></stop><stop offset="0.23" stop-color="#f9b996"></stop><stop offset="0.61" stop-color="#ffe2a6"></stop><stop offset="0.63" stop-color="#ffe4a7"></stop><stop offset="0.87" stop-color="#f7aa90"></stop></linearGradient><radialGradient id="Radial_Gradient_1-5" cx="150" cy="59.81" r="2.65" xlink:href="#Radial_Gradient_1"></radialGradient><linearGradient id="New_Gradient_Swatch_copy_8-6" x1="6750.18" y1="59.99" x2="6753.9" y2="64.29" gradientTransform="matrix(-1, 0, 0, 1, 6891.01, 0)" xlink:href="#New_Gradient_Swatch_copy_8"></linearGradient><linearGradient id="New_Gradient_Swatch_copy_17-2" x1="6748.79" y1="63.53" x2="6753.98" y2="56.48" gradientTransform="matrix(-1, 0, 0, 1, 6891.01, 0)" xlink:href="#New_Gradient_Swatch_copy_17"></linearGradient><radialGradient id="Radial_Gradient_1-6" cx="6753.23" cy="59.91" r="2.65" gradientTransform="matrix(-1, 0, 0, 1, 6891.01, 0)" xlink:href="#Radial_Gradient_1"></radialGradient><linearGradient id="New_Gradient_Swatch_copy_8-7" x1="6743.22" y1="63.31" x2="6744.16" y2="68.06" gradientTransform="matrix(-1, 0, 0, 1, 6891.01, 0)" xlink:href="#New_Gradient_Swatch_copy_8"></linearGradient><linearGradient id="New_Gradient_Swatch_copy_17-3" x1="6744.99" y1="62.96" x2="6741.72" y2="67.77" gradientTransform="matrix(-1, 0, 0, 1, 6891.01, 0)" xlink:href="#New_Gradient_Swatch_copy_17"></linearGradient><radialGradient id="Radial_Gradient_1-7" cx="6743.42" cy="65.32" r="2.57" gradientTransform="matrix(-1, 0, 0, 1, 6891.01, 0)" xlink:href="#Radial_Gradient_1"></radialGradient><linearGradient id="New_Gradient_Swatch_copy_8-8" x1="143.91" y1="65.13" x2="143.91" y2="62.55" xlink:href="#New_Gradient_Swatch_copy_8"></linearGradient><linearGradient id="New_Gradient_Swatch_copy_8-9" x1="139.82" y1="63.31" x2="140.76" y2="68.06" xlink:href="#New_Gradient_Swatch_copy_8"></linearGradient><linearGradient id="New_Gradient_Swatch_copy_17-4" x1="141.59" y1="62.96" x2="138.32" y2="67.77" xlink:href="#New_Gradient_Swatch_copy_17"></linearGradient><radialGradient id="Radial_Gradient_1-8" cx="140.03" cy="65.32" r="2.57" xlink:href="#Radial_Gradient_1"></radialGradient><linearGradient id="linear-gradient-5" x1="175.67" y1="80.57" x2="208.98" y2="70.6" xlink:href="#New_Gradient_Swatch_copy_7"></linearGradient><linearGradient id="linear-gradient-6" x1="142.78" y1="84.62" x2="186.69" y2="74.78" xlink:href="#New_Gradient_Swatch_copy_7"></linearGradient><linearGradient id="linear-gradient-7" x1="185.77" y1="43.73" x2="170.11" y2="73.58" xlink:href="#New_Gradient_Swatch_copy_7"></linearGradient><linearGradient id="New_Gradient_Swatch_copy_9" x1="177.64" y1="79.96" x2="187.43" y2="77.03" gradientUnits="userSpaceOnUse"><stop offset="0.04" stop-color="#9f19ab"></stop><stop offset="0.24" stop-color="#ae25b1"></stop><stop offset="0.65" stop-color="#d744bf"></stop><stop offset="1" stop-color="#ff63ce"></stop></linearGradient><linearGradient id="New_Gradient_Swatch_copy_9-2" x1="174.4" y1="65.53" x2="170.89" y2="72.22" xlink:href="#New_Gradient_Swatch_copy_9"></linearGradient><linearGradient id="New_Gradient_Swatch_copy_9-3" x1="6720.49" y1="81.41" x2="6735.21" y2="78.11" gradientTransform="matrix(-1, 0, 0, 1, 6891.87, 0)" xlink:href="#New_Gradient_Swatch_copy_9"></linearGradient><linearGradient id="New_Gradient_Swatch_copy_9-4" x1="6723.71" y1="65.71" x2="6720.26" y2="72.28" gradientTransform="matrix(-1, 0, 0, 1, 6891.87, 0)" xlink:href="#New_Gradient_Swatch_copy_9"></linearGradient><linearGradient id="New_Gradient_Swatch_copy_9-5" x1="174.15" y1="68.09" x2="177.67" y2="72.15" xlink:href="#New_Gradient_Swatch_copy_9"></linearGradient><linearGradient id="New_Gradient_Swatch_copy_18" x1="172.84" y1="71.43" x2="177.74" y2="64.77" gradientUnits="userSpaceOnUse"><stop offset="0.04" stop-color="#9f19ab"></stop><stop offset="0.16" stop-color="#ae25b1"></stop><stop offset="0.41" stop-color="#d744bf"></stop><stop offset="0.63" stop-color="#ff63ce"></stop><stop offset="0.87" stop-color="#dc48c1"></stop></linearGradient><radialGradient id="Radial_Gradient_1-9" cx="177.03" cy="68.02" r="2.5" xlink:href="#Radial_Gradient_1"></radialGradient><linearGradient id="New_Gradient_Swatch_copy_9-6" x1="6722.63" y1="68.18" x2="6726.15" y2="72.25" gradientTransform="matrix(-1, 0, 0, 1, 6891.01, 0)" xlink:href="#New_Gradient_Swatch_copy_9"></linearGradient><linearGradient id="New_Gradient_Swatch_copy_18-2" x1="6721.32" y1="71.53" x2="6726.22" y2="64.87" gradientTransform="matrix(-1, 0, 0, 1, 6891.01, 0)" xlink:href="#New_Gradient_Swatch_copy_18"></linearGradient><radialGradient id="Radial_Gradient_1-10" cx="6725.51" cy="68.11" r="2.5" gradientTransform="matrix(-1, 0, 0, 1, 6891.01, 0)" xlink:href="#Radial_Gradient_1"></radialGradient><linearGradient id="New_Gradient_Swatch_copy_9-7" x1="6716.06" y1="71.32" x2="6716.94" y2="75.8" gradientTransform="matrix(-1, 0, 0, 1, 6891.01, 0)" xlink:href="#New_Gradient_Swatch_copy_9"></linearGradient><linearGradient id="New_Gradient_Swatch_copy_18-3" x1="6717.73" y1="70.99" x2="6714.64" y2="75.53" gradientTransform="matrix(-1, 0, 0, 1, 6891.01, 0)" xlink:href="#New_Gradient_Swatch_copy_18"></linearGradient><radialGradient id="Radial_Gradient_1-11" cx="6716.25" cy="73.22" r="2.43" gradientTransform="matrix(-1, 0, 0, 1, 6891.01, 0)" xlink:href="#Radial_Gradient_1"></radialGradient><linearGradient id="New_Gradient_Swatch_copy_9-8" x1="171.28" y1="73.04" x2="171.28" y2="70.61" xlink:href="#New_Gradient_Swatch_copy_9"></linearGradient><linearGradient id="New_Gradient_Swatch_copy_9-9" x1="167.43" y1="71.32" x2="168.31" y2="75.8" xlink:href="#New_Gradient_Swatch_copy_9"></linearGradient><linearGradient id="New_Gradient_Swatch_copy_18-4" x1="169.1" y1="70.99" x2="166.01" y2="75.53" xlink:href="#New_Gradient_Swatch_copy_18"></linearGradient><radialGradient id="Radial_Gradient_1-12" cx="167.62" cy="73.22" r="2.43" xlink:href="#Radial_Gradient_1"></radialGradient><linearGradient id="New_Gradient_Swatch_copy_7-9" x1="8991.54" y1="51.37" x2="9024.54" y2="68.26" gradientTransform="matrix(-1, 0, 0, 1, 9111.21, 0)" xlink:href="#New_Gradient_Swatch_copy_7"></linearGradient><linearGradient id="New_Gradient_Swatch_copy_7-10" x1="9013.42" y1="70.6" x2="9043.79" y2="25.22" gradientTransform="matrix(-1, 0, 0, 1, 9111.21, 0)" xlink:href="#New_Gradient_Swatch_copy_7"></linearGradient><linearGradient id="New_Gradient_Swatch_copy_7-11" x1="9015.62" y1="88.4" x2="9026.97" y2="98.58" gradientTransform="matrix(-1, 0, 0, 1, 9111.21, 0)" xlink:href="#New_Gradient_Swatch_copy_7"></linearGradient><linearGradient id="New_Gradient_Swatch_copy_7-12" x1="9018.02" y1="66.68" x2="9051.03" y2="83.56" gradientTransform="matrix(-1, 0, 0, 1, 9111.21, 0)" xlink:href="#New_Gradient_Swatch_copy_7"></linearGradient><linearGradient id="New_Gradient_Swatch_copy_7-13" x1="9059.05" y1="49.07" x2="8986.36" y2="79.4" gradientTransform="matrix(-1, 0, 0, 1, 9111.21, 0)" xlink:href="#New_Gradient_Swatch_copy_7"></linearGradient><linearGradient id="linear-gradient-8" x1="595.57" y1="68.24" x2="617.53" y2="79.48" gradientTransform="translate(-485.36)" gradientUnits="userSpaceOnUse"><stop offset="0.04" stop-color="#d33b2f"></stop><stop offset="0.62" stop-color="#e2493d"></stop><stop offset="1" stop-color="#ef5448"></stop></linearGradient><linearGradient id="linear-gradient-9" x1="613.59" y1="82.58" x2="632.01" y2="55.06" gradientTransform="translate(-485.36)" xlink:href="#linear-gradient"></linearGradient><linearGradient id="linear-gradient-10" x1="614.55" y1="93.44" x2="624.56" y2="102.42" xlink:href="#linear-gradient-8"></linearGradient><linearGradient id="linear-gradient-11" x1="618.92" y1="81.73" x2="640.88" y2="92.97" xlink:href="#linear-gradient-8"></linearGradient><linearGradient id="linear-gradient-12" x1="646.35" y1="67.77" x2="591.67" y2="90.59" gradientTransform="translate(-485.36)" gradientUnits="userSpaceOnUse"><stop offset="0.04" stop-color="#ee4731"></stop><stop offset="0.64" stop-color="#ef5040"></stop><stop offset="0.88" stop-color="#ef5448"></stop></linearGradient></defs><g class="cls-1"><g id="&#x421;&#x43B;&#x43E;&#x439;_1" data-name="&#x421;&#x43B;&#x43E;&#x439; 1"><polygon class="cls-2" points="137.69 64.59 158.25 76.66 178.82 64.55 158.21 52.55 137.69 64.59"></polygon><polygon class="cls-3" points="157.82 49.71 157.82 75.83 176.08 65.25 176.08 38.98 157.82 49.71"></polygon><polygon class="cls-4" points="157.84 49.71 157.84 75.83 139.49 65.22 139.49 38.95 157.84 49.71"></polygon><polygon class="cls-5" points="139.49 38.95 157.84 49.71 176.08 38.98 157.68 28.27 139.49 38.95"></polygon><polygon class="cls-6" points="165.5 45.25 165.5 71.36 168.86 69.52 168.86 43.25 165.5 45.25"></polygon><polygon class="cls-7" points="147.02 34.43 165.52 45.25 168.86 43.25 150.31 32.48 147.02 34.43"></polygon><polygon class="cls-8" points="150.17 45.3 150.17 71.41 146.92 69.62 146.92 43.35 150.17 45.3"></polygon><polygon class="cls-9" points="168.5 34.53 150.15 45.3 146.92 43.35 165.31 32.64 168.5 34.53"></polygon><path class="cls-10" d="M160.4,39.26l-3-1.7s3-4.22,5.76-5.56a3.29,3.29,0,0,1,4.18,1.46c.36.74-.46,2-1.39,2.57C163.5,37.54,160.4,39.26,160.4,39.26Z"></path><path class="cls-11" d="M166,33.76a2.89,2.89,0,0,1,1.39-.28A3.29,3.29,0,0,0,163.2,32c-2.78,1.34-5.76,5.56-5.76,5.56l2.87,1.65C160.76,38.6,163.47,35,166,33.76Z"></path><path class="cls-12" d="M167.3,33.31a2.83,2.83,0,0,0-1.38.28c-2.54,1.22-5.61,5.62-5.61,5.62.45-.61,3.16-4.23,5.69-5.45a2.89,2.89,0,0,1,1.39-.28Z"></path><path class="cls-13" d="M155.28,39.39l3-1.71s-3-4.22-5.76-5.55a3.28,3.28,0,0,0-4.18,1.45c-.36.75.46,2,1.39,2.58C152.18,37.66,155.28,39.39,155.28,39.39Z"></path><path class="cls-14" d="M149.67,33.88a2.83,2.83,0,0,0-1.38-.28,3.28,3.28,0,0,1,4.19-1.47c2.77,1.33,5.76,5.55,5.76,5.55l-2.87,1.66C154.92,38.72,152.21,35.1,149.67,33.88Z"></path><path class="cls-15" d="M148.38,33.43a2.83,2.83,0,0,1,1.38.28c2.54,1.22,5.61,5.63,5.61,5.63-.45-.62-3.16-4.24-5.7-5.46a2.83,2.83,0,0,0-1.38-.28Z"></path><path class="cls-16" d="M159.71,38.64a11,11,0,0,1,4.38.06c2.47.71,4.12,3.12,2.89,4.07s-2.5,1.85-3.85,1.12S157,40.4,157,40.4Z"></path><path class="cls-17" d="M161.5,40.4a11,11,0,0,0-4.37-.07l-.12.08h0l2.72-1.76a11,11,0,0,1,4.38.06c2.47.71,4.12,3.12,2.89,4.07a6.61,6.61,0,0,1-2.28,1.32C165.24,43,163.7,41,161.5,40.4Z"></path><path class="cls-18" d="M157.23,40.29h0a11,11,0,0,1,4.49,0c2.2.63,3.74,2.59,3.2,3.69.13,0,0,.06-.24.11.54-1.11-1-3.07-3.2-3.69a11,11,0,0,0-4.37-.07l-.12.08h0Z"></path><path class="cls-19" d="M159.49,38.74l-.79-.68a1.22,1.22,0,0,0-1.62,0l-.84.77L157.77,40Z"></path><path class="cls-20" d="M155.77,38.64a11,11,0,0,0-4.38.06c-2.48.71-4.12,3.12-2.89,4.07s2.5,1.85,3.85,1.12,6.14-3.49,6.14-3.49Z"></path><path class="cls-21" d="M154,40.4a11.07,11.07,0,0,1,4.38-.07l.12.08h0l-2.72-1.76a11,11,0,0,0-4.38.06c-2.48.71-4.12,3.12-2.89,4.07a6.52,6.52,0,0,0,2.28,1.32C150.24,43,151.78,41,154,40.4Z"></path><path class="cls-22" d="M158.25,40.29h0a11,11,0,0,0-4.5,0c-2.19.63-3.73,2.59-3.19,3.69-.14,0,0,.06.24.11-.54-1.11,1-3.07,3.19-3.69a11.07,11.07,0,0,1,4.38-.07l.12.08h0Z"></path><polygon class="cls-2" points="127.62 76.8 144.22 86.53 160.82 76.76 144.19 67.08 127.62 76.8"></polygon><polygon class="cls-23" points="143.87 72.13 143.87 85.86 158.61 77.33 158.61 63.47 143.87 72.13"></polygon><polygon class="cls-24" points="143.89 72.13 143.89 85.86 129.07 77.31 129.07 63.44 143.89 72.13"></polygon><polygon class="cls-25" points="129.07 63.44 143.89 72.13 158.61 63.47 143.76 54.83 129.07 63.44"></polygon><polygon class="cls-26" points="150.07 68.53 150.07 82.26 152.78 80.78 152.78 66.92 150.07 68.53"></polygon><polygon class="cls-27" points="135.15 59.8 150.09 68.53 152.78 66.92 137.81 58.23 135.15 59.8"></polygon><polygon class="cls-28" points="137.7 68.57 137.7 82.3 135.07 80.86 135.07 67 137.7 68.57"></polygon><polygon class="cls-29" points="152.5 59.88 137.68 68.57 135.07 67 149.92 58.36 152.5 59.88"></polygon><path class="cls-30" d="M146,63.7l-2.4-1.38s2.41-3.4,4.65-4.48A2.65,2.65,0,0,1,151.59,59c.29.61-.37,1.63-1.12,2.08C148.46,62.31,146,63.7,146,63.7Z"></path><path class="cls-31" d="M150.48,59.25A2.36,2.36,0,0,1,151.6,59a2.66,2.66,0,0,0-3.39-1.19c-2.24,1.08-4.65,4.48-4.65,4.48l2.32,1.34C146.25,63.16,148.43,60.24,150.48,59.25Z"></path><path class="cls-32" d="M151.52,58.89a2.31,2.31,0,0,0-1.11.23c-2,1-4.53,4.54-4.53,4.54.37-.5,2.55-3.42,4.6-4.41A2.36,2.36,0,0,1,151.6,59,1,1,0,0,0,151.52,58.89Z"></path><path class="cls-33" d="M141.82,63.8l2.39-1.37s-2.41-3.41-4.65-4.49a2.65,2.65,0,0,0-3.38,1.18c-.29.6.38,1.62,1.13,2.07C139.32,62.41,141.82,63.8,141.82,63.8Z"></path><path class="cls-34" d="M137.3,59.36a2.37,2.37,0,0,0-1.12-.23,2.65,2.65,0,0,1,3.38-1.19c2.24,1.08,4.65,4.49,4.65,4.49l-2.32,1.33C141.53,63.27,139.34,60.34,137.3,59.36Z"></path><path class="cls-35" d="M136.25,59a2.31,2.31,0,0,1,1.11.23c2,1,4.53,4.54,4.53,4.54-.36-.49-2.55-3.42-4.59-4.4a2.37,2.37,0,0,0-1.12-.23A.91.91,0,0,1,136.25,59Z"></path><path class="cls-36" d="M145.4,63.19a9,9,0,0,1,3.53.06c2,.57,3.33,2.51,2.33,3.28s-2,1.5-3.1.9-5-2.81-5-2.81Z"></path><path class="cls-37" d="M146.84,64.62a8.82,8.82,0,0,0-3.53-.06l-.1.06h0l2.2-1.43a9,9,0,0,1,3.53.06c2,.57,3.33,2.51,2.33,3.28a5.43,5.43,0,0,1-1.83,1.07C149.86,66.7,148.62,65.12,146.84,64.62Z"></path><path class="cls-38" d="M143.39,64.53h0a9,9,0,0,1,3.63,0c1.77.5,3,2.09,2.58,3,.11,0,0,0-.19.09.43-.9-.81-2.48-2.59-3a8.82,8.82,0,0,0-3.53-.06l-.1.06h0Z"></path><path class="cls-39" d="M145.22,63.28l-.64-.55a1,1,0,0,0-1.3,0l-.69.63,1.24.89Z"></path><path class="cls-40" d="M142.22,63.19a9.08,9.08,0,0,0-3.54.06c-2,.57-3.33,2.51-2.33,3.28s2,1.5,3.1.9,5-2.81,5-2.81Z"></path><path class="cls-41" d="M140.77,64.62a8.82,8.82,0,0,1,3.53-.06l.1.06h0l-2.19-1.43a9.08,9.08,0,0,0-3.54.06c-2,.57-3.33,2.51-2.33,3.28a5.38,5.38,0,0,0,1.84,1.07C137.75,66.7,139,65.12,140.77,64.62Z"></path><path class="cls-42" d="M144.22,64.53h0a9,9,0,0,0-3.63,0c-1.77.5-3,2.09-2.58,3-.11,0,0,0,.2.09-.44-.9.8-2.48,2.58-3a8.82,8.82,0,0,1,3.53-.06l.1.06h0Z"></path><polygon class="cls-2" points="155.91 79.6 171.58 88.79 187.25 79.56 171.55 70.42 155.91 79.6"></polygon><polygon class="cls-43" points="171.25 79.65 171.25 88.16 185.16 80.1 185.16 71.47 171.25 79.65"></polygon><polygon class="cls-44" points="171.26 79.65 171.26 88.16 157.28 80.08 157.28 71.45 171.26 79.65"></polygon><polygon class="cls-45" points="157.28 71.45 171.26 79.65 185.16 71.47 171.15 63.31 157.28 71.45"></polygon><polygon class="cls-46" points="177.1 76.25 177.1 84.75 179.66 83.35 179.66 74.73 177.1 76.25"></polygon><polygon class="cls-47" points="163.02 68 177.12 76.25 179.66 74.73 165.53 66.52 163.02 68"></polygon><polygon class="cls-48" points="165.42 76.29 165.42 84.79 162.94 83.43 162.94 74.8 165.42 76.29"></polygon><polygon class="cls-49" points="179.39 68.08 165.4 76.29 162.94 74.8 176.96 66.64 179.39 68.08"></polygon><path class="cls-50" d="M173.22,71.69,171,70.39s2.27-3.22,4.39-4.24a2.52,2.52,0,0,1,3.19,1.11c.27.57-.36,1.54-1.07,2C175.58,70.37,173.22,71.69,173.22,71.69Z"></path><path class="cls-51" d="M177.49,67.49a2.17,2.17,0,0,1,1-.21,2.5,2.5,0,0,0-3.19-1.13c-2.12,1-4.39,4.24-4.39,4.24l2.19,1.26C173.49,71.18,175.55,68.42,177.49,67.49Z"></path><path class="cls-52" d="M178.47,67.15a2.2,2.2,0,0,0-1.05.21c-1.93.93-4.27,4.29-4.27,4.29.34-.47,2.4-3.23,4.34-4.16a2.17,2.17,0,0,1,1-.21A.54.54,0,0,0,178.47,67.15Z"></path><path class="cls-53" d="M169.31,71.79l2.26-1.3s-2.28-3.22-4.39-4.24A2.51,2.51,0,0,0,164,67.36c-.27.57.36,1.53,1.07,2C167,70.47,169.31,71.79,169.31,71.79Z"></path><path class="cls-54" d="M165,67.59a2.06,2.06,0,0,0-1-.21,2.49,2.49,0,0,1,3.19-1.13c2.11,1,4.39,4.24,4.39,4.24l-2.19,1.26C169,71.28,167,68.52,165,67.59Z"></path><path class="cls-55" d="M164.06,67.24a2.23,2.23,0,0,1,1.05.22c1.93.93,4.27,4.29,4.27,4.29-.34-.47-2.4-3.23-4.34-4.16a2.06,2.06,0,0,0-1-.21A.91.91,0,0,1,164.06,67.24Z"></path><path class="cls-56" d="M172.69,71.21a8.35,8.35,0,0,1,3.33.05c1.89.54,3.15,2.37,2.21,3.1s-1.91,1.41-2.93.85-4.68-2.66-4.68-2.66Z"></path><path class="cls-57" d="M174.06,72.55a8.4,8.4,0,0,0-3.34,0l-.09.06h0l2.07-1.34a8.35,8.35,0,0,1,3.33.05c1.89.54,3.15,2.37,2.21,3.1a5.11,5.11,0,0,1-1.74,1C176.9,74.52,175.73,73,174.06,72.55Z"></path><path class="cls-58" d="M170.8,72.47h0a8.57,8.57,0,0,1,3.43,0c1.67.48,2.84,2,2.44,2.82.1,0,0,0-.19.08.41-.85-.76-2.34-2.43-2.82a8.4,8.4,0,0,0-3.34,0l-.09.06h0Z"></path><path class="cls-59" d="M172.52,71.29l-.6-.52a.94.94,0,0,0-1.23,0l-.65.59,1.18.85Z"></path><path class="cls-60" d="M169.69,71.21a8.4,8.4,0,0,0-3.34.05c-1.89.54-3.14,2.37-2.2,3.1s1.9,1.41,2.93.85,4.68-2.66,4.68-2.66Z"></path><path class="cls-61" d="M168.32,72.55a8.35,8.35,0,0,1,3.33,0l.1.06h0l-2.07-1.34a8.4,8.4,0,0,0-3.34.05c-1.89.54-3.14,2.37-2.2,3.1a5.08,5.08,0,0,0,1.73,1C165.47,74.52,166.64,73,168.32,72.55Z"></path><path class="cls-62" d="M171.58,72.47h0a8.52,8.52,0,0,0-3.42,0c-1.68.48-2.85,2-2.44,2.82-.1,0,0,0,.18.08-.41-.85.76-2.34,2.44-2.82a8.35,8.35,0,0,1,3.33,0l.1.06h0Z"></path><path class="cls-63" d="M186.16,112.59v.73L91.57,58.71a12.14,12.14,0,0,0-11,0L36.47,84.18v-.54H31.81v4.93h0c-.07,1.2.68,2.41,2.26,3.33l96.37,55.63a12.14,12.14,0,0,0,11,0l46.5-26.85a3.91,3.91,0,0,0,2.27-3.06h0v-5Z"></path><path class="cls-64" d="M187.93,109.43c3,1.75,3,4.59,0,6.34l-46.5,26.85a12.14,12.14,0,0,1-11,0L34.08,87c-3-1.75-3-4.59,0-6.34L80.59,53.8a12.14,12.14,0,0,1,11,0Z"></path><polygon class="cls-65" points="175.99 105.59 123.78 135.73 41.45 88.19 93.66 58.05 175.99 105.59"></polygon><ellipse class="cls-66" cx="157.44" cy="125.02" rx="7.61" ry="4.39"></ellipse><path class="cls-66" d="M178.65,112a1.33,1.33,0,0,1,0,2.51l-10.06,5.8-4.35-2.51L174.3,112A4.8,4.8,0,0,1,178.65,112Z"></path><path class="cls-66" d="M134.89,137.26a1.33,1.33,0,0,1,0-2.51L145,128.94l4.36,2.52-10.06,5.8A4.79,4.79,0,0,1,134.89,137.26Z"></path><path class="cls-66" d="M70.41,65.88a.72.72,0,0,1,0,1.36l-15,8.68a2.65,2.65,0,0,1-2.36,0h0a.73.73,0,0,1,0-1.37l15-8.67a2.59,2.59,0,0,1,2.36,0Z"></path><path class="cls-67" d="M86.69,56.65c1.51.87,1.71,2.21.58,3.2h0a4.38,4.38,0,0,1-.57.4,3.73,3.73,0,0,1-.4.2,4.83,4.83,0,0,1-1,.34,7.31,7.31,0,0,1-2.56.18,6,6,0,0,1-2.34-.71c-1.73-1-1.74-2.62,0-3.63a5.74,5.74,0,0,1,.71-.33,6.8,6.8,0,0,1,2.48-.41,7.08,7.08,0,0,1,1.13.09,6.71,6.71,0,0,1,1.3.35A4.33,4.33,0,0,1,86.69,56.65Z"></path><path class="cls-68" d="M83.61,55.9l1.71,4.9a7.31,7.31,0,0,1-2.56.18l-1.63-4.67A6.8,6.8,0,0,1,83.61,55.9Z"></path><path class="cls-68" d="M86,56.34l1.23,3.51h0a4.38,4.38,0,0,1-.57.4,3.73,3.73,0,0,1-.4.2L84.74,56A6.71,6.71,0,0,1,86,56.34Z"></path><path class="cls-69" d="M85.26,57.47c.83.48.93,1.21.32,1.75h0a1.89,1.89,0,0,1-.31.22l-.21.11a3,3,0,0,1-.53.19,4.11,4.11,0,0,1-1.4.09,3.42,3.42,0,0,1-1.28-.38,1,1,0,0,1,0-2c.12-.07.26-.13.39-.19a4,4,0,0,1,1.35-.22,4.21,4.21,0,0,1,.62,0,3.22,3.22,0,0,1,.71.19A2.85,2.85,0,0,1,85.26,57.47Z"></path><path class="cls-64" d="M19,98.27l-4.64-2.63c-2.4-1.36-3.68-3-3.69-4.84,0-2,1.58-4,4.49-5.72.26-.15,26.6-15.51,30.91-17.92,4-2.24,7.92-3.92,12-.1a.29.29,0,0,1-.4.43c-3.5-3.24-6.69-2.43-11.36.18-4.31,2.41-30.64,17.77-30.91,17.92-2.71,1.57-4.2,3.42-4.19,5.21,0,1.58,1.18,3.09,3.39,4.33l4.64,2.63Z"></path><path class="cls-64" d="M98.56,144.46l-.15,0-5.31-3.09a.29.29,0,1,1,.29-.51l5.31,3.09a.29.29,0,0,1,.11.4A.29.29,0,0,1,98.56,144.46Z"></path><path class="cls-64" d="M72.52,129.31a.28.28,0,0,1-.15,0l-5.31-3.09a.29.29,0,0,1-.11-.4.28.28,0,0,1,.4-.1l5.32,3.08a.3.3,0,0,1,.1.4A.27.27,0,0,1,72.52,129.31Z"></path><path class="cls-64" d="M146.72,170.86c-1.81,0-3.43-.87-5.22-1.82l-1-.54c-2.58-1.33-15.06-8.44-20.31-11.44a.29.29,0,1,1,.29-.51c4.09,2.34,17.65,10.07,20.29,11.44l1,.54c2.73,1.46,4.89,2.61,7.91.87,3.2-1.85,31.43-18.15,35.35-20.45,2.12-1.25,3.24-2.53,3.24-3.71,0-1-.81-2-2.43-3-3.89-2.31-19.13-10.86-19.29-10.94a.29.29,0,0,1-.11-.4.31.31,0,0,1,.4-.12c.15.09,15.4,8.65,19.3,11,1.8,1.07,2.72,2.24,2.72,3.47,0,1.42-1.2,2.83-3.54,4.21-3.91,2.31-32.15,18.61-35.35,20.46A6.43,6.43,0,0,1,146.72,170.86Z"></path><path class="cls-63" d="M19.14,99.18a1.19,1.19,0,0,1-.58-.15c-3.91-2.27-3.91-2.22-4.63-2.63-3.4-1.92-4.13-4.1-4.14-5.6,0-2.33,1.74-4.64,4.93-6.48.26-.15,26.6-15.51,30.92-17.93,4.11-2.3,8.51-4.19,13.07,0a1.17,1.17,0,0,1-1.58,1.72c-3.13-2.9-5.94-2.17-10.35.29S16.16,86.19,15.89,86.35c-2.4,1.38-3.76,3-3.76,4.44s1.61,2.82,2.95,3.58c.72.4.73.36,4.65,2.63a1.17,1.17,0,0,1-.59,2.18Z"></path><g class="cls-70"><path class="cls-64" d="M98.56,145.34a1.14,1.14,0,0,1-.59-.16l-5.31-3.08a1.17,1.17,0,0,1,1.17-2l5.31,3.09a1.17,1.17,0,0,1-.58,2.18Z"></path></g><g class="cls-70"><path class="cls-64" d="M72.52,130.19a1.27,1.27,0,0,1-.59-.16l-5.31-3.09a1.17,1.17,0,0,1,1.18-2L73.11,128a1.16,1.16,0,0,1,.42,1.6A1.18,1.18,0,0,1,72.52,130.19Z"></path></g><path class="cls-64" d="M46.22,114.08a.42.42,0,0,1-.15,0L40.76,111a.29.29,0,0,1,.29-.51l5.32,3.09a.29.29,0,0,1,.1.4A.27.27,0,0,1,46.22,114.08Z"></path><g class="cls-70"><path class="cls-64" d="M46.22,115a1.16,1.16,0,0,1-.59-.16l-5.31-3.08a1.17,1.17,0,0,1,1.17-2l5.32,3.09a1.17,1.17,0,0,1-.59,2.18Z"></path></g><path class="cls-64" d="M168,131.07a1.26,1.26,0,1,1-1.26-1.26A1.26,1.26,0,0,1,168,131.07Z"></path><path class="cls-63" d="M186.6,141c-3.17-1.88-13.78-7.86-17.78-10.1a2.12,2.12,0,1,0-2.11,2.28,2.28,2.28,0,0,0,1-.24c4,2.24,14.58,8.2,17.73,10.07,1.29.76,2,1.55,2,2.21,0,.82-1,1.9-2.81,2.95-2.42,1.43-14.38,8.35-34.59,20l-.75.43c-2.59,1.5-4.37.55-7.06-.88-.34-.19-.68-.37-1-.55-2.54-1.31-15-8.43-20.26-11.42a1.16,1.16,0,0,0-1.59.43,1.18,1.18,0,0,0,.43,1.6c5.26,3,17.77,10.14,20.35,11.46l1,.54c1.78.94,3.59,1.91,5.64,1.91a7.31,7.31,0,0,0,3.69-1.06l.75-.44c20.22-11.67,32.18-18.6,34.61-20,2.63-1.55,4-3.22,4-5C189.74,143.67,188.69,142.25,186.6,141Z"></path><g class="cls-71"><path class="cls-72" d="M34.53,112.55a10.06,10.06,0,0,1-9.1,0L16.5,107.4c-2.51-1.46-2.51-3.81,0-5.26L25.43,97a10.06,10.06,0,0,1,9.1,0l8.92,5.15c2.51,1.45,2.51,3.8,0,5.26Z"></path></g><g class="cls-71"><path class="cls-73" d="M60.38,128.29a10.06,10.06,0,0,1-9.1,0l-8.92-5.15c-2.51-1.45-2.51-3.8,0-5.25l8.92-5.16a10.06,10.06,0,0,1,9.1,0l8.93,5.16c2.51,1.45,2.51,3.8,0,5.25Z"></path></g><g class="cls-71"><path class="cls-74" d="M86.56,143.29a10.06,10.06,0,0,1-9.1,0l-8.93-5.16c-2.51-1.45-2.51-3.8,0-5.25l8.93-5.15a10.06,10.06,0,0,1,9.1,0l8.92,5.15c2.52,1.45,2.52,3.8,0,5.25Z"></path></g><g class="cls-71"><path class="cls-74" d="M113.75,158.46a10.06,10.06,0,0,1-9.1,0l-8.93-5.15c-2.51-1.45-2.51-3.8,0-5.26l8.93-5.15a10.06,10.06,0,0,1,9.1,0l8.92,5.15c2.51,1.46,2.51,3.81,0,5.26Z"></path></g><path class="cls-64" d="M41.41,105.42c0-.74-1-1.34-2.32-1.34l-11.61,1.19,1.23-4.34c0-.74-1-1.34-2.32-1.34s-2.32.6-2.32,1.34l-1.22,5.67a1.15,1.15,0,0,0,.67,1,3.37,3.37,0,0,0,1.64.39l13.93-1.18C40.37,106.76,41.41,106.16,41.41,105.42Z"></path><path class="cls-64" d="M87.89,135.11c.29-.17.67-.35,1.11-.56,2.18-1,2-2.53,1-3.09-1.24-.72-2.52,0-4.45,1.12l-.28.17a14.64,14.64,0,0,1-4,.06,1.16,1.16,0,0,0-.69-.93l-1.33-.77a3.73,3.73,0,0,0-3.35,0l-5.36,3.1c-.93.53-.93,1.39,0,1.93l1.33.77a3.4,3.4,0,0,0,1.59.39,15.86,15.86,0,0,0,4.22,3.17c1,.59,3.41,2,5.4,1a3.59,3.59,0,0,0,.46-.26,3.9,3.9,0,0,0,2.27-.41,2.92,2.92,0,0,0,.61-.45,3.72,3.72,0,0,0,1.67-.43,1.1,1.1,0,0,0,.68-1.18,4,4,0,0,0,.49-.23c.79-.46.85-1.14.51-1.53a2.19,2.19,0,0,0-.7-.54c-.36-.23-1.09-.66-1.36-.82s-.25-.18-.25-.18S87.52,135.33,87.89,135.11Zm-16-.12,5.37-3.09a.68.68,0,0,1,.62,0l1.33.77c.17.09.17.25,0,.35l-5.37,3.1a.68.68,0,0,1-.62,0l-1.33-.77A.19.19,0,0,1,71.92,135Zm14.44,1.4c.27.15,1,.58,1.33.8a1,1,0,0,1,.34.24c.09.2-.23.38-.39.36a1.3,1.3,0,0,0-1,.28c-.21.22-.14.49.16.66s.18.27,0,.38a.79.79,0,0,1-.61.08,1.56,1.56,0,0,0-1,.05l-.12,0c-.2.12-.3.28-.26.45a.87.87,0,0,1-.32.26,1,1,0,0,1-.72.05,1.43,1.43,0,0,0-.83-.1.94.94,0,0,0-.65.32,1.07,1.07,0,0,1-.42.34c-.64.31-2.14-.56-2.78-.93a13.83,13.83,0,0,1-3.81-2.79l5.3-3c1.71.26,5,.31,6.09-.3l.29-.17c.69-.4,1.4-.8,1.81-1,.1.27,0,.84-1,1.3-.5.24-.92.45-1.25.63C85.28,135,85.23,135.73,86.36,136.39Z"></path><path class="cls-64" d="M109.9,157.33a1.3,1.3,0,0,1-.65.16,1.36,1.36,0,0,1-.71-.16l-10.86-6.27a.47.47,0,0,1-.28-.41.51.51,0,0,1,.33-.4l8.72-4.42a1.53,1.53,0,0,1,1.32,0l9.78,5.64c.36.21.38.54,0,.76l-7.64,5Zm-10.12-6.64,9.4,5.43,6.36-4.2-8.49-4.9Z"></path><path class="cls-64" d="M117,149.66l-2,1.15a1.5,1.5,0,0,1-1.37,0,.42.42,0,0,1,0-.79l2-1.15a.91.91,0,0,0,0-1.72l-.17-.09a3.24,3.24,0,0,0-3,0l-2,1.15a1.5,1.5,0,0,1-1.37,0,.42.42,0,0,1,0-.79l2-1.15a6.27,6.27,0,0,1,5.69,0l.17.09C118.54,147.27,118.54,148.75,117,149.66Z"></path><path class="cls-64" d="M109.55,154.92a1.33,1.33,0,0,1-.65.16,1.37,1.37,0,0,1-.72-.16l-6.32-3.66a.48.48,0,0,1-.29-.41.55.55,0,0,1,.33-.4l4.64-2.36a1.56,1.56,0,0,1,1.32,0l5.78,3.34c.36.21.38.55,0,.77l-4.1,2.67Zm-5.6-4,4.87,2.81,2.82-1.84-4.51-2.6Z"></path><path class="cls-64" d="M64.57,123.69h0c-.17.1-.37.2-.57.3a14.74,14.74,0,0,1-8.42.75,25.37,25.37,0,0,0-5.14-.31,1.84,1.84,0,0,1-1-.2.63.63,0,0,1-.39-.57,6.46,6.46,0,0,0-.53-3,3.61,3.61,0,0,1,1.31-4.84,9.2,9.2,0,0,1,8.36-.78c1.49.67,2.31,1.67,2.33,2.79a8.33,8.33,0,0,1,4.84,1.35C67.12,120.46,66.79,122.41,64.57,123.69Zm-12.95-.76a27.17,27.17,0,0,1,4.75.39,10.57,10.57,0,0,0,6-.49c1.61-.75,2-2,.93-2.76a6,6,0,0,0-4-.7,2,2,0,0,1-1.19-.2c-.31-.18-.44-.44-.34-.69s.44-1.54-1.22-2.29a5.31,5.31,0,0,0-4.78.54,2.58,2.58,0,0,0-.84,3.49A6.77,6.77,0,0,1,51.62,122.93Z"></path><g class="cls-75"><path class="cls-76" d="M90.34,101.5a2.71,2.71,0,0,1-1.34-.32L80.2,96.3a1.41,1.41,0,0,1-.77-1.22,1.65,1.65,0,0,1,.92-1.38L96.7,85.07l16.35-8.62a3.22,3.22,0,0,1,1.61-.42,2.65,2.65,0,0,1,1.33.33l8.81,4.87a1.41,1.41,0,0,1,.77,1.22,1.65,1.65,0,0,1-.92,1.38L108.3,92.46,92,101.09A3.32,3.32,0,0,1,90.34,101.5Z"></path><path class="cls-77" d="M123.79,81.77a1.31,1.31,0,0,1,.72,1.18,1.43,1.43,0,0,1-.27.75,2.08,2.08,0,0,1-.66.57l-15,7.92-.86.45L92.75,100.5l-1,.51a3.34,3.34,0,0,1-1.58.36l-.34,0a3,3,0,0,1-.95-.31l-8.56-4.75a1.27,1.27,0,0,1-.45-1.93,2,2,0,0,1,.65-.57l15-7.92.86-.45,14.93-7.86,1-.51a3.12,3.12,0,0,1,1.58-.36l.34,0a2.48,2.48,0,0,1,.94.31Z"></path><path class="cls-78" d="M122.78,82.3a1.24,1.24,0,0,1,.67,1.15,1.4,1.4,0,0,1-.28.71,2.18,2.18,0,0,1-.65.54l-14.63,7.68-.83.44-14.52,7.62s-.91.48-1,.48a3.19,3.19,0,0,1-1.54.33l-.33,0a2.88,2.88,0,0,1-.91-.31l-8.32-4.62a1.23,1.23,0,0,1-.67-1.15,1.4,1.4,0,0,1,.28-.71,2.2,2.2,0,0,1,.65-.54L95.37,86.2l.83-.44,14.52-7.62s.91-.47,1-.48a3.07,3.07,0,0,1,1.54-.32c.11,0,.22,0,.33,0a2.88,2.88,0,0,1,.91.31Z"></path><path class="cls-79" d="M121.76,82.84a1.12,1.12,0,0,1,.63,1.12,1.33,1.33,0,0,1-.29.67,2.76,2.76,0,0,1-.64.51l-14.21,7.44-.81.42-14.1,7.38c-.07,0-.87.45-1,.46a2.92,2.92,0,0,1-1.5.28l-.31,0a3.26,3.26,0,0,1-.88-.31l-8.07-4.5A1.13,1.13,0,0,1,80,95.15a1.29,1.29,0,0,1,.29-.67,2.76,2.76,0,0,1,.64-.51l14.21-7.44.81-.42,14.1-7.39c.07,0,.87-.44,1-.46a3,3,0,0,1,1.5-.27l.31,0a3.26,3.26,0,0,1,.88.31Z"></path><path class="cls-80" d="M120.75,83.37a1.06,1.06,0,0,1,.59,1.09,1.54,1.54,0,0,1-.32.64,3.5,3.5,0,0,1-.62.48l-13.8,7.2-.78.4-13.69,7.15a7.7,7.7,0,0,1-.92.43,3,3,0,0,1-1.46.24l-.31,0a3.66,3.66,0,0,1-.84-.32l-7.83-4.37a1.06,1.06,0,0,1-.59-1.09,1.45,1.45,0,0,1,.32-.63,2.76,2.76,0,0,1,.62-.48l13.8-7.2.78-.41,13.69-7.14a9.72,9.72,0,0,1,.92-.44,3,3,0,0,1,1.46-.23l.31,0a3.23,3.23,0,0,1,.84.31Z"></path><path class="cls-81" d="M119.74,83.9a1,1,0,0,1,.54,1.06,1.44,1.44,0,0,1-.33.6,3.57,3.57,0,0,1-.61.45L106,93l-.76.39-13.28,6.91a6.68,6.68,0,0,1-.9.41,2.87,2.87,0,0,1-1.42.19l-.29-.05a3.92,3.92,0,0,1-.81-.33l-7.59-4.23a1,1,0,0,1-.54-1.06,1.44,1.44,0,0,1,.33-.6,3.57,3.57,0,0,1,.61-.45l13.38-7,.76-.39,13.28-6.91a6.68,6.68,0,0,1,.9-.41,2.87,2.87,0,0,1,1.42-.19l.29,0a3.92,3.92,0,0,1,.81.33Z"></path><path class="cls-82" d="M118.73,84.44a.89.89,0,0,1,.49,1,1.49,1.49,0,0,1-.34.57,3.77,3.77,0,0,1-.6.42l-13,6.72-.73.38-12.87,6.67a5.7,5.7,0,0,1-.88.38,3,3,0,0,1-1.39.15l-.27-.07a4.55,4.55,0,0,1-.78-.32l-7.34-4.11a.9.9,0,0,1-.5-1,1.37,1.37,0,0,1,.35-.56,4,4,0,0,1,.6-.43l13-6.71.73-.38,12.87-6.67a6.22,6.22,0,0,1,.87-.39,2.87,2.87,0,0,1,1.39-.14l.27.06a5.08,5.08,0,0,1,.78.33Z"></path><path class="cls-83" d="M117.71,85a.84.84,0,0,1,.46,1,1.83,1.83,0,0,1-.37.53,5.49,5.49,0,0,1-.59.39l-12.54,6.47-.7.37-12.46,6.43a5,5,0,0,1-.86.36,2.78,2.78,0,0,1-1.34.1l-.27-.07a5.53,5.53,0,0,1-.74-.33l-7.1-4a.83.83,0,0,1-.45-1,1.63,1.63,0,0,1,.36-.52,4.35,4.35,0,0,1,.59-.4l12.54-6.47.71-.37,12.45-6.43a5.39,5.39,0,0,1,.86-.36,2.83,2.83,0,0,1,1.35-.1l.26.07a5.53,5.53,0,0,1,.74.33Z"></path><path class="cls-84" d="M116.7,85.51a.75.75,0,0,1,.41,1,1.81,1.81,0,0,1-.38.49,6.42,6.42,0,0,1-.58.37L104,93.56l-.68.35-12,6.19a3.37,3.37,0,0,1-.83.34,2.66,2.66,0,0,1-1.31.06l-.25-.08a5.17,5.17,0,0,1-.71-.34l-6.86-3.85a.77.77,0,0,1-.41-1,1.67,1.67,0,0,1,.38-.49c.06-.06.5-.32.58-.37L94,88.18l.68-.35,12-6.19a3.61,3.61,0,0,1,.84-.34,2.62,2.62,0,0,1,1.3-.06l.25.08a7.89,7.89,0,0,1,.72.33Z"></path><path class="cls-85" d="M115.69,86a.69.69,0,0,1,.36.93,1.17,1.17,0,0,1-.39.46s-.52.3-.57.33l-11.71,6-.65.33-11.64,6a3.4,3.4,0,0,1-.81.31,2.6,2.6,0,0,1-1.27,0l-.23-.08c-.07,0-.63-.31-.68-.34l-6.61-3.73a.7.7,0,0,1-.37-.93,1.3,1.3,0,0,1,.4-.46s.51-.3.56-.33l11.71-6,.66-.34,11.63-6a3.18,3.18,0,0,1,.81-.32,2.73,2.73,0,0,1,1.27,0l.24.09c.06,0,.63.31.68.34Z"></path><path class="cls-86" d="M114.68,86.58a.62.62,0,0,1,.31.89,1.18,1.18,0,0,1-.41.43s-.53.28-.55.3L102.74,94l-.63.32L90.89,100a2.63,2.63,0,0,1-.8.29,2.5,2.5,0,0,1-1.22,0l-.23-.09L88,99.81l-6.37-3.6a.63.63,0,0,1-.32-.9,1.25,1.25,0,0,1,.41-.42l.56-.3,11.29-5.75.62-.32,11.23-5.72a2.57,2.57,0,0,1,.79-.29,2.54,2.54,0,0,1,1.23,0l.22.09.65.35Z"></path><path d="M88.51,100l-6.74-3.81c-.55-.33-.49-.89.16-1.26l11.41-5.78,11.41-5.79a2.42,2.42,0,0,1,2.17-.09l6.74,3.82c.56.32.49.88-.15,1.25l-11.42,5.79L90.68,99.93A2.42,2.42,0,0,1,88.51,100Z"></path></g><polygon class="cls-87" points="115.08 39.02 110.37 37.39 108.6 35.23 106.31 80.01 115.36 70.89 115.08 39.02"></polygon><polygon class="cls-88" points="79.83 95.31 106.34 80.01 108.63 35.23 82.12 50.54 79.83 95.31"></polygon><polygon class="cls-89" points="89.73 88.86 89.58 101.01 79.84 95.31 89.73 88.86"></polygon><polygon class="cls-90" points="88.6 54.32 86.41 51.59 82.12 50.54 79.83 95.31 89.61 89.04 88.6 54.32"></polygon><polygon class="cls-91" points="89.58 101.01 116.09 85.7 115.11 39.02 88.6 54.32 89.58 101.01"></polygon><polygon class="cls-92" points="89.51 93.69 115.83 78.5 115.87 80.02 89.36 95.32 89.51 93.69"></polygon><path class="cls-93" d="M105.27,50.55c0,.61.44.85,1,.54a2.09,2.09,0,0,0,1-1.65c0-.61-.43-.86-1-.55A2.12,2.12,0,0,0,105.27,50.55Z"></path><path class="cls-93" d="M95.66,56c0,.61.43.85,1,.55a2.13,2.13,0,0,0,1-1.66c0-.61-.43-.86-1-.55A2.13,2.13,0,0,0,95.66,56Z"></path><path class="cls-93" d="M105.8,50.71a2.11,2.11,0,0,0,1-1.65.9.9,0,0,0-.05-.3c.29,0,.49.27.49.68a2.09,2.09,0,0,1-1,1.65c-.44.26-.8.13-.92-.25A.79.79,0,0,0,105.8,50.71Z"></path><path class="cls-93" d="M96.18,56.18a2.13,2.13,0,0,0,1-1.66,1.36,1.36,0,0,0,0-.3c.28,0,.48.27.48.68a2.13,2.13,0,0,1-1,1.66c-.43.25-.8.13-.92-.26A.83.83,0,0,0,96.18,56.18Z"></path><path class="cls-93" d="M100.22,67a4,4,0,0,0,2.25-.68,8.89,8.89,0,0,0,4.06-7.48V51.32a.47.47,0,1,0-.94,0v7.55a8,8,0,0,1-3.63,6.7A3.2,3.2,0,0,1,97,62.88V56.67a.47.47,0,0,0-.94,0v6.21a4.07,4.07,0,0,0,2.17,3.64A4.14,4.14,0,0,0,100.22,67Z"></path><path class="cls-94" d="M100.39,65.63a4.17,4.17,0,0,0,2.26-.68,8.9,8.9,0,0,0,4-7.48V49.91a.47.47,0,0,0-.47-.47.46.46,0,0,0-.46.47v7.56a8,8,0,0,1-3.64,6.69,3.13,3.13,0,0,1-3.27.14,3.17,3.17,0,0,1-1.68-2.82V55.27a.47.47,0,0,0-.47-.47.46.46,0,0,0-.46.47v6.21a4.1,4.1,0,0,0,2.16,3.64A4.17,4.17,0,0,0,100.39,65.63Z"></path><path class="cls-93" d="M101.27,44.62c0,.61.43.86,1,.55a2.11,2.11,0,0,0,1-1.66c0-.61-.43-.85-1-.54A2.09,2.09,0,0,0,101.27,44.62Z"></path><path class="cls-93" d="M91.66,50.09c0,.61.43.85,1,.55a2.13,2.13,0,0,0,1-1.66c0-.61-.43-.86-1-.55A2.11,2.11,0,0,0,91.66,50.09Z"></path><path class="cls-93" d="M101.8,44.79a2.11,2.11,0,0,0,1-1.66.88.88,0,0,0-.05-.29c.29,0,.49.26.49.67a2.11,2.11,0,0,1-1,1.66c-.44.25-.8.13-.92-.25A.87.87,0,0,0,101.8,44.79Z"></path><path class="cls-93" d="M92.18,50.26a2.13,2.13,0,0,0,1-1.66,1.28,1.28,0,0,0,0-.3c.28,0,.48.27.48.68a2.13,2.13,0,0,1-1,1.66c-.44.25-.8.12-.92-.26A.85.85,0,0,0,92.18,50.26Z"></path><path class="cls-94" d="M102.7,45.35V44a.47.47,0,1,0-.94,0v1.89Z"></path><path class="cls-94" d="M93.18,50.74V49.35a.47.47,0,0,0-.94,0v1.92Z"></path><g class="cls-75"><path class="cls-76" d="M123.08,82a2.3,2.3,0,0,0-1.17.28l-12.59,7.37a1.22,1.22,0,0,0-.67,1.08,1.42,1.42,0,0,0,.81,1.21l13.16,7.14,13.17,7.13a3,3,0,0,0,1.43.36,2.41,2.41,0,0,0,1.17-.28L151,98.9a1.24,1.24,0,0,0,.67-1.07,1.44,1.44,0,0,0-.81-1.22l-13.17-7.13-13.16-7.13A2.84,2.84,0,0,0,123.08,82Z"></path><path class="cls-77" d="M109.44,89.65a1.17,1.17,0,0,0-.63,1,1.21,1.21,0,0,0,.28.73,2.12,2.12,0,0,0,.53.43l12.76,6.89,1.33.72,11.44,6.16a2.9,2.9,0,0,0,1.38.37,2.38,2.38,0,0,0,1.13-.22l.87-.45c.05,0,2.52-1.37,2.57-1.39l8.78-5.13a1.2,1.2,0,0,0,.63-1,1.21,1.21,0,0,0-.28-.73,1.89,1.89,0,0,0-.53-.43l-12.77-6.89L135.61,89l-11.44-6.17a3,3,0,0,0-1.38-.37,2.38,2.38,0,0,0-1.13.23l-.87.44c-.05,0-2.52,1.38-2.57,1.4Z"></path><path class="cls-78" d="M109.57,89.66a1.09,1.09,0,0,0-.6,1,1.15,1.15,0,0,0,.3.69,2.13,2.13,0,0,0,.51.41l12.36,6.64,1.29.69,11.07,6a3.11,3.11,0,0,0,1.33.38,2.55,2.55,0,0,0,1.1-.16l.84-.38a25.37,25.37,0,0,0,2.51-1.24l8.49-5a1.08,1.08,0,0,0,.6-1,1.15,1.15,0,0,0-.3-.69,2.13,2.13,0,0,0-.51-.41L136.2,89.94l-1.29-.69-11.07-6a3.11,3.11,0,0,0-1.33-.38,2.55,2.55,0,0,0-1.1.16l-.84.38a25.37,25.37,0,0,0-2.51,1.24Z"></path><path class="cls-79" d="M109.7,89.67a1,1,0,0,0-.57,1,1.22,1.22,0,0,0,.31.66,2.89,2.89,0,0,0,.5.39l12,6.39,1.24.67,10.71,5.73a3.23,3.23,0,0,0,1.28.38,2.69,2.69,0,0,0,1.05-.1l.83-.29a15.49,15.49,0,0,0,2.43-1.11l8.21-4.77a1,1,0,0,0,.57-1,1.25,1.25,0,0,0-.31-.66,2.44,2.44,0,0,0-.5-.38l-12-6.4-1.25-.67L123.5,83.78a3.24,3.24,0,0,0-1.28-.39,2.69,2.69,0,0,0-1,.1l-.82.3a14.3,14.3,0,0,0-2.44,1.1Z"></path><path class="cls-80" d="M109.82,89.67a1,1,0,0,0-.52,1,1.1,1.1,0,0,0,.32.62,2.23,2.23,0,0,0,.48.36l11.57,6.16,1.2.64,10.34,5.5a3.48,3.48,0,0,0,1.24.4,2.76,2.76,0,0,0,1,0l.8-.21a10.62,10.62,0,0,0,2.37-1l7.93-4.6a.92.92,0,0,0,.52-.94,1.12,1.12,0,0,0-.32-.63,2.61,2.61,0,0,0-.48-.36L134.72,90.4l-1.21-.64-10.34-5.51a3.67,3.67,0,0,0-1.24-.39,2.78,2.78,0,0,0-1,0l-.8.22a10.3,10.3,0,0,0-2.37.95Z"></path><path class="cls-81" d="M110,89.68a.87.87,0,0,0-.49.91,1.18,1.18,0,0,0,.33.59,2.83,2.83,0,0,0,.47.34l11.17,5.91,1.16.62,10,5.28a4,4,0,0,0,1.19.4c.24,0,.8.12,1,0l.77-.14a7.5,7.5,0,0,0,2.31-.81l7.64-4.42a.87.87,0,0,0,.49-.91,1.2,1.2,0,0,0-.33-.6,3.53,3.53,0,0,0-.47-.33L134,90.63,132.81,90l-10-5.28a3.73,3.73,0,0,0-1.19-.41c-.24,0-.79-.11-1,0l-.77.14a7.25,7.25,0,0,0-2.31.81Z"></path><path class="cls-82" d="M110.07,89.69a.82.82,0,0,0-.45.88,1.19,1.19,0,0,0,.35.55,3,3,0,0,0,.45.32l10.77,5.66,1.12.59,9.61,5.06a4.29,4.29,0,0,0,1.15.42c.2,0,.78.16.93.07l.75-.06c.31.18,2-.51,2.24-.66l7.36-4.25a.8.8,0,0,0,.45-.88,1.12,1.12,0,0,0-.35-.55,2.58,2.58,0,0,0-.45-.32l-10.76-5.66-1.13-.59-9.61-5.06a4.17,4.17,0,0,0-1.15-.42c-.2,0-.78-.16-.93-.07l-.74.06c-.31-.18-2,.51-2.25.66Z"></path><path class="cls-83" d="M110.2,89.7a.74.74,0,0,0-.42.84,1.32,1.32,0,0,0,.36.53c.06.05.36.24.44.29L121,96.77l1.08.57,9.25,4.84a5.21,5.21,0,0,0,1.1.42c.16,0,.77.2.89.14H134c.36.21,1.86-.33,2.18-.51l7.07-4.08a.74.74,0,0,0,.42-.84,1.23,1.23,0,0,0-.36-.52,3.35,3.35,0,0,0-.44-.29L132.5,91.09l-1.09-.57-9.25-4.84a5.13,5.13,0,0,0-1.09-.42c-.17,0-.78-.2-.89-.13l-.73,0c-.36-.2-1.86.33-2.17.51Z"></path><path class="cls-84" d="M110.33,89.7a.68.68,0,0,0-.38.82,1.32,1.32,0,0,0,.37.49,3.5,3.5,0,0,0,.43.26l10,5.18,1,.54,8.88,4.61a6.08,6.08,0,0,0,1.06.44,6,6,0,0,0,.85.19l.69.09a3.44,3.44,0,0,0,2.11-.37l6.8-3.89a.7.7,0,0,0,.38-.81,1.35,1.35,0,0,0-.37-.49c-.05-.05-.37-.23-.43-.27l-10-5.17-1-.54-8.89-4.62a6.47,6.47,0,0,0-1-.44,6,6,0,0,0-.85-.19l-.7-.08a3.46,3.46,0,0,0-2.11.36Z"></path><path class="cls-85" d="M110.45,89.71a.63.63,0,0,0-.34.78,1.51,1.51,0,0,0,.38.46s.38.22.42.24l9.56,4.93,1,.52L130,101a8.92,8.92,0,0,0,1,.44c.09,0,.76.29.81.25l.68.17a2.88,2.88,0,0,0,2-.22L141,98a.61.61,0,0,0,.34-.78,1.38,1.38,0,0,0-.38-.45s-.37-.22-.41-.25L131,91.55,130,91l-8.53-4.39a7.46,7.46,0,0,0-1-.45c-.08,0-.75-.28-.81-.25l-.67-.16A2.9,2.9,0,0,0,117,86Z"></path><path class="cls-86" d="M110.58,89.72a.57.57,0,0,0-.31.75,1.71,1.71,0,0,0,.4.42l.4.22,9.16,4.68,1,.49,8.16,4.18s.91.45,1,.45.74.33.77.31l.65.24a2.43,2.43,0,0,0,2-.07l6.22-3.54a.57.57,0,0,0,.31-.75,1.64,1.64,0,0,0-.39-.42l-.4-.22-9.16-4.68-1-.49-8.16-4.18s-.91-.45-1-.45-.74-.33-.77-.31l-.65-.24a2.43,2.43,0,0,0-2,.07Z"></path><path d="M116.65,86.36l-5.94,3.37c-.49.28-.43.77.13,1.1l10.06,5.1L131,101a2.12,2.12,0,0,0,1.91.08l5.94-3.37c.49-.28.43-.77-.14-1.1l-10.06-5.1-10.06-5.1A2.12,2.12,0,0,0,116.65,86.36Z"></path></g><polygon class="cls-95" points="112.02 62.49 116.17 61.05 117.73 59.15 119.75 86.05 111.77 78.01 112.02 62.49"></polygon><polygon class="cls-96" points="143.09 99.54 119.72 86.05 117.7 59.15 141.07 72.64 143.09 99.54"></polygon><polygon class="cls-97" points="134.36 93.86 134.49 104.56 143.08 99.54 134.36 93.86"></polygon><polygon class="cls-98" points="135.36 75.98 137.29 73.57 141.07 72.64 143.09 99.54 134.47 94.01 135.36 75.98"></polygon><polygon class="cls-99" points="134.49 104.56 111.13 91.07 112 62.49 135.36 75.98 134.49 104.56"></polygon><polygon class="cls-92" points="134.56 98.11 111.36 84.72 111.32 86.06 134.69 99.55 134.56 98.11"></polygon><path class="cls-93" d="M120.66,72.65c0,.54-.38.75-.85.48a1.86,1.86,0,0,1-.85-1.46c0-.54.38-.76.85-.48A1.86,1.86,0,0,1,120.66,72.65Z"></path><path class="cls-93" d="M129.14,77.46c0,.54-.38.76-.85.49a1.87,1.87,0,0,1-.85-1.47c0-.53.38-.75.85-.48A1.87,1.87,0,0,1,129.14,77.46Z"></path><path class="cls-93" d="M120.2,72.8a1.87,1.87,0,0,1-.85-1.47.87.87,0,0,1,0-.25c-.25,0-.43.23-.43.59a1.86,1.86,0,0,0,.85,1.46c.39.22.7.11.81-.22A.8.8,0,0,1,120.2,72.8Z"></path><path class="cls-93" d="M128.68,77.61a1.86,1.86,0,0,1-.85-1.46,1,1,0,0,1,0-.26c-.25,0-.43.23-.43.59a1.87,1.87,0,0,0,.85,1.47c.38.22.7.11.81-.23A.7.7,0,0,1,128.68,77.61Z"></path><path class="cls-93" d="M125.12,87.18a3.65,3.65,0,0,1-2-.6A7.83,7.83,0,0,1,119.56,80V73.33a.41.41,0,0,1,.82,0V80a7,7,0,0,0,3.2,5.9A2.82,2.82,0,0,0,128,83.52V78.05a.41.41,0,0,1,.82,0v5.47a3.6,3.6,0,0,1-1.91,3.21A3.64,3.64,0,0,1,125.12,87.18Z"></path><path class="cls-94" d="M125,85.94a3.62,3.62,0,0,1-2-.6,7.84,7.84,0,0,1-3.58-6.59V72.09a.42.42,0,0,1,.83,0v6.66a7,7,0,0,0,3.2,5.9,2.81,2.81,0,0,0,4.36-2.36V76.81a.41.41,0,0,1,.42-.41.41.41,0,0,1,.41.41v5.48a3.57,3.57,0,0,1-1.91,3.2A3.64,3.64,0,0,1,125,85.94Z"></path><path class="cls-93" d="M124.19,67.43c0,.54-.38.75-.85.48a1.86,1.86,0,0,1-.85-1.46c0-.54.38-.75.85-.48A1.86,1.86,0,0,1,124.19,67.43Z"></path><path class="cls-93" d="M132.67,72.24c0,.54-.38.76-.85.49a1.87,1.87,0,0,1-.85-1.47c0-.53.38-.75.85-.48A1.87,1.87,0,0,1,132.67,72.24Z"></path><path class="cls-93" d="M123.73,67.58a1.87,1.87,0,0,1-.85-1.47.93.93,0,0,1,0-.25c-.26,0-.43.23-.43.59a1.86,1.86,0,0,0,.85,1.46c.38.22.7.11.81-.22A.78.78,0,0,1,123.73,67.58Z"></path><path class="cls-93" d="M132.2,72.39a1.87,1.87,0,0,1-.84-1.46.71.71,0,0,1,0-.26c-.26,0-.43.23-.43.59a1.87,1.87,0,0,0,.85,1.47c.38.22.7.11.81-.23A.75.75,0,0,1,132.2,72.39Z"></path><path class="cls-94" d="M122.93,68.07v-1.2a.41.41,0,0,1,.41-.41.41.41,0,0,1,.42.41v1.67Z"></path><path class="cls-94" d="M131.32,72.82V71.59a.42.42,0,0,1,.83,0v1.7Z"></path></g></g></svg>