<svg xmlns="http://www.w3.org/2000/svg" viewBox="0 0 2410.28 1435.67"><defs><style>.cls-1,.cls-11{fill:#ff5722;}.cls-1{opacity:0.2;}.cls-2{fill:#f9fbff;}.cls-3{fill:#3a3a3a;}.cls-4{fill:#002daa;}.cls-5{fill:#b3cdfa;}.cls-6{fill:#cf2027;}.cls-7{fill:#a7c1ee;}.cls-8{fill:#f74b57;}.cls-9{fill:#89ade9;}.cls-10{fill:#93121c;}.cls-12{fill:#fff;}.cls-13{fill:#002280;}.cls-14{fill:#ff5f6b;}.cls-15{fill:#ff8d95;}.cls-16{fill:#001755;opacity:0.5;}.cls-17{fill:#ff794e;}.cls-18{fill:#bf411a;}.cls-19{fill:#ff9a7a;}.cls-20{fill:#6c98e3;}.cls-21{fill:#d1e1fc;}.cls-22{fill:#1942b2;}.cls-23{fill:#6681cc;}</style></defs><g id="Layer_2" data-name="Layer 2"><g id="Graphics"><path class="cls-1" d="M2139.52,603.16c-7.92-5.87-15.86-11.49-23.79-16.77-103.46-68.9-211-126.44-275.5-238.21-41.59-72.05-61-150.22-117.09-213.74-123-139.35-345-162.48-513.29-105.5-88.55,30-168.8,83.53-231.34,152.93C947.8,216,922.26,251,907.45,294.09c-14.17,41.26-24.06,86.31-53.24,120.13-35.32,40.92-80.72,72.17-128.25,97.27-92.79,49-192.08,65.28-279.43,122.16C334.83,706.41,252,817.56,239.84,953.43c-13.06,146.1,60.13,304.33,191.24,373.86,60.57,32.12,127.51,40.65,188.8,67.49,145.93,63.91,297.32,23,450.79,23.57l856.82,3.25h.1c56.39,0,85,21.86,133-11.25,43-29.65,84.5-53.17,117.67-95.13,36.47-46.15,82.3-72,121.79-115.27A426.43,426.43,0,0,0,2384.48,1062c12.57-33.44,21.75-68.75,20.81-104.46-1.15-43.31-17.14-85.08-38.54-122.74C2335,779,2291.69,729.94,2242.91,688.48,2210.16,660.64,2175,629.41,2139.52,603.16Z"></path><path class="cls-2" d="M1253.06,272.88a28.53,28.53,0,0,0-28.53-28.54,27.94,27.94,0,0,0-12.09,2.91c-5.4-11.09-15.68-18.77-28.06-21.39.54-2.86,1.72-5.49,1.72-8.51a47.14,47.14,0,0,0-79.46-34.66c-3.19-45.29-40.55-81.16-86.65-81.16-40.07,0-73.47,27.16-83.71,64A59.62,59.62,0,0,0,866.66,209,54,54,0,0,0,792,259.38c0,10.19,3.55,19.19,8.42,27.35H1249A27.76,27.76,0,0,0,1253.06,272.88Z"></path><path class="cls-3" d="M1253.06,289.73H923.16a3,3,0,1,1,0-6h329.9a3,3,0,0,1,0,6Z"></path><path class="cls-4" d="M952,289.73H802a3,3,0,0,1,0-6H952a3,3,0,0,1,0,6Z"></path><path class="cls-5" d="M916,176.38a52,52,0,0,1,51.87,51.86,51.12,51.12,0,0,1-3,16.73,51.4,51.4,0,0,0,8.67-28.55,52,52,0,0,0-51.86-51.87h0a51.9,51.9,0,0,0-48.84,35.14A51.89,51.89,0,0,1,916,176.38Z"></path><path class="cls-5" d="M1173,232.71a28.52,28.52,0,0,1-39.62-6.81,28,28,0,0,1-3.93-8.45,28.19,28.19,0,0,0,5.14,15.53,28.52,28.52,0,0,0,39.62,6.81h0A28.45,28.45,0,0,0,1185,208.61,28.46,28.46,0,0,1,1173,232.71Z"></path><path class="cls-3" d="M1186.1,220.35a3,3,0,0,1-3-3,44.13,44.13,0,0,0-74.43-32.45l-4.59,4.23-.43-6.23c-3.1-44-39.84-78.37-83.66-78.37-37.47,0-70.7,25.4-80.82,61.77a3,3,0,1,1-5.78-1.61c10.84-38.95,46.45-66.16,86.6-66.16a89.24,89.24,0,0,1,61.48,24.41,90.31,90.31,0,0,1,27.58,53.86,49.73,49.73,0,0,1,29.56-9.94,50.55,50.55,0,0,1,50.49,50.49A3,3,0,0,1,1186.1,220.35Z"></path><path class="cls-2" d="M2273.63,406.89A33.65,33.65,0,0,0,2240,373.23a33,33,0,0,0-14.26,3.42c-6.37-13.07-18.5-22.14-33.1-25.23.63-3.37,2-6.48,2-10a55.6,55.6,0,0,0-93.73-40.88c-3.75-53.43-47.82-95.74-102.21-95.74-47.26,0-86.66,32.05-98.75,75.46a70.36,70.36,0,0,0-82.12,51.29,63.77,63.77,0,0,0-88,59.45c0,12,4.19,22.64,9.94,32.27H2268.8C2271.6,418.31,2273.63,412.94,2273.63,406.89Z"></path><path class="cls-3" d="M2273.63,426.22H1884.47a3,3,0,0,1,0-6h389.16a3,3,0,0,1,0,6Z"></path><path class="cls-3" d="M1918.51,426.22h-177a3,3,0,0,1,0-6h177a3,3,0,0,1,0,6Z"></path><path class="cls-5" d="M1876,293.06a61.36,61.36,0,0,1,61.18,61.17,59.88,59.88,0,0,1-3.58,19.73,60.63,60.63,0,0,0,10.24-33.68,61.37,61.37,0,0,0-61.18-61.18h0c-26.71,0-49.32,17.47-57.61,41.46A61.21,61.21,0,0,1,1876,293.06Z"></path><path class="cls-5" d="M2179.18,359.5a33.63,33.63,0,0,1-46.73-8,33.28,33.28,0,0,1-4.64-10,33.22,33.22,0,0,0,6.07,18.31,33.63,33.63,0,0,0,46.73,8h0a33.53,33.53,0,0,0,12.68-36.77A33.54,33.54,0,0,1,2179.18,359.5Z"></path><path class="cls-3" d="M2194.63,344.38a3,3,0,0,1-3-3,52.6,52.6,0,0,0-88.69-38.67l-4.59,4.23-.44-6.23c-3.66-52.12-47.25-92.95-99.22-92.95-44.43,0-83.85,30.13-95.86,73.26a3,3,0,1,1-5.78-1.61,107.43,107.43,0,0,1,37.23-55.57,105.09,105.09,0,0,1,136.56,6.57,106,106,0,0,1,32.5,64.13,58.18,58.18,0,0,1,35.28-12.17,59.07,59.07,0,0,1,59,59A3,3,0,0,1,2194.63,344.38Z"></path><path class="cls-6" d="M503.67,1272.23a1.1,1.1,0,0,0,1.1-1.1v-72.31a71.37,71.37,0,0,1,142.74,0v72.31a1.11,1.11,0,0,0,1.1,1.1h4.87a1.11,1.11,0,0,0,1.1-1.1v-72.31a78.44,78.44,0,0,0-156.88,0v72.31a1.11,1.11,0,0,0,1.1,1.1Z"></path><path class="cls-7" d="M639.45,1215.1h93.93a0,0,0,0,1,0,0v217.57a0,0,0,0,1,0,0H640.93a1.48,1.48,0,0,1-1.48-1.48V1215.1A0,0,0,0,1,639.45,1215.1Z" transform="translate(1372.83 2647.78) rotate(180)"></path><path class="cls-8" d="M380,1215.1h262a0,0,0,0,1,0,0v217.57a0,0,0,0,1,0,0H380a1,1,0,0,1-1-1V1216.07A1,1,0,0,1,380,1215.1Z"></path><path class="cls-9" d="M686.41,1215.1h47a0,0,0,0,1,0,0v217.57a0,0,0,0,1,0,0h-46a1,1,0,0,1-1-1V1215.1A0,0,0,0,1,686.41,1215.1Z" transform="translate(1419.79 2647.78) rotate(180)"></path><polygon class="cls-9" points="639.45 1432.67 733.38 1432.67 733.38 1432.67 686.41 1377.11 639.45 1432.67 639.45 1432.67"></polygon><path class="cls-6" d="M564.55,1270.47a16.27,16.27,0,1,0,16.27-16.27A16.26,16.26,0,0,0,564.55,1270.47Z"></path><path class="cls-6" d="M414.74,1270.47A16.27,16.27,0,1,0,431,1254.2,16.27,16.27,0,0,0,414.74,1270.47Z"></path><path class="cls-6" d="M433.45,1272.23a1.11,1.11,0,0,0,1.1-1.1v-72.31a71.37,71.37,0,1,1,142.74,0v72.31a1.1,1.1,0,0,0,1.09,1.1h4.87a1.1,1.1,0,0,0,1.1-1.1v-72.31a78.44,78.44,0,0,0-156.87,0v72.31a1.1,1.1,0,0,0,1.1,1.1Z"></path><path class="cls-6" d="M733.38,1216.09a1,1,0,0,0-1-1H654.58v-16.28a78.56,78.56,0,0,0-61.42-76.55v7.25a71.48,71.48,0,0,1,54.35,69.3v16.28H593.16v216.59a1,1,0,0,0,1,1H733.38V1216.09Z"></path><path class="cls-6" d="M732.84,1142a1.1,1.1,0,0,0,1.1-1.1v-72.3a71.37,71.37,0,0,1,142.74,0v72.3a1.11,1.11,0,0,0,1.1,1.1h4.87a1.1,1.1,0,0,0,1.09-1.1v-72.3a78.44,78.44,0,0,0-156.87,0v72.3a1.11,1.11,0,0,0,1.1,1.1Z"></path><path class="cls-6" d="M868.62,1084.87h93.93a0,0,0,0,1,0,0v347.8a0,0,0,0,1,0,0H870.1a1.48,1.48,0,0,1-1.48-1.48V1084.87A0,0,0,0,1,868.62,1084.87Z" transform="translate(1831.17 2517.54) rotate(180)"></path><path class="cls-8" d="M609.12,1084.87h262a0,0,0,0,1,0,0v347.8a0,0,0,0,1,0,0h-262a1,1,0,0,1-1-1V1085.83A1,1,0,0,1,609.12,1084.87Z"></path><path class="cls-10" d="M915.58,1084.87h47a0,0,0,0,1,0,0v347.8a0,0,0,0,1,0,0h-46a1,1,0,0,1-1-1V1084.87A0,0,0,0,1,915.58,1084.87Z" transform="translate(1878.13 2517.54) rotate(180)"></path><polygon class="cls-9" points="868.62 1432.67 962.55 1432.67 962.55 1432.67 915.58 1377.11 868.62 1432.67 868.62 1432.67"></polygon><path class="cls-6" d="M793.72,1140.23A16.27,16.27,0,1,0,810,1124,16.27,16.27,0,0,0,793.72,1140.23Z"></path><path class="cls-6" d="M643.91,1140.23A16.27,16.27,0,1,0,660.18,1124,16.27,16.27,0,0,0,643.91,1140.23Z"></path><path class="cls-6" d="M662.62,1142a1.1,1.1,0,0,0,1.09-1.1v-72.3a71.38,71.38,0,0,1,142.75,0v72.3a1.1,1.1,0,0,0,1.09,1.1h4.87a1.11,1.11,0,0,0,1.1-1.1v-72.3a78.44,78.44,0,0,0-156.87,0v72.3a1.1,1.1,0,0,0,1.1,1.1Z"></path><path class="cls-11" d="M829.76,499.26a3.81,3.81,0,1,1-3.81-3.81A3.81,3.81,0,0,1,829.76,499.26Z"></path><path class="cls-11" d="M2203,559.63a5.57,5.57,0,1,1-5.57-5.57A5.56,5.56,0,0,1,2203,559.63Z"></path><circle class="cls-3" cx="687.41" cy="436.47" r="8.12" transform="translate(132.78 1032.65) rotate(-79.48)"></circle><path class="cls-11" d="M2296.43,662.68a6.77,6.77,0,1,1-6.77-6.77A6.77,6.77,0,0,1,2296.43,662.68Z"></path><path class="cls-3" d="M817.7,335.86a6.93,6.93,0,1,1-6.92-6.93A6.93,6.93,0,0,1,817.7,335.86Z"></path><circle class="cls-11" cx="2119.94" cy="667.57" r="4.89"></circle><path class="cls-12" d="M1648.35,1432.67h-501a102,102,0,0,1-102-102L1205.66,158.71a67.17,67.17,0,0,1,67.17-67.17H1762a114,114,0,0,1,114,114l-160.39,1160C1710.58,1403.26,1685.45,1432.67,1648.35,1432.67Z"></path><path class="cls-3" d="M1648.35,1435.67h-501a105.16,105.16,0,0,1-105-105l0-.41L1202.66,158.51a70.25,70.25,0,0,1,70.17-70H1762a117.08,117.08,0,0,1,117,117l0,.41-160.38,1160C1713,1407.63,1684.84,1435.67,1648.35,1435.67Zm-600.08-104.83a99.15,99.15,0,0,0,99,98.83h501c33.34,0,59.14-25.94,64.2-64.56L1872.91,205.28A111.07,111.07,0,0,0,1762,94.54H1272.83a64.25,64.25,0,0,0-64.17,64.17l0,.41Z"></path><path class="cls-6" d="M1623.78,1406.07H1113.13A67.17,67.17,0,0,1,1046,1338.9L1206.34,159.61a67.17,67.17,0,0,1,67.17-67.17h510.65a67.17,67.17,0,0,1,67.17,67.17L1691,1338.9C1683.57,1374.3,1660.87,1406.07,1623.78,1406.07Z"></path><path class="cls-3" d="M1623.78,1409.07H1113.13A70.24,70.24,0,0,1,1043,1338.9l0-.4L1203.34,159.4a70.25,70.25,0,0,1,70.17-70h510.65a70.25,70.25,0,0,1,70.17,70.17l0,.4-160.4,1179.4,0,.11C1686.88,1373.14,1664.78,1409.07,1623.78,1409.07Zm-574.82-70a64.24,64.24,0,0,0,64.17,64h510.65c37.36,0,57.66-33.39,64.21-64.68l160.34-1179a64.24,64.24,0,0,0-64.17-64H1273.51a64.25,64.25,0,0,0-64.17,64.17l0,.4Z"></path><path class="cls-3" d="M1591.74,151H1427.18a4.38,4.38,0,0,1-3.8-6.55h0a4.38,4.38,0,0,1,3.8-2.2h164.56a4.37,4.37,0,0,1,3.8,6.54h0A4.37,4.37,0,0,1,1591.74,151Z"></path><path class="cls-3" d="M1785.64,155.06c-2.52,14.05-14.78,23.61-27.39,21.35s-20.8-15.48-18.28-29.53,14.78-23.62,27.39-21.36S1788.16,141,1785.64,155.06Z"></path><path class="cls-6" d="M2053.56,496.78l-118.87,1.12a31.79,31.79,0,0,0-31.07,26.56L1883,647.79a27.54,27.54,0,0,0,27.42,32.07l118.87-1.11a31.81,31.81,0,0,0,31.07-26.57L2081,528.85A27.53,27.53,0,0,0,2053.56,496.78Z"></path><polygon class="cls-12" points="2038.32 553.09 1936.63 553.09 1981.56 588.7 2038.32 553.09"></polygon><polygon class="cls-12" points="1980.81 597.74 1932.72 559.63 1922.84 620.79 2031.34 620.79 2041.18 559.86 1980.81 597.74"></polygon><path class="cls-13" d="M1351.67,606.92l-184,1.73a49.2,49.2,0,0,0-48.07,41.1L1087.8,840.59a42.61,42.61,0,0,0,42.42,49.63l184-1.73a49.2,49.2,0,0,0,48.07-41.1l31.85-190.85A42.6,42.6,0,0,0,1351.67,606.92Z"></path><path class="cls-11" d="M1321.67,566.92l-184,1.73a49.2,49.2,0,0,0-48.07,41.1L1057.8,800.59a42.61,42.61,0,0,0,42.42,49.63l184-1.73a49.2,49.2,0,0,0,48.07-41.1l31.85-190.85A42.6,42.6,0,0,0,1321.67,566.92Z"></path><path class="cls-13" d="M1701.67,606.92l-184,1.73a49.2,49.2,0,0,0-48.07,41.1L1437.8,840.59a42.61,42.61,0,0,0,42.42,49.63l184-1.73a49.2,49.2,0,0,0,48.07-41.1l31.85-190.85A42.6,42.6,0,0,0,1701.67,606.92Z"></path><path class="cls-11" d="M1671.67,566.92l-184,1.73a49.2,49.2,0,0,0-48.07,41.1L1407.8,800.59a42.61,42.61,0,0,0,42.42,49.63l184-1.73a49.2,49.2,0,0,0,48.07-41.1l31.85-190.85A42.6,42.6,0,0,0,1671.67,566.92Z"></path><path class="cls-13" d="M1293.19,966.5l-183.94,1.72a49.21,49.21,0,0,0-48.07,41.11l-31.86,190.84a42.61,42.61,0,0,0,42.43,49.62l184-1.72a49.22,49.22,0,0,0,48.07-41.1l31.85-190.85A42.61,42.61,0,0,0,1293.19,966.5Z"></path><path class="cls-14" d="M1263.19,926.5l-183.94,1.72a49.21,49.21,0,0,0-48.07,41.11l-31.86,190.84a42.61,42.61,0,0,0,42.43,49.62l184-1.72a49.22,49.22,0,0,0,48.07-41.1l31.85-190.85A42.61,42.61,0,0,0,1263.19,926.5Z"></path><path class="cls-13" d="M1643.19,966.5l-183.94,1.72a49.21,49.21,0,0,0-48.07,41.11l-31.86,190.84a42.61,42.61,0,0,0,42.43,49.62l184-1.72a49.22,49.22,0,0,0,48.07-41.1l31.85-190.85A42.61,42.61,0,0,0,1643.19,966.5Z"></path><path class="cls-15" d="M1613.19,926.5l-183.94,1.72a49.21,49.21,0,0,0-48.07,41.11l-31.86,190.84a42.61,42.61,0,0,0,42.43,49.62l184-1.72a49.22,49.22,0,0,0,48.07-41.1l31.85-190.85A42.61,42.61,0,0,0,1613.19,926.5Z"></path><path class="cls-12" d="M981.58,775.47h-410a16.58,16.58,0,0,1-16.43-18.81l24.39-179.29A16.58,16.58,0,0,1,596,563h410a16.58,16.58,0,0,1,16.43,18.81L998,761.12A16.58,16.58,0,0,1,981.58,775.47Z"></path><path class="cls-11" d="M779.06,758.21H601.79a5.11,5.11,0,0,1-5.07-5.81L604.25,697a5.12,5.12,0,0,1,5.08-4.43H786.6a5.11,5.11,0,0,1,5.07,5.81l-7.53,55.39A5.13,5.13,0,0,1,779.06,758.21Z"></path><path class="cls-16" d="M1007.34,692.58H840.05A5.13,5.13,0,0,0,835,697l-7.53,55.39a5.11,5.11,0,0,0,5.07,5.81h165.9Z"></path><path class="cls-6" d="M1023.76,748.58H846.49a5.12,5.12,0,0,1-5.07-5.81L849,687.38a5.14,5.14,0,0,1,5.08-4.44H1031.3a5.12,5.12,0,0,1,5.07,5.82l-7.53,55.39A5.12,5.12,0,0,1,1023.76,748.58Z"></path><polygon class="cls-12" points="929.7 726.7 922.57 717.33 929.21 711.97 932.27 715.99 946.11 704.82 950.18 710.18 929.7 726.7"></polygon><path class="cls-12" d="M703.18,714.26h6.73l-12.19,12.07,3.74,13h-6.8l-2.34-8.24-8.3,8.24h-6.73l13.07-12.82L687,714.26h6.7l2.07,7.41Z"></path><path class="cls-3" d="M660.87,598.16l2.92-18.5a3.25,3.25,0,0,1,3.21-2.74h79.65a3.26,3.26,0,0,1,3.22,3.76L747,599.18a3.26,3.26,0,0,1-3.22,2.74H664.08A3.25,3.25,0,0,1,660.87,598.16Z"></path><path class="cls-11" d="M657.5,633.16l2.92-18.5a3.26,3.26,0,0,1,3.21-2.75H935.92a3.26,3.26,0,0,1,3.21,3.76l-2.92,18.5a3.26,3.26,0,0,1-3.21,2.75H660.71A3.25,3.25,0,0,1,657.5,633.16Z"></path><path class="cls-6" d="M652.94,668.15l2.92-18.5a3.25,3.25,0,0,1,3.21-2.74H835a3.25,3.25,0,0,1,3.21,3.76l-2.92,18.5a3.25,3.25,0,0,1-3.21,2.74h-176A3.25,3.25,0,0,1,652.94,668.15Z"></path><path class="cls-3" d="M1829.77,1240.59a40,40,0,0,1-39.94-39.72l28.63-191.45v-.22a40,40,0,0,1,39.94-40H2243a40,40,0,0,1,40,39.73l-28.61,191.24c-4,19.4-16.71,40.37-40,40.37Z"></path><path class="cls-11" d="M1864.77,1093.53a9.34,9.34,0,0,1-9.32-9.27l6.68-44.65v0a9.33,9.33,0,0,1,9.31-9.32h51.21a9.33,9.33,0,0,1,9.32,9.27l-6.68,44.6c-.94,4.53-3.89,9.42-9.32,9.42Z"></path><path class="cls-12" d="M1832.45,1144.91a2.73,2.73,0,0,1-2.72-2.71l2-13v0a2.72,2.72,0,0,1,2.72-2.72h62.35a2.73,2.73,0,0,1,2.72,2.71l-2,13c-.27,1.32-1.14,2.75-2.72,2.75Z"></path><path class="cls-12" d="M1914.45,1144.91a2.71,2.71,0,0,1-2.72-2.71l2-13v0a2.72,2.72,0,0,1,2.72-2.72h164.84a2.73,2.73,0,0,1,2.72,2.71l-1.95,13c-.28,1.32-1.14,2.75-2.72,2.75Z"></path><path class="cls-12" d="M2098.94,1144.91a2.73,2.73,0,0,1-2.73-2.71l1.95-13v0a2.73,2.73,0,0,1,2.73-2.72h103.34a2.72,2.72,0,0,1,2.72,2.71l-1.95,13c-.27,1.32-1.14,2.75-2.72,2.75Z"></path><path class="cls-12" d="M1823.4,1186.58a2.71,2.71,0,0,1-2.72-2.71l2-13v0a2.72,2.72,0,0,1,2.72-2.72h218.38a2.72,2.72,0,0,1,2.72,2.71l-2,13c-.27,1.32-1.14,2.75-2.72,2.75Z"></path><path class="cls-11" d="M1020.42,522.49l-115.84,1.09c-8.64.08-15.89-8.18-14.48-16.5l20.32-119.93a11.23,11.23,0,0,1,11.24-9.4l116-1.24h0c8.6,0,15.75,8.22,14.35,16.49l-20.34,120.08A11.24,11.24,0,0,1,1020.42,522.49Z"></path><path class="cls-12" d="M956.61,498.49l1.71-8.6a42.4,42.4,0,0,1-24.86-13.53l13.6-13.31q7.59,8,14.56,10.24l3.49-17.54q-11.73-3.18-16.43-8.53T946,431.79a28,28,0,0,1,9.89-16.6,35.49,35.49,0,0,1,18.87-7.83l1.14-5.76h12.48l-1.19,6a43.81,43.81,0,0,1,21.48,9.77l-12.42,13.9a35.21,35.21,0,0,0-12.36-7.07l-3.38,16.95q12.06,3.3,17,8.83t2.94,15.66a28.08,28.08,0,0,1-10.09,16.72,36.77,36.77,0,0,1-19.64,7.89l-1.64,8.24Zm14.87-74.76q-5.41,1.77-6.35,6.48c-.63,3.14.59,5.53,3.63,7.18Zm10,42.85a5.69,5.69,0,0,0-.48-4.12,8.75,8.75,0,0,0-4.1-3.06L974,473.89Q980.36,472,981.44,466.58Z"></path><path class="cls-12" d="M1850.24,905.41l9.15-60.86a16.48,16.48,0,0,1,16.27-13.9h408.65a16.48,16.48,0,0,1,16.27,19l-9.16,60.85a16.46,16.46,0,0,1-16.26,13.9H1866.5A16.46,16.46,0,0,1,1850.24,905.41Z"></path><path class="cls-6" d="M1982.05,859.12l1.56-10.42a2.83,2.83,0,0,1,2.79-2.38h200.07a2.82,2.82,0,0,1,2.78,3.26L2187.68,860a2.81,2.81,0,0,1-2.78,2.38H1984.83A2.81,2.81,0,0,1,1982.05,859.12Z"></path><path class="cls-11" d="M1975.43,900.05l1.57-10.42a2.82,2.82,0,0,1,2.78-2.38h291a2.82,2.82,0,0,1,2.78,3.26L2272,900.93a2.83,2.83,0,0,1-2.79,2.38h-291A2.82,2.82,0,0,1,1975.43,900.05Z"></path><path class="cls-11" d="M1859.39,844.55l-9.15,60.86a16.46,16.46,0,0,0,16.26,19h83c.18-.7.32-1.41.44-2.13l13.35-88.77a23.74,23.74,0,0,0,.28-2.89h-87.89A16.48,16.48,0,0,0,1859.39,844.55Z"></path><path class="cls-12" d="M1900.06,899.42a3.91,3.91,0,0,1-.68-.06,4.14,4.14,0,0,1-3.41-4.75l6.74-41.09a4.13,4.13,0,0,1,8.16,1.34L1904.13,896A4.14,4.14,0,0,1,1900.06,899.42Z"></path><path class="cls-12" d="M1866.27,796.37l9.15-60.86a16.48,16.48,0,0,1,16.27-13.9h408.65a16.48,16.48,0,0,1,16.27,19l-9.16,60.85a16.46,16.46,0,0,1-16.26,13.9H1882.53A16.46,16.46,0,0,1,1866.27,796.37Z"></path><path class="cls-6" d="M1998.08,750.08l1.56-10.42a2.83,2.83,0,0,1,2.79-2.38H2202.5a2.82,2.82,0,0,1,2.78,3.26L2203.71,751a2.81,2.81,0,0,1-2.78,2.38H2000.86A2.81,2.81,0,0,1,1998.08,750.08Z"></path><path class="cls-11" d="M1991.46,791l1.57-10.42a2.82,2.82,0,0,1,2.78-2.38h291a2.82,2.82,0,0,1,2.78,3.26l-1.56,10.42a2.83,2.83,0,0,1-2.79,2.38h-291A2.82,2.82,0,0,1,1991.46,791Z"></path><path class="cls-6" d="M1875.42,735.51l-9.15,60.86a16.46,16.46,0,0,0,16.26,19h83c.18-.7.32-1.41.44-2.13l13.35-88.78a25.74,25.74,0,0,0,.28-2.88h-87.89A16.48,16.48,0,0,0,1875.42,735.51Z"></path><path class="cls-12" d="M1916.08,790.37a3.85,3.85,0,0,1-.67,0,4.14,4.14,0,0,1-3.41-4.75l6.74-41.09a4.13,4.13,0,0,1,8.16,1.34l-6.74,41.09A4.14,4.14,0,0,1,1916.08,790.37Z"></path><path class="cls-12" d="M1404.57,233.74c-3.45,2.13-10.15,3.75-16.78,4l1.84-9.54c9.29-.3,15.21-3.65,18.55-10.44h11.66l-13.46,69.57h-12.17Z"></path><path class="cls-12" d="M1423.56,252.5c4.47-23.12,16.83-36.2,34.28-36.2s24.84,13.08,20.37,36.2-16.84,36.21-34.38,36.21S1419.08,275.62,1423.56,252.5Zm42.48,0c3.36-17.34-1.16-25.45-10.28-25.45-10.24,0-17.07,10.14-20,25.45-3.35,17.34,1.16,25.46,10.19,25.46C1456.25,278,1463.08,267.82,1466,252.5Z"></path><path class="cls-12" d="M1482.7,272.28h15l-2.9,15h-15Zm6.91-35.7h15l-2.91,15h-15Z"></path><path class="cls-12" d="M1507.1,266.7h11.67c-1.32,6.8,3.8,11.26,12.83,11.26,9.73,0,17.06-4.36,18.32-10.85s-4.39-10.86-14.13-10.86h-6.49l2.08-10.74h6.49c8.42,0,14.8-3.66,15.86-9.13s-3.87-9.33-12.29-9.33a15.76,15.76,0,0,0-16,13H1514c2.74-14.2,14.53-23.73,29.53-23.73,15.72,0,24.73,7.4,22.57,18.56-1.11,5.78-6.49,12.07-13.36,15.61,6.79,3.15,10.27,10.35,8.8,18-2.36,12.16-15.18,20.28-32,20.28C1513.49,288.71,1504.55,279.88,1507.1,266.7Z"></path><path class="cls-12" d="M1568.18,277l38.11-23.52a22.81,22.81,0,0,0,9.88-14.4c1.4-7.2-3.34-12.07-12-12.07s-15.55,6.49-17.45,16.33H1575.3c3.14-16.23,15.58-27.08,31-27.08,15.92,0,24.7,9.13,22,22.82-1.76,9.12-8.43,18.45-16.68,23.32l-23,14.1H1621l-2.08,10.75H1566.2Z"></path><path class="cls-12" d="M1434.75,309.43h17.36l-.61,3.14h-13.83l-1.5,7.76h12l-.61,3.13h-12l-2.49,12.86h-3.52Z"></path><path class="cls-12" d="M1454.23,316.72h3.13l-.52,2.71c2-2.12,4-3.1,6.2-3.1a3,3,0,0,1,1.53.39l-.45,2.35h-1.33a7,7,0,0,0-7,5.8l-2.21,11.45h-3.13Z"></path><path class="cls-12" d="M1467.71,316.72h3.13l-3.79,19.6h-3.13Zm1.41-7.29h3.13l-.83,4.31h-3.13Z"></path><path class="cls-12" d="M1472.71,326.52c1.18-6.11,5.85-10.19,11.69-10.19a7.14,7.14,0,0,1,6.41,3.72l2.06-10.62H1496l-5.2,26.89h-3.13l.64-3.33a11.14,11.14,0,0,1-7.85,3.72C1474.62,336.71,1471.53,332.63,1472.71,326.52Zm16.85,0c.87-4.47-1.3-7.45-5.38-7.45s-7.47,3-8.33,7.45,1.3,7.45,5.45,7.45S1488.7,331,1489.56,326.52Z"></path><path class="cls-12" d="M1496.46,326.52c1.19-6.11,5.81-10.19,11.54-10.19a7.06,7.06,0,0,1,6.26,3.68l.64-3.29H1518l-3.79,19.6h-3.13l.63-3.29a11,11,0,0,1-7.69,3.68C1498.33,336.71,1495.28,332.63,1496.46,326.52Zm16.54,0c.87-4.47-1.22-7.45-5.22-7.45s-7.32,3-8.18,7.45,1.26,7.45,5.3,7.45S1512.14,331,1513,326.52Z"></path><path class="cls-12" d="M1524,335.14l-3.88-18.42h3.33l2.94,14.39,8.43-14.39h3.37l-15.79,26.89h-3.37Z"></path><path class="cls-11" d="M1132.41,542.11h0a43.35,43.35,0,0,1-43-49.15l12.36-91.43h87.49l-13.93,103A43.35,43.35,0,0,1,1132.41,542.11Z"></path><path class="cls-12" d="M1219.73,542.11h0a43.35,43.35,0,0,1-43-49.15l12.36-91.43h87.49l-13.93,103A43.35,43.35,0,0,1,1219.73,542.11Z"></path><path class="cls-11" d="M1307.05,542.11h0a43.35,43.35,0,0,1-43-49.15l12.36-91.43h87.49l-13.93,103A43.35,43.35,0,0,1,1307.05,542.11Z"></path><path class="cls-12" d="M1394.37,542.11h0a43.34,43.34,0,0,1-43-49.15l12.36-91.43h87.48l-13.92,103A43.35,43.35,0,0,1,1394.37,542.11Z"></path><path class="cls-11" d="M1481.69,542.11h0a43.34,43.34,0,0,1-43-49.15l12.36-91.43h87.48l-13.92,103A43.35,43.35,0,0,1,1481.69,542.11Z"></path><path class="cls-12" d="M1569,542.11h0a43.34,43.34,0,0,1-43-49.15l12.36-91.43h87.48l-13.92,103A43.35,43.35,0,0,1,1569,542.11Z"></path><path class="cls-11" d="M1656.33,542.11h0a43.34,43.34,0,0,1-43-49.15l12.35-91.43h87.49l-13.92,103A43.36,43.36,0,0,1,1656.33,542.11Z"></path><path class="cls-12" d="M1743.65,542.11h0a43.34,43.34,0,0,1-43-49.15L1713,401.53h87.49l-13.92,103A43.36,43.36,0,0,1,1743.65,542.11Z"></path><polygon class="cls-12" points="1825.95 365.75 1174.81 365.75 1101.81 401.53 1800.53 401.53 1822.57 390.73 1825.95 365.75"></polygon><polygon class="cls-17" points="1174.81 365.75 1101.81 401.53 1188.81 401.53 1261.81 365.75 1174.81 365.75"></polygon><polygon class="cls-17" points="1349.62 365.75 1276.62 401.53 1363.62 401.53 1436.62 365.75 1349.62 365.75"></polygon><polygon class="cls-17" points="1524.42 365.75 1451.42 401.53 1538.42 401.53 1611.42 365.75 1524.42 365.75"></polygon><polygon class="cls-17" points="1699.23 365.75 1626.23 401.53 1713.23 401.53 1786.23 365.75 1699.23 365.75"></polygon><path class="cls-18" d="M1640.36,778.32c0-.08,0-.17,0-.29,0-.58,0-1.68-.06-3a61,61,0,0,0-.29-6.7q0-.25-.09-.45c-.06-.27-.13-.56-.2-.88s-.15-.64-.25-1-.21-.68-.34-1a7.33,7.33,0,0,0-.38-.8l-.2-.34a4,4,0,0,0-.52-.64,3,3,0,0,0-.38-.33,2.79,2.79,0,0,0-.64-.34,3.39,3.39,0,0,0-1.51-.23h0a4.92,4.92,0,0,0-.71.11c-1,.21-2.13.39-3.32.53-3.55.41-7.55.47-9.45-.14-1.11-.36-3.29-.9-5.52-1.44l-2.82-.67-.87-.2-3-.73a9.21,9.21,0,0,1-1.83-.59,6.19,6.19,0,0,1-1.09-.67l-.41-.33c-.29-.24-.59-.52-.92-.85l-.52-.55c-.36-.39-.74-.83-1.16-1.35-.21-.26-.43-.53-.65-.83a115.41,115.41,0,0,1-6.61-10.56c-1.07-1.84-2.12-3.7-3.08-5.41l-.47-.84c-.47-.83-.9-1.61-1.3-2.34l-.39-.69-1.5-2.7-.35-.62c-1.42-2.49-4.2-5-3.92-13,.06-1.74.28-4.68.6-8.28.13-1.55.29-3.21.46-5s.35-3.58.55-5.44c.26-2.49.54-5.05.83-7.58.14-1.26.29-2.52.44-3.75.22-1.86.45-3.67.67-5.39.07-.57.15-1.14.22-1.69.15-1.1.3-2.16.44-3.17.51-3.51,1-6.31,1.38-7.88.9-3.59,2.15-10.27,3.4-16.6.16-.8.31-1.58.47-2.36.08-.39.16-.77.23-1.15.55-2.66,1.08-5.14,1.56-7.13.07-.29.14-.56.21-.83.13-.53.27-1,.39-1.45.19-.66.38-1.2.54-1.62s.23-.56.35-.85c.59-1.44,1.23-3,1.81-4.62.12-.32.24-.63.35-.94.33-.93.63-1.83.87-2.67a18.8,18.8,0,0,0,.53-2.26,5.47,5.47,0,0,0,.08-1.16,2.75,2.75,0,0,0-.06-.44,1.13,1.13,0,0,0-.17-.35.86.86,0,0,1-.07-.1,2.12,2.12,0,0,0-.26-.26.34.34,0,0,0-.09-.08,3.66,3.66,0,0,0-.46-.33l-.12-.08-.46-.25-.21-.1-.56-.25-.15-.06-.74-.28-.33-.11-.51-.17-.39-.12-.57-.17-.77-.21-.35-.09-.62-.16-.22,0c-2.42-.58-5-1-6.87-1.28-5.39-.7-30.56-.92-39.67-.25-9.27.67-20,4-21.25,7.31,0,0-4.48,19.49-3.49,31.41.81,9.76,2.68,31.72,2.14,37s-5,21.55-5.64,26-3.42,13.61-3.42,13.61-5.89,8.2-7.87,12.07c-2.24,4.38-6.67,19.69-10.2,35.08,5,2,22,7.88,37.47,5.42h0c.86-.14,1.73-.31,2.58-.5l.13,0q1.2-.27,2.4-.63l.45-.14c.79-.25,1.57-.51,2.33-.82.9-2.19,1.65-4.49,2.18-6.23.51-1.57,1-3,1.19-3.74.48-.65,1.62-1.45,4.28-1.4,2.4,0,7.17,1,9.05,3.56,1.69,2.31,6.72,10,10.09,11.58s6.85,2.76,14.45,2.46,23.85-2.27,33.76-4.88a113.51,113.51,0,0,0,14.34-4.92h0l.22-.09.87-.37.42-.19.57-.24.4-.18.48-.22.35-.15.42-.2.28-.13.35-.16.22-.11.29-.14.14-.07.28-.14a3.48,3.48,0,0,0,1.63-1.68A2.54,2.54,0,0,0,1640.36,778.32Z"></path><path class="cls-17" d="M1513.62,616.13s-4.48,19.49-3.49,31.41c.81,9.76,2.68,31.72,2.14,37s-5,21.55-5.64,26-3.42,13.61-3.42,13.61-5.89,8.2-7.87,12.07c-2.24,4.38-6.67,19.69-10.19,35.08,5.91,2.38,28.28,10.06,45.39,3.31a80.22,80.22,0,0,0,3-9.19s.21-2.27,4.64-2.19c2.4,0,7.17,1,9,3.56,1.69,2.31,6.72,10,10.09,11.58s6.85,2.76,14.45,2.46,23.85-2.27,33.76-4.88a112.42,112.42,0,0,0,19.63-7.31,3,3,0,0,0,1.79-3c-.17-1.15,0-8.31-.47-10.4s-1.14-6.29-5.13-5.44-10.23,1.2-12.77.39-10.64-2.61-12.24-3-3-.48-6.58-5.16-12.27-20.67-13.7-23.17-4.2-5-3.92-13,3.78-41,5.59-48.14,5-26.73,6.81-31.14,4.43-10.83,3.92-12.94-9.28-3.88-13.92-4.49c-5.39-.71-30.56-.92-39.67-.26C1525.6,609.49,1514.89,612.81,1513.62,616.13Z"></path><path class="cls-19" d="M1528.34,763.35c-4.64-.08-4.86,2.3-4.86,2.3s-2.16,7.51-3.58,11.41a39.59,39.59,0,0,0,10.64-2.46c.89-2.19,2.88-8.38,3.4-10.13A18.07,18.07,0,0,0,1528.34,763.35Z"></path><path class="cls-19" d="M1627,765.6c-.17-1.15,0-8.31-.47-10.4s-1.14-6.29-5.13-5.44-10.23,1.2-12.77.39-10.64-2.61-12.24-3-3-.48-6.58-5.16-12.27-20.67-13.7-23.17-4.2-5-3.92-13,3.78-41,5.59-48.14,5-26.73,6.81-31.14,4.43-10.83,3.92-12.94c-.36-1.51-5-2.86-9.34-3.72a1.53,1.53,0,0,1,.59.81c.53,2.2-2.24,8.94-4.11,13.54s-5.24,25.08-7.12,32.59-5.55,42.07-5.84,50.37,2.61,11,4.1,13.6,10.54,19.34,14.33,24.24,5.21,5,6.88,5.41,10.16,2.32,12.82,3.18,9.19.47,13.36-.41,4.85,3.49,5.37,5.69.31,9.68.49,10.88a2.55,2.55,0,0,1-.12,1.27c2.84-1.18,4.78-2.12,5.29-2.39A3,3,0,0,0,1627,765.6Z"></path><path class="cls-20" d="M1544,1025.53c0-.1.09-.19.13-.29.21-.44.41-.88.6-1.31h0c.18-.42.34-.83.5-1.25l.1-.27c.15-.41.29-.82.41-1.22a1.46,1.46,0,0,1,0-.2c.1-.37.19-.74.26-1.1,0-.07,0-.14,0-.2.07-.4.11-.79.14-1.18a2.09,2.09,0,0,1,0-.25,9.41,9.41,0,0,0,0-1.19c-.23-2.25-.53-4.8-.9-7.2-.08-.51-.17-1-.25-1.5l0-.17c-.09-.51-.18-1-.28-1.49l0-.09c-.1-.49-.2-1-.31-1.41v0c-.11-.46-.22-.89-.34-1.28h0c-.94-3.19-2.64-6.79-2.39-10s.7-8.78,2.08-11.17c-5.92-.8-7.11-.8-9.78-2.4a37.16,37.16,0,0,1-4.53-3.18s-6,10.77-9.58,15.16a20.63,20.63,0,0,1-13,7.56,15.09,15.09,0,0,1-3.39.2h0l-.64-.07-.84-.1-.69-.14c-.26-.06-.51-.12-.77-.2a6.36,6.36,0,0,1-.62-.19,12.5,12.5,0,0,1-1.2-.48h0a11.47,11.47,0,0,1-3.89-3c-2.76-3.28-6.51-8.37-6.63-21.93-6.23,3.2-7.43,3.2-10.22,3.2s-7.21.39-7.21.39l-.29,3.59c-1.64,5.59-5.26,16-7.58,19.94-.19.32-.37.64-.55,1h0l-.58,1c-.07.12-.14.24-.2.36-.18.32-.35.63-.51.95-.07.11-.12.23-.18.34-.29.56-.57,1.11-.83,1.66-.08.17-.17.33-.24.5s-.24.51-.35.77-.16.37-.23.55-.21.5-.3.74l-.19.54c-.09.24-.17.48-.25.72s-.17.62-.25.93a11.26,11.26,0,0,0-.26,1.52v0c0,.31,0,.63,0,.95a21.71,21.71,0,0,0,.14,3.1s0,.08,0,.12c.07.62.17,1.25.3,1.87v0c.12.6.28,1.19.45,1.78,0,.12.08.24.11.36.19.58.39,1.15.62,1.72h0c.1.23.21.5.31.79h0c1.34,3.61,3.13,11.15,2.75,16-.22,2.67-.19,8.93-.28,15.19,0,1.86-.07,3.71-.13,5.47,0,1.52-.12,3-.21,4.3h0c-.06,1-.14,1.9-.23,2.72v.09c0,.38-.09.73-.14,1.06l0,.18c0,.32-.11.63-.17.91s-.09.43-.14.65h0c-1.26,5.92-3.08,13.84-5.67,17.29a72.55,72.55,0,0,0-4.23,7.33h0c-1.08,2.07-2.25,4.35-3.38,6.63h0c-.39.78-.77,1.56-1.14,2.33h0l-.77,1.59h0c-.44.9-.86,1.79-1.26,2.64l-.07.15c-.17.35-.33.7-.49,1l-.09.21c-.18.38-.36.76-.52,1.12h0c-.77,1.7-1.39,3.12-1.77,4.09-2,5.18-5.45,18.34-5.63,25.53a42.14,42.14,0,0,0,.18,4.77h0c0,.53.1,1,.16,1.54v.09c.06.47.11.92.17,1.36v0h0c.4,3,.73,5.18-.07,6.58-.48.83-1.11,1.8-1.74,2.71a5.15,5.15,0,0,0,.19,6.31c8.22,9.31,18.49,14.71,31.59,16.5,11,1.49,22.28.58,33.46-.51,6.69-.65,13.35-1.59,20-2.86,5.85-1.12,12-2.43,16.9-6.13,2.3-1.74,1.93-1.93.83-4.12a32.93,32.93,0,0,1-2.4-5.51c-1-3.2.79-10,1.27-16,.35-4.32,1.78-17.21,1.94-27.63,0-.15,0-.3,0-.45,0-.37,0-.73,0-1.09V1115c0-.35,0-.7,0-1,0-.15,0-.3,0-.45,0-1,0-1.88-.1-2.75,0-.14,0-.27,0-.4,0-.3,0-.6-.07-.89s0-.29,0-.43,0-.55-.08-.82c0-.12,0-.24,0-.36-.05-.37-.1-.74-.16-1.08h0c-.1-.57-.2-1.16-.3-1.75s-.2-1.22-.3-1.85h0c-.09-.52-.17-1-.26-1.56h0l-.3-1.85h0c-.16-1-.33-2-.49-3.07-1.19-7.38-2.35-14.61-3-17-.91-3.59-.72-11.18.41-15.16.35-1.27.86-3.41,1.38-5.85h0c1.12-5.3,2.32-12,2.24-14.48-.12-3.6,1-7.59,3.41-12.78.68-1.46,1.42-2.9,2.13-4.3,0-.1.1-.21.16-.31C1543.54,1026.37,1543.75,1026,1544,1025.53Z"></path><path class="cls-9" d="M1462,969c-1.65,5.59-5.26,16-7.59,19.94s-4.66,8.39-4.91,11.58a21.86,21.86,0,0,0,1.6,10c1.34,3.18,3.46,11.56,3,16.74s.09,24-1.19,29.93-3.13,14.36-5.82,17.94-11.71,22-13.72,27.14-5.45,18.34-5.63,25.53,1.83,12,.44,14.36c-.48.83-1.11,1.8-1.73,2.71a5.17,5.17,0,0,0,.18,6.31c8.23,9.31,18.49,14.71,31.6,16.5,11,1.5,22.28.58,33.46-.51,6.68-.65,13.35-1.59,20-2.86,5.85-1.12,12-2.43,16.91-6.13,2.3-1.74,1.93-1.93.83-4.12a33.81,33.81,0,0,1-2.41-5.51c-.94-3.2.8-10,1.28-16s3-28.33,1.42-37.9-3.7-23.54-4.61-27.12-.72-11.18.4-15.16,3.74-16.76,3.63-20.34,1-7.59,3.4-12.78,5.59-10,5.13-14.35a85.16,85.16,0,0,0-2.13-13.17c-.94-3.19-2.64-6.78-2.39-10s.7-8.78,2.07-11.17c-5.92-.8-7.11-.8-9.77-2.4A36.21,36.21,0,0,1,1521,965s-6,10.77-9.58,15.16a20.68,20.68,0,0,1-13,7.56c-4.85.81-9.21-.61-12-4s-6.51-8.38-6.63-21.94c-6.23,3.2-7.43,3.2-10.22,3.2s-7.21.39-7.21.39Z"></path><path class="cls-21" d="M1513.44,1045.08c-.12,1.53,3.08,2.76,7.14,2.76a13.58,13.58,0,0,0,6.39-1.34c.18-.85.36-1.73.54-2.63-1.12-.92-3.58-1.56-6.5-1.56C1517,1042.32,1513.56,1043.56,1513.44,1045.08Z"></path><path class="cls-21" d="M1501.17,1050.31c-3.09,2.89-4.79,6.09-3.8,7.17s4.32-.39,7.41-3.27,4.79-6.09,3.8-7.16S1504.26,1047.43,1501.17,1050.31Z"></path><path class="cls-21" d="M1515.17,1054.19c2.65,2.86,5.74,4.31,6.9,3.23s0-4.28-2.69-7.15-5.74-4.31-6.9-3.23S1512.52,1051.32,1515.17,1054.19Z"></path><path class="cls-21" d="M1527.78,1006.11c-3.1,2.88-4.8,6.09-3.8,7.16s4.31-.39,7.4-3.27,4.8-6.08,3.8-7.16S1530.87,1003.23,1527.78,1006.11Z"></path><path class="cls-21" d="M1487.11,1090c-.12,1.52,3.07,2.75,7.13,2.75s7.46-1.25,7.58-2.77-3.08-2.76-7.14-2.76S1487.23,1088.47,1487.11,1090Z"></path><path class="cls-21" d="M1510.57,1046.47a1.52,1.52,0,0,0,1.49-1.38,1.26,1.26,0,0,0-1.27-1.38,1.52,1.52,0,0,0-1.49,1.38A1.26,1.26,0,0,0,1510.57,1046.47Z"></path><path class="cls-21" d="M1509.33,1062.56c1.52,0,3-3.3,3.33-7.36s-.67-7.35-2.19-7.35-3,3.3-3.34,7.36S1507.8,1062.56,1509.33,1062.56Z"></path><path class="cls-21" d="M1535.91,1000.88a1.25,1.25,0,0,0,1.26,1.38,1.5,1.5,0,0,0,.29-.06c-.1-.87-.21-1.76-.34-2.65A1.5,1.5,0,0,0,1535.91,1000.88Z"></path><path class="cls-21" d="M1534.13,1016.16c2-4,4-7.78,3.62-11.28,0-.35-.07-.71-.11-1.07a1.08,1.08,0,0,0-.57-.17c-1.53,0-3,3.3-3.33,7.36A15.12,15.12,0,0,0,1534.13,1016.16Z"></path><path class="cls-21" d="M1481.94,1006.11c-3.09,2.88-4.79,6.09-3.79,7.16s4.31-.39,7.4-3.27,4.79-6.08,3.8-7.16S1485,1003.23,1481.94,1006.11Z"></path><path class="cls-21" d="M1439.89,1090a1.29,1.29,0,0,0-.31-1c-.39.78-.78,1.56-1.15,2.33A1.51,1.51,0,0,0,1439.89,1090Z"></path><path class="cls-21" d="M1455.34,1050.31a21.56,21.56,0,0,0-1.76,1.87,38.47,38.47,0,0,1-.58,5c0,.21-.09.43-.14.65,1.51-.17,3.85-1.5,6.09-3.58,3.09-2.88,4.79-6.09,3.79-7.16S1458.43,1047.43,1455.34,1050.31Z"></path><path class="cls-21" d="M1467,1043.13c1,1.08,4.31-.37,7.41-3.25s4.8-6.08,3.81-7.15-4.31.37-7.41,3.25S1466,1042.05,1467,1043.13Z"></path><path class="cls-21" d="M1500.77,1042.36c-4.06,0-7.45,1.26-7.57,2.79s3.09,2.75,7.15,2.74,7.45-1.27,7.57-2.79S1504.83,1042.35,1500.77,1042.36Z"></path><path class="cls-21" d="M1448,1084.79c3.1-2.87,4.81-6.07,3.81-7.15s-4.31.37-7.41,3.25a20.81,20.81,0,0,0-1.47,1.52c-.84,1.59-1.71,3.3-2.59,5a1.13,1.13,0,0,0,.25.59C1441.61,1089.12,1444.93,1087.67,1448,1084.79Z"></path><path class="cls-21" d="M1462.08,1045.1c.12-1.53-3.08-2.75-7.14-2.74-.35,0-.69,0-1,0,0,1.86-.06,3.72-.12,5.49h.73C1458.58,1047.87,1462,1046.62,1462.08,1045.1Z"></path><path class="cls-21" d="M1502.84,1013.21c1.17-1.08,0-4.28-2.68-7.15s-5.74-4.31-6.91-3.23,0,4.28,2.69,7.15S1501.68,1014.29,1502.84,1013.21Z"></path><path class="cls-21" d="M1482.32,1045.07c.12-1.53-3.08-2.76-7.14-2.76s-7.45,1.25-7.57,2.77,3.08,2.76,7.14,2.76S1482.2,1046.59,1482.32,1045.07Z"></path><path class="cls-21" d="M1466.65,1047c-1.16,1.08,0,4.28,2.69,7.15s5.74,4.31,6.9,3.23,0-4.28-2.69-7.15S1467.81,1046,1466.65,1047Z"></path><path class="cls-21" d="M1493.56,998.93c1,1.07,4.31-.38,7.41-3.26s4.81-6.07,3.81-7.15-4.31.38-7.41,3.25S1492.57,997.85,1493.56,998.93Z"></path><path class="cls-21" d="M1521.05,1134.19c.11-1.53-3.08-2.76-7.14-2.76s-7.46,1.25-7.58,2.77,3.08,2.76,7.14,2.76S1520.93,1135.71,1521.05,1134.19Z"></path><path class="cls-21" d="M1510.9,1042.32c1.53,0,3-3.29,3.35-7.35s-.65-7.35-2.18-7.35-3,3.29-3.35,7.35S1509.37,1042.32,1510.9,1042.32Z"></path><path class="cls-21" d="M1505.37,1136.16c-1.16,1.08,0,4.28,2.69,7.14s5.74,4.32,6.9,3.24,0-4.28-2.68-7.15S1506.54,1135.08,1505.37,1136.16Z"></path><path class="cls-21" d="M1428,1132.52c.1,1.08.23,2.08.35,3a1.94,1.94,0,0,0,1-1.34C1429.43,1133.56,1428.91,1133,1428,1132.52Z"></path><path class="cls-21" d="M1509.49,1125.1c-3.1,2.87-4.8,6.07-3.81,7.15s4.31-.38,7.41-3.25,4.81-6.08,3.81-7.16S1512.59,1122.22,1509.49,1125.1Z"></path><path class="cls-21" d="M1449.76,999.1a15,15,0,0,0,5.38-3.43c3.1-2.87,4.81-6.07,3.81-7.15-.74-.81-2.77-.2-5,1.35C1452.1,993,1450.38,996.37,1449.76,999.1Z"></path><path class="cls-21" d="M1489.5,990.76c-.33,4.06.65,7.36,2.17,7.36s3-3.3,3.35-7.36a18.11,18.11,0,0,0,0-2.85,12.74,12.74,0,0,1-4.76-1.18A17.17,17.17,0,0,0,1489.5,990.76Z"></path><path class="cls-21" d="M1489.65,998.93c1.16-1.08-.06-4.28-2.71-7.14s-5.75-4.3-6.91-3.21,0,4.28,2.7,7.14S1488.48,1000,1489.65,998.93Z"></path><path class="cls-21" d="M1463.49,1062.56c1.53,0,3-3.3,3.34-7.36s-.67-7.35-2.2-7.35-3,3.3-3.33,7.36S1462,1062.56,1463.49,1062.56Z"></path><path class="cls-21" d="M1505,1116.73c-1.53,0-3,3.3-3.35,7.36s.65,7.35,2.17,7.35,3-3.29,3.35-7.35S1506.49,1116.73,1505,1116.73Z"></path><path class="cls-21" d="M1437.16,1107.47c1.53,0,3-3.3,3.33-7.36s-.67-7.35-2.19-7.35a1.2,1.2,0,0,0-.64.2c-.9,1.86-1.73,3.63-2.44,5.17-.11.64-.2,1.3-.26,2C1434.65,1104.18,1435.63,1107.47,1437.16,1107.47Z"></path><path class="cls-21" d="M1491.34,1002.26a1.52,1.52,0,0,0,1.49-1.38,1.26,1.26,0,0,0-1.27-1.38,1.52,1.52,0,0,0-1.49,1.38A1.26,1.26,0,0,0,1491.34,1002.26Z"></path><path class="cls-21" d="M1490.1,1018.35c1.53,0,3-3.3,3.33-7.36s-.67-7.35-2.19-7.35-3,3.3-3.33,7.36S1488.57,1018.35,1490.1,1018.35Z"></path><path class="cls-21" d="M1464.74,1046.47a1.52,1.52,0,0,0,1.49-1.38,1.26,1.26,0,0,0-1.27-1.38,1.52,1.52,0,0,0-1.49,1.38A1.26,1.26,0,0,0,1464.74,1046.47Z"></path><path class="cls-21" d="M1503.68,1132.83a1.52,1.52,0,0,0-1.49,1.38,1.26,1.26,0,0,0,1.27,1.38,1.52,1.52,0,0,0,1.49-1.38A1.25,1.25,0,0,0,1503.68,1132.83Z"></path><path class="cls-21" d="M1485.74,1072.53c-1.53,0-3,3.29-3.35,7.35s.65,7.36,2.17,7.36,3-3.3,3.35-7.36S1487.26,1072.53,1485.74,1072.53Z"></path><path class="cls-21" d="M1484.45,1088.62A1.53,1.53,0,0,0,1483,1090a1.26,1.26,0,0,0,1.27,1.38,1.52,1.52,0,0,0,1.49-1.38A1.25,1.25,0,0,0,1484.45,1088.62Z"></path><path class="cls-21" d="M1528.65,1087.63l-.51-3.17a14.93,14.93,0,0,0-2.48-3.55c-2.65-2.86-5.75-4.3-6.91-3.21s0,4.28,2.71,7.14,5.75,4.3,6.91,3.21A1.24,1.24,0,0,0,1528.65,1087.63Z"></path><ellipse class="cls-21" cx="1481.33" cy="1000.92" rx="7.36" ry="2.76" transform="translate(-16.44 24.78) rotate(-0.95)"></ellipse><path class="cls-21" d="M1455,1134.22c.11-1.53-3.09-2.76-7.15-2.74s-7.45,1.26-7.57,2.79,3.09,2.75,7.15,2.74S1454.86,1135.74,1455,1134.22Z"></path><path class="cls-21" d="M1449.71,999.36a9.68,9.68,0,0,0-.17,1.13c0,.62-.06,1.26,0,1.91a12.74,12.74,0,0,0,6,1.23c4.06,0,7.45-1.25,7.57-2.77s-3.07-2.76-7.14-2.76A14,14,0,0,0,1449.71,999.36Z"></path><path class="cls-21" d="M1494.21,1000.88c-.12,1.52,3.08,2.76,7.14,2.75s7.46-1.25,7.57-2.77-3.07-2.76-7.13-2.76S1494.33,999.35,1494.21,1000.88Z"></path><path class="cls-21" d="M1535.33,990.79c-.28,3.47.4,6.36,1.56,7.12a51,51,0,0,0-1.27-6.2C1535.53,991.41,1535.43,991.1,1535.33,990.79Z"></path><path class="cls-21" d="M1499.26,1032.78c-1.17,1.09,0,4.28,2.7,7.14s5.75,4.31,6.91,3.22,0-4.28-2.7-7.14S1500.42,1031.7,1499.26,1032.78Z"></path><path class="cls-21" d="M1535.48,998.93c1.16-1.08,0-4.28-2.71-7.14s-5.75-4.3-6.91-3.21.05,4.28,2.71,7.14S1534.32,1000,1535.48,998.93Z"></path><path class="cls-21" d="M1519.81,1000.94c-.12,1.53,3.08,2.75,7.14,2.74s7.45-1.26,7.57-2.79-3.08-2.75-7.15-2.74S1519.92,999.42,1519.81,1000.94Z"></path><path class="cls-21" d="M1512.79,1043.13c1,1.08,4.31-.37,7.41-3.25s4.81-6.08,3.81-7.15-4.31.37-7.41,3.25S1511.79,1042.05,1512.79,1043.13Z"></path><path class="cls-21" d="M1465.07,1042.32c1.52,0,3-3.29,3.35-7.35s-.65-7.35-2.18-7.35-3,3.29-3.35,7.35S1463.54,1042.32,1465.07,1042.32Z"></path><path class="cls-21" d="M1528.07,1092c-1-1.08-4.31.39-7.4,3.27s-4.8,6.08-3.8,7.16,4.31-.39,7.41-3.27S1529.07,1093,1528.07,1092Z"></path><path class="cls-21" d="M1451.84,1143.33c3.09-2.88,4.79-6.09,3.79-7.16s-4.31.38-7.4,3.26-4.79,6.09-3.8,7.17S1448.74,1146.21,1451.84,1143.33Z"></path><path class="cls-21" d="M1501.47,1136.17c-1-1.08-4.31.38-7.41,3.26s-4.79,6.09-3.79,7.17,4.31-.39,7.4-3.27S1502.46,1137.24,1501.47,1136.17Z"></path><path class="cls-21" d="M1528.82,1107.47a2,2,0,0,0,1.47-1,66.71,66.71,0,0,0-.49-11.84c-.09-.57-.19-1.16-.29-1.76-1.36.57-2.6,3.6-2.88,7.25C1526.32,1104.18,1527.3,1107.47,1528.82,1107.47Z"></path><path class="cls-21" d="M1502.22,1151.68c1.53,0,3-3.3,3.33-7.36s-.67-7.35-2.19-7.35-3,3.3-3.33,7.36S1500.69,1151.68,1502.22,1151.68Z"></path><path class="cls-21" d="M1483,1107.47c1.53,0,3-3.3,3.33-7.36s-.66-7.35-2.19-7.35-3,3.3-3.33,7.36S1481.47,1107.47,1483,1107.47Z"></path><path class="cls-21" d="M1468.07,1131.43c-4.06,0-7.45,1.25-7.57,2.77s3.08,2.76,7.14,2.76,7.45-1.25,7.57-2.77S1472.14,1131.43,1468.07,1131.43Z"></path><path class="cls-21" d="M1482.24,1092c-1-1.08-4.31.39-7.41,3.27s-4.79,6.08-3.79,7.16,4.31-.39,7.4-3.27S1483.24,1093,1482.24,1092Z"></path><path class="cls-21" d="M1456.39,1151.68c1.52,0,3-3.3,3.33-7.36s-.67-7.35-2.19-7.35-3,3.3-3.34,7.36S1454.86,1151.68,1456.39,1151.68Z"></path><path class="cls-21" d="M1458,1131.44c1.53,0,3-3.29,3.35-7.35s-.65-7.36-2.18-7.36-3,3.3-3.35,7.36S1456.43,1131.44,1458,1131.44Z"></path><path class="cls-21" d="M1469.13,1146.54c1.17-1.08,0-4.28-2.69-7.15s-5.74-4.31-6.9-3.23,0,4.28,2.69,7.14S1468,1147.62,1469.13,1146.54Z"></path><path class="cls-21" d="M1448.41,1092.75c4.06,0,7.45-1.25,7.57-2.77s-3.07-2.76-7.13-2.76-7.46,1.25-7.58,2.78S1444.35,1092.75,1448.41,1092.75Z"></path><path class="cls-21" d="M1455.93,1132.26c1.16-1.08,0-4.28-2.7-7.14s-5.75-4.3-6.92-3.22.06,4.28,2.71,7.14S1454.77,1133.34,1455.93,1132.26Z"></path><path class="cls-21" d="M1457.63,1135.59a1.52,1.52,0,0,0,1.49-1.38,1.25,1.25,0,0,0-1.27-1.38,1.52,1.52,0,0,0-1.49,1.38A1.26,1.26,0,0,0,1457.63,1135.59Z"></path><path class="cls-21" d="M1454,1032.49c0,1.38,0,2.9,0,4.5a15.91,15.91,0,0,0,2.16,2.93c2.66,2.86,5.75,4.31,6.91,3.22s0-4.28-2.71-7.14C1458.05,1033.54,1455.44,1032.14,1454,1032.49Z"></path><path class="cls-21" d="M1449.49,1002.65a22.09,22.09,0,0,0,1.65,7.82c.1.23.2.5.31.79,2.28,2,4.59,2.85,5.56,2,1.17-1.08,0-4.28-2.69-7.15A12.15,12.15,0,0,0,1449.49,1002.65Z"></path><path class="cls-21" d="M1449.9,1102.33c1.17-1.08,0-4.28-2.69-7.15s-5.73-4.31-6.9-3.23,0,4.28,2.69,7.15S1448.74,1103.41,1449.9,1102.33Z"></path><path class="cls-21" d="M1529.2,1091c-.08-.51-.17-1-.25-1.56a1.35,1.35,0,0,0-.15.53A1.23,1.23,0,0,0,1529.2,1091Z"></path><path class="cls-21" d="M1493.24,1137c4.06,0,7.45-1.27,7.57-2.79s-3.09-2.76-7.15-2.74-7.45,1.26-7.56,2.79S1489.18,1137,1493.24,1137Z"></path><path class="cls-21" d="M1495.74,1102.33c1.16-1.08,0-4.28-2.69-7.15s-5.74-4.31-6.9-3.23,0,4.28,2.68,7.15S1494.57,1103.41,1495.74,1102.33Z"></path><path class="cls-21" d="M1499.06,1125.12c-2.66-2.86-5.75-4.3-6.91-3.22s0,4.28,2.7,7.14,5.75,4.3,6.92,3.22S1501.71,1128,1499.06,1125.12Z"></path><path class="cls-21" d="M1527.41,1090c.12-1.53-3.08-2.75-7.14-2.74s-7.45,1.27-7.57,2.79,3.08,2.75,7.15,2.74S1527.3,1091.53,1527.41,1090Z"></path><path class="cls-21" d="M1467.26,1129c3.1-2.87,4.81-6.08,3.81-7.16s-4.31.38-7.41,3.26-4.81,6.07-3.81,7.15S1464.16,1131.87,1467.26,1129Z"></path><path class="cls-21" d="M1481.58,1090c.12-1.53-3.08-2.75-7.15-2.74s-7.45,1.27-7.56,2.79,3.08,2.75,7.14,2.74S1481.46,1091.53,1481.58,1090Z"></path><path class="cls-21" d="M1479.83,1080.91c-2.66-2.86-5.75-4.3-6.91-3.21s0,4.28,2.71,7.14,5.75,4.3,6.91,3.21S1482.49,1083.77,1479.83,1080.91Z"></path><path class="cls-21" d="M1493.86,1084.79c3.1-2.87,4.81-6.07,3.82-7.15s-4.32.37-7.41,3.25-4.81,6.08-3.82,7.15S1490.76,1087.67,1493.86,1084.79Z"></path><path class="cls-4" d="M1288.76,676.35c-3.48-8.63-9.06-16-12.5-24.61a35.48,35.48,0,0,1-2.76-13.21c0-5.06,1.73-10.24,2.57-15.37.87-5.37.41-10.23-2.18-14.39-2.43-3.89-6.26-6.76-10.05-9.32a72.61,72.61,0,0,0-27.51-11.6,42,42,0,0,0-16,0,39.08,39.08,0,0,0-15.2,7.08,91.35,91.35,0,0,0-12.54,11.62,147.68,147.68,0,0,0-11.64,14.17c-6.92,9.57-12.2,19.95-19.31,29.41a98.64,98.64,0,0,1-11.55,12.65c-4.3,4-8.72,8-12.73,12.27-7,7.57-12.95,17.57-12.2,26.88a16.07,16.07,0,0,0,.73,3.7l-8.06,37.54c-6.23,29,12.23,52.5,41.22,52.5h59.6c29,0,57.55-23.51,63.78-52.5l8.85-41.21a15.36,15.36,0,0,0,.32-4.05C1293,690.27,1291.39,682.84,1288.76,676.35Zm-128.58-18c7.68-8.51,13-18.41,19.08-27.84A143.21,143.21,0,0,1,1201,603.7a50.14,50.14,0,0,1,12.65-9.24,31.47,31.47,0,0,1,14.46-2.88,49,49,0,0,1,14.18,2.72,75.84,75.84,0,0,1,13.07,5.75,57.47,57.47,0,0,1,11.13,7.74c3,2.83,5.32,6.35,5.41,10.94.11,5-1.74,10.16-2.55,15.2a35.58,35.58,0,0,0,.56,14c2.06,8.75,7,16,11.07,23.59,2.85,5.27,5.55,11.24,6.34,17.68a12.83,12.83,0,0,0-8.25-2.78H1145.52c-5.7,0-11.33,3.09-15,7.67a36.52,36.52,0,0,1,6.34-12.22C1143.57,673.13,1152.8,666.5,1160.18,658.32Z"></path><path class="cls-22" d="M1205.64,788.65H1146c-29,0-47.45-23.51-41.22-52.5l8.85-41.21c1.84-8.57,10.28-15.52,18.85-15.52h133.57c8.57,0,14,7,12.18,15.52l-8.85,41.21C1263.19,765.14,1234.64,788.65,1205.64,788.65Z"></path><path class="cls-22" d="M1275.83,699.31c5.14-10.46,3.52-21.08-.07-30-3.48-8.63-9.06-16-12.5-24.61a35.48,35.48,0,0,1-2.76-13.21c0-5.06,1.73-10.24,2.57-15.37.87-5.37.41-10.23-2.18-14.39-2.43-3.89-6.26-6.76-10.05-9.32a72.61,72.61,0,0,0-27.51-11.6,42,42,0,0,0-16,0,39.08,39.08,0,0,0-15.2,7.08,91.35,91.35,0,0,0-12.54,11.62,147.68,147.68,0,0,0-11.64,14.17c-6.92,9.57-12.2,19.95-19.31,29.41a98.64,98.64,0,0,1-11.55,12.65c-4.3,4-8.72,8-12.73,12.27-7,7.57-12.95,17.57-12.2,26.88a15.18,15.18,0,0,0,1.73,6.09,2,2,0,0,0,2.91.81c1.08-.56,2-2.11,1.48-3.09-3.8-7,0-16.65,5.58-23.85,6.72-8.74,16-15.37,23.33-23.55,7.68-8.51,13-18.41,19.08-27.84A143.21,143.21,0,0,1,1188,596.7a50.14,50.14,0,0,1,12.65-9.24,31.47,31.47,0,0,1,14.46-2.88,49,49,0,0,1,14.18,2.72,75.84,75.84,0,0,1,13.07,5.75,57.47,57.47,0,0,1,11.13,7.74c3,2.83,5.32,6.35,5.41,10.94.11,5-1.74,10.16-2.55,15.2a35.58,35.58,0,0,0,.56,14c2.06,8.75,7,16,11.07,23.59s8,16.83,6.06,26.77a27.1,27.1,0,0,1-2.32,6.82c-1.38,2.81,2.72,4,4.09,1.2Z"></path><path class="cls-23" d="M1274.79,711.17l1.22-5.68c-13.39,9-27.64,16.4-42.51,20.84a143.49,143.49,0,0,1-30,5.26,166.85,166.85,0,0,1-28.47-.17A144.83,144.83,0,0,1,1123.34,717a92.11,92.11,0,0,1-12.75-7.67l-1.13,5.25c1.66,1.15,3.36,2.23,5.07,3.24,15.15,8.92,32.89,14.61,51.38,17.21a168.79,168.79,0,0,0,59.93-2.27C1242.84,728.94,1259.41,721.1,1274.79,711.17Z"></path><ellipse class="cls-23" cx="1182.69" cy="749.85" rx="9.22" ry="7.44" transform="translate(-198.23 982.45) rotate(-41.94)"></ellipse><path class="cls-12" d="M1186.35,917.07v111.82l23.54-45.4,8-41.68a39.07,39.07,0,0,1,40.05-31.71l5.79.25v88.27l-37.44,69.68a180.22,180.22,0,0,1-38.14,48.62l-60.81,54.79-20.38,18a46.8,46.8,0,0,0-14.6,24.4l-46,218.58H861.6l90.64-277.27a37.35,37.35,0,0,0,2.46-13l1.1-153.08A52.23,52.23,0,0,1,977.93,947l10.62-7.48a28,28,0,0,1,9.7-4.36l62.83-14.73,23.75-46.91a31.9,31.9,0,0,1,29-17.47l26.25.48,41.24-134.41a19.2,19.2,0,0,1,18.35-13.56h0A19.19,19.19,0,0,1,1218.6,731Z"></path><path class="cls-12" d="M1197.19,854.55l11.16,21.13a22.35,22.35,0,0,1,2.46,12.92l-4.66,41.95a17.93,17.93,0,0,1-17.82,16h-2V917.07Z"></path><path class="cls-4" d="M1188.33,949.5h-5l0-32.94,12.34-71.18,15.28,28.9a25.33,25.33,0,0,1,2.78,14.65l-4.66,42A20.91,20.91,0,0,1,1188.33,949.5Zm1-32.17v26.13a14.91,14.91,0,0,0,13.82-13.24l4.66-42a19.31,19.31,0,0,0-2.13-11.19l-7.06-13.36Z"></path><path class="cls-4" d="M1126.66,911.67a3.38,3.38,0,0,1-.76-.1,3,3,0,0,1-2.15-3.66l13.45-52.12a3,3,0,1,1,5.81,1.5l-13.45,52.12A3,3,0,0,1,1126.66,911.67Z"></path><path class="cls-5" d="M1257.79,910.1c-4,5.24-6,13.25-6.41,20.17-1.22,18.13-.29,36.52-4,54.31-8.63,41.64-41.14,74.16-75.69,98.95s-73,44.82-103,75c-6.53,6.57-12.72,13.76-16.15,22.36-6.57,16.49-2,35-.82,52.72,2.53,38.18-11.24,75.33-24.79,111.11-8.54,22.57-17.33,45.55-32.47,64.33-6.65,8.23-14.4,15.54-21.17,23.65h73l46-218.57h0a47,47,0,0,1,3.67-10.18c.54-1.07,1.12-2.13,1.73-3.16a46.81,46.81,0,0,1,9.2-11.06l20.38-18,60.81-54.79a180.16,180.16,0,0,0,38.14-48.62l37.44-69.68V910.35l-5.79-.25Z"></path><path class="cls-3" d="M861.6,1435.67a2.8,2.8,0,0,1-.94-.15,3,3,0,0,1-1.92-3.78l90.7-277.41a34,34,0,0,0,2.26-12l1.1-153.08a55.33,55.33,0,0,1,23.41-44.73l10.61-7.48a30.74,30.74,0,0,1,10.74-4.83L1059,917.83l23.12-45.65a35.11,35.11,0,0,1,31.76-19.12l24,.44,40.58-132.25a22.19,22.19,0,0,1,43.08,10.3l-32.21,185.78v99.26L1207,982.5l7.88-41.25A42.31,42.31,0,0,1,1258,907.1l8.67.37v91.91l-37.8,70.34a182.81,182.81,0,0,1-38.77,49.43l-60.81,54.79-20.4,18a43.51,43.51,0,0,0-13.67,22.84l-46,218.51a3,3,0,1,1-5.87-1.23l46-218.58a49.52,49.52,0,0,1,15.56-26l20.38-18,60.78-54.77a177,177,0,0,0,37.51-47.81l37.08-69V913.22l-2.92-.12a36.32,36.32,0,0,0-37,29.27l-8,42.11-29.4,56.71,0-124.63,32.26-186a16.2,16.2,0,0,0-31.44-7.52l-41.9,136.57-28.51-.52a29,29,0,0,0-26.29,15.83L1063.12,923l-64.19,15.05a24.68,24.68,0,0,0-8.65,3.89l-10.62,7.48a49.33,49.33,0,0,0-20.86,39.87l-1.1,153.08a40,40,0,0,1-2.63,14l-90.62,277.21A3,3,0,0,1,861.6,1435.67Z"></path><path class="cls-11" d="M1066.65,1307.73h-.8c-26.95-.17-58.11-9-87.72-24.73s-54.29-36.74-69.47-59c-15.82-23.23-19.59-45.32-10.59-62.21,8.67-16.27,27.18-25.45,53.84-25.88l-.31,10c-22.87.37-37.82,7.66-44.7,20.57-7.17,13.45-3.6,31.87,10,51.88,14.28,21,37.69,40.78,65.9,55.81s57.72,23.4,83.08,23.56h.75c23.82,0,40.81-7.31,47.9-20.62,9-16.94,3.81-38.55-18.94-63.43l3.9-10.81c25.73,28.15,35,58.1,23.87,79C1114.48,1298.54,1094.35,1307.73,1066.65,1307.73Z"></path><path class="cls-3" d="M2407.28,1435.67H3a3,3,0,0,1,0-6H2407.28a3,3,0,0,1,0,6Z"></path></g></g></svg>