<svg xmlns="http://www.w3.org/2000/svg" xmlns:xlink="http://www.w3.org/1999/xlink" viewBox="0 0 1382.28 1010.74"><defs><style>.cls-1{isolation:isolate;}.cls-2{fill:#feeaea;}.cls-3{fill:#fef4f4;}.cls-4{fill:#fecbc6;}.cls-5{fill:#fecbcb;}.cls-6{fill:#fec6c6;}.cls-7{fill:#fed2cb;}.cls-8{opacity:0.6;fill:url(#linear-gradient);}.cls-9{fill:#fa6e99;}.cls-10{fill:#ff7aa2;}.cls-11{fill:#001d8d;}.cls-12{fill:#05005c;}.cls-13{fill:#fa91b1;}.cls-14{fill:#ffdbe8;}.cls-15{fill:#ffebf2;}.cls-16{fill:#fa87b4;}.cls-17{fill:#fff0f5;}.cls-18{fill:#ffa8ca;}.cls-19,.cls-49,.cls-53{fill:#fff;}.cls-20{fill:#e6e6e6;}.cls-20,.cls-52{mix-blend-mode:multiply;}.cls-21{fill:#fe5722;}.cls-22{fill:#cf2027;}.cls-23{fill:#f2e0ff;}.cls-24{fill:#ce421d;}.cls-25{fill:#c2c2ff;}.cls-26{fill:#6a6ae6;}.cls-27{fill:none;}.cls-28{fill:#ff8faf;}.cls-29{fill:#ff6692;}.cls-30{fill:#ffb3cb;}.cls-31{fill:#ff94b8;}.cls-32{fill:#ff709f;}.cls-33{fill:#e6295e;}.cls-34{fill:#cf2d2c;}.cls-35{fill:#f04d7a;}.cls-36{fill:#440c01;}.cls-37{fill:#ffc1aa;}.cls-38{fill:#31322b;}.cls-39{fill:#8f6764;}.cls-40{fill:#7a3f39;}.cls-41{fill:#c42625;}.cls-42{fill:#b51211;}.cls-43{fill:#1f436e;}.cls-44{fill:#f7b8b2;}.cls-45{fill:#bf0b0b;}.cls-46{fill:#ec9792;}.cls-47{fill:#254f82;}.cls-48{fill:#d2e9f4;}.cls-49{opacity:0.9;}.cls-50{fill:#e88782;}.cls-51{fill:#e8403f;}.cls-52{fill:#ccc;}.cls-53{opacity:0.4;}.cls-54{fill:#ff4747;mix-blend-mode:soft-light;}.cls-55{fill:#ffe2d7;}.cls-56{fill:#de3433;}.cls-57{fill:#204069;}.cls-58{fill:#1b4470;}.cls-59{fill:#295e99;}.cls-60{fill:#0e3f75;}.cls-61{fill:#d42524;}.cls-62{fill:#ed5453;}.cls-63{fill:#f8f8e4;}.cls-64{fill:#ff99bc;}.cls-65{fill:#1a385c;}.cls-66{fill:#ff85a9;}</style><linearGradient id="linear-gradient" x1="956.49" y1="329.69" x2="1118.71" y2="329.69" gradientUnits="userSpaceOnUse"><stop offset="0" stop-color="#ff66a9"></stop><stop offset="1" stop-color="#ffb3b3"></stop></linearGradient></defs><g class="cls-1"><g id="Layer_2" data-name="Layer 2"><g id="Layer_1-2" data-name="Layer 1"><path class="cls-2" d="M433.1,82.33C308.66,197.21,331.32,338.76,183.76,401.08S-12.43,539.28,2.61,663.86C15.68,772.2,65.36,790,168.65,810.08s22.5,187.29,138.44,199.35S681.18,947.21,818.2,888.91,1018.78,970.21,1129,931c82.73-29.45,52.3-147.57,84.06-229.76,67.32-174.24,192.83-292.46,90.83-400-90.09-95-195.73-3-311.67-21.12S618.21-88.57,433.1,82.33Z"></path><path class="cls-3" d="M372.92,979a272.26,272.26,0,0,1-28.05-1.32C283.59,971.29,276,922.33,268.56,875c-7-44.84-13.6-87.2-62.28-96.68C150,767.34,114.62,757.67,88.65,737.92,60.52,716.54,45.12,683.4,38.74,630.46c-7.83-64.83,1.68-114.4,29.91-156,28.78-42.42,77.2-77,152.37-108.71C303.83,330.76,331.94,272,364.49,204c25.08-52.39,51-106.55,105.32-156.7,56.24-51.92,123.81-61,206.55-27.82C747.59,48.09,818.75,103.3,881.53,152c60.06,46.61,111.93,86.85,149,92.63,43.63,6.81,85.77-2.08,126.52-10.68,66.64-14.06,129.58-27.34,186.22,32.36,74,78,30,161.13-25.73,266.37-21.4,40.43-45.66,86.26-64.72,135.58-11,28.54-14.52,61.66-17.89,93.69-6.38,60.49-12.4,117.62-67.28,137.16-51.77,18.42-92.9-1.8-136.45-23.21C981.28,851.39,929.71,826,856.92,857,732.48,910,500.32,979,372.92,979ZM471.08,48.71l1.26,1.37c-53.78,49.66-79.56,103.49-104.48,155.56-31.51,65.83-61.28,128-145.39,163.54C77.65,430.35,27.17,503.48,42.44,630,55.1,734.88,100,753.79,207,774.63c51.25,10,58.38,55.62,65.26,99.77,7.5,48.07,14.59,93.47,73,99.55,117.58,12.23,376.31-63.41,510.2-120.38,74.36-31.65,126.71-5.91,177.34,19,42.82,21.06,83.26,40.94,133.55,23.05,52.66-18.75,58.56-74.75,64.81-134,3.4-32.27,6.92-65.65,18.13-94.65,19.13-49.52,43.45-95.45,64.9-136,55-103.91,98.46-186,26.32-262.05-55.2-58.19-117.16-45.12-182.74-31.27-41.08,8.66-83.55,17.63-127.87,10.71-38-5.92-90.19-46.45-150.66-93.37C753.24,57.2,596.42-64.48,472.34,50.08Z"></path><path class="cls-4" d="M367.69,648.79v168.7a13.15,13.15,0,0,1-13.15,13.15H207.09"></path><path class="cls-4" d="M207.09,830.64s-7.83-60.8-.74-70.5,15.67-6,24.62,3,31,5.22,31.71-19-16.79-33.58-26.86-26.86-24.62,16.79-28,3.36-8.39-69.76-.47-71.81,69.86,10.25,69.48-3.92-23.13-25.37-17.53-36.19,24.25-22,46.26-9.32-1.12,27.6,3,40.29,57.45,4.47,59.13,9.14"></path><path class="cls-5" d="M656,340.89H513.51a11.1,11.1,0,0,1-11.11-11.11V205.24"></path><path class="cls-5" d="M502.4,205.24s51.36-6.62,59.55-.63,5,13.23-2.52,20.79S555,251.56,575.5,252.19,603.86,238,598.19,229.5s-14.18-20.8-2.84-23.63,58.93-7.09,60.66-.4-8.66,59,3.31,58.69,21.43-19.53,30.57-14.81,18.59,20.48,7.87,39.08-23.31-.95-34,2.52S660,339.47,656,340.89"></path><path class="cls-6" d="M858.81,253.8V379.25A9.78,9.78,0,0,1,849,389H739.4"></path><path class="cls-6" d="M739.4,389s-5.83-45.22-.56-52.43,11.65-4.44,18.31,2.22,23,3.88,23.58-14.15-12.49-25-20-20-18.3,12.48-20.8,2.5-6.24-51.87-.35-53.4,51.94,7.63,51.67-2.91-17.2-18.86-13-26.91,18-16.36,34.4-6.93-.84,20.52,2.21,30,42.72,3.32,44,6.79"></path><path class="cls-7" d="M1196.15,648.89H947a19.42,19.42,0,0,0-19.42,19.42V886"></path><path class="cls-7" d="M927.6,886s89.79,11.57,104.11,1.1,8.82-23.13-4.4-36.35-7.72-45.73,28.09-46.83,49.58,24.79,39.66,39.66-24.79,36.36-5,41.32,103,12.39,106,.69S1181,782.48,1201.93,783s37.46,34.15,53.44,25.89,32.5-35.81,13.77-68.31-40.77,1.65-59.49-4.41-6.62-84.83-13.5-87.31"></path><path class="cls-6" d="M455.29,466.35a7.06,7.06,0,0,1-8.67,5.69c-20.5-5.33-82.38.62-99.1,4.8-19.77,4.94-4.94,26.34,4.94,41.17s-3.86,40.64-39.53,39.52-41.17-33.46-28-46.64,18.64-25.82,4.38-36.23c-11.27-8.25-69.54-2.78-93.47-.12a9.26,9.26,0,0,1-10.28-9.23V266.76a26.5,26.5,0,0,1,26.5-26.5H449.68a6,6,0,0,1,1.58.56c7.12,4.94,4.38,85.07-7.14,93.87s-37.32-32.94-68.61,4.94,16.47,68,36.76,56,33.49-23.62,42.81-9.36C463,398.28,459.15,444,455.29,466.35Z"></path><path class="cls-7" d="M898.22,578.08a9.31,9.31,0,0,1-7.51-11.45c7-27.06-.82-108.78-6.34-130.86-6.52-26.1-34.79-6.52-54.36,6.52s-53.67-5.09-52.19-52.19,44.19-54.36,61.58-37,34.1,24.61,47.84,5.78c10.9-14.88,3.67-91.82.16-123.42a12.24,12.24,0,0,1,12.19-13.57h262.17a35,35,0,0,1,35,35V570.67a8,8,0,0,1-.74,2.09c-6.53,9.4-112.34,5.79-124-9.44s43.49-49.27-6.52-90.58-89.85,21.74-73.93,48.53,31.18,44.23,12.35,56.54C988.1,588.19,927.71,583.18,898.22,578.08Z"></path><path class="cls-8" d="M1118.71,329.69c0,1.12,0,2.25-.07,3.35a80.3,80.3,0,0,1-8.78,33.52,81.12,81.12,0,0,1-153.37-36.87A80.57,80.57,0,0,1,968.63,287a79.71,79.71,0,0,1,10.12-13.13,81.1,81.1,0,0,1,140,55.81Z"></path><path class="cls-9" d="M1004.53,321.1c-3.44,6.85-5.43,5.35-5.06,3.11.68-4.06-3.61,2-6,2.12-2.69.14,2.87-6-.75-8.4-2.65-1.78-8.4,1.85-8.79,10.07s6.18,15.52,1.69,21.5-6.17-3.17-7.67-4.85,0,6-2.42,4.48-7.1-8.78-7.1-25,3.18-22.24,2.61-26c-.37-2.45-.83-7.05-2.43-11.1a79.71,79.71,0,0,1,10.12-13.13c1,2,2.15,3.77,4.45,4,4.68.56,22.63-10.47,24.32-7.29s-4.13,9.35-8.42,12.71-4.68,11.22-2.25,12.91,7.85-11.41,13.66-6.55-4.68,11-5.06,16.82S1008.06,314.05,1004.53,321.1Z"></path><path class="cls-10" d="M1118.71,329.69c0,1.12,0,2.25-.07,3.35-2.74,4.26-7.69,6.3-8.35,4.32-.92-2.81-2.6-3-5.78-.19s-5,1.87-5.24-5.43-4.85-.93-4.85,4.68,5,9.53-.38,17.94-10.46,9-15.5,21.31-9.72,11.59-13.28,7.1,2.42-7.67,1.31-13.45,11-6.73,9.33-13.83-5.59,2.61-12.51,1.12-6.92-13.09-1.3-19.25,13.46-1.69,19.8-4.87-.75-10.47,5-14.2.75-9-2.81-3.92-4.67,3-9.53,1.49-4.68,3.56-12.9,10.84-10.27-8.59,2.06-14.75,12.71-11,10.65-16.09-10.83,7.11-13.46.39-.55-12.71,6.55-10.29,6.73.75,6.73-10.47c0-9.06,8.18-9.58,16.63-7A80.93,80.93,0,0,1,1118.71,329.69Z"></path><path class="cls-9" d="M1109.86,366.56a81.41,81.41,0,0,1-45.06,39.58c3.75-4.14,4.81-8.83,9.61-11.6,6.17-3.54,11.6-3.54,15.34-13.82s8.78-7.86,12.32-15.89C1105.43,357.25,1112.13,344.47,1109.86,366.56Z"></path><path class="cls-10" d="M1020.22,264.28c-8.89,4.44,5.23,4.49,6.35,10.47s-9,20.55-1.31,23.92c0,0,6.54,2.8,11.78-5.8s7.85-2.61,11.21-7.84,1.31-5.24,1.31-12-3-8-6.17-7.47-4.67-1.5-8.41-2.81S1022.46,263.16,1020.22,264.28Z"></path><path class="cls-11" d="M1009.19,330.25c-9.15.61-5.61,7.11-9.72,15.52s-7.1,9.72-2.05,15.51,11.58-6,14.2,8.22,1.87,12.52,6.17,19.07,11.77,10.65,11.77,4.67-3.36-6,3.37-14.77,6.91-9.72,3.55-11.21-2.25-2.24-.94-6,.56-6-3.36-8.22-7.85-.94-9.53-7.67.56-9.16-3.37-10.46S1012,330.07,1009.19,330.25Z"></path><path class="cls-9" d="M1052.18,336.42c-6,1.64-2.25,5.36-4,7.1s-4.24,3.87-2.74,8.1,6.6,3.62,7,.38-.13-13.83,2.74-15.33,2.36-4.36,0-2.74S1053.55,336.05,1052.18,336.42Z"></path><path class="cls-12" d="M351.52,331.16H244.89l2.1-2a3.72,3.72,0,0,1,1.37-.27h99.76a3.35,3.35,0,0,1,1.28.24Z"></path><path class="cls-9" d="M352,332.87v64.2a3.88,3.88,0,0,1-2.2,3.5,3.69,3.69,0,0,1-1.71.41H248.36a3.65,3.65,0,0,1-1.76-.44,3.87,3.87,0,0,1-2.14-3.47v-64.2a3.7,3.7,0,0,1,.28-1.47.69.69,0,0,1,.12-.22H351.62a.69.69,0,0,1,.12.22A3.71,3.71,0,0,1,352,332.87Z"></path><path class="cls-13" d="M351.52,331.16H244.89l2.1-2,48.21-45a4.38,4.38,0,0,1,6,0l48.19,45Z"></path><path class="cls-13" d="M349.83,400.57a3.69,3.69,0,0,1-1.71.41H248.36a3.65,3.65,0,0,1-1.76-.44l.39-.36,48.21-45a4.38,4.38,0,0,1,6,0l48.19,45Z"></path><path class="cls-14" d="M351.67,331.18l-.22.22-50.19,46.75a4.44,4.44,0,0,1-6,0L245,331.4l-.22-.22Z"></path><path class="cls-15" d="M1122.23,757.8a41,41,0,1,1,41-41A41.09,41.09,0,0,1,1122.23,757.8Zm0-80.4a39.35,39.35,0,1,0,39.35,39.35A39.4,39.4,0,0,0,1122.23,677.4Z"></path><path class="cls-15" d="M1122.27,758c-9.19,0-16.39-17.88-16.39-40.71s7.2-40.71,16.39-40.71,16.39,17.88,16.39,40.71S1131.46,758,1122.27,758Zm0-79.71c-8,0-14.68,17.86-14.68,39s6.72,39,14.68,39,14.68-17.86,14.68-39S1130.23,678.27,1122.27,678.27Z"></path><rect class="cls-15" x="1083.24" y="703.9" width="77.29" height="1.72"></rect><rect class="cls-15" x="1083.24" y="727.89" width="77.29" height="1.72"></rect><rect class="cls-16" x="1018.91" y="716.75" width="100.5" height="68.23" rx="5.8"></rect><rect class="cls-17" x="1024.67" y="722.13" width="89.82" height="59.24"></rect><path class="cls-18" d="M1128.25,788.16H1010.06a7.64,7.64,0,0,1-7.64-7.64h133.47A7.64,7.64,0,0,1,1128.25,788.16Z"></path><path class="cls-18" d="M1067.45,737.34l34.25-5.91a.66.66,0,0,1,.73.88l-10.64,29.16a.65.65,0,0,1-1.08.25l-23.61-23.26A.66.66,0,0,1,1067.45,737.34Z"></path><path class="cls-18" d="M1058.85,771.06,1033,766.2a.65.65,0,0,1-.19-1.2l47-25.45a.65.65,0,0,1,.86.24l7.07,12a.65.65,0,0,1-.21.87L1059.32,771A.66.66,0,0,1,1058.85,771.06Z"></path><path class="cls-19" d="M308.28,726.63a9.36,9.36,0,1,0-4.23,12.56A9.36,9.36,0,0,0,308.28,726.63Z"></path><path class="cls-19" d="M277.32,731a3,3,0,0,1-.65-.08,2.69,2.69,0,0,1-1.95-3.25,27.49,27.49,0,0,1,37.86-18.45,2.67,2.67,0,0,1-2.17,4.89,22.13,22.13,0,0,0-30.49,14.86A2.7,2.7,0,0,1,277.32,731Z"></path><path class="cls-19" d="M262.33,720.79a2.68,2.68,0,0,1-2.46-3.73,45.69,45.69,0,0,1,53.26-26.16,2.67,2.67,0,1,1-1.33,5.18,40.33,40.33,0,0,0-47,23.09A2.68,2.68,0,0,1,262.33,720.79Z"></path><path class="cls-19" d="M247.53,710.73a2.6,2.6,0,0,1-1.21-.29,2.67,2.67,0,0,1-1.17-3.6,63.9,63.9,0,0,1,28.63-28.25,63.92,63.92,0,0,1,40.14-5.6,2.68,2.68,0,1,1-1,5.26A58.83,58.83,0,0,0,257.42,698a59.15,59.15,0,0,0-7.51,11.25A2.66,2.66,0,0,1,247.53,710.73Z"></path><path class="cls-20" d="M917.56,802.43c50.57,12.24,127.76,12.24,133.09-1.06s-10.12-167.16-16-174.08S917.56,802.43,917.56,802.43Z"></path><path class="cls-20" d="M877,318.26c37.13-13.18,163.3-23.16,173.68-4S1039.47,480.76,1032.28,484,877,318.26,877,318.26Z"></path><path class="cls-20" d="M457.74,315.46C431,301.09,334,299.49,318.4,313.87s4,247.14,10,258.72S457.74,315.46,457.74,315.46Z"></path><path class="cls-20" d="M379.89,797.11c-17,11.18-39.4,29.81-59.09,13.84s.53-183.66,13.84-183.13S379.89,797.11,379.89,797.11Z"></path><path class="cls-20" d="M493.81,314.27c24-3.46,158.64-9.59,158.91-8.79S666,320.39,666.29,322,493.81,314.27,493.81,314.27Z"></path><path class="cls-20" d="M860.6,314.53c-7.72-5.85-73.47-8.25-78.52-7.18s-2.93,12-2.13,12.77S860.6,314.53,860.6,314.53Z"></path><rect class="cls-21" x="325.86" y="312.96" width="713.06" height="492.43" rx="15.85"></rect><rect class="cls-19" x="387.01" y="366.12" width="601.15" height="374.12"></rect><rect class="cls-22" x="387.01" y="365.45" width="601.15" height="62.35"></rect><rect class="cls-23" x="682.79" y="655.23" width="244.62" height="81.54" rx="7.7"></rect><polygon class="cls-22" points="760.6 898.49 584.19 898.49 631.05 794.6 673.85 794.98 713.74 795.35 760.6 898.49"></polygon><path class="cls-20" d="M665.89,898.49h-81.7L631.05,794.6l42.8.38c19.09,4.59,36.39,9.21,36.39,9.21-45.57,6.92-61.83-1.07-76.49,11.46s-32.5,50.36-31.18,60.21c1.51,11,48,24,66.63,21.59C673.5,896.89,671.58,897.45,665.89,898.49Z"></path><path class="cls-24" d="M325.46,714.66h713.6a0,0,0,0,1,0,0v73.83a18.11,18.11,0,0,1-18.11,18.11H343.56a18.11,18.11,0,0,1-18.11-18.11V714.66A0,0,0,0,1,325.46,714.66Z"></path><circle class="cls-25" cx="896.61" cy="397.69" r="8.79" transform="translate(-83.65 363.5) rotate(-21.92)"></circle><circle class="cls-26" cx="947.77" cy="397.69" r="8.79" transform="translate(513.62 1329.33) rotate(-87.78)"></circle><circle class="cls-26" cx="922.19" cy="398.09" r="8.79"></circle><rect class="cls-23" x="430.18" y="464.98" width="130.57" height="103.92" rx="7.7"></rect><rect class="cls-27" x="587.37" y="464.44" width="332.02" height="103.92"></rect><path class="cls-2" d="M916.74,484.7H593.23a10.13,10.13,0,0,1-10.12-10.13h0a10.13,10.13,0,0,1,10.12-10.13H916.74a10.13,10.13,0,0,1,10.13,10.13h0A10.13,10.13,0,0,1,916.74,484.7Z"></path><path class="cls-2" d="M916.74,543.53H593.23a10.12,10.12,0,0,1-10.12-10.12h0a10.12,10.12,0,0,1,10.12-10.13H916.74a10.12,10.12,0,0,1,10.13,10.13h0A10.12,10.12,0,0,1,916.74,543.53Z"></path><path class="cls-2" d="M916.74,514.11H593.23A10.12,10.12,0,0,1,583.11,504h0a10.13,10.13,0,0,1,10.12-10.13H916.74A10.13,10.13,0,0,1,926.87,504h0A10.12,10.12,0,0,1,916.74,514.11Z"></path><path class="cls-2" d="M916.74,573H593.23a10.12,10.12,0,0,1-10.12-10.13h0a10.12,10.12,0,0,1,10.12-10.12H916.74a10.12,10.12,0,0,1,10.13,10.12h0A10.12,10.12,0,0,1,916.74,573Z"></path><rect class="cls-2" x="430.16" y="582.12" width="496.71" height="20.25" rx="10.13"></rect><path class="cls-2" d="M916.74,631.79H440.28a10.13,10.13,0,0,1-10.12-10.13h0a10.13,10.13,0,0,1,10.12-10.13H916.74a10.13,10.13,0,0,1,10.13,10.13h0A10.13,10.13,0,0,1,916.74,631.79Z"></path><path class="cls-2" d="M652.61,693.07H508.32a5.8,5.8,0,0,1-5.8-5.79h0a5.8,5.8,0,0,1,5.8-5.8H652.61a5.8,5.8,0,0,1,5.79,5.8h0A5.79,5.79,0,0,1,652.61,693.07Z"></path><path class="cls-2" d="M652.61,709.86H508.32a5.8,5.8,0,0,1-5.8-5.8h0a5.8,5.8,0,0,1,5.8-5.79H652.61a5.79,5.79,0,0,1,5.79,5.79h0A5.8,5.8,0,0,1,652.61,709.86Z"></path><path class="cls-22" d="M838.4,898.79V919a8.55,8.55,0,0,1-8.54,8.56H514.93a2,2,0,0,1-.34,0,8.54,8.54,0,0,1-8.2-8.54V898.79a8.54,8.54,0,0,1,8.54-8.55H829.86A8.54,8.54,0,0,1,838.4,898.79Z"></path><path class="cls-20" d="M514.59,927.55a8.54,8.54,0,0,1-8.2-8.54V898.79a8.54,8.54,0,0,1,8.54-8.55h5.37C511.49,898.42,503.8,916.26,514.59,927.55Z"></path><rect class="cls-28" x="425.64" y="902.3" width="180.51" height="51.48" rx="3.34"></rect><rect class="cls-29" x="456.27" y="856.03" width="180.51" height="46.27" rx="3.5"></rect><rect class="cls-30" x="560.54" y="727" width="169.27" height="43.01" rx="3.5"></rect><rect class="cls-31" x="582.37" y="727" width="10.59" height="43.01"></rect><rect class="cls-31" x="598.06" y="727" width="10.59" height="43.01"></rect><rect class="cls-31" x="613.75" y="727" width="10.59" height="43.01"></rect><rect class="cls-32" x="687.61" y="770.01" width="10.75" height="43.01" rx="4.97"></rect><path class="cls-19" d="M521,808.46H689a3.9,3.9,0,0,0,3.88-3.91V778.48a3.9,3.9,0,0,0-3.88-3.91H521l3.45,7a22.48,22.48,0,0,1,0,19.85Z"></path><path class="cls-33" d="M665.86,856h0a5,5,0,0,1-5-5V818a5,5,0,0,1,5-5h0a5,5,0,0,1,5,5v33.07A5,5,0,0,1,665.86,856Z"></path><path class="cls-19" d="M493.62,852.28h168a4,4,0,0,0,3.88-4.1V820.87a4,4,0,0,0-3.88-4.1h-168l3.45,7.35a24.59,24.59,0,0,1,0,20.81Z"></path><path class="cls-33" d="M667,816.77H491.22a1.88,1.88,0,0,1-1.88-1.88h0a1.88,1.88,0,0,1,1.88-1.87H667a1.88,1.88,0,0,1,1.88,1.87h0A1.88,1.88,0,0,1,667,816.77Z"></path><rect class="cls-32" x="517.14" y="770.01" width="177.48" height="4.56" rx="1.87"></rect><rect class="cls-32" x="517.14" y="808.46" width="178.29" height="4.56" rx="1.87"></rect><path class="cls-34" d="M648.05,827.56l-12-10.65-12,10.65a.52.52,0,0,1-.87-.39V778h25.78v49.22A.52.52,0,0,1,648.05,827.56Z"></path><path class="cls-33" d="M667,856H491.22a1.88,1.88,0,0,1-1.88-1.87h0a1.88,1.88,0,0,1,1.88-1.88H667a1.88,1.88,0,0,1,1.88,1.88h0A1.88,1.88,0,0,1,667,856Z"></path><rect class="cls-35" x="480.38" y="856.03" width="32.91" height="46.27"></rect><rect class="cls-10" x="442.71" y="902.54" width="8.47" height="51.24"></rect><rect class="cls-10" x="564.28" y="902.3" width="13.2" height="51.48"></rect><path class="cls-36" d="M645.63,521.16c-.16,1.43-.3,2.4-.3,2.4-4.62-2.16-10.92-6.38-11.44-9.36a37.9,37.9,0,0,1,.27-9.84,14.2,14.2,0,0,1,1.81-5.71c1.95-2.68,7.8,6.36,9.77,9.93.3.57.51,1,.6,1.22C646.77,511,646.06,517.53,645.63,521.16Z"></path><path d="M645.63,521.16c-.16,1.43-.3,2.4-.3,2.4-4.62-2.16-10.92-6.38-11.44-9.36a37.9,37.9,0,0,1,.27-9.84c.3,1.95,1,4.7,3.17,6.17,3.38,2.32,7.27,5,7.44,8.68A18.59,18.59,0,0,1,645.63,521.16Z"></path><path class="cls-37" d="M654.88,531.71c-.51,1-14.55,1.35-12.09-1,1.81-1.73,1.92-7.25,1.76-10.79-.08-1.25-.19-2.25-.27-2.74l.27.17c1.49.89,8.74,5.22,8.93,5.68a12.11,12.11,0,0,1,.35,1.3c.19.78.43,1.86.62,2.94C654.86,529.22,655.13,531.22,654.88,531.71Z"></path><path class="cls-20" d="M653.83,524.3c.19.78.43,1.86.62,2.94-2.62-2.43-7.25-2.81-8.11-3.57s-1.14-2.27-1.79-3.78c-.08-1.25-.19-2.25-.27-2.74l.27.17c-.14-.3-.27-.63-.41-.92a9.06,9.06,0,0,1,6.66.89c1.35.78,2.89,4,4,7C654.48,524.27,654.15,524.3,653.83,524.3Z"></path><path class="cls-37" d="M656.1,524a5.17,5.17,0,0,1-1.32.24c-.3,0-.63.06-.95.06-3-.06-6.47-1.36-7.09-2.49-.35-.65-1.27-2.38-2.19-4.49-.14-.3-.27-.63-.41-.92a30.33,30.33,0,0,1-2.24-7.12c-.35-2.81,7.65-4.46,12.66-5.25h0c2.19-.32,3.81-.48,3.81-.48a17.76,17.76,0,0,1,.35,2.16v0C659.51,512,658.7,523.16,656.1,524Z"></path><path class="cls-37" d="M643.17,512.68c-.93-.85-3.68-2.71-4.1.8s4.9,4.82,5.83,3.72S643.17,512.68,643.17,512.68Z"></path><path class="cls-37" d="M687.08,573.75c-1-.81-9.39-7.58-13.88-11.47-1.14-1-2-1.79-2.49-2.25a2.85,2.85,0,0,1-.3-.35c-.65-1.16,7.9-10.25,7.9-10.25,2,1.73,15.34,15.42,16.56,17.8S688.35,574.8,687.08,573.75Z"></path><path class="cls-37" d="M658.81,703.17c-.14,2.76-2.22,12.33-2.38,13s-8.28.19-8.39-.22c0-.24,0-4.38.19-7.74a25.57,25.57,0,0,1,.43-4.33c.19-.37,2.19-.56,4.36-.64C655.78,703.09,658.81,703.17,658.81,703.17Z"></path><path class="cls-37" d="M605.43,701.44a19.62,19.62,0,0,1-1.46,2.4c-2.41,3.63-7,10.07-7.63,10.26-.89.3-4.19-9.5-2.78-10.34a15.59,15.59,0,0,0,3.43-4.43s0,0,0,0a13.77,13.77,0,0,0,1.73-4.63l2.33,2.16C603,698.7,605.43,701.06,605.43,701.44Z"></path><path class="cls-38" d="M599.61,735.73c-.74.13-2.72-1.54-4.89-4.12v0a31,31,0,0,1-6.26-11.69c-2-8.11-5.59-11.81-5.11-13.73,0,0,0,0,0-.06.61-1.89,9.94-3.13,10.35-2.81a8.6,8.6,0,0,0,.9,3.76c1,2.11,2.49,2.69,3.77,4s.32,5.66.12,10.29a8.24,8.24,0,0,0,0,.86c-.06,2.78.77,6.58,1.25,9.46C600.15,733.87,600.31,735.6,599.61,735.73Z"></path><path class="cls-38" d="M675,722.5a.33.33,0,0,1,.13.07c2.65.8,4.72,1.5,4.5,2.27s-2.62,1.78-6,2.52a31.55,31.55,0,0,1-13.19.22c-8.15-1.88-13.1-.35-14.57-1.63a.7.7,0,0,1-.22-.32c-.93-2,1.91-10.06,2.36-10.25a8.18,8.18,0,0,0,3.77.9c2.33.06,3.51-1,5.24-1.57s5.62,2.62,10,5a11,11,0,0,0,1.66.77Z"></path><path class="cls-20" d="M604,703.84c-3.73-.16-3.46-3.59-7-4.51a13.77,13.77,0,0,0,1.73-4.63l2.33,2.16A58.79,58.79,0,0,1,604,703.84Z"></path><path class="cls-20" d="M658.45,705.09c.57,3.27-8.33.78-10.14,3a.26.26,0,0,1-.08.11,25.57,25.57,0,0,1,.43-4.33c.19-.37,2.19-.56,4.36-.64A55.73,55.73,0,0,1,658.45,705.09Z"></path><path class="cls-39" d="M669,649.41c0,5.17-9.71,54.54-10.39,56.14-.46,1-4.24.59-7.08.05a24.35,24.35,0,0,1-3.06-.73c-1.11-.46.24-8.57-.89-25.48s3.38-26.16,2.92-32.46S646,621.69,646,621.69s-.08.21-.27.64c-1.38,3.39-7.9,19.43-10.12,25.27-2.46,6.55-30,56.89-31.09,56.89s-5.62-5.73-6.41-8.11,13.61-44.26,19-54.86a45.71,45.71,0,0,0,3.3-9.26c1.68-6.6,2.76-14.44,4.09-22.61.78-4.74,1.65-9.58,2.76-14.34,0,0,30.43-3.63,33.14-.92.51.51,1.13,2.57,1.78,5.63.08.37.16.75.27,1.16C665.3,615.06,669,645.3,669,649.41Z"></path><path class="cls-40" d="M651.12,705.2a2.6,2.6,0,0,1,.36.4,24.35,24.35,0,0,1-3.06-.73c-1.11-.46.24-8.57-.89-25.48s3.38-26.16,2.92-32.46S646,621.69,646,621.69s-.08.21-.27.64a1.53,1.53,0,0,0,0-.21c.14-1.22,1.49-4.28,2.49-3.71s9.47,26.13,9.25,31.9S646.85,701.14,651.12,705.2Z"></path><path class="cls-20" d="M678.18,553.76c.1,3.19-4.41,6.19-5,8.52-1.14-1-2-1.79-2.49-2.25C672.25,556.62,678.18,553.76,678.18,553.76Z"></path><path class="cls-41" d="M681.34,551.92c-.24.75-5.14,5.57-7.92,8a7.53,7.53,0,0,1-1.87,1.33,23.42,23.42,0,0,1-5.09-3.36c-4.3-3.41-9.66-8.76-9.14-13.2A108.69,108.69,0,0,1,659.94,531C669.38,532.63,681.67,550.89,681.34,551.92Z"></path><path class="cls-42" d="M673.42,559.87a7.53,7.53,0,0,1-1.87,1.33,23.42,23.42,0,0,1-5.09-3.36c-2.41-9.71-2.81-24.64-2.81-24.64C671,541.59,666.89,559.26,673.42,559.87Z"></path><path class="cls-34" d="M661.38,596.88c-1.52,1.68-33.82,3.22-35,1.51-.62-.86,0-4.87.86-9.44.46-2.6,1-5.41,1.41-7.9.24-1.46.43-2.84.54-4a2.68,2.68,0,0,0,0-.46c.28-3.38-1-13.18-1.62-22.64-.57-9.07-.43-17.83,2.46-20.32,5.93-5.06,27.73-5.22,33.66-1.16,0,0,1.51,1.86,3.89,13S662.92,595.2,661.38,596.88Z"></path><rect class="cls-43" x="651.08" y="572.2" width="46.04" height="13.61" transform="translate(1547.98 740.16) rotate(149.79)"></rect><rect class="cls-44" x="652.89" y="578.26" width="15.33" height="17.28" rx="1.71" transform="translate(1526.71 761.7) rotate(149.79)"></rect><rect class="cls-44" x="588.8" y="611.31" width="15.35" height="26.53" rx="6.73" transform="translate(1426.21 864.21) rotate(149.79)"></rect><path class="cls-40" d="M663.19,599.91a6.94,6.94,0,0,1-.76,1.27c-4.44,6.06-22.18,18.5-31.92,23.32a29.69,29.69,0,0,0-10.12,7.76c1.68-6.6,2.76-14.44,4.09-22.61,12.47-6.09,32.89-9,37.68-9.63C662.84,600,663.19,599.91,663.19,599.91Z"></path><path class="cls-45" d="M635.27,588.17a35.76,35.76,0,0,0-8,.78c.46-2.6,1-5.41,1.41-7.9,4.57-1.16,10.79-1.3,11.77.19C641.68,583.19,635.27,588.17,635.27,588.17Z"></path><path class="cls-46" d="M667.6,598.5l-64.06,37.31a2,2,0,0,1-2.68-.71L589.5,615.54a1.92,1.92,0,0,1,.7-2.65l42-24.43,16.1-9.38,6-3.49a2,2,0,0,1,2.68.7l4.06,7,2.41,4.17,4.89,8.41A2,2,0,0,1,667.6,598.5Z"></path><circle class="cls-47" cx="747.6" cy="536.95" r="72.28"></circle><circle class="cls-48" cx="747.6" cy="536.95" r="62.28"></circle><path class="cls-49" d="M790.58,569.22c-14,19-49.38,29.69-58.74,22.23-5.17-4.12,9.54-6,20.18-8.27s26.5-8.4,30.94-11.26S792.7,566.33,790.58,569.22Z"></path><path class="cls-49" d="M788.44,515.11c10.91,11.75,16.48,22.86,13.3,23.63C790.57,541.42,785.42,511.86,788.44,515.11Z"></path><path class="cls-49" d="M781.68,496.59c8.73,6.53,23.77,16.76,18.8,25.68C798.83,525.23,779.41,494.89,781.68,496.59Z"></path><path class="cls-50" d="M670.36,587.57c-1.19,1-3.84.54-7-.16s-7-1.73-10.23-1.52c-5.44.36-15.26,1.25-21,2.57l16.1-9.38c.67,0,1.27.13,1.81.21,2.35.41,6.79,2.17,10.93,4C665.89,585.38,670.36,587.57,670.36,587.57Z"></path><path class="cls-45" d="M632.4,567.72c-1.7,2.78-2.46,7.22-3.19,9.33a2.68,2.68,0,0,0,0-.46c.28-3.38-1-13.18-1.62-22.64,5.17-8.2,12.61-18.54,12.61-18.54C644.31,543.8,634.68,563.9,632.4,567.72Z"></path><path class="cls-37" d="M681.86,583.35c0,.89-2.39,4.63-6.2,4.84s-9.31.46-13.58-2.24-10.71-1.46-19.4-.92-27.51-1.22-29.3-3.25c-1.46-1.62-1-8.71,3.14-19.58.84-2.22,1.84-4.58,3-7.12.22-.49.46-1,.71-1.49,0,0,14.52-.56,14.52,1.57,0,.6-.94,2.22-2.3,4.25-.1.16-.21.3-.29.46-3.63,5.27-9.69,12.88-9.69,12.88s4.28-1,13,.46,23.56,5.62,33.6,5.87C671.76,579.13,681.86,582.46,681.86,583.35Z"></path><path class="cls-37" d="M661.64,578.73c1.21-1,6.89-.82,7.61-1.28s2.33-2.16,3-2-.42,4-3,4.3S661.64,578.73,661.64,578.73Z"></path><path class="cls-20" d="M658.75,505.71v0a6,6,0,0,1-1.49,1.81c-1.89,1.51-7.49.57-11.14.51,0,0,4.62-2.3,8.44-4h0c2.19-.32,3.81-.48,3.81-.48A17.76,17.76,0,0,1,658.75,505.71Z"></path><path class="cls-36" d="M659.65,503c-2.22,4.79-8.72,4.25-12.34,5.06a5.81,5.81,0,0,0-1.57.57,6.92,6.92,0,0,0-3.19,3.62S635.22,500,636,498.65a3.64,3.64,0,0,1,1.92-1.27,33.72,33.72,0,0,1,8.88-1.79c5.11-.46,11.25-5.27,12.55-5.14a.44.44,0,0,1,.27.14C660.78,491.59,661.73,498.51,659.65,503Z"></path><path class="cls-20" d="M632.75,559.52a4.36,4.36,0,0,1-.56.35c-2.09,1-7,.91-11,.15-2.11-.41-3.73,1.28-4.71,2.18.84-2.22,1.84-4.58,3-7.12,3.84.57,11.42,3.71,12.93,4.33Z"></path><path class="cls-51" d="M630.53,533.39c-4.22,2-14.4,23.9-12.88,24.49s14.15,2.53,15,2,8.7-15.53,8.45-21.87S634,531.78,630.53,533.39Z"></path><path class="cls-52" d="M673.6,727.35a31.59,31.59,0,0,1-13.17.25c-8.14-1.9-13.09-.38-14.58-1.65a1,1,0,0,1-.22-.3c4.49.84,7.68-2.54,14.31-1.38C664.65,725.11,670.49,726.06,673.6,727.35Z"></path><path class="cls-52" d="M594.72,731.57a30.82,30.82,0,0,1-6.25-11.68c-2-8.12-5.6-11.83-5.11-13.75,0,0,0,0,0,0,2.74,2.76,7,6.84,8.61,13.36C593.37,725,594.18,728.92,594.72,731.57Z"></path><path class="cls-53" d="M675,722.5s.09,0,.16.07c1.59.76,2.49,1.47,1.08,1.63-3.29.41-6.86-1.89-7.57-3.74h0Z"></path><path class="cls-53" d="M599.74,731.61a.94.94,0,0,1-1.12.48c-3.1-.74-1.79-7.57-.1-10.8a8.24,8.24,0,0,0,0,.86C598.43,724.93,599.26,728.73,599.74,731.61Z"></path><path class="cls-54" d="M659.59,490.59a8.22,8.22,0,0,1-5.92,6.76c-4.14,1.3-11.55.24-15.78,0a33.72,33.72,0,0,1,8.88-1.79c5.11-.46,11.25-5.27,12.55-5.14A.44.44,0,0,1,659.59,490.59Z"></path><path class="cls-36" d="M387.73,743c-.5.86-.89,1.41-.89,1.41-7.76.73-16.37-4.78-14.7-11.17.69-2.7,2-3.92,3.33-4.45a4.56,4.56,0,0,1,1.7-.39,5.22,5.22,0,0,1,1.83.23s6.84,2.61,9.62,5.36a3.82,3.82,0,0,1,1.08,1.5C390.48,737.72,388.84,741.11,387.73,743Z"></path><path d="M387.73,743c-.5.86-.89,1.41-.89,1.41-7.76.73-16.37-4.78-14.7-11.17.69-2.7,2-3.92,3.33-4.45-.67,1.56-2.46,5.64.93,8.35,4.52,3.59,7.72,2.49,8.75,1.15A29.81,29.81,0,0,1,387.73,743Z"></path><path class="cls-55" d="M394,758.17c-.41.73-9.67-.94-10-2.14-.25-.91.92-9.64,2.19-13.64.37-1.14.73-1.92,1.09-2a1.08,1.08,0,0,1,.5,0c1.86.64,5.64,6,5.64,6a8.69,8.69,0,0,0-.22,1.89,28.92,28.92,0,0,0,.25,4C393.7,755.12,394.18,757.78,394,758.17Z"></path><path class="cls-20" d="M393.15,748.33a28.92,28.92,0,0,0,.25,4,14.58,14.58,0,0,0-3-3.78c-2.14-1.95-2.52-5.09-2.77-5.65-.2-.41-.87-.13-1.51-.52a1.57,1.57,0,0,1-.63-.7s-.73-1.61.44-2.5c.5-.39,1-.25,1.64.28.86.64,2,1.92,3.92,3.36,3.31,2.56,3.2,2.22,4.7,6.5a.36.36,0,0,1,0,.14A7.2,7.2,0,0,1,393.15,748.33Z"></path><path class="cls-55" d="M398.74,748.83a3.24,3.24,0,0,1-2.51.64,7.2,7.2,0,0,1-3.08-1.14,12.14,12.14,0,0,1-5.39-7.69.61.61,0,0,1,0-.23c-.06-.3-.11-.64-.14-.94-.7-5.73,1.39-11.51,2-11.81s9.56-3.4,9.56-3.4a.51.51,0,0,1,.06.2c.44,1.19.8,2.42,1.11,3.58C402.88,737.83,401.46,746.67,398.74,748.83Z"></path><path class="cls-55" d="M387.82,735.59c-1.49-1.76-3.88-.85-3.78,1.06s1.17,4.74,3.09,4.9,3.67-1.12,3-2.29S387.82,735.59,387.82,735.59Z"></path><path class="cls-20" d="M400.32,728c-1.27-1.07-7.92,2.67-10.9,4.76,0,0,6.95-7.4,9.79-8.34C399.65,725.65,400,726.88,400.32,728Z"></path><path class="cls-36" d="M399.6,726.32c-3.53,1.86-6.34,3-8.7,5.34-1,1-1.75,1.75-2.28,2.36-.75.83-1.09,1.28-1.09,1.28s-3.53-3.86-4.72-4.75-5.59-1.92-5.59-1.92a.72.72,0,0,1-.05-.2c-.48-1.28-2.89-9,3-11.53,0,0,.08,0,.11-.06,6.45-2.64,10.06,1.14,10.06,1.14s4.53-8.42,10.12-5.75a5.07,5.07,0,0,1,2.36,2.25C404.88,718.34,402.4,724.82,399.6,726.32Z"></path><path class="cls-55" d="M446.49,781.49c0,.73-5.76,3.76-11.09,3.76-5,0-8.95-2.7-11.2-2.14-.78.19-1.7.47-2.56.75a16.56,16.56,0,0,1-2.95.72c-.16,0-.28,0-.3-.11-.14-.25.52-1.59,1.19-2.78a.57.57,0,0,1,.11-.22c.11-.2.22-.39.31-.59a.19.19,0,0,1,.05-.11c.31-.47.53-.86.64-1.06l.09-.13C424.11,778,446.49,780.77,446.49,781.49Z"></path><path class="cls-20" d="M421.64,783.86a16.56,16.56,0,0,1-2.95.72v-.11a7.7,7.7,0,0,1,.89-2.78.57.57,0,0,1,.11-.22,5.29,5.29,0,0,1,.31-.59.19.19,0,0,1,.05-.11c.34-.64.62-1.08.62-1.08a0,0,0,0,1,0,0C421.42,780.21,420.72,783.13,421.64,783.86Z"></path><path class="cls-56" d="M404.16,784c5.11-2.67,16.08-5.17,16.61-4.4s-.11,3.86-.64,4.82-14.26,8.73-15.11,8.84S404.16,784,404.16,784Z"></path><path class="cls-57" d="M449.52,788h-32a.74.74,0,0,1-.74-.74h0a.74.74,0,0,1,.74-.75h32a.74.74,0,0,1,.74.75h0A.74.74,0,0,1,449.52,788Z"></path><path class="cls-57" d="M468.89,761.76l-18.78,26a.75.75,0,0,1-1,.17h0a.75.75,0,0,1-.17-1l18.78-26a.75.75,0,0,1,1-.17h0A.75.75,0,0,1,468.89,761.76Z"></path><path class="cls-55" d="M457.77,784a11.05,11.05,0,0,1-6.45,7.92h0a17.8,17.8,0,0,1-5.33,1.36,16.67,16.67,0,0,1-1.28-3.53,2.18,2.18,0,0,1-.08-.81,1.51,1.51,0,0,1,.83-1l.33-.16h0a9.23,9.23,0,0,1,3.61-.89s0,0,.06,0,0,0,.06,0h0c1.34-.06,5.23-5.64,7.65-9a.1.1,0,0,0,0-.05,11.08,11.08,0,0,1,2-2.45C459.86,775.35,458.49,781.27,457.77,784Z"></path><path class="cls-55" d="M388.2,942.28c.11,1.17-8.84,2-8.53-.11.19-1.19-.64-7.92-1.34-14.51v0c-.44-4.06-.8-8-.83-10.62,0-.64,0-1.22.06-1.67l1.64,1.78c.55.61,1.19,1.33,1.89,2.08,2.05,2.34,4.36,5.12,4.86,6.37.67,1.58,1.42,8.14,1.86,12.59,0,.11.06.17,0,.19v0C388,940.39,388.17,941.92,388.2,942.28Z"></path><path class="cls-55" d="M429.73,926.3l0,0c-.39,2.33-.7,4.09-.72,4.56-.12,1.61-9,.64-8-2.23.5-1.47.81-8.39,1.09-15.75.13-3.4.25-6.87.41-10,.14-3.27.31-6.11.53-7.94,0,0,8.53,14.48,8.95,15.76C432.26,911.68,430.67,920.63,429.73,926.3Z"></path><path class="cls-58" d="M414.47,947.51c0,.36-1.56,1.28-3.7,2.33-3.84,1.87-9.59,4.15-11.95,4.45-3.17.42-15.76-1.28-19.82-3a2.56,2.56,0,0,1-1.19-.78c-1.12-1.92.94-8.17,1.75-9.51.25-.39,7.53.56,8.31.31s7.34,2.17,12.34,3.33c.92.23,1.78.39,2.53.5,4.39.64,10.39,1.17,11.53,2C414.41,947.31,414.47,947.4,414.47,947.51Z"></path><path class="cls-58" d="M452.24,940.7c0,.28-1,.64-2.59,1h0c-4.12,1-11.84,2.17-14.32,1.69-2.89-.52-13.31-5.58-16.81-7.92-.7-.47-1.11-.83-1.17-1-.39-1.27,2.45-6.75,3.92-7.33.39-.17,7,2.25,8.23,2.8,1,.5,7.86,5.76,10.78,7.31a6.46,6.46,0,0,0,.86.42c1.81.56,8.79,1.7,10.65,2.61C452.07,940.42,452.24,940.56,452.24,940.7Z"></path><path class="cls-20" d="M387.87,938.39h0c-2.84-.61-8.42-12.75-9-12.75-.38,0-.41,1.22-.5,2-.44-4.06-.8-8-.83-10.62a2,2,0,0,1,1.7.11.35.35,0,0,1,.16.06,4.71,4.71,0,0,1,1.73,2c2.83,4.95,6.22,17.15,6.72,19,0,.11.06.17,0,.19Z"></path><path class="cls-20" d="M429.73,926.3v0h0c-1.47.25-5.64-8.76-6.51-12.09-.38-1.47-.77-1.61-1.13-1.33.13-3.4.25-6.87.41-10C424.92,904,429.59,925.64,429.73,926.3Z"></path><path class="cls-59" d="M401.6,831.25a83,83,0,0,1-1.89,11c-1.86,8.87-4.67,21-6.39,29.66-2.37,11.73-3.81,51.2-4.56,63.43v0a21.35,21.35,0,0,1-.36,3.62c-.64.86-2.12-1.28-9.15-15.32s-3-35.77-1.69-42.16.64-45,2.33-55.59c0,0,12.34-13.2,17-12.34S401.6,827,401.6,831.25Z"></path><path class="cls-60" d="M399.71,842.25c-1.86,8.87-4.67,21-6.39,29.66-2.37,11.73-3.81,51.2-4.56,63.43-2.14-7.68-.86-28.83-1.87-43.11-1.16-16.32,3.34-22.35,5.79-34.75s-.48-15.4-4.73-23.71C388.53,834.08,395.71,838.08,399.71,842.25Z"></path><path class="cls-59" d="M429.87,926.94c-.95.17-4-7.23-6.87-17.29s-2.56-23.79-2.06-32.91a69,69,0,0,1,2.87-16.28s-47.34-21.77-43.7-44.56c0,0,21.18-6.53,23.1-5.08a16.63,16.63,0,0,1,1.5,1.55c2,2.31,5.87,6.92,10.2,12.57,9,11.7,20.32,27.79,22.63,36.66C441.37,876.27,430.84,926.8,429.87,926.94Z"></path><path class="cls-60" d="M414.91,824.94c-11.59-9.34-23.37.16-31.71,4.17,0,0,14.92-14.71,21.51-16.74C406.74,814.68,410.58,819.29,414.91,824.94Z"></path><path class="cls-51" d="M406.07,808.73c1.28,3.67,3.84,7.34,1.92,7.81s-13.09,3.2-20.12,9a27.16,27.16,0,0,0-6.9,8.23c-1.08,2-1.64,3.56-2.36,4.22-1.58,1.45.81-15.48,1.45-32.1.58-14.92-2.62-18.37-3.73-30-.11-1.28-.22-2.67-.27-4.2-.64-15.17,5.83-17.31,7.28-17.4,11.59-.66,20,5.89,24.35,16.12,2.27,5.42,1.33,14.85.13,23-.77,5.17-1.64,9.84-1.86,12.73A7.9,7.9,0,0,0,406.07,808.73Z"></path><path class="cls-61" d="M407.82,793.44c-.77,5.17-1.64,9.84-1.86,12.73-2.64-4.75-6.39-4.78-15.37-14.48-11.89-12.87-10.75-23.29-7.48-27.1C383.11,764.59,398.82,783.36,407.82,793.44Z"></path><path class="cls-20" d="M451.29,791.89a17.8,17.8,0,0,1-5.33,1.36,16.67,16.67,0,0,1-1.28-3.53c.31-.81.61-1.47.75-1.81a2.15,2.15,0,0,0,.11-.25c.08,0,.17,0,.22.09h0c1.25.52,1.19,3.75,2,4.45C448.26,792.56,449.68,792.22,451.29,791.89Z"></path><path class="cls-62" d="M385.27,761.94c13.56-9.38,21.87,27.57,21.87,27.57s2.88-1.54,12.3-1.38,26.19-1.12,26.51-.48,2.24,4,0,5.59-34,9.74-40.72,7.66S372.33,770.88,385.27,761.94Z"></path><path class="cls-20" d="M457.19,777.85c-.45,1.17-1.11,2.71-1.86,4.6-1.27,3.2-3.4,4.49-5.79,4.41C450.88,786.8,454.77,781.22,457.19,777.85Z"></path><path class="cls-20" d="M458.58,775.57l-.7.86A2.62,2.62,0,0,1,458.58,775.57Z"></path><path class="cls-61" d="M383.87,800.86c-1.47,11.65-5,30.75-2.9,32.86-1.08,2-1.64,3.56-2.36,4.22-1.58,1.45.81-15.48,1.45-32.1.58-14.92-2.62-18.37-3.73-30C378.56,784.72,385.15,790.55,383.87,800.86Z"></path><path class="cls-52" d="M410.77,949.84c-3.84,1.87-9.59,4.15-11.95,4.45-3.17.42-15.76-1.28-19.82-3,7.09-.61,17.71.83,20.29.08A62.23,62.23,0,0,1,410.77,949.84Z"></path><path class="cls-52" d="M449.63,941.73c-4.12,1-11.84,2.17-14.32,1.69-2.89-.52-13.31-5.58-16.81-7.92,7.5-.33,14.39,6,17.79,6C439.18,941.45,446.74,941.17,449.63,941.73Z"></path><path class="cls-53" d="M414.27,947.2c-.78.17-1.86.34-3.25.5-5.89.7-8-1.25-10.81-3,.92.23,1.78.39,2.53.5C407.13,945.81,413.13,946.34,414.27,947.2Z"></path><path class="cls-53" d="M451.77,940.28a15.49,15.49,0,0,1-2.34.14c-5.14,0-7.2-1.28-9.17-3.17a6.46,6.46,0,0,0,.86.42C442.93,938.23,449.91,939.37,451.77,940.28Z"></path><path class="cls-54" d="M402.85,714.48c-3.56-.72-8.34,6.39-12.15,5.37-4.06-1.09-4-3.06-9.09-3a9.22,9.22,0,0,1-1.3-.06c6.45-2.64,10.06,1.14,10.06,1.14s4.53-8.42,10.12-5.75A5.07,5.07,0,0,1,402.85,714.48Z"></path><path class="cls-36" d="M842.76,749.41c6,1.36,15-3.71,17.08-7.37s1.41-5-.1-5.22l-1.52-.26s1.83-5.38,1.73-8.36-.47-2.46-1.67-1.93-6.38,3.08-7.94,5.43S842.76,749.41,842.76,749.41Z"></path><path class="cls-37" d="M844.82,763.36c0,.47-9.17-.7-9.17-1.18,0-.27.36-4.76.75-8.41.27-2.48.55-4.58.75-4.67s.57-.25,1.18-.48c1.73-.68,4.69-1.8,4.69-1.8.08.43.17,1,.27,1.71,0,.25.07.52.11.8C844,754.24,844.82,763,844.82,763.36Z"></path><path class="cls-20" d="M843.29,748.53c-1.07,0-3.09,0-5,.09-.61.23-1.06.41-1.18.48s-.48,2.19-.75,4.67a18.24,18.24,0,0,0,7-4.44Z"></path><path class="cls-37" d="M829.91,733c-4.18,9.62-3.24,18.08-.53,20s11.6-1.15,14.32-5.22,4.91-9.3,4.81-10a10.56,10.56,0,0,0-7.63-7.95C834.71,728,829.91,733,829.91,733Z"></path><path class="cls-37" d="M849.38,746c-1,1.86-2.91,2.77-4.33,2s-1.77-2.85-.8-4.71,2.9-2.77,4.32-2S850.35,744.16,849.38,746Z"></path><path class="cls-36" d="M847.36,741.05c-1.62-3.66-3.35-5.85-6.64-6.06s-9.92,1.25-11.7.11-2.87-3.77,0-7.11a23.26,23.26,0,0,1,10-6.37c1.88-.37.68,1.56,1.2,1.82a9.31,9.31,0,0,0,5.54-.73c2.45-1,6.48-.83,8.1.06s-.32,1.09-.37,1.77,5.76.92,6,1.39S847.36,741.05,847.36,741.05Z"></path><path class="cls-63" d="M830.17,760.3c3.76,0,20.92,1.65,23.35,2.59s-14.89,10.42-19.35,8.78S830.17,760.3,830.17,760.3Z"></path><path class="cls-64" d="M832.62,760.33c-8.46,2.72-13.37,12.33-10.24,32.6S834.3,826.58,846.94,825s20.79-19.85,15.46-36.15-7-25.81-8.88-26-15.36,5.9-19.43,5S832.62,760.33,832.62,760.33Z"></path><path class="cls-64" d="M832.62,760.33c-11.07-.73-18.6,6.69-28.94,25s18.08,6.17,18.7,3.66S832.62,760.33,832.62,760.33Z"></path><path class="cls-37" d="M790.15,817.07c-2.56.94-7.32,5.85-5.8,11.34s4.49,7.1,6,7S790.15,817.07,790.15,817.07Z"></path><path class="cls-65" d="M852.35,970.77a1.22,1.22,0,0,1-1,.81c-2.79.35-19.88,1.51-28,1.1a21.06,21.06,0,0,1-3-.31c-4.15-.83,11.08-7.78,19.63-11.48h0c2.72-1.18,4.77-2,5.29-2.24l.29-.11a27.59,27.59,0,0,1,4.48-1.21c.06.29.14.64.23,1,.18.72.41,1.57.66,2.5C851.94,964.39,853.15,968.93,852.35,970.77Z"></path><path class="cls-65" d="M930.32,955.52a4.94,4.94,0,0,1-.21.58c-1.2,3-6.48,14-8.56,14.54a131.9,131.9,0,0,1-15,1.62c-2,.09-3.46.06-3.43-.2.08-.87,9-6.82,10.19-8.55,1-1.41.24-8.75,0-12.18a12.11,12.11,0,0,1,0-1.61c.14-1.35,5.58-5.42,6.58-6.16l.15-.11.13.12c.74.68,1.48,1.38,2.2,2.08C926.89,950,930.72,954.18,930.32,955.52Z"></path><path class="cls-20" d="M851,960.84a49.86,49.86,0,0,1-11,0c2.72-1.18,4.77-2,5.29-2.24l.29-.11a11.14,11.14,0,0,1,3.91-.41,7.11,7.11,0,0,1,.8.21C850.48,959.06,850.71,959.91,851,960.84Z"></path><path class="cls-20" d="M922.38,945.65a35.64,35.64,0,0,1-9,5.68,12.11,12.11,0,0,1,0-1.61c.14-1.35,5.58-5.42,6.58-6.16h.28C920.92,944.25,921.66,945,922.38,945.65Z"></path><path class="cls-59" d="M922,944.34c-1.68.21-9,7.31-10,7.1s-6.9-3.34-19.23-19c-7.08-9-20.28-32-30.44-48.08-1.57-2.48-3.06-4.81-4.45-6.89-5.31-8-9.07-12.44-9.42-9.19-.18,1.6-.17,5.23-.06,10.17.06,2.08.13,4.4.22,6.89.93,27,3.68,74.95,2.09,74.47-2.09-.62-10,.84-12.49.22-1.5-.38-8.51-36.25-12.94-73.85-.18-1.51-.36-3-.52-4.55-2.67-23.89-4.16-47.92-2.42-63.51,0,0,29.05,1.68,37,6.27,6.48,3.76,18,30.16,26.28,51,.91,2.26,1.78,4.46,2.59,6.56.89,2.26,1.72,4.41,2.48,6.39C898.56,909,923.63,944.13,922,944.34Z"></path><polygon class="cls-30" points="921.06 876.25 789.26 887.5 788.63 785.3 908.38 794.71 921.06 876.25"></polygon><path class="cls-20" d="M848.34,878.44c.06,2.08.13,4.4.22,6.89-8.74.55-17.11.91-23.34.84-.18-1.51-.36-3-.52-4.55C829.86,880.66,838.71,879.51,848.34,878.44Z"></path><path class="cls-20" d="M888.14,881.94c-5.44.62-15.2,1.57-25.87,2.41-1.57-2.48-3.06-4.81-4.45-6.89,10.67-1.05,21.16-1.88,27.73-2.08C886.46,877.64,887.33,879.84,888.14,881.94Z"></path><path class="cls-28" d="M789.26,887.5l131.8-11.25s-53-43.72-58.66-44.34-58.09,42-61,44.72S789.26,887.5,789.26,887.5Z"></path><path class="cls-20" d="M854.93,777.07c0,4.31,5.1,11.52,4.08,12.07s-10,1-13,1,5,4.31,9.48,3.76,8.39,1.18,8.39-1.8S854.93,777.07,854.93,777.07Z"></path><path class="cls-29" d="M788.63,785.3l119.75,9.41s-37.2,46.6-45.77,46.6-54.75-38.24-58.51-41.17S788.63,785.3,788.63,785.3Z"></path><path class="cls-37" d="M838.27,806.1a17.71,17.71,0,0,1-3.55-.63c-1-.24-2.14-.53-3.19-.81a30.14,30.14,0,0,0-4.34-1c-.94.11-.94,2.3-9.82,3.14s-10.66-2-10.56-3,14.7-5.88,26.54-7.17l1.83-.18,1.1-.07C838.16,796.27,840,806,838.27,806.1Z"></path><path class="cls-37" d="M788.22,819.26c.52,2.93,4.59,7.63,5.22,9.51s-3.13,7.53-4.7,6.27S788.22,819.26,788.22,819.26Z"></path><path class="cls-20" d="M835.18,796.45c0,1-.36,6-.42,8.5a2.75,2.75,0,0,1,0,.52c-1-.24-2.14-.53-3.19-.81-.36-1.73.58-5.81,1.82-8Z"></path><path class="cls-64" d="M853.52,762.89c7.32.78,14.42.89,24.77,23s6.68,22.57,4.49,23.3-21.32,3-33.75.21-16.2-3.87-16.72-4.39.78-8.57,2.67-8.78,28.36.74,28.57.32-5.43-11.81-7.62-15.88S853.52,762.89,853.52,762.89Z"></path><path class="cls-20" d="M852.35,970.77a1.22,1.22,0,0,1-1,.81c-2.79.35-19.88,1.51-28,1.1C829.83,969.58,845.32,969.8,852.35,970.77Z"></path><path class="cls-20" d="M930.11,956.1c-1.2,3-6.48,14-8.56,14.54a131.9,131.9,0,0,1-15,1.62.35.35,0,0,1,.05-.08c.78-1,12.06-3.18,14.83-4S923.92,958.21,930.11,956.1Z"></path><path class="cls-19" d="M560.23,289.36a65.31,65.31,0,0,1-18.09-2.42.4.4,0,0,1-.27-.49.39.39,0,0,1,.5-.27,64.46,64.46,0,0,0,17.86,2.38c18.08,0,32.78-6.58,32.78-14.66s-14.7-14.66-32.78-14.66-32.79,6.58-32.79,14.66c0,3.28,2.54,6.52,7.16,9.12a.4.4,0,0,1,.15.55.4.4,0,0,1-.54.15c-5-2.79-7.57-6.18-7.57-9.82,0-8.52,15.07-15.46,33.59-15.46s33.58,6.94,33.58,15.46S578.75,289.36,560.23,289.36Z"></path><path class="cls-19" d="M529.33,293.42,534,283.2a.39.39,0,0,1,.53-.19.4.4,0,0,1,.2.53L531,291.7l11.08-5.5a.39.39,0,0,1,.53.18.4.4,0,0,1-.18.54Z"></path><ellipse class="cls-66" cx="598.85" cy="281.48" rx="40.41" ry="18.34"></ellipse><polygon class="cls-66" points="628.99 290.21 635.44 304.2 618.77 295.93 628.99 290.21"></polygon><path class="cls-19" d="M602.5,281.44a3.65,3.65,0,1,0-3.65,3.65A3.66,3.66,0,0,0,602.5,281.44Z"></path><path class="cls-19" d="M612.17,281.44a2.31,2.31,0,1,0-2.31,2.32A2.31,2.31,0,0,0,612.17,281.44Z"></path><path class="cls-19" d="M590.14,281.44a2.31,2.31,0,1,0-2.31,2.32A2.31,2.31,0,0,0,590.14,281.44Z"></path><path class="cls-15" d="M794.76,284.41c5.58-12.45,7.18-12,10.63-15.42,3.81-3.81,5.35-7.05,6.41-6.9,1.81.24,2.37,4.31.06,8.15-2.44,4-4,5.09-3.68,5.74s17.34,0,19.22,0a3.83,3.83,0,0,1,3.62,4.17c-.3,2.25-3.77,13.25-6.4,14.54s-30,.48-30.46,0S794.76,284.41,794.76,284.41Z"></path><path class="cls-18" d="M798.48,297.69l-6,3.66a1,1,0,0,1-1.47-.63l-4.16-20.06a1,1,0,0,1,1-1.18l6.81.24a1,1,0,0,1,.93.78l3.31,16.16A1,1,0,0,1,798.48,297.69Z"></path></g></g></g></svg>