<svg xmlns="http://www.w3.org/2000/svg" viewBox="0 0 1411.05 979.71"><defs><style>.cls-1{isolation:isolate;}.cls-2,.cls-8{fill:#fe5722;}.cls-2,.cls-4,.cls-57,.cls-58{opacity:0.5;}.cls-3{fill:#cf2027;}.cls-5{fill:#f8bbd0;}.cls-29,.cls-39,.cls-6{fill:#fff;}.cls-7{fill:#9ea5f0;}.cls-9{fill:#ffc4e4;}.cls-10{fill:#e6e6e6;}.cls-10,.cls-28,.cls-55{mix-blend-mode:multiply;}.cls-11{fill:#ce421d;}.cls-12{fill:#e6a8c9;}.cls-13{fill:#703351;}.cls-14{fill:none;}.cls-15{fill:#ffe8f4;}.cls-16{fill:#96111b;}.cls-17{fill:#ffe2d7;}.cls-18{fill:#3c3966;}.cls-19{fill:#edc2cc;}.cls-20{fill:#f7dee4;}.cls-21{fill:#e3839b;}.cls-22{fill:#f2aaba;}.cls-23{fill:#604a49;}.cls-24{fill:#ab7f80;}.cls-25{fill:#4d5175;}.cls-26{fill:#323963;}.cls-27{fill:#440c01;}.cls-28{fill:#ccc;}.cls-29{opacity:0.4;}.cls-30{fill:#ff4747;mix-blend-mode:soft-light;}.cls-31{fill:#4f0e01;}.cls-32{fill:#facebe;}.cls-33{fill:#d13989;}.cls-34{fill:#303769;}.cls-35{fill:#bac0de;}.cls-36{fill:#a1aade;}.cls-37{fill:#ff69b9;}.cls-38{fill:#d63c8d;}.cls-39{opacity:0.3;}.cls-40{fill:#80345c;}.cls-41{fill:#e071af;}.cls-42{fill:#f08dc3;}.cls-43{fill:#6c70a3;}.cls-44{fill:#454a99;}.cls-45{fill:#ff879e;}.cls-46{fill:#f05975;}.cls-47{fill:#f0cdc0;}.cls-48{fill:#662648;}.cls-49{fill:#661a43;}.cls-50{fill:#a8768e;}.cls-51{fill:#d4d9ff;}.cls-52{fill:#8f4365;}.cls-53{fill:#7882e6;}.cls-54{fill:#8c96ff;}.cls-55{fill:#f2f2f2;}.cls-56{fill:#c78faa;}.cls-57{fill:#c4caff;}.cls-58{fill:#cfd2ff;}.cls-59{fill:#fafbff;}.cls-60{fill:#b3c7ff;}.cls-61{fill:#6f88de;}.cls-62{fill:#5d7ade;}</style></defs><g class="cls-1"><g id="Layer_2" data-name="Layer 2"><g id="Layer_1-2" data-name="Layer 1"><circle class="cls-2" cx="431.5" cy="521.7" r="387.5"></circle><circle class="cls-2" cx="1029.9" cy="606.28" r="313.03"></circle><circle class="cls-2" cx="834.4" cy="240.88" r="240.88" transform="translate(74.06 660.56) rotate(-45)"></circle><rect class="cls-3" x="701.06" y="107.07" width="74.3" height="51.24" rx="7.45" transform="translate(125.92 565.9) rotate(-45.47)"></rect><rect class="cls-3" x="816.69" y="54.16" width="51.24" height="74.3" rx="7.45" transform="translate(739.9 932.34) rotate(-89.24)"></rect><rect class="cls-3" x="813.33" y="343.97" width="51.24" height="74.3" rx="7.45" transform="translate(446.8 1214.98) rotate(-89.24)"></rect><rect class="cls-3" x="904.39" y="313.25" width="74.3" height="51.24" rx="7.45" transform="translate(39.68 772.44) rotate(-45.47)"></rect><rect class="cls-3" x="917.45" y="96.72" width="51.24" height="74.3" rx="7.45" transform="translate(180.95 705.25) rotate(-44.94)"></rect><rect class="cls-3" x="709.81" y="299.04" width="51.24" height="74.3" rx="7.45" transform="translate(-22.62 617.69) rotate(-44.94)"></rect><rect class="cls-3" x="669.23" y="197.47" width="51.24" height="74.3" rx="7.45"></rect><rect class="cls-3" x="959.5" y="198.78" width="51.24" height="74.3" rx="7.45"></rect><path class="cls-3" d="M977.52,178.8A148.49,148.49,0,1,0,896.8,372.66,148.48,148.48,0,0,0,977.52,178.8ZM863.89,294.32a62.94,62.94,0,1,1,34.22-82.17A62.93,62.93,0,0,1,863.89,294.32Z"></path><path class="cls-3" d="M854.84,318.45a84.37,84.37,0,1,1,17.53-5.09A84.48,84.48,0,0,1,854.84,318.45ZM763,267.19a83.52,83.52,0,1,0,45.41-109A83.61,83.61,0,0,0,763,267.19Z"></path><rect class="cls-3" x="1114.91" y="447.71" width="39.87" height="27.49" rx="4" transform="translate(-57.06 744.59) rotate(-35.49)"></rect><rect class="cls-3" x="1173.77" y="435.52" width="39.87" height="27.49" rx="4" transform="translate(104.58 -214.49) rotate(10.74)"></rect><rect class="cls-3" x="1145.05" y="588.36" width="39.87" height="27.49" rx="4" transform="translate(132.55 -206.47) rotate(10.74)"></rect><rect class="cls-3" x="1203.19" y="575.57" width="39.87" height="27.49" rx="4" transform="matrix(0.81, -0.58, 0.58, 0.81, -114.9, 819.59)"></rect><rect class="cls-3" x="1223.06" y="467.38" width="39.87" height="27.49" rx="4" transform="translate(925.08 -813.27) rotate(55.04)"></rect><rect class="cls-3" x="1094.52" y="554.98" width="39.87" height="27.49" rx="4" transform="matrix(0.57, 0.82, -0.82, 0.57, 941.99, -670.51)"></rect><rect class="cls-3" x="1082.52" y="497.54" width="39.87" height="27.49" rx="4" transform="translate(1796.57 -486.22) rotate(99.95)"></rect><rect class="cls-3" x="1235.79" y="525.22" width="39.87" height="27.49" rx="4" transform="translate(2003.6 -604.72) rotate(99.95)"></rect><path class="cls-3" d="M1257,508.07A79.67,79.67,0,1,0,1196.34,603,79.67,79.67,0,0,0,1257,508.07Zm-70.79,50.48A33.77,33.77,0,1,1,1212,518.31,33.76,33.76,0,0,1,1186.23,558.55Z"></path><path class="cls-3" d="M1179.2,570.46a45.3,45.3,0,1,1,9.74-1.06A45.34,45.34,0,0,1,1179.2,570.46Zm-43.75-35.63a44.81,44.81,0,1,0,34.13-53.4A44.86,44.86,0,0,0,1135.45,534.83Z"></path><g class="cls-4"><rect class="cls-5" x="203.31" y="420.71" width="26.9" height="18.55" rx="2.7" transform="translate(-209.37 205.73) rotate(-35.49)"></rect><rect class="cls-5" x="243.03" y="412.49" width="26.9" height="18.55" rx="2.7" transform="translate(83.05 -40.39) rotate(10.74)"></rect><rect class="cls-5" x="223.65" y="515.6" width="26.9" height="18.55" rx="2.7" transform="matrix(0.98, 0.19, -0.19, 0.98, 101.92, -34.98)"></rect><rect class="cls-5" x="262.87" y="506.98" width="26.9" height="18.55" rx="2.7" transform="translate(-248.38 256.33) rotate(-35.49)"></rect><rect class="cls-5" x="276.28" y="433.99" width="26.9" height="18.55" rx="2.7" transform="translate(486.99 -48.17) rotate(55.04)"></rect><rect class="cls-5" x="189.56" y="493.09" width="26.9" height="18.55" rx="2.7" transform="matrix(0.57, 0.82, -0.82, 0.57, 498.4, 48.14)"></rect><rect class="cls-5" x="181.46" y="454.33" width="26.9" height="18.55" rx="2.7" transform="matrix(-0.17, 0.98, -0.98, -0.17, 685.23, 351.75)"></rect><rect class="cls-5" x="284.87" y="473.01" width="26.9" height="18.55" rx="2.7" transform="translate(824.9 271.8) rotate(99.95)"></rect><path class="cls-5" d="M299.19,461.44a53.75,53.75,0,1,0-40.94,64.05A53.75,53.75,0,0,0,299.19,461.44Zm-47.76,34.05a22.78,22.78,0,1,1,17.35-27.14A22.78,22.78,0,0,1,251.43,495.49Z"></path><path class="cls-6" d="M246.69,503.53a30.59,30.59,0,1,1,6.57-.72A30.18,30.18,0,0,1,246.69,503.53Zm-29.52-24a30.23,30.23,0,1,0,23-36A30.27,30.27,0,0,0,217.17,479.49Z"></path></g><rect class="cls-7" x="446.59" y="241.02" width="176.32" height="32.29" transform="translate(-46.97 374.2) rotate(-37.06)"></rect><path class="cls-7" d="M616.52,215.65l29.62-22.37a2.12,2.12,0,0,1,3.36,1.3,42.26,42.26,0,1,1-23.14-30.65,2.12,2.12,0,0,1,.32,3.58l-29.62,22.37a2.1,2.1,0,0,0-.41,3l16.92,22.41A2.1,2.1,0,0,0,616.52,215.65Z"></path><path class="cls-7" d="M491.33,290a42.06,42.06,0,0,1-51.94,63.27,2.12,2.12,0,0,1-.33-3.58l33.39-25.21a2.1,2.1,0,0,0,.41-2.95l-16.92-22.41a2.1,2.1,0,0,0-2.95-.41L419.6,323.89a2.11,2.11,0,0,1-3.35-1.29A42.09,42.09,0,0,1,491.33,290Z"></path><rect class="cls-8" x="280.51" y="246.8" width="779.35" height="538.21" rx="17.33"></rect><rect class="cls-6" x="347.35" y="304.91" width="657.03" height="408.9"></rect><rect class="cls-3" x="347.35" y="304.18" width="657.03" height="68.15"></rect><rect class="cls-9" x="670.62" y="620.9" width="267.36" height="89.12" rx="8.27"></rect><polygon class="cls-3" points="755.67 886.76 562.86 886.76 614.08 773.22 660.86 773.63 704.46 774.04 755.67 886.76"></polygon><path class="cls-10" d="M652.15,886.76H562.86l51.22-113.54,46.78.41c20.86,5,39.77,10.07,39.77,10.07-49.8,7.57-67.57-1.17-83.6,12.53S581.51,851.27,583,862c1.64,12.05,52.42,26.21,72.81,23.59C660.47,885,658.38,885.63,652.15,886.76Z"></path><path class="cls-11" d="M280.08,685.84H1060a0,0,0,0,1,0,0v79.07a21.41,21.41,0,0,1-21.41,21.41H301.48a21.41,21.41,0,0,1-21.41-21.41V685.84A0,0,0,0,1,280.08,685.84Z"></path><circle class="cls-12" cx="904.32" cy="339.42" r="9.61" transform="translate(-53.79 216.85) rotate(-13.28)"></circle><circle class="cls-13" cx="960.24" cy="339.42" r="9.61" transform="translate(-41.97 158.2) rotate(-9.22)"></circle><circle class="cls-13" cx="932.28" cy="339.85" r="9.61"></circle><rect class="cls-9" x="394.53" y="412.95" width="142.71" height="113.58" rx="8.27"></rect><rect class="cls-14" x="566.34" y="412.37" width="362.88" height="113.58"></rect><path class="cls-15" d="M926.33,434.51H572.75a11.07,11.07,0,0,1-11.07-11.07h0a11.07,11.07,0,0,1,11.07-11.07H926.33a11.07,11.07,0,0,1,11.07,11.07h0A11.07,11.07,0,0,1,926.33,434.51Z"></path><rect class="cls-15" x="561.68" y="476.68" width="375.72" height="22.13" rx="11.07"></rect><path class="cls-15" d="M926.33,466.66H572.75a11.07,11.07,0,0,1-11.07-11.07h0a11.07,11.07,0,0,1,11.07-11.07H926.33a11.07,11.07,0,0,1,11.07,11.07h0A11.07,11.07,0,0,1,926.33,466.66Z"></path><path class="cls-15" d="M926.33,531H572.75a11.06,11.06,0,0,1-11.07-11.06h0a11.06,11.06,0,0,1,11.07-11.07H926.33A11.07,11.07,0,0,1,937.4,519.9h0A11.07,11.07,0,0,1,926.33,531Z"></path><path class="cls-15" d="M926.33,563.12H405.58a11.07,11.07,0,0,1-11.07-11.07h0A11.07,11.07,0,0,1,405.58,541H926.33a11.07,11.07,0,0,1,11.07,11.07h0A11.07,11.07,0,0,1,926.33,563.12Z"></path><path class="cls-15" d="M926.33,595.27H405.58a11.07,11.07,0,0,1-11.07-11.07h0a11.06,11.06,0,0,1,11.07-11.06H926.33A11.07,11.07,0,0,1,937.4,584.2h0A11.07,11.07,0,0,1,926.33,595.27Z"></path><path class="cls-15" d="M637.64,662.25H479.94a6.33,6.33,0,0,1-6.34-6.33h0a6.33,6.33,0,0,1,6.34-6.33h157.7a6.33,6.33,0,0,1,6.34,6.33h0A6.33,6.33,0,0,1,637.64,662.25Z"></path><path class="cls-15" d="M637.64,680.6H479.94a6.33,6.33,0,0,1-6.34-6.33h0a6.34,6.34,0,0,1,6.34-6.34h157.7a6.34,6.34,0,0,1,6.34,6.34h0A6.33,6.33,0,0,1,637.64,680.6Z"></path><path class="cls-16" d="M840.7,887.09V909.2a9.35,9.35,0,0,1-9.33,9.35H487.16a2.17,2.17,0,0,1-.36,0,9.34,9.34,0,0,1-9-9.33V887.09a9.33,9.33,0,0,1,9.33-9.34H831.37A9.33,9.33,0,0,1,840.7,887.09Z"></path><path class="cls-10" d="M486.8,918.53a9.34,9.34,0,0,1-9-9.33V887.09a9.33,9.33,0,0,1,9.33-9.34H493C483.41,886.69,475,906.19,486.8,918.53Z"></path><path class="cls-17" d="M939.36,843.3c-2.21,9.91-3.28,17.61-2.37,25,1.42,11.51,4.5,16.85,3.09,32.25s-10.1,50-10.1,53-7.21,3.21-7.51,1.53-.34-73.62.23-87.35c.26-6.33-.84-15.63-1.87-24.24-.65-5.72-1.26-11.14-1.37-15.18-.12-3.09.07-5.34.72-6.33,2.78-4.19,23.83,2.25,23.83,2.25-.76,3-1.49,5.91-2.14,8.58C940.92,836.59,940.08,840.05,939.36,843.3Z"></path><path class="cls-17" d="M913.43,828.24a5.44,5.44,0,0,1-.26,1.83c-.61,2.55-2.18,7.24-3.7,13.34-.84,3.32-1.68,7.09-2.33,11.13-2.32,13.88.61,19.14.84,25.24.88,25.93-10.83,69.73-11.67,72.48s-6,2.63-7.89,1.14c-1.64-1.26-.49-77.66,2.75-114.64.07-.8.11-1.56.23-2.33.49-5.37,1-9.8,1.64-12.81C893,823.62,913.24,826.14,913.43,828.24Z"></path><path class="cls-18" d="M932.57,965.6a43,43,0,0,1-4.8.5c-3.7.23-8,.15-8.35-.92s.07-5,.8-8.12c.53-2.21,1.26-4,1.94-4.19a18.72,18.72,0,0,1,8.2.34C931.54,953.63,935.39,965.07,932.57,965.6Z"></path><path class="cls-18" d="M896.12,965.72s-.11.07-.15.11c-2,.91-20.17-.53-30-4.12-4.62-1.68-7.29-3.81-8.66-5.6-1.6-2-1.56-3.62-.91-3.74.3,0,1.64,0,3.47,0,4.15.15,11.05.57,15.25.8,1.44.11,2.59.15,3.16.19,2.44.08,18-1.14,18-1.14C896.92,957,897.92,964.46,896.12,965.72Z"></path><path class="cls-19" d="M932.37,670c16.83,7.16,20,53.65,19.57,55.54s-20.83-10.1-20.83-13S932.37,670,932.37,670Z"></path><path class="cls-20" d="M869.25,725.07c-4.92-1.79-15.86-29.36-16.51-38.51,0,0,2.29,1.72,5.14,3.93,3,2.33,6.68,5.22,9,7.32a23.34,23.34,0,0,1,5,6.33C877.6,714.78,873.36,726.52,869.25,725.07Z"></path><path class="cls-21" d="M936.65,677.68c5.56,11.76,4.45,32.09,6.67,35.58s8.34,8.75,8.62,12.32-17,8.33-20.53-.88S936.65,677.68,936.65,677.68Z"></path><path class="cls-22" d="M871.8,704.14c-1.33-.92-4.16-4-6-5.8-2.52-2.36-11.21-6.55-12.66-10.18l4.76,2.33c3,2.33,6.68,5.22,9,7.32A23.34,23.34,0,0,1,871.8,704.14Z"></path><path class="cls-23" d="M987.89,759.53a12.77,12.77,0,0,1-10.83,6,11.12,11.12,0,0,1-2.74-.3,12.86,12.86,0,0,1-4.19-1.72l-3.09-2L950.57,751l-84.79-54.1s-.12,0-.12-.08l-3.12-2-9.76-6.25a2,2,0,0,1-.65-.5.36.36,0,0,1-.19-.08l-.38-.45L849,684.89a12.17,12.17,0,0,1-2.1-5.76,12.35,12.35,0,0,1,.5-5.15,11.89,11.89,0,0,1,1.45-3.2,12.31,12.31,0,0,1,4.8-4.42,12.83,12.83,0,0,1,6-1.49,14.59,14.59,0,0,1,2.18.19l.07,0,3.13,1h0l.53.19,0,0s.08,0,.15.07a9.16,9.16,0,0,1,.8.46l12.81,8.16a0,0,0,0,1,0,0l83.65,53.37L984,741.73a10.61,10.61,0,0,1,1,.72l.64.58,0,0a11.9,11.9,0,0,1,1.82,2,8.69,8.69,0,0,1,.73,1.15,7.66,7.66,0,0,1,.53,1,4.71,4.71,0,0,1,.38,1,4.84,4.84,0,0,1,.34,1l.12.46a9.56,9.56,0,0,1,.23,1.37A12.66,12.66,0,0,1,987.89,759.53Z"></path><path class="cls-24" d="M987.89,759.53a12.77,12.77,0,0,1-10.83,6,11.12,11.12,0,0,1-2.74-.3,12.86,12.86,0,0,1-4.19-1.72l-3.09-2L950.57,751a32.71,32.71,0,0,1,.57-4,30.8,30.8,0,0,1,12-18.53L984,741.73a10.61,10.61,0,0,1,1,.72l.64.58a11.74,11.74,0,0,1,1.87,2.05,8.69,8.69,0,0,1,.73,1.15,7.66,7.66,0,0,1,.53,1,4.71,4.71,0,0,1,.38,1,4.84,4.84,0,0,1,.34,1l.12.46a9.56,9.56,0,0,1,.23,1.37A12.66,12.66,0,0,1,987.89,759.53Z"></path><path class="cls-24" d="M865.43,667l-8.57,13.54-4.35,6.82a.6.6,0,0,1-1,.12L849,684.89l-2.67-2.83-29.32-30.72a.61.61,0,0,1,.65-1l17.77,5.91,21.31,7.06,5.11,1.75,3.2,1.07h0A.63.63,0,0,1,865.43,667Z"></path><path class="cls-23" d="M883.43,692.85a12.79,12.79,0,0,1-10.87,5.95,12.7,12.7,0,0,1-6.78-1.94s-.12,0-.12-.08l-3.12-2-9.76-6.25a2,2,0,0,1-.65-.5.36.36,0,0,1-.19-.08l-.38-.45L849,684.89l-2.67-2.83a27.53,27.53,0,0,1,.57-2.93,28.34,28.34,0,0,1,1.49-4.42,30.19,30.19,0,0,1,5.26-8.35,22.83,22.83,0,0,1,3.09-3.05l5.11,1.75,3.2,1.07h0l.53.19,0,0s.08,0,.15.07a9.16,9.16,0,0,1,.8.46l12.81,8.16a0,0,0,0,1,0,0,13,13,0,0,1,3.93,17.76Z"></path><path class="cls-10" d="M891.4,836.43c3.24-1,13.19-3.89,21.77-6.36-.61,2.55-2.18,7.24-3.7,13.34-8.16-.46-15.79-1.94-18.3-4.65a2.89,2.89,0,0,1-.88-2S890.67,836.62,891.4,836.43Z"></path><path class="cls-10" d="M941.87,832.81c-3.2-4-10.59-7.62-16.54-6.1-1.41.38-3.47.92-5.87,1.6.11,4,.72,9.46,1.37,15.18,2.1-.16,4.08-.31,5.83-.58,9.53-1.33,11.71-.83,12.7.39Z"></path><path class="cls-10" d="M974.32,765.18a12.86,12.86,0,0,1-4.19-1.72l-3.09-2L950.57,751l-84.79-54.1s-.12,0-.12-.08l-3.12-2-9.76-6.25a2,2,0,0,1-.65-.5.36.36,0,0,1-.19-.08l-.38-.45L849,684.89l-2.67-2.83-29.32-30.72a.61.61,0,0,1,.65-1l17.77,5.91c-3,1.49-5,4.24-4.31,5.87.19.5,6.44,5,16.28,11.86.3.23.65.46,1,.73,2.59,1.79,5.41,3.77,8.43,5.87,6.86,4.76,14.67,10.21,22.95,16,23.9,16.58,51.69,36,71.33,50.4C962.16,755.11,970.62,761.59,974.32,765.18Z"></path><path class="cls-25" d="M942.48,833.5c-3.39,9.19-49.44,9.87-52.61,4.19s16-89.4,17.69-103.7c0,0,5.11-1,10.87-2.06,3.09-.57,6.36-1.1,9.15-1.49h.11c3.62-.49,6.41-.68,6.79-.22a1.88,1.88,0,0,1,.34.61c2.4,4.5,12.89,30.61,15.86,47.35l.12.8C953.66,796.78,946.83,821.68,942.48,833.5Z"></path><path class="cls-26" d="M950.8,779c-3.59-12.47-11.17-29.93-16.7-35-6.87-6.33-20.5-6.28-21.8-11a4.74,4.74,0,0,1-.19-1.68s10.4-1,15.47-.85h.11c2.1.08,4.31.2,6.41.31a4.07,4.07,0,0,1,.72.08c2.4,4.5,12.89,30.61,15.86,47.35Z"></path><path class="cls-20" d="M937.87,729.72a30.84,30.84,0,0,1-1,5.61c-.23.34-2.21.53-5,.57-8.09.19-23.18-.73-24.33-1.91-.84-.88-6.4-18.3-10.41-34.92-3.47-14.41-5.75-28.18-2.78-29.93,6.44-3.81,23.41-7.21,38,.91,3.2,1.76,5.15,6.64,6.22,13C941.11,697.47,939.24,719.46,937.87,729.72Z"></path><path class="cls-20" d="M869.26,725.05c14.2,7.47,31.35-44.8,31.35-46.17s1.82-14.45-6.24-9.75S871,708.64,870.63,712.75,869.26,725.05,869.26,725.05Z"></path><path class="cls-27" d="M936.57,680.77a15.54,15.54,0,0,1-3.77,2.17,14,14,0,0,1-1.68.65,18.83,18.83,0,0,1-7.58.42,30.27,30.27,0,0,1-6.45-6.48c-.23-.35-.45-.69-.68-1.07-2.6-4-5.76-10.26-5.76-10.26a39,39,0,0,0,1.33,6.9c.19.81.46,1.72.77,2.64a36.66,36.66,0,0,0,4.19,9s0,.12-3.62.27c-5.64.31-6.9-.68-6.9-.68s-11.25-22.84-14.07-42.44v-.07c-1.22-8.51-.88-16.4,2.71-21.51,2.51-3.62,6.63-5.87,12.92-6,8.69-.12,14.15,3.09,19.22,18,4,12,4.65,24.14,5.33,32.14.16,2,.35,3.66.54,5A37,37,0,0,0,936.57,680.77Z"></path><path class="cls-22" d="M931.89,735.9c-8.09.19-23.18-.73-24.33-1.91-.84-.88-6.4-18.3-10.41-34.92,5.8,9.41,14.38,32.1,19.79,33.43,1.49.35,3.36.69,5.34,1.07A65.49,65.49,0,0,1,931.89,735.9Z"></path><path class="cls-28" d="M896.12,965.72s-.11.07-.15.11c-2,.91-20.17-.53-30-4.12-4.62-1.68-7.29-3.81-8.66-5.6,3.36,1.45,8,3.62,12.93,4.53C878.89,962.25,889.07,963.62,896.12,965.72Z"></path><path class="cls-28" d="M927.77,966.1c-3.7.23-8,.15-8.35-.92s.07-5,.8-8.12C920.3,960,921.4,963.92,927.77,966.1Z"></path><path class="cls-29" d="M875.16,953.21c-5.49,2.52-12.13,2.82-15.25-.8C864.06,952.56,871,953,875.16,953.21Z"></path><path d="M912.75,675.74a36.66,36.66,0,0,0,4.19,9s0,.12-3.62.27c-5.64.31-6.9-.68-6.9-.68s-11.25-22.84-14.07-42.44c3.13,9.84,9.3,22.5,19.63,31.26C912.17,673.91,912.44,674.82,912.75,675.74Z"></path><path d="M932.8,682.94a14,14,0,0,1-1.68.65,18.83,18.83,0,0,1-7.58.42,30.27,30.27,0,0,1-6.45-6.48c-.23-.35-.45-.69-.68-1.07A40.58,40.58,0,0,0,932.8,682.94Z"></path><path class="cls-30" d="M932.53,664.37c-3.47-8.84-6.21-27.1-12.58-37s-18.45-9.68-24.89-7.13c2.51-3.62,6.63-5.87,12.92-6,8.69-.12,14.15,3.09,19.22,18C931.24,644.21,931.85,656.37,932.53,664.37Z"></path><rect class="cls-25" x="334.21" y="594.27" width="93.09" height="3.67"></rect><rect class="cls-25" x="266.12" y="916.18" width="93.09" height="3.67"></rect><rect class="cls-25" x="278.5" y="851.8" width="93.09" height="3.67"></rect><rect class="cls-25" x="290.88" y="787.42" width="93.09" height="3.67"></rect><rect class="cls-25" x="306.7" y="723.04" width="93.09" height="3.67"></rect><rect class="cls-25" x="319.77" y="658.66" width="93.09" height="3.67"></rect><path class="cls-25" d="M349.41,964.29h0a4.46,4.46,0,0,0,5.29-3.46l83.11-397.22a4.47,4.47,0,0,0-3.46-5.29h0a4.47,4.47,0,0,0-5.3,3.46L346,959A4.46,4.46,0,0,0,349.41,964.29Z"></path><path class="cls-25" d="M258.61,964.29h0a4.47,4.47,0,0,0,5.3-3.46L347,563.61a4.46,4.46,0,0,0-3.46-5.29h0a4.46,4.46,0,0,0-5.29,3.46L255.15,959A4.47,4.47,0,0,0,258.61,964.29Z"></path><path class="cls-27" d="M334.76,463.32v.08c-.57,1.06-1.21,1.59-2,1.59-8.28-.19-29.27-18.08-29.27-18.08a14.31,14.31,0,0,0,3.59-2.35A23.69,23.69,0,0,0,312.4,438a28.56,28.56,0,0,0,3.33-14.22s-5.86,8.66-11,12.4S292,440.25,292,440.25s3.78-1.17,9.49-6.39h0a72.25,72.25,0,0,0,5.83-6.05c8.88-10.41,3.14-29.89,11.84-39.08a13.68,13.68,0,0,1,8.92-4.42c4.73-.34,9.46,2.11,12,8.05C340.09,392.36,340.92,452.54,334.76,463.32Z"></path><path d="M338.84,392s-3.32,59.77-4.08,71.3v.08c-.57,1.06-1.21,1.59-2,1.59-8.28-.19-29.27-18.08-29.27-18.08a14.31,14.31,0,0,0,3.59-2.35,21.35,21.35,0,0,0,12.75-3.93c8.92-5.9,4.12-11.73,3.17-28.83S332.72,391.76,338.84,392Z"></path><path class="cls-31" d="M325.63,404.49c-1.7,6.69-1.23,18.33,11.89,20.7s4.26-14.37,2.25-15.73S325.63,404.49,325.63,404.49Z"></path><path class="cls-17" d="M345.31,443.39C344,444.86,334,443,332.94,441.5s1.93-11.5,3.67-17.18c.19-.56.34-1.09.49-1.55v-.18a1.58,1.58,0,0,1,1.9-1.71.23.23,0,0,1,.15,0,3.16,3.16,0,0,1,1.4.64c2.11,1.48,4.61,5.15,4.5,7.95,0,.45,0,1,0,1.55.11,1.7.37,3.89.56,6C345.88,440,346,442.63,345.31,443.39Z"></path><path class="cls-10" d="M345.09,431.06c.11,1.7.37,3.89.56,6a15.9,15.9,0,0,0-3.29-5.4,13.44,13.44,0,0,1-3.48-6c-.15-.91-1.36-.8-2.27-1.33.19-.56.34-1.09.49-1.55v-.18a9.89,9.89,0,0,1,2.24-.84,4.32,4.32,0,0,1,1.21-.19,5.19,5.19,0,0,1,2.46.38c3.36,1.48,2.61,2.95,5.44,7.34a5.87,5.87,0,0,1,.87,3.59A27.33,27.33,0,0,1,345.09,431.06Z"></path><path class="cls-17" d="M356.32,433.78c-1.36.49-4.12.08-7-.91a27.33,27.33,0,0,1-4.23-1.81c-2.31-1.25-4.13-2.73-4.51-4.16-.3-1.1-.75-2.95-1.24-5.15,0-.26-.12-.53-.19-.83-1.18-5.29-2.42-12-2-13.62.61-2.42,17.18-6.84,17.18-6.84.49.87.9,1.74,1.32,2.64a37,37,0,0,1,1.32,3.52C360.93,418.76,359.08,432.76,356.32,433.78Z"></path><path class="cls-17" d="M338.86,414.69c-3.43-2-6.06,0-6.36,2.73a6.28,6.28,0,0,0,6.87,6C344.42,423.07,338.86,414.69,338.86,414.69Z"></path><path class="cls-10" d="M357,406.62c-.75-.15-1.89-.6-3.25-.87-2.27-.49-7,1.1-12.33,4.13,0,0,3.1-5.75,6.35-7.08,2.95-1.17,5.37-.57,7.91.3A37,37,0,0,1,357,406.62Z"></path><path class="cls-31" d="M356.21,404.2c-.38.46-2.69-1.55-8.89,1.67a17.66,17.66,0,0,0-1.7.94c-5.72,3.48-7.83,7.38-7.83,7.38l-12.15-9.72c3-11.05,10.93-13.7,17.4-12.52a15,15,0,0,1,6.13,2.53C355.41,399,356.62,403.67,356.21,404.2Z"></path><path class="cls-32" d="M347.25,621.67c-14.35,15.55-40,44.65-42.63,58.18s1,22-1.62,21.82-13.53-18.79-12.32-21,8.28-6.26,10.91-14.14,12.12-41.42,32.12-58.59,20.41-16.16,20.41-16.16Z"></path><path class="cls-17" d="M364.41,613.19c-2.61,10.1-18.57,74.14-17,83.63s12.14,10.52,12.33,11.73-23.83,2.42-24.43,1,4.65-10.1,4-18.61-2.23-31.32-.41-52.13,11.12-40,11.12-41c0-.53-4-7.07-7.87-13.81-.45-.71-.87-1.47-1.29-2.19-3.29-5.79-6.16-11.27-6-12.67.42-3.25,26.29,8.06,26.29,8.06q.8,2.49,1.47,4.76c1,3.63,1.82,6.85,2.35,9.72C366.68,600.4,366.23,606.34,364.41,613.19Z"></path><path class="cls-33" d="M317.44,714c-.16.76-5.68,2.84-11.58,2.42a16.52,16.52,0,0,1-5.79-1.32c-7.3-3.18-16.6-21.67-17.74-24.06a.15.15,0,0,0,0-.07c-1-2.12,4.23-9.19,8.7-11,0,0,11.68,15.36,12.59,16.45s.53,1.67,1.14,4.77a4.54,4.54,0,0,0,.79,1.74c2.08,3.44,7.91,7.49,10.55,9.68C316.94,713.27,317.47,713.77,317.44,714Z"></path><path class="cls-33" d="M382.31,714.48c-.46.69-2.58,1.9-5.45,3.26h-.08a66,66,0,0,1-14.67,5c-6.77,1.21-21.19.19-26.33-.75a6.62,6.62,0,0,1-1.78-.46c-1.81-1-.3-7.6,1.44-13.05,0,0,16.53,1.4,22.73-.79a34.59,34.59,0,0,1,6.4,1.1,149.79,149.79,0,0,1,14.71,4C381.32,713.46,382.57,714.11,382.31,714.48Z"></path><path class="cls-32" d="M348.46,448.8c7.81,4.71,22.49,20.74,26.26,21.55s12.8-.81,17.11.81-13.34,11.58-20.21,10.5-17.5-13.33-19.66-18.32S348.46,448.8,348.46,448.8Z"></path><path class="cls-34" d="M449.33,455.38s-.07,0-.11.08c-3.22,2.34-7.3,5-12.14,8-4.47,2.77-9.61,5.79-15.32,8.93v0h0c-4.27,2.38-8.85,4.92-13.69,7.53-1.74.94-3.56,1.85-5.37,2.83-12.56,6.55-26.75,13.54-41.8,20.58-28.9,13.5-55.53,24.51-74.93,31.28-18.31,6.39-30.15,9-31.4,6.36-2.57-5.49,40.93-31.21,97.06-57.46q7.21-3.35,14.15-6.47c11.72-5.29,22.85-10.1,33.1-14.26,2.15-.87,4.27-1.74,6.35-2.53s4.12-1.59,6.09-2.35v0c7.6-3,14.53-5.44,20.58-7.45s11-3.4,15.17-4.35a1,1,0,0,1,.34-.07c6.16-1.44,9.91-1.48,10.59-.08C458.68,447.55,455.54,450.84,449.33,455.38Z"></path><path class="cls-35" d="M437.08,463.47v.16a18.63,18.63,0,0,1-2.69,9.79l-12.33-.87a.91.91,0,0,1-.3-.11h0c-4.27,2.38-8.85,4.92-13.69,7.53a19.07,19.07,0,0,1-9.16-15.36c0-.3,0-.64,0-1v-.8c2.15-.87,4.27-1.74,6.35-2.53s4.12-1.59,6.09-2.35v0c0-.11,0-.15,0-.22.42-4.47,3.59-9,8.66-13.09a19,19,0,0,1,11.92,5.86A18.82,18.82,0,0,1,437.08,463.47Z"></path><path class="cls-10" d="M411.44,458.52c-2.29,2.84,1.65,18.2,7.8,17.41s13.24-2.36,9.14-5.83S411.44,458.52,411.44,458.52Z"></path><path class="cls-34" d="M482.7,430.53a.92.92,0,0,1-.08.26,3.25,3.25,0,0,1-.53.68c-1.17,1.25-4,3.33-7.53,6.25-1.32,1.09-2.76,2.26-4.27,3.63-.76.64-1.51,1.36-2.27,2.08s-1.55,1.43-2.31,2.19a69,69,0,0,0-9.27,11.31c-.45.68-.9,1.4-1.32,2.12a28.34,28.34,0,0,1-5,6.35,31.58,31.58,0,0,1-10.78,6.7,26.4,26.4,0,0,1-4.92,1.32,23.58,23.58,0,0,1-12.33-.87.91.91,0,0,1-.3-.11h0a16.85,16.85,0,0,1-10-10.44,5.46,5.46,0,0,1-.26-1,7.44,7.44,0,0,1-.19-3v0c0-.11,0-.15,0-.22.42-4.47,3.59-9,8.66-13.09a51.65,51.65,0,0,1,9.69-6.32c.56-.3,1.13-.6,1.7-.87s1.32-.64,2-1c14.53-6.62,33.59-10.06,49-6.24.12,0,.23.07.27.15A.28.28,0,0,1,482.7,430.53Z"></path><path class="cls-36" d="M482.7,430.53a.92.92,0,0,1-.08.26,3.25,3.25,0,0,1-.53.68c-1.17,1.25-4,3.33-7.53,6.25-1.36,1.09-2.8,2.3-4.27,3.63-.76.64-1.51,1.36-2.27,2.08s-1.55,1.43-2.31,2.19a69,69,0,0,0-9.27,11.31c-.45.68-.9,1.4-1.32,2.12a28.34,28.34,0,0,1-5,6.35c1-2.83.45-6.31.08-8.36a3,3,0,0,0-.95-1.58c-1.25-1.18-3.4-1.67-4.35-4.39-.45-1.44.87-3.22,2.5-5s3.32-3.41,4.08-4.88a2.12,2.12,0,0,0,.08-2.35c-2.31-2.95-2.31-.64-11.09.46-3.78.45-7.07-.31-9.11-1.86.64-.34,1.32-.64,2-1a87.21,87.21,0,0,1,25.08-7.11,63.52,63.52,0,0,1,23.9.87,1.44,1.44,0,0,1,.16.07s.07,0,.11.08A.28.28,0,0,1,482.7,430.53Z"></path><path class="cls-36" d="M480.58,484.88a4.53,4.53,0,0,1-3.1.16c-7.12-1.93.71-15.51-.46-23.68l0,0a2,2,0,0,0,0-.42c-1.48-7.79-2.39-11.91-1.06-10.1C487.65,467,486.63,482.54,480.58,484.88Z"></path><path class="cls-10" d="M365,591.7c-.64-.87-1.44-1.93-2.38-3.21-2.76-3.63-14.34-2.61-20.43-4.47-.45-.71-.87-1.47-1.29-2.19,4.54-.68,16.12-2.08,21.75.15C363.7,585.61,364.49,588.83,365,591.7Z"></path><path class="cls-28" d="M402.66,482.8c-12.56,6.55-26.75,13.54-41.8,20.58-28.9,13.5-55.53,24.51-74.93,31.28,18-14.37,51.51-36.12,70.81-42.1C372.58,487.68,390.74,483.37,402.66,482.8Z"></path><path class="cls-37" d="M372.28,583.68c-1.21.8-38,4.05-44.44-6.27S321.6,552.78,323.6,534c0-.45.11-.91.15-1.32,0,0,0,0,0-.08,2.16-18,7.72-30.71,7.49-37.79-.15-5.82-2.38-14.1-3.18-24.7-.19-2.61-.3-5.37-.26-8.24.22-14.53,3.59-25.46,4.8-24.85,9.72,4.88,12.33,1.62,16.76,7.3s9.15,12.93,11.8,20c1.32,3.55-.19,7.15-1.89,11.76a50.27,50.27,0,0,0-2.88,9.91v0a35.16,35.16,0,0,0-.49,7.6c.61,14.94,7.87,34.54,12.52,60.22S373.49,582.89,372.28,583.68Z"></path><path class="cls-38" d="M359.31,476a50.27,50.27,0,0,0-2.88,9.91c-2-7.49-5.56-7.71-13.95-14.9-9.57-8.13-11.24-13.24-10.18-18.69C332.3,452.35,352.39,466.69,359.31,476Z"></path><path class="cls-28" d="M478.84,434.27c-5.83,4.66-16.95,13.17-23.72,24.78a28.34,28.34,0,0,1-5,6.35,31.58,31.58,0,0,1-10.78,6.7,26.4,26.4,0,0,1-4.92,1.32,23.58,23.58,0,0,1-12.33-.87,1.12,1.12,0,0,1-.34-.11,16.85,16.85,0,0,1-10-10.44,5.46,5.46,0,0,1-.26-1c8.59,7.75,30.87,2.19,38.35-7C456.63,445.7,472,435.9,478.84,434.27Z"></path><path class="cls-17" d="M434.35,473.57c.12,1.25-53,16.84-59,15.89s-30.82-19.29-37.94-26.17c-6.35-6.17-6.58-12.18-3.89-14.57,7.22-6.39,41.3,29.7,42.67,30,1.13.26,5.86-3,15.2-3.56a44.77,44.77,0,0,1,5.11-.07c12.82.57,17,.15,18.19-.11s5.3-3.56,12.49-2.77c.6.08,1.13.12,1.62.19C434.13,472.93,434.32,473,434.35,473.57Z"></path><path class="cls-10" d="M428.83,472.36a31.58,31.58,0,0,0-12.37,3.56c-3.14,1.66-15.66,1.51-25-.8a44.77,44.77,0,0,1,5.11-.07c12.82.57,17,.15,18.19-.11s5.3-3.56,12.49-2.77C427.81,472.25,428.34,472.29,428.83,472.36Z"></path><path class="cls-38" d="M335.18,498.24c-.8,5.52-7.23,21-11.39,34.34,2.16-18,7.72-30.71,7.49-37.79-.15-5.82-2.38-14.1-3.18-24.7C332.07,483.07,336.16,490.9,335.18,498.24Z"></path><path class="cls-28" d="M376.78,717.74a66,66,0,0,1-14.67,5c-6.77,1.21-21.19.19-26.33-.75,7-3.26,20.46-3.14,25.68-2.65C366.38,719.74,374.4,718,376.78,717.74Z"></path><path class="cls-28" d="M305.86,716.41a16.52,16.52,0,0,1-5.79-1.32c-7.3-3.18-16.6-21.67-17.74-24.06,2.92,3.33,14.26,14.45,17.44,18.8A33.07,33.07,0,0,0,305.86,716.41Z"></path><path class="cls-29" d="M316.07,712.59a10.1,10.1,0,0,1-3.06,0c-4.69-.56-7.34-6.12-7.49-9.68C307.6,706.35,313.43,710.4,316.07,712.59Z"></path><path class="cls-29" d="M379.28,712.71c-.08.34-.49.68-1.4,1-4,1.25-9.19-2-13.31-5A149.79,149.79,0,0,1,379.28,712.71Z"></path><path class="cls-39" d="M405.19,460.3c-1.7,1.25-3.9,2.72-6.32,4.31-11.23,7.26-28,16.42-31.16,14.94a4,4,0,0,1-2-2.46c11.72-5.29,22.85-10.1,33.1-14.26C401,462,403.11,461.09,405.19,460.3Z"></path><path class="cls-39" d="M482.51,430.26c-4.13,1-17.4,1-24.06-.94a63.52,63.52,0,0,1,23.9.87A1.44,1.44,0,0,1,482.51,430.26Z"></path><path class="cls-28" d="M480.58,484.88a4.53,4.53,0,0,1-3.1.16c-7.12-1.93.71-15.51-.46-23.68C479.48,469,471.54,482.8,480.58,484.88Z"></path><path class="cls-30" d="M316.34,404.77c.83,12.22-7.76,29.88-14.83,29.09a72.25,72.25,0,0,0,5.83-6.05c8.88-10.41,3.14-29.89,11.84-39.08a13.68,13.68,0,0,1,8.92-4.42C321.56,386.92,315.54,393.46,316.34,404.77Z"></path><path class="cls-30" d="M356.21,404.2c-.38.46-2.69-1.55-8.89,1.67.38-.95,2.42-2.88,4.39-5.22s-4-6.32-8.67-8.7a15,15,0,0,1,6.13,2.53C355.41,399,356.62,403.67,356.21,404.2Z"></path><rect class="cls-40" x="588.98" y="499.71" width="173.36" height="116.79" rx="2.94"></rect><path class="cls-41" d="M698.3,616.35v.15H591.06a2.08,2.08,0,0,1-2.08-2.08V598.36a2.25,2.25,0,0,1,.5-1.39l25.14-28.88,16.46-18.9a2.08,2.08,0,0,1,3.08-.07l11.13,11.64,7.87,8.29,1.34,1.38L656,572l5.51,5.8,1.31,1.38,2.37,2.49Z"></path><path class="cls-42" d="M762.34,585V614.3a2.19,2.19,0,0,1-2.2,2.2H636a2.21,2.21,0,0,1-1.74-3.56l19.57-25.16.43-.55,7.33-9.4.45-.57,11.41-14.63,32-41.08a2.23,2.23,0,0,1,3.43-.07l16.33,19.11,36.66,43A2.22,2.22,0,0,1,762.34,585Z"></path><circle class="cls-6" cx="658.69" cy="524.81" r="9.25"></circle><path class="cls-42" d="M700.64,616.5a1.85,1.85,0,0,1-.48.07l-1.86,0v-.12H624.21a2,2,0,0,1-1.57-3.18l28.21-38,3.65-4.92,9.43-12.67a2,2,0,0,1,2.81-.39l6.66,5.26,1.77,1.38a2,2,0,0,1,.53.62L677,567l24.88,46.62A2,2,0,0,1,700.64,616.5Z"></path><path class="cls-15" d="M722.05,553.13c.19,4.17-11.75-11.53-14.54-13.13s-12.72,26.85-16.11,29.24-6.56-7.55-10.93-5A20.45,20.45,0,0,0,677,567a62,62,0,0,0-10.43,13.15,3.12,3.12,0,0,1-1.33,1.51c-.89.38-1.6-.79-2.37-2.49-.28-.59-.55-1.26-.86-2a19.39,19.39,0,0,0-2-3.85,3.41,3.41,0,0,0-4-1.38,14.36,14.36,0,0,0-5.18,3.32l3.65-4.92,9.43-12.67a2,2,0,0,1,2.81-.39l6.66,5.26,32-41.08a2.23,2.23,0,0,1,3.43-.07l16.33,19.11a37.41,37.41,0,0,0-5.7-1C715.27,539.4,721.83,549,722.05,553.13Z"></path><path class="cls-15" d="M645.29,560.76c-3-.76-6.9-2.26-8.19-2.26-2.17,0-2.58,11.33-6.16,13.12s1-10.93-1.6-13.12c-1.81-1.53-9.16,5.51-14.72,9.59l16.46-18.9a2.08,2.08,0,0,1,3.08-.07Z"></path><path class="cls-17" d="M624.36,643.76c-4.18,11.87-11.86,22.17-11.68,22.84s11.37-2.67,23.9-3.6c0,0-2.36,13.42-3.16,14a1.36,1.36,0,0,1-.53.13c-1.33.23-4.93.49-9.2.67-8.44.31-19.41.31-20.39-.93-1.55-2-4.17-4.58,1.87-19.86,6-15,19.86-31.86,25.46-41.86s17.19-20,18.12-14.39-8.44,13.77-8.75,14.71,5,.62,5,1.42-9.68,2.93-11.91,4.84S628.58,631.9,624.36,643.76Z"></path><path class="cls-17" d="M754.18,676.91c-1,1.29-12.75,1.24-21.28.89-3.86-.18-7.06-.4-8.31-.63a1.42,1.42,0,0,1-.53-.13c-.8-.62-3.11-14-3.11-14,12.49.93,23.73,4.22,23.9,3.6,0-.84-7.55-11.06-11.73-22.84s-6.57-20.12-8.75-22-11.86-4.09-11.86-4.84,5.29-.49,5-1.42-9.69-9.07-8.76-14.71,12.53,4.4,18.13,14.39,19.55,26.88,25.46,41.86C758.36,672.33,755.78,674.86,754.18,676.91Z"></path><path class="cls-17" d="M669.28,922.82c0,.94-.09,2.4-.22,4,0,.17,0,.35,0,.57-.35,4.54-1,10.18-1.55,11-.8,1.15-8.22,1.29-8.62-1.42a59.36,59.36,0,0,1-.14-7c0-1.73,0-3.51.14-5.15a33.77,33.77,0,0,1,.49-5.42C659.86,918.38,669.28,922.82,669.28,922.82Z"></path><path class="cls-17" d="M725.57,940.28s-8.31.36-9-.35-.18-9.55-.05-12.4a1.74,1.74,0,0,0,.05-.49,1,1,0,0,1,.49-.79s.13,0,.17-.09a2.31,2.31,0,0,1,.8-.4l.27-.14c2.44-.75,6.66-.62,7.24.63a16,16,0,0,1,.4,4A61.55,61.55,0,0,1,725.57,940.28Z"></path><path class="cls-18" d="M668.12,951.13c-1.6,1.2-9.68,1.24-14.12.75,0,0,0,0,0,0-1.73-.22-2.89-.53-2.93-.89-.22-1.29,5.51-14.66,7.37-15s10.18-.49,10.31,0a37.65,37.65,0,0,1,.67,6.18C669.59,946,669.41,950.19,668.12,951.13Z"></path><path class="cls-18" d="M727,951.75a13.61,13.61,0,0,1-3.38.49c-4.13.35-10.62.44-11-.36-.75-1.42.14-7.51,1.38-11.86.62-2.4,1.38-4.27,2-4.53.8-.36,9.73-.4,10.4,0C729.13,937.26,728.1,950.81,727,951.75Z"></path><path class="cls-10" d="M669.77,927a1.18,1.18,0,0,1-.76.4c-2,.72-9.36.26-10.31,2.58,0-1.73,0-3.51.14-5.15a83.09,83.09,0,0,1,10.22,2C669.5,927,669.77,927,669.77,927Z"></path><path class="cls-10" d="M726,930.2c-.3-2.64-7.15-2-9.42-2.67a4.21,4.21,0,0,1-.93-.4,10.88,10.88,0,0,1,1.47-.88s.13,0,.17-.09a6,6,0,0,1,.8-.4l.27-.14c2.44-.75,6.66-.62,7.24.63A16,16,0,0,1,726,930.2Z"></path><path class="cls-43" d="M725.88,926.25a.14.14,0,0,1-.09,0c-1.64,1-9.73,1.47-10.57,1s-9.86-76.11-9.86-76.11c-1.16-14-15.78-73.31-16.13-75.18v0c-.27-1.42-7.78,28.57-9.15,39.36s.22,20.35.44,33.73S670,926.11,669.77,927s-10.58,0-11.95,0,.22-51,.93-66.77c.62-13.91-2.44-60.56,2.09-94.64.58-4.4,1.29-8.57,2.13-12.44,0,0,7.06-.18,15.77.18,12.35.53,28.08,2.27,31.77,7.33,6.35,8.66,9.15,36.3,9.15,55s6.31,25.77,8.44,40.07S727.39,925.18,725.88,926.25Z"></path><path class="cls-10" d="M732.9,677.8c-3.86-.18-7.06-.4-8.31-.63,1.74-5.37,5-12.93,5-12.93C731.21,667.13,728.33,676.65,732.9,677.8Z"></path><path class="cls-10" d="M624.63,677.8c5.15-2.09,5-12.31,7.06-13.56,0,0,.71,8.27,1,13Z"></path><path class="cls-44" d="M698.78,762c-11.08,3.24-33.76-5.65-37.94,3.64.58-4.4,1.29-8.57,2.13-12.44,0,0,7.06-.18,15.77.18C687.81,757.19,698.78,762,698.78,762Z"></path><path class="cls-45" d="M702,687.7c-3.28,9.78-6.13,27.15-5,32.44,1.56,7.37,16.58,38.61,14.71,42.83-.58,1.33-5.69,1.24-12.4.4-14.26-1.69-35.9-6.67-36.83-7.73-1.38-1.6,4.71-30.48,6.4-39.86a20.65,20.65,0,0,0-.22-6.88c-1.29-7.78-5.29-17.95-8.13-23.95a42.29,42.29,0,0,0-2.49-4.67.42.42,0,0,1-.09-.13c-1.82-2.44-18.44-1.69-25.55-1.91-1.95,0-3.15-.13-3.2-.4-.13-1.24,1.6-14.08,2.67-14.84s25.15-4.53,47.81-4.71,48.51,4,49.85,5.15-.32,12.84-.8,14.22-18.44,2.18-22.8,3.29c-1.2.31-2.57,2.93-3.86,6.66C702.07,687.66,702,687.66,702,687.7Z"></path><path class="cls-27" d="M692.07,645.54a34.19,34.19,0,0,0,4.8,9.77,24.56,24.56,0,0,0,7.82,6.58,14.86,14.86,0,0,1-3.24,5.11c-2.31,2.49-6.27,5.46-12.58,7.69-13.42,4.71-19,1.73-19,1.73S667,675,663.41,660.47c-2.44-10-5-31.37,1-43.32a14.71,14.71,0,0,1,7.24-7.38h0a14.27,14.27,0,0,1,6.75-1.15c13.11.62,18.13,31.41,23.9,37.19a21.5,21.5,0,0,0,7.51,5h0a11.87,11.87,0,0,0,3.69.93s-6.89,3.11-12.67.62A23,23,0,0,1,692.07,645.54Z"></path><path class="cls-46" d="M711.71,763c-.58,1.33-5.69,1.24-12.4.4,4.49-4.49,3.34-17.46-3-28.57-7-12.31-3.82-28,5.73-47.1-3.28,9.78-6.13,27.15-5,32.44C698.56,727.51,713.58,758.75,711.71,763Z"></path><path class="cls-28" d="M668.12,951.13c-1.6,1.2-9.68,1.24-14.12.75,4.44-1.42,12.75-5.42,15.37-9.68C669.59,946,669.41,950.19,668.12,951.13Z"></path><path class="cls-28" d="M723.57,952.24c-4.13.35-10.62.44-11-.36-.75-1.42.14-7.51,1.38-11.86C715.57,945.44,719.53,950.46,723.57,952.24Z"></path><path class="cls-44" d="M725.84,925.62a.7.7,0,0,1-.05.67c-1.64,1-9.73,1.47-10.57,1s-9.86-76.11-9.86-76.11c-1.16-14-15.78-73.31-16.13-75.18v0c.53-2.13,1.55-3,2.35-3,1,0,21.86,64,24.26,77.36s-1.86,67.17,2,70.33S724.55,922.47,725.84,925.62Z"></path><path d="M701.45,667c-2.31,2.49-6.27,5.46-12.58,7.69-13.42,4.71-19,1.73-19,1.73S667,675,663.41,660.47c-2.44-10-5-31.37,1-43.32C665.48,664.89,676,680.26,701.45,667Z"></path><path class="cls-30" d="M709.84,650.83c-4.53.26-10.13-2.58-15.37-14.09-11-24.12-15.51-26.48-22.79-27a14.27,14.27,0,0,1,6.75-1.15c13.11.62,18.13,31.41,23.9,37.19A21.5,21.5,0,0,0,709.84,650.83Z"></path><path class="cls-46" d="M668.7,709s0-.09,0-.13c-1.29-7.78-5.29-17.95-8.13-23.95a42.29,42.29,0,0,0-2.49-4.67.42.42,0,0,1-.09-.13c-1.82-2.44-18.44-1.69-25.55-1.91,6.13-2.31,20.71-5.51,25.68-3C661.55,677,669.46,705.61,668.7,709Z"></path><path class="cls-27" d="M1148,632.79c2.91,4.19,8.72,8.51,8.72,8.51l.52-.39c9.66-7,11.33-12.23,9.28-19.67-.09-.26-.13-.47-.22-.69-2.35-6.75-9.58-4.91-9.58-4.91s-5.94,6.58-8.25,11.89C1147.52,629.66,1147.13,631.59,1148,632.79Z"></path><path d="M1152.78,636.16c.08,1,1.79,3.08,4.45,4.75,9.66-7,11.33-12.23,9.28-19.67-.09-.26-.13-.47-.22-.69.17,7.62-7.22,11.59-12.91,12.45A5.2,5.2,0,0,0,1152.78,636.16Z"></path><path class="cls-17" d="M1148.37,646.56a13,13,0,0,1,.82,2c.38,1.41.81,3.21,1.19,4.92.6,2.57,1.16,5,1.71,5.69,1.07,1.41,12.28-5.6,12.45-7.31.08-1.41-5-8.94-8-12.92l-.9-1.15c-.3-.35-.51-.64-.73-.86,0,0-.12.13-.42.39-.47.47-1.37,1.36-2.31,2.39C1150,642,1147.52,645.15,1148.37,646.56Z"></path><path class="cls-10" d="M1143.16,648.57a5.17,5.17,0,0,0,1.79,4.36,14.45,14.45,0,0,0,4.24-4.41c.38,1.41.81,3.21,1.19,4.92a10.42,10.42,0,0,1,1.42-4.66c1.58-2.39,1.71-5.6,1.79-6.76,0-1,2.23-1.49,2.91-3.12a1.35,1.35,0,0,0,.21-.6,10.82,10.82,0,0,0-1.11-.55l-1.15-.47a12.36,12.36,0,0,0-2.31-.39,5.13,5.13,0,0,0-2.7.6C1146.32,639.24,1143.88,644.12,1143.16,648.57Z"></path><path class="cls-17" d="M1137.47,654a8.15,8.15,0,0,0,7.48-1.07,14.45,14.45,0,0,0,4.24-4.41,18.36,18.36,0,0,0,3-8.85,5.84,5.84,0,0,0,0-.81c0-.64,0-1.28,0-2-.26-7.91-2-17.45-3.47-18.09a70,70,0,0,0-7.18-1.5l-.17,0c-1.41-.21-2.83-.47-4.19-.73H1137l-6.33-1c-.21.6-.43,1.24-.6,1.92a32,32,0,0,0-1,5.22C1127.63,635.18,1131.1,651.69,1137.47,654Z"></path><path class="cls-17" d="M1151.35,632.19c2.57-3.61,5.6-3.14,6.65-1.28s-1.17,9.68-6.53,9.21S1151.35,632.19,1151.35,632.19Z"></path><path class="cls-10" d="M1129.13,622.65c2.44.34,4.95-.66,6.75-.7,2.52-.09,6.59,1.51,11.89,4.38,0,0-2.22-6.46-5.68-8.68a5.45,5.45,0,0,0-.6-.35l-.17,0a10.54,10.54,0,0,0-4.19-.73H1137a60.11,60.11,0,0,0-6.93.9A32,32,0,0,0,1129.13,622.65Z"></path><path class="cls-27" d="M1130.11,620.17c3.17.47,8.77-.56,13.22,2.57a31.67,31.67,0,0,1,5.13,4.79,51.46,51.46,0,0,1,3.29,4.1l5-16c3-8-.51-13.73-6.28-15.19a13.63,13.63,0,0,0-2.23-.34,12.64,12.64,0,0,0-10.6,4.79s-8.64-10.82-14.24-1.49a14.79,14.79,0,0,0-1.33,3v0C1119.76,614.23,1127.33,619.74,1130.11,620.17Z"></path><path class="cls-47" d="M1144.63,708.41c-10.57.77-36.53,4.66-40.89.31-2.67-2.67,16.92-5.49,20.36-5.69,3.74-.22,21.69-2.4,22.24-2.4S1144.63,708.41,1144.63,708.41Z"></path><path class="cls-48" d="M1125.11,951.52c.17.47,1.54,1.84,6.46,3.21,1.49.43,3.29.81,5.51,1.24,2,.34,4.41.64,7.15.94,14.71,1.54,31-3.72,34.85-4.75.26-.08.47-.12.6-.17,2.35-.47-.22-19.58-1.63-21.68,0,0-8.64,2.57-10,4.19s-10.74,6.55-15.19,8.43c-3.07,1.28-15.39,4.62-22.53,6.75C1127.25,950.62,1125.11,951.31,1125.11,951.52Z"></path><path class="cls-48" d="M1075,971.58c.17,1.41,1.92,2.82,4.49,4.06,5.51,2.74,14.84,4.66,19.76,3.89,6.58-1.11,26.17-7.78,31.13-11.37a5.2,5.2,0,0,0,1-1c1.36-2.14,1.15-7.49.17-12.45a32.73,32.73,0,0,0-1.24-5.05c-.26-.77-.52-1.45-.77-2.09a59.6,59.6,0,0,1-7.7.47c-4.45,0-8.64,4.66-18.43,11.63S1074.52,967.18,1075,971.58Z"></path><path class="cls-40" d="M1158.64,940.66c.55.94,4.4,2,9.53-.56,3.17-1.62,6.85-4.66,10.57-10,9.66-14,8.47-89.85,8.47-100.76s17.1-64.66,10.9-82.37c0,0-1.24-.17-3.12-.38-4-.47-10.78-1.07-14.71-.35a2.47,2.47,0,0,0-.52.09c-.81.17-1.88,1.8-3.07,4.45-6,13.68-15.1,55.38-15.06,79.37a58.81,58.81,0,0,0,.43,7.61,155.85,155.85,0,0,1,.77,17.75C1162.74,887.89,1157.87,939.38,1158.64,940.66Z"></path><path class="cls-49" d="M1149.83,904a493.47,493.47,0,0,0,13-48.5c-.09,32.38-5,83.87-4.19,85.15.55.94,4.4,2,9.53-.56-1.06-1-2.56-2.09-4.06-3.37-4.45-3.77,5.52-72.71,4.62-85.54s22.2-63.25,24-84.5c0-.26,0-.47,0-.69,0,0-18.48,38.36-31.18,64.15-4.57,9.37-8.42,17.11-10.35,20.7C1146.92,859.15,1148.59,882.8,1149.83,904Z"></path><path class="cls-40" d="M1107.32,954.94c0,2.19,8.72,2.19,22.24-7.35,6.07-4.32,13.68-23.14,20.27-43.58a493.47,493.47,0,0,0,13-48.5,77.7,77.7,0,0,0,1.71-11c.21-9.19,21.08-47.94,28.23-77.87,1.79-7.44,2.69-14.33,2.22-20.1a24.78,24.78,0,0,0-1.24-6.46s-28.91-5.69-36.1.08l0,0a3.86,3.86,0,0,0-1.15,1.41c-1.59,3.25-4,17.49-6.33,34.13-3.6,25.1-7.19,55.72-8.3,62.26C1140,848.93,1107.32,952.76,1107.32,954.94Z"></path><path class="cls-49" d="M1150.13,775.8c2-5.14,5.47-17.32,10.35-20.92,3.2-2.39,9.58-3.76,16.21-4.1,6.32-.34,12.87.25,17.06,1.75-1.28-.68-6.93-3.51-13.43-6.29h0c-7.32-3.16-15.66-6.24-20.1-6.15-1,0-1.8.08-2.53.12l0,0a3.86,3.86,0,0,0-1.15,1.41C1154.87,744.92,1152.48,759.16,1150.13,775.8Z"></path><path class="cls-50" d="M1138.28,689.15v0a61.31,61.31,0,0,0,4.32,16.34l.39,1a82.22,82.22,0,0,1,2.73,8.08c.94,3.21,1.76,6.5,2.53,9.75v0c2.86,12.45,4.49,24.17,5.43,25.41,1.41,1.88,12.23-3.51,28.56-.69,9.33,1.59,13.18,4.71,15.1,7.1,1.54,1.8,2,3.21,2.87,3.21,2.09,0-2.57-25.49-8.17-40.89-5-13.85,0-23.9-7.14-44.3-.77-2.27-1.76-4.66-2.87-7.23-11.2-25.19-21.94-15.52-28.91-11.16C1142.47,662.51,1136.66,674.14,1138.28,689.15Z"></path><path class="cls-51" d="M983.62,649.07l37.83,73.39,7.76,15a2.23,2.23,0,0,0,2.76,1l63-25,22.58-8.92,16.15-6.42a2.21,2.21,0,0,0,1.16-3l-9.4-18.24-3.33-6.42-32.9-63.72a2.19,2.19,0,0,0-2.76-1L984.74,646.05A2.15,2.15,0,0,0,983.62,649.07Z"></path><path class="cls-52" d="M1138.71,721.27c1.92-1.63,4.36-3.94,7-6.63.94,3.21,1.76,6.5,2.53,9.75.42-2.78.94-6,1.66-8.85,1.46-5.86,16.55-15.78,21.77-24.46s4-23.53-2.14-28.74c0,0-2,3.29-5.09,8.25-2.78,4.62-6.45,10.69-10.17,16.85l-2.7,4.49c-3.21,5.35-6.24,10.52-8.59,14.63-1.5,2.65-2.74,4.83-3.51,6.33A11.3,11.3,0,0,0,1138.71,721.27Z"></path><path class="cls-17" d="M1046.29,732.82c1.5.51,19.93,1.32,27.11-2.1s56.28-3.55,62.4-7.27a27.26,27.26,0,0,0,2.91-2.18c1.92-1.63,4.36-3.94,7-6.63A180.57,180.57,0,0,0,1158.08,701c2.23-2.7,4.32-5.44,6.12-8,3-4.28,5.09-8.22,5.73-11.17,1.15-5.09-1.63-8.94-5.48-11.16-4.91-2.86-11.59-3-13.9.22-4.61,6.54-8.76,12.82-12.27,18.34v0c-7.31,11.47-11.72,19.51-11.72,19.51s-4.06-1.54-16.8,1.54-50.94,16.76-54.83,18.81S1044.84,732.3,1046.29,732.82Z"></path><path class="cls-10" d="M1119.09,703.27c1.25.76,2.06.86.7,1.66s-15.65,5.89-17.31,4.53S1119.09,703.27,1119.09,703.27Z"></path><path class="cls-53" d="M1086.62,686.2s3.51,15.91,8.38,27.29l22.54-8.94.43-.17,2.22-.9,13.51-5.35a2.21,2.21,0,0,0,1.16-3l-9.41-18.22c-4.87-2.31-11.37-5.43-17.4-8.3-8.9-4.19-16.85-7.91-17.41-7.83-.9.13-2.18,9.58-3.08,16.9-.17,1.37-.34,2.65-.43,3.8C1086.83,684.23,1086.62,686.2,1086.62,686.2Z"></path><path class="cls-10" d="M1118,704.38l2.22-.9a16.65,16.65,0,0,0-2.18-3.59C1117.2,701,1118.61,703.65,1118,704.38Z"></path><path class="cls-47" d="M1125.87,702.85c-6.11-1.05-7.75-3.83-8-3.08s1,4.8,4.67,4.93S1125.87,702.85,1125.87,702.85Z"></path><path class="cls-10" d="M1047.64,729.79c4.63,1.66,30.59-5.49,23.75-7.35S1047.64,729.79,1047.64,729.79Z"></path><path class="cls-54" d="M1021.44,722.47l7.79,15a2.19,2.19,0,0,0,2.73,1l30.11-11.93,2.7-1.07,30.23-12,22.54-8.94c-4.49-4-18.43-14.46-30.07-22.84-.08-.09-.25-.17-.34-.26-8.81-6.33-16.16-11.37-16.8-11.37-1.37.21-2.36,7-2.36,7s-26.34-14.71-28-13.56c-.81.56-5.43,15.23-9.92,30.11C1026.49,705.4,1023,717.29,1021.44,722.47Z"></path><path class="cls-10" d="M1062.11,726.14a1.29,1.29,0,0,0,0,.39l2.7-1.07a25.12,25.12,0,0,0-3.81-4C1060.62,723.19,1062.63,725,1062.11,726.14Z"></path><path class="cls-17" d="M1073,723.39c-5.72.43-11.72-2.67-12.09-1.9s3,4.49,6.16,4.57S1073,723.39,1073,723.39Z"></path><path class="cls-55" d="M1142.56,683c0,2.23,10.82,10.48,14.32,12.92,1.76,1.2,1.67,3.33,1.2,5.05,2.23-2.7,4.32-5.44,6.12-8C1158.89,688.38,1142.56,683,1142.56,683Z"></path><path class="cls-56" d="M1166.55,659.59c-13.43-7.33-25,21.57-24.52,23.44S1160.64,696,1162.2,696,1182.13,668.1,1166.55,659.59Z"></path><path class="cls-6" d="M1064.94,643c2.31,4.89,7.71,7.19,12.06,5.13s6-7.68,3.68-12.57-7.71-7.19-12.06-5.13S1062.63,638.06,1064.94,643Z"></path><path class="cls-6" d="M1030.07,693.66c3.28-1.94,9.62-7.65,9.62-7.65s9.33,13.92,10.26,14c1.87.13,5.6-14.44,5.6-14.44s20.06,10.49,20.85,10.26c2.87-.82-4.36-14.92-4.36-14.92s9.89,1.23,15.44.82l-.37-.26c-8.8-6.35-16.15-11.38-16.79-11.38-1.38.22-2.35,7-2.35,7s-26.34-14.7-28-13.54C1039.21,664.11,1034.58,678.77,1030.07,693.66Z"></path><path class="cls-6" d="M1087.56,677.65c1.38-.71,4.66-4.85,4.66-4.85a47.85,47.85,0,0,0,3.58,4.07c2-.53.34-9.33.34-9.33s6.72.82,11.9,1c-8.88-4.21-16.86-7.9-17.42-7.83C1089.76,660.86,1088.45,670.34,1087.56,677.65Z"></path><path class="cls-52" d="M1184.38,712.07c2.7,6.42,14.37,38.54,13,44.18,1.54,1.8,2,3.21,2.87,3.21,2.09,0-2.57-25.49-8.17-40.89-5-13.85,0-23.9-7.14-44.3C1185.71,688.55,1181.73,705.66,1184.38,712.07Z"></path><path class="cls-28" d="M1137.08,956c2,.34,4.41.64,7.15.94,14.71,1.54,31-3.72,34.85-4.75-6.89-1.06-20.1,1.8-26.69,2C1147,954.3,1140.12,954.9,1137.08,956Z"></path><path class="cls-28" d="M1079.48,975.64c5.51,2.74,14.84,4.66,19.76,3.89,6.58-1.11,26.17-7.78,31.13-11.37-8.47.73-29.55,8.6-33.66,7.74C1093,975.13,1082.9,975.09,1079.48,975.64Z"></path><path class="cls-29" d="M1149.48,944c-5.34,1.36-8.76,6.24-13.14,6.59s-7.29-1.1-4.73-2.41S1149.48,944,1149.48,944Z"></path><path class="cls-29" d="M1097.25,962.59c-3.77,2.36-8.65,7.34-13.28,7.24s-8.3-1.41-5.49-3S1097.25,962.59,1097.25,962.59Z"></path><path class="cls-30" d="M1122,606.4c3.51-3.34,9.67,1.24,14.63.94,4.66-.21,9.66-5.56,13.77-6.89a13.63,13.63,0,0,0-2.23-.34,12.64,12.64,0,0,0-10.6,4.79s-8.64-10.82-14.24-1.49A14.79,14.79,0,0,0,1122,606.4Z"></path><path class="cls-57" d="M1089.62,405.18c12.26,4.46,299.73,5.57,305.3-1.12s29-43.45,6.69-57.94-36.77,4.46-36.77,4.46,26.74-61.28-22.29-89.14-66.85,43.46-66.85,43.46-31.2-43.46-70.2-24.52-37.88,59.06-37.88,59.06-4.46-16.71-20.06-14.49-21.17,11.15-24.51,22.29,16.71,27.85,16.71,27.85a116.11,116.11,0,0,0-40.11-3.34C1078.48,374,1089.62,405.18,1089.62,405.18Z"></path><path class="cls-58" d="M236.49,642.45c-9,3.27-220.52,4.09-224.62-.82S-9.45,609.65,7,599,34,602.28,34,602.28s-19.67-45.09,16.4-65.59,49.19,32,49.19,32,23-32,51.64-18,27.88,43.45,27.88,43.45,3.28-12.3,14.75-10.66,15.58,8.2,18,16.4-12.3,20.49-12.3,20.49a85.43,85.43,0,0,1,29.51-2.46C244.69,619.49,236.49,642.45,236.49,642.45Z"></path><polygon class="cls-59" points="484.82 190.97 350.01 152.25 363.24 171.84 484.82 190.97"></polygon><polygon class="cls-60" points="484.82 190.97 363.24 171.84 361.43 220.66 484.82 190.97"></polygon><polygon class="cls-61" points="361.43 220.66 484.82 190.97 376.76 190.75 361.43 220.66"></polygon><polygon class="cls-59" points="395.94 228.09 484.82 190.97 376.76 190.75 395.94 228.09"></polygon><path class="cls-62" d="M162,383.43a1.15,1.15,0,0,0,.7-.23,1.18,1.18,0,0,0,.25-1.66,104.91,104.91,0,0,1-7.6-11.91,1.18,1.18,0,1,0-2.08,1.13A104.77,104.77,0,0,0,161,383,1.17,1.17,0,0,0,162,383.43Z"></path><path class="cls-62" d="M147.37,355.71a1.32,1.32,0,0,0,.39-.06,1.18,1.18,0,0,0,.73-1.51,99.7,99.7,0,0,1-3.62-13.65,1.2,1.2,0,0,0-1.39-.94,1.17,1.17,0,0,0-.94,1.39,101.14,101.14,0,0,0,3.71,14A1.19,1.19,0,0,0,147.37,355.71Z"></path><path class="cls-62" d="M142.1,323.24a1.18,1.18,0,0,0,1.18-1.17,88,88,0,0,1,2.28-18.48,1.19,1.19,0,0,0-2.31-.55,89.62,89.62,0,0,0-2.34,19,1.2,1.2,0,0,0,1.17,1.21Z"></path><path class="cls-62" d="M150.27,287.8a1.18,1.18,0,0,0,1.07-.68,86.21,86.21,0,0,1,7.86-13.32,1.19,1.19,0,0,0-1.93-1.38,88,88,0,0,0-8.07,13.68,1.18,1.18,0,0,0,.56,1.58A1.16,1.16,0,0,0,150.27,287.8Z"></path><path class="cls-62" d="M170.53,260.35a1.14,1.14,0,0,0,.81-.32,106.78,106.78,0,0,1,11.29-9.15,1.19,1.19,0,0,0-1.36-1.95,109.73,109.73,0,0,0-11.55,9.37,1.19,1.19,0,0,0-.05,1.68A1.17,1.17,0,0,0,170.53,260.35Z"></path><path class="cls-62" d="M196.86,241.87a1.21,1.21,0,0,0,.57-.15c4.93-2.67,10.15-5.18,15.51-7.46a1.19,1.19,0,0,0,.63-1.55,1.17,1.17,0,0,0-1.56-.63c-5.43,2.3-10.71,4.85-15.72,7.56a1.19,1.19,0,0,0,.57,2.23Z"></path><path class="cls-62" d="M229.56,228a1.18,1.18,0,0,0,.37-.05c7-2.3,14.48-4.38,22.13-6.18a1.19,1.19,0,0,0,.88-1.43,1.17,1.17,0,0,0-1.43-.88c-7.71,1.81-15.22,3.91-22.32,6.23a1.19,1.19,0,0,0,.37,2.31Z"></path><path class="cls-62" d="M268.45,218.42l.2,0A236.88,236.88,0,0,1,293,215.59a1.2,1.2,0,0,0,1.11-1.26,1.21,1.21,0,0,0-1.26-1.11,241.59,241.59,0,0,0-24.55,2.84,1.19,1.19,0,0,0,.19,2.36Z"></path><path class="cls-62" d="M335.56,216.15a1.18,1.18,0,0,0,.1-2.36c-9-.78-18.19-1.15-27.11-1.1a1.19,1.19,0,0,0,0,2.38h0c8.91,0,18,.31,26.9,1.08Z"></path><rect class="cls-7" x="1207.89" y="663.9" width="78.25" height="14.33" transform="matrix(0.36, -0.93, 0.93, 0.36, 173.7, 1594.85)"></rect><path class="cls-7" d="M1268.06,636.23l5.9-15.38a.94.94,0,0,1,1.57-.29,18.67,18.67,0,0,1-20.61,29.91,18.4,18.4,0,0,1-6.18-3.89,18.64,18.64,0,0,1,10.88-32.13.94.94,0,0,1,1,1.27l-5.9,15.38a1,1,0,0,0,.54,1.21l11.63,4.46A.93.93,0,0,0,1268.06,636.23Z"></path><path class="cls-7" d="M1238.37,693.62a18.66,18.66,0,0,1-4.7,36,.94.94,0,0,1-1-1.27l6.65-17.33a.92.92,0,0,0-.54-1.21l-11.63-4.47a1,1,0,0,0-1.21.54l-6.65,17.34a.94.94,0,0,1-1.57.29,18.68,18.68,0,0,1,20.62-29.91Z"></path><rect class="cls-7" x="229.81" y="691.03" width="11.18" height="61.08" transform="matrix(0.92, -0.4, 0.4, 0.92, -266.79, 152.47)"></rect><path class="cls-7" d="M228.14,690.65,223,678.84a.74.74,0,0,1,.72-1,14.64,14.64,0,1,1-12.22,5.27.74.74,0,0,1,1.24.19l5.09,11.8a.73.73,0,0,0,1,.38l8.93-3.85A.73.73,0,0,0,228.14,690.65Z"></path><path class="cls-7" d="M242.88,738.88a14.57,14.57,0,0,1,17,22.67.73.73,0,0,1-1.23-.19l-5.74-13.3a.73.73,0,0,0-1-.38l-8.93,3.85a.73.73,0,0,0-.38,1l5.74,13.31a.73.73,0,0,1-.71,1,14.57,14.57,0,0,1-4.82-27.94Z"></path></g></g></g></svg>