<svg xmlns="http://www.w3.org/2000/svg" xmlns:xlink="http://www.w3.org/1999/xlink" viewBox="0 0 4243.93 3078.66"><defs><style>.cls-1{isolation:isolate;}.cls-2{opacity:0.6;}.cls-19,.cls-2,.cls-26{mix-blend-mode:soft-light;}.cls-3{fill:#f99;}.cls-19,.cls-4{fill:#fff;}.cls-5{fill:url(#linear-gradient);}.cls-6{fill:url(#linear-gradient-2);}.cls-7{fill:#edeceb;}.cls-8{fill:#edcf85;}.cls-9{fill:#e6e6e6;}.cls-10{fill:#1f81c7;}.cls-11{fill:#5b5b5b;}.cls-12{fill:#b2b2b2;}.cls-13{fill:#4d4d4d;}.cls-14{fill:#5c5c5c;}.cls-15{fill:#ccc;}.cls-16{fill:#deb275;}.cls-17{fill:#ffcd8c;}.cls-18{fill:#b38358;}.cls-20{fill:#e8bb7f;}.cls-21{opacity:0.2;mix-blend-mode:hard-light;}.cls-22{fill:#c99d62;}.cls-23{fill:#199969;}.cls-24{fill:#069399;}.cls-25{fill:#50adb3;}.cls-26{fill:#070707;opacity:0.5;}.cls-27{fill:#cf2027;}.cls-28{fill:#a51924;}.cls-29{fill:#878787;}.cls-30{fill:#595959;}.cls-31{fill:#757575;}.cls-32{fill:#f7c19c;}.cls-33{fill:#149cc4;}.cls-34{fill:#38c2eb;}.cls-35,.cls-38,.cls-42,.cls-44{fill:none;stroke-miterlimit:10;}.cls-35{stroke:#fff;stroke-linecap:round;stroke-width:2.09px;}.cls-36{fill:#59d9ff;}.cls-37{fill:#16add9;}.cls-38{stroke:#cf2027;stroke-width:2.9px;}.cls-39{fill:#d9c561;}.cls-40{fill:#e8dc68;}.cls-41{fill:#fff39e;}.cls-42,.cls-44{stroke:#e8dc68;}.cls-42{stroke-width:1.96px;}.cls-43{fill:#e8db52;}.cls-44{stroke-width:2.43px;}.cls-45{fill:#adafb3;}.cls-46{fill:#cacdd1;}.cls-47{fill:#fff37c;}</style><linearGradient id="linear-gradient" x1="3722.08" y1="1159.13" x2="3066.93" y2="1540.56" gradientUnits="userSpaceOnUse"><stop offset="0" stop-color="#4694e2"></stop><stop offset="1" stop-color="#4f74ed"></stop></linearGradient><linearGradient id="linear-gradient-2" x1="3176.27" y1="1004.98" x2="3395.56" y2="1371.29" gradientUnits="userSpaceOnUse"><stop offset="0.24" stop-color="#ebbc60"></stop><stop offset="0.55" stop-color="#fff"></stop><stop offset="0.99" stop-color="#ffbc38"></stop></linearGradient></defs><g class="cls-1"><g id="Layer_2" data-name="Layer 2"><g id="Layer_3" data-name="Layer 3"><g class="cls-2"><rect class="cls-3" x="3511.91" y="-153.18" width="5" height="823.38" transform="translate(1790.68 3332.05) rotate(-64.92)"></rect><rect class="cls-3" x="2494.94" y="238.83" width="684.87" height="5" transform="translate(206.27 1330.48) rotate(-27.35)"></rect><rect class="cls-3" x="3211.08" y="76.15" width="5" height="668.35" transform="translate(-12.89 702.51) rotate(-12.45)"></rect><rect class="cls-3" x="2780.88" y="1244.97" width="5" height="883.72" transform="translate(-213.91 2955.22) rotate(-54.15)"></rect><rect class="cls-3" x="3745.1" y="457.86" width="5" height="1044.32" transform="translate(1133.82 3838.89) rotate(-62.22)"></rect><polygon class="cls-3" points="3476.76 1414.34 3477.73 1412.04 3891.03 431.87 3885.5 429.54 3884.53 431.84 3471.23 1412.01 3476.76 1414.34"></polygon><rect class="cls-3" x="1830.23" y="-431.37" width="5" height="1421.17" transform="translate(1249.47 2038.96) rotate(-80.32)"></rect><rect class="cls-3" x="2343.66" y="-44.58" width="5" height="522.17" transform="translate(554.2 1746.28) rotate(-45.76)"></rect><rect class="cls-3" x="1357.14" y="1581.25" width="744.92" height="5" transform="translate(-486.79 2350.16) rotate(-61.55)"></rect><rect class="cls-3" x="1489.79" y="1667.15" width="997.83" height="5" transform="translate(-559.79 1171.83) rotate(-28.96)"></rect><rect class="cls-3" x="1157.41" y="1322.47" width="755.9" height="5" transform="translate(-215.32 301.25) rotate(-10.48)"></rect><polygon class="cls-3" points="80.13 1220.19 758.8 686.18 755.69 682.29 77.02 1216.31 80.13 1220.19"></polygon><rect class="cls-3" x="562.39" y="193.78" width="5" height="562.6" transform="translate(-172.15 514.67) rotate(-43.14)"></rect><rect class="cls-3" x="623.97" y="417.56" width="641.56" height="5" transform="translate(51.69 941.06) rotate(-54.23)"></rect><rect class="cls-3" x="1145.48" y="159.59" width="5" height="1234.3" transform="translate(-19.36 29.41) rotate(-1.46)"></rect><rect class="cls-3" x="1234.26" y="244.01" width="5" height="963.31" transform="translate(397.89 1888.62) rotate(-84.6)"></rect><rect class="cls-3" x="1355.45" y="1328.9" width="5" height="647.13" transform="translate(-720.17 1146.4) rotate(-36.9)"></rect><rect class="cls-3" x="1839.75" y="1055.3" width="652.74" height="5" transform="translate(-196.76 1535.11) rotate(-37.45)"></rect><rect class="cls-3" x="1809.14" y="752.93" width="5" height="521.39" transform="translate(-245.27 733.25) rotate(-21.47)"></rect><rect class="cls-3" x="2420.87" y="795.5" width="869.12" height="5" transform="matrix(0.99, -0.14, 0.14, 0.99, -84.07, 411.17)"></rect><rect class="cls-3" x="2422.72" y="859.35" width="5" height="568.7"></rect><rect class="cls-3" x="1128.44" y="94.58" width="1034.48" height="5" transform="translate(0.37 200.26) rotate(-6.96)"></rect><rect class="cls-3" x="3463.19" y="1314.64" width="758.14" height="5" transform="translate(-206.37 990.98) rotate(-14.32)"></rect><rect class="cls-3" x="2993.16" y="1675.74" width="630.17" height="5" transform="translate(133.72 3597.45) rotate(-58.05)"></rect><rect class="cls-3" x="2068.25" y="457.96" width="5" height="714.43" transform="translate(1005.81 2769.26) rotate(-82.9)"></rect><rect class="cls-3" x="2242.62" y="626.5" width="473.2" height="5" transform="translate(1301.03 2899.25) rotate(-76.81)"></rect><polygon class="cls-3" points="2425.92 1431.89 2427.37 1430.72 3289.73 737.75 3285.43 732.4 2424.53 1424.21 1905.72 1252.21 1903.56 1258.72 1905.93 1259.51 2425.92 1431.89"></polygon><polygon class="cls-3" points="1165.63 1397.48 1166.72 1390.71 1164.26 1390.31 76.66 1214.45 75.56 1221.22 78.03 1221.62 1165.63 1397.48"></polygon><polygon class="cls-3" points="1715.42 775.16 1717.7 774.12 2536.91 400.73 2534.07 394.49 1712.58 768.92 1715.42 775.16"></polygon><polygon class="cls-3" points="1163.1 1399.55 1166.27 1395.97 1720.5 771.41 1715.37 766.85 1164.32 1387.84 758.98 676.46 753.03 679.86 1163.1 1399.55"></polygon><rect class="cls-3" x="1420.84" y="40.21" width="6.86" height="850.37" transform="translate(72.79 1112.42) rotate(-43.68)"></rect><polygon class="cls-3" points="2422.78 1431.52 2425.28 1431.48 3477.52 1414.26 3477.41 1407.4 3474.91 1407.44 2422.67 1424.66 2422.78 1431.52"></polygon><polygon class="cls-3" points="3472.34 1414.21 3478.94 1412.35 3478.27 1409.95 3288.26 733.31 3281.66 735.16 3282.33 737.57 3472.34 1414.21"></polygon><polygon class="cls-3" points="3285.72 740.44 3287.18 739.7 3891.07 434.94 3887.98 428.82 3285.55 732.84 2532.34 394.49 2529.53 400.75 3285.72 740.44"></polygon><circle class="cls-3" cx="3887.29" cy="433.01" r="34.36" transform="translate(4.5 904.7) rotate(-13.28)"></circle><circle class="cls-3" cx="3474.97" cy="1410.87" r="34.36" transform="translate(-231.19 836.12) rotate(-13.28)"></circle><circle class="cls-3" cx="3285.63" cy="736.64" r="34.36"></circle><circle class="cls-3" cx="3141.53" cy="84.01" r="34.36" transform="translate(64.74 724.02) rotate(-13.28)"></circle><circle class="cls-3" cx="1132.26" cy="159.79" r="34.36"></circle><circle class="cls-3" cx="2159.11" cy="34.36" r="34.36"></circle><circle class="cls-3" cx="78.58" cy="1218.24" r="34.36" transform="matrix(0.96, -0.27, 0.27, 0.96, -326.28, 66.56)"></circle><circle class="cls-3" cx="2533.21" cy="398.65" r="34.36"></circle><circle class="cls-3" cx="2425.22" cy="1428.05" r="34.36"></circle><circle class="cls-3" cx="4209.57" cy="1223.41" r="34.36" transform="translate(1468.35 4644.36) rotate(-67.5)"></circle><circle class="cls-3" cx="1163.71" cy="1393.69" r="34.36" transform="translate(-644.65 1231.07) rotate(-45)"></circle><circle class="cls-3" cx="757.24" cy="680.33" r="34.36"></circle><circle class="cls-3" cx="372.53" cy="269.83" r="34.36" transform="translate(-17.25 514.07) rotate(-67.99)"></circle><circle class="cls-3" cx="1716.28" cy="771" r="34.36" transform="translate(-101.34 284.87) rotate(-9.22)"></circle><circle class="cls-3" cx="1907.01" cy="1256.25" r="34.36" transform="translate(-329.75 1716.41) rotate(-45)"></circle><circle class="cls-3" cx="1552.19" cy="1911.24" r="34.36" transform="translate(-807.56 2613.88) rotate(-67.5)"></circle><circle class="cls-3" cx="3141.53" cy="1945.6" r="34.36"></circle><circle class="cls-3" cx="2425.22" cy="859.35" r="34.36" transform="translate(102.68 1966.59) rotate(-45)"></circle></g></g><g id="Layer_7" data-name="Layer 7"><circle class="cls-4" cx="1625.91" cy="648.15" r="66.11"></circle><path class="cls-4" d="M1859.91,440.93,1888,409c-157.39-158-402.73-152.16-552.4,13l29.59,30.53C1499.36,305,1718.84,299.77,1859.91,440.93Z"></path><path class="cls-4" d="M1801.63,507.27l28.07-31.94c-123.5-123-315.14-118.53-432.67,10.09L1426.62,516C1528.66,405,1694.46,401.06,1801.63,507.27Z"></path><path class="cls-4" d="M1745.21,571.49l28.07-32c-90.7-89.23-230.34-86-316.76,7.27l29.6,30.54C1557,501.7,1670.85,499.08,1745.21,571.49Z"></path><rect class="cls-5" x="3164.69" y="1038.06" width="741.62" height="459.4" rx="41.53"></rect><path class="cls-6" d="M3290,1154.13h54.46V1132.3a13.16,13.16,0,0,0-13.16-13.16h-76.22v52.67c0,3.16-1.67,5.71-4.83,5.71h0c-3.15,0-4.39-2.55-4.39-5.71v-52.67H3232.7a13.16,13.16,0,0,0-13.16,13.16v63.81H3291a4.43,4.43,0,0,1,4.47,3.81,4.26,4.26,0,0,1-4.23,4.69h-71.72v26.32a13.16,13.16,0,0,0,13.16,13.16h98.63a13.16,13.16,0,0,0,13.16-13.16v-68.14h-54.71a4.34,4.34,0,0,1-4.31-4.78A4.51,4.51,0,0,1,3290,1154.13Z"></path><rect class="cls-7" x="3699.53" y="1369.52" width="151.08" height="76.23"></rect><rect class="cls-7" x="3219.54" y="1290.58" width="140.98" height="35.57"></rect><rect class="cls-7" x="3380.35" y="1290.58" width="143.61" height="35.57"></rect><rect class="cls-7" x="3703.08" y="1290.58" width="146.69" height="35.57"></rect><rect class="cls-7" x="3546.44" y="1290.58" width="135.71" height="35.57"></rect><rect class="cls-8" x="3220.38" y="1369.52" width="434.79" height="45.93"></rect><rect class="cls-7" x="3663.55" y="1081.26" width="187.06" height="53.55"></rect><path class="cls-9" d="M1179.78,1420.59c-.24,0-.48,0-.72,0l-556.82-36.88a10.74,10.74,0,0,1-9.75-13.11c23.75-103.52,53.85-170,92-203.36a10.68,10.68,0,0,1,7.68-2.63l559.08,32.53a10.74,10.74,0,0,1,7.71,17.48c-46.79,57.73-76.61,124-88.63,197A10.71,10.71,0,0,1,1179.78,1420.59ZM636.31,1363.1l534.56,35.41a436.4,436.4,0,0,1,78.83-181.14l-534.25-31.08C684.13,1215.91,657.53,1275.33,636.31,1363.1Z"></path><path class="cls-10" d="M1248.43,1194.47c-1.83-5.35-5.29-10.82-10.56-11.36L732.2,1151.68c-21.32,3.85-21.33,46.54-2.88,47.73L1235,1230.84c6.06-1.24,10-5.8,12.43-12.95C1237.87,1217.53,1235.37,1194.67,1248.43,1194.47Z"></path><rect class="cls-11" x="592.67" y="2346.47" width="76.54" height="144.87" rx="38.27"></rect><polygon class="cls-12" points="592.67 2384.74 592.67 2474.74 598.73 2470.48 598.73 2377.42 592.67 2384.74"></polygon><path class="cls-13" d="M623.45,2390.3s37.35-8.81,54.7,25.52-34.17,92.81-46.91,95.11-36.86-.5-48.11-22.9S594.71,2402.54,623.45,2390.3Z"></path><ellipse class="cls-13" cx="617.8" cy="2445.91" rx="58.09" ry="38.63" transform="translate(-1889.94 2171.29) rotate(-69.58)"></ellipse><ellipse class="cls-13" cx="641.76" cy="2454.84" rx="58.09" ry="38.63" transform="translate(-1882.7 2199.57) rotate(-69.58)"></ellipse><ellipse class="cls-11" cx="641.76" cy="2454.84" rx="48.51" ry="32.26" transform="translate(-1882.7 2199.57) rotate(-69.58)"></ellipse><path class="cls-11" d="M577.49,2382.48h-.12v-1.26A6.56,6.56,0,0,0,577.49,2382.48Z"></path><path class="cls-12" d="M630.94,2346.47h0c-21.05,0-38.27,16.94-38.27,37.65l6.06,11.81c0-21.15,31.67-21.1,31.67,0l.54,74.18c0,20.94,36.45,6.19,38.27-16.43v-69.56C669.21,2363.41,652,2346.47,630.94,2346.47Z"></path><rect class="cls-14" x="99.58" y="2261.17" width="70.53" height="133.49" rx="35.26"></rect><polygon class="cls-12" points="99.58 2296.44 99.58 2379.37 105.16 2375.44 105.16 2289.69 99.58 2296.44"></polygon><path class="cls-13" d="M128,2301.56s34.41-8.11,50.39,23.52-31.47,85.52-43.21,87.64-34-.46-44.34-21.11S101.46,2312.85,128,2301.56Z"></path><ellipse class="cls-13" cx="122.73" cy="2352.8" rx="53.53" ry="35.6" transform="translate(-2124.98 1646.74) rotate(-69.58)"></ellipse><ellipse class="cls-13" cx="144.82" cy="2361.03" rx="53.53" ry="35.6" transform="translate(-2118.31 1672.8) rotate(-69.58)"></ellipse><ellipse class="cls-11" cx="144.82" cy="2361.03" rx="44.7" ry="29.73" transform="translate(-2118.31 1672.79) rotate(-69.57)"></ellipse><path class="cls-11" d="M85.6,2294.36h-.12v-1.16A5.64,5.64,0,0,0,85.6,2294.36Z"></path><path class="cls-12" d="M134.85,2261.17h0c-19.4,0-35.27,15.62-35.27,34.7l5.58,10.88c0-19.49,29.19-19.45,29.19,0l.5,68.36c0,19.29,33.59,5.7,35.26-15.14v-64.1C170.11,2276.79,154.24,2261.17,134.85,2261.17Z"></path><rect class="cls-14" x="572.86" y="2059.56" width="62.93" height="119.11" rx="31.46"></rect><polygon class="cls-12" points="572.86 2091.02 572.86 2165.02 577.84 2161.52 577.84 2085 572.86 2091.02"></polygon><path class="cls-13" d="M598.17,2095.59s30.7-7.24,45,21-28.09,76.3-38.57,78.2-30.31-.42-39.56-18.83S574.53,2105.66,598.17,2095.59Z"></path><ellipse class="cls-13" cx="593.52" cy="2141.32" rx="47.76" ry="31.76" transform="translate(-1620.3 1950.25) rotate(-69.58)"></ellipse><ellipse class="cls-13" cx="613.22" cy="2148.66" rx="47.76" ry="31.76" transform="translate(-1614.35 1973.49) rotate(-69.58)"></ellipse><ellipse class="cls-11" cx="613.22" cy="2148.66" rx="39.89" ry="26.52" transform="translate(-1614.35 1973.48) rotate(-69.57)"></ellipse><path class="cls-11" d="M560.38,2089.17h-.1v-1A5.16,5.16,0,0,0,560.38,2089.17Z"></path><path class="cls-12" d="M604.32,2059.56h0c-17.3,0-31.46,13.93-31.46,31l5,9.7c0-17.39,26-17.35,26,0l.44,61c0,17.21,30,5.09,31.47-13.51v-57.19C635.79,2073.49,621.63,2059.56,604.32,2059.56Z"></path><rect class="cls-14" x="1093.83" y="2127.44" width="62.93" height="119.11" rx="31.46"></rect><polygon class="cls-12" points="1093.83 2158.9 1093.83 2232.91 1098.81 2229.4 1098.81 2152.88 1093.83 2158.9"></polygon><path class="cls-13" d="M1119.14,2163.48s30.7-7.24,45,21-28.09,76.31-38.57,78.2-30.31-.41-39.56-18.83S1095.5,2173.54,1119.14,2163.48Z"></path><ellipse class="cls-13" cx="1114.49" cy="2209.2" rx="47.76" ry="31.76" transform="translate(-1344.75 2482.65) rotate(-69.58)"></ellipse><ellipse class="cls-13" cx="1134.19" cy="2216.54" rx="47.76" ry="31.76" transform="translate(-1338.8 2505.9) rotate(-69.58)"></ellipse><ellipse class="cls-11" cx="1134.19" cy="2216.54" rx="39.89" ry="26.52" transform="translate(-1338.8 2505.89) rotate(-69.58)"></ellipse><path class="cls-11" d="M1081.35,2157.05h-.1v-1A5.1,5.1,0,0,0,1081.35,2157.05Z"></path><path class="cls-12" d="M1125.29,2127.44h0c-17.3,0-31.46,13.93-31.46,31l5,9.7c0-17.39,26-17.35,26,0l-5.81,59.1c0,17.21,36.23,7,37.72-11.61V2158.4C1156.76,2141.37,1142.6,2127.44,1125.29,2127.44Z"></path><path class="cls-15" d="M541.2,2393.29a131.19,131.19,0,0,1-25.43-2.5l-401-79.3a27.36,27.36,0,0,1-4.67-52.32l460.76-180.28a73.72,73.72,0,0,0,45.48-83.16L593,1878.79a11.55,11.55,0,0,1,12.79-13.72l525.45,67.18a11.55,11.55,0,0,1,9.79,8.82l23.51,100.38a97.2,97.2,0,0,1-54.92,109.92L594.32,2381.89A129.81,129.81,0,0,1,541.2,2393.29ZM618.76,1890,639,1991.2a96.78,96.78,0,0,1-59.71,109.2L118.48,2280.68a4.26,4.26,0,0,0,.73,8.15l401,79.29a106.72,106.72,0,0,0,64.63-7.31l515.27-230.53a74,74,0,0,0,41.84-83.64l-21.67-92.5Z"></path><path class="cls-15" d="M1155,1948.15q-.3,0-.6,0l-573.28-70.78a4.89,4.89,0,0,1-4.27-5.2l37.33-503.56a4.89,4.89,0,0,1,5.18-4.5L1192.63,1401a4.88,4.88,0,0,1,4.55,5.21l-37.33,537.44a4.86,4.86,0,0,1-4.86,4.54Zm-568.07-79.92,563.55,69.57,36.64-527.42-563.56-36.26Z"></path><rect class="cls-15" x="890.77" y="1266.82" width="5.86" height="575.25" transform="translate(-728.6 2318.1) rotate(-85.31)"></rect><rect class="cls-15" x="877.75" y="1447.75" width="5.86" height="576.22" transform="translate(-930.81 2448.13) rotate(-84.56)"></rect><path class="cls-15" d="M638.54,1880.91h-.13a1.56,1.56,0,0,1-1.43-1.68L678.86,1372a1.56,1.56,0,1,1,3.11.26l-41.88,507.25A1.57,1.57,0,0,1,638.54,1880.91Z"></path><path class="cls-15" d="M712.45,1890.06h-.13a1.56,1.56,0,0,1-1.43-1.68l41.16-511.54a1.57,1.57,0,0,1,3.12.25L714,1888.62A1.57,1.57,0,0,1,712.45,1890.06Z"></path><path class="cls-15" d="M787.6,1899.36h-.13a1.56,1.56,0,0,1-1.43-1.68l40.42-515.9a1.52,1.52,0,0,1,1.67-1.43,1.55,1.55,0,0,1,1.44,1.67l-40.42,515.9A1.56,1.56,0,0,1,787.6,1899.36Z"></path><path class="cls-15" d="M864,1908.83h-.12a1.54,1.54,0,0,1-1.43-1.67l39.64-520.34a1.56,1.56,0,1,1,3.11.24l-39.64,520.33A1.57,1.57,0,0,1,864,1908.83Z"></path><path class="cls-15" d="M941.74,1918.45h-.12a1.57,1.57,0,0,1-1.44-1.68L979,1391.93a1.56,1.56,0,1,1,3.11.23L943.29,1917A1.56,1.56,0,0,1,941.74,1918.45Z"></path><path class="cls-15" d="M1020.79,1928.24h-.11a1.54,1.54,0,0,1-1.44-1.66l38-529.44a1.56,1.56,0,1,1,3.11.22l-38,529.44A1.56,1.56,0,0,1,1020.79,1928.24Z"></path><path class="cls-15" d="M1101.22,1938.2h-.11a1.56,1.56,0,0,1-1.45-1.66l37.12-534.11a1.56,1.56,0,1,1,3.11.22l-37.11,534.1A1.56,1.56,0,0,1,1101.22,1938.2Z"></path><path class="cls-15" d="M1021.4,1668l-270.5-23.46a18.14,18.14,0,0,1-16.52-19.44l12.36-162.75L1052.63,1483l-11.57,168.16A18.15,18.15,0,0,1,1021.4,1668Z"></path><path class="cls-15" d="M104.31,2045.44a1.56,1.56,0,0,1-1.55-1.4L52.37,1584.55a1.56,1.56,0,0,1,3.11-.34l50.38,459.49a1.56,1.56,0,0,1-1.38,1.73Z"></path><path class="cls-15" d="M147.78,2029.83a1.56,1.56,0,0,1-1.55-1.42L103.54,1565a1.56,1.56,0,1,1,3.1-.29l42.7,463.4a1.57,1.57,0,0,1-1.42,1.69Z"></path><path class="cls-15" d="M191.43,2014.16a1.56,1.56,0,0,1-1.56-1.44l-34.93-467.33a1.56,1.56,0,0,1,3.12-.23L193,2012.48a1.57,1.57,0,0,1-1.44,1.68Z"></path><path class="cls-15" d="M235.25,1998.43a1.57,1.57,0,0,1-1.56-1.47L206.6,1525.67a1.56,1.56,0,0,1,1.47-1.65,1.6,1.6,0,0,1,1.65,1.47l27.09,471.29a1.56,1.56,0,0,1-1.47,1.65Z"></path><path class="cls-15" d="M279.25,1982.64a1.57,1.57,0,0,1-1.56-1.5L258.5,1505.86a1.58,1.58,0,0,1,1.5-1.63,1.55,1.55,0,0,1,1.62,1.5L280.81,1981a1.55,1.55,0,0,1-1.49,1.62Z"></path><path class="cls-15" d="M323.43,1966.77a1.56,1.56,0,0,1-1.56-1.52L310.66,1486a1.56,1.56,0,1,1,3.12-.08L325,1965.18a1.55,1.55,0,0,1-1.52,1.59Z"></path><path class="cls-15" d="M367.8,1950.85a1.57,1.57,0,0,1-1.57-1.55l-3.17-483.36a1.57,1.57,0,0,1,1.56-1.57h0a1.57,1.57,0,0,1,1.56,1.55l3.17,483.36a1.57,1.57,0,0,1-1.55,1.57Z"></path><path class="cls-15" d="M412.34,1934.86h0a1.56,1.56,0,0,1-1.54-1.58l4.94-487.44a1.56,1.56,0,0,1,1.57-1.54h0a1.56,1.56,0,0,1,1.55,1.57l-5,487.44A1.57,1.57,0,0,1,412.34,1934.86Z"></path><path class="cls-15" d="M457.07,1918.81H457a1.56,1.56,0,0,1-1.52-1.6l13.14-491.56a1.53,1.53,0,0,1,1.6-1.51,1.56,1.56,0,0,1,1.52,1.6l-13.13,491.56A1.57,1.57,0,0,1,457.07,1918.81Z"></path><path class="cls-15" d="M502,1902.68h-.06a1.56,1.56,0,0,1-1.5-1.62l21.4-495.71a1.56,1.56,0,0,1,3.12.13l-21.4,495.71A1.55,1.55,0,0,1,502,1902.68Z"></path><path class="cls-15" d="M547.07,1886.5H547a1.56,1.56,0,0,1-1.46-1.65L575.25,1385a1.56,1.56,0,0,1,3.11.19L548.63,1885A1.57,1.57,0,0,1,547.07,1886.5Z"></path><path class="cls-15" d="M60.62,2064.44a4.9,4.9,0,0,1-4.85-4.29L0,1603.67a4.86,4.86,0,0,1,3.1-5.15L617.3,1364.39a4.87,4.87,0,0,1,6.6,4.92l-37.32,503.55a4.9,4.9,0,0,1-3.22,4.23L62.27,2064.15A5,5,0,0,1,60.62,2064.44ZM10.19,1606.27,64.72,2052.9,577.08,1869l36.53-492.74Z"></path><rect class="cls-15" x="2.87" y="1635.74" width="623.92" height="5.86" transform="translate(-552.69 213.27) rotate(-20.45)"></rect><rect class="cls-15" x="24.98" y="1807.4" width="587.08" height="5.86" transform="translate(-607.68 222.6) rotate(-20.28)"></rect><path class="cls-15" d="M620.46,2136.56a1.24,1.24,0,0,1-.27,0l-514.52-91.71a1.56,1.56,0,0,1,.55-3.07l514.51,91.71a1.56,1.56,0,0,1,1.27,1.81A1.58,1.58,0,0,1,620.46,2136.56Z"></path><path class="cls-15" d="M670.92,2118.46a1.15,1.15,0,0,1-.26,0L151.1,2028.57a1.56,1.56,0,1,1,.54-3.08l519.55,89.87a1.56,1.56,0,0,1-.27,3.1Z"></path><path class="cls-15" d="M721.37,2100.36l-.26,0-524.59-88a1.56,1.56,0,1,1,.52-3.08l524.59,88a1.56,1.56,0,0,1-.26,3.1Z"></path><path class="cls-15" d="M771.8,2082.27a1.06,1.06,0,0,1-.25,0l-529.62-86.17a1.57,1.57,0,0,1,.5-3.09l529.62,86.18a1.56,1.56,0,0,1-.25,3.1Z"></path><path class="cls-15" d="M822.22,2064.19l-.25,0-534.65-84.33a1.56,1.56,0,0,1,.49-3.09l534.65,84.34a1.56,1.56,0,0,1-.24,3.1Z"></path><path class="cls-15" d="M872.62,2046.11h-.24L332.7,1963.6a1.56,1.56,0,0,1,.48-3.09L872.85,2043a1.56,1.56,0,0,1-.23,3.1Z"></path><path class="cls-15" d="M923,2028a1,1,0,0,1-.24,0l-544.7-80.65a1.56,1.56,0,0,1,.46-3.09l544.7,80.65A1.56,1.56,0,0,1,923,2028Z"></path><path class="cls-15" d="M973.38,2010h-.23l-549.72-78.82a1.56,1.56,0,0,1,.44-3.09l549.73,78.82a1.56,1.56,0,0,1-.22,3.1Z"></path><path class="cls-15" d="M1023.73,1991.91h-.21l-554.75-77a1.56,1.56,0,0,1,.43-3.1l554.74,77a1.56,1.56,0,0,1-.21,3.1Z"></path><path class="cls-15" d="M1074.07,1973.86l-.21,0L514.11,1898.7a1.56,1.56,0,0,1,.41-3.1l559.76,75.15a1.56,1.56,0,0,1-.21,3.11Z"></path><path class="cls-15" d="M1124.4,1955.81l-.21,0-564.77-73.3a1.56,1.56,0,0,1,.41-3.1l564.77,73.31a1.56,1.56,0,0,1-.2,3.11Z"></path><rect class="cls-15" x="202.3" y="1987.24" width="568.48" height="5.86" transform="translate(-646.15 282.98) rotate(-19.83)"></rect><rect class="cls-15" x="385.18" y="2014.65" width="576.8" height="5.86" transform="translate(-659.86 360.39) rotate(-20.36)"></rect><path class="cls-15" d="M582.75,2155.35a6.38,6.38,0,0,1-1.15-.1l-522.13-89a6.83,6.83,0,0,1-1.16-13.16L579.4,1866.07a6.88,6.88,0,0,1,3.15-.35l573.27,70.77a6.83,6.83,0,0,1,1.47,13.21L585.06,2155A6.81,6.81,0,0,1,582.75,2155.35ZM87.42,2057.19l494.71,84.3,543.53-194.95-543.17-67.06Z"></path><polygon class="cls-16" points="458.11 1997.71 190 1941.18 190 1632.61 458.11 1681.13 458.11 1997.71"></polygon><polygon class="cls-17" points="190 1632.61 301.2 1596.54 383.69 1573.88 638.97 1617.41 458.11 1681.13 190 1632.61"></polygon><polygon class="cls-16" points="458.11 1997.71 635.1 1923.93 638.97 1617.41 458.11 1681.13 458.11 1997.71"></polygon><path class="cls-18" d="M565,1645.22h-.09L301.11,1597a.52.52,0,0,1-.41-.59.51.51,0,0,1,.59-.4l263.81,48.18a.5.5,0,0,1-.09,1Z"></path><path class="cls-18" d="M459.51,1682.33a.51.51,0,0,1-.17-1l178.59-62.81a.5.5,0,0,1,.33,1L459.68,1682.3Z"></path><polygon class="cls-19" points="287.66 1601.14 548.75 1650.17 548.75 1719.46 575.71 1706.78 577.61 1640.35 319.05 1591.95 287.66 1601.14"></polygon><polygon class="cls-16" points="838.39 2006.14 570.28 1949.61 570.28 1641.03 838.39 1689.56 838.39 2006.14"></polygon><polygon class="cls-17" points="570.28 1641.03 681.48 1604.97 763.97 1582.31 1019.25 1625.83 838.39 1689.56 570.28 1641.03"></polygon><polygon class="cls-20" points="838.39 2006.14 1015.38 1932.36 1019.25 1625.83 838.39 1689.56 838.39 2006.14"></polygon><path class="cls-18" d="M945.29,1653.65h-.09l-263.81-48.18a.5.5,0,1,1,.18-1l263.81,48.18a.5.5,0,0,1,.4.58A.49.49,0,0,1,945.29,1653.65Z"></path><path class="cls-18" d="M839.79,1690.75a.5.5,0,0,1-.17-1L1018.21,1627a.49.49,0,0,1,.64.3.51.51,0,0,1-.31.64L840,1690.72Z"></path><polygon class="cls-19" points="667.93 1609.56 929.03 1658.6 929.03 1727.88 955.99 1715.2 957.89 1648.77 699.33 1600.37 667.93 1609.56"></polygon><polygon class="cls-21" points="775.69 1678.21 928.34 1639.41 621.53 1629.06 621.53 1670.09 570.28 1658.85 570.28 1949.61 751.01 1982.5 775.69 1678.21"></polygon><polygon class="cls-20" points="570.14 2087.96 302.04 2031.43 302.04 1722.85 570.14 1771.38 570.14 2087.96"></polygon><polygon class="cls-17" points="302.04 1722.85 413.23 1686.79 495.73 1664.12 751.01 1707.65 570.14 1771.38 302.04 1722.85"></polygon><polygon class="cls-16" points="570.14 2087.96 747.14 2014.18 751.01 1707.65 570.14 1771.38 570.14 2087.96"></polygon><path class="cls-18" d="M677.05,1735.46H677l-263.82-48.18a.5.5,0,0,1,.18-1l263.82,48.18a.5.5,0,0,1,.4.58A.49.49,0,0,1,677.05,1735.46Z"></path><path class="cls-18" d="M571.55,1772.57a.52.52,0,0,1-.48-.33.51.51,0,0,1,.31-.64L750,1708.78a.5.5,0,0,1,.33,1l-178.59,62.81A.45.45,0,0,1,571.55,1772.57Z"></path><polygon class="cls-19" points="399.69 1691.38 660.79 1740.42 660.79 1809.7 687.75 1797.02 689.65 1730.59 431.09 1682.19 399.69 1691.38"></polygon><polygon class="cls-21" points="302.04 1779.83 475.62 1779.83 499.02 1758.5 652.68 1692.45 495.73 1664.12 302.04 1722.85 302.04 1779.83"></polygon><polygon class="cls-20" points="709 1685.66 928.34 1639.41 928.34 1386.96 709 1426.66 709 1685.66"></polygon><polygon class="cls-17" points="928.34 1386.96 837.37 1357.45 769.88 1338.91 561.03 1374.52 709 1426.66 928.34 1386.96"></polygon><polygon class="cls-22" points="709 1685.66 564.19 1625.3 561.03 1374.52 709 1426.66 709 1685.66"></polygon><polygon class="cls-21" points="745.04 1420.13 709 1447.81 655.9 1484.3 652.68 1662.18 625.61 1650.42 625.61 1396.54 709 1426.66 745.04 1420.13"></polygon><path class="cls-18" d="M621.53,1397.28a.41.41,0,0,1-.07-.82l215.83-39.41a.4.4,0,0,1,.48.33.42.42,0,0,1-.33.48l-215.83,39.41Z"></path><path class="cls-18" d="M707.85,1427.64a.35.35,0,0,1-.14,0l-146.1-51.39a.41.41,0,0,1-.26-.52.43.43,0,0,1,.53-.25L708,1426.84a.41.41,0,0,1,.26.52A.42.42,0,0,1,707.85,1427.64Z"></path><polygon class="cls-19" points="848.45 1361.21 634.84 1401.33 634.84 1458.01 612.78 1447.64 611.23 1393.29 822.76 1353.69 848.45 1361.21"></polygon><polygon class="cls-20" points="485.21 1764.44 253.07 1715.49 253.07 1448.31 485.21 1490.33 485.21 1764.44"></polygon><polygon class="cls-17" points="253.07 1448.31 349.35 1417.08 420.78 1397.46 641.81 1435.15 485.21 1490.33 253.07 1448.31"></polygon><polygon class="cls-16" points="485.21 1764.44 638.47 1700.56 641.81 1435.15 485.21 1490.33 485.21 1764.44"></polygon><path class="cls-18" d="M577.78,1459.23h-.08l-228.43-41.72a.44.44,0,0,1-.35-.51.45.45,0,0,1,.51-.35l228.42,41.72a.43.43,0,0,1-.07.86Z"></path><path class="cls-18" d="M486.43,1491.36a.43.43,0,0,1-.41-.29.43.43,0,0,1,.26-.55l154.63-54.39a.44.44,0,0,1,.56.27.43.43,0,0,1-.27.55l-154.63,54.39Z"></path><polygon class="cls-19" points="337.62 1421.06 563.7 1463.52 563.7 1523.51 587.04 1512.53 588.69 1455.01 364.81 1413.1 337.62 1421.06"></polygon><polygon class="cls-21" points="439.22 1404.04 426.05 1407.66 547.5 1468.85 641.06 1564.55 641.81 1435.15 439.22 1404.04"></polygon><polygon class="cls-20" points="547.5 1468.85 744.68 1427.27 744.68 1200.33 547.5 1236.02 547.5 1468.85"></polygon><polygon class="cls-17" points="744.68 1200.33 662.9 1173.8 602.23 1157.14 414.49 1189.15 547.5 1236.02 744.68 1200.33"></polygon><polygon class="cls-16" points="547.5 1468.85 417.33 1414.59 414.49 1189.15 547.5 1236.02 547.5 1468.85"></polygon><path class="cls-18" d="M468.88,1209.6a.36.36,0,0,1-.36-.3.36.36,0,0,1,.29-.43l194-35.43a.37.37,0,0,1,.43.3.36.36,0,0,1-.3.42L469,1209.6Z"></path><path class="cls-18" d="M546.47,1236.89a.25.25,0,0,1-.12,0L415,1190.68a.36.36,0,0,1-.23-.47.37.37,0,0,1,.47-.23l131.34,46.2a.36.36,0,0,1-.12.71Z"></path><polygon class="cls-19" points="672.86 1177.18 480.84 1213.25 480.84 1264.2 461.01 1254.88 459.61 1206.02 649.77 1170.42 672.86 1177.18"></polygon><path class="cls-9" d="M111.86,2069.85a1.55,1.55,0,0,1-1.54-1.37L55.57,1609.54a1.56,1.56,0,0,1,3.1-.37l54.75,458.93a1.56,1.56,0,0,1-1.37,1.74Z"></path><path class="cls-9" d="M179.09,2081.31a1.57,1.57,0,0,1-1.55-1.39l-51.92-462a1.56,1.56,0,1,1,3.1-.35l51.93,462a1.57,1.57,0,0,1-1.38,1.73Z"></path><path class="cls-9" d="M247.33,2092.93a1.55,1.55,0,0,1-1.55-1.4l-49-465a1.56,1.56,0,0,1,1.39-1.72,1.58,1.58,0,0,1,1.72,1.39l49,465a1.55,1.55,0,0,1-1.39,1.71Z"></path><path class="cls-9" d="M316.59,2104.73a1.56,1.56,0,0,1-1.55-1.41l-46-468.13a1.56,1.56,0,0,1,3.11-.3l46,468.13a1.57,1.57,0,0,1-1.4,1.71Z"></path><path class="cls-9" d="M386.91,2116.71a1.56,1.56,0,0,1-1.55-1.41L342.48,1644a1.57,1.57,0,0,1,1.42-1.7,1.55,1.55,0,0,1,1.69,1.41L388.47,2115a1.56,1.56,0,0,1-1.41,1.7Z"></path><path class="cls-9" d="M458.32,2128.88a1.57,1.57,0,0,1-1.56-1.43L417.1,1653a1.56,1.56,0,0,1,3.11-.26l39.66,474.47a1.55,1.55,0,0,1-1.42,1.68Z"></path><path class="cls-9" d="M530.82,2141.23a1.57,1.57,0,0,1-1.56-1.44l-36.33-477.7a1.56,1.56,0,0,1,3.11-.23l36.34,477.69a1.57,1.57,0,0,1-1.44,1.68Z"></path><path class="cls-9" d="M582.75,2153.4a4.54,4.54,0,0,1-.82-.07l-522.13-89a4.89,4.89,0,0,1-4-4.22L0,1603.67a4.88,4.88,0,0,1,5.42-5.44L551.76,1664a4.88,4.88,0,0,1,4.29,4.52l31.57,479.73a4.88,4.88,0,0,1-4.87,5.2ZM65,2055.36l512.46,87.31-30.9-469.51-536.1-64.5Z"></path><rect class="cls-9" x="291.98" y="1516.63" width="5.85" height="543.71" transform="translate(-1517.58 1811.53) rotate(-81.36)"></rect><rect class="cls-9" x="304.91" y="1684.6" width="5.85" height="535.36" transform="translate(-1668.53 1963.5) rotate(-81.36)"></rect><path class="cls-9" d="M582.75,2153.4a4.89,4.89,0,0,1-4.87-4.56l-31.57-479.73a4.88,4.88,0,0,1,3-4.83l641.13-263a4.88,4.88,0,0,1,6.72,4.86l-37.33,537.44a4.89,4.89,0,0,1-3.22,4.26L584.4,2153.11A4.7,4.7,0,0,1,582.75,2153.4ZM556.28,1672l30.91,469.76,563.15-202,36.56-526.44Z"></path><rect class="cls-9" x="537.63" y="1701.89" width="666.69" height="5.85" transform="translate(-573.72 448.69) rotate(-21.93)"></rect><rect class="cls-9" x="551.14" y="1874.85" width="637.71" height="5.86" transform="translate(-617.25 438.67) rotate(-21.08)"></rect><path class="cls-9" d="M631.65,2132.54a1.55,1.55,0,0,1-1.55-1.46l-32.59-481.82a1.56,1.56,0,0,1,3.11-.21l32.59,481.83a1.56,1.56,0,0,1-1.45,1.66Z"></path><path class="cls-9" d="M677.33,2116.16a1.56,1.56,0,0,1-1.55-1.48l-26.7-486.59a1.56,1.56,0,0,1,3.12-.18l26.69,486.6a1.55,1.55,0,0,1-1.47,1.64Z"></path><path class="cls-9" d="M723.45,2099.62a1.57,1.57,0,0,1-1.56-1.5l-20.67-491.44a1.56,1.56,0,0,1,3.12-.13L725,2098a1.55,1.55,0,0,1-1.49,1.62Z"></path><path class="cls-9" d="M770,2082.92a1.57,1.57,0,0,1-1.56-1.52l-14.53-496.35A1.56,1.56,0,1,1,757,1585l14.53,496.35a1.55,1.55,0,0,1-1.51,1.6Z"></path><path class="cls-9" d="M817,2066.05a1.56,1.56,0,0,1-1.56-1.53l-8.27-501.35a1.56,1.56,0,0,1,1.54-1.58,1.54,1.54,0,0,1,1.59,1.53l8.26,501.35a1.55,1.55,0,0,1-1.53,1.58Z"></path><path class="cls-9" d="M864.49,2049a1.58,1.58,0,0,1-1.57-1.56l-1.86-506.41a1.56,1.56,0,0,1,1.55-1.57h0a1.56,1.56,0,0,1,1.56,1.56l1.87,506.41a1.56,1.56,0,0,1-1.56,1.57Z"></path><path class="cls-9" d="M912.41,2031.84h0a1.56,1.56,0,0,1-1.55-1.58l4.67-511.55a1.55,1.55,0,0,1,1.56-1.55h0a1.56,1.56,0,0,1,1.55,1.57L914,2030.29A1.56,1.56,0,0,1,912.41,2031.84Z"></path><path class="cls-9" d="M960.81,2014.48h0a1.57,1.57,0,0,1-1.53-1.59l11.34-516.79a1.56,1.56,0,1,1,3.12.07L962.37,2013A1.56,1.56,0,0,1,960.81,2014.48Z"></path><path class="cls-9" d="M1009.68,1997h-.06a1.56,1.56,0,0,1-1.51-1.61l18.15-522.1a1.56,1.56,0,0,1,3.12.11l-18.14,522.1A1.56,1.56,0,0,1,1009.68,1997Z"></path><path class="cls-9" d="M1059,1979.25H1059a1.56,1.56,0,0,1-1.48-1.63l25.1-527.49a1.55,1.55,0,0,1,1.63-1.49,1.57,1.57,0,0,1,1.49,1.64l-25.1,527.49A1.56,1.56,0,0,1,1059,1979.25Z"></path><path class="cls-9" d="M1108.87,1961.38h-.1a1.56,1.56,0,0,1-1.46-1.65l32.2-533a1.56,1.56,0,0,1,3.12.19l-32.2,533A1.57,1.57,0,0,1,1108.87,1961.38Z"></path><polygon class="cls-20" points="3471.65 2419.07 3133.17 2347.7 3133.17 1958.14 3471.65 2019.39 3471.65 2419.07"></polygon><polygon class="cls-17" points="3133.17 1958.14 3273.55 1912.6 3377.7 1883.99 3699.98 1938.94 3471.65 2019.39 3133.17 1958.14"></polygon><polygon class="cls-22" points="3471.65 2419.07 3695.1 2325.93 3699.98 1938.94 3471.65 2019.39 3471.65 2419.07"></polygon><polygon class="cls-21" points="3416.03 2009.33 3471.65 2052.03 3553.57 2108.34 3558.55 2382.85 3600.32 2364.7 3600.32 1972.92 3471.65 2019.39 3416.03 2009.33"></polygon><path class="cls-23" d="M3606.61,1974.06a.64.64,0,0,0,.11-1.26L3273.66,1912a.63.63,0,0,0-.22,1.24l333.06,60.83Z"></path><path class="cls-18" d="M3473.42,2020.9a.76.76,0,0,0,.21,0l225.46-79.3a.64.64,0,1,0-.42-1.2l-225.46,79.3a.64.64,0,0,0-.39.81A.62.62,0,0,0,3473.42,2020.9Z"></path><polygon class="cls-19" points="3256.45 1918.4 3586.09 1980.31 3586.09 2067.78 3620.12 2051.77 3622.52 1967.9 3296.09 1906.8 3256.45 1918.4"></polygon><polygon class="cls-20" points="3816.97 2540.64 4175.21 2465.11 4175.21 2052.81 3816.97 2117.64 3816.97 2540.64"></polygon><polygon class="cls-22" points="4175.21 2052.81 4026.63 2004.62 3916.41 1974.34 3575.32 2032.5 3816.97 2117.64 4175.21 2052.81"></polygon><polygon class="cls-22" points="3816.97 2540.64 3580.48 2442.06 3575.32 2032.5 3816.97 2117.64 3816.97 2540.64"></polygon><path class="cls-24" d="M3674.14,2069.66h.12l352.49-64.37a.68.68,0,0,0,.54-.78.68.68,0,0,0-.78-.54L3674,2068.33a.67.67,0,0,0,.12,1.33Z"></path><path class="cls-24" d="M3815.1,2119.24a.67.67,0,0,0,.23-1.3L3576.71,2034a.67.67,0,1,0-.45,1.26l238.62,83.93A.83.83,0,0,0,3815.1,2119.24Z"></path><polygon class="cls-19" points="4044.72 2010.76 3695.86 2076.28 3695.86 2168.85 3659.84 2151.91 3657.3 2063.15 4002.78 1998.48 4044.72 2010.76"></polygon><polygon class="cls-21" points="3887.95 1984.49 3908.28 1990.08 3720.85 2084.5 3576.49 2232.18 3575.32 2032.5 3887.95 1984.49"></polygon><polygon class="cls-22" points="3720.85 2084.5 3416.57 2020.34 3416.57 1670.14 3720.85 1725.21 3720.85 2084.5"></polygon><polygon class="cls-17" points="3416.57 1670.14 3542.77 1629.2 3636.4 1603.49 3926.12 1652.88 3720.85 1725.21 3416.57 1670.14"></polygon><polygon class="cls-20" points="3720.85 2084.5 3921.73 2000.77 3926.12 1652.88 3720.85 1725.21 3720.85 2084.5"></polygon><path class="cls-25" d="M3842.18,1684.45a.57.57,0,0,0,.56-.46.58.58,0,0,0-.46-.67l-299.4-54.68a.58.58,0,0,0-.67.46.57.57,0,0,0,.46.66l299.41,54.68Z"></path><path class="cls-25" d="M3722.44,1726.56a.58.58,0,0,0,.19,0l202.68-71.28a.57.57,0,0,0-.37-1.08l-202.68,71.29a.57.57,0,0,0,.18,1.1Z"></path><polygon class="cls-19" points="3527.41 1634.42 3823.73 1690.07 3823.73 1768.7 3854.33 1754.32 3856.48 1678.92 3563.03 1623.99 3527.41 1634.42"></polygon><path class="cls-26" d="M818.85,2818.56l2665.31-1.86c75.59,0,66.47-45.15,44.92-80.27l-180.24-315.86H972.21L764.93,2781.73C755.52,2798.12,767.16,2824.53,818.85,2818.56Z"></path><path class="cls-27" d="M3402,2788.12H873.61c-51.37,0-102-15.16-120.7-44.58H3522.67S3508.85,2788.12,3402,2788.12Z"></path><path class="cls-28" d="M3489.78,2756.23H783.46c-21.66,0-47-8-21.78-50L955.1,2382c13-21.74,34-34.66,56.46-34.66H3261.68c22.44,0,43.49,12.92,56.46,34.66l193.42,324.29C3538.14,2756.23,3511.43,2756.23,3489.78,2756.23Z"></path><path class="cls-29" d="M783.46,2746.28c-14.74,0-21.7-4-23.31-7.64-.75-1.73-2.36-8.75,8.36-26.62L961.94,2387.7c11.38-19.07,29.93-30.46,49.62-30.46H3261.68c19.69,0,38.24,11.39,49.61,30.46l193.29,324.08c12,22.6,9.59,29.17,9.27,29.85-2.16,4.65-16.41,4.65-24.07,4.65Z"></path><polygon class="cls-30" points="1132.76 2420.57 1018.5 2420.57 1038.78 2379.84 1150.93 2379.84 1132.76 2420.57"></polygon><polygon class="cls-30" points="1281.59 2420.57 1167.34 2420.57 1184.87 2379.84 1297.02 2379.84 1281.59 2420.57"></polygon><polygon class="cls-30" points="1430.43 2420.57 1316.17 2420.57 1330.97 2379.84 1443.11 2379.84 1430.43 2420.57"></polygon><polygon class="cls-30" points="1579.27 2420.57 1465.01 2420.57 1477.06 2379.84 1589.21 2379.84 1579.27 2420.57"></polygon><polygon class="cls-30" points="1728.11 2420.57 1613.85 2420.57 1623.15 2379.84 1735.3 2379.84 1728.11 2420.57"></polygon><polygon class="cls-30" points="1876.95 2420.57 1762.69 2420.57 1769.24 2379.84 1881.39 2379.84 1876.95 2420.57"></polygon><polygon class="cls-30" points="2025.79 2420.57 1911.53 2420.57 1915.33 2379.84 2027.48 2379.84 2025.79 2420.57"></polygon><polygon class="cls-30" points="2174.63 2420.57 2060.37 2420.57 2061.42 2379.84 2173.57 2379.84 2174.63 2420.57"></polygon><polygon class="cls-30" points="2323.46 2420.57 2209.21 2420.57 2207.51 2379.84 2319.66 2379.84 2323.46 2420.57"></polygon><polygon class="cls-30" points="2472.3 2420.57 2358.05 2420.57 2353.61 2379.84 2465.75 2379.84 2472.3 2420.57"></polygon><polygon class="cls-30" points="2621.14 2420.57 2506.88 2420.57 2499.7 2379.84 2611.84 2379.84 2621.14 2420.57"></polygon><polygon class="cls-30" points="2769.98 2420.57 2655.72 2420.57 2645.79 2379.84 2757.94 2379.84 2769.98 2420.57"></polygon><polygon class="cls-30" points="2918.82 2420.57 2804.56 2420.57 2791.88 2379.84 2904.03 2379.84 2918.82 2420.57"></polygon><polygon class="cls-30" points="3067.66 2420.57 2953.4 2420.57 2937.97 2379.84 3050.12 2379.84 3067.66 2420.57"></polygon><polygon class="cls-30" points="3216.5 2420.57 3102.24 2420.57 3084.06 2379.84 3196.21 2379.84 3216.5 2420.57"></polygon><polygon class="cls-30" points="1109.09 2473.6 992.08 2473.6 1013.35 2430.91 1128.14 2430.91 1109.09 2473.6"></polygon><polygon class="cls-30" points="1261.5 2473.6 1144.5 2473.6 1162.88 2430.91 1277.67 2430.91 1261.5 2473.6"></polygon><polygon class="cls-30" points="1413.92 2473.6 1296.91 2473.6 1312.42 2430.91 1427.21 2430.91 1413.92 2473.6"></polygon><polygon class="cls-30" points="1566.34 2473.6 1449.33 2473.6 1461.95 2430.91 1576.75 2430.91 1566.34 2473.6"></polygon><polygon class="cls-30" points="1718.75 2473.6 1601.75 2473.6 1611.49 2430.91 1726.28 2430.91 1718.75 2473.6"></polygon><polygon class="cls-30" points="1871.17 2473.6 1754.16 2473.6 1761.03 2430.91 1875.82 2430.91 1871.17 2473.6"></polygon><polygon class="cls-30" points="2023.58 2473.6 1906.58 2473.6 1910.56 2430.91 2025.36 2430.91 2023.58 2473.6"></polygon><polygon class="cls-30" points="2176 2473.6 2058.99 2473.6 2060.1 2430.91 2174.89 2430.91 2176 2473.6"></polygon><polygon class="cls-30" points="2328.41 2473.6 2211.41 2473.6 2209.64 2430.91 2324.43 2430.91 2328.41 2473.6"></polygon><polygon class="cls-30" points="2480.83 2473.6 2363.83 2473.6 2359.17 2430.91 2473.97 2430.91 2480.83 2473.6"></polygon><polygon class="cls-30" points="2633.25 2473.6 2516.24 2473.6 2508.71 2430.91 2623.5 2430.91 2633.25 2473.6"></polygon><polygon class="cls-30" points="2785.66 2473.6 2668.66 2473.6 2658.25 2430.91 2773.04 2430.91 2785.66 2473.6"></polygon><polygon class="cls-30" points="2938.08 2473.6 2821.07 2473.6 2807.78 2430.91 2922.57 2430.91 2938.08 2473.6"></polygon><polygon class="cls-30" points="3090.49 2473.6 2973.49 2473.6 2957.32 2430.91 3072.11 2430.91 3090.49 2473.6"></polygon><polygon class="cls-30" points="3242.91 2473.6 3125.91 2473.6 3106.86 2430.91 3221.65 2430.91 3242.91 2473.6"></polygon><polygon class="cls-30" points="1084.25 2529.25 964.37 2529.25 986.68 2484.45 1104.25 2484.45 1084.25 2529.25"></polygon><polygon class="cls-30" points="1240.42 2529.25 1120.54 2529.25 1139.83 2484.45 1257.39 2484.45 1240.42 2529.25"></polygon><polygon class="cls-30" points="1396.59 2529.25 1276.71 2529.25 1292.98 2484.45 1410.54 2484.45 1396.59 2529.25"></polygon><polygon class="cls-30" points="1552.76 2529.25 1432.88 2529.25 1446.12 2484.45 1563.69 2484.45 1552.76 2529.25"></polygon><polygon class="cls-30" points="1708.93 2529.25 1589.05 2529.25 1599.27 2484.45 1716.84 2484.45 1708.93 2529.25"></polygon><polygon class="cls-30" points="1865.1 2529.25 1745.21 2529.25 1752.42 2484.45 1869.98 2484.45 1865.1 2529.25"></polygon><polygon class="cls-30" points="2021.27 2529.25 1901.38 2529.25 1905.57 2484.45 2023.13 2484.45 2021.27 2529.25"></polygon><polygon class="cls-30" points="2177.44 2529.25 2057.55 2529.25 2058.71 2484.45 2176.28 2484.45 2177.44 2529.25"></polygon><polygon class="cls-30" points="2333.61 2529.25 2213.72 2529.25 2211.86 2484.45 2329.43 2484.45 2333.61 2529.25"></polygon><polygon class="cls-30" points="2489.78 2529.25 2369.89 2529.25 2365.01 2484.45 2482.57 2484.45 2489.78 2529.25"></polygon><polygon class="cls-30" points="2645.95 2529.25 2526.06 2529.25 2518.16 2484.45 2635.72 2484.45 2645.95 2529.25"></polygon><polygon class="cls-30" points="2802.12 2529.25 2682.23 2529.25 2671.3 2484.45 2788.87 2484.45 2802.12 2529.25"></polygon><polygon class="cls-30" points="2958.29 2529.25 2838.4 2529.25 2824.45 2484.45 2942.02 2484.45 2958.29 2529.25"></polygon><polygon class="cls-30" points="3114.46 2529.25 2994.57 2529.25 2977.6 2484.45 3095.17 2484.45 3114.46 2529.25"></polygon><polygon class="cls-30" points="3270.63 2529.25 3150.74 2529.25 3130.75 2484.45 3248.31 2484.45 3270.63 2529.25"></polygon><polygon class="cls-30" points="1058.16 2587.71 935.25 2587.71 958.7 2540.64 1079.17 2540.64 1058.16 2587.71"></polygon><polygon class="cls-30" points="1218.28 2587.71 1095.37 2587.71 1115.63 2540.64 1236.11 2540.64 1218.28 2587.71"></polygon><polygon class="cls-30" points="1378.39 2587.71 1255.48 2587.71 1272.57 2540.64 1393.05 2540.64 1378.39 2587.71"></polygon><polygon class="cls-30" points="1538.5 2587.71 1415.59 2587.71 1429.51 2540.64 1549.98 2540.64 1538.5 2587.71"></polygon><polygon class="cls-30" points="2494.05 2587.71 1575.7 2587.71 1586.45 2540.64 2486.58 2540.64 2494.05 2587.71"></polygon><polygon class="cls-30" points="2659.29 2587.71 2536.38 2587.71 2528.07 2540.64 2648.55 2540.64 2659.29 2587.71"></polygon><polygon class="cls-30" points="2819.4 2587.71 2696.49 2587.71 2685.01 2540.64 2805.49 2540.64 2819.4 2587.71"></polygon><polygon class="cls-30" points="2979.52 2587.71 2856.6 2587.71 2841.95 2540.64 2962.42 2540.64 2979.52 2587.71"></polygon><polygon class="cls-30" points="3139.63 2587.71 3016.72 2587.71 2998.89 2540.64 3119.36 2540.64 3139.63 2587.71"></polygon><polygon class="cls-30" points="3299.74 2587.71 3176.83 2587.71 3155.82 2540.64 3276.3 2540.64 3299.74 2587.71"></polygon><polygon class="cls-31" points="2515.61 2723.68 1544.67 2723.68 1571.93 2604.23 2496.66 2604.23 2515.61 2723.68"></polygon><rect class="cls-28" x="981.21" y="870.5" width="2311.44" height="1475.17" rx="53.69"></rect><rect class="cls-30" x="1409.31" y="462.33" width="1455.23" height="2291.5" rx="43.73" transform="translate(3745.01 -528.84) rotate(90)"></rect><rect class="cls-4" x="1058.11" y="938.24" width="2157.63" height="1349.03"></rect><rect class="cls-27" x="1170.14" y="1170.6" width="1948.5" height="326.96"></rect><path class="cls-4" d="M2827.88,1369.07H2702a5.76,5.76,0,0,1-5.49-4l-24.12-75.14a5.76,5.76,0,0,1,5.49-7.52H2852a5.76,5.76,0,0,1,5.49,7.52l-24.12,75.14A5.76,5.76,0,0,1,2827.88,1369.07Zm-121.69-11.53h117.49l20.42-63.6H2685.77Z"></path><path class="cls-4" d="M2817.54,1400.88H2710.17a5.77,5.77,0,0,1,0-11.53h103.16c7-.17,10.19-5,10.7-10,.45-4.44-1.24-9-4.22-10.27l36.25-113.53a5.76,5.76,0,0,1,5.49-4H2899a5.77,5.77,0,0,1,0,11.53h-33.28l-33.23,105.37C2841.36,1383,2829.34,1400.88,2817.54,1400.88Z"></path><circle class="cls-4" cx="2732.14" cy="1420.19" r="13.26" transform="translate(722.22 3752.95) rotate(-76.72)"></circle><circle class="cls-4" cx="2798.86" cy="1420.19" r="13.26" transform="translate(948.68 3955.42) rotate(-80.78)"></circle><path class="cls-4" d="M2768.06,1369.07a5.76,5.76,0,0,1-5.76-5.77v-75.13a5.77,5.77,0,0,1,11.53,0v75.13A5.77,5.77,0,0,1,2768.06,1369.07Z"></path><path class="cls-4" d="M2735.93,1369.07a5.77,5.77,0,0,1-5.62-4.49l-17-75.13a5.76,5.76,0,1,1,11.24-2.55l17.05,75.13a5.77,5.77,0,0,1-4.34,6.9A6.27,6.27,0,0,1,2735.93,1369.07Z"></path><path class="cls-4" d="M2798.87,1369.07a5.93,5.93,0,0,1-.84-.06,5.77,5.77,0,0,1-4.87-6.54l10.93-75.13a5.76,5.76,0,1,1,11.4,1.66l-10.92,75.13A5.78,5.78,0,0,1,2798.87,1369.07Z"></path><path class="cls-4" d="M2839.94,1332H2690.08a5.77,5.77,0,1,1,0-11.53h149.86a5.77,5.77,0,1,1,0,11.53Z"></path><path class="cls-4" d="M2870.11,1248.45h33.79a7.88,7.88,0,0,1,7.88,7.88v1.59a7.88,7.88,0,0,1-7.88,7.88h-33.79a0,0,0,0,1,0,0v-17.35A0,0,0,0,1,2870.11,1248.45Z"></path><rect class="cls-32" x="1170.14" y="1573.23" width="329.05" height="315.32"></rect><rect class="cls-32" x="1575" y="1573.23" width="329.05" height="315.32"></rect><rect class="cls-32" x="1979.87" y="1573.23" width="329.05" height="315.32"></rect><rect class="cls-32" x="2384.73" y="1573.23" width="329.05" height="315.32"></rect><rect class="cls-32" x="2789.59" y="1573.23" width="329.05" height="315.32"></rect><rect class="cls-32" x="1170.14" y="1947.6" width="329.05" height="315.32"></rect><rect class="cls-32" x="1575" y="1947.6" width="329.05" height="315.32"></rect><rect class="cls-32" x="1979.87" y="1947.6" width="329.05" height="315.32"></rect><rect class="cls-32" x="2384.73" y="1947.6" width="329.05" height="315.32"></rect><rect class="cls-32" x="2789.59" y="1947.6" width="329.05" height="315.32"></rect><path class="cls-33" d="M1414.44,1799.82l-6.49-1.91c.14-.47,11.4-48.79,12.29-67.16,1.09-22.12-5.83-41.67-20-56.54-16.18-17-40.83-26.75-67.62-26.75-26.18,0-49,8.84-64.15,24.9-14,14.75-20.64,34.94-19.34,58.36,1,18.52,10.5,65.09,10.6,65.56l-6.63,1.35c-.4-1.93-9.66-47.52-10.73-66.53-1.41-25.33,5.91-47.25,21.18-63.4,16.48-17.42,41-27,69.07-27,28.63,0,55.07,10.51,72.53,28.85,15.47,16.24,23,37.52,21.85,61.54C1426.07,1750.25,1415,1797.88,1414.44,1799.82Z"></path><path class="cls-33" d="M1253.52,1766.18l8.84,47.14a10.12,10.12,0,0,0,10.62,8.22l-12.44-66.91A10.12,10.12,0,0,0,1253.52,1766.18Z"></path><path class="cls-33" d="M1274.17,1821.39l19-3.57-12.58-67-19,3.57c-.37.07-.72.16-1.06.26l12.44,66.91A9.92,9.92,0,0,0,1274.17,1821.39Z"></path><path class="cls-34" d="M1298.24,1824.41h0a10.71,10.71,0,0,1-12.5-8.54l-11.35-60.54a10.69,10.69,0,0,1,8.54-12.49h0a10.7,10.7,0,0,1,12.5,8.54l11.36,60.54A10.7,10.7,0,0,1,1298.24,1824.41Z"></path><path class="cls-33" d="M1414.75,1766.86l-10,46.89a10.12,10.12,0,0,1-10.82,8l14.12-66.57A10.1,10.1,0,0,1,1414.75,1766.86Z"></path><path class="cls-33" d="M1392.72,1821.53l-18.93-4,14.26-66.69,18.92,4a8.66,8.66,0,0,1,1.06.29l-14.12,66.57A9.78,9.78,0,0,1,1392.72,1821.53Z"></path><path class="cls-34" d="M1368.58,1824h0a10.72,10.72,0,0,0,12.71-8.23l12.88-60.24a10.7,10.7,0,0,0-8.23-12.7h0a10.7,10.7,0,0,0-12.71,8.23l-12.88,60.23A10.72,10.72,0,0,0,1368.58,1824Z"></path><path class="cls-33" d="M2248,2187.37c-1.44-28.42-66.36-46.19-66.36-46.19s-59.4-63.9-84.23-95.93c-42.25,16.25-52.33,36.29-46,71.13,20.59-17.19,55.73,14.24,98.44,71Z"></path><path class="cls-33" d="M2051.41,2116.38l14.08,74h6.8c1.89-33.33,6.13-71.12,28.64-59.08C2100.93,2101.6,2051.41,2101.6,2051.41,2116.38Z"></path><path class="cls-33" d="M1763.83,2005.17a51.92,51.92,0,0,1-2.63-12.21h-3.35a45.71,45.71,0,0,1-1.51,9.83c-2.36,8.64-9,15.16-16.81,15.58-7.84-.42-14.45-6.94-16.81-15.58a45.71,45.71,0,0,1-1.51-9.83h-3.35a51.92,51.92,0,0,1-2.63,12.21,64.14,64.14,0,0,1-16,24.48l5.35,49.21h70l5.35-49.21A64.14,64.14,0,0,1,1763.83,2005.17Z"></path><path class="cls-33" d="M1817.53,2207.75c-14.91,15-137.46,16.5-156,0,8.36-46.59,19.31-91.61,43-128.89h70C1795.74,2111.05,1807.85,2157.5,1817.53,2207.75Z"></path><path class="cls-4" d="M1745.6,2090.63c-28.34,0-41.75-11.83-42.31-12.33a1.05,1.05,0,0,1-.07-1.48,1,1,0,0,1,1.47-.07c.13.11,13.44,11.79,40.92,11.79h0c24.69,0,27.85-9.87,27.87-10a1.06,1.06,0,0,1,1.3-.71,1,1,0,0,1,.71,1.29c-.14.47-3.64,11.47-29.88,11.48Z"></path><path class="cls-35" d="M1750.29,2089.59s-13.65,12.36-9,18S1750.29,2089.59,1750.29,2089.59Z"></path><path class="cls-35" d="M1750.29,2089.59s.51-22.16,10.3-20.87S1750.29,2089.59,1750.29,2089.59Z"></path><path class="cls-4" d="M1770.12,2107.31a1.06,1.06,0,0,1-.94-.58c-6.14-12.59-19-16.1-19.15-16.13a1,1,0,0,1-.75-1.28,1,1,0,0,1,1.27-.74c.57.14,13.94,3.75,20.51,17.23a1,1,0,0,1-.48,1.4A1.06,1.06,0,0,1,1770.12,2107.31Z"></path><path class="cls-34" d="M1702.64,1653.71s19.85,6.46,48.93-1c18.63,22.45-14.18,33.32-34.66,28.51S1702.64,1653.71,1702.64,1653.71Z"></path><path class="cls-33" d="M1751.57,1652.73c-1.61,6.13-4.83,11.52-10.78,15-13.94,8.08-31.93-.46-38.15-14-11,1.45-20.69,3.61-27.62,6.13v155.31h109.62V1659.84C1774.84,1656.12,1763.41,1653.87,1751.57,1652.73Z"></path><polygon class="cls-33" points="1675.02 1659.84 1627.81 1696.4 1658.86 1736.99 1705.08 1702.53 1675.02 1659.84"></polygon><polygon class="cls-33" points="1785 1659.84 1832.26 1696.4 1801.21 1736.99 1754.94 1702.53 1785 1659.84"></polygon><path class="cls-33" d="M2429.77,2170.59h-2.56v10.86s138.79,9.39,193.46,0,58.4-27.38,58.4-27.38V2142.9h-1.88Z"></path><path class="cls-34" d="M2676.89,2148.19c-14.32,18.55-57.73,24.24-112,25.12-22.37.4-46.57,0-71.36-.73-21.08-.63-42.6-1.4-63.72-2-2.09-15.5,3.42-44.36,7.75-60.26a61.63,61.63,0,0,1,3.53-10.5l.81-.3c7.23,9.77,25,15.65,35.47,15.43,17.19-.41,36.54-12.2,31-26.34a38.66,38.66,0,0,1-2.1-5.25c-4.4-14.06,7.68-14.17,25.78-3.23,32.1,19.87,60.64,27,83.66,30.52,4.78.73,9.29,1.32,13.59,1.84C2661.61,2116.46,2679.79,2116.57,2676.89,2148.19Z"></path><path class="cls-33" d="M2676.89,2148.19c-14.32,18.55-57.73,24.24-112,25.12-1.58-7.79-2.94-28.28,25-33.38,21.23-3.86,33.28-17.48,39.41-27.43C2661.61,2116.46,2679.79,2116.57,2676.89,2148.19Z"></path><path class="cls-33" d="M2493.49,2172.58c-21.08-.63-42.6-1.4-63.72-2-2.09-15.5,3.42-44.36,7.75-60.26C2455.52,2116.53,2487.47,2133,2493.49,2172.58Z"></path><path class="cls-33" d="M2615.67,2110.66c-4.11,6.39-10.47,6.61-16.56,6.61-54.9-3.56-82.74-24.83-92.88-33.9-4.4-14.06,7.68-14.17,25.78-3.23C2564.11,2100,2592.65,2107.1,2615.67,2110.66Z"></path><path class="cls-36" d="M2552.31,2174.6c-49.68,0-123.19-2.91-124.15-2.94l-1.06,0,.08-2.12,1.07,0c1.25,0,125.74,5,159.86,2,32.57-2.86,81.78-7.18,88.06-28.91l.29-1,2.05.59-.3,1c-6.68,23.13-56.77,27.53-89.92,30.43C2580.31,2174.33,2567.41,2174.6,2552.31,2174.6Z"></path><path class="cls-34" d="M2912.7,1695.29h83.06c47.28,0,86.78,38,86.49,85.23-.11,18.88-6.14,35.61-20.68,44.39h-219c-13.82-6.42-19.15-28.82-15.47-55.66C2832.94,1726.72,2869.77,1695.29,2912.7,1695.29Z"></path><path class="cls-34" d="M2925.28,1697.48l.06-.72c1.35-16,15.18-28.53,31.48-28.53s30.13,12.53,31.49,28.53l.06.72h10.72l-.14-1.62c-1.82-21.49-20.32-38.32-42.13-38.32s-40.31,16.83-42.13,38.32l-.14,1.62Z"></path><rect class="cls-33" x="2926.22" y="1744.57" width="20.54" height="80.34"></rect><rect class="cls-33" x="2966.89" y="1744.57" width="20.54" height="80.34"></rect><ellipse class="cls-34" cx="2074.24" cy="1745.21" rx="34.79" ry="50.02" transform="translate(11.06 3503.49) rotate(-80.51)"></ellipse><ellipse class="cls-34" cx="2191.08" cy="1764.73" rx="34.79" ry="50.02" transform="translate(89.4 3635.04) rotate(-80.51)"></ellipse><path class="cls-34" d="M2162.19,1748.17h-5.53c0-3.17-8.64-8.9-22.19-10.66-10.48-1.36-18,.45-20.58,2.71-.9.79-.9,1.37-.9,1.56h-5.53a7.52,7.52,0,0,1,2.78-5.71c4.45-3.91,14-5.45,24.94-4C2148.27,1733.74,2162.19,1740,2162.19,1748.17Z"></path><path class="cls-34" d="M2025.3,1735.14a2.76,2.76,0,0,1-1.46-5.1l88.44-55.34a.51.51,0,0,1,.16-.09c13.07-7,18.82-1.52,20.69,1.18,5.17,7.5,1.34,20.94-8.37,29.35a2.76,2.76,0,0,1-3.61-4.17c8.11-7,10.61-17.44,7.43-22-2.15-3.11-7-2.93-13.44.5l-88.37,55.29A2.83,2.83,0,0,1,2025.3,1735.14Z"></path><path class="cls-34" d="M2240.17,1777a2.69,2.69,0,0,1-1-.2,2.76,2.76,0,0,1-1.53-3.59l29.85-74a3.68,3.68,0,0,1,.23-.44c4-6.27,8-4.47,9.19-3.77,6.06,3.68,7.37,21,.38,33a2.76,2.76,0,1,1-4.78-2.78c4.31-7.4,4.8-17.24,3.07-22.73a6,6,0,0,0-1.46-2.77,5.27,5.27,0,0,0-1.6,1.75l-29.76,73.78A2.75,2.75,0,0,1,2240.17,1777Z"></path><path class="cls-33" d="M2037,1754l37.53-37.53c-.95-.09-1.92-.16-2.89-.2-22.52-.92-39.62,11.32-38.21,27.32A24.11,24.11,0,0,0,2037,1754Z"></path><path class="cls-33" d="M2090,1720l-43.81,43.81c7.94,6,18.85,9.93,30.6,10.41,22.52.92,39.63-11.31,38.21-27.32C2114,1735.48,2103.88,1725.25,2090,1720Z"></path><path class="cls-33" d="M2221.82,1746.93l-44.72,44.72a60.17,60.17,0,0,0,16.63,3c23.28,1,40.95-11.69,39.49-28.23C2232.58,1759.18,2228.34,1752.37,2221.82,1746.93Z"></path><path class="cls-33" d="M2164.3,1785.47q22.86-22.87,45.73-45.73a60,60,0,0,0-21.6-5c-23.27-.94-40.95,11.7-39.49,28.24C2149.71,1771.67,2155.56,1779.66,2164.3,1785.47Z"></path><polygon class="cls-34" points="1370.32 2047.78 1363.67 2059.65 1242.51 2059.65 1242.51 2163.32 1426.83 2163.32 1426.83 2060.9 1419.53 2047.78 1370.32 2047.78"></polygon><rect class="cls-34" x="1313.42" y="2047.78" width="42.5" height="17.1"></rect><rect class="cls-34" x="1256.75" y="2047.78" width="42.5" height="17.1"></rect><rect class="cls-33" x="1242.51" y="2083.39" width="184.32" height="59.83"></rect><circle class="cls-33" cx="1371.75" cy="2113.31" r="42.26" transform="translate(-1092.56 1588.94) rotate(-45)"></circle><circle class="cls-34" cx="1371.75" cy="2113.31" r="32.77" transform="translate(-1092.56 1588.94) rotate(-45)"></circle><circle class="cls-33" cx="1371.75" cy="2113.31" r="15.67" transform="translate(-1092.56 1588.94) rotate(-45)"></circle><rect class="cls-33" x="2522.14" y="1650.81" width="59.47" height="180.82"></rect><circle class="cls-34" cx="2549.36" cy="1738.51" r="52.59" transform="translate(271.63 3820.24) rotate(-76.72)"></circle><circle class="cls-33" cx="2549.36" cy="1738.51" r="42.34"></circle><rect class="cls-34" x="2503.01" y="1700.18" width="8.23" height="13.94" transform="translate(1438.03 -1131.35) rotate(35.11)"></rect><rect class="cls-34" x="2493.03" y="1738.82" width="8.23" height="13.94" transform="matrix(0.99, -0.13, 0.13, 0.99, -209.79, 347.21)"></rect><rect class="cls-34" x="2587.23" y="1699.89" width="8.23" height="13.94" transform="translate(5693.94 1657.75) rotate(145.72)"></rect><rect class="cls-34" x="2597.25" y="1739.44" width="8.23" height="13.94" transform="translate(4947.66 3822.93) rotate(-172.37)"></rect><path class="cls-34" d="M2549.47,1740.79l-20.67-10.66a2,2,0,1,1,1.81-3.51l18.64,9.61,26.26-16.83a2,2,0,1,1,2.13,3.33Z"></path><path class="cls-33" d="M2873.85,2155.44c9.82,3,23.91,5.39,40,7.08a621.1,621.1,0,0,0,85.76,2.63c27-1.11,49.63-4.27,58.13-9.71,0,0,18.06-107.15-88.31-109.52-1.2,0-2.41,0-3.63,0C2855.4,2045.88,2873.85,2155.44,2873.85,2155.44Z"></path><path class="cls-37" d="M2913.85,2162.52a621.1,621.1,0,0,0,85.76,2.63c15-97.3-27.88-118.18-30.18-119.23l-.1,0h-3.53C2909.78,2077.17,2912.52,2147,2913.85,2162.52Z"></path><path class="cls-34" d="M3046.25,2159.54s-30.09,50-169.66,38.72c-59.7-4.84-2.73-42.81-2.73-42.81C2911.45,2164.43,2983.88,2168.57,3046.25,2159.54Z"></path><rect class="cls-38" x="1174.59" y="1020.17" width="756.4" height="84.36" rx="42.18"></rect><path class="cls-27" d="M1888.81,1020.17h-70.26v84.36h70.26a42.18,42.18,0,1,0,0-84.36Z"></path><path class="cls-4" d="M1862.77,1074.59a21.85,21.85,0,1,1,15.45-37.29h0a21.85,21.85,0,0,1-15.45,37.29Zm0-38.42a16.57,16.57,0,1,0,11.72,4.85A16.48,16.48,0,0,0,1862.77,1036.17Z"></path><polygon class="cls-4" points="1891.06 1084.89 1874.49 1068.19 1878.22 1064.46 1894.78 1081.17 1891.06 1084.89"></polygon><path class="cls-4" d="M1898.45,1088.56h0a4.75,4.75,0,0,1-6.71,0l-13.87-13.87,6.7-6.71,13.88,13.87A4.75,4.75,0,0,1,1898.45,1088.56Z"></path><path class="cls-4" d="M1336,1345.59c0-29.93,21.79-53.64,51.28-53.64s51.27,23.71,51.27,53.64-21.63,53.65-51.27,53.65S1336,1375.53,1336,1345.59Zm8,0c0,25.49,17.33,46.09,43.27,46.09s43.27-20.6,43.27-46.09-17.34-46.08-43.27-46.08S1344,1320.1,1344,1345.59Z"></path><path class="cls-4" d="M1465.82,1293.73l63.73,90.39v-90.39h7.7v103.73h-7.7l-63.73-90.69v90.69h-7.7V1293.73Z"></path><path class="cls-4" d="M1563.34,1293.73h7.7v96.62h49.5v7.11h-57.2Z"></path><path class="cls-4" d="M1637.73,1293.73h7.71v103.73h-7.71Z"></path><path class="cls-4" d="M1681.3,1293.73l63.72,90.39v-90.39h7.71v103.73H1745l-63.72-90.69v90.69h-7.71V1293.73Z"></path><path class="cls-4" d="M1786.52,1340.7h46.24v7.12h-46.24v42.53h50.68v7.11h-58.39V1293.73h57.5v7.11h-49.79Z"></path><path class="cls-4" d="M1925.82,1348.11c-15.26-6.67-27.86-14.67-27.86-30.38,0-11.7,9.49-25.78,28.9-25.78,18.52,0,28.16,15,28.16,15l-5.93,4.59s-7.41-12-22.08-12c-13,0-21.34,7.85-21.34,18.22,0,12.75,11.71,18.38,26.52,24.9,15.86,7,24.75,15,24.75,28.9,0,16.74-13.63,27.71-31,27.71-22.82,0-32.16-21.19-32.16-21.19l7-4.15s6.82,17.78,25.19,17.78c12.89,0,23.27-7.7,23.27-20.15C1949.24,1358.64,1938,1353.45,1925.82,1348.11Z"></path><path class="cls-4" d="M2045.71,1293.73h7.71v103.73h-7.71v-49.64H1986v49.64h-7.71V1293.73H1986v47h59.72Z"></path><path class="cls-4" d="M2073,1345.59c0-29.93,21.79-53.64,51.28-53.64s51.27,23.71,51.27,53.64-21.63,53.65-51.27,53.65S2073,1375.53,2073,1345.59Zm8,0c0,25.49,17.34,46.09,43.27,46.09s43.27-20.6,43.27-46.09-17.34-46.08-43.27-46.08S2081,1320.1,2081,1345.59Z"></path><path class="cls-4" d="M2195.1,1293.73h26.53c20.15,0,32.75,13,32.75,30.08s-12.6,30.08-32.75,30.08H2202.8v43.57h-7.7Zm26.67,53c14.53,0,24.6-9.34,24.6-23s-10.07-23-24.6-23h-19v45.94Z"></path><path class="cls-4" d="M2271.27,1293.73h26.53c20.15,0,32.75,13,32.75,30.08s-12.6,30.08-32.75,30.08H2279v43.57h-7.71Zm26.68,53c14.52,0,24.6-9.34,24.6-23s-10.08-23-24.6-23h-19v45.94Z"></path><path class="cls-4" d="M2349.52,1293.73h7.7v103.73h-7.7Z"></path><path class="cls-4" d="M2393.09,1293.73l63.72,90.39v-90.39h7.71v103.73h-7.71l-63.72-90.69v90.69h-7.71V1293.73Z"></path><path class="cls-4" d="M2540.1,1342.93H2576v42.38s-14.37,13.93-40.75,13.93c-30.68,0-51.13-23.71-51.13-53.65s21.19-53.64,51.13-53.64c25.78,0,37.64,14.67,37.64,14.67l-5.48,5.19s-9.93-12.3-32.16-12.3c-25.49,0-43.13,20.3-43.13,46.08s16.75,46.09,43.13,46.09c22.23,0,33.19-9.78,33.19-9.78v-31.71h-28.3Z"></path><path class="cls-39" d="M4019.19,2824.3c-20.06-26.23-73.36-45-136-45s-115.89,18.76-135.95,45h-8.52v23.08c0,37.59,64.68,68.06,144.47,68.06s144.48-30.47,144.48-68.06V2824.3Z"></path><ellipse class="cls-40" cx="3883.23" cy="2824.3" rx="144.48" ry="68.07"></ellipse><ellipse class="cls-41" cx="3883.23" cy="2824.3" rx="135.39" ry="63.79"></ellipse><ellipse class="cls-42" cx="3883.23" cy="2824.3" rx="123.53" ry="56.96"></ellipse><ellipse class="cls-41" cx="3883.23" cy="2824.3" rx="120.59" ry="55.6"></ellipse><path class="cls-43" d="M3851.78,2851.71c.72-4.11-6.6-8.3-6.6-8.3s-8.49,2.47-9.21,6.59c-.65,3.71,5.25,7.49,6.4,8.19a116,116,0,0,1-22.09-7.41c1.4-.26,8.65-1.77,11-5.19,2.58-3.8-1.87-8.51-1.87-8.51s-8.64,1.44-11.22,5.24c-2.21,3.26.76,7.19,1.64,8.23a55.62,55.62,0,0,1-13.73-8.86l.55-.08a4.37,4.37,0,0,0-.49-.58c1.89-.28,8.2-1.39,11-4.28,3.25-3.43.27-8,.27-8s-8.27.93-11.52,4.36c-2.3,2.41-1.49,5.41-.82,7a13.6,13.6,0,0,0-1.66-1.11,23.86,23.86,0,0,1-5.53-10.23c2.32,0,7.89-.26,12.09-2.23a11.62,11.62,0,0,0,6.52-7.05s-7.76-.33-13.2,2.23a12.47,12.47,0,0,0-5.76,5.24c0-.12,0-.24-.06-.36a19.08,19.08,0,0,1,1.94-11,36.6,36.6,0,0,0,12.89-1.29,19,19,0,0,0,9-5.94,36.75,36.75,0,0,0-13.14,1.27,20,20,0,0,0-8.37,5.17c2.36-4.36,6.36-8.44,11.83-12.11a45.56,45.56,0,0,0,12.61-.29,31.17,31.17,0,0,0,11.24-4.27,45.44,45.44,0,0,0-13.46.17,33.31,33.31,0,0,0-5.86,1.62,94.49,94.49,0,0,1,16.51-7,44.47,44.47,0,0,0,12.9-1,24.38,24.38,0,0,0,10-4.9,44.82,44.82,0,0,0-13.31,1,26.39,26.39,0,0,0-9.05,4.15,100,100,0,0,0-16.65,6.83,6.79,6.79,0,0,0,1.16-1.5c1.76-3.28-1.09-6.71-1.09-6.71s-5.71,1.89-7.47,5.17,1.09,6.7,1.09,6.7l.41-.14a39.45,39.45,0,0,0-10.26,9.59,4,4,0,0,0-.93-2.67c-2.54-3.25-10-5.58-10-5.58s-3.37,2.93-.83,6.18c2.24,2.88,8.37,5,9.73,5.49a18.87,18.87,0,0,0-1.56,13.24h0a23.49,23.49,0,0,0,4.76,9.33,22.33,22.33,0,0,0-5.07-1.43c-7.62-1.27-17.39.41-17.39.41s2.58,3.74,10.2,5c5.79,1,12.81.22,15.86-.19a53.31,53.31,0,0,0,11.17,7.62c11.5,6,27.39,10.46,46,12.8l.29-.49a190.32,190.32,0,0,1-19.82-3.5C3843.75,2857.94,3851.11,2855.53,3851.78,2851.71Z"></path><path class="cls-43" d="M3826.41,2855.53c-8.94-.24-17.87,3.22-17.87,3.22a28.58,28.58,0,0,0,14.49,4.11c8.94.24,17.87-3.22,17.87-3.22A28.62,28.62,0,0,0,3826.41,2855.53Z"></path><path class="cls-43" d="M3805.42,2847c-8.56-.48-17.8,2.4-17.8,2.4s4.64,3.65,13.2,4.13,17.8-2.39,17.8-2.39S3814,2847.5,3805.42,2847Z"></path><path class="cls-43" d="M3796.73,2829.19s-.64-3.58-7.05-5.61-16.18-1.73-16.18-1.73.64,3.58,7.06,5.61S3796.73,2829.19,3796.73,2829.19Z"></path><path class="cls-43" d="M3940.06,2854.88a28.62,28.62,0,0,0-14.49,4.11s8.93,3.46,17.87,3.22a28.62,28.62,0,0,0,14.49-4.11S3949,2854.64,3940.06,2854.88Z"></path><path class="cls-43" d="M3961.05,2846.37c-8.56.48-13.2,4.14-13.2,4.14s9.24,2.87,17.8,2.39,13.2-4.13,13.2-4.13S3969.61,2845.89,3961.05,2846.37Z"></path><path class="cls-43" d="M3970,2836a22.33,22.33,0,0,0-5.07,1.43,23.49,23.49,0,0,0,4.76-9.33h0a18.93,18.93,0,0,0-1.56-13.25c1.36-.45,7.49-2.61,9.73-5.49,2.54-3.25-.84-6.18-.84-6.18s-7.47,2.33-10,5.58a4,4,0,0,0-.93,2.68,39.31,39.31,0,0,0-10.26-9.6l.41.14s2.85-3.42,1.09-6.7-7.47-5.17-7.47-5.17-2.85,3.43-1.09,6.71a6.79,6.79,0,0,0,1.16,1.5,100,100,0,0,0-16.65-6.83,26.39,26.39,0,0,0-9-4.15,44.63,44.63,0,0,0-13.31-.95,24.45,24.45,0,0,0,10,4.89,44.47,44.47,0,0,0,12.9,1,94.82,94.82,0,0,1,16.51,7,33.31,33.31,0,0,0-5.86-1.62,45.44,45.44,0,0,0-13.46-.17,31.17,31.17,0,0,0,11.24,4.27,45.56,45.56,0,0,0,12.61.29c5.47,3.67,9.47,7.75,11.83,12.11a20.08,20.08,0,0,0-8.37-5.17,36.8,36.8,0,0,0-13.15-1.27,19.11,19.11,0,0,0,9,5.94,36.6,36.6,0,0,0,12.89,1.29,19.08,19.08,0,0,1,1.94,11c0,.12,0,.24-.06.37a12.43,12.43,0,0,0-5.76-5.25c-5.44-2.56-13.2-2.23-13.2-2.23a11.62,11.62,0,0,0,6.52,7c4.2,2,9.77,2.22,12.09,2.24a23.78,23.78,0,0,1-5.53,10.22,13.6,13.6,0,0,0-1.66,1.11c.67-1.56,1.48-4.56-.82-7-3.25-3.42-11.52-4.36-11.52-4.36s-3,4.61.27,8c2.76,2.89,9.07,4,11,4.28a4.37,4.37,0,0,0-.49.58l.55.09a55.78,55.78,0,0,1-13.74,8.85c.89-1,3.86-5,1.64-8.23-2.57-3.8-11.21-5.24-11.21-5.24s-4.45,4.71-1.87,8.51c2.32,3.42,9.58,4.93,11,5.19a116,116,0,0,1-22.09,7.41c1.15-.7,7.05-4.48,6.4-8.19-.72-4.12-9.21-6.59-9.21-6.59s-7.32,4.19-6.6,8.3c.67,3.82,8,6.23,9.08,6.55a192.91,192.91,0,0,1-19.82,3.51l.29.48c18.57-2.33,34.46-6.76,46-12.8a53.31,53.31,0,0,0,11.17-7.62c3.05.42,10.07,1.15,15.86.19,7.62-1.27,10.2-5,10.2-5S3977.66,2834.68,3970,2836Z"></path><path class="cls-43" d="M3976.79,2822.93c-6.41,2-7.05,5.61-7.05,5.61s9.76.29,16.17-1.73,7.05-5.61,7.05-5.61S3983.2,2820.91,3976.79,2822.93Z"></path><ellipse class="cls-43" cx="3883.23" cy="2824.3" rx="38.12" ry="17.58"></ellipse><path class="cls-39" d="M3635.77,2965.72c-24.86-32.51-90.89-55.75-168.46-55.75s-143.6,23.24-168.46,55.75h-10.56v28.59c0,46.58,80.15,84.35,179,84.35s179-37.77,179-84.35v-28.59Z"></path><ellipse class="cls-40" cx="3467.31" cy="2965.72" rx="179.02" ry="84.34"></ellipse><ellipse class="cls-41" cx="3467.31" cy="2965.72" rx="167.77" ry="79.04"></ellipse><ellipse class="cls-44" cx="3467.31" cy="2965.72" rx="153.06" ry="70.57"></ellipse><ellipse class="cls-41" cx="3467.31" cy="2965.72" rx="149.43" ry="68.9"></ellipse><path class="cls-43" d="M3428.33,2999.68c.9-5.09-8.17-10.29-8.17-10.29s-10.52,3.07-11.41,8.17c-.81,4.6,6.5,9.28,7.93,10.15a143.36,143.36,0,0,1-27.37-9.18c1.73-.33,10.72-2.19,13.6-6.43,3.2-4.7-2.32-10.54-2.32-10.54s-10.7,1.78-13.89,6.48c-2.75,4,.94,8.92,2,10.21a69.06,69.06,0,0,1-17-11c.44-.06.69-.11.69-.11a8.43,8.43,0,0,0-.62-.71c2.34-.35,10.17-1.73,13.58-5.31,4-4.24.34-9.95.34-9.95s-10.24,1.16-14.28,5.4c-2.84,3-1.84,6.71-1,8.64a18.82,18.82,0,0,0-2.06-1.37,29.61,29.61,0,0,1-6.85-12.67c2.88,0,9.78-.33,15-2.78,6.74-3.17,8.07-8.72,8.07-8.72s-9.62-.41-16.36,2.76a15.35,15.35,0,0,0-7.13,6.5c0-.15-.06-.3-.08-.45a23.71,23.71,0,0,1,2.4-13.6c1.58.12,9.22.6,16-1.6a23.62,23.62,0,0,0,11.18-7.35s-8.7-.9-16.29,1.57a24.8,24.8,0,0,0-10.36,6.4c2.92-5.4,7.88-10.46,14.65-15a55.79,55.79,0,0,0,15.62-.35,38.74,38.74,0,0,0,13.93-5.3,56.25,56.25,0,0,0-16.68.22,40.88,40.88,0,0,0-7.26,2,117.26,117.26,0,0,1,20.46-8.71,55.44,55.44,0,0,0,16-1.23,30.31,30.31,0,0,0,12.37-6.07,55.43,55.43,0,0,0-16.49,1.19,32.25,32.25,0,0,0-11.21,5.14,123.11,123.11,0,0,0-20.63,8.46,8.33,8.33,0,0,0,1.43-1.86c2.18-4.06-1.35-8.31-1.35-8.31s-7.07,2.34-9.25,6.41,1.35,8.3,1.35,8.3l.51-.18a48.74,48.74,0,0,0-12.72,11.89,5,5,0,0,0-1.15-3.31c-3.14-4-12.41-6.92-12.41-6.92s-4.18,3.63-1,7.66c2.78,3.57,10.37,6.24,12.06,6.81a24,24,0,0,0-2.43,13.77,25.91,25.91,0,0,0,.49,2.63h0a29,29,0,0,0,5.89,11.56,27.94,27.94,0,0,0-6.27-1.77c-9.45-1.58-21.55.51-21.55.51s3.19,4.63,12.64,6.2c7.17,1.2,15.87.28,19.64-.22a66.88,66.88,0,0,0,13.85,9.44c14.24,7.48,33.93,13,56.94,15.85l.36-.6a237.75,237.75,0,0,1-24.55-4.34C3418.38,3007.4,3427.5,3004.42,3428.33,2999.68Z"></path><path class="cls-43" d="M3396.9,3004.42c-11.07-.31-22.14,4-22.14,4s6.88,4.78,17.95,5.08,22.14-4,22.14-4S3408,3004.72,3396.9,3004.42Z"></path><path class="cls-43" d="M3370.9,2993.87c-10.61-.59-22.06,3-22.06,3s5.75,4.53,16.35,5.12,22.06-3,22.06-3S3381.5,2994.47,3370.9,2993.87Z"></path><path class="cls-43" d="M3360.13,2971.77s-.79-4.43-8.74-6.94-20-2.14-20-2.14.79,4.43,8.74,6.94S3360.13,2971.77,3360.13,2971.77Z"></path><path class="cls-43" d="M3537.73,3003.61c-11.07.31-18,5.09-18,5.09s11.07,4.29,22.14,4,18-5.09,18-5.09S3548.8,3003.31,3537.73,3003.61Z"></path><path class="cls-43" d="M3563.73,2993.07c-10.6.6-16.35,5.12-16.35,5.12s11.45,3.56,22,3,16.36-5.12,16.36-5.12S3574.34,2992.48,3563.73,2993.07Z"></path><path class="cls-43" d="M3574.87,2980.15a27.94,27.94,0,0,0-6.27,1.77,29.14,29.14,0,0,0,5.89-11.55h0a23.3,23.3,0,0,0-1.93-16.41c1.68-.56,9.27-3.24,12.06-6.81,3.14-4-1-7.66-1-7.66s-9.27,2.9-12.41,6.93a4.93,4.93,0,0,0-1.15,3.31,48.93,48.93,0,0,0-12.72-11.9l.51.19s3.53-4.25,1.35-8.31-9.25-6.4-9.25-6.4-3.53,4.24-1.35,8.3a8.11,8.11,0,0,0,1.43,1.86,124,124,0,0,0-20.63-8.45,32.51,32.51,0,0,0-11.21-5.15,55.63,55.63,0,0,0-16.49-1.18,30.45,30.45,0,0,0,12.37,6.07,54.91,54.91,0,0,0,16,1.22,117.9,117.9,0,0,1,20.45,8.71,41.5,41.5,0,0,0-7.26-2,56.46,56.46,0,0,0-16.68-.21,38.74,38.74,0,0,0,13.94,5.3,56.19,56.19,0,0,0,15.62.35c6.77,4.55,11.72,9.6,14.65,15a24.74,24.74,0,0,0-10.37-6.41c-7.58-2.46-16.28-1.57-16.28-1.57a23.55,23.55,0,0,0,11.18,7.35c6.76,2.2,14.39,1.73,16,1.6a23.74,23.74,0,0,1,2.41,13.6c0,.15-.06.3-.08.45a15.4,15.4,0,0,0-7.13-6.5c-6.75-3.17-16.36-2.76-16.36-2.76s1.33,5.56,8.07,8.73c5.21,2.45,12.11,2.76,15,2.78a29.67,29.67,0,0,1-6.85,12.67,17.68,17.68,0,0,0-2.07,1.37c.84-1.93,1.84-5.65-1-8.64-4-4.24-14.27-5.4-14.27-5.4s-3.7,5.71.33,10c3.42,3.58,11.25,5,13.59,5.3a6,6,0,0,0-.62.72l.69.11a69.64,69.64,0,0,1-17,11c1.09-1.3,4.77-6.17,2-10.21-3.2-4.7-13.89-6.49-13.89-6.49s-5.52,5.84-2.33,10.54c2.89,4.24,11.88,6.11,13.61,6.43a143.36,143.36,0,0,1-27.37,9.18c1.42-.86,8.74-5.54,7.93-10.14-.9-5.1-11.42-8.17-11.42-8.17s-9.06,5.19-8.17,10.29c.83,4.73,9.95,7.71,11.25,8.12a238.23,238.23,0,0,1-24.55,4.34l.35.6c23-2.9,42.7-8.38,56.95-15.86a66,66,0,0,0,13.84-9.44c3.78.51,12.48,1.42,19.65.23,9.44-1.58,12.64-6.21,12.64-6.21S3584.31,2978.58,3574.87,2980.15Z"></path><path class="cls-43" d="M3583.24,2964c-7.95,2.51-8.74,6.95-8.74,6.95s12.09.37,20-2.14,8.74-6.95,8.74-6.95S3591.19,2961.51,3583.24,2964Z"></path><ellipse class="cls-43" cx="3467.31" cy="2965.72" rx="47.24" ry="21.78"></ellipse><path class="cls-45" d="M3821.27,2650.57c-18.53-24.23-67.74-41.55-125.55-41.55s-107,17.32-125.56,41.55h-7.87v21.31c0,34.72,59.74,62.86,133.43,62.86s133.42-28.14,133.42-62.86v-21.31Z"></path><ellipse class="cls-45" cx="3695.72" cy="2650.57" rx="133.43" ry="62.86"></ellipse><ellipse class="cls-46" cx="3695.72" cy="2650.57" rx="125.04" ry="58.91"></ellipse><path class="cls-45" d="M3663.73,2678.44c.74-4.18-6.7-8.45-6.7-8.45s-8.63,2.52-9.37,6.71c-.66,3.77,5.34,7.61,6.51,8.32a117.16,117.16,0,0,1-22.45-7.53c1.41-.27,8.79-1.8,11.16-5.28,2.62-3.85-1.91-8.64-1.91-8.64s-8.78,1.46-11.4,5.32c-2.25,3.31.77,7.31,1.67,8.37a57,57,0,0,1-14-9l.57-.09a6,6,0,0,0-.51-.58c1.92-.28,8.35-1.42,11.15-4.36,3.31-3.48.27-8.16.27-8.16s-8.4,1-11.71,4.43c-2.34,2.45-1.52,5.51-.83,7.09a14.14,14.14,0,0,0-1.69-1.12,24.34,24.34,0,0,1-5.63-10.4c2.37,0,8-.27,12.3-2.28,5.54-2.6,6.62-7.16,6.62-7.16s-7.88-.34-13.42,2.27a12.66,12.66,0,0,0-5.85,5.33l-.06-.37a19.48,19.48,0,0,1,2-11.16,37,37,0,0,0,13.11-1.31,19.37,19.37,0,0,0,9.17-6,37.18,37.18,0,0,0-13.36,1.29,20.35,20.35,0,0,0-8.51,5.25c2.4-4.44,6.47-8.58,12-12.31a46.19,46.19,0,0,0,12.81-.29,31.77,31.77,0,0,0,11.43-4.35,46.13,46.13,0,0,0-13.68.17,34.19,34.19,0,0,0-6,1.65,96.5,96.5,0,0,1,16.78-7.14,45.45,45.45,0,0,0,13.12-1,24.85,24.85,0,0,0,10.15-5,45.71,45.71,0,0,0-13.53,1,26.58,26.58,0,0,0-9.2,4.23,102.28,102.28,0,0,0-16.93,6.93,6.44,6.44,0,0,0,1.17-1.52c1.79-3.33-1.1-6.82-1.1-6.82s-5.8,1.93-7.59,5.26,1.11,6.81,1.11,6.81l.41-.15a40.13,40.13,0,0,0-10.43,9.76,4.07,4.07,0,0,0-.95-2.72c-2.57-3.3-10.18-5.68-10.18-5.68s-3.43,3-.85,6.29c2.28,2.93,8.51,5.12,9.89,5.58a19.82,19.82,0,0,0-2,11.31,20.51,20.51,0,0,0,.41,2.16h0a23.86,23.86,0,0,0,4.84,9.48,22.86,22.86,0,0,0-5.15-1.46c-7.75-1.29-17.69.42-17.69.42s2.63,3.8,10.38,5.09c5.88,1,13,.23,16.12-.18a54.32,54.32,0,0,0,11.36,7.74c11.68,6.14,27.84,10.64,46.72,13l.29-.49a196.7,196.7,0,0,1-20.15-3.56C3655.57,2684.77,3663.05,2682.32,3663.73,2678.44Z"></path><path class="cls-45" d="M3637.94,2682.32c-9.08-.25-18.17,3.27-18.17,3.27a29,29,0,0,0,14.74,4.18c9.08.25,18.16-3.28,18.16-3.28A29.08,29.08,0,0,0,3637.94,2682.32Z"></path><path class="cls-45" d="M3616.61,2673.67c-8.71-.49-18.1,2.44-18.1,2.44s4.72,3.71,13.42,4.2,18.09-2.44,18.09-2.44S3625.31,2674.16,3616.61,2673.67Z"></path><path class="cls-45" d="M3607.77,2655.54s-.65-3.64-7.17-5.7-16.44-1.76-16.44-1.76.65,3.64,7.17,5.7S3607.77,2655.54,3607.77,2655.54Z"></path><path class="cls-45" d="M3753.49,2681.66a29.08,29.08,0,0,0-14.73,4.17s9.08,3.53,18.16,3.28a29,29,0,0,0,14.74-4.18S3762.58,2681.41,3753.49,2681.66Z"></path><path class="cls-45" d="M3774.83,2673c-8.71.49-13.42,4.2-13.42,4.2s9.39,2.93,18.09,2.44,13.42-4.2,13.42-4.2S3783.53,2672.52,3774.83,2673Z"></path><path class="cls-45" d="M3784,2662.41a23.28,23.28,0,0,0-5.15,1.45,24,24,0,0,0,4.84-9.47h0a20.46,20.46,0,0,0,.4-2.16,19.74,19.74,0,0,0-2-11.31c1.38-.46,7.61-2.65,9.89-5.58,2.58-3.31-.85-6.29-.85-6.29s-7.6,2.38-10.18,5.68a4.12,4.12,0,0,0-.95,2.72,40,40,0,0,0-10.43-9.76l.42.15s2.89-3.48,1.1-6.81-7.59-5.26-7.59-5.26-2.89,3.49-1.1,6.82a6.44,6.44,0,0,0,1.17,1.52,101.92,101.92,0,0,0-16.93-6.93,26.39,26.39,0,0,0-9.2-4.23,45.64,45.64,0,0,0-13.52-1,24.76,24.76,0,0,0,10.14,5,45.46,45.46,0,0,0,13.12,1,96.17,96.17,0,0,1,16.78,7.14,34.19,34.19,0,0,0-6-1.65,46.13,46.13,0,0,0-13.68-.17,31.77,31.77,0,0,0,11.43,4.35,46.26,46.26,0,0,0,12.82.29c5.55,3.73,9.62,7.87,12,12.31a20.35,20.35,0,0,0-8.51-5.25,37.18,37.18,0,0,0-13.36-1.29,19.37,19.37,0,0,0,9.17,6A37,37,0,0,0,3781,2641a19.4,19.4,0,0,1,2,11.16c0,.12,0,.24-.06.37a12.61,12.61,0,0,0-5.85-5.33c-5.54-2.61-13.42-2.27-13.42-2.27s1.08,4.56,6.62,7.16c4.27,2,9.93,2.27,12.3,2.28a24.43,24.43,0,0,1-5.62,10.4,14.33,14.33,0,0,0-1.7,1.12c.69-1.58,1.51-4.64-.83-7.09-3.31-3.48-11.71-4.43-11.71-4.43s-3,4.68.28,8.16c2.8,2.94,9.22,4.08,11.14,4.36a6,6,0,0,0-.51.58l.57.09a56.8,56.8,0,0,1-14,9c.9-1.06,3.92-5.06,1.67-8.37-2.62-3.86-11.4-5.32-11.4-5.32s-4.53,4.78-1.91,8.64c2.37,3.48,9.75,5,11.17,5.28a117.51,117.51,0,0,1-22.46,7.53c1.17-.71,7.17-4.55,6.51-8.32-.74-4.19-9.37-6.71-9.37-6.71s-7.44,4.27-6.7,8.45c.68,3.88,8.16,6.33,9.23,6.66a195.73,195.73,0,0,1-20.15,3.56l.29.49c18.88-2.37,35-6.87,46.72-13a54.67,54.67,0,0,0,11.37-7.74c3.09.41,10.23,1.16,16.12.18,7.74-1.29,10.37-5.09,10.37-5.09S3791.71,2661.12,3784,2662.41Z"></path><path class="cls-45" d="M3790.83,2649.18c-6.52,2.06-7.17,5.7-7.17,5.7s9.92.3,16.44-1.76,7.17-5.7,7.17-5.7S3797.35,2647.12,3790.83,2649.18Z"></path><ellipse class="cls-45" cx="3695.72" cy="2650.57" rx="38.76" ry="17.87"></ellipse><rect class="cls-32" x="2059.56" y="514.4" width="1141.05" height="244.17" rx="122.09"></rect><polygon class="cls-47" points="2213.57 557.29 2233.23 617.79 2296.84 617.79 2245.38 655.18 2265.03 715.68 2213.57 678.29 2162.11 715.68 2181.76 655.18 2130.3 617.79 2193.91 617.79 2213.57 557.29"></polygon><polygon class="cls-47" points="2421.24 557.29 2440.9 617.79 2504.52 617.79 2453.05 655.18 2472.71 715.68 2421.24 678.29 2369.78 715.68 2389.44 655.18 2337.97 617.79 2401.59 617.79 2421.24 557.29"></polygon><polygon class="cls-47" points="2628.92 557.29 2648.58 617.79 2712.19 617.79 2660.73 655.18 2680.39 715.68 2628.92 678.29 2577.46 715.68 2597.11 655.18 2545.65 617.79 2609.26 617.79 2628.92 557.29"></polygon><polygon class="cls-47" points="2836.6 557.29 2856.26 617.79 2919.87 617.79 2868.4 655.18 2888.06 715.68 2836.6 678.29 2785.13 715.68 2804.79 655.18 2753.33 617.79 2816.94 617.79 2836.6 557.29"></polygon><polygon class="cls-47" points="3044.27 557.29 3063.93 617.79 3127.55 617.79 3076.08 655.18 3095.74 715.68 3044.27 678.29 2992.81 715.68 3012.47 655.18 2961 617.79 3024.62 617.79 3044.27 557.29"></polygon></g></g></g></svg>