<svg xmlns="http://www.w3.org/2000/svg" viewBox="0 0 1353.03 964.43"><defs><style>.cls-1{isolation:isolate;}.cls-2,.cls-4,.cls-7{fill:#ffd4d8;}.cls-2,.cls-22{opacity:0.4;}.cls-3{fill:#ffbac0;}.cls-5{fill:#f8f8f8;}.cls-6{fill:#fff5f4;}.cls-7{opacity:0.2;}.cls-8{fill:#e6e6e6;}.cls-33,.cls-8{mix-blend-mode:multiply;}.cls-9{fill:#fe5722;}.cls-10,.cls-22{fill:#fff;}.cls-11{fill:#f8bbd0;}.cls-12,.cls-14,.cls-15,.cls-42{fill:none;stroke:#fff;stroke-miterlimit:10;}.cls-12{stroke-width:0.51px;}.cls-13{fill:#f5989f;}.cls-14{stroke-width:0.28px;}.cls-15{stroke-width:0.77px;}.cls-16{fill:#ffdc14;}.cls-17{fill:#666;}.cls-18{fill:#757575;}.cls-19{fill:#b3b3b3;}.cls-20{fill:#1c0c00;}.cls-21{fill:#f5a39a;}.cls-23{fill:#440c01;}.cls-24{fill:#ffe2d7;}.cls-25{fill:#193891;}.cls-26{fill:#405eb5;}.cls-27{fill:#1e3e9c;}.cls-28{fill:#946af0;}.cls-29{fill:#a37bf5;}.cls-30{fill:#f5849b;}.cls-31{fill:#8856f0;}.cls-32{fill:#ad89f5;}.cls-33{fill:#ccc;}.cls-34{fill:#ff4747;mix-blend-mode:soft-light;}.cls-35{fill:#ffdbc6;}.cls-36{fill:#8f5252;}.cls-37{fill:#c27b7a;}.cls-38{fill:#c25453;}.cls-39{fill:#d69a99;}.cls-40{fill:#d1706f;}.cls-41{fill:#f04a48;}.cls-42{stroke-width:0.24px;}.cls-43{fill:#f08b94;}.cls-44{fill:#db302e;}.cls-45{fill:#f55f5d;}.cls-46{fill:#f5c6b0;}.cls-47{fill:#f56d64;}.cls-48{fill:#101659;}.cls-49{fill:#244196;}.cls-50{fill:#3855ab;}.cls-51{fill:#fea79d;}.cls-52{fill:#ffe852;}</style></defs><g class="cls-1"><g id="Layer_2" data-name="Layer 2"><g id="Layer_1-2" data-name="Layer 1"><path class="cls-2" d="M736.49,181.21c1.3,4.35,2.31,8.52,3.09,12.5C759,295.17,608.67,278.65,608.67,278.65s-4,69.05-115.8,99.45-135.67-17-135.67-17-10.62,43.18-47.54,54.28-60.77-10.11-60.77-10.11-22.4,56.05-98.53,22a86.94,86.94,0,0,1-42.57-39.49s0,0,0,0c-22.22-42.18-9.63-95.32-9.63-95.32,48.73-111.52,116.71-64.88,116.71-64.88s-8.74-29.75,23.67-52S318,173.27,318,173.27,291.72,54.4,446.85,12.23c125.87-34.19,159,60.94,167,98.07a140,140,0,0,1,2.38,14.13s.93-.62,2.59-1.6C633.34,114.22,712,99.05,736.49,181.21Z"></path><path class="cls-3" d="M446.38,324.06c-.05,2.75-.16,5.56-.35,8.39-.94,16-3.7,32.81-10.28,44.89C422.86,401,366,410.13,319.31,415.53c-3.75.42-7.45.85-11,1.24-7.45.81-14.53,1.55-20.93,2.25-2.15.24-4.22.46-6.22.71-.27,0-.55,0-.81.09-45.66,4.95-60.59-24-60.59-24s-20.19,7.58-34.3-1.4v0C177.83,389.6,172,380,172,361.93c-.07-51.78,45.07-47.47,45.07-47.47s-40.69-62.25,37-101.09,117.12,43.76,117.12,43.76,48.75-34.9,70.09,18.18c.87,2.12,1.68,4.42,2.44,6.84.21.63.41,1.26.59,1.9a8.46,8.46,0,0,1,.24.82A290.61,290.61,0,0,1,446.38,324.06Z"></path><path class="cls-2" d="M806.53,461.51c29.38,53.89,189.4,64.66,270.28,74.1s107.33-41.77,107.33-41.77,35.3,13.25,60-2.46v0c13.26-8.4,23.44-25.15,23.47-56.77.13-90.51-78.78-83-78.78-83s71.12-108.81-64.65-176.7-204.73,76.49-204.73,76.49-92.19-66-126.78,43.74q-.78,2.33-1.46,4.75S777.17,407.66,806.53,461.51Z"></path><path class="cls-4" d="M1004.23,228.67c-.74,13.37-17,11.52-17,11.52s-7.4,12.49-19.42,11.56a19.35,19.35,0,0,1-16.18-10.63s-6.14,28.66-38.67,33.75-41.78-20.35-41.78-20.35-22.66,25.43-51.78-19c-9.14-13.91-14.13-22.6-16.67-28-5.62-11.79.48-7.64.48-7.64,22.2-32.83,48.09-9.71,48.09-9.71s6.93-31.9,48.08-33.75,48.55,41.15,48.55,41.15,6.47-3.7,13.41,2.31a19.89,19.89,0,0,1,6.93,13.87s24-22.66,33.75,3.23C1003.79,221.85,1004.42,225.66,1004.23,228.67Z"></path><path class="cls-3" d="M1220.13,425.72c0,1.62-.15,3.16-.32,4.6-4.4,36.77-51.78,14.5-51.78,14.5s-8.62,23.12-48.38,21.12-42.54-20.8-42.54-20.8a33.35,33.35,0,0,1-6.9,7.78,21.88,21.88,0,0,1-14.38,5.48,22.75,22.75,0,0,1-18.28-9.38,8.75,8.75,0,0,1-.51-.8s-13.26,16.65-34.53-3.4a31.51,31.51,0,0,1-9.73-18.18v0c-2.79-16.84,7-33.58,7-33.58,24.29-28.59,40.54-14.2,44.22-10.17a9.4,9.4,0,0,1,.8.94S1045,372.7,1058,368.7a19,19,0,0,1,7.27-.74c10.21.85,18.94,8.75,18.94,8.75s4-43.46,59.18-40.69c44.75,2.26,45.49,38.38,44.18,51.93-.32,3.17-.72,5.09-.72,5.09s.37-.11,1-.26C1193.51,391.45,1220.83,395,1220.13,425.72Z"></path><path class="cls-5" d="M183.21,324l1.57-3.33a59.43,59.43,0,0,1,5.31-9A52.58,52.58,0,0,1,201.57,300a49.55,49.55,0,0,1,19.55-8.65,57.31,57.31,0,0,1,12.26-1.19c1.07,0,2.15.05,3.24.15l1.52.11a.9.9,0,0,0,.36-.16c.43.22.56-2.85,1-4.86a141.85,141.85,0,0,1,7.55-27,100.73,100.73,0,0,1,14.76-26.24,64.09,64.09,0,0,1,24.66-19.25c9.95-4.08,20.33-5.49,30.76-5.45a83,83,0,0,1,29.61,5.85,92.22,92.22,0,0,1,24.23,14.39q2.61,2.13,5,4.41c.8.75,1.56,1.53,2.31,2.31l.46.45.15.08a.9.9,0,0,0,.46.06.76.76,0,0,0,.46-.24l1.14-1,2.37-2c1.58-1.29,3.17-2.49,4.76-3.64a65.83,65.83,0,0,1,19-9.68,46.1,46.1,0,0,1,16.29-2.09,39.45,39.45,0,0,1,10.26,2.26l3.41,1.42-3.54-1a40.14,40.14,0,0,0-10.17-1.27,47.08,47.08,0,0,0-15.45,3,71.85,71.85,0,0,0-17.83,10c-1.49,1.15-3,2.36-4.47,3.64l-2.18,2-1.11,1.06a4.49,4.49,0,0,1-2.23,1.18,4.45,4.45,0,0,1-3.78-1c-.28-.24-.53-.51-.67-.65-.72-.73-1.44-1.46-2.21-2.17-1.51-1.44-3.12-2.83-4.8-4.18A88.41,88.41,0,0,0,345.4,217a79.14,79.14,0,0,0-28.18-5.32,76.87,76.87,0,0,0-29,5.31,59.66,59.66,0,0,0-23.13,17.78,96.54,96.54,0,0,0-14.35,25A139,139,0,0,0,243.22,286c-.21,1.05-.38,2.13-.55,3.21a12.91,12.91,0,0,1-.41,1.95,4.48,4.48,0,0,1-1.68,2.11,4.33,4.33,0,0,1-2.64.76l-1.64-.16c-1-.12-2-.16-3-.22a53.38,53.38,0,0,0-11.57.79,52.33,52.33,0,0,0-18.83,7.44,56.24,56.24,0,0,0-11.78,10.56,62.63,62.63,0,0,0-6,8.42Z"></path><path class="cls-6" d="M864.83,174.23a6.58,6.58,0,0,1,1.61.65,9.22,9.22,0,0,1,3.42,3.58,18.54,18.54,0,0,1,1.47,3.25c.48,1.13.52,3,1.18,3.14a1,1,0,0,0,1.12-.08,17,17,0,0,0,1.19-1.68c.93-1.35,2-2.76,3.08-4.17a60.72,60.72,0,0,1,18.63-16,39.52,39.52,0,0,1,13.35-4.32,42.49,42.49,0,0,1,14.41.69,39.82,39.82,0,0,1,13.41,5.62,32.17,32.17,0,0,1,9.69,10.18,36,36,0,0,1,4.54,12.31l.11.73c0,.18,0,.13.11.23a.41.41,0,0,0,.43.14c1-.24,2-.45,2.92-.63a41.68,41.68,0,0,1,5.63-.64,19.52,19.52,0,0,1,9.79,1.68,28,28,0,0,1,6.31,4.25,38.43,38.43,0,0,1,4.57,4.69,37.76,37.76,0,0,0-5-4.19,31.63,31.63,0,0,0-6.37-3.67,20.15,20.15,0,0,0-9.23-1.16,38.93,38.93,0,0,0-5.38.77c-.93.2-1.84.42-2.79.69a2.3,2.3,0,0,1-2.84-1.8l-.13-.77a33.92,33.92,0,0,0-4.39-11.6,30,30,0,0,0-9.16-9.46,37.7,37.7,0,0,0-12.61-5.16,43.54,43.54,0,0,0-13.75-.68,37.54,37.54,0,0,0-12.67,4,58.64,58.64,0,0,0-18.11,15.35c-1.11,1.38-2.1,2.71-3,4a9.82,9.82,0,0,1-1.65,2.08,2.75,2.75,0,0,1-3.08.08A3.06,3.06,0,0,1,870.3,184c-.12-.65-.26-1.27-.41-1.85a18.63,18.63,0,0,0-1-3.16,10.38,10.38,0,0,0-2.64-3.79A8.12,8.12,0,0,0,864.83,174.23Z"></path><path class="cls-4" d="M403.94,188.75c.74,13.37,17,11.52,17,11.52s7.4,12.48,19.42,11.56a19.37,19.37,0,0,0,16.18-10.63s6.14,28.66,38.67,33.75S537,214.6,537,214.6,559.67,240,588.8,195.65c9.14-13.91,14.13-22.6,16.67-28,5.62-11.78-.49-7.63-.49-7.63-22.19-32.83-48.08-9.71-48.08-9.71s-6.93-31.9-48.08-33.75-48.55,41.14-48.55,41.14-6.47-3.69-13.41,2.32a19.89,19.89,0,0,0-6.93,13.87s-24-22.66-33.75,3.23C404.38,181.92,403.75,185.73,403.94,188.75Z"></path><path class="cls-6" d="M600.05,120.75a7.88,7.88,0,0,0-1.39,1,10.42,10.42,0,0,0-2.65,3.79,19.57,19.57,0,0,0-1,3.16c-.15.58-.29,1.2-.41,1.84a3,3,0,0,1-1.32,2.33,2.79,2.79,0,0,1-3.09-.08,9.92,9.92,0,0,1-1.65-2.09c-.92-1.32-1.92-2.65-3-4a58.52,58.52,0,0,0-18.11-15.35,37.32,37.32,0,0,0-12.67-4A43.47,43.47,0,0,0,541,108a37.93,37.93,0,0,0-12.61,5.17,30,30,0,0,0-9.16,9.46,33.87,33.87,0,0,0-4.39,11.59l-.14.78a2.35,2.35,0,0,1-.54,1.11,2.29,2.29,0,0,1-2.3.68c-.94-.26-1.86-.48-2.78-.68a39.15,39.15,0,0,0-5.38-.77,20.2,20.2,0,0,0-9.24,1.15,32.4,32.4,0,0,0-6.37,3.68,38.66,38.66,0,0,0-5,4.19,38.16,38.16,0,0,1,4.58-4.69,27.94,27.94,0,0,1,6.3-4.25,19.52,19.52,0,0,1,9.79-1.68,40.27,40.27,0,0,1,5.64.64c.95.17,1.94.38,2.92.63a.46.46,0,0,0,.43-.14.42.42,0,0,0,.1-.24l.12-.72a35.56,35.56,0,0,1,4.54-12.31,32,32,0,0,1,9.68-10.18,39.78,39.78,0,0,1,13.42-5.62,42.23,42.23,0,0,1,14.41-.69,39.66,39.66,0,0,1,13.35,4.32,60.56,60.56,0,0,1,18.62,16c1.12,1.41,2.16,2.82,3.08,4.16a19.4,19.4,0,0,0,1.19,1.69,1,1,0,0,0,1.13.08c.66-.16.7-2,1.18-3.14A17.53,17.53,0,0,1,595,125a9.33,9.33,0,0,1,3.42-3.59A6.74,6.74,0,0,1,600.05,120.75Z"></path><path class="cls-6" d="M1032.85,415.38l1.37-2.36a19.84,19.84,0,0,1,17.29-9.5A37.94,37.94,0,0,1,1067,407c1,.45.38.17.48.34,0-.24.14-1.32.26-2a29.71,29.71,0,0,1,1.2-4.53,24.09,24.09,0,0,1,5.2-8.36,23.75,23.75,0,0,1,8.74-5.57,38,38,0,0,1,10.5-2c7.24-.49,15.1,1.08,21.36,5.73a24.69,24.69,0,0,1,2.23,1.86l1,1c0,.05,0,0,0,0l.55-2.15.78-2.76a96.15,96.15,0,0,1,4-10.73,61.24,61.24,0,0,1,12.61-18.94,36.52,36.52,0,0,1,19.29-10.31,33.39,33.39,0,0,1,5.31-.57l5.24.14c1.71.23,3.38.61,5,.9l2.48.47,2.35.73a63.22,63.22,0,0,1,16.78,7.45,42.5,42.5,0,0,1,11.41,10.48,36.14,36.14,0,0,1,5.6,10.54,36.61,36.61,0,0,1,1.66,7.51,24,24,0,0,1,.11,2.72,22.7,22.7,0,0,0-.15-2.71,36.11,36.11,0,0,0-7.46-17.88,42.13,42.13,0,0,0-11.44-10.23,62.54,62.54,0,0,0-16.73-7.16l-2.36-.7-2.41-.42c-1.64-.26-3.28-.61-5-.82l-5.12-.07a33.66,33.66,0,0,0-5.16.63,35.28,35.28,0,0,0-18.55,10.23,60,60,0,0,0-12.06,18.66,95.2,95.2,0,0,0-3.79,10.58l-.73,2.69-.33,1.37-.16.68a2,2,0,0,1-.65,1.11,1.86,1.86,0,0,1-2.52-.2l-1-.94a22.87,22.87,0,0,0-2.08-1.72c-5.82-4.32-13.25-5.79-20.1-5.32s-13.64,2.5-18,7.07a22,22,0,0,0-4.72,7.66,26.58,26.58,0,0,0-1.1,4.18c-.15.78-.12,1.16-.35,2.35a1.92,1.92,0,0,1-1.75,1.26,3.46,3.46,0,0,1-1.43-.43,37.08,37.08,0,0,0-14.61-3.29,17.91,17.91,0,0,0-15.71,8.44l-1.38,2.35Z"></path><ellipse class="cls-7" cx="679.12" cy="871.36" rx="653.2" ry="93.08"></ellipse><path class="cls-8" d="M274.85,428.41C263,395.08,226,331.89,261.65,308.29c47.22-31.25,777.66-67.36,817.93,18S1070,562,1060.94,575.19,274.85,428.41,274.85,428.41Z"></path><rect class="cls-9" x="264.42" y="302.84" width="817.93" height="511.03" rx="36.11"></rect><rect class="cls-10" x="304.43" y="341.72" width="737.91" height="433.27"></rect><path class="cls-9" d="M117,796.86H1229.81A12.24,12.24,0,0,1,1242,809.09v.76A41.16,41.16,0,0,1,1200.88,851h-1055a41.16,41.16,0,0,1-41.16-41.16v-.76A12.24,12.24,0,0,1,117,796.86Z"></path><rect class="cls-11" x="407.63" y="560.99" width="45.48" height="31.37" rx="4.56" transform="translate(674.52 -100.2) rotate(56.57)"></rect><circle class="cls-12" cx="505.55" cy="529" r="51.38" transform="translate(-225.98 512.42) rotate(-45)"></circle><rect class="cls-13" x="587.3" y="616.88" width="25.52" height="17.6" rx="2.56" transform="matrix(0.83, -0.56, 0.56, 0.83, -247.17, 441.97)"></rect><rect class="cls-13" x="625.17" y="610.08" width="25.52" height="17.6" rx="2.56" transform="translate(146.01 -121.38) rotate(12.26)"></rect><rect class="cls-13" x="604.19" y="707.39" width="25.52" height="17.6" rx="2.56" transform="translate(166.2 -114.7) rotate(12.26)"></rect><rect class="cls-13" x="641.61" y="700.2" width="25.52" height="17.6" rx="2.56" transform="matrix(0.83, -0.56, 0.56, 0.83, -284.45, 486.52)"></rect><rect class="cls-13" x="656.17" y="631.31" width="25.52" height="17.6" rx="2.56" transform="translate(834.59 -270.81) rotate(56.57)"></rect><rect class="cls-13" x="572.42" y="685.18" width="25.52" height="17.6" rx="2.56" transform="translate(841.93 -176.72) rotate(56.57)"></rect><rect class="cls-13" x="565.72" y="648.21" width="25.52" height="17.6" rx="2.56" transform="translate(1337.48 220.86) rotate(101.48)"></rect><rect class="cls-13" x="663.33" y="668.54" width="25.52" height="17.6" rx="2.56" transform="translate(1474.44 149.58) rotate(101.48)"></rect><path class="cls-13" d="M677.45,657.59A51,51,0,1,0,637,717.31,51,51,0,0,0,677.45,657.59Zm-46.16,31.1a21.62,21.62,0,1,1,17.14-25.31A21.63,21.63,0,0,1,631.29,688.69Z"></path><circle class="cls-14" cx="627.36" cy="667.22" r="28.83" transform="translate(-288.05 639.04) rotate(-45)"></circle><rect class="cls-13" x="710.58" y="377.89" width="68.71" height="47.38" rx="6.89" transform="translate(-99.72 454.1) rotate(-31.89)"></rect><rect class="cls-13" x="813.14" y="363.3" width="68.71" height="47.38" rx="6.89" transform="translate(122.25 -197.84) rotate(14.34)"></rect><rect class="cls-13" x="747.18" y="623.07" width="68.71" height="47.38" rx="6.89" transform="translate(184.52 -173.41) rotate(14.34)"></rect><rect class="cls-13" x="848.56" y="607.37" width="68.71" height="47.38" rx="6.89" transform="translate(-200.12 561.62) rotate(-31.89)"></rect><rect class="cls-13" x="894.47" y="423.44" width="68.71" height="47.38" rx="6.89" transform="translate(827.34 -578.7) rotate(58.64)"></rect><rect class="cls-13" x="663.89" y="560.2" width="68.71" height="47.38" rx="6.89" transform="translate(833.53 -316.2) rotate(58.64)"></rect><rect class="cls-13" x="649.47" y="460.09" width="68.71" height="47.38" rx="6.89" transform="translate(1314.41 -67.6) rotate(103.56)"></rect><rect class="cls-13" x="910.1" y="524.3" width="68.71" height="47.38" rx="6.89" transform="translate(1698.55 -241.7) rotate(103.56)"></rect><path class="cls-13" d="M950,495A137.31,137.31,0,1,0,835.37,651.72,137.32,137.32,0,0,0,950,495ZM822.8,574.15a58.2,58.2,0,1,1,48.6-66.42A58.19,58.19,0,0,1,822.8,574.15Z"></path><circle class="cls-15" cx="814.34" cy="516.03" r="77.61" transform="translate(-114.76 258.73) rotate(-16.88)"></circle><circle class="cls-16" cx="685.03" cy="166.12" r="166.12" transform="translate(83.18 533.04) rotate(-45)"></circle><path class="cls-17" d="M735.54,454.88c-3.39,10.15-6.51,21.35-24,23.95s-30.46,2.87-34.1.78-8.08-24.73-7.3-26.56S735.54,454.88,735.54,454.88Z"></path><path class="cls-17" d="M632.6,454.88c3.38,10.15,6.51,21.35,23.95,23.95s30.47,2.87,34.11.78,8.08-24.73,7.29-26.56S632.6,454.88,632.6,454.88Z"></path><path class="cls-18" d="M750.47,381.88c.69,20.14,9.37,71.87-21.87,78.12s-55.55,4.16-58.68,1-7.29-64.23-2.77-70.48S750.47,381.88,750.47,381.88Z"></path><path class="cls-18" d="M616.79,381.88c-.69,20.14-9.37,71.87,21.87,78.12s55.55,4.16,58.68,1,7.29-64.23,2.77-70.48S616.79,381.88,616.79,381.88Z"></path><path class="cls-16" d="M824.76,241.28C820.5,231.16,748,208.81,691.9,209.6c3.18,63.2-14.45,124.06-9.72,186.88,33.35-.75,71-5.89,73.84-10.78,4.86-8.33,2.78-29.16,16.67-54.15S830.32,254.47,824.76,241.28Z"></path><path class="cls-16" d="M543,241.28c4.26-10.12,76.75-32.47,132.86-31.68-3.18,63.2,14.45,124.06,9.72,186.88-33.35-.75-71-5.89-73.84-10.78-4.86-8.33-2.78-29.16-16.67-54.15S537.43,254.47,543,241.28Z"></path><path class="cls-19" d="M683.23,458.09c-43.19,0-63.9-10.33-68.53-19.23-1.18-2.26-1.22-4.45-.11-6,2.11-3,5.46-1.95,11.55,0,8.22,2.59,23.52,7.42,52.24,9.13,49.46,2.93,70.45-6.34,72.81-11.26-2.35-1.21-13-.77-23.38-.34-12.92.53-29,1.2-47.23.31-42.1-2.07-68.54-13-71.43-20a3.17,3.17,0,0,1,.31-3.36c1.62-2,4.76-1.39,14,.34a352.74,352.74,0,0,0,55.34,6.4c44.34,1.63,62.89-7.62,65.32-11.14-3.53-.9-16.5.4-27.07,1.46-10.35,1-21.06,2.11-29.79,2.21h-1.24c-22,0-66.28-6.48-72-11.56a2.08,2.08,0,1,1,2.77-3.1c4.2,3.75,47.55,10.85,70.37,10.49,8.55-.1,19.16-1.17,29.43-2.2,24.54-2.46,30.87-2.64,31.81,1.37a4.55,4.55,0,0,1-1.22,4c-4.18,5.09-23.94,14.29-68.58,12.61a357.92,357.92,0,0,1-56-6.46c-3.48-.65-6.82-1.28-8.82-1.47,5,4.84,27.26,14.33,66.86,16.27,18,.88,34,.22,46.85-.31,17.66-.73,24.91-.91,27.16,2.2a3.64,3.64,0,0,1,.4,3.52c-3.38,9.13-31,16.95-77.07,14.2-29.23-1.74-44.85-6.67-53.25-9.32-2.92-.92-6.23-2-6.84-1.61-.1.14-.2.72.4,1.84,3.42,6.34,21.09,17.2,65.54,16.9,44.25-.12,54.78-6.85,54.88-6.92a2.09,2.09,0,0,1,2.89.54,2.06,2.06,0,0,1-.49,2.87c-.42.31-11,7.55-57.27,7.68Z"></path><path class="cls-20" d="M685.57,398.56h0a2.09,2.09,0,0,1-2.07-2.1l0-2.9c.28-27.14.8-76.77-13-110-16,7.79-28.28,5.28-40.21-1.57-6.62-3.8-10.6-11.67-10.15-20.05.39-7,3.78-12.54,9.09-14.86,5-2.18,13.72-2.46,27,8.59,6.71,5.57,12,13.18,16.17,22.08,9.1-5.16,19.56-13.82,32-27.11q3.59-3.83,6.78-7.58c.46-35.8,4.34-55.13,12.4-62.27a11.78,11.78,0,0,1,9.67-3,9.69,9.69,0,0,1,8.18,6.69c3.73,10.27-3.17,32.85-26.1,60.14,0,2,0,4,0,6.05,0,47.74-2.4,143.17-2.43,144.13a2,2,0,0,1-2.13,2,2.07,2.07,0,0,1-2-2.13c0-1,2.43-96.35,2.43-144v-1.21c-1.19,1.33-2.42,2.68-3.69,4-12.87,13.73-23.76,22.73-33.33,28.14,14.26,34.21,13.74,84.47,13.46,112l0,2.9A2.08,2.08,0,0,1,685.57,398.56ZM635.21,250a10.46,10.46,0,0,0-4.26.85c-3.83,1.67-6.29,5.88-6.59,11.27-.37,6.82,2.79,13.18,8.07,16.21,10.7,6.14,21.8,8.36,36.42,1.29-3.94-8.42-8.91-15.59-15.18-20.8C646.68,253.05,640.3,250,635.21,250Zm96.51-68.2a7.71,7.71,0,0,0-5.27,2.06c-6.56,5.81-10.15,23.52-10.89,54,18.49-23.26,25.3-43.06,22.06-52a5.51,5.51,0,0,0-4.76-4A8.94,8.94,0,0,0,731.72,181.83Z"></path><path class="cls-8" d="M467.24,569c.14,4.21-5.82,8.17-6.57,11.24-1.5-1.28-2.67-2.35-3.28-3C459.42,572.78,467.24,569,467.24,569Z"></path><path class="cls-21" d="M461,577.06a9.73,9.73,0,0,1-2.46,1.75c-.43,0-3.32-1.75-6.71-4.43-3.18-12.81-3.71-32.51-3.71-32.51C457.81,552.94,452.35,576.25,461,577.06Z"></path><path class="cls-22" d="M464.63,793.82c-4.35.57-9.1-2.46-10-4.93,2.67,1.11,5.92,2,8.67,2.82C465.35,792.71,466.45,793.6,464.63,793.82Z"></path><path class="cls-23" d="M424.31,526c-.22,1.89-.39,3.18-.39,3.18-6.11-2.86-14.42-8.43-15.1-12.35a49.83,49.83,0,0,1,.36-13c.46-3.11,1.25-6,2.39-7.53,2.57-3.53,10.28,8.39,12.88,13.1.39.75.68,1.32.79,1.6C425.81,512.57,424.88,521.21,424.31,526Z"></path><path d="M424.31,526c-.22,1.89-.39,3.18-.39,3.18-6.11-2.86-14.42-8.43-15.1-12.35a49.83,49.83,0,0,1,.36-13c.39,2.57,1.35,6.21,4.17,8.14,4.46,3.06,9.6,6.56,9.82,11.45A24.73,24.73,0,0,1,424.31,526Z"></path><path class="cls-24" d="M436.51,539.91c-.67,1.28-19.2,1.78-15.95-1.36,2.39-2.28,2.54-9.56,2.32-14.24-.11-1.64-.25-3-.36-3.6a3,3,0,0,1,.36.21c2,1.18,11.53,6.89,11.78,7.5a15.72,15.72,0,0,1,.46,1.71c.25,1,.57,2.46.82,3.89C436.48,536.62,436.83,539.27,436.51,539.91Z"></path><path class="cls-8" d="M435.12,530.13c.25,1,.57,2.46.82,3.89-3.46-3.21-9.56-3.71-10.7-4.71s-1.5-3-2.36-5c-.11-1.64-.25-3-.36-3.6a3,3,0,0,1,.36.21c-.18-.39-.36-.82-.53-1.21a12,12,0,0,1,8.77,1.18c1.79,1,3.82,5.28,5.25,9.17C436,530.09,435.55,530.13,435.12,530.13Z"></path><path class="cls-24" d="M438.12,529.74a6.49,6.49,0,0,1-1.75.32c-.39,0-.82.07-1.25.07-3.89-.07-8.53-1.78-9.35-3.28-.46-.86-1.68-3.14-2.89-5.93-.18-.39-.36-.82-.53-1.21a39.89,39.89,0,0,1-3-9.39c-.46-3.71,10.1-5.88,16.71-6.92h0c2.89-.43,5-.64,5-.64a25.27,25.27,0,0,1,.47,2.85v0C442.62,513.93,441.55,528.63,438.12,529.74Z"></path><path class="cls-24" d="M421.06,514.8c-1.22-1.11-4.85-3.57-5.41,1.06s6.47,6.36,7.7,4.91S421.06,514.8,421.06,514.8Z"></path><path class="cls-24" d="M479,595.37c-1.28-1.08-12.38-10-18.31-15.14-1.5-1.28-2.67-2.35-3.28-3a2.76,2.76,0,0,1-.39-.46c-.86-1.54,10.42-13.53,10.42-13.53,2.6,2.29,20.23,20.34,21.84,23.48S480.66,596.76,479,595.37Z"></path><path class="cls-24" d="M441.69,766.09c-.18,3.64-2.93,16.27-3.14,17.09s-10.92.25-11.07-.28c-.07-.32,0-5.78.25-10.21a32.5,32.5,0,0,1,.58-5.71c.25-.5,2.89-.75,5.74-.85C437.69,766,441.69,766.09,441.69,766.09Z"></path><path class="cls-24" d="M371.28,763.81a28.32,28.32,0,0,1-1.93,3.17c-3.17,4.78-9.17,13.28-10.06,13.53-1.18.39-5.53-12.53-3.68-13.63,1-.61,3-3.15,4.53-5.86,0,0,0,0,0,0a17.9,17.9,0,0,0,2.28-6.1s1.4,1.28,3.07,2.85C368.07,760.2,371.28,763.31,371.28,763.81Z"></path><path class="cls-25" d="M363.61,809c-1,.18-3.61-2-6.46-5.42v0c-3.32-4-6.86-9.67-8.25-15.42-2.64-10.7-7.38-15.59-6.74-18.12,0,0,0,0,0-.08.82-2.49,13.1-4.14,13.67-3.71a11,11,0,0,0,1.18,5c1.32,2.79,3.28,3.57,5,5.25s.43,7.39.18,13.49c0,.39-.07.82-.07,1.21-.07,3.64,1,8.67,1.71,12.49C364.32,806.63,364.53,808.84,363.61,809Z"></path><path class="cls-25" d="M469.1,794.68c-.29.92-3.47,2.35-7.89,3.31-5,1.11-11.67,1.65-17.38.33-10.74-2.5-17.27-.5-19.24-2.18a1.3,1.3,0,0,1-.28-.39c-1.21-2.65,2.53-13.28,3.14-13.57a10.72,10.72,0,0,0,5,1.22c3.07.07,4.64-1.32,6.92-2.07s7.39,3.46,13.14,6.56a22.46,22.46,0,0,0,2.14,1c2.67,1.11,5.92,2,8.67,2.82C466.74,792.75,469.38,793.68,469.1,794.68Z"></path><path class="cls-8" d="M369.35,767c-4.92-.21-4.57-4.74-9.17-6a17.9,17.9,0,0,0,2.28-6.1s1.4,1.28,3.07,2.85A78.06,78.06,0,0,1,369.35,767Z"></path><path class="cls-8" d="M441.22,768.62c.75,4.32-11,1-13.38,3.93a.33.33,0,0,1-.11.14,32.5,32.5,0,0,1,.58-5.71c.25-.5,2.89-.75,5.74-.85A74.61,74.61,0,0,1,441.22,768.62Z"></path><path class="cls-26" d="M455.07,695.18c0,6.82-12.81,71.94-13.7,74.05-.61,1.36-5.61.79-9.35.07a34.53,34.53,0,0,1-4-1c-1.46-.61.33-11.31-1.17-33.62s4.46-34.51,3.85-42.82-5.92-33.3-5.92-33.3-.11.29-.36.86c-1.82,4.46-10.42,25.62-13.35,33.33-3.24,8.64-39.5,75.05-41,75.05s-7.42-7.57-8.46-10.71,17.95-58.38,25.09-72.37a60.14,60.14,0,0,0,4.35-12.2c2.22-8.71,3.64-19.06,5.39-29.84,1-6.24,2.18-12.63,3.64-18.91,0,0,40.15-4.78,43.72-1.22.68.68,1.5,3.39,2.35,7.43.11.5.22,1,.36,1.53C450.25,649.86,455.07,689.76,455.07,695.18Z"></path><path class="cls-27" d="M431.55,768.77a2.84,2.84,0,0,1,.47.53,34.53,34.53,0,0,1-4-1c-1.46-.61.33-11.31-1.17-33.62s4.46-34.51,3.85-42.82-5.92-33.3-5.92-33.3-.11.29-.36.86a1.48,1.48,0,0,0,0-.29c.17-1.6,2-5.64,3.28-4.89s12.49,34.48,12.2,42.08S425.91,763.41,431.55,768.77Z"></path><path class="cls-28" d="M471.42,566.57c-.33,1-6.79,7.35-10.46,10.49a9.73,9.73,0,0,1-2.46,1.75c-.43,0-3.32-1.75-6.71-4.43-5.68-4.5-12.74-11.56-12.06-17.41a144.11,144.11,0,0,1,3.46-18C455.64,541.12,471.84,565.21,471.42,566.57Z"></path><path class="cls-29" d="M445.08,625.88c-2,2.21-44.61,4.24-46.14,2-.83-1.15,0-6.43,1.14-12.46.6-3.42,1.32-7.14,1.85-10.42.32-1.93.57-3.75.72-5.28a5,5,0,0,0,.07-.61c.36-4.46-1.39-17.38-2.14-29.87-.75-12-.57-23.52,3.24-26.8,7.82-6.67,36.58-6.89,44.4-1.53,0,0,2,2.46,5.14,17.16S447.11,623.66,445.08,625.88Z"></path><rect class="cls-30" x="351.74" y="593.87" width="189.08" height="34.63" transform="translate(-239.32 290.77) rotate(-28.81)"></rect><path class="cls-30" d="M539.44,579.7l34.87-19.19a2.27,2.27,0,0,1,3.36,1.9,45.32,45.32,0,1,1-19.85-36.09,2.27,2.27,0,0,1-.2,3.85l-34.87,19.19a2.25,2.25,0,0,0-.89,3.07l14.51,26.38A2.26,2.26,0,0,0,539.44,579.7Z"></path><path class="cls-30" d="M395.15,639.32a45.09,45.09,0,0,1-64.85,59.16,2.27,2.27,0,0,1,.2-3.85L369.81,673a2.27,2.27,0,0,0,.89-3.07l-14.51-26.38a2.27,2.27,0,0,0-3.07-.89l-39.31,21.62a2.27,2.27,0,0,1-3.36-1.89,45.14,45.14,0,0,1,84.7-23.08Z"></path><path class="cls-31" d="M406.86,587.41c-2.25,3.67-3.25,9.53-4.21,12.31a5,5,0,0,0,.07-.61c.36-4.46-1.39-17.38-2.14-29.87,6.81-10.81,16.63-24.44,16.63-24.44C422.56,555.86,409.86,582.38,406.86,587.41Z"></path><path class="cls-24" d="M472.09,608c0,1.18-3.14,6.11-8.17,6.39s-12.28.61-17.91-3-14.14-1.93-25.59-1.21-36.29-1.61-38.65-4.29c-1.93-2.14-1.36-11.49,4.14-25.83,1.11-2.93,2.43-6,4-9.39.28-.64.6-1.28.92-2,0,0,19.17-.75,19.17,2.07,0,.78-1.25,2.92-3,5.6a5.31,5.31,0,0,0-.4.61c-4.78,7-12.77,17-12.77,17s5.64-1.32,17.09.61,31.08,7.42,44.32,7.75C458.78,602.47,472.09,606.86,472.09,608Z"></path><path class="cls-24" d="M445.43,601.94c1.59-1.26,9.09-1.08,10-1.69s3.06-2.85,3.9-2.62-.56,5.33-4,5.66S445.43,601.94,445.43,601.94Z"></path><path class="cls-8" d="M441.62,505.61v0a8.14,8.14,0,0,1-2,2.39c-2.49,2-9.88.75-14.7.68,0,0,6.1-3,11.14-5.32h0c2.89-.43,5-.64,5-.64A25.27,25.27,0,0,1,441.62,505.61Z"></path><path class="cls-23" d="M442.79,502c-2.92,6.32-11.49,5.61-16.27,6.68a8.15,8.15,0,0,0-2.07.75,9.14,9.14,0,0,0-4.21,4.78s-9.67-16.06-8.67-17.88a4.72,4.72,0,0,1,2.53-1.68,44.47,44.47,0,0,1,11.71-2.35c6.74-.61,14.84-7,16.56-6.78a.57.57,0,0,1,.35.17C444.29,487,445.54,496.12,442.79,502Z"></path><path class="cls-8" d="M407.32,576.59a5.28,5.28,0,0,1-.75.47c-2.75,1.28-9.24,1.19-14.45.19-2.78-.53-4.93,1.7-6.21,2.88,1.11-2.93,2.43-6,4-9.39,5.06.75,15.06,4.89,17.06,5.71A2.65,2.65,0,0,0,407.32,576.59Z"></path><path class="cls-32" d="M404.39,542.13c-5.57,2.58-19,31.52-17,32.3s18.66,3.34,19.78,2.68,11.49-20.49,11.15-28.85S409,540,404.39,542.13Z"></path><path class="cls-33" d="M461.21,798c-5,1.11-11.67,1.65-17.38.33-10.74-2.5-17.27-.5-19.24-2.18a1.3,1.3,0,0,1-.28-.39c5.92,1.1,10.13-3.36,18.88-1.82C449.4,795,457.1,796.28,461.21,798Z"></path><path class="cls-33" d="M357.15,803.56c-3.32-4-6.86-9.67-8.25-15.42-2.64-10.7-7.38-15.59-6.74-18.12,0,0,0,0,0-.08,3.61,3.64,9.18,9,11.35,17.63C355.36,794.85,356.43,800.06,357.15,803.56Z"></path><path class="cls-22" d="M363.82,803.63a1.35,1.35,0,0,1-1.53.61c-4.11-.93-2.36-10.06-.11-14.31,0,.39-.07.82-.07,1.21C362,794.78,363.14,799.81,363.82,803.63Z"></path><path class="cls-34" d="M442.72,485.66a10.87,10.87,0,0,1-7.81,8.93c-5.46,1.71-15.24.32-20.81,0a44.47,44.47,0,0,1,11.71-2.35c6.74-.61,14.84-7,16.56-6.78A.57.57,0,0,1,442.72,485.66Z"></path><path class="cls-23" d="M1068.69,588.77c3.62,4.12,12.79,7.91,12.79,7.91.33-.83.62-1.62.91-2.41a29.12,29.12,0,0,0,.92-3.13c0-.08,0-.17.08-.25,3.5-14.54-3.08-25.45-5.66-26.87a1.59,1.59,0,0,0-.25-.17l-.17.3c-1.08,2-7.58,13.7-9.58,19.37a.12.12,0,0,0,0,.08c0,.13-.09.21-.13.33-.12.42-.25.84-.33,1.17C1066.94,586.27,1067.56,587.56,1068.69,588.77Z"></path><path d="M1067.48,583.52a2.59,2.59,0,0,1,.08.41c.21.8.63,2.71,1.13,4.84,3.62,4.12,12.79,7.91,12.79,7.91.33-.83.62-1.62.91-2.41a29.12,29.12,0,0,0,.92-3.13c0-.08,0-.17.08-.25,3.5-14.54-3.08-25.45-5.66-26.87l0,0s0,.09.08.13c1.33,2.91,3.58,8.33,2.83,12.95-.62,4-2.79,10.63-6.16,11.17-2,.33-5.17-4.71-6.79-4.79Z"></path><path class="cls-24" d="M1072,599a2.16,2.16,0,0,1,.12.38c.8,1.83,1.84,6.54,2.8,10.37a3.64,3.64,0,0,0,.16.63v0a26.65,26.65,0,0,0,1.38,4.79c.83,1.33,15.37-3.92,15.62-5.37s-9.79-13.25-13.5-17.83a2.2,2.2,0,0,0-.17-.25s-.08,0-.12-.09a10.9,10.9,0,0,0-2-.75.14.14,0,0,0-.08,0,2.6,2.6,0,0,0-2.21.17,1.59,1.59,0,0,0-.29.29l-.09.08C1072.44,592.89,1070.94,596.85,1072,599Z"></path><path class="cls-8" d="M1072,599a2.16,2.16,0,0,1,.12.38c.8,1.83,1.84,6.54,2.8,10.37a3.64,3.64,0,0,0,.16.63c.17-2.54.46-5.71,1-6.83,1.29-2.55.5-7.17,1.09-8s1.66-1.21,1.37-3.5v-.09a.46.46,0,0,0-.17-.16s-.08,0-.12-.09a3.22,3.22,0,0,0-2-.75.14.14,0,0,0-.08,0,5.16,5.16,0,0,0-2,.25,1.75,1.75,0,0,0-.5.21l-.09.08C1072.44,592.89,1070.94,596.85,1072,599Z"></path><path class="cls-24" d="M1048.27,578.43c0,1.13.17,2.25.29,3.46,1.38,12.13,6.84,27.79,14.67,29.58,8.62,2,12.54-8,12.21-16.58s-12.38-20-14.5-19.7c-1.13.16-4.79,1.12-7.92,1.95C1050.44,577.81,1048.27,578.43,1048.27,578.43Z"></path><path class="cls-24" d="M1072.51,587.55c1.14-4.72,4.27-4.75,6-2.69,1.53,1.79,1.79,8.79-3.25,9.28S1072.51,587.55,1072.51,587.55Z"></path><path class="cls-8" d="M1048.27,578.43c0,1.13.17,2.25.29,3.46,4.42,2.75,15.34,1,18.79,1a136.69,136.69,0,0,0-14.33-5.75C1050.44,577.81,1048.27,578.43,1048.27,578.43Z"></path><path class="cls-23" d="M1048,579.39c10.08,4.09,14.58,2.25,19.46,4.13l.21.08c4.25,1.67,5,3.38,5,3.38l.75-3.67,4-19,.09-.42a1.05,1.05,0,0,0-.34-.08,24.22,24.22,0,0,0-5.83-1.21c-10.54-1.12-24.33,1.88-27.29,1.13-3.33-.84-7.91-3.67-10-3.63a1.5,1.5,0,0,0-.46,0C1031.65,560.69,1037.9,575.35,1048,579.39Z"></path><path class="cls-35" d="M1085.81,872.43c0,.25,0,.54.08.79.42,4.13.79,7.54.83,8.33.13,2.42,17.09,7.17,13.79-3.33a53.9,53.9,0,0,1-2.08-15v-.08c-.12-5.17.17-10.37.38-15.29,0-1.25.08-2.54.12-3.75,0,0-13.79,10.37-14.29,12.08C1084.35,857.18,1085.14,865.51,1085.81,872.43Z"></path><path class="cls-35" d="M1016.4,879.93c-.33-2,1-8.17,3.54-15a67.59,67.59,0,0,1,5.5-11.33,39.61,39.61,0,0,1,3.5-4.83s-14.5.62-17.7,2.46c-2.09,1.21-4.59,10.12-7.21,16.66a3.77,3.77,0,0,1-.29.71c-1.25,3.17-2.54,5.71-3.83,6.29C998.32,875.68,1017,883.6,1016.4,879.93Z"></path><path class="cls-36" d="M1052.27,895.09c.54.71,4.38,2.13,9.79,3a57.14,57.14,0,0,0,19.87-.33c14.29-2.92,20.54-.58,22.13-2,1-.83,1-5.66-.09-10.58a20.85,20.85,0,0,0-3.71-8.46c-.62-.71-13.54,2.46-14.87,3s-4.16,2.92-8.83,6a10.8,10.8,0,0,1-2.08,1c-3.84,1.71-10.67,3.71-15.75,5.37C1054.77,893.43,1051.86,894.51,1052.27,895.09Z"></path><path class="cls-36" d="M964.24,882.72c-.08,1.08,3.09,3,7.46,4.79,6.92,2.88,16.87,5.67,22.16,5,8.63-1.13,21.33,1,23.79.17,1.5-.5,1.34-5.75.59-10-.46-2.63-1.13-4.88-1.75-5.33,0,0-13.5-2.46-16.58-2.42s-4.59,1.58-10.09,3.54a12.18,12.18,0,0,1-2.41.58c-5.59,1-15.79,1.17-20.58,2.25h0C965.24,881.64,964.29,882.1,964.24,882.72Z"></path><path class="cls-8" d="M1003.36,868.51a1.14,1.14,0,0,0,.38.13c4.25,1.5,14.3-6.38,16-6.67,1.08-.17.23,2.25.23,3a67.59,67.59,0,0,1,5.5-11.33,1.7,1.7,0,0,0-.08-1.21c-1-1.41-17.79,12.54-21.33,15.5C1003.61,868.31,1003.36,868.51,1003.36,868.51Z"></path><path class="cls-37" d="M1002.11,869.22c.71,1,16.58-4.91,28.08-20.79.46-.66,1-1.33,1.42-1.95,10.79-15.17,19.54-30,24.7-58.37,4.21-23.2,12.33-27.29,17.54-35a24.27,24.27,0,0,0,3.46-7.54c3.92-14.38-1.71-30.5-4.87-32.21S1053.6,721,1053.6,721c-7.79,23-18.28,55.45-21.7,71.33S1001.36,868.22,1002.11,869.22Z"></path><path class="cls-38" d="M1031.61,846.48c10.79-15.17,19.54-30,24.7-58.37,4.21-23.2,12.33-27.29,17.54-35-1.66-10.92-5-26.12-5-26.12-6.62,31.78-16.29,52.11-20.16,68C1044.53,811.89,1037.4,834.27,1031.61,846.48Z"></path><path class="cls-8" d="M1085.35,873.39a2.25,2.25,0,0,0,.54-.17c5-1.46,10.71-12.41,11.58-12.41.5,0,.75,1.21,1,2.29-.12-5.17.17-10.37.38-15.29-1.67,1.33-10.84,20.12-13,24.62C1085.52,873.06,1085.35,873.39,1085.35,873.39Z"></path><path class="cls-39" d="M1068.27,774.7c3,17.08,15.37,98.9,16.62,99.86s12.71-15.13,14.17-23.17,2.41-33.7-1.71-55.7-11-21.49-7.08-41.28c.5-2.5,1.08-5,1.7-7.46,3.5-13.75,8.34-26.62,6.59-39.37a36.14,36.14,0,0,0-2.21-8.58c-7.08-17.83-28.79,13.91-28.79,13.91,0,2.38-.08,4.67-.17,6.79,0,.84,0,1.63,0,2.42C1066.56,750.66,1065.6,759.16,1068.27,774.7Z"></path><path class="cls-40" d="M1063.44,721.79a24.18,24.18,0,0,0,3.91.33c9.88.25,20.21-3.58,22.67.63s.08,20.2,2,24.2c3.5-13.75,8.34-26.62,6.59-39.37-8.34,1-23.87,8.46-31.17,12.12Z"></path><path class="cls-41" d="M1046.77,728c.63.83,40.41-10,53.54-15.46,2.41-1,3.91-1.83,4.12-2.37,1.21-3.42-5.37-10.75-2.46-24.17,1.71-7.95,6.67-23.83,8.46-39.66,1.21-10.87,1-21.7-2.83-30-8.54-18.54-31.5-3.17-33.21-1.92-10.33,7.33-9.29,21.25-14.91,58.83-.13.79-.25,1.58-.33,2.33-1.84,11.71-3.88,21.25-5.75,28.83C1049.52,720.16,1046.31,727.41,1046.77,728Z"></path><rect class="cls-13" x="1029.6" y="597.56" width="21.52" height="14.84" rx="2.16" transform="translate(1669 1631.21) rotate(-151.67)"></rect><rect class="cls-13" x="997.26" y="594.99" width="21.52" height="14.84" rx="2.16" transform="translate(2152.37 865.94) rotate(162.1)"></rect><rect class="cls-11" x="1022.92" y="674.91" width="21.52" height="14.84" rx="2.16" transform="translate(2227.01 1014.02) rotate(162.1)"></rect><rect class="cls-13" x="990.92" y="671.97" width="21.52" height="14.84" rx="2.16" transform="translate(1560.98 1752.77) rotate(-151.67)"></rect><rect class="cls-13" x="973" y="615.37" width="21.52" height="14.84" rx="2.16" transform="translate(1993.48 43.03) rotate(117.8)"></rect><rect class="cls-13" x="1047.73" y="653.64" width="21.52" height="14.84" rx="2.16" transform="translate(2136.91 33.04) rotate(117.8)"></rect><rect class="cls-13" x="1050.29" y="622.07" width="21.52" height="14.84" rx="2.16" transform="translate(1350.47 -569.81) rotate(72.89)"></rect><path class="cls-13" d="M971.22,648.59l4.09,13.32,1,3.11a2.15,2.15,0,0,0,2.31,1.51,1.4,1.4,0,0,0,.39-.07l5.38-1.67,4.67-1.43a2.16,2.16,0,0,0,1.42-2.7L989,656l-1.08-3.47-2.55-8.3a2.15,2.15,0,0,0-2.69-1.43l-4.77,1.47-5.29,1.63A2.15,2.15,0,0,0,971.22,648.59Z"></path><path class="cls-13" d="M977.93,644.26a42.35,42.35,0,0,0,3.17,14.16c.51,1.26,1.09,2.48,1.72,3.68.48.92,1,1.82,1.54,2.69a43,43,0,1,0-6.3-26.63A46.24,46.24,0,0,0,977.93,644.26Zm25-3.64a18.23,18.23,0,1,1,16.49,19.81A18.23,18.23,0,0,1,1002.88,640.62Z"></path><circle class="cls-42" cx="1020.88" cy="642.1" r="24.31" transform="translate(-180.02 753.12) rotate(-37.45)"></circle><path class="cls-43" d="M1066.83,663.89c-11.28,0-37.32,18.57-46,17s-22.39-6.77-25.86-4.17S1012.15,691,1026,688.54,1066.83,663.89,1066.83,663.89Z"></path><path class="cls-24" d="M1013.24,693.29a23.76,23.76,0,0,0,12,.13,30.81,30.81,0,0,0,7-2.42c.58-.29.87-.46.87-.46l-2.58-8.66c-3.37,1.25-5.54,2.45-7.29,3h0v0a5.49,5.49,0,0,1-4.75-.38c-3.67-2-24.25-11.7-26.37-8.45S1003.32,690.38,1013.24,693.29Z"></path><path class="cls-44" d="M1053.4,704.5a51.52,51.52,0,0,1,6.95-12.33c8-10.54,15.79-6.67,28.67-19.79s17.83-44.29,11.7-53.91c0,0-27.12,48.62-41.57,57.2C1057.31,687.38,1055.27,696.92,1053.4,704.5Z"></path><path class="cls-8" d="M1025.19,693.42a30.81,30.81,0,0,0,7-2.42c0-.33-.21-.62-.63-1-1.58-1.37-7.74-4.75-8.37-5.08h0v0c-.71,1.42,4.17,5.42,4,6.46C1027,692.08,1025.9,692.88,1025.19,693.42Z"></path><path class="cls-45" d="M1097.42,614.74c-22.43-6.72-23.65,42.49-26.86,48.35a31.81,31.81,0,0,0-9.61,2.44c-10.38,4.4-36.1,18.12-37.85,19.38-1.07.76,5.29,6.67,6.75,7.16s44.61-11.4,52.43-17.42S1112.27,619.18,1097.42,614.74Z"></path><path class="cls-33" d="M1062.06,898.09a57.14,57.14,0,0,0,19.87-.33c14.29-2.92,20.54-.58,22.13-2,1-.83,1-5.66-.09-10.58-1.91,5.67-7.41,8.12-13.25,8.58C1085.93,894.22,1069.81,896.51,1062.06,898.09Z"></path><path class="cls-33" d="M971.7,887.51c6.92,2.88,16.87,5.67,22.16,5,8.63-1.13,21.33,1,23.79.17,1.5-.5,1.34-5.75.59-10-2.71,5-15.42,7.41-21.79,7.33C990.7,889.93,977.58,887.43,971.7,887.51Z"></path><path class="cls-34" d="M1034,560.06c.34,2.67,3.88,8.33,9.71,12,6.71,4.17,18.41-6.62,27.62-9.5-10.54-1.12-24.33,1.88-27.29,1.13C1040.69,562.85,1036.11,560,1034,560.06Z"></path><path class="cls-22" d="M1058.73,892.09c3.12,1.63,12.08.71,16.46-1.83s4.62-4.29-.71-3.54C1070.64,888.43,1063.81,890.43,1058.73,892.09Z"></path><path class="cls-22" d="M966.83,881.3c.58.63,1.83,1.25,4.08,1.59,4,.62,11.58-.46,16.5-3.84C981.82,880.05,971.62,880.22,966.83,881.3Z"></path><path class="cls-44" d="M1096.56,692.42c1.3,5.41,6.83,13.74,3.75,20.16,2.41-1,3.91-1.83,4.12-2.37,1.21-3.42-5.37-10.75-2.46-24.17,1.71-7.95,6.67-23.83,8.46-39.66C1102.81,675,1095.13,686.43,1096.56,692.42Z"></path><path class="cls-23" d="M732.61,650.67c-7.57-9.89-28.82-10.44-35,3.81-6,13.84-1,15.66-3.72,25.22s-3,17.84,14.67,12.18,21.08,11,30.24,3.37c8.05-6.74-1.31-14.76-2-22.28S736.52,655.78,732.61,650.67Z"></path><path class="cls-46" d="M719.61,699.5c-.27.43-9.78.59-10.54-.38-.53-.68-.51-5.18-.5-8.65,0-.7,0-1.37,0-1.94s0-1.22,0-1.6,5.05-2.16,6.76-1.91a1,1,0,0,1,.36.12c.48.29,1.29,2.73,2.05,5.52C718.77,694.6,719.78,699.25,719.61,699.5Z"></path><path class="cls-8" d="M717.69,690.66c-2,.44-6.27.86-9.12-.19,0-.7,0-1.37,0-1.94a44.88,44.88,0,0,1,6.72-3.51,1,1,0,0,1,.36.12C716.12,685.43,716.93,687.87,717.69,690.66Z"></path><path class="cls-46" d="M701.75,658c-3.94,12.36-4.15,26.5,4.82,30.82s17-4,18.43-9.95.81-17.29-.49-18.92S702.7,655,701.75,658Z"></path><ellipse class="cls-46" cx="726.55" cy="672.97" rx="4.24" ry="3.1" transform="translate(-57.85 1277.53) rotate(-80.43)"></ellipse><path class="cls-46" d="M686.36,734.92c-3.07,4.33-8.61,12.2-8.71,14.22-.12,2.76,9.26,18.83,9.26,20s-6.28,4-7.42,3.09-7.42-10.27-10.36-19.81c-2.55-8.28,2-17.61,7.2-27.45.61-1.14,1.23-2.28,1.85-3.45.2-.35.38-.71.57-1.07.31-.57,1.39.29,2.7,1.77l0,0a58.91,58.91,0,0,1,3.94,5.07h0a27,27,0,0,1,3,4.71,3.36,3.36,0,0,1-.3.48Z"></path><path class="cls-46" d="M763.25,746.32c-.63,7.83-14.09,24.73-15.33,25s-4.09-4.8-3.68-6,8.28-18.28,8.06-21.86c-.18-3.21-5-5.45-9.1-10.64a23.25,23.25,0,0,1-1.44-2c-.25-.38,3-5.39,5.57-8.37,1.13-1.34,2.13-2.27,2.6-2.2s1.18.93,2.29,2.35c.52.67,1.11,1.48,1.72,2.37C758.05,730.91,763.67,741,763.25,746.32Z"></path><path class="cls-46" d="M693.63,811.38c-.1.5-1.21.93-2.83,1.35-1.43.36-3.25.7-5.13,1.06-1.41.27-2.86.55-4.19.84-5.05,1.11-8.7,5.88-15.15,5.59s2.24-9,3.14-10.37c.76-1.19,4.22-2.81,10.85-5.69l2-.86,2.35-1C686,801.69,693.89,810.11,693.63,811.38Z"></path><path class="cls-46" d="M773.72,827.7c-3.53-.37-13.39-9.61-19.17-13.38l0,0c-.62-.39-1.18-.73-1.68-1a6.51,6.51,0,0,0-.87-.4c-3.52-1.27.13-4.7,2.62-6.31h0a4,4,0,0,1,1.84-.85,26.93,26.93,0,0,1,3.32,1.54h0c5,2.63,11.53,7.14,12.23,8C772.84,816.39,777.85,828.14,773.72,827.7Z"></path><path class="cls-23" d="M725.83,669c-3.2-5.3-7.57-7.18-13.33-4.82s-13.93,3.92-14.66,1.23.08-11.26,6.69-11.34,20.71-4.73,22.75,1.47S725.83,669,725.83,669Z"></path><path class="cls-8" d="M752.22,722.6a42.51,42.51,0,0,0-4.89-.15c-2.56,3-5.82,8-5.57,8.37a23.25,23.25,0,0,0,1.44,2c5.29-1.47,9-5.44,10.74-7.82Z"></path><path class="cls-8" d="M688.08,732.49l-1.72,2.43a53.07,53.07,0,0,1-10-10c.61-1.14,1.23-2.28,1.85-3.45a5,5,0,0,1,3.27.7l0,0c1,.68,2.54,2.75,3.94,5.07h0A40.72,40.72,0,0,1,688.08,732.49Z"></path><path class="cls-8" d="M690.8,812.73c-1.43.36-3.25.7-5.13,1.06-2.32-2.31-4.41-6.82-5.35-9.63l2-.86c2.39,1,5.77,2.61,6.78,3.66A8.94,8.94,0,0,1,690.8,812.73Z"></path><path class="cls-8" d="M754.55,814.32l0,0-1.68-1a38.86,38.86,0,0,1,1.75-6.71h0a4,4,0,0,1,1.84-.85,26.93,26.93,0,0,1,3.32,1.54h0C760.12,808.27,757.55,812.37,754.55,814.32Z"></path><path class="cls-47" d="M708.68,697c-12.38.42-14.56,1.88-16,2.84s-17.94,21.13-15.77,24,9.18,9.72,10.41,9.72,4.71-7.4,4.71-7.4-.54,4.24,4.13,13.05,3.48,14.13,3.48,16.74,28.06,2.61,28.71,1.2,5.87-32,5.87-32,7.44,6.74,8.23,6.69,10-7.12,10.36-8.43S739.9,702.11,736,699.84C732.69,697.93,714.12,696.82,708.68,697Z"></path><path class="cls-48" d="M749.66,748.22l-1.14,16.18-1.16,16.21-.06.92a1.73,1.73,0,0,1-1.68,1.64H687.93a1.73,1.73,0,0,1-1.68-1.62l-.85-10-.28-3.32-1.71-20a1.75,1.75,0,0,1,1.67-1.94H748A1.74,1.74,0,0,1,749.66,748.22Z"></path><path class="cls-49" d="M675,817.64c-.44.19-16.54,13.65-25,11.15a3.47,3.47,0,0,1-2.64-2.29c-1.4-4.74,8.46-14.34,15.15-16.85.64-.23,1.24-.45,1.82-.64,6.82-2.38,9.6-2.26,9.18-1.76-5.81,6.94-6.33,9.25-5.08,10.12S675.43,817.44,675,817.64Z"></path><path class="cls-49" d="M786.45,834.2a2.69,2.69,0,0,1-2.51,1.44c-5.87.43-16.43-6.85-20-14.2,0,0,5.68,5.17,7.42,1.78s-4.78-11.07-5.4-12.27c-.31-.63,2.5.41,5.89,2.41,3.12,1.82,6.73,4.46,8.87,7.38C784.11,825.42,787.66,831.45,786.45,834.2Z"></path><path class="cls-8" d="M748.52,764.4l-1.16,16.21c-1.82.88-3.69,1.74-5.57,2.56-7.28,3.18-14.61,5.64-19.16,5.58-2.88,0-8.8-2.44-15.35-5.58-7.77-3.74-16.43-8.51-21.88-11.6l-.28-3.32c10.42,1,25.59,7.88,30.18,7.8C720.26,776,742.8,765.74,748.52,764.4Z"></path><path class="cls-50" d="M782.74,777.85c-4.12,6.17-19.24,13-36.24,19-3.26,1.15-6.61,2.27-9.94,3.36-1.94.63-3.88,1.24-5.8,1.84-5.1,1.59-10.14,3.07-14.86,4.4-15.44,4.35-27.54,7.09-28.06,6.9-1.39-.53-7.2-9.22-6.29-9.76,2.44-1.45,6.23-3.66,10.87-6.32l3.86-2.19c5.67-3.22,12.25-6.88,19-10.53,1.13-.62,2.27-1.24,3.43-1.84,15.24-8.15,30.82-15.86,38.72-18C773.45,760.56,793.34,762,782.74,777.85Z"></path><path class="cls-8" d="M730.76,802.08c-5.1,1.59-10.14,3.07-14.86,4.4C708,804.7,697,801,692.42,797.3l3.86-2.19c10.49.71,31.42,2.55,33.9,6A9.11,9.11,0,0,1,730.76,802.08Z"></path><path class="cls-8" d="M746.5,796.88c-3.26,1.15-6.61,2.27-9.94,3.36-6.43-3.79-16.29-11.61-21.26-15.66,1.13-.62,2.27-1.24,3.43-1.84C728.44,785.24,741.51,793.66,746.5,796.88Z"></path><path class="cls-50" d="M757.89,806.35c-20-16.07-86.23-49.55-106.46-41.39s23.74,27.73,30.06,29.85,46,10.5,50.2,11.93,20.84,7.58,22,7S759.69,807.81,757.89,806.35Z"></path><path class="cls-8" d="M786.45,834.2c-2.8-1.45-6.55-5.34-9.81-10.45a39,39,0,0,1-4.83-10.39c3.12,1.82,6.73,4.46,8.87,7.38C784.11,825.42,787.66,831.45,786.45,834.2Z"></path><path class="cls-8" d="M664.3,809a43.47,43.47,0,0,1-5.74,8.41c-4,4.68-8.29,8.06-11.23,9.08-1.4-4.74,8.46-14.34,15.15-16.85C663.12,809.42,663.72,809.2,664.3,809Z"></path><rect class="cls-51" x="1174.44" y="598.89" width="153.42" height="104.15" rx="8.86"></rect><rect class="cls-10" x="1183.24" y="607.1" width="137.11" height="90.43"></rect><path class="cls-51" d="M1341.36,707.9H1160.93a11.67,11.67,0,0,1-11.67-11.66H1353A11.67,11.67,0,0,1,1341.36,707.9Z"></path><path class="cls-51" d="M1235.42,681.79,1196,674.38a1,1,0,0,1-.29-1.83l71.66-38.85a1,1,0,0,1,1.32.37l10.78,18.28a1,1,0,0,1-.31,1.33l-43,28A.94.94,0,0,1,1235.42,681.79Z"></path><path class="cls-51" d="M165.46,602.59c-38.78,0-70.32-14.52-70.32-32.37s31.54-32.36,70.32-32.36,70.31,14.52,70.31,32.36c0,7.51-5.62,14.8-15.84,20.55a.84.84,0,1,1-.82-1.46c9.66-5.44,15-12.22,15-19.09,0-16.92-30.79-30.69-68.64-30.69S96.81,553.3,96.81,570.22s30.8,30.69,68.65,30.69a135.13,135.13,0,0,0,37.38-5,.84.84,0,0,1,.47,1.61A136.58,136.58,0,0,1,165.46,602.59Z"></path><path class="cls-51" d="M230.14,611.09,202.7,597.48a.84.84,0,0,1,.75-1.51l23.19,11.51-7.88-17.09a.84.84,0,0,1,.41-1.11.85.85,0,0,1,1.11.41Z"></path><ellipse class="cls-13" cx="84.6" cy="586.1" rx="84.6" ry="38.39"></ellipse><polygon class="cls-13" points="21.49 604.36 7.98 633.66 42.89 616.34 21.49 604.36"></polygon><circle class="cls-10" cx="84.6" cy="586.01" r="7.64" transform="translate(-217.82 76.98) rotate(-22.5)"></circle><path class="cls-10" d="M56.7,586a4.84,4.84,0,1,1,4.84,4.84A4.84,4.84,0,0,1,56.7,586Z"></path><path class="cls-10" d="M102.82,586a4.84,4.84,0,1,1,4.84,4.84A4.84,4.84,0,0,1,102.82,586Z"></path><path class="cls-13" d="M209.32,744.47l-4.73,4.73A4.55,4.55,0,0,1,198,749L169.17,716a4.53,4.53,0,0,1,.21-6.19h0a4.54,4.54,0,0,1,6.13-.26L209,737.79A4.54,4.54,0,0,1,209.32,744.47Z"></path><circle class="cls-51" cx="154.13" cy="697.56" r="30.3" transform="translate(-448.1 313.3) rotate(-45)"></circle><circle class="cls-10" cx="154.13" cy="697.56" r="25.41" transform="translate(-448.1 313.3) rotate(-45)"></circle><ellipse class="cls-52" cx="631.34" cy="75.97" rx="100.42" ry="46.69" transform="translate(63.93 363.05) rotate(-33.7)"></ellipse></g></g></g></svg>