<svg xmlns="http://www.w3.org/2000/svg" viewBox="0 0 1562.61 962.22"><defs><style>.cls-1{isolation:isolate;}.cls-2{fill:#faf5f5;}.cls-3{fill:#fac8c8;}.cls-4{fill:#faaaaa;}.cls-5{fill:#e6e6e6;}.cls-19,.cls-27,.cls-5{mix-blend-mode:multiply;}.cls-6{fill:#fe5722;}.cls-7{fill:#fff3eb;}.cls-29,.cls-8{fill:#fff;}.cls-9{fill:#ed5e32;}.cls-10{fill:#ebefff;}.cls-11{fill:#ffb140;}.cls-12{fill:#ffe1ba;}.cls-13{fill:#ffb74f;}.cls-14{fill:#c7d6ff;}.cls-15{fill:#e6eeff;}.cls-16{fill:#ebf1ff;}.cls-17{fill:#ffcf8c;}.cls-18{fill:#440c01;}.cls-20{fill:#ffe2d7;}.cls-21{fill:#460000;}.cls-22{fill:#604a49;}.cls-23{fill:#5c3231;}.cls-24{fill:#d84416;}.cls-25{fill:#bf3104;}.cls-26{fill:#e85c31;}.cls-27{fill:#ccc;}.cls-28{fill:#ff4747;mix-blend-mode:soft-light;}.cls-29{opacity:0.4;}.cls-30{fill:#fa6e6e;}.cls-31{fill:#ed4840;}.cls-32{fill:#fa8787;}.cls-33{fill:#f54e4e;}.cls-34{fill:#785354;}.cls-35{fill:#916c6d;}.cls-36{fill:#540000;}.cls-37{fill:#823c3d;}.cls-38{fill:#f3a6b0;}.cls-39{fill:#ed7885;}.cls-40{fill:#ffb5be;}.cls-41{fill:#f0770a;}.cls-42{fill:#ffd699;}.cls-43{fill:#281a00;}.cls-44{fill:#3b1400;}.cls-45{fill:#962904;}.cls-46{fill:#a16769;}.cls-47{fill:#a67b7c;}.cls-48{fill:#b58788;}.cls-49{fill:#8a0c01;}.cls-50{fill:#f5d1c4;}.cls-51{fill:#424242;}.cls-52{fill:#826061;}.cls-53{fill:#d43c0d;}.cls-54{fill:#f4caab;}.cls-55,.cls-64{fill:none;stroke:#fff;stroke-miterlimit:10;}.cls-55{stroke-width:0.31px;}.cls-56{fill:#ffdbc6;}.cls-57{fill:#8f5252;}.cls-58{fill:#c27b7a;}.cls-59{fill:#c25453;}.cls-60{fill:#d69a99;}.cls-61{fill:#d1706f;}.cls-62{fill:#e34f21;}.cls-63{fill:#f8bbd0;}.cls-64{stroke-width:0.2px;}.cls-65{fill:#c93000;}.cls-66{opacity:0.7;}.cls-67{fill:#fab650;}.cls-68{fill:#ffc46b;}.cls-69{opacity:0.6;}.cls-70{fill:#ffce85;}.cls-71{fill:#ffb442;}</style></defs><g class="cls-1"><g id="Layer_2" data-name="Layer 2"><g id="Layer_1-2" data-name="Layer 1"><path class="cls-2" d="M42.81,842C106.43,866.52,1450,867,1478.87,830.24S1629.25,591.58,1513.58,512s-263.14-50.68-263.14-50.68S1461.52,199.94,1207,47,832.73,163.79,832.73,163.79,698.07,47,495.64,151s-55.8,314.74-55.8,314.74-84.46-82.25-165.43-70-135.67,48.2-153,109.4S204.1,632,204.1,632s-43.13-7.86-153,4.38S42.81,842,42.81,842Z"></path><path class="cls-3" d="M124.9,430.57c20.91,30.41,52.6,19.16,58.1,40.54s-48.07-8.28-56.08-3.31-25.85,49-10,60.23,78.72-19.25,91.4-11.95,19.65,37-32.8,42.56-59.2,1.22-62.43,12.11-16.22,61.51,13.33,68,123-51.59,128.72-43.64-6.45,37.31-55.43,65.13-83.1,25.3-82.07,36.51,6.69,57.28,32.67,63.36,138.18-63.57,152.76-58.56S328.08,743,313.9,750s-60.87,36.67-99,36.65-54.3.77-37.28,16.86,68.19,65.73,119.48,55.36,98.47-57.8,99.42-55.06-14.79,31-10.9,34.9,23.05,4.93,44.51-38,74-55.53,76.9-100.28-6.46-131.44-24.22-124.87-12.14,59.73-54,80.53-75.85,27.47-55,.83,70.73-98.3,57-140.11-42.65-49-47.91-37.24-22.31,79.72-61.25,93.9-2.69-13.87,17.13-43.94,20-66.1,13.21-78.89-10.57.27-20-10.16-15.5-22.57-24-15.43-.26,50.86-23.53,66.42S249.7,513,248.41,499s30.64-27.53,27.61-60.44-3.59-23.68-15.44-29.64-21.4-10-22.92-3.54,3.12,49.14-10.3,56.73-23.61,4.29-13.52-16.41,12-30.76,1.68-35.46-18.85-5.32-17.57.92,1.81,27.37-3.16,19.35-9.66-35.82-34.11-40.63S113.48,414,124.9,430.57Z"></path><path class="cls-3" d="M1371.4,413.71c-21.71,32.57-14.76,103.35-33.75,97s8.44-87.53,4.22-90.69-44.29-6.33-55.89,10.54,5.27,109.68-5.28,116-33.74-72.77-38-83.31-59.06,12.65-69.61,25.31-7.38,71.71,21.09,131.83,25.32,84.37-15.82,44.29S1147.82,520.23,1138.33,515s-67.5,7.38-85.43,48.52-1.05,78,13.71,99.13,48.52,43.24,43.24,48.51-50.62,12.66-73.82-6.32-31.64,12.65-5.27,40.07,86.48,43.24,148.7,42.19,34.8,35.85,73.82,54.84,141.32,16.35,123.4-12.66c-1.18-1.9-4.75-2.11-60.12-16.87-57.15-15.24-48.51-42.19-38-43.24s122.34,34.8,151.87,11.6,63.28-100.19,42.19-107.57-98.08,20-133.94,4.22-32.69-23.21,0-27.42,129.72-10.55,138.16-39-3.17-45.35-20-43.24-87.54,15.82-82.26-6.32,58,1,69.6-40.08-12.65-17.93-32.69-16.87-36.91-3.17-15.82-21.1,36.91-28.47,21.09-61.17S1373.51,410.54,1371.4,413.71Z"></path><path class="cls-4" d="M1186.78,739.12a2.1,2.1,0,0,1-1.75-.94c-.36-.54-35.43-54.52-4-126.09,11.14-25.32,23.31-49.62,35.08-73.11,21.29-42.49,39.67-79.18,44-106.33,3.37-21.13,1-42.23-1-60.85-2-18.38-3.79-34.25.93-44.42a2.1,2.1,0,0,1,3.8,1.77c-4.23,9.1-2.53,24.44-.56,42.19,2.09,18.88,4.47,40.28,1,62-4.42,27.79-22.94,64.75-44.38,107.55-11.75,23.45-23.9,47.69-35,72.92-30.51,69.39,3.27,121.56,3.61,122.08a2.1,2.1,0,0,1-1.74,3.26Z"></path><path class="cls-4" d="M1258.83,354.77s-33.22-16.44-23.58-49.17,28.66-28.82,31.22-26.58c7.87,6.9,2.52,20.16,2.52,20.16s13.07-20.08,21.78-8.62,4.4,23.32-7.88,34.49S1258.83,354.77,1258.83,354.77Z"></path><path class="cls-4" d="M1263.33,415.79c-8.24-12.09-14.79-37.16-32-38.28s-11.06,13.39-11.06,13.39-22.18,3-22.61,18,31.35,4.76,39.24,4.12S1263.33,415.79,1263.33,415.79Z"></path><path class="cls-4" d="M1263,419.66s33.54-52.69,47.39-45,2.86,16.95,2.86,16.95,17.57-5.52,16.66,7.46-12.39,12.69-30.22,8.36S1263,419.66,1263,419.66Z"></path><path class="cls-4" d="M1247,481.16c-5.75-13-14-21.92-35-24.44s-31.64,3.6-32.25,10.17,10.5,9.19,10.5,9.19-17,3.49-16.76,16.85,32.25-8.22,45-12.47S1247,481.16,1247,481.16Z"></path><path class="cls-4" d="M1247,481.16s16.74-19.19,45.16-29.58,21.75,10.56,21.75,10.56,19,3.16,14.28,19.42-29.15-.39-43.54-3.71S1247,481.16,1247,481.16Z"></path><path class="cls-4" d="M1217.33,538.91s3.55-16.26-25.13-18.45-43,8.95-46.92,17.56S1156.49,551,1156.49,551s-19.83,5.29-17.14,19.58,24-.92,41.3-15.12A78.94,78.94,0,0,1,1217.33,538.91Z"></path><path class="cls-4" d="M1219.13,539.38s20-20.06,42.38-20,47.85,8.78,50.39,25.1-19.74,9.36-19.74,9.36,15.6,20.12-1.88,28.53S1284.35,557,1261,545.51,1219.13,539.38,1219.13,539.38Z"></path><path class="cls-4" d="M1173.07,641c-12-14.89-21.88.46-34.33-7.17s-19.12-19.33-29.49-13.12-.67,14.61-.67,14.61-35.91,11.43-21.42,25.46,40.32-3.47,56.47-11.8S1173.07,641,1173.07,641Z"></path><path class="cls-4" d="M1174.24,641.79s4-8.45,28.51-5.55,38.9-33.08,50.94-31.32,6.78,18.51,6.78,18.51,30.16-.32,14.44,24-68.47-4.65-78.24-6.19S1174.24,641.79,1174.24,641.79Z"></path><path class="cls-4" d="M313,654.4a2.1,2.1,0,0,1-1-3.92c.54-.31,54.23-31.6,58.33-107.3,1.5-27.51,1.6-54.63,1.71-80.86.19-47.87.35-89.21,9-116,6.71-20.92,18.49-38.94,28.88-54.84,9.77-14.95,18.21-27.87,18.55-37.9a2.13,2.13,0,0,1,2.17-2,2.1,2.1,0,0,1,2,2.16c-.38,11.21-9.11,24.57-19.23,40-10.24,15.68-21.86,33.46-28.4,53.83-8.41,26.17-8.57,67.21-8.76,114.73-.1,26.28-.21,53.45-1.71,81.07-4.23,78.08-59.89,110.4-60.46,110.72A2,2,0,0,1,313,654.4Z"></path><path class="cls-4" d="M421.29,278.7s37.06.33,43.24-33.22S452,206.82,448.67,207.67c-10.14,2.59-11.35,16.84-11.35,16.84s-2.6-23.81-15.54-17.52-14.45,18.82-8.54,34.33S421.29,278.7,421.29,278.7Z"></path><path class="cls-4" d="M389.72,331.12c12.81-7.07,30-26.48,45.83-19.72s3.82,16.94,3.82,16.94,18.46,12.65,12,26.31-30.12-9.91-36.87-14S389.72,331.12,389.72,331.12Z"></path><path class="cls-4" d="M388.25,334.7s-6.14-62.15-22-61.53S356.07,287,356.07,287s-13.19-12.85-18.24-.87,5.33,16.92,23.19,21.11S388.25,334.7,388.25,334.7Z"></path><path class="cls-4" d="M374.83,396.85c11-9,22.36-13.26,42.26-6s26.61,17.5,24.18,23.63-13.51,3.46-13.51,3.46,13.61,10.8,7.34,22.6S410,418.64,400.6,409.1,374.83,396.85,374.83,396.85Z"></path><path class="cls-4" d="M374.83,396.85s-6.28-24.69-26.94-46.79-24.18-.4-24.18-.4-18.38-5.76-21.51,10.89,26.18,12.81,40.52,16.34S374.83,396.85,374.83,396.85Z"></path><path class="cls-4" d="M375.18,461.75s4.17-16.12,30.76-5.12,34.35,27.42,33.93,36.85S424,500,424,500s15.31,13.68,6.45,25.22-21-11.66-30-32.14A78.89,78.89,0,0,0,375.18,461.75Z"></path><path class="cls-4" d="M373.36,461.35s-8.81-26.94-28.79-37-46.66-13.77-56.3-.35,13.39,17.26,13.39,17.26-23,10.9-11.21,26.3,16.76-20,42.82-19.67S373.36,461.35,373.36,461.35Z"></path><path class="cls-4" d="M368.58,572.83c17.42-7.87,19.31,10.28,33.86,9.1s25.79-8.61,32.25,1.61-6,13.34-6,13.34,26.89,26.41,7.62,32.38-34.4-21.3-45.06-36S368.58,572.83,368.58,572.83Z"></path><path class="cls-4" d="M367.18,573s.28-9.33-22.94-17.82-19.77-47.09-31.31-50.95-14.39,13.45-14.39,13.45-26.78-13.9-23.74,14.92,63.19,26.76,72.61,29.8S367.18,573,367.18,573Z"></path><path class="cls-5" d="M1191.06,424.61c42.89,86.48,32.34,376.15,11.25,393.72S1191.06,424.61,1191.06,424.61Z"></path><path class="cls-5" d="M395.87,342.34c-40.08,35.86-15.47,105.47-56.25,113.2s-89.29-1.41-95.62,30.94.7,402.16,27.42,415.52,137.1-429.58,137.1-471.77S395.87,342.34,395.87,342.34Z"></path><rect class="cls-6" x="377.57" y="331.2" width="828.24" height="517.47" rx="36.56"></rect><rect class="cls-7" x="418.09" y="370.57" width="747.21" height="438.73"></rect><path class="cls-6" d="M228.25,831.45H1355.13a12.39,12.39,0,0,1,12.39,12.39v.77a41.68,41.68,0,0,1-41.68,41.68H257.54a41.68,41.68,0,0,1-41.68-41.68v-.77a12.39,12.39,0,0,1,12.39-12.39Z"></path><rect class="cls-8" x="417.43" y="370.63" width="748.44" height="438.62"></rect><rect class="cls-9" x="417.43" y="370.63" width="748.53" height="46.3"></rect><circle class="cls-10" cx="446.26" cy="393.78" r="8.44"></circle><path class="cls-8" d="M688.42,385.29H600.2a8.49,8.49,0,0,0-8.49,8.49h0a8.49,8.49,0,0,0,8.49,8.48h88.22a8.49,8.49,0,0,0,8.49-8.48h0A8.49,8.49,0,0,0,688.42,385.29Z"></path><path class="cls-8" d="M835.37,385.29H747.14a8.49,8.49,0,0,0-8.49,8.49h0a8.49,8.49,0,0,0,8.49,8.48h88.23a8.48,8.48,0,0,0,8.48-8.48h0A8.49,8.49,0,0,0,835.37,385.29Z"></path><path class="cls-8" d="M982.31,385.29H894.09a8.49,8.49,0,0,0-8.49,8.49h0a8.49,8.49,0,0,0,8.49,8.48h88.22a8.49,8.49,0,0,0,8.49-8.48h0A8.49,8.49,0,0,0,982.31,385.29Z"></path><path class="cls-8" d="M1129.26,385.29H1041a8.49,8.49,0,0,0-8.49,8.49h0a8.49,8.49,0,0,0,8.49,8.48h88.23a8.48,8.48,0,0,0,8.48-8.48h0A8.49,8.49,0,0,0,1129.26,385.29Z"></path><rect class="cls-11" x="693.04" y="452.08" width="194.05" height="22.5" rx="11.25"></rect><rect class="cls-12" x="693.04" y="603.95" width="194.05" height="118.12" rx="10.19"></rect><rect class="cls-12" x="465.24" y="603.95" width="194.05" height="118.12" rx="10.19"></rect><rect class="cls-12" x="919.44" y="603.95" width="194.05" height="118.12" rx="10.19"></rect><rect class="cls-13" x="745.77" y="543.48" width="88.59" height="22.5" rx="11.25"></rect><path class="cls-14" d="M863.89,750.19H716.24a5.63,5.63,0,0,1-5.62-5.63h0a5.62,5.62,0,0,1,5.62-5.62H863.89a5.63,5.63,0,0,1,5.63,5.62h0A5.63,5.63,0,0,1,863.89,750.19Z"></path><path class="cls-15" d="M864.59,772.34H717a5.63,5.63,0,0,1-5.63-5.63h0a5.62,5.62,0,0,1,5.63-5.62H864.59a5.62,5.62,0,0,1,5.63,5.62h0A5.63,5.63,0,0,1,864.59,772.34Z"></path><path class="cls-16" d="M819.6,794.48H717a5.63,5.63,0,0,1-5.63-5.62h0a5.63,5.63,0,0,1,5.63-5.63H819.6a5.63,5.63,0,0,1,5.62,5.63h0A5.62,5.62,0,0,1,819.6,794.48Z"></path><path class="cls-12" d="M591.27,794.48H488.62a5.63,5.63,0,0,1-5.63-5.62h0a5.63,5.63,0,0,1,5.63-5.63H591.27a5.62,5.62,0,0,1,5.62,5.63h0A5.62,5.62,0,0,1,591.27,794.48Z"></path><path class="cls-17" d="M636.09,750.19H488.44a5.63,5.63,0,0,1-5.62-5.63h0a5.62,5.62,0,0,1,5.62-5.62H636.09a5.63,5.63,0,0,1,5.63,5.62h0A5.63,5.63,0,0,1,636.09,750.19Z"></path><path class="cls-12" d="M636,772.34H488.35a5.63,5.63,0,0,1-5.62-5.63h0a5.62,5.62,0,0,1,5.62-5.62H636a5.62,5.62,0,0,1,5.63,5.62h0A5.63,5.63,0,0,1,636,772.34Z"></path><path class="cls-14" d="M1091,750.19H943.34a5.62,5.62,0,0,1-5.62-5.63h0a5.62,5.62,0,0,1,5.62-5.62H1091a5.62,5.62,0,0,1,5.62,5.62h0A5.62,5.62,0,0,1,1091,750.19Z"></path><path class="cls-15" d="M1091.69,772.16H944a5.62,5.62,0,0,1-5.62-5.62h0a5.63,5.63,0,0,1,5.62-5.63h147.65a5.63,5.63,0,0,1,5.63,5.63h0A5.63,5.63,0,0,1,1091.69,772.16Z"></path><rect class="cls-16" x="1009.43" y="782.88" width="87.89" height="11.25" rx="5.62"></rect><path class="cls-17" d="M962.32,500.83H617.81a7,7,0,0,1-7-7h0a7,7,0,0,1,7-7H962.32a7,7,0,0,1,7,7h0A7,7,0,0,1,962.32,500.83Z"></path><path class="cls-12" d="M875.14,531.29H617.81a7,7,0,0,1-7-7h0a7,7,0,0,1,7-7H875.14a7,7,0,0,1,7,7h0A7,7,0,0,1,875.14,531.29Z"></path><path class="cls-18" d="M1220.52,621.22c-.62,6.68-8.72,16-16,21.57a2.16,2.16,0,0,1-.31.24,151.59,151.59,0,0,1-7.13-17.33,27.36,27.36,0,0,1-1.35-5.82c-.2-2.07.18-3.42,1.52-3.45h.07c5,0,15.26-3.38,20.29-1a4.52,4.52,0,0,1,2.52,2.52A6.58,6.58,0,0,1,1220.52,621.22Z"></path><path class="cls-19" d="M1220.52,621.22c-.62,6.68-8.72,16-16,21.57l-.1,0c-2.52-4.44-6-13.92,3.23-15.74C1215.07,625.63,1219.07,623.15,1220.52,621.22Z"></path><path class="cls-20" d="M1213.9,652.09c.14,1-12.3,6.37-12.57,5.79-.07-.14-.35-.73-.76-1.62-1.62-3.38-5.1-10.92-4.89-11.51s3.47-2.48,5.54-3.69c0,0,.07,0,.11-.07,1-.58,1.65-1,1.65-1s.24.17.38.31a6.67,6.67,0,0,1,.82.72C1207.66,644.2,1213.76,651.16,1213.9,652.09Z"></path><path class="cls-5" d="M1200,655.12c.13-1.41-.45-3.93-.45-5.51,0-1.86,3.86-5,4.61-8.55a3.39,3.39,0,0,0,.14-1.06,8.35,8.35,0,0,0-1,.34c-.52.14-1.24.38-2,.65,0,0-.07,0-.11.07-2.07,1.21-5.37,3.21-5.54,3.69,0,.07,0,.17,0,.31Z"></path><path class="cls-20" d="M1206.15,627.73c0,.65-1.72,12.71-1.93,13.57s-14.44,13.58-18.54,9.89c-3.58-3.24-6.2-14.16-1.44-25.11a31.28,31.28,0,0,1,2.31-4.38s5.54,1.52,10.74,3C1201.84,626.08,1206.15,627.45,1206.15,627.73Z"></path><path class="cls-20" d="M1203.89,634.52c1.61-2.26,4.84-1.61,5.06.43s-3.55,7.32-5.82,5.6S1203.89,634.52,1203.89,634.52Z"></path><path class="cls-5" d="M1202.84,626.87c-3.89-1.1-14.88.38-18.6-.79a31.28,31.28,0,0,1,2.31-4.38s5.54,1.52,10.74,3Z"></path><path class="cls-18" d="M1205.43,633.28s.51-3-3.38-5.76a11.25,11.25,0,0,0-5-1.82c-3.45-.59-7.48-.48-10.75-1.41-5.07-1.38-7.75-10.65-6.58-12.17.45-.55,1.62-.13,3.37.62,3.14,1.31,8.17,3.69,14.13,3.69h.07s4,1.55,7.48,3.17a23.46,23.46,0,0,1,4.58,2.62C1211.66,624.18,1205.43,633.28,1205.43,633.28Z"></path><path class="cls-21" d="M1262.13,831c-1.34.45-22.11.86-34.86.86-5.51,0-9.51-.1-9.82-.31s.1-.93,1.21-1.89c2-1.72,6.23-4.17,12.43-5.34,1.11-.21,2.28-.38,3.48-.52,11.85-1.17,12-10.44,16-10.23a16.34,16.34,0,0,1,7.62,2.89,38.41,38.41,0,0,1,3.65,7C1263.48,827.66,1263.44,830.55,1262.13,831Z"></path><path class="cls-21" d="M1342.1,811.71s-.14.27-.45.79c-2,3.72-10.71,19.29-13.19,19.43-1.8.11-10.82.66-17.57.52-3.93,0-7.14-.31-7.69-1.07-.24-.31,0-.76.59-1.34,2.48-2.41,11.26-6.76,15.92-9.06,1.55-.8,2.61-1.35,2.85-1.52,1.14-.86-.58-12.92,2.45-14.23s7.48-.41,7.48-.41C1336.35,806.23,1342.1,809.68,1342.1,811.71Z"></path><path class="cls-22" d="M1336.21,805.82c0,.34-.93.58-2.45.69a57.5,57.5,0,0,1-15.23-1.35c-5.37-1.48-40-25.6-48.44-34s-23.25-34.9-23.25-34.9l-.07.07c-1.72,1.61-29.25,27.35-30.29,29.45s7.76,6.89,15.09,13.34,30.77,38,30.77,39.17c-.21.89-11.4-1.28-16.78-3.65s-44.17-31.87-45.89-43.07c-.79-5.1,3.14-13.4,8.92-22.5,6.86-10.82,16.37-22.77,23.61-31.76a16.59,16.59,0,0,1,4.2-6c3.62-3.27,9.89-5.55,19.91.21,18.33,10.57,18.54,19.19,24.12,34.9s12.26,18.74,17.23,22.84S1336.21,804.51,1336.21,805.82Z"></path><path class="cls-23" d="M1242.19,712.38c-3.35,4.93-22.74,26.18-33.6,36.69,6.86-10.82,16.37-22.77,23.61-31.76a16.59,16.59,0,0,1,4.2-6C1239.6,711.8,1242.19,712.38,1242.19,712.38Z"></path><path class="cls-24" d="M1263.27,715.65c-.69,1.11-6.58-1.13-12.82-1.79a21.26,21.26,0,0,0-8,.38c-8,2.28-11.78,6.58-12.78,4.45s-16.12-13.48-28.73-26.91c-.59-.59-1.14-1.21-1.69-1.79-4.76-5.24-6.89-10.58-6.79-15.78.17-8.93,6.89-17.54,18.12-24.57,3.48-2.17,9,3.62,14.3,11.27A237.61,237.61,0,0,1,1239,685.09C1243.77,694.12,1264.31,714.1,1263.27,715.65Z"></path><path class="cls-20" d="M1200.57,678.34c-.31.72-3.79,2.55-8.13,4.51-1.07.45-2.14.93-3.24,1.38s-2,.83-3,1.21v0a68.4,68.4,0,0,1-11,3.52c-6.13,1-46.61-13-48.54-15.4s-1.83-28.19-1.83-28.94,1.17-1.17,5.27,6.54,2.24,13.37,2.35,16.71,3,2.24,16.5,4.41,23.56,4,25.49,4c1.48,0,2.62-1.1,7.86-4.34a.62.62,0,0,1,.17-.11s.07,0,.1-.06c1.45-.9,3.24-2,5.45-3.24C1188,668.56,1201.29,676.62,1200.57,678.34Z"></path><path class="cls-5" d="M1192.68,683.2a14,14,0,0,1-3.45,1.07l0,0c-1,.42-2,.83-3,1.21.48-2.41-1.69-7.93-2.93-11.34,0-.07-.07-.1-.07-.13-.35-.9-.59-1.62-.76-2.11a.31.31,0,0,0,0-.17s0,0,0,0,0,.07.1.11c1,1,7.45,7.71,9.93,11.05A2.21,2.21,0,0,1,1192.68,683.2Z"></path><path class="cls-25" d="M1203.67,682.44c-4,2.52-3.89,6.1-2.72,9.34-.59-.59-1.14-1.21-1.69-1.79-4.76-5.24-6.89-10.58-6.79-15.78,8.58-6.17,22.19-10.41,22.19-10.41C1217,670.9,1212.63,676.83,1203.67,682.44Z"></path><path class="cls-26" d="M1213,672.31c-3.07,3.72-14.54,8.75-20.36,10.89a14,14,0,0,1-3.45,1.07l0,0c-.55-.45-4.17-6.68-6-10.13,0-.07-.07-.1-.07-.13a14.84,14.84,0,0,1-.93-2v-.11s.07-.06.14-.17,0,0,0,0c1.69-2,18.85-19.77,30.08-12.09C1214.56,661,1217.14,667.35,1213,672.31Z"></path><path class="cls-25" d="M1263.27,715.65c-.69,1.11-6.58-1.13-12.82-1.79,2-.93,8.17-.2,7.38-2.68-1.17-3.58-10.95-8.55-17.12-15.72-5.51-6.41-10.58-17.08-15.82-34.55A237.61,237.61,0,0,1,1239,685.09C1243.77,694.12,1264.31,714.1,1263.27,715.65Z"></path><path class="cls-23" d="M1333.76,806.51a57.5,57.5,0,0,1-15.23-1.35c-5.37-1.48-40-25.6-48.44-34s-23.25-34.9-23.25-34.9l-.07.07c2.23-3.08,3.12-4.8,3.84-4.69.87.13,18.43,30.7,26.45,37.14C1284.88,775.05,1329.46,799.55,1333.76,806.51Z"></path><path class="cls-27" d="M1341.65,812.5c-2,3.72-10.71,19.29-13.19,19.43-1.8.11-10.82.66-17.57.52a41.17,41.17,0,0,1,12.12-3.1C1328.32,829,1333.66,817.91,1341.65,812.5Z"></path><path class="cls-27" d="M1262.13,831c-1.34.45-22.11.86-34.86.86,3.2-1.89,29.25-5.41,34.52-8.44C1263.48,827.66,1263.44,830.55,1262.13,831Z"></path><path class="cls-28" d="M1217.62,615.43c-3.41.9-8.06,3.07-12.81,4.17a20,20,0,0,1-7,.65,13.63,13.63,0,0,1-2.07-.37c-5-1.18-9.88-4.76-12.61-7.14,3.14,1.31,8.17,3.69,14.13,3.69h.07C1202.32,616.43,1212.59,613.05,1217.62,615.43Z"></path><path class="cls-29" d="M1231.09,824.32c-3.2,1.27-7.61,6.1-9.54,5.79-.72-.14-1.83-.25-2.89-.45C1220.65,827.94,1224.89,825.49,1231.09,824.32Z"></path><path class="cls-29" d="M1319.71,821c-1.87,3.82-8.65,9.64-15.92,9.06C1306.27,827.63,1315.05,823.28,1319.71,821Z"></path><path class="cls-30" d="M1126.94,615.87v200.2a15.62,15.62,0,0,1-15.6,15.61H936.39Z"></path><path class="cls-30" d="M1126.94,615.87,1003.4,755.78v0l-11.3,12.75-55.71,63.12s-9.31-72.18-.9-83.69c2.45-3.34,5-5.34,7.75-6.23,6.62-2.17,14,2.27,21.47,9.78,10.61,10.61,36.76,6.2,37.62-22.57a50.83,50.83,0,0,0-.62-9.88c-3.52-21.33-20.78-29-31.25-22-12,8-29.22,19.92-33.18,4s-10-82.76-.58-85.2c5-1.31,28.49,2.27,49.13,3.3,17.81.86,33.52-.17,33.31-8-.34-13-16.43-23.8-20.77-34-1.28-3.06-1.52-6,0-9,6.61-12.86,28.76-26.12,54.88-11.06S1051.91,590,1056.8,605,1125,610.32,1126.94,615.87Z"></path><path class="cls-31" d="M1126.94,686.42V816.07a15.62,15.62,0,0,1-15.6,15.61H1009.43c43.37-1.9,83-10.44,91.47-25.57C1110.48,789,1111.92,695.18,1126.94,686.42Z"></path><path class="cls-31" d="M1026.41,620.93c-11.09,10.09-29.73,3.65-40.58-1.76,17.81.86,33.52-.17,33.31-8-.34-13-16.43-23.8-20.77-34C1010.36,588.06,1040.05,608.53,1026.41,620.93Z"></path><path class="cls-31" d="M1003.4,755.78v0a24.53,24.53,0,0,1-5,8.1,23.45,23.45,0,0,1-6.34,4.65c-10.06,5-21,.31-26.84-5.51-6.62-6.62-13.09-21-22-21.29,6.62-2.17,14,2.27,21.47,9.78,10.61,10.61,36.76,6.2,37.62-22.57a50.83,50.83,0,0,0-.62-9.88C1007.43,725.91,1008.12,743.69,1003.4,755.78Z"></path><path class="cls-18" d="M589.28,768.72l-2.43,3.57s23.68,8.14,30.38,5.78,21.85-59,22.64-61.18c0-.09.06-.28.13-.47.06-.38.09-.92.12-1.55v0c.07-1,.07-2.27.07-3.7,0-3.5-.1-8-.19-11.65-.1-2.94-.19-5.37-.22-6.41,0-.35,0-.54,0-.54v-.47a8.24,8.24,0,0,0-.07-.89,5.31,5.31,0,0,0-1.7-3.25s0,0,0,0c-2.68-2.49-7.7-2.3-9.91.92-3.76,5.46-13,24.22-23.56,40.67-2.21,3.45-4.71,7.05-7.23,10.62-9.13,12.85-19,25-19.81,25.89a61.11,61.11,0,0,0,15.2-12.19c6.37-7.23,14.21-17.11,15-18.06A161.94,161.94,0,0,1,598,755.17c-2.4,4-5,8-7.11,11.12C590.32,767.17,589.78,768,589.28,768.72Z"></path><path class="cls-19" d="M586.85,772.29s23.68,8.14,30.38,5.78,21.85-59,22.64-61.18c0-.09.06-.28.13-.47.57-3.92-.25-23.88-.25-23.88-4.08-.85-12.51,5.47-10.08,17.81s-6.73,13.62-16.8,36.1c-6.32,14.12-15.67,18.32-22,19.84-.6.88-1.14,1.7-1.64,2.43Z"></path><path class="cls-18" d="M637.38,719.26s1.13-1.77,2.74-4.39v0c1-1.67,2.25-3.7,3.48-5.81,2.78-4.8,5.59-10.11,6.25-12.86.25-.91.25-1.54-.06-1.8a14.2,14.2,0,0,0-10-2.3,9.11,9.11,0,0,0-3.13,1.14,10.49,10.49,0,0,0-3.73,3.6C627.68,704.83,631.63,713.39,637.38,719.26Z"></path><path class="cls-20" d="M630.93,726.49c.38,1.33,8.15,5.53,8.66,5a12.81,12.81,0,0,0,.85-2.33A52.48,52.48,0,0,1,643,722a4.84,4.84,0,0,1,1.2-1.68c2-1.32-1.3-4.73-2.21-5.11s-3.32,1.17-3.32,1.17C634.34,720.43,630.52,725.17,630.93,726.49Z"></path><path class="cls-5" d="M640.44,729.15A52.48,52.48,0,0,1,643,722c-.35-1.74-4-5.12-4-5.12-1.77,3.1,1.23,5.46,1.39,8.78C640.47,727.35,640.35,728.45,640.44,729.15Z"></path><path class="cls-20" d="M638.67,718.34c.54,1.58,8.69,13.4,13.3,10.77,4.26-2.43,6.95-12.47,5-21.63a19.4,19.4,0,0,0-.6-2.3s-3.7-.35-7.49-.51-7.89-.1-8.31.76C639.75,707.13,638.17,716.77,638.67,718.34Z"></path><path class="cls-20" d="M640,712.93c-2.11-2.5-4.54-2.43-4.94-.52s2.7,6.12,4.15,4.21A4.07,4.07,0,0,0,640,712.93Z"></path><path class="cls-32" d="M710.17,660.81a4.36,4.36,0,0,0-.35,1V814.58a17,17,0,0,0,17,17H854.5a6,6,0,0,0,5.93-6.6c-1.7-15.38-5.24-52.84.07-60.1,6.69-9.16,14.84-5.66,23.3,2.81s29.28,4.95,30-18S897.89,718,888.38,724.32c-1.23.82-2.49,1.68-3.82,2.53h0c-9,5.91-19.87,11.72-22.61.66-1.42-5.68-3.16-19.33-4-33v0c-.73-12.29-.73-24.48.88-30.73a4.51,4.51,0,0,0-3.66-5.56c-14.34-2.49-43.74-4.92-51.48.13-9.16,6-1.77,14.46,6,27.51,5.53,9.25-2.65,27.41-16.55,30h0c-5.72,1-12.32-.54-19.39-6.38-22.33-18.44-1.67-33.92-2.43-42.07a3.81,3.81,0,0,0-.76-2.05C764.87,658,713.36,656.23,710.17,660.81Z"></path><path class="cls-33" d="M709.82,708.06V814.58a17,17,0,0,0,17,17h94.94c-39.16-7.43-88.18-11.78-96.42-24.45C717.24,794.66,714.62,727.83,709.82,708.06Z"></path><path class="cls-33" d="M757.48,691.89c3.47,26.65,25.14,28.61,35.62,24-5.72,1-12.32-.54-19.39-6.38-22.33-18.44-1.67-33.92-2.43-42.07C764.58,666,754.41,668.52,757.48,691.89Z"></path><path class="cls-33" d="M857.94,694.54c-3.35,10.36-8.34,40.77.06,46.3,9.25,6.06,21.63-2.65,26.53-14-9,5.91-19.87,11.72-22.61.66C860.5,721.83,858.76,708.18,857.94,694.54Z"></path><path class="cls-20" d="M700.07,746.39c.53-.1,1.13-.19,1.8-.32.47-.09.91-.19,1.39-.31,11.18-2.91,25.14-13.77,20.24-15.19-5.15-1.49-14.43,5.14-13,2.56s.51-5.22.1-5.12-6.51,10-12,13.61C698.61,741.62,691.44,747.59,700.07,746.39Z"></path><path class="cls-20" d="M593.32,830.33c.19.54,7.17,1.17,17.5.76l0,0c2.62-.09,5.43-.25,8.43-.51,0,0,.41-.5,1-1.26,1.74-2.18,5-6.35,4.55-6.35a13.7,13.7,0,0,1-3.13.19c-.35,0-.69-.06-1.07-.12a14,14,0,0,1-4.3-1.55C611.67,818.9,592.44,828.15,593.32,830.33Z"></path><path class="cls-5" d="M642.08,709.5c5-1.2,7.49-3,14.85-2a19.4,19.4,0,0,0-.6-2.3s-3.7-.35-7.49-.51C645.78,706.82,642.08,709.5,642.08,709.5Z"></path><path class="cls-18" d="M638,710.35c.19.35,1.1,1.71,1.1,1.71a5,5,0,0,1,1.08-.92A27.37,27.37,0,0,1,643.6,709c.76-.44,1.64-.92,2.65-1.42.32-.16.63-.32,1-.45,0,0,0,0,.06,0,5.69-2.52,8.75-.6,9.44-.91s-1.51-8.15-6.91-11.85l-1.52.73c-2.11,1-5.94,3-8.27,4.39-.32.19-.6.38-.85.54C636.18,702,637.88,710.13,638,710.35Z"></path><path class="cls-34" d="M633.94,785.18c38.56-11.32,65.93-12.5,74-4.87s-25.53,36.58-28,37.63-9.08-3.16-8.55-5.39,3.81-8.42,8-13.29a61.86,61.86,0,0,1,10.14-9s-23.3,15.26-37.24,13.55S633.94,785.18,633.94,785.18Z"></path><path class="cls-5" d="M610.85,831.06c2.62-.09,5.43-.25,8.43-.51,0,0,.41-.5,1-1.26a37.08,37.08,0,0,0,1.42-6.16c0-.25.06-.38.06-.38a4.35,4.35,0,0,0-1.13.26c-3.13,1.2-3.57,5.65-5.88,6.76A27.81,27.81,0,0,1,610.85,831.06Z"></path><path class="cls-35" d="M612.71,807.06a27.5,27.5,0,0,0,9.92,7.2c4.7,2.15,14.43,4,24.19,5.46a191,191,0,0,0-25.36,3c-3.16.79-4.9,7.49-4.49,8s75.93,10.52,79,1.33-27.26-36.73-62-46.87c0,0-1,.35-2.71,1-6.13,2.15-20.59,7.58-21.64,10.77C608.8,799.35,609.46,803.2,612.71,807.06Z"></path><path class="cls-36" d="M575.63,831.09a16.82,16.82,0,0,0,2.18.32,96.13,96.13,0,0,0,11.72.12c.79,0,1.52-.09,2.18-.12a18.66,18.66,0,0,0,4.07-.51c0-.5,4.17-5.71,9.54-7.48a43.4,43.4,0,0,1,11-2,13.6,13.6,0,0,0-4.93-4.42,5.79,5.79,0,0,0-3.37-.48c-.79.13-16.81,5.34-26.53,9.35-4.05,1.71-7,3.19-7.33,4C573.93,830.43,574.53,830.81,575.63,831.09Z"></path><path class="cls-37" d="M612.71,807.06c-2.18-8.34,9.57-13.68,21.67-21.32,0,0-1.3.13-3.16.38-6.13,2.15-20.59,7.58-21.64,10.77C608.8,799.35,609.46,803.2,612.71,807.06Z"></path><path class="cls-38" d="M609.9,796.89c2.31-3.13,27.07-11.72,27.35-12.63s-4.11-6.73-2.4-14.34c.69-3,2.75-6.19,5-9.38a63.9,63.9,0,0,0,5.59-9,12.39,12.39,0,0,0,1.32-5.72c-.41-7.89-7.2-17.46-15.41-21.57-1-.54-7.51,4.07-9.85,13.17A55.21,55.21,0,0,0,620.39,749c-.23,9.66,0,21.44-3.95,29.06-1.83,3.56-3.38,7.07-4.58,10.07C609.33,794.58,608.45,798.85,609.9,796.89Z"></path><path class="cls-5" d="M700.07,746.39c.53-.1,1.13-.19,1.8-.32.47-.09.91-.19,1.39-.31-1.49-1-1.74-4.46-3.1-4.58C700.16,741.18,700,744.68,700.07,746.39Z"></path><path class="cls-39" d="M638.55,754.25a13.48,13.48,0,0,1,1.26,6.29,63.9,63.9,0,0,0,5.59-9c-4.2-4.71-19-15.45-19-15.45C620.92,745.57,636.24,750.12,638.55,754.25Z"></path><path class="cls-40" d="M626.58,735.4c5.53-6.64,39.87,14.81,41.35,15.1s31.09-10.06,32-9.67,2,4.34,2,5.23-26.35,15-31.68,15.4S616.31,747.74,626.58,735.4Z"></path><path class="cls-27" d="M581.48,826.18c8.27.28,23.78-4.84,29.9-8.88a5.76,5.76,0,0,0-3.37-.47C607.22,817,591.2,822.16,581.48,826.18Z"></path><path class="cls-39" d="M611.86,788.14c2.94-3.92,6.09-6.22,8.9-10.9,3.67-6.09,3.92-16.83-.37-28.23-.23,9.66,0,21.44-3.95,29.06C614.61,781.63,613.06,785.14,611.86,788.14Z"></path><path class="cls-37" d="M674,819c-6.32-2.87-27.57.72-27.57.72s15.13-4,22.77-4S674,819,674,819Z"></path><path class="cls-29" d="M577.81,831.41a96.13,96.13,0,0,0,11.72.12c.79,0,1.52-.09,2.18-.12a3.1,3.1,0,0,0,.06-.92C591.61,827.36,578.67,830.14,577.81,831.41Z"></path><path class="cls-28" d="M652.73,700.09c1.86,4.86-3.16,4.93-5.47,7,5.69-2.52,8.75-.6,9.44-.91s-1.51-8.15-6.91-11.85a14.2,14.2,0,0,0-10-2.3,9.11,9.11,0,0,0-3.13,1.14,20.51,20.51,0,0,1,3.16-.13,18.45,18.45,0,0,1,8.49,2,10.69,10.69,0,0,1,1.58,1.07A9.38,9.38,0,0,1,652.73,700.09Z"></path><path class="cls-28" d="M597.24,740.14c4.67-4.17,13.42-14.25,22-31.87,10.64-22,14.37-22.11,18.75-20.34-2.68-2.49-7.7-2.3-9.91.92-3.76,5.46-13,24.22-23.56,40.67C602.26,733,599.76,736.57,597.24,740.14Z"></path><path class="cls-41" d="M517.23,498.44V900.58a30,30,0,0,1-29.92,29.92h-210a15.81,15.81,0,0,1-15.77-15.76V498.44a30,30,0,0,1,29.93-29.93H487.31A30,30,0,0,1,517.23,498.44Z"></path><path class="cls-8" d="M277.31,917.37a2.5,2.5,0,0,1-1.47-.47,2.68,2.68,0,0,1-1.16-2.16V498.44a16.81,16.81,0,0,1,16.79-16.79H487.31a16.81,16.81,0,0,1,16.79,16.79V900.58a16.82,16.82,0,0,1-16.79,16.79Z"></path><rect class="cls-42" x="290.39" y="513.12" width="92.04" height="56.58" rx="2.79"></rect><rect class="cls-42" x="396.35" y="513.12" width="92.04" height="56.58" rx="2.79"></rect><rect class="cls-42" x="300.74" y="703.43" width="177.29" height="103.03" rx="5.11"></rect><path class="cls-11" d="M431.76,621.89H346.42a5.59,5.59,0,0,1-5.59-5.59h0a5.6,5.6,0,0,1,5.59-5.6h85.34a5.6,5.6,0,0,1,5.59,5.6h0A5.59,5.59,0,0,1,431.76,621.89Z"></path><path class="cls-13" d="M405.53,667.36H372.65a5.6,5.6,0,0,1-5.59-5.6h0a5.6,5.6,0,0,1,5.59-5.6h32.88a5.6,5.6,0,0,1,5.59,5.6h0A5.6,5.6,0,0,1,405.53,667.36Z"></path><path class="cls-17" d="M474.77,635H303.41a3.5,3.5,0,0,1-3.5-3.5h0a3.5,3.5,0,0,1,3.5-3.5H474.77a3.5,3.5,0,0,1,3.5,3.5h0A3.5,3.5,0,0,1,474.77,635Z"></path><path class="cls-12" d="M452.33,650.1h-126a3.49,3.49,0,0,1-3.5-3.49h0a3.49,3.49,0,0,1,3.5-3.5h126a3.5,3.5,0,0,1,3.5,3.5h0A3.5,3.5,0,0,1,452.33,650.1Z"></path><path class="cls-12" d="M458.62,840.52H320a3.5,3.5,0,0,1-3.5-3.49h0a3.5,3.5,0,0,1,3.5-3.5h138.6a3.49,3.49,0,0,1,3.5,3.5h0A3.49,3.49,0,0,1,458.62,840.52Z"></path><path class="cls-12" d="M458.62,853.46H320a3.5,3.5,0,0,1-3.5-3.49h0a3.5,3.5,0,0,1,3.5-3.5h138.6a3.49,3.49,0,0,1,3.5,3.5h0A3.49,3.49,0,0,1,458.62,853.46Z"></path><path class="cls-12" d="M458.62,866.4H320a3.5,3.5,0,0,1-3.5-3.49h0a3.5,3.5,0,0,1,3.5-3.5h138.6a3.49,3.49,0,0,1,3.5,3.5h0A3.49,3.49,0,0,1,458.62,866.4Z"></path><path class="cls-12" d="M458.62,879.34H320a3.5,3.5,0,0,1-3.5-3.5h0a3.5,3.5,0,0,1,3.5-3.49h138.6a3.49,3.49,0,0,1,3.5,3.49h0A3.49,3.49,0,0,1,458.62,879.34Z"></path><path class="cls-43" d="M503.63,367.24c.36-1.87-.36-5.84-2.53-8.92s-4.4-10.91-.54-17.29,7.23-4.34,7.23-4.34-1.15-5.79,2.23-8.08,10.3-4.64,13.25,2.11-13.43,31.52-14.58,33S503.63,367.24,503.63,367.24Z"></path><path class="cls-20" d="M511.89,369.71a25.92,25.92,0,0,0-2.1,3.79c-1.7,3.39-3.77,7.83-3.93,8.14-.24.48-11.33-7.53-11.39-8.07s7.67-6.26,11.22-8.88l1.55-1.13S512.73,368.87,511.89,369.71Z"></path><path class="cls-5" d="M511.89,369.71a25.92,25.92,0,0,0-2.1,3.79,31.6,31.6,0,0,1-4.1-8.81l1.55-1.13S512.73,368.87,511.89,369.71Z"></path><path class="cls-20" d="M530.75,351.43c-1.17,6.79-6.67,19.93-13.74,20.65s-10.21-5.38-10.53-8.52-.4-14.7,2.33-17.59S531.15,349.1,530.75,351.43Z"></path><path class="cls-20" d="M509,351.66c0,2.18-1.39,3.95-3.1,3.95s-3.1-1.77-3.1-3.95,1.38-3.94,3.1-3.94S509,349.48,509,351.66Z"></path><path class="cls-43" d="M507.57,348.36c3.31-4.8,16.61,4.06,20.83,5.56s12.29,2.23,12.89-2.47-6.39-4.16-6.39-4.16a4.6,4.6,0,0,0,4.34-5.24c-.36-5-5.84-4.46-5.84-4.46s1.26-4-1.93-6.08-7.71-.67-8.26-.25-14.94,10.07-16,11.76S507.57,348.36,507.57,348.36Z"></path><path class="cls-20" d="M564,393.4c.24.48-3.74,4.09-10.43,5.54s-8.91,0-10.18.36a11.6,11.6,0,0,0-3,2.56c-1.21,1.25-2.34,2.53-2.61,2.68-.54.3-6.63-5.06-4.82-6.32.8-.56,1.49-1.06,2.11-1.51,4.15-2.93,5.25-3.38,14.94-3.38C561.12,393.33,563.71,392.91,564,393.4Z"></path><path class="cls-44" d="M551.91,413.52h0a.85.85,0,0,1,0-1.19l29.52-31.63a.84.84,0,0,1,1.19,0h0a.84.84,0,0,1,0,1.19l-29.51,31.63A.85.85,0,0,1,551.91,413.52Z"></path><path class="cls-20" d="M567.39,404.6c-3.08,3.62-2.36,3.32-6.51,4.34-2.59.63-10,3.37-15.3,5.35-2.36.87-4.33,1.59-5.34,1.92a3.92,3.92,0,0,1-.7.2c-.17,0-.07-.69.17-1.71.67-2.72,2.37-7.75,2.37-7.75a15.76,15.76,0,0,0,2.58-.31,39.66,39.66,0,0,0,8.2-2.82c2.66-1.21,8.8-3.5,11.15-3.74s3.8-3.49,4.4-2.77S570.46,401,567.39,404.6Z"></path><path class="cls-45" d="M521.83,527.32a10.52,10.52,0,0,1-4.12-.45,29.34,29.34,0,0,1-6.41-2.29c-4-2.09-13.82-12.69-15.91-15.42a2.36,2.36,0,0,1-.46-.91c-.36-1.52,2-2.29,4.27-4.07a11.37,11.37,0,0,0,1.37-1.24,7.87,7.87,0,0,0,.53-.62s4.42-6.42,5.86.17c.06.25.14.53.23.82a26.48,26.48,0,0,0,1.92,4.19C513.45,515.45,522.47,527,521.83,527.32Z"></path><path class="cls-45" d="M567.57,537.14c-1.65,2.44-4,5.45-5.33,6.48-2.31,1.76-17.33,7.57-20,7.64h0c-2,0-2.57-5.07-3.1-9.42-.1-.84-.2-1.65-.31-2.4a2,2,0,0,0,0-.24A1.74,1.74,0,0,1,539,539c.67-.5,2.74-1.61,7.29-1a10.2,10.2,0,0,0,1.88.06c6.94-.27,21-5,21.26-4.4C569.57,533.93,568.74,535.39,567.57,537.14Z"></path><path class="cls-5" d="M548.21,538.06c-.89.91-5.44,2.86-9.08,3.78-.1-.84-.2-1.65-.31-2.4L539,539c.67-.5,2.74-1.61,7.29-1A10.2,10.2,0,0,0,548.21,538.06Z"></path><path class="cls-25" d="M454.82,468.26c19.28,7.39,45.15,4.34,46.28,5.3s34.71,67.49,36.15,67.49,10.13-3.53,10.77-4-19.76-64.44-22.34-67.66-10-15.42-39.21-16.87-39.53,3.21-38.08,6.75S454.82,468.26,454.82,468.26Z"></path><path class="cls-5" d="M509.11,507.5c-2.41.47-6.86-1.3-9.91-3.32a11.37,11.37,0,0,0,1.37-1.24,16.66,16.66,0,0,1,4.92-.17,9.65,9.65,0,0,1,1.7.54A26.48,26.48,0,0,0,509.11,507.5Z"></path><path class="cls-24" d="M525.36,473.88c-5.3,7.88-16.23,32.14-16.87,32.3s-9.8-2.73-10.28-3.69,1.12-5,5-24.27,14.62-28.12,14.62-28.76-13.34,2.89-22,8.35-32.29,17-42.9,14.79c-8.33-1.77-13.39-7.7-13.62-15.69a23.35,23.35,0,0,1,.93-7s.14,4.94,24.63-8.2q2.46-1.32,5.26-2.89c29.72-16.71,63-6.91,66.84,1.93S530.66,466,525.36,473.88Z"></path><path class="cls-5" d="M540.35,401.86c-1.21,1.25-2.34,2.53-2.61,2.68-.54.3-6.63-5.06-4.82-6.32.8-.56,1.49-1.06,2.11-1.51A25.49,25.49,0,0,1,540.35,401.86Z"></path><path class="cls-46" d="M539.39,402.82c.11.4-.93,1.91-2.51,3.87-1.72,2.13-4.09,4.77-6.32,7h0c-2.5,2.53-4.82,4.59-5.84,4.9-2.77.85-16,3.38-17.72,1.81a13.68,13.68,0,0,1-1.82-3.66,80.32,80.32,0,0,1-3.57-12c-.76-3.77-1-7,0-8.18,2.65-3.14,4.94-11.81,4.94-11.81a27.55,27.55,0,0,1,1.85,4.76c.16.53.32,1.08.47,1.64,2.34,8.63,3.6,20.28,4.07,20.83.6.73,20.85-15.66,21.33-14.82S539,401.49,539.39,402.82Z"></path><path class="cls-5" d="M464.83,441.74a6.18,6.18,0,0,1-2.46,2.42c-5.06,3-14.22,12.12-16.79,13a9.13,9.13,0,0,1-6.31-.26,23.35,23.35,0,0,1,.93-7S440.34,454.88,464.83,441.74Z"></path><path class="cls-5" d="M536.88,406.69c-1.72,2.13-4.09,4.77-6.32,7h0c-7.11,3.61-16.27,7.08-19,6.17s-4.74-1.65-6.34-3.12-2.68-3.54-3.54-7.07a12.62,12.62,0,0,1,0-5c1.06-6.44,5.45-14,6.76-15.23.16.53.32,1.08.47,1.64-1.12,5.6-2.56,9.12-2.56,9.63s3.2,12.35,5,12.35S529,407,536.88,406.69Z"></path><path class="cls-47" d="M498.33,413.7c-.35.27-.87.72-1.53,1.3-1,.87-2.25,2-3.7,3.38-6.72,6.26-17.2,16.38-18.88,18-2.29,2.17-20.37,12.9-22.17,14.1s-10.49,4.1-12.66,2.41,5.79-24.59,13.14-43.63S479.77,372.12,488,371s12.09,2.78,18.2,7.71C514.23,385.26,501.58,411.17,498.33,413.7Z"></path><path class="cls-5" d="M545.58,414.29c-2.36.87-4.33,1.59-5.34,1.92l0-.1-.49-1.41c.67-2.72,2.37-7.75,2.37-7.75a15.76,15.76,0,0,0,2.58-.31A20.8,20.8,0,0,1,545.58,414.29Z"></path><path class="cls-5" d="M496.8,415c-1,.87-2.25,2-3.7,3.38-2.46-2.85-10.22-15.94-12.25-20.51-2.25-5.06-4.18-14.22-1.12-17.76,0,0,3,4.91,8.27,14.63C493.12,404.13,496.3,410.45,496.8,415Z"></path><path class="cls-5" d="M486.76,376.1c5.12-.72,9.76,2.65,11.81,5.18s6.57,14.46,6.51,20.13S486.76,376.1,486.76,376.1Z"></path><path class="cls-48" d="M478.56,385.86c.82,14.67,24.23,42.42,30.13,44s35.19-14.22,35.43-15.06.53-7.88-.32-8.24-22.82,4.38-28,6.31-4.94,2.41-7.59-3.62-5.67-23-11.81-29.53S478,375.13,478.56,385.86Z"></path><path class="cls-5" d="M567.57,537.14c-1.65,2.44-4,5.45-5.33,6.48-2.31,1.76-17.33,7.57-20,7.64a.9.9,0,0,1-.44-.39c-.77-1.57,4.62-5.79,12-9.43C559.8,538.54,565.23,536.89,567.57,537.14Z"></path><path class="cls-5" d="M517.9,526.69a.81.81,0,0,1-.19.18,29.34,29.34,0,0,1-6.41-2.29c-4-2.09-13.82-12.69-15.91-15.42a2.36,2.36,0,0,1-.46-.91c2.15-.08,7.42,2.66,13,6.88C514.48,520.12,519,525.31,517.9,526.69Z"></path><path class="cls-18" d="M230,708.68c-6.49,2.17-10.29,1.71-13.89-2.42s-3.47-12-.13-15.72,12.38-3.53,13.49,1.18S230,708.68,230,708.68Z"></path><path class="cls-20" d="M238.12,727.89c-.35,1.14-10.31-2.53-10.91-3.49s.57-8.67,1.81-13.88c.14-.6.29-1.16.43-1.68a.19.19,0,0,0,0-.07l.19.08c1.08.5,6.49,3,6.8,4.2a12,12,0,0,1-.14,3.2,13.1,13.1,0,0,0,.05,4.66C237.07,723.11,238.47,726.76,238.12,727.89Z"></path><path class="cls-5" d="M229,710.52c1.61,2.25,4.21,4.85,7.3,5.73a12,12,0,0,0,.14-3.2c-.31-1.18-5.72-3.7-6.8-4.2h-.21Z"></path><path class="cls-20" d="M239.91,689c5.87,8.8,6.68,14.67,5.11,19.25s-2.1,8.91-10,5.76-11.66-16-11.92-17.16S237.29,685.11,239.91,689Z"></path><path class="cls-20" d="M228,702.57c1.12,1.94.82,4.22-.69,5.09s-3.63,0-4.76-1.92-.81-4.22.69-5.09S226.87,700.64,228,702.57Z"></path><path class="cls-18" d="M224.27,700.32c3.27-7.77,9.14-5.87,14.77-5.92s6.81-.91,6.2-2.79-2.27-7-6.81-8.91-9.65-3.27-14.84.18-9,8.08-9.57,11.83,8.45,4,9.09,4.45A8.48,8.48,0,0,1,224.27,700.32Z"></path><path class="cls-18" d="M219.61,687.27c-.2-3.67-3-4.26-7.27-3.54s-6.68,7.6-5.11,10.28,2.55,5.31,6.81,3.8S219.61,687.27,219.61,687.27Z"></path><path class="cls-49" d="M224.27,700.32c2.45-3.16,3-4.25,9.4-3.91s12.09.7,13.75-2,1.4-6.55.92-7.34-3.58,4-6.16,4.68-6.46-1.23-11.4-.13S224.27,700.32,224.27,700.32Z"></path><path class="cls-50" d="M242.4,829.54c0,.17,0,.35-.05.53A71.06,71.06,0,0,1,241,837.2c-3.56,15.51-12.52,44.62-14,51.55-1.75,8.38-4.62,40.73-4.19,48.38A45.53,45.53,0,0,0,225,949.44c-.53.4-5.63-5.11-7.21-11.26s-7.46-27.12-5.5-42.84c1.79-14.3,4.88-37.4,4.76-47.09a24,24,0,0,0-.13-2.47,28,28,0,0,1,1.13-9.61h0a34.23,34.23,0,0,1,3.59-8.66c.16-.25.32-.51.49-.75,2.17-3.23,4.88-5.18,7.89-4.2A33.45,33.45,0,0,1,242.4,829.54Z"></path><path class="cls-20" d="M230.3,829.52c-21.65,31.79-29.16,38.25-37.37,42.27s-41.57,8.38-48.73,10.3-13.62,12-13.62,12c-.7-.87,4.19-14.49,16.07-21s30.7-11.88,36.32-13.79c4.89-1.66,7.86-1.92,10.31-7.34s8.56-27.42,11-29.17S230.3,829.52,230.3,829.52Z"></path><path class="cls-51" d="M235.33,961.4a10.31,10.31,0,0,1-3.18.58c-3.21.31-7.83.42-9-.31-1.75-1.14-3.15-5.59-5.59-7a6.79,6.79,0,0,1-2.66-2.71,3.83,3.83,0,0,1-.05-3.75c1.31-2.18,2.62-3.84,2.88-5.07s.18-3.84.79-3,6,8.21,6.42,9.26c.79,2.11,2.23,5.24,3.88,6.46S235.76,960.88,235.33,961.4Z"></path><path class="cls-51" d="M136.18,882.82c-.45,1-4.06,9.34-4.77,10.2-1.42,1.75-3.41,4.57-3.63,6.61s-.83,8.47-1.5,8.36c-.33-.06-1.88-2-3.36-4.3s-3-5-3-6.06c.1-2.08,3.24-5.53,3.22-8.34,0-2.41,1.22-4.82,3.17-5.44a3.34,3.34,0,0,1,1-.16c2.55,0,4.64.33,5.83-.06S136.62,881.85,136.18,882.82Z"></path><path class="cls-5" d="M201.16,829.26c3.7,2.47,10.07,5.11,16.87,6.91h0c2.2.59,4.45,1.08,6.67,1.46,6.24,1.06,12.23,1.17,16.29-.43a71.06,71.06,0,0,0,1.36-7.13c-4.42-1.07-11.81-1.1-15.13-1.91a15.93,15.93,0,0,0-1.86-.33c-1.07-.14-2.34-.24-3.74-.32-6.32-.37-15.26-.19-19.76-.06Z"></path><path class="cls-52" d="M236.85,722c5.11.65,19.17,11.35,23.23,18.95s-11.66,7.33-13.49,6.94S236.85,722,236.85,722Z"></path><path class="cls-35" d="M227.33,721.22c3.26,2.28,6.82,5.41,8.91,4.49s0-3.62.61-3.75,12.1,17,12,22.88-5.9,15.54-6.25,22.88,5.42,28.64,4.72,39.12-1.57,26-5.59,27.42-18.86,1.92-28.64-1.57-12.4-4.37-12.93-6.29,1.57-15.2,9.08-27.95,15.72-25.32,14-31.08S212.36,749.9,212,747.28s-.92-19.47.52-21.57S226,720.3,227.33,721.22Z"></path><rect class="cls-53" x="267.18" y="702.69" width="27.76" height="19.14" rx="2.78" transform="translate(-361.3 295.5) rotate(-35.49)"></rect><rect class="cls-53" x="308.17" y="694.2" width="27.76" height="19.14" rx="2.78" transform="translate(136.73 -47.67) rotate(10.74)"></rect><rect class="cls-53" x="288.17" y="800.61" width="27.76" height="19.14" rx="2.78" transform="translate(156.2 -42.08) rotate(10.74)"></rect><rect class="cls-53" x="328.65" y="791.71" width="27.76" height="19.14" rx="2.78" transform="translate(-401.56 347.73) rotate(-35.49)"></rect><rect class="cls-53" x="342.48" y="716.38" width="27.76" height="19.14" rx="2.78" transform="translate(747.14 17.93) rotate(55.04)"></rect><rect class="cls-53" x="252.99" y="777.38" width="27.76" height="19.14" rx="2.78" transform="translate(758.9 117.32) rotate(55.04)"></rect><rect class="cls-53" x="244.63" y="737.38" width="27.76" height="19.14" rx="2.78" transform="translate(1038.9 621.42) rotate(99.95)"></rect><rect class="cls-53" x="351.35" y="756.66" width="27.76" height="19.14" rx="2.78" transform="matrix(-0.17, 0.98, -0.98, -0.17, 1183.04, 538.92)"></rect><path class="cls-54" d="M293.4,772.61c3.14.69,4.19.87,5.06,2s2.45,1.14,2.8,2.28,1,3.66-1.4,3.05S293.4,772.61,293.4,772.61Z"></path><path class="cls-53" d="M366.13,744.72a55.47,55.47,0,1,0-42.25,66.1A55.49,55.49,0,0,0,366.13,744.72Zm-49.29,35.14a23.51,23.51,0,1,1,17.91-28A23.5,23.5,0,0,1,316.84,779.86Z"></path><circle class="cls-55" cx="311.95" cy="756.64" r="31.36" transform="translate(-382.16 323.01) rotate(-35.6)"></circle><path class="cls-20" d="M202.4,748.59c-1.83,6.81-3,22.44.88,25.15s26.81,1.14,35.62-2.27,23.23-10.65,24.11-11.88,8.9-14.49,8.73-15.45-5.85.7-9.08,5.5-4.11,6.72-7.69,7.86-11.44,3.84-20.52,3.14-14.19-.65-18.82,1.09a24.19,24.19,0,0,0-5.28,3.1,18.73,18.73,0,0,1,1.92-7c1.75-3.32,5.33-11.35,5.33-12.93S202.4,748.59,202.4,748.59Z"></path><path class="cls-5" d="M201.93,750.61c3.84-1,11.06-2.6,13.76-1.22.13.07.26.13.37.2l-1.74,4h0c-3.18.17-8.85,0-12.69-1.33Z"></path><path class="cls-35" d="M214.37,724.75c-3.31.43-7.86,5.33-10.57,15.28s-2.71,11.36-2,11.27,12.31.7,13.54,0,7.07-11.79,5.5-19.74S216.37,724.49,214.37,724.75Z"></path><path class="cls-54" d="M294.51,772.87c1.18,1.93.74,3.31,2.05,4.35a5.73,5.73,0,0,0,3.54,1.48c.94-.05,1.53-.26,1.44-.61S294.51,772.87,294.51,772.87Z"></path><path class="cls-5" d="M125.72,893a43.47,43.47,0,0,1-2.8,10.71c-1.55-2.35-3-5-3-6.06.1-2.08,3.24-5.53,3.22-8.34,0-2.41,1.22-4.82,3.17-5.44A50.63,50.63,0,0,1,125.72,893Z"></path><path class="cls-5" d="M232.15,962c-3.21.31-7.83.42-9-.31-1.75-1.14-3.15-5.59-5.59-7a6.79,6.79,0,0,1-2.66-2.71,46.5,46.5,0,0,1,9.34,4.38A48.92,48.92,0,0,1,232.15,962Z"></path><path class="cls-18" d="M514.23,697.37c3.06,3.48,10.79,6.68,10.79,6.68.29-.7.53-1.37.78-2a26.88,26.88,0,0,0,.77-2.63,1.72,1.72,0,0,0,.07-.21c3-12.27-2.6-21.48-4.78-22.68a.85.85,0,0,0-.21-.14l-.14.25c-.91,1.65-6.4,11.56-8.09,16.34a.13.13,0,0,0,0,.07l-.11.28c-.1.36-.21.71-.28,1A3.55,3.55,0,0,0,514.23,697.37Z"></path><path d="M513.21,692.94a1.79,1.79,0,0,1,.07.35c.18.67.53,2.29,1,4.08,3.06,3.48,10.79,6.68,10.79,6.68.29-.7.53-1.37.78-2a26.88,26.88,0,0,0,.77-2.63,1.72,1.72,0,0,0,.07-.21c3-12.27-2.6-21.48-4.78-22.68l0,0s0,.07.07.1c1.12,2.46,3,7,2.39,10.93-.53,3.38-2.36,9-5.21,9.43-1.68.28-4.35-4-5.73-4Z"></path><path class="cls-20" d="M517,706a1.17,1.17,0,0,1,.11.32,88.13,88.13,0,0,1,2.36,8.75,2.6,2.6,0,0,0,.14.53v0a22,22,0,0,0,1.16,4c.7,1.13,13-3.3,13.18-4.53s-8.26-11.18-11.39-15c0-.07-.11-.14-.14-.21s-.07,0-.11-.07a9.53,9.53,0,0,0-1.68-.63.15.15,0,0,0-.07,0,2.18,2.18,0,0,0-1.87.14,1.81,1.81,0,0,0-.24.24l-.07.07C517.4,700.85,516.13,704.19,517,706Z"></path><path class="cls-5" d="M517,706a1.17,1.17,0,0,1,.11.32,88.13,88.13,0,0,1,2.36,8.75,2.6,2.6,0,0,0,.14.53c.14-2.15.38-4.82.88-5.77,1.08-2.14.42-6,.91-6.78s1.41-1,1.16-3V700a.49.49,0,0,0-.14-.14s-.07,0-.11-.07a2.77,2.77,0,0,0-1.68-.63.15.15,0,0,0-.07,0,4.27,4.27,0,0,0-1.69.21,1.32,1.32,0,0,0-.42.17l-.07.07C517.4,700.85,516.13,704.19,517,706Z"></path><path class="cls-20" d="M497,688.65c0,1,.14,1.9.24,2.92,1.16,10.23,5.77,23.45,12.38,25,7.27,1.65,10.58-6.71,10.3-14s-10.44-16.91-12.24-16.63c-.95.14-4,1-6.68,1.65C498.84,688.13,497,688.65,497,688.65Z"></path><path class="cls-20" d="M517.46,696.34c1-4,3.6-4,5.08-2.26,1.29,1.51,1.51,7.42-2.75,7.83S517.46,696.34,517.46,696.34Z"></path><path class="cls-5" d="M497,688.65c0,1,.14,1.9.24,2.92,3.73,2.32,12.94.81,15.86.85a115.46,115.46,0,0,0-12.1-4.86C498.84,688.13,497,688.65,497,688.65Z"></path><path class="cls-18" d="M496.8,689.46c8.5,3.45,12.3,1.9,16.41,3.48a1.34,1.34,0,0,0,.18.07c3.58,1.41,4.22,2.85,4.22,2.85l.63-3.09,3.34-16.07.07-.35a1,1,0,0,0-.28-.07,20.38,20.38,0,0,0-4.92-1c-8.9-1-20.53,1.58-23,1-2.81-.7-6.68-3.09-8.47-3.06a1.08,1.08,0,0,0-.39,0C483,673.68,488.25,686.05,496.8,689.46Z"></path><path class="cls-56" d="M528.68,936.73c0,.21,0,.46.07.67.35,3.48.67,6.36.7,7,.11,2,14.42,6.05,11.64-2.81a45.4,45.4,0,0,1-1.76-12.69v-.07c-.1-4.36.14-8.76.32-12.9,0-1.06.07-2.15.1-3.17,0,0-11.63,8.76-12,10.2C527.45,923.87,528.12,930.9,528.68,936.73Z"></path><path class="cls-56" d="M470.11,943.06c-.28-1.65.81-6.89,3-12.62a57.29,57.29,0,0,1,4.64-9.56,32.6,32.6,0,0,1,3-4.08s-12.24.53-14.94,2.07c-1.76,1-3.87,8.55-6.09,14.07a3.16,3.16,0,0,1-.24.59c-1.06,2.67-2.15,4.82-3.24,5.31C454.86,939.47,470.61,946.15,470.11,943.06Z"></path><path class="cls-57" d="M500.38,955.86c.46.59,3.69,1.79,8.26,2.53a48.59,48.59,0,0,0,16.77-.28c12.06-2.47,17.33-.5,18.67-1.66.81-.7.88-4.78-.07-8.93a17.7,17.7,0,0,0-3.13-7.13c-.53-.6-11.43,2.07-12.55,2.49s-3.52,2.46-7.45,5a9.23,9.23,0,0,1-1.76.88c-3.24,1.44-9,3.13-13.29,4.53C502.49,954.45,500,955.36,500.38,955.86Z"></path><path class="cls-57" d="M426.1,945.42c-.07.91,2.6,2.49,6.3,4,5.83,2.42,14.23,4.78,18.7,4.18,7.27-.95,18,.84,20.07.14,1.27-.42,1.12-4.85.49-8.4-.38-2.21-1-4.11-1.47-4.5,0,0-11.39-2.07-14-2s-3.86,1.34-8.5,3a10.93,10.93,0,0,1-2,.49c-4.71.85-13.33,1-17.37,1.9h0C427,944.5,426.14,944.89,426.1,945.42Z"></path><path class="cls-5" d="M459.11,933.43a1.31,1.31,0,0,0,.32.1c3.58,1.27,12.07-5.38,13.47-5.62.92-.14.2,1.9.2,2.53a57.29,57.29,0,0,1,4.64-9.56,1.48,1.48,0,0,0-.07-1c-.84-1.2-15,10.58-18,13.08Z"></path><path class="cls-58" d="M458.06,934c.6.8,14-4.15,23.69-17.55.39-.56.81-1.12,1.2-1.65,9.1-12.79,16.48-25.31,20.84-49.25,3.55-19.58,10.41-23,14.8-29.49a20.36,20.36,0,0,0,2.92-6.36c3.3-12.13-1.44-25.74-4.11-27.18s-15.89,6.36-15.89,6.36c-6.58,19.37-15.44,46.79-18.32,60.19S457.42,933.18,458.06,934Z"></path><path class="cls-59" d="M483,914.83c9.1-12.79,16.48-25.31,20.84-49.25,3.55-19.58,10.41-23,14.8-29.49-1.4-9.21-4.25-22-4.25-22-5.59,26.82-13.75,44-17,57.37C493.85,885.65,487.83,904.53,483,914.83Z"></path><path class="cls-5" d="M528.29,937.54a2,2,0,0,0,.46-.14c4.25-1.23,9-10.48,9.77-10.48.43,0,.64,1,.81,1.94-.1-4.36.14-8.76.32-12.9-1.41,1.12-9.14,17-11,20.77C528.43,937.26,528.29,937.54,528.29,937.54Z"></path><path class="cls-60" d="M513.88,854.26c2.5,14.42,13,83.46,14,84.27s10.72-12.77,12-19.55,2-28.44-1.44-47-9.28-18.14-6-34.84c.42-2.11.92-4.22,1.44-6.29,3-11.6,7-22.46,5.56-33.22a30.17,30.17,0,0,0-1.87-7.24c-6-15-24.29,11.74-24.29,11.74,0,2-.07,3.94-.14,5.73,0,.7,0,1.37,0,2C512.44,834,511.63,841.15,513.88,854.26Z"></path><path class="cls-61" d="M509.8,809.62a21.32,21.32,0,0,0,3.31.28c8.33.21,17-3,19.12.53s.07,17.05,1.65,20.42c3-11.6,7-22.46,5.56-33.22-7,.84-20.15,7.14-26.3,10.23Z"></path><path class="cls-38" d="M495.74,814.89c.53.7,34.1-8.44,45.17-13,2-.88,3.31-1.55,3.48-2,1-2.88-4.53-9.07-2.07-20.38,1.44-6.72,5.62-20.11,7.14-33.47,1-9.18.8-18.32-2.39-25.28-7.21-15.64-26.58-2.67-28-1.61-8.72,6.18-7.84,17.93-12.59,49.63-.1.67-.21,1.34-.28,2-1.54,9.88-3.27,17.93-4.85,24.33C498.06,808.25,495.36,814.36,495.74,814.89Z"></path><rect class="cls-62" x="481.25" y="704.79" width="18.16" height="12.52" rx="1.82" transform="translate(584.49 1569.63) rotate(-151.67)"></rect><rect class="cls-62" x="453.96" y="702.63" width="18.16" height="12.52" rx="1.82" transform="translate(1121.5 1241.2) rotate(162.1)"></rect><rect class="cls-63" x="475.61" y="770.06" width="18.16" height="12.52" rx="1.82" transform="translate(1184.48 1366.15) rotate(162.1)"></rect><rect class="cls-62" x="448.62" y="767.58" width="18.16" height="12.52" rx="1.82" transform="translate(493.33 1672.2) rotate(-151.67)"></rect><rect class="cls-62" x="433.49" y="719.82" width="18.16" height="12.52" rx="1.82" transform="translate(1291.26 673.22) rotate(117.8)"></rect><rect class="cls-62" x="496.55" y="752.11" width="18.16" height="12.52" rx="1.82" transform="translate(1412.29 664.79) rotate(117.8)"></rect><rect class="cls-62" x="498.71" y="725.47" width="18.16" height="12.52" rx="1.82" transform="translate(1057.72 31.12) rotate(72.89)"></rect><path class="cls-62" d="M432,747.85l3.45,11.24.82,2.63a1.81,1.81,0,0,0,1.95,1.27,1.36,1.36,0,0,0,.33-.06l4.54-1.4,3.94-1.22a1.82,1.82,0,0,0,1.2-2.27L447,754.09l-.91-2.92-2.15-7a1.83,1.83,0,0,0-2.28-1.2l-4,1.24-4.46,1.38A1.8,1.8,0,0,0,432,747.85Z"></path><path class="cls-62" d="M437.65,744.2a36,36,0,0,0,2.67,11.95c.44,1.06.92,2.09,1.45,3.1.41.78.84,1.54,1.31,2.28a36.28,36.28,0,1,0-5.32-22.48A38.68,38.68,0,0,0,437.65,744.2Zm21.06-3.07a15.38,15.38,0,1,1,13.91,16.71A15.38,15.38,0,0,1,458.71,741.13Z"></path><circle class="cls-64" cx="473.9" cy="742.38" r="20.51" transform="translate(-401 843.65) rotate(-64.05)"></circle><path class="cls-65" d="M512.67,760.76c-9.52,0-31.5,15.67-38.82,14.36S455,769.4,452,771.6s14.5,12,26.21,10S512.67,760.76,512.67,760.76Z"></path><path class="cls-20" d="M467.44,785.57a20,20,0,0,0,10.09.11,26,26,0,0,0,5.87-2c.5-.25.74-.39.74-.39L482,775.94c-2.85,1-4.67,2.07-6.15,2.57h0v0a4.62,4.62,0,0,1-4-.31c-3.1-1.66-20.46-9.88-22.25-7.14S459.08,783.11,467.44,785.57Z"></path><path class="cls-39" d="M501.33,795a43.79,43.79,0,0,1,5.87-10.41c6.72-8.89,13.33-5.62,24.19-16.69s15-37.37,9.88-45.49c0,0-22.89,41-35.09,48.26C504.64,780.58,502.91,788.63,501.33,795Z"></path><path class="cls-5" d="M477.53,785.68a26,26,0,0,0,5.87-2c0-.28-.17-.53-.52-.84a68,68,0,0,0-7.07-4.29h0v0c-.59,1.2,3.52,4.57,3.38,5.45C479,784.55,478.13,785.22,477.53,785.68Z"></path><path class="cls-40" d="M538.48,719.29c-18.93-5.67-20,35.85-22.67,40.8a26.66,26.66,0,0,0-8.1,2.06c-8.76,3.71-30.47,15.28-31.94,16.35-.9.64,4.46,5.63,5.7,6s37.64-9.61,44.23-14.7S551,723,538.48,719.29Z"></path><path class="cls-27" d="M508.64,958.39a48.59,48.59,0,0,0,16.77-.28c12.06-2.47,17.33-.5,18.67-1.66.81-.7.88-4.78-.07-8.93-1.62,4.79-6.26,6.86-11.18,7.25C528.79,955.12,515.18,957.05,508.64,958.39Z"></path><path class="cls-27" d="M432.4,949.46c5.83,2.42,14.23,4.78,18.7,4.18,7.27-.95,18,.84,20.07.14,1.27-.42,1.12-4.85.49-8.4-2.28,4.22-13,6.26-18.38,6.19C448.43,951.5,437.35,949.39,432.4,949.46Z"></path><path class="cls-28" d="M485,673.15c.28,2.25,3.27,7,8.19,10.13,5.66,3.51,15.54-5.59,23.31-8-8.9-1-20.53,1.58-23,1C490.61,675.51,486.74,673.12,485,673.15Z"></path><path class="cls-29" d="M505.83,953.32c2.64,1.38,10.2.6,13.89-1.54s3.9-3.62-.6-3C515.88,950.23,510.12,951.92,505.83,953.32Z"></path><path class="cls-29" d="M428.28,944.22a6,6,0,0,0,3.45,1.34,22.32,22.32,0,0,0,13.92-3.24C440.94,943.17,432.32,943.31,428.28,944.22Z"></path><path class="cls-39" d="M537.75,784.84c1.1,4.56,5.77,11.59,3.16,17,2-.88,3.31-1.55,3.48-2,1-2.88-4.53-9.07-2.07-20.38,1.44-6.72,5.62-20.11,7.14-33.47C543,770.12,536.55,779.79,537.75,784.84Z"></path><g class="cls-66"><path class="cls-67" d="M864.12,240a3.16,3.16,0,0,1-2-5.6,35,35,0,0,0,.35-53.62,3.17,3.17,0,1,1,4.1-4.83,41.32,41.32,0,0,1-.42,63.32A3.14,3.14,0,0,1,864.12,240Z"></path><path class="cls-67" d="M888.45,253.72a3.17,3.17,0,0,1-2.4-5.24,63,63,0,0,0,.28-81.79,3.17,3.17,0,0,1,4.83-4.1,69.3,69.3,0,0,1-.32,90A3.12,3.12,0,0,1,888.45,253.72Z"></path><path class="cls-67" d="M912.41,267.25a3.17,3.17,0,0,1-2.52-5.08A91.27,91.27,0,0,0,910.17,153a3.17,3.17,0,1,1,5.09-3.78,97.8,97.8,0,0,1,11.23,96.87A96,96,0,0,1,914.94,266,3.15,3.15,0,0,1,912.41,267.25Z"></path><rect class="cls-67" x="726.14" y="181.25" width="41.84" height="52.82" rx="5.72"></rect><path class="cls-68" d="M833,295l-69.55-60.93V181.25l69.53-61.74a4.8,4.8,0,0,1,8,3.59V291.39A4.8,4.8,0,0,1,833,295Z"></path></g><g class="cls-69"><path class="cls-70" d="M580.62,254.84c17-20.82,19.76-19.09,28.09-23.9,9.18-5.31,13.77-10.67,15.71-9.86,3.31,1.38,2.3,9.42-4,15.53-6.69,6.43-10.17,7.67-9.92,9s33,8.85,36.56,9.81,6.47,5.67,4.75,9.79-13.93,23.27-19.6,24.37-57.31-14.39-57.93-15.54S580.62,254.84,580.62,254.84Z"></path><path class="cls-71" d="M580.91,282l-13.21,3.91a1.93,1.93,0,0,1-2.47-2l2.31-40.27A1.92,1.92,0,0,1,570,242l12.84,3.93a1.93,1.93,0,0,1,1.36,2l-1.94,32.43A1.94,1.94,0,0,1,580.91,282Z"></path></g><g class="cls-69"><path class="cls-70" d="M1033.23,217.4h50.82a.9.9,0,0,1,.9.9V293a2.8,2.8,0,0,1-2.8,2.8h-47a2.8,2.8,0,0,1-2.8-2.8V218.3a.9.9,0,0,1,.9-.9Z" transform="translate(1253.13 1328.37) rotate(-113.91)"></path><path class="cls-70" d="M997.78,282a2,2,0,0,0,1.18,2.65L1034,296.29l-21.3-48.05Zm18-6.39a4,4,0,1,1-5.25-2A4,4,0,0,1,1015.81,275.64Z"></path><path class="cls-8" d="M1033.72,253.71a9.75,9.75,0,0,1,2.12-.25,4.84,4.84,0,0,1,1.71.3,1.73,1.73,0,0,1,1,.86,1.45,1.45,0,0,1,.06,1.08,1.28,1.28,0,0,1-.75.78,1.68,1.68,0,0,1-1,.15l-1.08-.15a6.51,6.51,0,0,0-1.41,0,6.12,6.12,0,0,0-1.88.56,4.33,4.33,0,0,0-2.29,2.11,3.26,3.26,0,0,0,0,2.86,2.75,2.75,0,0,0,1.72,1.64,8,8,0,0,0,2.64.34c1,0,2-.1,3.15-.23a14,14,0,0,1,3.24,0,7.14,7.14,0,0,1,2.94,1,5.91,5.91,0,0,1,2.23,2.79,8,8,0,0,1,.7,3,7.66,7.66,0,0,1-.5,3,8.23,8.23,0,0,1-1.8,2.74,10.11,10.11,0,0,1-3.16,2.12,14.41,14.41,0,0,1-2.45.83,11.94,11.94,0,0,1-2.4.34,5.73,5.73,0,0,1-1.93-.22,1.66,1.66,0,0,1-1.09-.89,2,2,0,0,1-.16-1.18,1.11,1.11,0,0,1,.73-.86,1.79,1.79,0,0,1,1-.09c.39.05.86.1,1.39.14a10.63,10.63,0,0,0,1.77,0,6.68,6.68,0,0,0,2.09-.58,5.84,5.84,0,0,0,1.86-1.28,5,5,0,0,0,1.08-1.71,4.88,4.88,0,0,0,.3-1.93,5.42,5.42,0,0,0-.48-2,3.09,3.09,0,0,0-1.79-1.79,7.45,7.45,0,0,0-2.66-.38c-1,0-2,.09-3.15.22a15.22,15.22,0,0,1-3.23,0,7.05,7.05,0,0,1-2.89-.91,5.8,5.8,0,0,1-2.61-4.94,6.75,6.75,0,0,1,.52-2.54,8,8,0,0,1,1.57-2.4,8.1,8.1,0,0,1,2.69-1.86A11.49,11.49,0,0,1,1033.72,253.71Z"></path><path class="cls-8" d="M1055.32,269l7.06-3.13a1.66,1.66,0,0,1,1.18-.12,1.67,1.67,0,0,1,.92,2.06,1.67,1.67,0,0,1-.89.79l-8.42,3.74a1.54,1.54,0,0,1-1.41.06,1.93,1.93,0,0,1-.87-1l-9.09-20.51a1.92,1.92,0,0,1-.14-1.3,1.59,1.59,0,0,1,1-1l8.43-3.73a1.72,1.72,0,0,1,1.18-.13,1.38,1.38,0,0,1,.86.86,1.44,1.44,0,0,1,.06,1.21,1.74,1.74,0,0,1-.89.79l-7.06,3.13,3.44,7.76,6.43-2.85a1.71,1.71,0,0,1,1.18-.13,1.67,1.67,0,0,1,.91,2.07,1.68,1.68,0,0,1-.88.79l-6.43,2.85Z"></path><path class="cls-8" d="M1062.53,249.59a12.59,12.59,0,0,1,.3-4.68,10.94,10.94,0,0,1,2.09-4.1,11.58,11.58,0,0,1,9-4,10.73,10.73,0,0,1,4.44,1.21A12.42,12.42,0,0,1,1082,241a16.05,16.05,0,0,1,2.62,4.11,16.4,16.4,0,0,1,1.28,4.7,12.79,12.79,0,0,1-.29,4.68,10.87,10.87,0,0,1-2.09,4.1,11.58,11.58,0,0,1-9,4,10.65,10.65,0,0,1-4.44-1.21,12.42,12.42,0,0,1-3.67-2.92,16.33,16.33,0,0,1-3.91-8.81Zm6.28,6.47a10.3,10.3,0,0,0,2.58,2.45,7.59,7.59,0,0,0,3.21,1.17,8,8,0,0,0,6.76-3,7.41,7.41,0,0,0,1.29-3.16,10.43,10.43,0,0,0-.08-3.56,16.47,16.47,0,0,0-1.09-3.49,17.11,17.11,0,0,0-1.86-3.16,10.3,10.3,0,0,0-2.58-2.45,7.59,7.59,0,0,0-3.21-1.17,7.11,7.11,0,0,0-3.75.67,7,7,0,0,0-3,2.33,7.41,7.41,0,0,0-1.29,3.16,10.18,10.18,0,0,0,.08,3.56,16.29,16.29,0,0,0,1.09,3.49A15.78,15.78,0,0,0,1068.81,256.06Z"></path></g></g></g></g></svg>