<svg xmlns="http://www.w3.org/2000/svg" viewBox="0 0 680.38 477.87"><defs><style>.cls-1{fill:#ffd9d4;}.cls-2{fill:#fff;}.cls-3{opacity:0.84;}.cls-4{fill:#121936;}.cls-5{fill:#fafafa;}.cls-6{fill:#263238;}.cls-7{fill:#e56161;}.cls-8{fill:#ffaa89;}.cls-9{fill:#ff6a48;}.cls-10{fill:#ffa386;}.cls-11{fill:#ffd066;}.cls-12{fill:#f4f2ed;}.cls-13{fill:#faf8f3;}.cls-14{fill:#233863;}</style></defs><g id="Layer_2" data-name="Layer 2"><g id="BACKGROUND"><path class="cls-1" d="M110,137.87l-9,6.93a6.4,6.4,0,0,1-7.32.35c-1.05-.67-2.13-1.28-3.22-1.85A6.43,6.43,0,0,1,87,136.78l1.46-11.27a6.4,6.4,0,0,0-5.53-7.16l-10-1.29a6.39,6.39,0,0,0-7.16,5.52l-1.46,11.27a6.43,6.43,0,0,1-5,5.43c-1.21.27-2.4.59-3.59,1a6.42,6.42,0,0,1-7-2.19l-6.94-9a6.4,6.4,0,0,0-9-1.16l-8,6.17a6.39,6.39,0,0,0-1.16,9l6.94,9a6.4,6.4,0,0,1,.34,7.32c-.66,1.05-1.28,2.13-1.85,3.22A6.45,6.45,0,0,1,22.57,166L11.3,164.56a6.4,6.4,0,0,0-7.16,5.52l-1.29,10a6.4,6.4,0,0,0,5.52,7.16l11.27,1.45a6.44,6.44,0,0,1,5.43,5c.27,1.2.59,2.4,1,3.59a6.4,6.4,0,0,1-2.19,7l-9,6.93a6.4,6.4,0,0,0-1.15,9l6.16,8a6.41,6.41,0,0,0,9,1.16l9-6.94a6.4,6.4,0,0,1,7.32-.34c1,.66,2.13,1.28,3.22,1.85a6.44,6.44,0,0,1,3.45,6.52l-1.46,11.26a6.4,6.4,0,0,0,5.53,7.16l10,1.3a6.4,6.4,0,0,0,7.16-5.53l1.45-11.26a6.44,6.44,0,0,1,5-5.43c1.21-.27,2.4-.6,3.59-1a6.38,6.38,0,0,1,7,2.19l6.94,9a6.38,6.38,0,0,0,9,1.16l8-6.16a6.4,6.4,0,0,0,1.16-9l-6.94-9a6.4,6.4,0,0,1-.34-7.32c.66-1,1.28-2.12,1.85-3.22a6.43,6.43,0,0,1,6.52-3.44l11.26,1.45a6.4,6.4,0,0,0,7.17-5.52l1.29-10a6.4,6.4,0,0,0-5.52-7.16l-11.27-1.46a6.43,6.43,0,0,1-5.43-5c-.27-1.2-.6-2.4-1-3.58a6.4,6.4,0,0,1,2.19-7l9-6.94a6.4,6.4,0,0,0,1.15-9l-6.16-8A6.39,6.39,0,0,0,110,137.87ZM90.29,210.7a34.22,34.22,0,1,1,6.2-48A34.23,34.23,0,0,1,90.29,210.7Z"></path><path class="cls-2" d="M66.71,251.2a7.69,7.69,0,0,1-.95-.06l-10-1.3a7.4,7.4,0,0,1-6.39-8.28l1.46-11.26a5.48,5.48,0,0,0-2.92-5.51c-1.11-.58-2.22-1.21-3.29-1.89a5.42,5.42,0,0,0-6.17.29l-9,6.94a7.39,7.39,0,0,1-10.37-1.34l-6.17-8a7.4,7.4,0,0,1,1.34-10.37l9-6.93a5.42,5.42,0,0,0,1.84-5.9c-.37-1.2-.71-2.44-1-3.67a5.47,5.47,0,0,0-4.58-4.22L8.24,188.25A7.4,7.4,0,0,1,1.86,180l1.29-10a7.4,7.4,0,0,1,8.28-6.38L22.7,165a5.45,5.45,0,0,0,5.5-2.91c.59-1.12,1.22-2.23,1.89-3.29a5.41,5.41,0,0,0-.29-6.18l-6.93-9a7.39,7.39,0,0,1,1.34-10.37l8-6.17a7.41,7.41,0,0,1,10.38,1.34l6.93,9a5.41,5.41,0,0,0,5.9,1.85c1.2-.38,2.43-.71,3.66-1a5.46,5.46,0,0,0,4.22-4.58l1.46-11.27A7.39,7.39,0,0,1,73,116.07l10,1.29a7.4,7.4,0,0,1,6.39,8.28L88,136.91a5.45,5.45,0,0,0,2.92,5.5c1.11.58,2.22,1.22,3.29,1.89a5.41,5.41,0,0,0,6.17-.29l9-6.93a7.4,7.4,0,0,1,10.37,1.34l6.17,8a7.42,7.42,0,0,1-1.34,10.37l-9,6.94a5.41,5.41,0,0,0-1.84,5.9c.37,1.2.71,2.43,1,3.66a5.44,5.44,0,0,0,4.58,4.22L130.54,179a7.39,7.39,0,0,1,6.39,8.28l-1.29,10a7.4,7.4,0,0,1-8.28,6.39l-11.27-1.46a5.44,5.44,0,0,0-5.5,2.91c-.59,1.13-1.22,2.24-1.89,3.3a5.41,5.41,0,0,0,.28,6.17l6.94,9a7.39,7.39,0,0,1-1.34,10.37l-8,6.16a7.4,7.4,0,0,1-10.37-1.34l-6.93-9a5.43,5.43,0,0,0-5.9-1.85c-1.2.38-2.43.71-3.67,1a5.46,5.46,0,0,0-4.21,4.59L74,244.75A7.4,7.4,0,0,1,66.71,251.2Zm-25-31.12a7.35,7.35,0,0,1,3.94,1.13c1,.65,2.09,1.26,3.16,1.81a7.45,7.45,0,0,1,4,7.53l-1.46,11.27a5.4,5.4,0,0,0,4.66,6l10,1.29a5.39,5.39,0,0,0,6-4.65l1.45-11.27A7.49,7.49,0,0,1,79.27,227c1.18-.27,2.36-.58,3.51-.95a7.43,7.43,0,0,1,8.08,2.54l6.94,9a5.39,5.39,0,0,0,7.56,1l8-6.17a5.38,5.38,0,0,0,1-7.56l-6.94-9a7.43,7.43,0,0,1-.4-8.46c.64-1,1.25-2.07,1.81-3.15a7.47,7.47,0,0,1,7.54-4l11.26,1.45a5.39,5.39,0,0,0,6-4.66l1.3-10a5.4,5.4,0,0,0-1.08-4,5.33,5.33,0,0,0-3.58-2.05L119,179.48a7.45,7.45,0,0,1-6.27-5.75c-.27-1.18-.59-2.36-1-3.51a7.44,7.44,0,0,1,2.53-8.09l9-6.93a5.41,5.41,0,0,0,1-7.57l-6.16-8a5.4,5.4,0,0,0-7.57-1l-9,6.94a7.44,7.44,0,0,1-8.47.39c-1-.64-2.08-1.25-3.15-1.81a7.45,7.45,0,0,1-4-7.53l1.45-11.27a5.39,5.39,0,0,0-4.65-6l-10-1.29a5.4,5.4,0,0,0-6,4.66L65.28,134a7.46,7.46,0,0,1-5.76,6.28c-1.18.27-2.36.59-3.51.95a7.42,7.42,0,0,1-8.08-2.53l-6.94-9a5.42,5.42,0,0,0-7.57-1l-8,6.17a5.39,5.39,0,0,0-1,7.57l6.94,9a7.43,7.43,0,0,1,.39,8.46c-.64,1-1.24,2.08-1.8,3.15a7.48,7.48,0,0,1-7.54,4l-11.26-1.46a5.39,5.39,0,0,0-6,4.66l-1.3,10a5.42,5.42,0,0,0,4.66,6.05l11.27,1.45A7.46,7.46,0,0,1,26,193.48c.27,1.18.59,2.36.95,3.51a7.43,7.43,0,0,1-2.53,8.08l-9,6.94a5.39,5.39,0,0,0-1,7.56l6.16,8a5.4,5.4,0,0,0,7.57,1l9-6.93A7.39,7.39,0,0,1,41.73,220.08ZM110,137.87h0ZM69.43,218.8a35.17,35.17,0,1,1,21.47-7.31h0A35,35,0,0,1,69.43,218.8Zm-.1-68.42A33.22,33.22,0,1,0,89.68,209.9h0a33.23,33.23,0,0,0-20.35-59.52Zm21,60.32h0Z"></path><circle class="cls-1" cx="85.28" cy="324.48" r="57.71" transform="translate(-74.04 29.22) rotate(-13.62)"></circle><path class="cls-2" d="M85.28,383.19A58.71,58.71,0,1,1,144,324.48,58.77,58.77,0,0,1,85.28,383.19Zm0-115.42A56.71,56.71,0,1,0,142,324.48,56.77,56.77,0,0,0,85.28,267.77Z"></path><circle class="cls-1" cx="85.28" cy="324.48" r="57.71" transform="translate(-74.04 29.22) rotate(-13.62)"></circle><path class="cls-2" d="M85.28,383.19A58.71,58.71,0,1,1,144,324.48,58.77,58.77,0,0,1,85.28,383.19Zm0-115.42A56.71,56.71,0,1,0,142,324.48,56.77,56.77,0,0,0,85.28,267.77Z"></path><path class="cls-1" d="M139.62,369.15a7.94,7.94,0,0,0-2.52-1.66,67.5,67.5,0,1,0-10.52,10.17,7.78,7.78,0,0,0,1.87,2.89l6.77,6.63,11.28-11.29Zm-54.34,13A57.71,57.71,0,1,1,143,324.48,57.71,57.71,0,0,1,85.28,382.19Z"></path><path class="cls-2" d="M85.28,392.83a68.36,68.36,0,1,1,53.38-25.67,9,9,0,0,1,1.66,1.28h0l7.6,7.44-12.7,12.71-7.47-7.32a9,9,0,0,1-1.56-2.06A67.57,67.57,0,0,1,85.28,392.83Zm0-134.69a66.35,66.35,0,0,0,0,132.69A65.72,65.72,0,0,0,126,376.88L127,376l.48,1.27a7,7,0,0,0,1.64,2.53l6.06,5.93,9.87-9.87-6.16-6h0a7,7,0,0,0-2.2-1.46l-1.25-.52.86-1A66.33,66.33,0,0,0,85.28,258.14Zm0,125.05A58.71,58.71,0,1,1,144,324.48,58.77,58.77,0,0,1,85.28,383.19Zm0-115.42A56.71,56.71,0,1,0,142,324.48,56.77,56.77,0,0,0,85.28,267.77Z"></path><path class="cls-1" d="M159.62,383.48l-9-9a2,2,0,0,0-2.77,0l-1.38,1.37-11.28,11.29-.4.4a2,2,0,0,0,0,2.77l9,9a2,2,0,0,0,2.77,0l13.07-13.06A2,2,0,0,0,159.62,383.48Z"></path><path class="cls-2" d="M145.17,400.89a3,3,0,0,1-2.1-.86l-9-9a3,3,0,0,1,0-4.19l13.06-13.06a3,3,0,0,1,4.19,0l9,9a2.95,2.95,0,0,1,0,4.18L147.26,400A2.93,2.93,0,0,1,145.17,400.89Zm4.1-25.95a1,1,0,0,0-.68.28l-13.07,13.07a1,1,0,0,0,0,1.36l9,9a1,1,0,0,0,1.36,0l13.06-13.06a1,1,0,0,0,0-1.36l-9-9A1,1,0,0,0,149.27,374.94Z"></path><path class="cls-1" d="M203,425.36l-47.42-47.94c-.35-.35-2.14.95-4.45,3A114.35,114.35,0,0,0,140,391.84c-1.38,1.69-2.17,2.94-1.87,3.23L185.52,443A12.24,12.24,0,0,0,203,443,12.58,12.58,0,0,0,203,425.36Z"></path><path class="cls-2" d="M194.25,447.67a13.17,13.17,0,0,1-9.44-3.95l-47.42-47.94c-.89-.9-.09-2.24,1.8-4.58a115.12,115.12,0,0,1,11.26-11.54c4-3.5,5-3.73,5.82-2.94l47.42,47.94a13.59,13.59,0,0,1,0,19.06A13.17,13.17,0,0,1,194.25,447.67Zm-55.11-53,47.09,47.6a11.25,11.25,0,0,0,16,0,11.58,11.58,0,0,0,0-16.24L155.2,378.49a22.23,22.23,0,0,0-3.43,2.67,112.48,112.48,0,0,0-11,11.31A15.25,15.25,0,0,0,139.14,394.71Zm15.71-16.58Z"></path><circle class="cls-1" cx="196.72" cy="435.05" r="3.5"></circle><path class="cls-2" d="M196.72,439.55a4.5,4.5,0,1,1,4.5-4.5A4.51,4.51,0,0,1,196.72,439.55Zm0-7a2.5,2.5,0,1,0,2.5,2.5A2.5,2.5,0,0,0,196.72,432.55Z"></path><line class="cls-1" x1="153.98" y1="386.08" x2="185.4" y2="417.49"></line><path class="cls-2" d="M185.4,418.49a1,1,0,0,1-.71-.29l-31.41-31.41a1,1,0,0,1,0-1.42,1,1,0,0,1,1.41,0l31.41,31.41a1,1,0,0,1-.7,1.71Z"></path><path class="cls-1" d="M63.28,284.64s32.93-16.83,58.33,11.71"></path><path class="cls-2" d="M121.61,297.35a1,1,0,0,1-.74-.33c-24.61-27.64-56.81-11.66-57.13-11.49a1,1,0,0,1-1.35-.44,1,1,0,0,1,.44-1.34c.34-.17,33.9-16.85,59.53,11.94a1,1,0,0,1-.75,1.66Z"></path><path class="cls-2" d="M186.42,199.81l-4.35,6a4.15,4.15,0,0,1-4.5,1.55c-.77-.22-1.56-.41-2.34-.57a4.17,4.17,0,0,1-3.34-3.44L170.75,196a4.15,4.15,0,0,0-4.75-3.46l-6.48,1a4.16,4.16,0,0,0-3.46,4.75l1.14,7.29a4.19,4.19,0,0,1-2.12,4.3c-.7.39-1.39.81-2.06,1.26a4.15,4.15,0,0,1-4.76-.1l-6-4.34a4.14,4.14,0,0,0-5.8.9l-3.87,5.31a4.15,4.15,0,0,0,.91,5.8l6,4.35a4.15,4.15,0,0,1,1.54,4.5c-.22.78-.41,1.56-.57,2.35a4.17,4.17,0,0,1-3.44,3.33l-7.29,1.14a4.17,4.17,0,0,0-3.46,4.75l1,6.48a4.16,4.16,0,0,0,4.74,3.47l7.3-1.15a4.18,4.18,0,0,1,4.29,2.13c.39.7.81,1.38,1.26,2.06a4.17,4.17,0,0,1-.09,4.76l-4.35,6a4.15,4.15,0,0,0,.91,5.8l5.3,3.87a4.15,4.15,0,0,0,5.8-.91l4.35-6a4.16,4.16,0,0,1,4.5-1.55c.78.22,1.56.41,2.35.57a4.17,4.17,0,0,1,3.33,3.44l1.15,7.29a4.14,4.14,0,0,0,4.74,3.46l6.49-1a4.17,4.17,0,0,0,3.46-4.75l-1.14-7.29a4.16,4.16,0,0,1,2.12-4.3c.7-.39,1.39-.81,2.06-1.26a4.15,4.15,0,0,1,4.76.1l6,4.35a4.17,4.17,0,0,0,5.81-.91l3.86-5.31a4.15,4.15,0,0,0-.91-5.8l-6-4.35a4.15,4.15,0,0,1-1.55-4.5c.23-.78.41-1.56.57-2.35a4.17,4.17,0,0,1,3.44-3.33l7.29-1.14a4.16,4.16,0,0,0,3.46-4.75l-1-6.48a4.17,4.17,0,0,0-4.75-3.47l-7.29,1.15a4.19,4.19,0,0,1-4.3-2.13c-.39-.7-.8-1.38-1.25-2.06a4.15,4.15,0,0,1,.09-4.76l4.35-6a4.15,4.15,0,0,0-.91-5.8l-5.3-3.87A4.17,4.17,0,0,0,186.42,199.81Zm1,49a22.23,22.23,0,1,1-4.87-31.06A22.23,22.23,0,0,1,187.41,248.82Z"></path><path class="cls-2" d="M639,301a5.16,5.16,0,0,1-5.08-4.36l-1.14-7.29a3.23,3.23,0,0,0-2.55-2.62c-.82-.16-1.63-.36-2.42-.58a3.18,3.18,0,0,0-3.42,1.17l-4.35,6a5.15,5.15,0,0,1-7.2,1.13l-5.3-3.86a5.17,5.17,0,0,1-1.13-7.21l4.35-6a3.18,3.18,0,0,0,.07-3.61c-.46-.69-.9-1.41-1.3-2.13a3.18,3.18,0,0,0-3.27-1.62l-7.29,1.14a5.16,5.16,0,0,1-5.89-4.3l-1-6.48a5.16,5.16,0,0,1,4.3-5.89l7.29-1.14a3.19,3.19,0,0,0,2.61-2.54c.17-.82.36-1.63.59-2.43a3.18,3.18,0,0,0-1.17-3.42l-6-4.35a5.07,5.07,0,0,1-2.06-3.36,5.15,5.15,0,0,1,.93-3.84l3.86-5.3a5.17,5.17,0,0,1,7.2-1.13l6,4.35a3.14,3.14,0,0,0,3.61.07c.69-.46,1.41-.9,2.13-1.3a3.17,3.17,0,0,0,1.62-3.27l-1.14-7.29a5.13,5.13,0,0,1,.93-3.83,5.07,5.07,0,0,1,3.37-2.06l6.48-1a5.14,5.14,0,0,1,5.89,4.29l1.14,7.29a3.2,3.2,0,0,0,2.54,2.62c.81.16,1.63.35,2.43.58a3.16,3.16,0,0,0,3.42-1.17l4.35-6a5.07,5.07,0,0,1,3.36-2.06,5.16,5.16,0,0,1,3.84.93l5.3,3.86a5.17,5.17,0,0,1,1.13,7.2l-4.35,6a3.14,3.14,0,0,0-.07,3.61c.46.69.89,1.4,1.3,2.13a3.17,3.17,0,0,0,3.27,1.62l7.29-1.14a5.16,5.16,0,0,1,5.89,4.3l1,6.48a5.17,5.17,0,0,1-4.29,5.89l-7.29,1.14a3.2,3.2,0,0,0-2.62,2.54c-.16.82-.36,1.63-.58,2.43a3.15,3.15,0,0,0,1.17,3.42l6,4.35a5.14,5.14,0,0,1,1.13,7.2l-3.87,5.3a5.16,5.16,0,0,1-7.2,1.13l-6-4.35a3.19,3.19,0,0,0-3.62-.07c-.68.46-1.39.89-2.13,1.3a3.2,3.2,0,0,0-1.62,3.27l1.15,7.29a5.16,5.16,0,0,1-4.3,5.89l-6.48,1A4.43,4.43,0,0,1,639,301ZM626.9,284a5.26,5.26,0,0,1,1.41.19c.74.22,1.5.4,2.27.55A5.2,5.2,0,0,1,634.7,289l1.15,7.29a3.15,3.15,0,0,0,3.6,2.63l6.48-1a3.15,3.15,0,0,0,2.63-3.6L647.42,287a5.22,5.22,0,0,1,2.62-5.33c.69-.38,1.36-.79,2-1.21a5.19,5.19,0,0,1,5.91.11l6,4.35a3.15,3.15,0,0,0,4.41-.69l3.86-5.3a3.15,3.15,0,0,0-.69-4.41l-6-4.35a5.17,5.17,0,0,1-1.92-5.58c.21-.74.4-1.5.55-2.27a5.2,5.2,0,0,1,4.27-4.12l7.29-1.15a3.16,3.16,0,0,0,2.63-3.6l-1-6.48a3.16,3.16,0,0,0-3.6-2.63l-7.3,1.14a5.19,5.19,0,0,1-5.32-2.63c-.38-.68-.79-1.35-1.21-2A5.18,5.18,0,0,1,660,235l4.35-6a3.16,3.16,0,0,0-.69-4.41l-5.3-3.87a3.17,3.17,0,0,0-2.35-.56,3.14,3.14,0,0,0-2.06,1.25h0l-4.35,6a5.17,5.17,0,0,1-5.58,1.92c-.75-.22-1.51-.4-2.27-.55a5.23,5.23,0,0,1-4.13-4.27l-1.14-7.29a3.16,3.16,0,0,0-3.6-2.63l-6.49,1a3.11,3.11,0,0,0-2.06,1.26,3.14,3.14,0,0,0-.56,2.34l1.14,7.29a5.21,5.21,0,0,1-2.63,5.33c-.68.37-1.34.78-2,1.21a5.18,5.18,0,0,1-5.9-.11l-6-4.35a3.15,3.15,0,0,0-4.41.69l-3.87,5.3a3.18,3.18,0,0,0,.69,4.41l6,4.34a5.17,5.17,0,0,1,1.91,5.59c-.21.74-.39,1.5-.54,2.27a5.2,5.2,0,0,1-4.27,4.12l-7.29,1.15a3.16,3.16,0,0,0-2.63,3.6l1,6.48a3.14,3.14,0,0,0,1.25,2.07,3.17,3.17,0,0,0,2.35.56L605.9,268a5.21,5.21,0,0,1,5.33,2.63c.37.67.78,1.34,1.21,2a5.16,5.16,0,0,1-.12,5.9l-4.34,6a3.15,3.15,0,0,0,.69,4.41l5.3,3.87a3.18,3.18,0,0,0,4.41-.69l4.34-6A5.19,5.19,0,0,1,626.9,284Zm26.24-63.15h0Zm-17,59.13a23.22,23.22,0,1,1,18.8-9.54A23.13,23.13,0,0,1,636.13,280Zm.08-44.46a22,22,0,0,0-3.33.26,21.14,21.14,0,1,0,3.33-.26Z"></path><path class="cls-2" d="M342.87,279.93a5.14,5.14,0,0,1-5.08-4.36l-1.15-7.29a3.18,3.18,0,0,0-2.54-2.61c-.81-.16-1.63-.36-2.43-.59a3.17,3.17,0,0,0-3.42,1.18l-4.34,6a5.17,5.17,0,0,1-7.2,1.13l-5.31-3.87a5.16,5.16,0,0,1-1.12-7.2l4.34-6a3.16,3.16,0,0,0,.07-3.62c-.46-.69-.9-1.41-1.3-2.13a3.18,3.18,0,0,0-3.26-1.62l-7.29,1.14a5.15,5.15,0,0,1-5.9-4.29l-1-6.48a5.15,5.15,0,0,1,4.29-5.89l7.3-1.15a3.18,3.18,0,0,0,2.61-2.54c.16-.81.36-1.62.59-2.42a3.16,3.16,0,0,0-1.18-3.42l-6-4.35a5.16,5.16,0,0,1-1.13-7.2l3.87-5.31a5.15,5.15,0,0,1,7.2-1.12l6,4.34a3.16,3.16,0,0,0,3.62.07c.69-.46,1.4-.89,2.13-1.3a3.2,3.2,0,0,0,1.62-3.26l-1.14-7.29a5.15,5.15,0,0,1,4.29-5.89l6.48-1a5.16,5.16,0,0,1,5.89,4.3l1.14,7.29a3.2,3.2,0,0,0,2.55,2.61c.81.16,1.62.36,2.42.59a3.18,3.18,0,0,0,3.42-1.17l4.35-6a5.17,5.17,0,0,1,7.2-1.13l5.3,3.87a5.15,5.15,0,0,1,1.13,7.2l-4.35,6a3.19,3.19,0,0,0-.07,3.62c.46.68.9,1.4,1.3,2.13a3.22,3.22,0,0,0,3.27,1.62l7.29-1.14a5.14,5.14,0,0,1,5.89,4.29l1,6.48a5.16,5.16,0,0,1-4.3,5.89l-7.29,1.15A3.18,3.18,0,0,0,370,241.7c-.16.8-.36,1.62-.59,2.42a3.18,3.18,0,0,0,1.17,3.42l6,4.35a5.17,5.17,0,0,1,1.13,7.2l-3.87,5.31a5.16,5.16,0,0,1-7.2,1.12l-6-4.34a3.14,3.14,0,0,0-3.61-.07c-.69.46-1.41.89-2.13,1.3a3.2,3.2,0,0,0-1.62,3.26l1.14,7.29a5.15,5.15,0,0,1-4.29,5.89l-6.48,1A5.62,5.62,0,0,1,342.87,279.93Zm-12.06-17a5.22,5.22,0,0,1,1.41.2c.75.21,1.51.4,2.27.55a5.19,5.19,0,0,1,4.13,4.26l1.14,7.3a3.15,3.15,0,0,0,3.61,2.62l6.48-1a3.16,3.16,0,0,0,2.63-3.61L351.33,266a5.19,5.19,0,0,1,2.63-5.32c.67-.38,1.34-.79,2-1.22a5.16,5.16,0,0,1,5.9.12l6,4.35a3.17,3.17,0,0,0,4.4-.69l3.87-5.3a3.17,3.17,0,0,0-.69-4.41l-6-4.35a5.18,5.18,0,0,1-1.92-5.59c.21-.75.4-1.51.55-2.26a5.19,5.19,0,0,1,4.26-4.13l7.29-1.14a3.16,3.16,0,0,0,2.63-3.61l-1-6.48a3.16,3.16,0,0,0-3.61-2.63l-7.29,1.15a5.2,5.2,0,0,1-5.32-2.63c-.38-.68-.79-1.35-1.22-2a5.16,5.16,0,0,1,.12-5.9l4.35-6a3.18,3.18,0,0,0-.69-4.41l-5.31-3.86a3.16,3.16,0,0,0-4.4.69h0l-4.35,6a5.19,5.19,0,0,1-5.59,1.92c-.74-.21-1.51-.4-2.26-.55a5.19,5.19,0,0,1-4.13-4.26l-1.14-7.3a3.16,3.16,0,0,0-3.61-2.62l-6.48,1a3.16,3.16,0,0,0-2.63,3.61l1.14,7.29a5.18,5.18,0,0,1-2.62,5.32c-.68.38-1.35.79-2,1.22a5.18,5.18,0,0,1-5.91-.12l-6-4.35a3.18,3.18,0,0,0-4.41.69l-3.86,5.3a3.15,3.15,0,0,0,.69,4.41l6,4.35a5.18,5.18,0,0,1,1.92,5.59c-.21.74-.4,1.51-.55,2.26a5.19,5.19,0,0,1-4.26,4.13l-7.3,1.14a3.15,3.15,0,0,0-2.62,3.61l1,6.48a3.17,3.17,0,0,0,3.61,2.63l7.29-1.14a5.18,5.18,0,0,1,5.32,2.62c.37.67.78,1.34,1.22,2a5.18,5.18,0,0,1-.12,5.9l-4.35,6a3.17,3.17,0,0,0,.69,4.41l5.3,3.86a3.15,3.15,0,0,0,4.41-.69l4.35-6A5.16,5.16,0,0,1,330.81,263Zm26.25-63.15h0Zm-17,59.13a23.22,23.22,0,1,1,18.8-9.53h0A23.21,23.21,0,0,1,340.05,258.94Zm.06-44.44a21.23,21.23,0,1,0,17.12,33.73h0a21.21,21.21,0,0,0-17.12-33.73ZM358,248.82h0Z"></path><path class="cls-2" d="M446.92,324.08a7,7,0,0,1-1.44-.14l-10.17-2a7.55,7.55,0,0,1-6-8.85l2.21-11.43a5.56,5.56,0,0,0-2.58-5.82c-1.11-.67-2.2-1.39-3.25-2.14a5.62,5.62,0,0,0-6.41-.14l-9.65,6.51a7.55,7.55,0,0,1-10.49-2l-5.79-8.58a7.57,7.57,0,0,1,2-10.49l9.65-6.51a5.62,5.62,0,0,0,2.26-6c-.31-1.25-.57-2.53-.77-3.81a5.58,5.58,0,0,0-4.43-4.58l-11.43-2.21a7.57,7.57,0,0,1-6-8.86l2-10.16a7.56,7.56,0,0,1,8.85-6L407,233.11a5.56,5.56,0,0,0,5.81-2.59c.67-1.1,1.39-2.2,2.15-3.24a5.62,5.62,0,0,0,.14-6.41l-6.52-9.65a7.57,7.57,0,0,1,2-10.49l8.58-5.79a7.54,7.54,0,0,1,10.48,2l6.52,9.65a5.61,5.61,0,0,0,6,2.27c1.25-.31,2.53-.57,3.81-.78a5.58,5.58,0,0,0,4.57-4.42l2.22-11.43a7.56,7.56,0,0,1,8.85-6l10.16,2a7.57,7.57,0,0,1,6,8.86l-2.22,11.43a5.58,5.58,0,0,0,2.59,5.81c1.11.67,2.2,1.39,3.25,2.15a5.62,5.62,0,0,0,6.41.13l9.65-6.51a7.55,7.55,0,0,1,10.49,2l5.79,8.58a7.56,7.56,0,0,1-2,10.49L502,237.73a5.62,5.62,0,0,0-2.26,6c.31,1.25.57,2.54.77,3.81a5.58,5.58,0,0,0,4.43,4.58l11.43,2.22a7.55,7.55,0,0,1,6,8.85l-2,10.16a7.56,7.56,0,0,1-8.85,6l-11.43-2.22a5.57,5.57,0,0,0-5.81,2.59c-.67,1.1-1.39,2.19-2.15,3.24a5.63,5.63,0,0,0-.14,6.42l6.52,9.65a7.57,7.57,0,0,1-2,10.49l-8.58,5.79a7.55,7.55,0,0,1-10.48-2l-6.52-9.65a5.64,5.64,0,0,0-6-2.27c-1.25.31-2.53.57-3.81.78a5.58,5.58,0,0,0-4.57,4.42L454.33,318A7.57,7.57,0,0,1,446.92,324.08ZM422.4,290.65a7.72,7.72,0,0,1,4.49,1.45c1,.73,2.05,1.42,3.11,2.06a7.59,7.59,0,0,1,3.52,7.91L431.3,313.5a5.56,5.56,0,0,0,4.4,6.51l10.16,2a5.57,5.57,0,0,0,6.51-4.4l2.21-11.43a7.6,7.6,0,0,1,6.22-6c1.23-.19,2.46-.44,3.65-.74a7.65,7.65,0,0,1,8.14,3.09l6.51,9.65a5.55,5.55,0,0,0,7.71,1.5l8.58-5.79a5.56,5.56,0,0,0,1.5-7.71l-6.52-9.65a7.65,7.65,0,0,1,.18-8.71c.73-1,1.42-2,2.05-3.1a7.59,7.59,0,0,1,7.91-3.52l11.43,2.21a5.55,5.55,0,0,0,6.51-4.39l2-10.16A5.55,5.55,0,0,0,516,256.3l-11.43-2.22a7.58,7.58,0,0,1-6-6.22c-.2-1.22-.45-2.45-.75-3.65a7.63,7.63,0,0,1,3.09-8.13l9.66-6.52a5.56,5.56,0,0,0,1.49-7.71l-5.79-8.58a5.56,5.56,0,0,0-7.71-1.49l-9.65,6.51a7.62,7.62,0,0,1-8.7-.17c-1-.72-2.05-1.42-3.11-2.06a7.57,7.57,0,0,1-3.52-7.9l2.22-11.43a5.56,5.56,0,0,0-4.4-6.51l-10.16-2a5.56,5.56,0,0,0-6.51,4.4l-2.21,11.43a7.59,7.59,0,0,1-6.22,6c-1.23.2-2.46.45-3.65.74a7.62,7.62,0,0,1-8.14-3.09L428,198.09a5.57,5.57,0,0,0-7.71-1.5l-8.57,5.8a5.56,5.56,0,0,0-1.5,7.71l6.52,9.65a7.63,7.63,0,0,1-.18,8.7c-.72,1-1.41,2.05-2.06,3.11a7.56,7.56,0,0,1-7.9,3.51l-11.43-2.21a5.56,5.56,0,0,0-6.51,4.39l-2,10.16a5.55,5.55,0,0,0,4.39,6.51l11.43,2.22a7.58,7.58,0,0,1,6,6.22c.2,1.22.45,2.45.75,3.65a7.64,7.64,0,0,1-3.1,8.14l-9.65,6.51a5.56,5.56,0,0,0-1.49,7.71l5.79,8.58a5.55,5.55,0,0,0,7.71,1.49l9.65-6.51A7.52,7.52,0,0,1,422.4,290.65Zm31.23.54a36.26,36.26,0,0,1-6.94-.67,35.92,35.92,0,1,1,6.94.67ZM453.48,221a34.08,34.08,0,0,0-6.41,67.53h0a34.07,34.07,0,0,0,13-66.9A34.7,34.7,0,0,0,453.48,221Z"></path><path class="cls-1" d="M619.65,148.43a60.12,60.12,0,1,0-97.28,47.25,12.94,12.94,0,0,1,5,10.16v16.48a12.8,12.8,0,0,0,12.8,12.8h38.64a12.8,12.8,0,0,0,12.79-12.8V205.85a12.94,12.94,0,0,1,5-10.16A60,60,0,0,0,619.65,148.43Z"></path><path class="cls-2" d="M578.85,236.12H540.21a13.81,13.81,0,0,1-13.8-13.8V205.84a11.9,11.9,0,0,0-4.66-9.38,61.4,61.4,0,0,1-23.3-50.38,61.35,61.35,0,0,1,60.13-58.76h1a61.11,61.11,0,0,1,37.75,109.17,11.88,11.88,0,0,0-4.65,9.37v16.47A13.81,13.81,0,0,1,578.85,236.12ZM559.54,89.31h-.93A59.11,59.11,0,0,0,523,194.89a13.92,13.92,0,0,1,5.42,11v16.48a11.82,11.82,0,0,0,11.8,11.8h38.64a11.81,11.81,0,0,0,11.79-11.8V205.85a13.91,13.91,0,0,1,5.41-10.95A59.11,59.11,0,0,0,559.54,89.31Z"></path><path class="cls-1" d="M546.8,233.94V160a6.6,6.6,0,0,0-6.4-6.77h-3.08a6.6,6.6,0,0,0-6.4,6.77h0a6.59,6.59,0,0,0,6.4,6.76h22.21"></path><path class="cls-2" d="M546.8,234.94a1,1,0,0,1-1-1V167.72h-8.48a7.77,7.77,0,0,1,0-15.53h3.08a7.6,7.6,0,0,1,7.4,7.77v5.76h11.73a1,1,0,0,1,0,2H547.8v66.22A1,1,0,0,1,546.8,234.94Zm-9.48-80.75a5.78,5.78,0,0,0,0,11.53h8.48V160a5.61,5.61,0,0,0-5.4-5.77Z"></path><path class="cls-1" d="M572.26,233.94V160a6.59,6.59,0,0,1,6.4-6.77h3.08a6.59,6.59,0,0,1,6.39,6.77h0a6.58,6.58,0,0,1-6.39,6.76H559.53"></path><path class="cls-2" d="M572.26,234.94a1,1,0,0,1-1-1V167.72H559.53a1,1,0,0,1,0-2h11.73V160a7.6,7.6,0,0,1,7.4-7.77h3.08a7.77,7.77,0,0,1,0,15.53h-8.48v66.22A1,1,0,0,1,572.26,234.94Zm1-69.22h8.48a5.78,5.78,0,0,0,0-11.53h-3.08a5.6,5.6,0,0,0-5.4,5.77Z"></path><circle class="cls-1" cx="559.53" cy="258.95" r="12.73" transform="translate(178.95 744.02) rotate(-76.72)"></circle><path class="cls-2" d="M559.53,272.69A13.74,13.74,0,1,1,573.26,259,13.76,13.76,0,0,1,559.53,272.69Zm0-25.47A11.74,11.74,0,1,0,571.26,259,11.74,11.74,0,0,0,559.53,247.22Z"></path><rect class="cls-1" x="535.13" y="233.94" width="48.79" height="9.26" rx="1"></rect><path class="cls-2" d="M582.92,244.21H536.13a2,2,0,0,1-2-2v-7.27a2,2,0,0,1,2-2h46.79a2,2,0,0,1,2,2v7.27A2,2,0,0,1,582.92,244.21Zm-46.79-9.27v7.27h46.79v-7.27Z"></path><rect class="cls-1" x="535.94" y="243.21" width="47.17" height="9.26" rx="1"></rect><path class="cls-2" d="M582.11,253.47H536.94a2,2,0,0,1-2-2v-7.26a2,2,0,0,1,2-2h45.17a2,2,0,0,1,2,2v7.26A2,2,0,0,1,582.11,253.47Zm-45.17-9.26v7.26h45.18v-7.26Z"></path><rect class="cls-1" x="538.83" y="252.47" width="41.4" height="8.1" rx="0.8"></rect><path class="cls-2" d="M579.42,261.57H539.63a1.81,1.81,0,0,1-1.8-1.8v-6.49a1.81,1.81,0,0,1,1.8-1.81h39.79a1.81,1.81,0,0,1,1.81,1.81v6.49A1.81,1.81,0,0,1,579.42,261.57Zm-39.59-2h39.4v-6.1h-39.4Z"></path><path class="cls-1" d="M526.3,112.14s-20.52,17.6-13.42,49.58"></path><path class="cls-2" d="M512.88,162.72a1,1,0,0,1-1-.79c-7.16-32.19,13.53-50.37,13.74-50.55A1,1,0,0,1,527,112.9c-.21.17-20,17.62-13.1,48.6a1,1,0,0,1-.76,1.19A.78.78,0,0,1,512.88,162.72Z"></path><g class="cls-3"><path class="cls-2" d="M536.55,417.06l10.38,3.35a6.91,6.91,0,0,0,8.69-4.46l3.76-11.67a6.9,6.9,0,0,1,6.31-4.78c1.34-.06,2.67-.17,4-.33a7,7,0,0,1,7,3.7l5.6,10.92a6.9,6.9,0,0,0,9.29,3l9.71-5a6.91,6.91,0,0,0,3-9.3l-5.59-10.92a6.93,6.93,0,0,1,1.11-7.88c.91-1,1.78-2,2.6-3.06a7,7,0,0,1,7.57-2.33l11.67,3.77a6.91,6.91,0,0,0,8.69-4.46l3.35-10.38a6.91,6.91,0,0,0-4.46-8.69L617.6,354.8a6.9,6.9,0,0,1-4.78-6.31c-.06-1.34-.17-2.67-.33-4a7,7,0,0,1,3.7-7.05l10.91-5.6a6.9,6.9,0,0,0,3-9.29l-5-9.71a6.91,6.91,0,0,0-9.3-3l-10.92,5.59a6.93,6.93,0,0,1-7.88-1.11c-1-.91-2-1.77-3.06-2.6a6.91,6.91,0,0,1-2.33-7.56l3.77-11.68A6.91,6.91,0,0,0,591,283.8l-10.38-3.35a6.91,6.91,0,0,0-8.69,4.46l-3.76,11.67a6.93,6.93,0,0,1-6.31,4.79c-1.34.05-2.67.16-4,.32a6.93,6.93,0,0,1-7-3.7l-5.6-10.91a6.9,6.9,0,0,0-9.29-3l-9.71,5a6.91,6.91,0,0,0-3,9.3l5.59,10.92a6.93,6.93,0,0,1-1.11,7.88c-.91,1-1.78,2-2.6,3.06a6.93,6.93,0,0,1-7.57,2.33l-11.67-3.77a6.92,6.92,0,0,0-8.69,4.46l-3.35,10.38a6.91,6.91,0,0,0,4.46,8.69l11.67,3.76a6.9,6.9,0,0,1,4.78,6.31c.06,1.34.17,2.67.33,4a7,7,0,0,1-3.7,7.05L500.4,369a6.9,6.9,0,0,0-3,9.29l5,9.71a6.91,6.91,0,0,0,9.3,3l10.92-5.59a6.91,6.91,0,0,1,7.88,1.12c1,.9,2,1.77,3.06,2.59a6.93,6.93,0,0,1,2.33,7.57l-3.77,11.67A6.91,6.91,0,0,0,536.55,417.06Zm15.87-31.46a36.95,36.95,0,1,1,46.5-23.83A36.95,36.95,0,0,1,552.42,385.6Z"></path></g><path class="cls-2" d="M2.88,248.46a2.88,2.88,0,1,1,2.87-2.88A2.88,2.88,0,0,1,2.88,248.46Zm0-4.75a1.88,1.88,0,1,0,1.87,1.87A1.88,1.88,0,0,0,2.88,243.71Z"></path><path class="cls-2" d="M147.52,81.46a2.07,2.07,0,1,1,2.07-2.07A2.08,2.08,0,0,1,147.52,81.46Zm0-3.39a1.32,1.32,0,1,0,1.32,1.32A1.33,1.33,0,0,0,147.52,78.07Z"></path><path class="cls-4" d="M38.79,255a3,3,0,1,1-3-3A3,3,0,0,1,38.79,255Z"></path><path class="cls-4" d="M123.11,107.54a1.5,1.5,0,1,1-1.5-1.5A1.5,1.5,0,0,1,123.11,107.54Z"></path><path class="cls-4" d="M50.82,419.53a1.5,1.5,0,1,1-1.49-1.5A1.5,1.5,0,0,1,50.82,419.53Z"></path><path class="cls-4" d="M161.69,288.81a1.5,1.5,0,1,1-1.5-1.5A1.5,1.5,0,0,1,161.69,288.81Z"></path><path class="cls-2" d="M9.66,281.91a2.21,2.21,0,1,1-2.21-2.2A2.21,2.21,0,0,1,9.66,281.91Z"></path><path class="cls-2" d="M95.11,439.09l-.38,0a2.83,2.83,0,0,1-1.9-1.1A2.87,2.87,0,1,1,98,436.59a2.83,2.83,0,0,1-1.1,1.9A2.87,2.87,0,0,1,95.11,439.09Zm0-4.76a1.88,1.88,0,0,0-.24,3.74,1.92,1.92,0,0,0,1.39-.37,1.89,1.89,0,0,0,.72-1.24,1.92,1.92,0,0,0-.37-1.39h0a1.89,1.89,0,0,0-1.25-.72Z"></path><path class="cls-4" d="M125.12,405.11a3,3,0,1,1-4.2-.55A3,3,0,0,1,125.12,405.11Z"></path><path class="cls-2" d="M171.57,98.75a1.1,1.1,0,1,1-1.1-1.11A1.1,1.1,0,0,1,171.57,98.75Z"></path><path class="cls-2" d="M118.14,250.2a1.1,1.1,0,1,1-1.1-1.1A1.1,1.1,0,0,1,118.14,250.2Z"></path><path class="cls-2" d="M74.72,465.43a1.11,1.11,0,1,1-1.11-1.1A1.11,1.11,0,0,1,74.72,465.43Z"></path><circle class="cls-2" cx="92.6" cy="89.14" r="3.03"></circle><circle class="cls-2" cx="138.04" cy="464.33" r="3.03"></circle><path class="cls-2" d="M649.72,168.1a2.93,2.93,0,0,1-.58-.06,2.82,2.82,0,0,1-1.82-1.22,2.87,2.87,0,1,1,4,.8A2.8,2.8,0,0,1,649.72,168.1Zm0-4.75a1.87,1.87,0,0,0-1.56,2.91h0a1.87,1.87,0,1,0,1.56-2.91Z"></path><path class="cls-2" d="M478.5,81.46a2.07,2.07,0,1,1,2.08-2.07A2.07,2.07,0,0,1,478.5,81.46Zm0-3.39a1.32,1.32,0,1,0,1.33,1.32A1.33,1.33,0,0,0,478.5,78.07Z"></path><path class="cls-4" d="M625,192.94a3,3,0,1,0,.83-4.16A3,3,0,0,0,625,192.94Z"></path><path class="cls-4" d="M481.15,116a1.5,1.5,0,1,0,1.49-1.49A1.5,1.5,0,0,0,481.15,116Z"></path><path class="cls-4" d="M348.2,179.34a1.5,1.5,0,1,0,1.5-1.5A1.5,1.5,0,0,0,348.2,179.34Z"></path><circle class="cls-4" cx="606.45" cy="430.94" r="3.22"></circle><path class="cls-4" d="M645.35,325.08a1.5,1.5,0,1,0,1.5-1.5A1.5,1.5,0,0,0,645.35,325.08Z"></path><path class="cls-2" d="M664.21,199.22a2.2,2.2,0,1,0,.61-3.06A2.19,2.19,0,0,0,664.21,199.22Z"></path><path class="cls-2" d="M649.71,414.89a2.87,2.87,0,0,1-2.28-4.62h0a2.83,2.83,0,0,1,1.9-1.1,2.87,2.87,0,1,1,.38,5.72Zm0-4.75-.25,0a1.85,1.85,0,0,0-1.24.72h0a1.85,1.85,0,0,0-.37,1.38,1.87,1.87,0,1,0,1.86-2.12Zm-1.89.43h0Z"></path><path class="cls-2" d="M433.08,76.87a1.1,1.1,0,1,0,1.1-1.1A1.1,1.1,0,0,0,433.08,76.87Z"></path><path class="cls-4" d="M309.77,97.34a1.5,1.5,0,1,0,1.77-1.16A1.49,1.49,0,0,0,309.77,97.34Z"></path><path class="cls-2" d="M326.92,66.44a1.1,1.1,0,1,0,1.3-.85A1.1,1.1,0,0,0,326.92,66.44Z"></path><path class="cls-2" d="M667.83,367.05a1.1,1.1,0,1,0,1.1-1.11A1.11,1.11,0,0,0,667.83,367.05Z"></path><path class="cls-2" d="M633.78,125.56a1.1,1.1,0,1,0,1.1-1.1A1.11,1.11,0,0,0,633.78,125.56Z"></path><path class="cls-2" d="M347.1,134.65a1.1,1.1,0,1,0,1.1-1.1A1.1,1.1,0,0,0,347.1,134.65Z"></path><path class="cls-2" d="M585.19,275.06a1.1,1.1,0,1,0,1.1-1.1A1.1,1.1,0,0,0,585.19,275.06Z"></path><path class="cls-2" d="M635.06,457.22a1.1,1.1,0,1,0,1.1-1.1A1.1,1.1,0,0,0,635.06,457.22Z"></path><path class="cls-2" d="M507.66,73.84a3,3,0,1,0,3-3A3,3,0,0,0,507.66,73.84Z"></path><path class="cls-2" d="M372.05,84.37A3,3,0,1,0,375.64,82,3,3,0,0,0,372.05,84.37Z"></path><circle class="cls-2" cx="583.26" cy="464.33" r="3.03"></circle><circle class="cls-5" cx="480" cy="44.04" r="43.3"></circle><circle class="cls-2" cx="480" cy="44.04" r="43.5"></circle><path class="cls-6" d="M443.13,85a4.46,4.46,0,0,0-1.2.5,5.82,5.82,0,0,0-2.3,2.6,5.93,5.93,0,0,0-.5,2.3,5,5,0,0,0,.8,2.6,5.13,5.13,0,0,0,7.1,1.8,5.47,5.47,0,0,0,2.5-3.6,5,5,0,0,0-.2-2.7,5.33,5.33,0,0,0-1.3-2,5.79,5.79,0,0,0-3.1-1.6,5.7,5.7,0,0,0-1.3-.1.77.77,0,0,0,.3-.1h1a5.86,5.86,0,0,1,4.7,3.6,4.76,4.76,0,0,1,.2,2.9,5.42,5.42,0,0,1-1.5,2.9,5.33,5.33,0,0,1-6.4,1.2,6.11,6.11,0,0,1-2.4-2.1,5.38,5.38,0,0,1-.8-2.8,5,5,0,0,1,.6-2.4,5.71,5.71,0,0,1,2.5-2.6,2.19,2.19,0,0,1,.5-.3.6.6,0,0,1,.4-.1Z"></path><path class="cls-6" d="M523.5,42l-.1-.7c-.1-.5-.1-1.2-.2-2.1,0-.4-.1-1-.1-1.5a6.54,6.54,0,0,0-.4-1.8,11.21,11.21,0,0,1-.4-2.1l-.3-1.2a5.64,5.64,0,0,0-.4-1.2,39.23,39.23,0,0,0-5.4-11.3,43.42,43.42,0,0,0-11.6-11.8L502.7,7l-2.1-1.2-1.1-.6c-.4-.2-.7-.4-1.1-.6l-2.3-1-1.2-.5-1.2-.4-2.5-.8c-.8-.2-1.7-.4-2.6-.6L487.3,1c-.2,0-.4-.1-.7-.1l-.7-.1a33.93,33.93,0,0,0-5.5-.4h-2.8l-2.8.5c-.5.1-1,.1-1.4.2l-1.4.3-2.9.6a38.53,38.53,0,0,0-5.7,2l-1.4.6-.8.3-.7.4-2.7,1.5c-.9.5-1.7,1.2-2.6,1.7-.4.3-.9.6-1.3.9l-1.2,1a48.93,48.93,0,0,0-4.7,4.4l-2.1,2.5-.7.6a4.23,4.23,0,0,0-.5.7l-.9,1.4-.9,1.4-.8,1.5-.8,1.5-.4.7c-.1.3-.2.5-.3.8-.4,1-.9,2.1-1.3,3.1a31.8,31.8,0,0,0-1,3.3,45.77,45.77,0,0,0-1.6,13.8,46,46,0,0,0,2.9,13.6c.4,1.1.9,2.1,1.3,3.2a28.5,28.5,0,0,0,1.6,3l.4.7.5.7.9,1.4.9,1.4,1.1,1.3,1,1.3.5.6.6.6,2.3,2.3a49.92,49.92,0,0,0,5.1,4l1.3.9c.4.3.9.5,1.4.8.9.5,1.8,1,2.8,1.5l2.9,1.2.7.3a1.85,1.85,0,0,0,.7.2l1.5.5A39,39,0,0,0,473,87c1,.2,2,.2,2.9.3l1.5.2h4.3c1,0,1.9-.2,2.8-.2a46.78,46.78,0,0,0,5.4-.9l.7-.1a2.54,2.54,0,0,0,.7-.2l1.3-.4c.8-.3,1.7-.5,2.5-.8l2.4-1,1.2-.5,1.1-.6c.7-.4,1.5-.8,2.2-1.2.3-.2.7-.4,1-.6l1-.7c.7-.4,1.3-.9,2-1.3l1.8-1.5a44.7,44.7,0,0,0,10.5-12.8c.3-.5.6-1.1.9-1.6l.7-1.6c.2-.5.4-1,.7-1.6.1-.3.2-.5.3-.8l.2-.8.9-2.9a26.14,26.14,0,0,0,.6-2.7l.3-1.2a5,5,0,0,0,.2-1.2,18.32,18.32,0,0,0,.2-2.1c0-.6.2-1.3.2-1.8v0a11,11,0,0,1-.2,1.8c-.1.6-.1,1.4-.2,2.2a5,5,0,0,1-.2,1.2l-.3,1.2c-.2.8-.3,1.8-.6,2.7s-.6,1.9-.9,2.9l-.2.8c-.1.3-.2.5-.3.8-.2.5-.4,1-.7,1.6l-.7,1.6c-.3.5-.6,1.1-.9,1.6A42.85,42.85,0,0,1,508,77.74l-1.8,1.5c-.6.5-1.3.9-2,1.4l-1,.7a3.88,3.88,0,0,1-1.1.6l-2.2,1.2c-.4.2-.7.4-1.1.6l-1.2.5-2.4,1c-.8.3-1.7.5-2.5.8l-1.3.4a6.37,6.37,0,0,1-.7.2l-.7.1a48.52,48.52,0,0,1-5.5.9l-2.8.3h-4.4l-1.5-.1-3-.3a39,39,0,0,1-5.9-1.4l-1.5-.5-.7-.2-.7-.3-2.9-1.2c-1-.5-1.9-1-2.8-1.5-.5-.3-1-.5-1.4-.8l-1.3-.9a65.4,65.4,0,0,1-5.2-4l-2.3-2.3-.6-.6-.5-.6-1.1-1.3-1.1-1.3-1-1.4-.9-1.4-.5-.7-.4-1.2-1.6-3-1.3-3.2A49.25,49.25,0,0,1,436.2,46a43.48,43.48,0,0,1,1.7-13.9c.3-1.1.7-2.2,1-3.3l1.3-3.2c.1-.3.2-.5.3-.8l.4-.8.8-1.5.8-1.5,1-1.4.9-1.4.5-.7.5-.6,2.1-2.6a39.73,39.73,0,0,1,4.8-4.4l1.2-1c.4-.3.9-.6,1.3-.9l2.7-1.8,2.8-1.5.7-.4.7-.3,1.4-.6a39.74,39.74,0,0,1,5.8-2c1-.3,2-.4,2.9-.6l1.4-.3c.5-.1,1-.1,1.5-.2l2.9-.3a26.13,26.13,0,0,1,2.8,0,35.17,35.17,0,0,1,5.6.4l.7.1c.2,0,.4.1.7.1l1.3.3a19.8,19.8,0,0,1,2.6.6l2.5.8,1.2.6c.4.2.8.3,1.2.5l2.3,1a6,6,0,0,1,1.1.6l1.1.6,2.1,1.2,2,1.3A42.39,42.39,0,0,1,516.4,20a43.83,43.83,0,0,1,5.3,11.4c.1.4.3.8.4,1.2l.3,1.2c.1.8.3,1.5.4,2.1a13.49,13.49,0,0,1,.3,1.8c0,.5.1,1.1.1,1.5.1.9.1,1.6.2,2.1A2.44,2.44,0,0,0,523.5,42Z"></path><path class="cls-6" d="M467.7,30.34a8.6,8.6,0,0,1,1.2-.7c1.2-.7,2.4-1.3,3.7-1.9a36.56,36.56,0,0,1,15.7-2.9,24.52,24.52,0,0,1,2.7.2,27.41,27.41,0,0,1,2.8.5,9.87,9.87,0,0,1,2.8,1.2,6.89,6.89,0,0,1,2.3,2.2,4.81,4.81,0,0,1,.6,3.3,7.67,7.67,0,0,1-1.6,3.1,14.32,14.32,0,0,1-6.2,3.8A38.89,38.89,0,0,1,458.3,36h-.1l.1-.1a24.26,24.26,0,0,1,9.2-8.5,32,32,0,0,1,12.8-3.7,47.82,47.82,0,0,1,14.1,1.2,62.18,62.18,0,0,1,7.1,1.9,42.23,42.23,0,0,1,7,2.7,14.31,14.31,0,0,1,5.7,5.2,8.9,8.9,0,0,1,1.2,3.8,9.08,9.08,0,0,1-.6,4,13.09,13.09,0,0,1-5.8,5.6,31.65,31.65,0,0,1-7.8,2.8,81.69,81.69,0,0,1-34.1.9c-.7-.1-1.4-.3-2.2-.4a14.19,14.19,0,0,1-2.2-.5,30.56,30.56,0,0,1-4.3-1.3,13.84,13.84,0,0,1-3.9-2.3,6.92,6.92,0,0,1-2.4-4,6.31,6.31,0,0,1,1-4.6,12.94,12.94,0,0,1,3.3-3.3,23.78,23.78,0,0,1,4.1-2.3,20,20,0,0,1,2.1-1c.7-.3,1.4-.6,2.2-.9a54.48,54.48,0,0,1,18.7-3.6,52.79,52.79,0,0,1,9.7.7c.8.1,1.6.3,2.4.4a10.55,10.55,0,0,1,2.4.6,36.76,36.76,0,0,1,4.7,1.5,15.94,15.94,0,0,1,4.3,2.6,8.15,8.15,0,0,1,2.7,4.3l.1.6.1.7v1.3a7.32,7.32,0,0,1-.8,2.5,13.78,13.78,0,0,1-3.2,4,21.22,21.22,0,0,1-4.3,2.8c-.8.4-1.5.7-2.3,1.1s-1.6.7-2.3,1a79.47,79.47,0,0,1-9.8,3,67.91,67.91,0,0,1-20.6,1.7,23.76,23.76,0,0,1-10.1-2.7,10.65,10.65,0,0,1-4-3.6,8.79,8.79,0,0,1-1.3-5.2,9.12,9.12,0,0,1,1.4-4.2,14.84,14.84,0,0,1,2.8-3.3,26.68,26.68,0,0,1,7.4-4.5,51.16,51.16,0,0,1,25-4,30.34,30.34,0,0,1,4.2.6,18.9,18.9,0,0,1,4.1,1,15,15,0,0,1,3.8,1.9,7.63,7.63,0,0,1,2.7,3.2,5.56,5.56,0,0,1,.1,4.2,10.14,10.14,0,0,1-2.3,3.5c-2.1,1.9-4.9,2.7-7.5,3.3s-5.3,1.3-7.9,1.8A119.55,119.55,0,0,1,469.3,51a54.39,54.39,0,0,1-15.6-.8,38,38,0,0,1-14.1-5.8l-.2-.2.2-.2A48.61,48.61,0,0,1,465,32.44a47.73,47.73,0,0,1,26.4,3.4,16.65,16.65,0,0,1,2.8,1.8,6.36,6.36,0,0,1,1.9,2.7,4.2,4.2,0,0,1-.2,3.3,6.41,6.41,0,0,1-2.1,2.5,19.9,19.9,0,0,1-5.7,2.7,40.13,40.13,0,0,1-18.2,1.5,5.7,5.7,0,0,1-2.8-1.1,3,3,0,0,1-1-2.8,5.44,5.44,0,0,1,1.6-2.6,9.12,9.12,0,0,1,2.3-1.7,41.13,41.13,0,0,1,21.6-3.4,22.27,22.27,0,0,1,5.1,1.2,9.55,9.55,0,0,1,4.1,3.1,6.51,6.51,0,0,1,1.4,4.8,6.35,6.35,0,0,1-2.5,4.2,21.11,21.11,0,0,1-4,2.6A40.22,40.22,0,0,1,483.1,59a38.75,38.75,0,0,1-15.9-.7H467v-.4a18.57,18.57,0,0,1,8.9-6.7,18.84,18.84,0,0,1,9.7-1,8.63,8.63,0,0,1,4.1,1.6,4,4,0,0,1,1.4,1.5,4.38,4.38,0,0,1,.7,1.9,5.34,5.34,0,0,1-1,3.5,10.44,10.44,0,0,1-2.3,2.4,22.27,22.27,0,0,1-4.9,2.4c-1.2.5-2.4,1-3.6,1.6a13.3,13.3,0,0,0-1.9,1.4l-.4.4-.2.1.6-.6A8.47,8.47,0,0,1,480,65a19.64,19.64,0,0,1,3.6-1.6,22.27,22.27,0,0,0,4.9-2.4,10,10,0,0,0,2.2-2.4,5.16,5.16,0,0,0,.9-3.4,5.46,5.46,0,0,0-.6-1.8,3.76,3.76,0,0,0-1.4-1.4,9.74,9.74,0,0,0-4-1.5,18.57,18.57,0,0,0-9.6,1,19,19,0,0,0-8.7,6.6l-.1-.2a39.62,39.62,0,0,0,24.3-1.7c1.4-.6,2.8-1.3,4.1-2a20.38,20.38,0,0,0,3.9-2.6,6.44,6.44,0,0,0,2.4-4,7,7,0,0,0-1.4-4.6,8.52,8.52,0,0,0-4-3,21.45,21.45,0,0,0-5-1.2,41.4,41.4,0,0,0-21.4,3.4,11.87,11.87,0,0,0-2.3,1.6,4.52,4.52,0,0,0-1.4,2.4,2.66,2.66,0,0,0,.9,2.5,6.6,6.6,0,0,0,2.6,1.1,40.23,40.23,0,0,0,12,0,43.36,43.36,0,0,0,6-1.4,19.33,19.33,0,0,0,5.6-2.7,5.88,5.88,0,0,0,2-2.4,3.91,3.91,0,0,0,.1-3,5.77,5.77,0,0,0-1.8-2.5,12.71,12.71,0,0,0-2.7-1.8,47.94,47.94,0,0,0-26.2-3.4,49.08,49.08,0,0,0-25.3,11.6v-.3a37.33,37.33,0,0,0,14,5.7,53.67,53.67,0,0,0,15.5.7,104.94,104.94,0,0,0,15.7-2.6c2.6-.6,5.2-1.2,7.9-1.8s5.3-1.4,7.3-3.2a7.41,7.41,0,0,0,2.2-3.3,5.79,5.79,0,0,0-.1-3.9,6.87,6.87,0,0,0-2.6-3,12.16,12.16,0,0,0-3.6-1.8,18,18,0,0,0-4-1c-1.4-.2-2.7-.4-4.1-.5a58.89,58.89,0,0,0-8.4-.1,51.87,51.87,0,0,0-16.4,4,27.33,27.33,0,0,0-7.3,4.4c-2.1,1.9-3.9,4.3-4.1,7.2a8.33,8.33,0,0,0,1.2,4.9,11.25,11.25,0,0,0,3.8,3.4,23.16,23.16,0,0,0,9.9,2.6,69.88,69.88,0,0,0,20.4-1.7,83.55,83.55,0,0,0,9.7-3,16,16,0,0,0,2.3-1c.7-.4,1.5-.7,2.3-1.1a23.62,23.62,0,0,0,4.2-2.8,11.53,11.53,0,0,0,3.1-3.8,6.15,6.15,0,0,0,.7-2.3v-1.8l-.1-.6a8.33,8.33,0,0,0-2.5-4.1,15,15,0,0,0-4.4-2.6,24.74,24.74,0,0,0-4.6-1.5,20.48,20.48,0,0,0-2.4-.5c-.8-.1-1.6-.3-2.4-.4a62,62,0,0,0-9.6-.7,53.37,53.37,0,0,0-18.5,3.6c-.7.3-1.4.6-2.2.9a13.55,13.55,0,0,0-2.1,1,23,23,0,0,0-4,2.3,13.88,13.88,0,0,0-3.2,3.2,6,6,0,0,0-.9,4.3,6.4,6.4,0,0,0,2.2,3.7,13,13,0,0,0,3.8,2.2,21.34,21.34,0,0,0,4.3,1.3,14.19,14.19,0,0,0,2.2.5c.8.1,1.4.3,2.2.4a79.55,79.55,0,0,0,34-.8,35.21,35.21,0,0,0,7.7-2.7,11.74,11.74,0,0,0,5.6-5.4,8.22,8.22,0,0,0,.6-3.8,8.49,8.49,0,0,0-1.2-3.7,12.89,12.89,0,0,0-5.5-5.1,42.23,42.23,0,0,0-7-2.7c-2.4-.7-4.7-1.4-7.1-1.9a47.16,47.16,0,0,0-14-1.2,31.57,31.57,0,0,0-12.7,3.7,23,23,0,0,0-9.1,8.4v-.2a38.76,38.76,0,0,0,33.2,3.1,14.77,14.77,0,0,0,6.1-3.7,6.73,6.73,0,0,0,1.6-3,4.68,4.68,0,0,0-.5-3.1,5,5,0,0,0-2.3-2,9.61,9.61,0,0,0-2.8-1.1,12.66,12.66,0,0,0-2.8-.6,24.52,24.52,0,0,0-2.7-.2,36.75,36.75,0,0,0-15.7,2.8c-1.3.5-2.5,1.2-3.7,1.8A4.43,4.43,0,0,1,467.7,30.34Z"></path></g><g id="OBJECTS"><path class="cls-7" d="M518.86,272.26v0l-46.91-8-59.57,17.63-25.45-9.39c-3.54.88-6.71,1.76-9.58,2.65h0s-91.89,14.68-80.82,96l51.35,1.23c1.43,4.41,1.53,3.34,2.56,6l18.39,60.8h150.5l1.4-49.6,45.67,29.39a9,9,0,0,0,13.75-6.69c1.93-21.11,4.26-58.26,4.3-59.22C586.84,285.45,518.86,272.26,518.86,272.26Z"></path><path class="cls-4" d="M352.77,387.08a1,1,0,0,1-1-.75l-9.15-35.65a1,1,0,0,1,1.94-.5l9.15,35.65a1,1,0,0,1-.72,1.22Z"></path><path class="cls-4" d="M528.4,393.54a1,1,0,0,1-.61-.21l-28-21.58a13.88,13.88,0,0,1-6.12-10.17l-2.89-28.34a1,1,0,0,1,.89-1.09,1,1,0,0,1,1.1.89l2.89,28.33a11.9,11.9,0,0,0,5.29,8.75L529,391.75a1,1,0,0,1-.61,1.79Z"></path><path class="cls-8" d="M451.68,177.57h0l-13.87-.48a16.63,16.63,0,0,0-15.54,9.49L425,147.22s-13.87,8-32.08-2.48c0,0-20.94-7-27.5,9.24,0,.17,0,.33-.05.49l-4,58.51c-1.47,21.41,13.15,40.08,33.25,43.43l4.68,23.24c3.45,17.14,20.53,28.3,38,24.79l.72-.15c17.42-3.51,32.31-16.67,28.85-33.82l-13.7-56.88,3.21.11A18.12,18.12,0,0,0,475,196.28l0-1.33a16.64,16.64,0,0,0-16-17.12Z"></path><path class="cls-9" d="M394.85,257.1s35.14-4.18,38.91-17.57h0s4.75,18.68-35.65,35.56Z"></path><path class="cls-4" d="M455.8,224.94a29.2,29.2,0,0,1,2.65-11.09l-15.26-.53Z"></path><path class="cls-4" d="M452.7,136.45s9.51-16.58-15.92-28.56-34.8,10.5-34.8,10.5-3-20.59-33.81-10.62-3.47,48.12-3.47,48.12c.21-.67.44-1.3.68-1.91,6.56-16.19,27.5-9.24,27.5-9.24,18.21,10.51,32.08,2.48,32.08,2.48l-2.38,34.95c-1,7-2.41,16.23-3.4,22.85a6.67,6.67,0,0,1-9.09,5.2l-22-8.88a6.74,6.74,0,0,0-3.32-.43l-17.4,2.16a6.68,6.68,0,0,0-5.84,6.1l-1.3,16.68a31.33,31.33,0,0,0,31.93,33.78l9.71-.22a6.7,6.7,0,0,0,1.94-.34l2.45-.14a35.68,35.68,0,0,0,30.52-50.2h0a6.74,6.74,0,0,1-1.24-4.14l1-25.49a6.76,6.76,0,0,0-.23-2c.5,0,1-.05,1.5,0l13.87.48,7.35.26a16.42,16.42,0,0,1,10.74,4.51c4.41-11.06,8.25-22,9.38-28.73C482.18,135.28,452.7,136.45,452.7,136.45Z"></path><path class="cls-9" d="M460.59,201.7a1,1,0,0,1-.54-.17l-5.8-3.78a1,1,0,0,1-.45-.71,1,1,0,0,1,.25-.79l6.2-6.9a1,1,0,0,1,1.41-.08,1,1,0,0,1,.08,1.42l-5.42,6,4.82,3.15a1,1,0,0,1-.55,1.84Z"></path><path class="cls-4" d="M367.74,183.58a3.77,3.77,0,1,0,4.47-2.89A3.76,3.76,0,0,0,367.74,183.58Z"></path><path class="cls-4" d="M394.78,184.4a3.77,3.77,0,1,0,3.73-3.8A3.77,3.77,0,0,0,394.78,184.4Z"></path><path class="cls-10" d="M402.17,188.57a5.37,5.37,0,0,0-6.65,0"></path><path class="cls-9" d="M395.53,189.59a1,1,0,0,1-.62-1.79,6.33,6.33,0,0,1,7.89,0,1,1,0,0,1,.14,1.41,1,1,0,0,1-1.4.14,4.35,4.35,0,0,0-5.4,0A1,1,0,0,1,395.53,189.59Z"></path><path class="cls-9" d="M367.92,190.47a1,1,0,0,1-.74-.32,1,1,0,0,1,.06-1.42,5.76,5.76,0,0,1,7.52-.49,1,1,0,0,1,.17,1.41,1,1,0,0,1-1.39.17,3.76,3.76,0,0,0-4.94.38A1,1,0,0,1,367.92,190.47Z"></path><path class="cls-2" d="M368.48,196.42c-7,0-12.63-6.49-12.63-14.47s5.67-14.47,12.63-14.47S381.12,174,381.12,182,375.45,196.42,368.48,196.42Zm0-26.94c-5.86,0-10.63,5.6-10.63,12.47s4.77,12.47,10.63,12.47,10.64-5.59,10.64-12.47S374.35,169.48,368.48,169.48Z"></path><path class="cls-8" d="M383.41,175.73v13.08h-6.8a3.17,3.17,0,0,0-3.16,3.17v1.43a6.2,6.2,0,0,0,6.2,6.19h6.19"></path><path class="cls-9" d="M385.84,200.6h-6.19a7.21,7.21,0,0,1-7.2-7.19V192a4.17,4.17,0,0,1,4.16-4.17h5.81V175.73a1,1,0,1,1,2,0v14.08h-7.81a2.17,2.17,0,0,0-2.16,2.17v1.43a5.2,5.2,0,0,0,5.2,5.19h6.19a1,1,0,0,1,0,2Z"></path><path class="cls-2" d="M399,195.51c-7,0-12.63-6.49-12.63-14.47S392,166.57,399,166.57s12.64,6.49,12.64,14.47S405.94,195.51,399,195.51Zm0-26.94c-5.86,0-10.63,5.6-10.63,12.47s4.77,12.47,10.63,12.47,10.64-5.59,10.64-12.47S404.84,168.57,399,168.57Z"></path><path class="cls-4" d="M409.12,167.53a9.55,9.55,0,0,1-3.94-.72c-1.36-.44-2.74-.85-3.94-1.17s-2.61-.63-4-.9a9.76,9.76,0,0,1-3.8-1.29c-.92-.71-1-2.08.62-3.3s5-2.06,9-1,6.54,3.46,7.26,5.26S410.29,167.37,409.12,167.53Z"></path><path class="cls-4" d="M363.11,163.47a6.64,6.64,0,0,0,3.14,0c1.1-.16,2.22-.3,3.19-.37s2.1-.12,3.22-.14a6.63,6.63,0,0,0,3.09-.5c.81-.47,1.06-1.66,0-3a8.13,8.13,0,0,0-6.81-2.38c-3.22.27-5.5,2-6.29,3.42S362.23,163.13,363.11,163.47Z"></path><path class="cls-2" d="M387.34,180.83h-5.16a1,1,0,0,1,0-2h5.16a1,1,0,0,1,0,2Z"></path><path class="cls-2" d="M410.61,180.34a1,1,0,0,1-.1-2l30.62-2.89a1,1,0,1,1,.19,2l-30.62,2.89Z"></path><path class="cls-9" d="M387.88,213.39l.11,0,11.69,2.76a1,1,0,0,1,.74,1.2,1,1,0,0,1-1.19.75h0l-11.69-2.75a7.27,7.27,0,0,0-8.16,3.9l-1.8-.87A9.28,9.28,0,0,1,387.88,213.39Z"></path><path class="cls-2" d="M395,261.14l-15.38,13.3,2.29,31.45a1.94,1.94,0,0,0,3.23,1.31L413.46,282Z"></path><path class="cls-2" d="M462.51,252.81l-50.32,29,20.2,33.92a3,3,0,0,0,4.46.75l48.94-41.45Z"></path><polygon class="cls-4" points="389.01 303.78 402.32 330.85 431.15 313.67 412.69 282.68 389.01 303.78"></polygon><path class="cls-4" d="M234.48,165l-31.13.22H162.7l.09-15.08a32.11,32.11,0,0,0-.51-5.92c-5.43-29.8-49.06-30-54.8-.24a32,32,0,0,0-.58,6.07v18.12h0l.08,13.51c.07,14.29-9.14,26.5-21.11,29.15a18,18,0,0,0,2.88.14c2.2.06,4,0,4,0l116.12.15c14.3-.1,25.82-13.28,25.73-29.45Z"></path><path class="cls-2" d="M328.9,164.79a43.07,43.07,0,0,0-28.06-40.37,31.68,31.68,0,0,0-13-2.87l-96.54.12v0H138.7c-.7,0-1.4,0-2.09.08h-1.79v.06l.4.06a31.79,31.79,0,0,1,27.51,29.61h0v300a26.52,26.52,0,0,0,26.66,26.38H328.85v-121h0Z"></path><path class="cls-4" d="M304.75,283.44H191.49a1,1,0,0,1,0-2H304.75a1,1,0,0,1,0,2Z"></path><path class="cls-4" d="M270.61,267.44H222.9a1,1,0,0,1,0-2h47.71a1,1,0,0,1,0,2Z"></path><path class="cls-4" d="M304.75,306.93H191.49a1,1,0,0,1,0-2H304.75a1,1,0,0,1,0,2Z"></path><path class="cls-4" d="M304.75,330.41H191.49a1,1,0,0,1,0-2H304.75a1,1,0,0,1,0,2Z"></path><path class="cls-4" d="M304.75,352.39H191.49a1,1,0,0,1,0-2H304.75a1,1,0,0,1,0,2Z"></path><path class="cls-11" d="M242.93,157.52h0a3.88,3.88,0,0,0-7.57,1.19h0a3.88,3.88,0,0,1-7,2.29h0a3.88,3.88,0,0,0-6.83,3.48h0a3.87,3.87,0,0,1-6,4.33h0a3.88,3.88,0,0,0-5.42,5.42h0a3.88,3.88,0,0,1-4.34,6h0A3.87,3.87,0,0,0,202.3,187h0a3.88,3.88,0,0,1-2.28,7h0a3.87,3.87,0,0,0-1.2,7.56h0a3.88,3.88,0,0,1,0,7.39h0a3.88,3.88,0,0,0,1.2,7.57h0a3.87,3.87,0,0,1,2.28,7h0a3.88,3.88,0,0,0,3.48,6.83h0a3.88,3.88,0,0,1,4.34,6h0a3.88,3.88,0,0,0,5.42,5.42h0a3.88,3.88,0,0,1,6,4.34h0a3.88,3.88,0,0,0,6.83,3.48h0a3.88,3.88,0,0,1,7,2.28h0a3.88,3.88,0,0,0,7.57,1.2h0a3.87,3.87,0,0,1,7.38,0h0a3.88,3.88,0,0,0,7.57-1.2h0a3.88,3.88,0,0,1,7-2.28h0a3.88,3.88,0,0,0,6.83-3.48h0a3.88,3.88,0,0,1,6-4.34h0a3.88,3.88,0,0,0,5.42-5.42h0a3.88,3.88,0,0,1,4.34-6h0a3.88,3.88,0,0,0,3.48-6.83h0a3.87,3.87,0,0,1,2.28-7h0a3.88,3.88,0,0,0,1.2-7.57h0a3.88,3.88,0,0,1,0-7.39h0a3.87,3.87,0,0,0-1.2-7.56h0a3.88,3.88,0,0,1-2.28-7h0a3.87,3.87,0,0,0-3.48-6.82h0a3.88,3.88,0,0,1-4.34-6h0a3.88,3.88,0,0,0-5.42-5.42h0a3.87,3.87,0,0,1-6-4.33h0A3.88,3.88,0,0,0,264.9,161h0a3.88,3.88,0,0,1-7-2.29h0a3.88,3.88,0,0,0-7.57-1.19h0A3.87,3.87,0,0,1,242.93,157.52Z"></path><path class="cls-4" d="M264.44,235.78H228.79a7.58,7.58,0,0,1-7.57-7.57V200a7.58,7.58,0,0,1,7.57-7.57h35.65A7.58,7.58,0,0,1,272,200v28.18A7.57,7.57,0,0,1,264.44,235.78Zm-35.65-40.32a4.58,4.58,0,0,0-4.57,4.57v28.18a4.58,4.58,0,0,0,4.57,4.57h35.65a4.58,4.58,0,0,0,4.57-4.57V200a4.58,4.58,0,0,0-4.57-4.57Z"></path><path class="cls-4" d="M263.56,195.46a1.5,1.5,0,0,1-1.5-1.5v-8.19c0-5.47-5-9.92-11.24-9.92h-8.4c-6.2,0-11.24,4.45-11.24,9.92V194a1.5,1.5,0,0,1-3,0v-8.19c0-7.12,6.39-12.92,14.24-12.92h8.4c7.85,0,14.24,5.8,14.24,12.92V194A1.5,1.5,0,0,1,263.56,195.46Z"></path><path class="cls-4" d="M255.67,209.7a8.79,8.79,0,0,0-17.54-.32,8.18,8.18,0,0,0,3.34,6.88,1.77,1.77,0,0,1,.74,1.41V220a1.82,1.82,0,0,0,1.87,1.77h5.63a1.82,1.82,0,0,0,1.87-1.77v-2.29a1.79,1.79,0,0,1,.73-1.41A8.18,8.18,0,0,0,255.67,209.7Z"></path><path class="cls-4" d="M248.75,224.88a1.86,1.86,0,1,1-1.86-1.85A1.86,1.86,0,0,1,248.75,224.88Z"></path><path class="cls-11" d="M246.89,227a2.11,2.11,0,1,1,2.11-2.11A2.1,2.1,0,0,1,246.89,227Zm0-3.71a1.61,1.61,0,1,0,1.61,1.6A1.6,1.6,0,0,0,246.89,223.28Z"></path><rect class="cls-4" x="243.45" y="222.22" width="6.88" height="1.55" rx="0.68"></rect><path class="cls-11" d="M249.66,224h-5.53a.93.93,0,0,1-.93-.93v-.19a.93.93,0,0,1,.93-.93h5.53a.93.93,0,0,1,.93.93v.19A.93.93,0,0,1,249.66,224Zm-5.53-1.55a.43.43,0,0,0-.43.43v.19a.43.43,0,0,0,.43.43h5.53a.43.43,0,0,0,.43-.43v-.19a.43.43,0,0,0-.43-.43Z"></path><rect class="cls-4" x="243.87" y="223.77" width="6.04" height="1.35" rx="0.59"></rect><path class="cls-11" d="M249.32,225.37h-4.86a.85.85,0,0,1-.84-.84v-.17a.84.84,0,0,1,.84-.84h4.86a.84.84,0,0,1,.85.84v.17A.85.85,0,0,1,249.32,225.37ZM244.46,224a.34.34,0,0,0-.34.34v.17a.34.34,0,0,0,.34.34h4.86a.35.35,0,0,0,.35-.34v-.17a.35.35,0,0,0-.35-.34Z"></path><path class="cls-11" d="M240.81,211.71a.38.38,0,0,1-.36-.27,5.92,5.92,0,0,1,2.11-6.28.37.37,0,1,1,.43.61,5.06,5.06,0,0,0-1.82,5.47.37.37,0,0,1-.26.46Z"></path><path class="cls-4" d="M198.92,170a1,1,0,0,1-.62-.22l-9.44-7.51a1,1,0,0,1-.15-1.41,1,1,0,0,1,1.4-.15l9.44,7.51a1,1,0,0,1,.16,1.41A1,1,0,0,1,198.92,170Z"></path><path class="cls-4" d="M178.26,205.77a1,1,0,0,1-.23-2L189.78,201a1,1,0,1,1,.45,2l-11.74,2.75A.91.91,0,0,1,178.26,205.77Z"></path><path class="cls-4" d="M191.66,186.76a1.24,1.24,0,0,1-.27,0l-11.62-3.22a1,1,0,0,1-.7-1.23,1,1,0,0,1,1.23-.7l11.63,3.22a1,1,0,0,1-.27,2Z"></path><path class="cls-4" d="M301.93,204.88a1,1,0,0,1-.08-2l12-1a1,1,0,1,1,.16,2l-12,1Z"></path><path class="cls-4" d="M300.42,186.76a1,1,0,0,1-.27-2l11.63-3.22a1,1,0,0,1,1.23.7,1,1,0,0,1-.7,1.23l-11.62,3.22A1.24,1.24,0,0,1,300.42,186.76Z"></path><path class="cls-4" d="M309.59,224.81a.92.92,0,0,1-.46-.11l-10.71-5.56a1,1,0,0,1-.42-1.35,1,1,0,0,1,1.34-.42l10.71,5.56a1,1,0,0,1,.42,1.35A1,1,0,0,1,309.59,224.81Z"></path><path class="cls-4" d="M295.67,170.53a14.17,14.17,0,0,1-14.14,14.19,14.14,14.14,0,1,1,14.14-14.19Zm-25.23.09a11.07,11.07,0,0,0,11.08,11.18,11.22,11.22,0,1,0-11.08-11.18Zm15.81-2.91h0a1.89,1.89,0,0,1-2.49.42,3.21,3.21,0,0,0-1.77-.63,3,3,0,0,0,0,6,3.69,3.69,0,0,0,1.84-.6,1.8,1.8,0,0,1,2.25.32l0,.05a1.8,1.8,0,0,1-.29,2.75,7.75,7.75,0,0,1-4.09,1.26,6.6,6.6,0,0,1-6.95-6.73c0-3.87,3-6.7,7.11-6.7a8,8,0,0,1,4,1.14A1.8,1.8,0,0,1,286.25,167.71Z"></path><path class="cls-12" d="M280.31,399.76V444A31.67,31.67,0,0,0,312,475.62h5.88a38.06,38.06,0,0,0,38.06-38.06h0a26.78,26.78,0,0,1,26.79-26.78h11a22.65,22.65,0,0,1,7.21,1.17v-1.17h.26V394.16a21.44,21.44,0,0,0-21.44-21.44H254.48v0A27,27,0,0,1,280.31,399.76Z"></path><path class="cls-13" d="M547.87,449.28l-.23-17.07a21.43,21.43,0,0,0-21.44-21.43H400.93V412a22.77,22.77,0,0,1,15.57,21.61v10.76a33.55,33.55,0,0,0,33.55,33.55H571.71A29.55,29.55,0,0,1,547.87,449.28Z"></path><path class="cls-4" d="M162.64,451.71a23.87,23.87,0,0,0,.54,5,27.45,27.45,0,0,1-.47-5.26Z"></path><path class="cls-4" d="M416.5,444.32V433.56a22.78,22.78,0,0,0-22.78-22.78h-11a26.78,26.78,0,0,0-26.79,26.78h0a38.06,38.06,0,0,1-38.06,38.06H312A31.67,31.67,0,0,1,280.31,444V399.76a27,27,0,0,0-25.83-27c-.4,0-.8,0-1.21,0h0a33,33,0,0,0-33,33V442a33.68,33.68,0,0,1-33.68,33.67h0a23.91,23.91,0,0,1-23.37-18.87c2.3,12.31,12.84,21.12,26,21.12H450.05A33.55,33.55,0,0,1,416.5,444.32Z"></path><path class="cls-10" d="M193.46,318.47c-4.74-10.15-15.57-2.7-22.63.89-3.2,2-6.15,3.7-8.91,5.31.54-3.81,1.07-7.66.26-11.5a4.53,4.53,0,0,0-1.87-3.19,2.94,2.94,0,0,0-2.68,0,7.43,7.43,0,0,0-2.07,1.76c-5.71,6.3-18.51,27.91-18.51,27.91a57.65,57.65,0,0,0-4.82,16.75c-2.21,16.69,13,31.95,29,28.64a12.47,12.47,0,0,0,4.95-2l26.89-19.3c5.14-3.28,5.71-11.47.93-11.55,4.57-1.36,9-4.58,6.36-10.29-1.1-3.3-3.65-3.79-6.37-3.36,4.14-1.36,7.87-3.52,6-8.4-1.27-5.54-5.75-5.72-9.94-4.73C192.76,324.18,194.82,322.11,193.46,318.47Z"></path><path class="cls-9" d="M150.37,332.42a1,1,0,0,1-.5-1.86l14.54-8.47a1,1,0,0,1,1.36.36,1,1,0,0,1-.36,1.37l-14.53,8.47A1,1,0,0,1,150.37,332.42Z"></path><path class="cls-9" d="M179.57,332.42a1,1,0,0,1-.86-.48,1,1,0,0,1,.34-1.37c1-.62,10-6,11.87-6.52a1,1,0,0,1,1.23.71,1,1,0,0,1-.7,1.22c-1.23.34-7.63,4-11.37,6.3A1,1,0,0,1,179.57,332.42Z"></path><path class="cls-9" d="M185,345.05a1,1,0,0,1-.5-1.87l9.14-5.29a1,1,0,0,1,1,1.73l-9.15,5.3A1,1,0,0,1,185,345.05Z"></path><path class="cls-9" d="M187.69,356.88a1,1,0,0,1-.48-1.88l5-2.74a1,1,0,1,1,1,1.75l-5,2.75A1,1,0,0,1,187.69,356.88Z"></path><path class="cls-9" d="M375.84,263.22l6.14,5.26a3.83,3.83,0,0,1,.29,5.41l-5.51,6.43a3.84,3.84,0,0,1-5.4.53l-6.13-5.25a3.84,3.84,0,0,1-.29-5.42l5.51-6.42A3.83,3.83,0,0,1,375.84,263.22Z"></path><rect class="cls-11" x="301.71" y="297.19" width="87.36" height="15.57" transform="matrix(0.65, -0.76, 0.76, 0.65, -110.96, 368.61)"></rect><path class="cls-8" d="M311.15,333.16l11.6,9.95c.05,0,.23.2,0,.17l-18.23,9.4h0L311,333.23A.11.11,0,0,1,311.15,333.16Z"></path><path class="cls-14" d="M306.89,345.71l4.15,3.56s.08.07,0,.06l-6.52,3.37h0l2.33-7A0,0,0,0,1,306.89,345.71Z"></path><path class="cls-2" d="M363.71,289.12a.49.49,0,0,1-.37-.82l8.18-9.54a.49.49,0,0,1,.7-.06.51.51,0,0,1,.06.71L364.09,289A.49.49,0,0,1,363.71,289.12Z"></path><path class="cls-2" d="M343.62,303.06a.52.52,0,0,1-.33-.12.5.5,0,0,1-.05-.7l23.59-27.5a.49.49,0,0,1,.7-.06.51.51,0,0,1,.06.71L344,302.89A.52.52,0,0,1,343.62,303.06Z"></path><path class="cls-8" d="M519.6,382.54,418.69,315.8,395.3,297.47a44.05,44.05,0,0,0-22.68-9.15l-26.8-2.74a20,20,0,0,0-11.16,2.11l-12.72,6.55a5.71,5.71,0,0,0-3.09,5.46l.1,1.5-1,.46a7.68,7.68,0,0,0-4.37,6.95l0,5.26-.88,2.06a7.92,7.92,0,0,0,1.37,8.37l19.76,22.16a3.11,3.11,0,0,0,4.57.09A8.9,8.9,0,0,0,339,334.8l-6.11-7.59,20.46,12.11a24.62,24.62,0,0,0,11.06,3.4l12.62.77L390,358.39l78.26,94.42a55,55,0,0,0,33.76,17.29c24.92,3.08,48.62-11.77,57.79-35.15L567,419.28Z"></path><path class="cls-9" d="M319.28,302.66a1,1,0,0,1-.3-2l15.2-4.85a1,1,0,0,1,1.26.65,1,1,0,0,1-.65,1.25l-15.2,4.86A1.1,1.1,0,0,1,319.28,302.66Z"></path><path class="cls-9" d="M314.22,314.73a1,1,0,0,1-1-.76,1,1,0,0,1,.72-1.21l18.9-4.81a1,1,0,1,1,.49,1.94l-18.9,4.8A.67.67,0,0,1,314.22,314.73Z"></path><path class="cls-9" d="M332.84,328.21a1,1,0,0,1-.74-.33l-3.81-4.26a1,1,0,1,1,1.49-1.33l3.81,4.25a1,1,0,0,1-.08,1.42A1,1,0,0,1,332.84,328.21Z"></path><path class="cls-9" d="M377,344.5a1,1,0,0,1-1-1,1,1,0,0,1,1-1l14.9-.59a1,1,0,0,1,.08,2l-14.9.58Z"></path></g></g></svg>