<svg xmlns="http://www.w3.org/2000/svg" viewBox="0 0 286.68 286.59"><defs><style>.cls-1{fill:#fdeccc;}.cls-2{fill:#15100c;}.cls-3{fill:#cf2027;}.cls-4{fill:#fcebcc;}.cls-5{fill:#140f0c;}.cls-6{fill:#16110d;}.cls-7{fill:#130e0c;}.cls-8{fill:#feedcc;}.cls-9{fill:#f8e7cc;}</style></defs><g id="Layer_2" data-name="Layer 2"><g id="content"><g id="illustration"><path class="cls-1" d="M233.09,202.35l-.45-.78,52.53-30.38a1.17,1.17,0,0,0,.6-1,1.19,1.19,0,0,0-.6-1l-81.52-46.62.45-.79,81.52,46.63a2.1,2.1,0,0,1,0,3.65Z"></path><path class="cls-2" d="M233.09,201.34l-.45-.78,52.53-30.38a1.2,1.2,0,0,0,0-2.08l-81.52-46.62.45-.79,81.52,46.63a2.09,2.09,0,0,1,0,3.64Z"></path><path class="cls-3" d="M279.74,153.91V147l-11.47-.26L263.75,144a3.51,3.51,0,0,0-3.15.1l-4.1,2.32-10.88-.25v7a.92.92,0,0,0,.53.78l15.46,9.14a3.51,3.51,0,0,0,3.15-.09l14.2-8A1.25,1.25,0,0,0,279.74,153.91Z"></path><path class="cls-4" d="M265.13,145.11l-2.82,1.59-5.59-.13-.22.13-5.07-.12v6.84a.94.94,0,0,0,.53.78L266,162.53,279,155.24c.54-.3.8-.69.78-1.06v-7L268.27,147Z"></path><path class="cls-5" d="M263,163.86a3.29,3.29,0,0,1-1.64-.39l-15.46-9.14a1.4,1.4,0,0,1-.76-1.16v-7a.47.47,0,0,1,.49-.47l10.73.24,4-2.25a3.92,3.92,0,0,1,3.6-.09l4.42,2.61,11.44.26a.36.36,0,0,1,.35.36v7a1.67,1.67,0,0,1-1,1.47l-14.21,8A4.09,4.09,0,0,1,263,163.86Zm-16.95-17.21v6.51c0,.18.19.32.31.39l15.46,9.14A2.33,2.33,0,0,0,263,163l0-8.57,12.44-5.29,3.86-1.7-11.14-.25-4.63-2.74a3.1,3.1,0,0,0-2.7.1l-4.21,2.38Z"></path><path class="cls-3" d="M261.61,156.08l-15.46-9.14c-.8-.47-.69-1.28.24-1.81l14.21-8a3.51,3.51,0,0,1,3.15-.09l15.46,9.14c.8.47.69,1.28-.25,1.81l-14.2,8A3.51,3.51,0,0,1,261.61,156.08Z"></path><path class="cls-1" d="M260.68,139.13l-14.21,8a2,2,0,0,0-.32.21l15.39,9.1a3.49,3.49,0,0,0,3.14-.09l14.21-8a2,2,0,0,0,.32-.22L263.82,139A3.49,3.49,0,0,0,260.68,139.13Z"></path><path class="cls-5" d="M263,156.86a3.19,3.19,0,0,1-1.64-.39h0l-15.46-9.14a1.38,1.38,0,0,1-.76-1.19,1.73,1.73,0,0,1,1-1.4l14.21-8a3.92,3.92,0,0,1,3.6-.09l15.46,9.14a1.35,1.35,0,0,1,.75,1.19,1.69,1.69,0,0,1-1,1.4l-14.2,8A4.09,4.09,0,0,1,263,156.86Zm-1.18-1.16a3,3,0,0,0,2.69-.11l14.21-8c.41-.23.55-.48.55-.63s-.19-.33-.31-.4l-15.46-9.15a3.07,3.07,0,0,0-2.7.11l-14.21,8c-.4.23-.54.48-.54.63s.19.33.31.4Z"></path><path class="cls-3" d="M262.1,152.23l-9.47-5.61c-.49-.29-.42-.78.15-1.11l8.71-4.9a2.14,2.14,0,0,1,1.92-.06l9.48,5.6c.49.29.42.79-.15,1.11L264,152.17A2.16,2.16,0,0,1,262.1,152.23Z"></path><path class="cls-4" d="M261.49,145.78l-5.41,3,6,3.57a2.16,2.16,0,0,0,1.93-.06l5.41-3.05-6-3.56A2.11,2.11,0,0,0,261.49,145.78Z"></path><path class="cls-5" d="M263,152.88a2.19,2.19,0,0,1-1.1-.27L252.4,147a1,1,0,0,1-.55-.88,1.23,1.23,0,0,1,.71-1l8.71-4.9a2.52,2.52,0,0,1,2.37-.06l9.48,5.6a1,1,0,0,1,.55.88,1.25,1.25,0,0,1-.71,1l-8.71,4.91A2.7,2.7,0,0,1,263,152.88Zm-.41-12.08a1.84,1.84,0,0,0-.85.2L253,145.91a.51.51,0,0,0-.25.23.28.28,0,0,0,.11.09l9.48,5.61a1.67,1.67,0,0,0,1.47-.07l8.7-4.9c.21-.12.25-.22.25-.24s0,0-.1-.09l-9.48-5.6A1.19,1.19,0,0,0,262.56,140.8Z"></path><path class="cls-3" d="M252.63,146.64l1.58.94,7.28-4.1a2.11,2.11,0,0,1,1.92-.06l7.9,4.66,1.43-.8c.57-.32.64-.82.15-1.11l-9.48-5.6a2.11,2.11,0,0,0-1.92.06l-8.71,4.9C252.21,145.85,252.14,146.35,252.63,146.64Z"></path><path class="cls-5" d="M271.3,148.61l-8.12-4.8a1.7,1.7,0,0,0-1.47.06l-7.5,4.23L252.4,147a1,1,0,0,1-.55-.88,1.23,1.23,0,0,1,.71-1l8.71-4.91a2.55,2.55,0,0,1,2.37,0l9.48,5.6a1,1,0,0,1,.55.88,1.25,1.25,0,0,1-.71,1Zm-8.74-5.85a2.11,2.11,0,0,1,1.08.27l7.67,4.53,1.2-.67c.21-.12.25-.22.25-.24s0-.05-.1-.09l-9.48-5.6a1.19,1.19,0,0,0-.62-.14Z"></path><path class="cls-2" d="M268.78,122.57l-6-11.28s-.06,0-.06,0v14.75a0,0,0,0,0,.05,0l6-3.47A0,0,0,0,0,268.78,122.57Z"></path><path class="cls-6" d="M262.81,126.61l-.48-.27,0-.28.16-14.86.55-.45.2.33,6.07,11.55L269,123Zm.4-13.61v12.33l5-2.91Z"></path><path class="cls-3" d="M256.74,122.57l6-11.28a0,0,0,0,1,.06,0v14.75a0,0,0,0,1-.05,0l-6-3.47S256.73,122.58,256.74,122.57Z"></path><path class="cls-4" d="M258.37,123.6l4.26,2.48a0,0,0,0,0,.05,0V115.45Z"></path><path class="cls-6" d="M262.74,126.61l-.26-.14-6.26-3.8.12-.31h0l6.42-12.14.52,1-.07.11v15Zm-5.41-4.19,5,2.91V113Z"></path><path class="cls-2" d="M268.72,122.72l-5.9,9.06s-.06,0-.06,0v-5.63s0,0,0,0l5.9-3.44S268.74,122.69,268.72,122.72Z"></path><path class="cls-6" d="M262.76,132.65l-.16-1.05-.29.17v-5.88l.22-.16,6.23-3.63.53.53-.19.33Zm.45-6.27v4l4.17-6.4Z"></path><path class="cls-3" d="M256.8,122.72l5.9,9.06s.06,0,.06,0v-5.63s0,0,0,0l-5.9-3.44S256.78,122.69,256.8,122.72Z"></path><path class="cls-6" d="M262.76,132.65l-.44-.62-6.1-9.36.5-.56.35.17,6.13,3.57v.29l-.18,5.17Zm-4.62-8.7,4.17,6.4v-4Z"></path><polygon class="cls-3" points="263.03 126.33 263.03 125.56 268.24 122.53 268.24 123.3 263.03 126.33"></polygon><path class="cls-4" d="M40.87,206.56,1.12,183.4a2.26,2.26,0,0,1,0-3.91L22,167.58l.45.78L1.58,180.28a1.34,1.34,0,0,0-.68,1.17,1.32,1.32,0,0,0,.68,1.17l39.74,23.16Z"></path><path class="cls-7" d="M40.87,205.62,1.12,182.47a2.26,2.26,0,0,1-1.12-2,2.22,2.22,0,0,1,1.14-1.95L22,166.64l.45.78L1.58,179.34a1.36,1.36,0,0,0,0,2.35l39.74,23.15Z"></path><path class="cls-3" d="M47.86,163.36l-.08-25.11-34.08-.67.08,24.82a.85.85,0,0,0,.49,1l15.46,9.14a3.51,3.51,0,0,0,3.15-.1l14.2-8C47.64,164.15,47.9,163.74,47.86,163.36Z"></path><path class="cls-1" d="M19.34,137.75,19.41,161a1.18,1.18,0,0,0,.58,1.08l15.35,9.08,11.74-6.62c.55-.31.82-.72.77-1.11l-.08-25.1Z"></path><path class="cls-2" d="M31.14,173.35A3.32,3.32,0,0,1,29.5,173L14,163.82a1.61,1.61,0,0,1-.72-1.48l-.08-25.22,34.66.68a.35.35,0,0,1,.33.34l.08,25.19a1.69,1.69,0,0,1-1,1.53l-14.21,8A4.09,4.09,0,0,1,31.14,173.35ZM14.15,138l.08,24.43,0,.07a.49.49,0,0,0,.29.5L30,172.18a2.45,2.45,0,0,0,1.28.27V146.11l8.06-5.42,8-2Z"></path><path class="cls-3" d="M29.66,147.28l-15.47-9.15c-.8-.47-.69-1.28.25-1.81l14.21-8a3.49,3.49,0,0,1,3.14-.09l15.46,9.14c.8.48.69,1.29-.24,1.81l-14.21,8A3.49,3.49,0,0,1,29.66,147.28Z"></path><path class="cls-2" d="M31.06,148.06a3.25,3.25,0,0,1-1.63-.39L14,138.52a1.35,1.35,0,0,1-.75-1.19,1.71,1.71,0,0,1,1-1.4l14.21-8a3.9,3.9,0,0,1,3.59-.09L47.48,137a1.36,1.36,0,0,1,.76,1.19,1.73,1.73,0,0,1-1,1.41l-14.21,8A4.1,4.1,0,0,1,31.06,148.06Zm-.67-19.72a3.11,3.11,0,0,0-1.52.37l-14.21,8c-.4.23-.55.48-.55.63s.2.33.31.4l15.47,9.15a3.08,3.08,0,0,0,2.69-.1l14.21-8c.4-.23.55-.47.55-.63s-.2-.33-.32-.4l-15.46-9.14A2.33,2.33,0,0,0,30.39,128.34Z"></path><path class="cls-3" d="M47.87,134.06v-7l-11.47-.26-4.53-2.68a3.49,3.49,0,0,0-3.14.1l-4.11,2.31-10.88-.24v7a1,1,0,0,0,.53.78l15.47,9.14a3.49,3.49,0,0,0,3.14-.1l14.21-8C47.62,134.82,47.89,134.43,47.87,134.06Z"></path><path class="cls-4" d="M33.26,125.25l-2.82,1.59-5.59-.12-.23.12-5.06-.11v6.84a.92.92,0,0,0,.53.78l14.07,8.32,12.93-7.28a1.27,1.27,0,0,0,.78-1.07v-6.95l-11.47-.26Z"></path><path class="cls-2" d="M31.14,144a3.25,3.25,0,0,1-1.63-.39L14,134.47a1.35,1.35,0,0,1-.75-1.16v-7a.48.48,0,0,1,.49-.48l10.73.25,4-2.26a4,4,0,0,1,3.59-.09l4.43,2.62,11.43.26a.36.36,0,0,1,.36.36v7a1.69,1.69,0,0,1-1,1.47l-14.21,8A4.09,4.09,0,0,1,31.14,144Zm-17-17.21v6.51c0,.18.2.32.32.39L30,142.84a2.31,2.31,0,0,0,1.16.27l0-8.58,12.44-5.29,3.86-1.69-11.14-.25-4.63-2.74a3,3,0,0,0-2.69.1L24.73,127Z"></path><path class="cls-3" d="M29.74,136.23l-15.47-9.14c-.8-.48-.69-1.29.25-1.82l14.21-8a3.49,3.49,0,0,1,3.14-.1l15.46,9.14c.8.48.69,1.29-.24,1.82l-14.21,8A3.49,3.49,0,0,1,29.74,136.23Z"></path><path class="cls-1" d="M28.8,119.28l-14.21,8a2.57,2.57,0,0,0-.32.22l15.39,9.1a3.51,3.51,0,0,0,3.15-.1l14.2-8a3,3,0,0,0,.32-.22L32,119.18A3.51,3.51,0,0,0,28.8,119.28Z"></path><path class="cls-2" d="M31.14,137a3.25,3.25,0,0,1-1.63-.39h0L14,127.48a1.38,1.38,0,0,1-.75-1.19,1.71,1.71,0,0,1,1-1.41l14.21-8a3.93,3.93,0,0,1,3.59-.1l15.46,9.15a1.34,1.34,0,0,1,.76,1.18,1.73,1.73,0,0,1-1,1.41l-14.21,8A4.09,4.09,0,0,1,31.14,137ZM30,135.84a3,3,0,0,0,2.69-.1l14.21-8c.4-.22.55-.47.55-.63s-.2-.33-.32-.4l-15.46-9.14a3,3,0,0,0-2.69.1l-14.21,8c-.4.23-.55.47-.55.63s.2.33.31.4Z"></path><path class="cls-3" d="M30.23,132.37l-9.47-5.6c-.49-.29-.43-.79.15-1.11l8.7-4.91a2.16,2.16,0,0,1,1.93-.06L41,126.3c.49.29.42.78-.15,1.11l-8.7,4.9A2.16,2.16,0,0,1,30.23,132.37Z"></path><path class="cls-4" d="M29.61,125.92l-5.41,3,6,3.56a2.16,2.16,0,0,0,1.93-.06l5.4-3.05-6-3.56A2.16,2.16,0,0,0,29.61,125.92Z"></path><path class="cls-2" d="M31.09,133a2.15,2.15,0,0,1-1.09-.27l-9.47-5.6a1,1,0,0,1-.55-.88,1.21,1.21,0,0,1,.71-1l8.7-4.91a2.57,2.57,0,0,1,2.38,0l9.47,5.6a1,1,0,0,1,.55.88,1.21,1.21,0,0,1-.71,1l-8.7,4.9A2.61,2.61,0,0,1,31.09,133Zm-.41-12.09a1.76,1.76,0,0,0-.85.21l-8.7,4.9c-.2.12-.25.22-.25.24s0,0,.11.09l9.47,5.6a1.7,1.7,0,0,0,1.47-.06L40.64,127c.2-.11.25-.21.25-.23a.28.28,0,0,0-.11-.09l-9.47-5.61A1.33,1.33,0,0,0,30.68,120.94Z"></path><path class="cls-3" d="M20.76,126.79l1.58.93,7.27-4.1a2.16,2.16,0,0,1,1.93-.06l7.89,4.67,1.43-.81c.57-.32.64-.82.15-1.11l-9.47-5.6a2.16,2.16,0,0,0-1.93.06l-8.7,4.91C20.33,126,20.27,126.5,20.76,126.79Z"></path><path class="cls-2" d="M39.43,128.75,31.31,124a1.69,1.69,0,0,0-1.48.07l-7.5,4.22-1.8-1.06a1,1,0,0,1-.55-.88,1.21,1.21,0,0,1,.71-1l8.7-4.9a2.57,2.57,0,0,1,2.38-.06l9.47,5.61a1,1,0,0,1,.55.88,1.21,1.21,0,0,1-.71,1Zm-8.74-5.85a2.22,2.22,0,0,1,1.08.27l7.67,4.54,1.2-.68c.2-.11.25-.21.25-.23a.36.36,0,0,0-.11-.1l-9.47-5.6a1.33,1.33,0,0,0-.63-.14Z"></path><path class="cls-2" d="M37,101.35,31,90.08a0,0,0,0,0-.06,0v14.75a0,0,0,0,0,.05,0l6-3.48A0,0,0,0,0,37,101.35Z"></path><path class="cls-6" d="M31,105.39l-.48-.26,0-.29L30.66,90l.55-.44.2.33,6.08,11.54-.3.37Zm.41-13.61v12.33l5-2.91Z"></path><path class="cls-3" d="M24.93,101.35l6-11.27s.06,0,.06,0v14.75s0,0,0,0l-6-3.48S24.92,101.36,24.93,101.35Z"></path><path class="cls-4" d="M26.56,102.38l4.26,2.49a0,0,0,0,0,.05,0V94.23Z"></path><path class="cls-6" d="M30.94,105.39l-.26-.13-6.26-3.81.11-.31h0L31,89l.52,1-.06.11v15Zm-5.42-4.18,5,2.9V91.78Z"></path><path class="cls-2" d="M36.92,101.5,31,110.57s-.06,0-.06,0v-5.63a0,0,0,0,1,0,0l5.9-3.45S36.94,101.47,36.92,101.5Z"></path><path class="cls-6" d="M31,111.43l-.16-1.05-.29.17v-5.87l.23-.17L37,100.88l.53.53-.19.34Zm.46-6.27v4l4.16-6.41Z"></path><path class="cls-3" d="M25,101.5l5.9,9.07a0,0,0,0,0,.06,0v-5.63s0,0,0,0L25,101.45S25,101.47,25,101.5Z"></path><path class="cls-6" d="M31,111.43l-.43-.62-6.1-9.36.49-.56.35.17,6.13,3.58,0,.28-.19,5.18Zm-4.62-8.7,4.17,6.41v-4Z"></path><polygon class="cls-3" points="31.22 105.11 31.22 104.34 36.43 101.31 36.43 102.08 31.22 105.11"></polygon><path class="cls-3" d="M203.07,84.39l-.07-36-34.09-.68L169,83.43a.87.87,0,0,0,.49,1L185,93.6a3.49,3.49,0,0,0,3.14-.1l14.21-8C202.86,85.18,203.12,84.77,203.07,84.39Z"></path><path class="cls-1" d="M174.56,47.84,174.63,82a1.15,1.15,0,0,0,.57,1.08l15.35,9.08,11.74-6.62c.56-.31.82-.72.77-1.11l-.07-36Z"></path><path class="cls-2" d="M186.35,94.38a3.25,3.25,0,0,1-1.63-.39l-15.47-9.14a1.59,1.59,0,0,1-.71-1.48l-.08-36.16,34.65.69a.34.34,0,0,1,.34.33l.07,36.13a1.65,1.65,0,0,1-1,1.53l-14.21,8A4.09,4.09,0,0,1,186.35,94.38Zm-17-46.24.07,35.36,0,.07a.5.5,0,0,0,.3.5l15.46,9.14a2.43,2.43,0,0,0,1.28.27V56.2l8-5.42,8-2Z"></path><path class="cls-3" d="M184.87,57.37l-15.46-9.14c-.8-.48-.69-1.29.24-1.81l14.21-8a3.51,3.51,0,0,1,3.15-.1l15.46,9.15c.8.47.69,1.28-.25,1.81l-14.21,8A3.46,3.46,0,0,1,184.87,57.37Z"></path><path class="cls-2" d="M186.28,58.15a3.29,3.29,0,0,1-1.64-.39l-15.46-9.14a1.4,1.4,0,0,1-.76-1.19,1.75,1.75,0,0,1,1-1.41l14.21-8a4,4,0,0,1,3.6-.1l15.46,9.15a1.38,1.38,0,0,1,.76,1.19,1.74,1.74,0,0,1-1,1.4l-14.2,8A4.09,4.09,0,0,1,186.28,58.15Zm-.67-19.72a3.29,3.29,0,0,0-1.53.37l-14.21,8c-.4.23-.54.47-.55.63s.2.33.32.4L185.1,57a3,3,0,0,0,2.69-.1l14.21-8c.4-.22.55-.47.55-.62s-.19-.33-.31-.4L186.78,38.7A2.38,2.38,0,0,0,185.61,38.43Z"></path><path class="cls-3" d="M203.08,44.15V37.2l-11.47-.26-4.52-2.68a3.54,3.54,0,0,0-3.15.1l-4.1,2.32L169,36.43v7a1,1,0,0,0,.54.78L185,53.32a3.51,3.51,0,0,0,3.15-.09l14.2-8A1.25,1.25,0,0,0,203.08,44.15Z"></path><path class="cls-4" d="M188.47,35.35l-2.82,1.59-5.59-.13-.22.13-5.07-.11v6.84a.93.93,0,0,0,.53.77l14.08,8.33,12.92-7.29c.54-.3.8-.69.78-1.06v-7l-11.47-.25Z"></path><path class="cls-2" d="M186.36,54.1a3.19,3.19,0,0,1-1.64-.39l-15.46-9.14a1.4,1.4,0,0,1-.76-1.16V36.46A.48.48,0,0,1,169,36l10.73.24,4-2.25a3.92,3.92,0,0,1,3.6-.09l4.42,2.61,11.44.26a.36.36,0,0,1,.35.36v7a1.67,1.67,0,0,1-1,1.47l-14.21,8A4.09,4.09,0,0,1,186.36,54.1Zm-17-17.21V43.4c0,.18.19.32.31.39l15.46,9.15a2.44,2.44,0,0,0,1.17.26l0-8.57,12.44-5.29,3.86-1.7-11.14-.25-4.63-2.74a3.07,3.07,0,0,0-2.7.11L180,37.13Z"></path><path class="cls-3" d="M185,46.33l-15.46-9.15c-.8-.47-.69-1.28.24-1.81l14.21-8a3.51,3.51,0,0,1,3.15-.09l15.46,9.14c.8.47.69,1.28-.25,1.81l-14.21,8A3.49,3.49,0,0,1,185,46.33Z"></path><path class="cls-1" d="M184,29.37l-14.21,8a3,3,0,0,0-.32.21l15.39,9.1A3.49,3.49,0,0,0,188,46.6l14.21-8a2,2,0,0,0,.32-.22l-15.39-9.1A3.49,3.49,0,0,0,184,29.37Z"></path><path class="cls-2" d="M186.35,47.1a3.17,3.17,0,0,1-1.63-.39h0l-15.46-9.14a1.38,1.38,0,0,1-.76-1.19,1.73,1.73,0,0,1,1-1.4l14.21-8a3.92,3.92,0,0,1,3.6-.09L202.78,36a1.35,1.35,0,0,1,.75,1.19,1.72,1.72,0,0,1-1,1.41l-14.2,8A4.1,4.1,0,0,1,186.35,47.1Zm-1.17-1.16a3,3,0,0,0,2.69-.11l14.21-8c.4-.23.55-.48.55-.63s-.19-.33-.31-.4l-15.46-9.15a3.07,3.07,0,0,0-2.7.11l-14.21,8c-.4.23-.54.48-.55.63s.2.33.32.4Z"></path><path class="cls-3" d="M185.44,42.47,176,36.86c-.49-.29-.42-.78.15-1.11l8.71-4.9a2.14,2.14,0,0,1,1.92-.06l9.48,5.6c.49.29.42.79-.15,1.11l-8.71,4.91A2.16,2.16,0,0,1,185.44,42.47Z"></path><path class="cls-4" d="M184.83,36l-5.41,3,6,3.57a2.16,2.16,0,0,0,1.93-.06l5.41-3-6-3.56A2.11,2.11,0,0,0,184.83,36Z"></path><path class="cls-2" d="M186.31,43.12a2.29,2.29,0,0,1-1.1-.26l-9.47-5.61a1,1,0,0,1-.55-.88,1.23,1.23,0,0,1,.71-1l8.7-4.9A2.57,2.57,0,0,1,187,30.4l9.48,5.6a1,1,0,0,1,.55.88,1.25,1.25,0,0,1-.71,1l-8.71,4.9A2.7,2.7,0,0,1,186.31,43.12ZM185.9,31a1.84,1.84,0,0,0-.85.2l-8.71,4.91a.51.51,0,0,0-.25.23.36.36,0,0,0,.11.1l9.47,5.6a1.69,1.69,0,0,0,1.48-.07l8.7-4.9c.21-.12.25-.22.25-.24a.49.49,0,0,0-.1-.09l-9.48-5.6A1.29,1.29,0,0,0,185.9,31Z"></path><path class="cls-3" d="M176,36.88l1.58.94,7.28-4.1a2.11,2.11,0,0,1,1.92-.06l7.9,4.67,1.43-.81c.57-.32.64-.82.15-1.11l-9.48-5.6a2.11,2.11,0,0,0-1.92.06l-8.71,4.9C175.55,36.1,175.48,36.59,176,36.88Z"></path><path class="cls-2" d="M194.64,38.85l-8.12-4.8a1.7,1.7,0,0,0-1.47.06l-7.5,4.23-1.81-1.07a1,1,0,0,1-.55-.88,1.23,1.23,0,0,1,.71-1l8.7-4.91a2.57,2.57,0,0,1,2.38,0l9.48,5.6a1,1,0,0,1,.55.88,1.25,1.25,0,0,1-.71,1ZM185.9,33a2.11,2.11,0,0,1,1.08.27l7.67,4.53,1.2-.67c.21-.12.25-.22.25-.24s0,0-.1-.09l-9.48-5.6a1.19,1.19,0,0,0-.62-.14Z"></path><path class="cls-2" d="M192.19,12.35l-6-11.27s-.06,0-.06,0V15.84a0,0,0,0,0,.05,0l6-3.48S192.2,12.36,192.19,12.35Z"></path><path class="cls-6" d="M186.22,16.39l-.49-.26v-.29L185.87,1l.56-.44.2.32,6.07,11.55-.29.37Zm.4-13.61V15.11l5-2.91Z"></path><path class="cls-3" d="M180.15,12.35l6-11.27a0,0,0,0,1,.06,0V15.84a0,0,0,0,1,0,0l-6-3.48A0,0,0,0,1,180.15,12.35Z"></path><path class="cls-4" d="M181.77,13.38,186,15.87a0,0,0,0,0,.05,0V5.23Z"></path><path class="cls-6" d="M186.15,16.39l-.26-.13-6.26-3.81.12-.31h0L186.17,0l.52,1-.07.11v15Zm-5.42-4.19,5,2.91V2.78Z"></path><path class="cls-2" d="M192.13,12.5l-5.9,9.06s-.06,0-.06,0V15.92a0,0,0,0,1,0,0l5.91-3.44A0,0,0,0,1,192.13,12.5Z"></path><path class="cls-6" d="M186.17,22.43,186,21.38l-.28.17V15.67l.22-.16,6.23-3.63.53.53-.19.33Zm.45-6.27v4l4.17-6.4Z"></path><path class="cls-3" d="M180.21,12.5l5.9,9.06s.06,0,.06,0V15.92l0,0-5.9-3.44A0,0,0,0,0,180.21,12.5Z"></path><path class="cls-6" d="M186.17,22.43l-.44-.62-6.1-9.36.5-.56.34.17,6.13,3.57,0,.29-.18,5.17Zm-4.62-8.7,4.17,6.4v-4Z"></path><polygon class="cls-3" points="186.43 16.11 186.43 15.34 191.64 12.31 191.64 13.08 186.43 16.11"></polygon><path class="cls-3" d="M208.41,217,106.8,275.52c-2,1.17-5.57,1-7.91-.33l-95-54.66c-2.34-1.35-2.59-3.39-.57-4.57l101.61-58.49c2-1.17,5.57-1,7.91.33l95.05,54.66C210.18,213.81,210.44,215.85,208.41,217Z"></path><path class="cls-1" d="M208.41,221.27,106.8,279.76c-2,1.17-5.57,1-7.91-.33l-95-54.65c-2.34-1.35-2.59-3.4-.57-4.57l101.61-58.49c2-1.17,5.57-1,7.91.32l95.05,54.66C210.18,218.05,210.44,220.1,208.41,221.27Z"></path><path class="cls-6" d="M103.36,276.75a9.72,9.72,0,0,1-4.7-1.17l-95-54.66a3.69,3.69,0,0,1-2.17-3,2.81,2.81,0,0,1,1.6-2.38l101.61-58.49c2.14-1.24,5.9-1.09,8.36.33l95.05,54.65a3.71,3.71,0,0,1,2.16,3,2.78,2.78,0,0,1-1.6,2.37h0L107,275.91A7.47,7.47,0,0,1,103.36,276.75Zm5-119.62a6.56,6.56,0,0,0-3.21.73L3.5,216.36A1.9,1.9,0,0,0,2.36,218a2.86,2.86,0,0,0,1.71,2.19L99.12,274.8c2.21,1.28,5.55,1.42,7.45.33l101.61-58.5a1.91,1.91,0,0,0,1.15-1.59c0-.76-.63-1.56-1.72-2.19l-95-54.66A8.78,8.78,0,0,0,108.32,157.13Z"></path><path class="cls-3" d="M268.59,221.22l-61.86,35.71a4.63,4.63,0,0,1-4.17-.17l-50.15-28.84c-1.24-.71-1.37-1.79-.3-2.4L214,189.8a4.65,4.65,0,0,1,4.18.17l50.14,28.84C269.53,219.52,269.66,220.6,268.59,221.22Z"></path><path class="cls-4" d="M268.43,224l-61.86,35.72a4.65,4.65,0,0,1-4.18-.17l-50.14-28.84c-1.24-.71-1.37-1.79-.3-2.41l61.86-35.72a4.63,4.63,0,0,1,4.17.18l50.15,28.83C269.37,222.35,269.5,223.43,268.43,224Z"></path><path class="cls-6" d="M204.91,257.8a5.31,5.31,0,0,1-2.58-.65l-50.15-28.83a2.17,2.17,0,0,1-1.25-1.76,1.7,1.7,0,0,1,.95-1.44l61.87-35.71a5,5,0,0,1,4.62.17l50.15,28.84a2.14,2.14,0,0,1,1.25,1.75,1.7,1.7,0,0,1-.95,1.44L207,257.32A4,4,0,0,1,204.91,257.8Zm10.87-68a3.21,3.21,0,0,0-1.58.36l-61.87,35.72a.85.85,0,0,0-.49.65c0,.32.29.69.79,1l50.15,28.84a4.19,4.19,0,0,0,3.72.17l61.87-35.71a.86.86,0,0,0,.49-.66c0-.32-.29-.68-.79-1l-50.15-28.84A4.41,4.41,0,0,0,215.78,189.83Z"></path><path class="cls-3" d="M85.1,235.36a4,4,0,0,1-2-.54l-16.36-9.57.46-.78L83.56,234a3.06,3.06,0,0,0,3.08,0l27.7-16.13.45.78L87.1,234.82A4,4,0,0,1,85.1,235.36Z"></path><path class="cls-6" d="M85.1,234.5a4,4,0,0,1-2-.55l-14.71-8.62.46-.78,14.71,8.62a3.06,3.06,0,0,0,3.08,0l27.7-16.13.45.78L87.1,234A4,4,0,0,1,85.1,234.5Z"></path><rect class="cls-3" x="203.3" y="211.48" width="0.9" height="38.53" transform="translate(-98.31 290.03) rotate(-59.66)"></rect><rect class="cls-6" x="203.3" y="210.61" width="0.9" height="38.53" transform="translate(-97.57 289.6) rotate(-59.66)"></rect><path class="cls-3" d="M230.75,234.76l-.46-.77,23-13.57a.94.94,0,0,0,0-1.63L229.41,205l.45-.78L253.75,218a1.84,1.84,0,0,1,.92,1.6,1.81,1.81,0,0,1-.91,1.6Z"></path><path class="cls-6" d="M230.75,233.9l-.46-.77,23-13.57a.94.94,0,0,0,0-1.63l-23.89-13.75.45-.79,23.89,13.75a1.85,1.85,0,0,1,.92,1.6,1.81,1.81,0,0,1-.91,1.6Z"></path><path class="cls-3" d="M76.2,220v-7l-11.47-.26-4.53-2.68a3.49,3.49,0,0,0-3.14.1L53,212.48l-10.88-.24v7a.93.93,0,0,0,.54.78l15.46,9.14a3.49,3.49,0,0,0,3.14-.1l14.21-8A1.25,1.25,0,0,0,76.2,220Z"></path><path class="cls-4" d="M61.59,211.16l-2.82,1.59-5.59-.13-.23.13-5.06-.12v6.84a.92.92,0,0,0,.53.78l14.08,8.32,12.92-7.28a1.25,1.25,0,0,0,.78-1.07v-6.95L64.73,213Z"></path><path class="cls-5" d="M59.47,229.91a3.28,3.28,0,0,1-1.63-.39l-15.46-9.14a1.39,1.39,0,0,1-.76-1.17v-7a.47.47,0,0,1,.49-.47l10.73.24,4-2.25a3.93,3.93,0,0,1,3.59-.1l4.43,2.62,11.44.26a.36.36,0,0,1,.35.36v7a1.66,1.66,0,0,1-1,1.47l-14.21,8A4.09,4.09,0,0,1,59.47,229.91ZM42.52,212.7v6.51c0,.18.2.32.32.39l15.46,9.14a2.31,2.31,0,0,0,1.16.27l0-8.58,12.44-5.28,3.87-1.7L64.6,213.2,60,210.46a3,3,0,0,0-2.69.1l-4.21,2.38Z"></path><path class="cls-3" d="M58.07,222.13,42.61,213c-.81-.48-.7-1.29.24-1.81l14.21-8a3.49,3.49,0,0,1,3.14-.1l15.46,9.15c.8.47.7,1.28-.24,1.81l-14.21,8A3.46,3.46,0,0,1,58.07,222.13Z"></path><path class="cls-1" d="M57.13,205.18l-14.2,8a2.21,2.21,0,0,0-.32.22L58,222.5a3.51,3.51,0,0,0,3.15-.1l14.21-8a1.89,1.89,0,0,0,.31-.22l-15.38-9.1A3.51,3.51,0,0,0,57.13,205.18Z"></path><path class="cls-5" d="M59.47,222.91a3.25,3.25,0,0,1-1.63-.39h0l-15.46-9.14a1.37,1.37,0,0,1-.76-1.19,1.71,1.71,0,0,1,1-1.41l14.21-8a3.93,3.93,0,0,1,3.59-.1l15.46,9.15a1.34,1.34,0,0,1,.76,1.19,1.71,1.71,0,0,1-1,1.4l-14.21,8A4.09,4.09,0,0,1,59.47,222.91Zm-1.17-1.17a3,3,0,0,0,2.69-.1l14.21-8c.4-.23.55-.48.55-.63s-.2-.33-.32-.4L60,203.46a3,3,0,0,0-2.69.1l-14.21,8c-.4.23-.55.47-.55.63s.2.33.32.4Z"></path><path class="cls-3" d="M58.56,218.27l-9.47-5.6c-.49-.29-.43-.79.15-1.11l8.7-4.9a2.13,2.13,0,0,1,1.93-.06l9.47,5.6c.49.29.43.79-.15,1.11l-8.7,4.9A2.13,2.13,0,0,1,58.56,218.27Z"></path><path class="cls-4" d="M57.94,211.82l-5.4,3.05,6,3.56a2.13,2.13,0,0,0,1.93-.06l5.4-3-6-3.57A2.16,2.16,0,0,0,57.94,211.82Z"></path><path class="cls-5" d="M59.42,218.93a2.15,2.15,0,0,1-1.09-.27l-9.47-5.6a1,1,0,0,1-.55-.88,1.21,1.21,0,0,1,.71-1l8.7-4.91a2.57,2.57,0,0,1,2.38,0l9.47,5.6a1,1,0,0,1,.55.88,1.21,1.21,0,0,1-.71,1l-8.7,4.91A2.71,2.71,0,0,1,59.42,218.93ZM59,206.85a1.88,1.88,0,0,0-.86.2l-8.7,4.9c-.2.12-.25.22-.25.24s0,.05.11.09l9.47,5.6a1.66,1.66,0,0,0,1.47-.06l8.71-4.9c.2-.12.25-.22.25-.24s0-.05-.11-.09L59.64,207A1.19,1.19,0,0,0,59,206.85Z"></path><path class="cls-3" d="M49.09,212.69l1.58.93,7.27-4.1a2.16,2.16,0,0,1,1.93-.06l7.89,4.67,1.43-.8c.58-.33.64-.82.15-1.11l-9.47-5.61a2.16,2.16,0,0,0-1.93.06l-8.7,4.91C48.66,211.9,48.6,212.4,49.09,212.69Z"></path><path class="cls-5" d="M67.76,214.65l-8.12-4.8a1.69,1.69,0,0,0-1.48.07l-7.5,4.22-1.8-1.06a1,1,0,0,1-.55-.88,1.21,1.21,0,0,1,.71-1l8.7-4.91a2.57,2.57,0,0,1,2.38-.06l9.47,5.61a1,1,0,0,1,.55.88,1.21,1.21,0,0,1-.71,1ZM59,208.8a2.22,2.22,0,0,1,1.08.27l7.67,4.54,1.2-.68c.2-.11.25-.21.25-.23s0,0-.11-.09L59.64,207a1.29,1.29,0,0,0-.62-.14Z"></path><path class="cls-2" d="M65.24,188.61l-6-11.27a0,0,0,0,0-.06,0V192.1s0,0,.05,0l6-3.47A0,0,0,0,0,65.24,188.61Z"></path><path class="cls-6" d="M59.27,192.65l-.49-.26v-.29l.15-14.86.56-.44.2.33,6.07,11.54-.29.38Zm.4-13.6v12.32l5-2.9Z"></path><path class="cls-3" d="M53.19,188.61l6-11.27s.06,0,.06,0V192.1a0,0,0,0,1,0,0l-6-3.47S53.19,188.63,53.19,188.61Z"></path><path class="cls-4" d="M54.82,189.65l4.27,2.48s0,0,0,0V181.49Z"></path><path class="cls-6" d="M59.2,192.65l-.26-.13-6.26-3.81.12-.31h0l6.42-12.13.52,1-.07.12v15Zm-5.42-4.18,5,2.9V179.05Z"></path><path class="cls-2" d="M65.18,188.76l-5.9,9.07a0,0,0,0,1-.06,0v-5.62a0,0,0,0,1,0,0l5.91-3.44S65.2,188.74,65.18,188.76Z"></path><path class="cls-6" d="M59.22,198.7l-.17-1.06-.28.17v-5.87l.22-.16,6.23-3.63.53.52-.19.34Zm.45-6.27v4l4.17-6.4Z"></path><path class="cls-3" d="M53.25,188.76l5.91,9.07a0,0,0,0,0,.06,0v-5.62l0,0-5.9-3.44S53.24,188.74,53.25,188.76Z"></path><path class="cls-6" d="M59.22,198.7l-.44-.62-6.1-9.37.49-.56.35.18,6.13,3.57,0,.29-.18,5.17ZM54.6,190l4.17,6.4v-4Z"></path><polygon class="cls-3" points="59.48 192.38 59.48 191.61 64.69 188.58 64.69 189.34 59.48 192.38"></polygon><path class="cls-3" d="M247.9,203.61l-.08-16.17-34.08-.67.08,15.88a.86.86,0,0,0,.49,1l15.46,9.15a3.51,3.51,0,0,0,3.15-.1l14.21-8C247.68,204.41,248,204,247.9,203.61Z"></path><path class="cls-1" d="M219.39,186.94l.07,14.3a1.13,1.13,0,0,0,.57,1.07l15.35,9.08,11.74-6.61c.56-.32.82-.73.77-1.11l-.07-16.17Z"></path><path class="cls-2" d="M231.18,213.61a3.22,3.22,0,0,1-1.64-.4l-15.46-9.14a1.32,1.32,0,0,1-.71-1.48l-.08-16.28,34.65.68a.34.34,0,0,1,.33.34l.08,16.25a1.67,1.67,0,0,1-1,1.54l-14.21,8A4.1,4.1,0,0,1,231.18,213.61Zm-17-26.38.07,15.49,0,.07c-.06.18,0,.35.29.5L230,212.44a2.47,2.47,0,0,0,1.29.26V195.3l8.05-5.42,8-2Z"></path><path class="cls-3" d="M229.7,196.47l-15.46-9.15c-.8-.47-.69-1.28.24-1.81l14.21-8a3.49,3.49,0,0,1,3.14-.1l15.47,9.14c.8.48.69,1.29-.25,1.81l-14.21,8A3.49,3.49,0,0,1,229.7,196.47Z"></path><path class="cls-2" d="M231.1,197.25a3.28,3.28,0,0,1-1.63-.39L214,187.71a1.34,1.34,0,0,1-.76-1.18,1.73,1.73,0,0,1,1-1.41l14.21-8a4,4,0,0,1,3.59-.09l15.47,9.14a1.38,1.38,0,0,1,.75,1.19,1.71,1.71,0,0,1-1,1.41l-14.21,8A4,4,0,0,1,231.1,197.25Zm-.66-19.72a3.26,3.26,0,0,0-1.53.37l-14.21,8c-.4.22-.55.47-.55.62s.2.34.32.41l15.46,9.14a3.08,3.08,0,0,0,2.69-.1l14.21-8c.4-.23.55-.47.55-.63s-.2-.33-.31-.4L231.6,177.8A2.31,2.31,0,0,0,230.44,177.53Z"></path><path class="cls-3" d="M247.91,183.25V176.3L236.44,176l-4.53-2.68a3.49,3.49,0,0,0-3.14.1l-4.11,2.31-10.88-.24v7a1,1,0,0,0,.54.78l15.46,9.14a3.49,3.49,0,0,0,3.14-.1l14.21-8A1.25,1.25,0,0,0,247.91,183.25Z"></path><path class="cls-4" d="M233.3,174.44l-2.82,1.6-5.59-.13-.23.13-5.06-.12v6.84a.94.94,0,0,0,.53.78l14.08,8.32,12.92-7.28a1.25,1.25,0,0,0,.78-1.07v-6.95l-11.47-.26Z"></path><path class="cls-2" d="M231.18,193.2a3.28,3.28,0,0,1-1.63-.39l-15.46-9.14a1.41,1.41,0,0,1-.76-1.17v-6.95a.47.47,0,0,1,.49-.47l10.73.24,4-2.26a4,4,0,0,1,3.59-.09l4.43,2.62,11.44.26a.36.36,0,0,1,.35.36v7a1.66,1.66,0,0,1-1,1.47l-14.21,8A4,4,0,0,1,231.18,193.2Zm-17-17.21v6.51c0,.18.2.32.32.39L230,192a2.31,2.31,0,0,0,1.16.27l0-8.58,12.44-5.28,3.87-1.7-11.15-.25-4.63-2.74a3,3,0,0,0-2.69.1l-4.21,2.38Z"></path><path class="cls-3" d="M229.78,185.42l-15.46-9.14c-.8-.48-.69-1.29.24-1.81l14.21-8a3.49,3.49,0,0,1,3.14-.1l15.47,9.15c.8.47.69,1.28-.25,1.81l-14.21,8A3.49,3.49,0,0,1,229.78,185.42Z"></path><path class="cls-1" d="M228.85,168.47l-14.21,8a2,2,0,0,0-.32.22l15.38,9.1a3.51,3.51,0,0,0,3.15-.1l14.21-8a2.57,2.57,0,0,0,.32-.22L232,168.37A3.49,3.49,0,0,0,228.85,168.47Z"></path><path class="cls-2" d="M231.18,186.2a3.28,3.28,0,0,1-1.63-.39h0l-15.46-9.14a1.37,1.37,0,0,1-.76-1.19,1.73,1.73,0,0,1,1-1.41l14.21-8a3.93,3.93,0,0,1,3.59-.1l15.47,9.15a1.35,1.35,0,0,1,.75,1.18,1.71,1.71,0,0,1-1,1.41l-14.21,8A4.09,4.09,0,0,1,231.18,186.2ZM230,185a3,3,0,0,0,2.69-.1l14.21-8c.4-.22.55-.47.55-.63s-.2-.33-.32-.39l-15.46-9.15a3,3,0,0,0-2.69.1l-14.21,8c-.4.23-.55.47-.55.63s.2.33.32.4Z"></path><path class="cls-3" d="M230.27,181.56,220.8,176c-.49-.29-.42-.79.15-1.11l8.7-4.9a2.13,2.13,0,0,1,1.93-.06l9.47,5.6c.49.29.43.79-.15,1.11l-8.7,4.9A2.13,2.13,0,0,1,230.27,181.56Z"></path><path class="cls-4" d="M229.65,175.11l-5.4,3,6,3.56a2.13,2.13,0,0,0,1.93-.06l5.41-3-6-3.57A2.16,2.16,0,0,0,229.65,175.11Z"></path><path class="cls-2" d="M231.13,182.22A2.15,2.15,0,0,1,230,182l-9.47-5.6a1,1,0,0,1-.55-.88,1.21,1.21,0,0,1,.71-1l8.7-4.91a2.57,2.57,0,0,1,2.38-.05l9.47,5.6a1,1,0,0,1,.55.88,1.21,1.21,0,0,1-.71,1l-8.7,4.91A2.71,2.71,0,0,1,231.13,182.22Zm-.4-12.08a1.7,1.7,0,0,0-.85.2l-8.71,4.9c-.2.12-.25.22-.25.24s0,.05.11.09l9.47,5.6a1.72,1.72,0,0,0,1.48-.06l8.7-4.91c.2-.11.25-.21.25-.23s0-.05-.11-.09l-9.47-5.61A1.29,1.29,0,0,0,230.73,170.14Z"></path><path class="cls-3" d="M220.8,176l1.58.93,7.27-4.1a2.16,2.16,0,0,1,1.93-.06l7.89,4.67,1.43-.8c.58-.33.64-.82.15-1.11l-9.47-5.61a2.16,2.16,0,0,0-1.93.06l-8.7,4.91C220.38,175.19,220.31,175.69,220.8,176Z"></path><path class="cls-2" d="M239.47,177.94l-8.12-4.8a1.67,1.67,0,0,0-1.47.07l-7.51,4.22-1.8-1.06a1,1,0,0,1-.55-.88,1.21,1.21,0,0,1,.71-1l8.7-4.91a2.57,2.57,0,0,1,2.38-.06l9.47,5.61a1,1,0,0,1,.55.88,1.21,1.21,0,0,1-.71,1Zm-8.74-5.85a2.22,2.22,0,0,1,1.08.27l7.67,4.54,1.2-.68c.2-.11.25-.21.25-.23s0-.05-.11-.09l-9.47-5.61a1.29,1.29,0,0,0-.62-.14Z"></path><path class="cls-2" d="M236.57,153.11l-6-11.27s-.06,0-.06,0V156.6s0,0,0,0l6-3.48S236.58,153.12,236.57,153.11Z"></path><path class="cls-6" d="M230.6,157.15l-.49-.26,0-.29.16-14.86.55-.44.21.33,6.07,11.54-.29.37Zm.4-13.61v12.33l5-2.91Z"></path><path class="cls-3" d="M224.52,153.11l6-11.27a0,0,0,0,1,.06,0V156.6a0,0,0,0,1-.05,0l-6-3.48A0,0,0,0,1,224.52,153.11Z"></path><path class="cls-4" d="M226.15,154.14l4.27,2.49s0,0,0,0V146Z"></path><path class="cls-6" d="M230.53,157.15l-.26-.13L224,153.21l.12-.31h0l6.43-12.14.52,1-.07.11v15ZM225.11,153l5,2.9V143.54Z"></path><path class="cls-2" d="M236.51,153.26l-5.9,9.07a0,0,0,0,1-.06,0v-5.63s0,0,0,0l5.91-3.45S236.53,153.23,236.51,153.26Z"></path><path class="cls-6" d="M230.55,163.19l-.17-1.05-.29.17v-5.87l.23-.17,6.23-3.63.53.53-.19.34Zm.45-6.27v4l4.17-6.41Z"></path><path class="cls-3" d="M224.58,153.26l5.91,9.07s.06,0,.06,0v-5.63a0,0,0,0,0,0,0l-5.9-3.45S224.56,153.23,224.58,153.26Z"></path><path class="cls-6" d="M230.55,163.19l-.44-.62-6.1-9.36.49-.56.35.17L231,156.4l0,.28-.18,5.18Zm-4.62-8.7,4.16,6.41v-4Z"></path><polygon class="cls-3" points="230.81 156.87 230.81 156.1 236.02 153.07 236.02 153.84 230.81 156.87"></polygon><path class="cls-6" d="M218,92.32,127.23,40a3.85,3.85,0,0,0-3.36-.26h0l-4,1.72a.1.1,0,0,0,0,.18l1.55,1.25L82.16,199a4.75,4.75,0,0,0,2.24,5.28l90.11,52-.07,2.31a0,0,0,0,0,.06,0l4.7-2.05a3.89,3.89,0,0,0,1.73-2.37L220.24,97.61A4.77,4.77,0,0,0,218,92.32Z"></path><path class="cls-6" d="M174.45,259.07l-.45-.28v-.28l.06-2L84.17,204.64a5.22,5.22,0,0,1-2.45-5.78L120.84,43.05,119.51,42a.55.55,0,0,1-.2-.51.54.54,0,0,1,.33-.44l.5-.21,3.56-1.51a4.36,4.36,0,0,1,3.76.29l90.77,52.33a5.26,5.26,0,0,1,2.45,5.79L181.37,254.25a4.34,4.34,0,0,1-1.93,2.64ZM120.53,41.64l1.33,1.06L82.59,199.08a4.34,4.34,0,0,0,2,4.78L175,256l-.06,1.93L179,256.1a3.46,3.46,0,0,0,1.47-2.07L219.8,97.5a4.32,4.32,0,0,0-2-4.79L127,40.38a3.43,3.43,0,0,0-3-.23Z"></path><path class="cls-3" d="M171.17,258.29,80.4,206a4.77,4.77,0,0,1-2.24-5.29L117.47,44.13a3.92,3.92,0,0,1,5.77-2.44L214,94a4.79,4.79,0,0,1,2.24,5.29L176.94,255.84A3.93,3.93,0,0,1,171.17,258.29Z"></path><path class="cls-1" d="M216.35,97.56a4.94,4.94,0,0,0-1-.8L124.57,44.43a3.93,3.93,0,0,0-5.77,2.44L79.49,203.4a4.77,4.77,0,0,0-.12,1.59,4.9,4.9,0,0,0,1,.79l90.77,52.34a3.92,3.92,0,0,0,5.76-2.45L216.22,99.14A4.72,4.72,0,0,0,216.35,97.56Z"></path><path class="cls-6" d="M173.12,259.27a4.38,4.38,0,0,1-2.18-.59L80.18,206.34a5.25,5.25,0,0,1-2.46-5.79L117,44a4.38,4.38,0,0,1,6.43-2.72l90.77,52.33a5.23,5.23,0,0,1,2.45,5.79L177.38,256a4.4,4.4,0,0,1-2.54,3A4.52,4.52,0,0,1,173.12,259.27Zm-1.73-1.38a3.47,3.47,0,0,0,5.11-2.16L215.81,99.2a4.35,4.35,0,0,0-2-4.79L123,42.08a3.47,3.47,0,0,0-5.1,2.16L78.6,200.78a4.33,4.33,0,0,0,2,4.78Z"></path><path class="cls-3" d="M84.66,199.42,122.3,49.91a1.38,1.38,0,0,1,2-.86L208.41,97.5a2.66,2.66,0,0,1,1.25,3L172,250a1.38,1.38,0,0,1-2,.86L85.9,202.37A2.67,2.67,0,0,1,84.66,199.42Z"></path><polygon class="cls-8" points="82.26 198.91 120.84 45.69 203.59 93.84 165.01 247.07 82.26 198.91"></polygon><path class="cls-6" d="M170.67,251.46a1.89,1.89,0,0,1-.91-.25L85.68,202.76a3.11,3.11,0,0,1-1.46-3.45L121.86,49.8a1.83,1.83,0,0,1,1.06-1.24,1.8,1.8,0,0,1,1.63.1l84.08,48.45a3.11,3.11,0,0,1,1.46,3.45L172.45,250.07a1.83,1.83,0,0,1-1.06,1.24A1.79,1.79,0,0,1,170.67,251.46ZM85.09,199.53a2.22,2.22,0,0,0,1,2.45l84.08,48.45a1,1,0,0,0,.83,0,.93.93,0,0,0,.53-.63l37.65-149.51a2.22,2.22,0,0,0-1-2.45L124.1,49.44a.93.93,0,0,0-1.36.58Z"></path><rect class="cls-3" x="142.49" y="207.74" width="96.75" height="0.63" transform="translate(-57.27 342.76) rotate(-75.96)"></rect><rect class="cls-3" x="204.75" y="134.58" width="8.99" height="0.63" transform="translate(27.28 304.8) rotate(-75.84)"></rect><rect class="cls-3" x="201.65" y="147.14" width="8.99" height="0.63" transform="translate(12.66 311.17) rotate(-75.81)"></rect><path class="cls-3" d="M216,109.34l-.62-.15,2.72-10.82a4.75,4.75,0,0,0-1.89-4.62l-76.4-44,.31-.54,76.43,44.06a5.4,5.4,0,0,1,2.17,5.29Z"></path><rect class="cls-3" x="130.5" y="38.16" width="0.63" height="11.99" transform="translate(27.22 135.43) rotate(-60.03)"></rect><path class="cls-1" d="M164.06,186.2a4.62,4.62,0,0,1-2.17-5.14l.72-2.87a2.42,2.42,0,0,1,3.58-1.5L187.37,189l1.21-4.84L167.53,172a4.63,4.63,0,0,1-2.17-5.14l.72-2.87a2.43,2.43,0,0,1,3.58-1.51l21.26,12.4,1.26-5-21.05-12.18a4.62,4.62,0,0,1-2.17-5.14l.72-2.87a2.43,2.43,0,0,1,3.58-1.5l21.26,12.39,1.22-4.83L174.6,143.55a4.65,4.65,0,0,1-2.18-5.14l.73-2.87a2.43,2.43,0,0,1,3.58-1.51l21.35,12.45,1.25-5L169,124.07a4.66,4.66,0,0,1-2.18-5.15l.73-2.86a2.43,2.43,0,0,1,3.58-1.51l30.56,17.65,8-31.7a2.66,2.66,0,0,0-1.25-3L124.33,49.1a1.38,1.38,0,0,0-2,.86L84.66,199.47a2.66,2.66,0,0,0,1.24,2.95L170,250.87a1.37,1.37,0,0,0,2-.86l13-51.68Z"></path><path class="cls-3" d="M165.34,189.93a4.63,4.63,0,0,1-2.17-5.14l.72-2.87a2.44,2.44,0,0,1,3.58-1.51l21.18,12.34,1.21-4.83-21.05-12.18a4.62,4.62,0,0,1-2.17-5.14l.72-2.87a2.42,2.42,0,0,1,3.58-1.5l21.27,12.39,1.25-5-21.05-12.17a4.63,4.63,0,0,1-2.17-5.14l.72-2.87a2.43,2.43,0,0,1,3.58-1.51l21.26,12.4L197,159.5l-21.14-12.23a4.62,4.62,0,0,1-2.17-5.14l.72-2.87a2.43,2.43,0,0,1,3.58-1.5l21.35,12.45,1.26-5-30.35-17.43a4.62,4.62,0,0,1-2.17-5.14l.72-2.87a2.43,2.43,0,0,1,3.58-1.51L203,135.92l8-31.7a2.64,2.64,0,0,0-1.25-2.94L125.61,52.83a1.38,1.38,0,0,0-2,.86L85.94,203.2a2.65,2.65,0,0,0,1.24,2.94l84.09,48.45a1.37,1.37,0,0,0,2-.85l13-51.69Z"></path><path class="cls-6" d="M170.67,251.51a1.89,1.89,0,0,1-.91-.25L85.68,202.81a3.11,3.11,0,0,1-1.46-3.45L121.86,49.85a1.83,1.83,0,0,1,2.69-1.14l84.08,48.45a3.11,3.11,0,0,1,1.46,3.45L202,132.89,146.58,101a2,2,0,0,0-2.92,1.22l-.73,2.87a4.21,4.21,0,0,0,2,4.64l55,31.53-1.49,5.9-46.18-26.68a2,2,0,0,0-2.92,1.23l-.72,2.86a4.2,4.2,0,0,0,2,4.65l45.75,26.33-1.45,5.75-46.09-26.64a2,2,0,0,0-1.77-.11,1.94,1.94,0,0,0-1.15,1.34l-.72,2.87a4.19,4.19,0,0,0,2,4.64l45.66,26.28-1.48,5.9L145.12,149a2,2,0,0,0-2.92,1.22l-.72,2.87a4.2,4.2,0,0,0,2,4.64L189.1,184l-1.44,5.75-46-26.58a2,2,0,0,0-2.92,1.23l-.72,2.87a4.2,4.2,0,0,0,2,4.64l45.58,26.23-.09.33-13,51.68a1.81,1.81,0,0,1-1.06,1.24A1.79,1.79,0,0,1,170.67,251.51Zm-47-202.14a.89.89,0,0,0-.36.07.94.94,0,0,0-.54.63L85.09,199.58a2.22,2.22,0,0,0,1,2.45l84.08,48.45a1,1,0,0,0,.83.05.91.91,0,0,0,.53-.63l12.93-51.35-45-25.89a5.08,5.08,0,0,1-2.38-5.64l.72-2.87a2.88,2.88,0,0,1,4.24-1.79l45,26,1-3.93L143,158.48a5.12,5.12,0,0,1-2.39-5.65l.73-2.87a2.87,2.87,0,0,1,4.24-1.78l45.06,26,1-4.08-45.07-25.94a5.1,5.1,0,0,1-2.39-5.64l.72-2.87a2.89,2.89,0,0,1,4.25-1.79l45.06,26,1-3.92-45.16-26a5.11,5.11,0,0,1-2.39-5.65l.72-2.86a2.88,2.88,0,0,1,4.25-1.79l45.15,26.08,1-4.08-54.36-31.19a5.1,5.1,0,0,1-2.39-5.64l.72-2.87a2.88,2.88,0,0,1,4.25-1.78l54.35,31.28,7.84-31.12a2.2,2.2,0,0,0-1-2.44L124.1,49.49A.93.93,0,0,0,123.64,49.37Z"></path><path class="cls-3" d="M190.52,236l-25.94-14.87a4.05,4.05,0,0,0-2.61-.48h0l-.25.05a14.39,14.39,0,0,0-7.86,4.74l2.56,2,1.34-.23-2.54,9.85a26.46,26.46,0,0,0,12.47,29.4h0a15.9,15.9,0,0,0,6.51,2.07l-.47,3a.08.08,0,0,0,.1.09c1.17-.38,10.5-3.49,14.79-9.61l0-.05a15.8,15.8,0,0,0,2.5-5.41l3.07-11.9A7.78,7.78,0,0,0,190.52,236Z"></path><path class="cls-4" d="M192.22,239.72l-25.94-14.86a4,4,0,0,0-2.62-.48h0l-.26.05a13.54,13.54,0,0,0-6.33,3.21l.68-.12-.73,2.83,1.09.86,1.33-.23-2.53,9.86A26.36,26.36,0,0,0,158,257.13a26.45,26.45,0,0,0,9.66,9.65h0a15.88,15.88,0,0,0,6.51,2.06l-.47,3a.08.08,0,0,0,.1.09c1.18-.37,10.5-3.48,14.79-9.61l0,0a15.84,15.84,0,0,0,2.5-5.4l3.08-11.91a7.77,7.77,0,0,0,.06-3.49A7.92,7.92,0,0,0,192.22,239.72Z"></path><path class="cls-2" d="M157.73,227.19l-.95-.76a14.34,14.34,0,0,1,7.85-4.74l.25-.05h0a4,4,0,0,1,.6,0l-.92-.52a4,4,0,0,0-2.61-.49h0l-.25,0a14.39,14.39,0,0,0-7.86,4.74l2.56,2Z"></path><path class="cls-7" d="M171.75,268.07c-.39-.18-.77-.36-1.15-.57h0a26.46,26.46,0,0,1-12.46-29.4l2.53-9.86-1.33.23-1.6-1.28L155.2,237a26.46,26.46,0,0,0,12.47,29.4h0A15.89,15.89,0,0,0,171.75,268.07Z"></path><path class="cls-2" d="M184.37,244.38a.08.08,0,0,1-.11-.09l.48-3a15.84,15.84,0,0,1-6.51-2.06h0c-4.79-2.76-13.55-5.51-21.24-8.82L155.3,237a26.46,26.46,0,0,0,12.46,29.4h0a16,16,0,0,0,6.51,2.07l-.47,2.95a.08.08,0,0,0,.1.09c1.18-.37,10.51-3.48,14.79-9.61,0,0,0,0,0,0a16,16,0,0,0,2.51-5.41l3.07-11.91a7.74,7.74,0,0,0-.36-4.86A39.34,39.34,0,0,1,184.37,244.38Z"></path><path class="cls-6" d="M173.71,272.15l-.27-.18a.52.52,0,0,1-.18-.48l.4-2.49a16.36,16.36,0,0,1-6.22-2.08A27,27,0,0,1,154.76,237l2.36-9.18-.84.14-3.07-2.44.28-.36a14.72,14.72,0,0,1,8.12-4.9l.27-.05a4.45,4.45,0,0,1,2.93.53l25.94,14.86a8.27,8.27,0,0,1,3.89,9.17l-3.07,11.91a16.55,16.55,0,0,1-2.57,5.55c-4.42,6.32-14,9.49-15.05,9.83Zm-15.36-45.44-2.71,10.53a26.11,26.11,0,0,0,12.25,28.9,15.42,15.42,0,0,0,6.33,2l.48,0-.45,2.83c2.34-.81,10.2-3.84,14-9.24a15.68,15.68,0,0,0,2.46-5.31l3.07-11.91a7.35,7.35,0,0,0-3.46-8.15h0l-25.94-14.86a3.51,3.51,0,0,0-2.33-.43l-.23,0a13.84,13.84,0,0,0-7.31,4.25l2,1.62Z"></path><path class="cls-3" d="M162,270h0a16,16,0,0,0,23.46-9.95l3.08-11.91a7.8,7.8,0,0,0-3.69-8.66l-25.93-14.86a4,4,0,0,0-5.92,2.52L149.5,240.6A26.48,26.48,0,0,0,162,270Z"></path><path class="cls-4" d="M180.61,263.11l3.46-13.46v0a4.65,4.65,0,0,0-2.2-5.21l-15.61-9a4,4,0,0,0-5.92,2.52l-3.46,13.46a23.41,23.41,0,0,0-.51,2.6,14.64,14.64,0,0,0,7.11,14.69l.08,0h0a15.9,15.9,0,0,0,16.27-.2A26.22,26.22,0,0,1,180.61,263.11Z"></path><path class="cls-6" d="M169.92,272.59a16.37,16.37,0,0,1-8.17-2.2h0a27,27,0,0,1-12.68-29.9L152.53,227a4.48,4.48,0,0,1,6.58-2.8l25.94,14.86a8.27,8.27,0,0,1,3.89,9.16l-3.07,11.91a16.49,16.49,0,0,1-16,12.43Zm-13-48a3.45,3.45,0,0,0-1.4.29,3.52,3.52,0,0,0-2.07,2.42l-3.47,13.46a26.11,26.11,0,0,0,12.26,28.9h0a15.54,15.54,0,0,0,22.8-9.67L188.07,248a7.35,7.35,0,0,0-3.47-8.15L158.66,225A3.62,3.62,0,0,0,156.88,224.54Z"></path><path class="cls-2" d="M171.05,248.36l-3.67-2.25a.57.57,0,0,0-.86.36L165,252.6H165a4.68,4.68,0,1,0,4.09,4.64,4.8,4.8,0,0,0-1.75-3.79l.9-3.72a.21.21,0,0,1,.3-.13l1.31.81a1.2,1.2,0,1,0,1.25-2Z"></path><path class="cls-6" d="M165,262.32a5.14,5.14,0,0,1-.27-10.17l1.4-5.79a1,1,0,0,1,.61-.71,1,1,0,0,1,.93.07l3.67,2.25a1.65,1.65,0,0,1-.22,2.92,1.65,1.65,0,0,1-1.51-.11l-1-.62-.75,3.11a5.38,5.38,0,0,1,1.69,4A4.84,4.84,0,0,1,165,262.32Zm0-9.28a4.23,4.23,0,1,0,3.67,4.19,4.38,4.38,0,0,0-1.58-3.44l-.22-.18,1-4a.65.65,0,0,1,1-.4l1.31.8a.71.71,0,0,0,.68.05.75.75,0,0,0,.1-1.32h0l-3.66-2.25a.13.13,0,0,0-.12,0,.18.18,0,0,0-.08.09l-1.56,6.49Z"></path><path class="cls-3" d="M166.51,246.47,165,252.6H165a4.39,4.39,0,0,0-4.09,4.63,4.89,4.89,0,0,0,1.18,3.24l.16.17.23.21a3.65,3.65,0,0,0,2,.79,4.26,4.26,0,0,1-1.36-3.43,4.4,4.4,0,0,1,4.09-4.64h.09l0-.12h0v0h0l.9-3.72a.2.2,0,0,1,.3-.12l1.31.8a1.2,1.2,0,0,0,1.25-2l-3.65-2.24h0A.58.58,0,0,0,166.51,246.47Z"></path><path class="cls-6" d="M165.76,262.18l-1.33-.1a4.14,4.14,0,0,1-2.28-.88l-.28-.26a1.36,1.36,0,0,1-.16-.17,5.37,5.37,0,0,1-1.3-3.55,4.88,4.88,0,0,1,4.27-5.07l1.4-5.79a1,1,0,0,1,1.37-.72h0l.17.09,3.65,2.24a1.66,1.66,0,0,1,.75,1.75,1.69,1.69,0,0,1-1,1.17,1.65,1.65,0,0,1-1.51-.11l-1-.63-.73,3h0l-.21.84-.47,0c-2,0-3.6,1.88-3.6,4.19a3.79,3.79,0,0,0,1.2,3.09Zm-.84-9.14c-2,0-3.6,1.88-3.61,4.18a4.53,4.53,0,0,0,1.07,2.95l.13.13.22.2a2.59,2.59,0,0,0,.52.34,5.37,5.37,0,0,1-.6-2.64,4.89,4.89,0,0,1,4.25-5.08l.85-3.52a.67.67,0,0,1,1-.41L170,250a.77.77,0,0,0,.68.05.75.75,0,0,0,.43-.53.73.73,0,0,0-.34-.79l-3.66-2.24a.13.13,0,0,0-.12,0,.18.18,0,0,0-.08.09l-1.56,6.49Z"></path><path class="cls-3" d="M185.85,237.29h0a2.88,2.88,0,0,1-2.08-3.48l2.12-8.43a13.38,13.38,0,0,0-5.55-14.31,7.13,7.13,0,0,0-5.8-.81,5.79,5.79,0,0,0-3.5,4l-2.29,9.11a2.85,2.85,0,0,1-3.47,2.08h0A2.87,2.87,0,0,1,163.2,222l2.18-8.71A12.06,12.06,0,0,1,172,205.1a11.48,11.48,0,0,1,10.42.55,19.09,19.09,0,0,1,9,21.12l-2.11,8.43A2.87,2.87,0,0,1,185.85,237.29Z"></path><path class="cls-4" d="M183.57,207.37a11.48,11.48,0,0,0-10.42-.55,12,12,0,0,0-6.64,8.17l-2.18,8.71a2.93,2.93,0,0,0-.07.93,2.87,2.87,0,0,0,4.87-1.26l2.28-9.11a5.79,5.79,0,0,1,3.5-4,7.12,7.12,0,0,1,5.8.81,16.76,16.76,0,0,1,6.3,16l-2.11,8.43a3,3,0,0,0-.07.93,2.86,2.86,0,0,0,4.87-1.26l2.11-8.43a16.5,16.5,0,0,0-8.24-19.4Z"></path><path class="cls-2" d="M178.43,209.43a7.09,7.09,0,0,0-5.8-.81,5.78,5.78,0,0,0-3.51,4l-2.28,9.11a2.86,2.86,0,0,1-3.47,2.08l-.14-.05a2.85,2.85,0,0,0,5.41-.39l2.29-9.11a5.75,5.75,0,0,1,3.5-4,7.13,7.13,0,0,1,5.8.81l.65.47A13.43,13.43,0,0,0,178.43,209.43Z"></path><path class="cls-2" d="M184.7,207.26a19.1,19.1,0,0,1,4.83,17.87l-2.12,8.43a2.85,2.85,0,0,1-3.47,2.08l-.14,0a2.85,2.85,0,0,0,5.42-.39l2.11-8.43A19.11,19.11,0,0,0,184.7,207.26Z"></path><path class="cls-6" d="M186.55,237.82a3.21,3.21,0,0,1-.81-.1h0a3.32,3.32,0,0,1-2.41-4l2.12-8.43a12.87,12.87,0,0,0-5.36-13.82,6.74,6.74,0,0,0-5.39-.77,5.35,5.35,0,0,0-3.23,3.69l-2.28,9.11a3.28,3.28,0,0,1-1.51,2,3.34,3.34,0,0,1-2.51.37,3.28,3.28,0,0,1-2-1.51,3.34,3.34,0,0,1-.37-2.51l2.18-8.71a12.56,12.56,0,0,1,6.9-8.47,11.9,11.9,0,0,1,10.83.57,19.53,19.53,0,0,1,9.21,21.62l-2.11,8.43A3.33,3.33,0,0,1,186.55,237.82Zm-.59-1a2.41,2.41,0,0,0,2.93-1.76l2.11-8.43A18.63,18.63,0,0,0,182.22,206a11,11,0,0,0-10-.52,11.62,11.62,0,0,0-6.39,7.86l-2.18,8.71a2.4,2.4,0,0,0,.27,1.83,2.42,2.42,0,0,0,3.31.82,2.4,2.4,0,0,0,1.1-1.48l2.28-9.11a6.23,6.23,0,0,1,3.77-4.31,7.61,7.61,0,0,1,6.22.86,13.75,13.75,0,0,1,5.73,14.79l-2.11,8.43a2.42,2.42,0,0,0,1.75,2.93Z"></path><path class="cls-3" d="M185.27,261.71l.28-.83a29.89,29.89,0,0,0,4.56-2.35l-.35.94A23.61,23.61,0,0,1,185.27,261.71Z"></path><path class="cls-6" d="M142.79,213.71l-.41-.53a1,1,0,0,1,0-1.09l.49-.79-3,.67-.4-.45a1,1,0,0,1-.18-1l1.08-2.7-4.71,1.9a1,1,0,0,1-1.24-.47h0a1,1,0,0,1,.38-1.27l1.58-.94a9.8,9.8,0,0,0-2-6.45c-2.62,4.19-6.36,8.8-10.41,9.37-2.38.33-4.56-.72-6.49-3.09-2.91-3.59-1.82-6.33-.92-7.64,2.42-3.5,8.84-5,14-3.28a11.59,11.59,0,0,1,3.39,1.76c.87-1.53,1.59-3,2.11-4.08a.89.89,0,0,1,1.17-.44h0a.9.9,0,0,1,.47,1.2c-.45,1-1.27,2.65-2.38,4.57a11.55,11.55,0,0,1,2.84,7.79l3.86-1.55.48.44a1,1,0,0,1,.23,1.08l-1.22,3,3.45-.77.41.53a1,1,0,0,1,0,1.1l-.48.78,2.49-.55c1-.64,3.07-2.25,3-3.74a2.55,2.55,0,0,0-1.35-1.92.9.9,0,0,1-.28-1.18h0a.92.92,0,0,1,1.31-.31,4.24,4.24,0,0,1,2.13,3.38c.05,2.88-3.63,5.15-4,5.39l-.17.1-.14,0ZM125.91,197c-3.33,0-6.56,1.2-8,3.21s-.3,4.08.83,5.48c1.53,1.88,3.11,2.68,4.84,2.44,3.34-.47,6.79-4.75,9.34-8.89a9.88,9.88,0,0,0-3-1.61A12.72,12.72,0,0,0,125.91,197Z"></path><path class="cls-6" d="M137.59,191.86h0a.88.88,0,0,1-.55-.9,7.49,7.49,0,0,0,0-1.63.89.89,0,0,1,.69-1h0a.89.89,0,0,1,1.09.77,8.93,8.93,0,0,1,.06,2A.91.91,0,0,1,137.59,191.86Z"></path><path class="cls-6" d="M142.79,217.78h0a.9.9,0,0,1,.06-1.29c1.75-1.51,5.24-4.2,7.19-3.35a2,2,0,0,1,1.12,1.34.88.88,0,0,1-.85,1.1h-.06a.91.91,0,0,1-.84-.64.29.29,0,0,0-.09-.14c-.65-.28-3,1.13-5.29,3.06A.88.88,0,0,1,142.79,217.78Z"></path><path class="cls-6" d="M139.54,72.18,97.92,47.82a3.77,3.77,0,0,0-3.26-.25h0l-3.91,1.66a.1.1,0,0,0,0,.18l1.5,1.2L66.29,157.4a4.6,4.6,0,0,0,2.16,5.11l41,24-.06,2.24a0,0,0,0,0,0,0l4.55-2a3.74,3.74,0,0,0,1.67-2.29L141.71,77.29A4.6,4.6,0,0,0,139.54,72.18Z"></path><path class="cls-6" d="M109.4,189.28,109,189v-.28l.06-2L68.24,162.89a5.06,5.06,0,0,1-2.38-5.59L91.74,50.78l-1.29-1a.56.56,0,0,1-.2-.5.54.54,0,0,1,.32-.42l.49-.21,3.44-1.46a4.21,4.21,0,0,1,3.63.28L139.76,71.8a5.06,5.06,0,0,1,2.37,5.6l-26,107.22a4.18,4.18,0,0,1-1.86,2.55Zm-18-139.87,1.29,1-26,107.07a4.18,4.18,0,0,0,2,4.62l41.23,24.13-.06,1.87,4-1.73a3.34,3.34,0,0,0,1.43-2L141.29,77.18a4.19,4.19,0,0,0-2-4.62L97.7,48.2A3.35,3.35,0,0,0,94.82,48Z"></path><path class="cls-3" d="M106.22,188.52,64.59,164.16a4.61,4.61,0,0,1-2.16-5.11L88.48,51.82a3.79,3.79,0,0,1,5.57-2.36l41.63,24.36a4.6,4.6,0,0,1,2.17,5.11l-26,107.23A3.8,3.8,0,0,1,106.22,188.52Z"></path><path class="cls-1" d="M138,77.24a4.63,4.63,0,0,0-1-.77L95.34,52.11a3.79,3.79,0,0,0-5.57,2.36l-26,107.22a4.43,4.43,0,0,0-.12,1.53,4.07,4.07,0,0,0,1,.77l41.63,24.37a3.8,3.8,0,0,0,5.58-2.37L137.83,78.77A4.66,4.66,0,0,0,138,77.24Z"></path><path class="cls-6" d="M108.11,189.47a4.23,4.23,0,0,1-2.11-.57L64.37,164.53A5.07,5.07,0,0,1,62,158.94L88.05,51.72a4.24,4.24,0,0,1,6.22-2.64L135.9,73.45A5,5,0,0,1,138.27,79L112.22,186.26a4.18,4.18,0,0,1-2.45,2.87A4.4,4.4,0,0,1,108.11,189.47Zm-.82-4.24a3.37,3.37,0,0,0,4.94-2.09l25.2-104.31a4.19,4.19,0,0,0-2-4.63L93.84,49.84a3.37,3.37,0,0,0-4.94,2.09L63.7,156.24a4.2,4.2,0,0,0,2,4.63Z"></path><path class="cls-6" d="M107.59,185.83a2.28,2.28,0,0,1-1.13-.3L67,162.26a3.55,3.55,0,0,1-1.66-3.92L90.81,53.87a2.27,2.27,0,0,1,1.32-1.54,2.23,2.23,0,0,1,2,.13l39.42,23.26a3.56,3.56,0,0,1,1.66,3.93L109.79,184.12a2.24,2.24,0,0,1-1.31,1.53A2.28,2.28,0,0,1,107.59,185.83ZM93,53a1.27,1.27,0,0,0-.54.11,1.37,1.37,0,0,0-.81.94L66.23,158.55a2.68,2.68,0,0,0,1.25,3l39.42,23.26a1.39,1.39,0,0,0,1.24.08,1.41,1.41,0,0,0,.81-.94L134.37,79.44a2.66,2.66,0,0,0-1.25-3l-12.77-7.54a2.05,2.05,0,0,0-2.33.17l-.56.44a1.85,1.85,0,0,1-2.13.14l-6.87-4.16a2.64,2.64,0,0,1-1.27-2l-.13-1.15a2.79,2.79,0,0,0-1.36-2.11l-12-7.08A1.39,1.39,0,0,0,93,53Z"></path><polygon class="cls-3" points="114.19 185.4 113.59 185.25 127.06 128.05 127.66 128.19 114.19 185.4"></polygon><rect class="cls-3" x="129.4" y="102.46" width="8.69" height="0.61" transform="translate(1.41 207.33) rotate(-75.85)"></rect><rect class="cls-3" x="126.4" y="114.59" width="8.69" height="0.61" transform="translate(-12.69 213.51) rotate(-75.82)"></rect><path class="cls-3" d="M137.61,88.63l-.59-.15L139.64,78a4.58,4.58,0,0,0-1.83-4.47L110.07,57.21l.3-.53,27.77,16.37a5.19,5.19,0,0,1,2.1,5.11Z"></path><rect class="cls-3" x="101.07" y="46.05" width="0.61" height="11.59" transform="translate(5.83 113.78) rotate(-60.03)"></rect><path class="cls-3" d="M104.16,187.33a3.59,3.59,0,0,1-.64-.05l.12-.74a4.5,4.5,0,0,0,3.63-1.39l.56.5A5.45,5.45,0,0,1,104.16,187.33Z"></path><path class="cls-3" d="M65.42,164.48c-2.23-1.37-2.22-4.61-2.22-4.75H64s0,3,1.86,4.1Z"></path><path class="cls-3" d="M109.59,65.06h-.1a1.13,1.13,0,1,1,1.11-1,1.21,1.21,0,0,1-.36.75A1,1,0,0,1,109.59,65.06Zm0-1.73a.64.64,0,0,0-.09,1.23.43.43,0,0,0,.36-.13.68.68,0,0,0,.21-.43.58.58,0,0,0-.44-.67Z"></path><path class="cls-4" d="M100,171.52l-10.6-6.35a1.25,1.25,0,0,1-.57-1.39l.58-2.33.27,0a2.94,2.94,0,1,0-2.5-2.91,3,3,0,0,0,1.34,2.57l-.6,2.41a2.17,2.17,0,0,0,1,2.42l10.6,6.36a1.67,1.67,0,0,1,.77,1.8l-2.15,5.47,1.82,1.07,1.25-6.33A2.64,2.64,0,0,0,100,171.52ZM89.67,156.6a2,2,0,1,1-1.56,2A1.81,1.81,0,0,1,89.67,156.6Z"></path><path class="cls-7" d="M99.05,171.52l-10.6-6.35a1.25,1.25,0,0,1-.57-1.39l.59-2.33a2.3,2.3,0,0,0,.26,0,2.94,2.94,0,1,0-2.5-2.91,3,3,0,0,0,1.35,2.57L87,163.55A2.19,2.19,0,0,0,88,166l10.6,6.36a1.67,1.67,0,0,1,.77,1.8l-1.72,7.8.91.2,1.73-7.79A2.64,2.64,0,0,0,99.05,171.52ZM88.73,156.6a2,2,0,1,1-1.56,2A1.81,1.81,0,0,1,88.73,156.6Z"></path><path class="cls-6" d="M51.54,257.49c.35.21.35.53,0,.73a1.4,1.4,0,0,1-1.26,0,.39.39,0,0,1,0-.73A1.4,1.4,0,0,1,51.54,257.49Z"></path><ellipse class="cls-6" cx="54.2" cy="255.96" rx="0.89" ry="0.51"></ellipse><path class="cls-6" d="M48.25,255.6c.35.2.35.52,0,.72a1.4,1.4,0,0,1-1.26,0,.38.38,0,0,1,0-.72A1.4,1.4,0,0,1,48.25,255.6Z"></path><path class="cls-6" d="M51.54,253.7c.35.2.35.52,0,.72a1.4,1.4,0,0,1-1.26,0,.38.38,0,0,1,0-.72A1.4,1.4,0,0,1,51.54,253.7Z"></path><path class="cls-6" d="M45,253.7c.35.2.35.52,0,.72a1.38,1.38,0,0,1-1.25,0c-.35-.2-.35-.52,0-.72A1.38,1.38,0,0,1,45,253.7Z"></path><path class="cls-6" d="M48.25,251.8c.35.2.35.52,0,.72a1.4,1.4,0,0,1-1.26,0,.38.38,0,0,1,0-.72A1.4,1.4,0,0,1,48.25,251.8Z"></path><path class="cls-6" d="M41.67,251.8c.35.2.35.52,0,.72a1.38,1.38,0,0,1-1.25,0c-.35-.2-.35-.52,0-.72A1.38,1.38,0,0,1,41.67,251.8Z"></path><path class="cls-6" d="M45,249.9c.35.2.35.52,0,.73a1.38,1.38,0,0,1-1.25,0c-.35-.21-.35-.53,0-.73A1.38,1.38,0,0,1,45,249.9Z"></path><path class="cls-6" d="M38.39,249.9a.39.39,0,0,1,0,.73,1.4,1.4,0,0,1-1.26,0c-.35-.21-.35-.53,0-.73A1.4,1.4,0,0,1,38.39,249.9Z"></path><ellipse class="cls-6" cx="41.05" cy="248.36" rx="0.89" ry="0.51"></ellipse><path class="cls-6" d="M35.07,248a.39.39,0,0,1,0,.73,1.4,1.4,0,0,1-1.26,0,.39.39,0,0,1,0-.73A1.4,1.4,0,0,1,35.07,248Z"></path><path class="cls-6" d="M38.36,246.08a.39.39,0,0,1,0,.73,1.4,1.4,0,0,1-1.26,0,.39.39,0,0,1,0-.73A1.4,1.4,0,0,1,38.36,246.08Z"></path><path class="cls-6" d="M31.78,246.08a.39.39,0,0,1,0,.73,1.4,1.4,0,0,1-1.26,0,.39.39,0,0,1,0-.73A1.4,1.4,0,0,1,31.78,246.08Z"></path><path class="cls-6" d="M35.07,244.18a.39.39,0,0,1,0,.73,1.4,1.4,0,0,1-1.26,0,.39.39,0,0,1,0-.73A1.4,1.4,0,0,1,35.07,244.18Z"></path><path class="cls-6" d="M28.49,244.18a.39.39,0,0,1,0,.73,1.4,1.4,0,0,1-1.26,0,.39.39,0,0,1,0-.73A1.4,1.4,0,0,1,28.49,244.18Z"></path><ellipse class="cls-6" cx="31.15" cy="242.65" rx="0.89" ry="0.51"></ellipse><path class="cls-6" d="M25.2,242.28a.39.39,0,0,1,0,.73,1.4,1.4,0,0,1-1.26,0,.39.39,0,0,1,0-.73A1.4,1.4,0,0,1,25.2,242.28Z"></path><ellipse class="cls-6" cx="27.86" cy="240.75" rx="0.89" ry="0.51"></ellipse><ellipse class="cls-6" cx="21.28" cy="240.75" rx="0.89" ry="0.51"></ellipse><path class="cls-6" d="M25.2,238.48c.35.21.35.53,0,.73a1.4,1.4,0,0,1-1.26,0,.39.39,0,0,1,0-.73A1.4,1.4,0,0,1,25.2,238.48Z"></path><ellipse class="cls-6" cx="17.99" cy="238.85" rx="0.89" ry="0.51"></ellipse><path class="cls-6" d="M21.91,236.59c.35.2.35.52,0,.72a1.4,1.4,0,0,1-1.26,0,.38.38,0,0,1,0-.72A1.4,1.4,0,0,1,21.91,236.59Z"></path><path class="cls-6" d="M15.33,236.59c.35.2.35.52,0,.72a1.4,1.4,0,0,1-1.26,0,.38.38,0,0,1,0-.72A1.4,1.4,0,0,1,15.33,236.59Z"></path><path class="cls-6" d="M18.62,234.69c.35.2.35.52,0,.72a1.4,1.4,0,0,1-1.26,0,.38.38,0,0,1,0-.72A1.4,1.4,0,0,1,18.62,234.69Z"></path><path class="cls-6" d="M12,234.69c.35.2.35.52,0,.72a1.38,1.38,0,0,1-1.25,0c-.35-.2-.35-.52,0-.72A1.38,1.38,0,0,1,12,234.69Z"></path><path class="cls-6" d="M15.33,232.79c.35.2.35.52,0,.72a1.38,1.38,0,0,1-1.25,0c-.35-.2-.35-.52,0-.72A1.38,1.38,0,0,1,15.33,232.79Z"></path><ellipse class="cls-6" cx="8.1" cy="233.13" rx="0.89" ry="0.51"></ellipse><path class="cls-6" d="M12,230.87a.39.39,0,0,1,0,.73,1.4,1.4,0,0,1-1.26,0c-.35-.21-.35-.53,0-.73A1.4,1.4,0,0,1,12,230.87Z"></path><path class="cls-6" d="M5.44,230.87a.39.39,0,0,1,0,.73,1.4,1.4,0,0,1-1.26,0c-.35-.21-.35-.53,0-.73A1.4,1.4,0,0,1,5.44,230.87Z"></path><ellipse class="cls-6" cx="8.1" cy="229.33" rx="0.89" ry="0.51"></ellipse><path class="cls-6" d="M2.15,229a.39.39,0,0,1,0,.73,1.4,1.4,0,0,1-1.26,0,.39.39,0,0,1,0-.73A1.4,1.4,0,0,1,2.15,229Z"></path><path class="cls-6" d="M5.44,227.07a.39.39,0,0,1,0,.73,1.4,1.4,0,0,1-1.26,0,.39.39,0,0,1,0-.73A1.4,1.4,0,0,1,5.44,227.07Z"></path><path class="cls-6" d="M2.15,225.17a.39.39,0,0,1,0,.73,1.4,1.4,0,0,1-1.26,0,.39.39,0,0,1,0-.73A1.4,1.4,0,0,1,2.15,225.17Z"></path><path class="cls-6" d="M107.64,285.72c.35.2.35.52,0,.72a1.38,1.38,0,0,1-1.25,0c-.35-.2-.35-.52,0-.72A1.38,1.38,0,0,1,107.64,285.72Z"></path><ellipse class="cls-6" cx="110.3" cy="284.18" rx="0.89" ry="0.51"></ellipse><path class="cls-6" d="M114.22,281.92c.35.2.35.52,0,.72a1.4,1.4,0,0,1-1.26,0,.38.38,0,0,1,0-.72A1.4,1.4,0,0,1,114.22,281.92Z"></path><ellipse class="cls-6" cx="116.88" cy="280.38" rx="0.89" ry="0.51"></ellipse><path class="cls-6" d="M120.8,278.12a.39.39,0,0,1,0,.73,1.4,1.4,0,0,1-1.26,0,.39.39,0,0,1,0-.73A1.4,1.4,0,0,1,120.8,278.12Z"></path><path class="cls-6" d="M124.09,276.22a.39.39,0,0,1,0,.73,1.4,1.4,0,0,1-1.26,0,.39.39,0,0,1,0-.73A1.4,1.4,0,0,1,124.09,276.22Z"></path><path class="cls-6" d="M127.38,274.32a.39.39,0,0,1,0,.73,1.4,1.4,0,0,1-1.26,0,.39.39,0,0,1,0-.73A1.4,1.4,0,0,1,127.38,274.32Z"></path><path class="cls-6" d="M130.67,272.42a.39.39,0,0,1,0,.73,1.4,1.4,0,0,1-1.26,0,.39.39,0,0,1,0-.73A1.4,1.4,0,0,1,130.67,272.42Z"></path><path class="cls-6" d="M134,270.52a.39.39,0,0,1,0,.73,1.4,1.4,0,0,1-1.26,0,.39.39,0,0,1,0-.73A1.4,1.4,0,0,1,134,270.52Z"></path><path class="cls-6" d="M137.25,268.62a.39.39,0,0,1,0,.73,1.4,1.4,0,0,1-1.26,0c-.35-.2-.35-.52,0-.73A1.4,1.4,0,0,1,137.25,268.62Z"></path><ellipse class="cls-6" cx="139.91" cy="267.09" rx="0.89" ry="0.51"></ellipse><path class="cls-6" d="M143.82,264.83c.35.2.35.52,0,.72a1.38,1.38,0,0,1-1.25,0c-.35-.2-.35-.52,0-.72A1.38,1.38,0,0,1,143.82,264.83Z"></path><path class="cls-6" d="M101.06,285.72c.35.2.35.52,0,.72a1.38,1.38,0,0,1-1.25,0c-.35-.2-.35-.52,0-.72A1.38,1.38,0,0,1,101.06,285.72Z"></path><ellipse class="cls-6" cx="103.73" cy="284.18" rx="0.89" ry="0.51"></ellipse><path class="cls-6" d="M107.64,281.92c.35.2.35.52,0,.72a1.38,1.38,0,0,1-1.25,0c-.35-.2-.35-.52,0-.72A1.38,1.38,0,0,1,107.64,281.92Z"></path><path class="cls-6" d="M110.93,280c.35.2.35.52,0,.72a1.34,1.34,0,0,1-1.26,0,.38.38,0,0,1,0-.72A1.4,1.4,0,0,1,110.93,280Z"></path><path class="cls-6" d="M114.22,278.12a.39.39,0,0,1,0,.73,1.4,1.4,0,0,1-1.26,0,.39.39,0,0,1,0-.73A1.4,1.4,0,0,1,114.22,278.12Z"></path><path class="cls-6" d="M117.51,276.22a.39.39,0,0,1,0,.73,1.4,1.4,0,0,1-1.26,0,.39.39,0,0,1,0-.73A1.4,1.4,0,0,1,117.51,276.22Z"></path><ellipse class="cls-6" cx="120.17" cy="274.68" rx="0.89" ry="0.51"></ellipse><path class="cls-6" d="M124.09,272.42a.39.39,0,0,1,0,.73,1.4,1.4,0,0,1-1.26,0,.39.39,0,0,1,0-.73A1.4,1.4,0,0,1,124.09,272.42Z"></path><ellipse class="cls-6" cx="126.75" cy="270.89" rx="0.89" ry="0.51"></ellipse><path class="cls-6" d="M130.67,268.62a.39.39,0,0,1,0,.73,1.4,1.4,0,0,1-1.26,0c-.35-.2-.35-.52,0-.73A1.4,1.4,0,0,1,130.67,268.62Z"></path><ellipse class="cls-6" cx="133.33" cy="267.09" rx="0.89" ry="0.51"></ellipse><path class="cls-6" d="M137.25,264.83a.38.38,0,0,1,0,.72,1.4,1.4,0,0,1-1.26,0c-.35-.2-.35-.52,0-.72A1.4,1.4,0,0,1,137.25,264.83Z"></path><path class="cls-6" d="M140.53,262.93c.35.2.35.52,0,.72a1.38,1.38,0,0,1-1.25,0c-.35-.2-.35-.52,0-.72A1.38,1.38,0,0,1,140.53,262.93Z"></path><path class="cls-6" d="M97.78,283.82a.38.38,0,0,1,0,.72,1.4,1.4,0,0,1-1.26,0c-.35-.2-.35-.52,0-.72A1.4,1.4,0,0,1,97.78,283.82Z"></path><path class="cls-6" d="M101.06,281.92c.35.2.35.52,0,.72a1.38,1.38,0,0,1-1.25,0c-.35-.2-.35-.52,0-.72A1.38,1.38,0,0,1,101.06,281.92Z"></path><path class="cls-6" d="M94.49,281.92a.38.38,0,0,1,0,.72,1.4,1.4,0,0,1-1.26,0c-.35-.2-.35-.52,0-.72A1.4,1.4,0,0,1,94.49,281.92Z"></path><path class="cls-6" d="M97.78,280a.38.38,0,0,1,0,.72,1.34,1.34,0,0,1-1.26,0c-.35-.2-.35-.52,0-.72A1.4,1.4,0,0,1,97.78,280Z"></path><ellipse class="cls-6" cx="90.54" cy="280.36" rx="0.89" ry="0.51"></ellipse><path class="cls-6" d="M94.46,278.1a.39.39,0,0,1,0,.73,1.4,1.4,0,0,1-1.26,0,.39.39,0,0,1,0-.73A1.4,1.4,0,0,1,94.46,278.1Z"></path><path class="cls-6" d="M87.88,278.1a.39.39,0,0,1,0,.73,1.4,1.4,0,0,1-1.26,0,.39.39,0,0,1,0-.73A1.4,1.4,0,0,1,87.88,278.1Z"></path><ellipse class="cls-6" cx="90.54" cy="276.56" rx="0.89" ry="0.51"></ellipse><ellipse class="cls-6" cx="83.96" cy="276.56" rx="0.89" ry="0.51"></ellipse><path class="cls-6" d="M87.88,274.3a.39.39,0,0,1,0,.73,1.4,1.4,0,0,1-1.26,0,.39.39,0,0,1,0-.73A1.4,1.4,0,0,1,87.88,274.3Z"></path><path class="cls-6" d="M81.3,274.3a.39.39,0,0,1,0,.73A1.4,1.4,0,0,1,80,275a.39.39,0,0,1,0-.73A1.4,1.4,0,0,1,81.3,274.3Z"></path><path class="cls-6" d="M84.59,272.4a.39.39,0,0,1,0,.73,1.4,1.4,0,0,1-1.26,0,.39.39,0,0,1,0-.73A1.4,1.4,0,0,1,84.59,272.4Z"></path><path class="cls-6" d="M78,272.4a.39.39,0,0,1,0,.73,1.4,1.4,0,0,1-1.26,0,.39.39,0,0,1,0-.73A1.4,1.4,0,0,1,78,272.4Z"></path><path class="cls-6" d="M81.3,270.5a.39.39,0,0,1,0,.73,1.4,1.4,0,0,1-1.26,0,.39.39,0,0,1,0-.73A1.4,1.4,0,0,1,81.3,270.5Z"></path><path class="cls-6" d="M74.72,270.5a.39.39,0,0,1,0,.73,1.38,1.38,0,0,1-1.25,0,.39.39,0,0,1,0-.73A1.38,1.38,0,0,1,74.72,270.5Z"></path><ellipse class="cls-6" cx="77.38" cy="268.97" rx="0.89" ry="0.51"></ellipse><ellipse class="cls-6" cx="70.81" cy="268.97" rx="0.89" ry="0.51"></ellipse><path class="cls-6" d="M74.72,266.71c.35.2.35.52,0,.72a1.38,1.38,0,0,1-1.25,0c-.35-.2-.35-.52,0-.72A1.38,1.38,0,0,1,74.72,266.71Z"></path><ellipse class="cls-6" cx="67.52" cy="267.07" rx="0.89" ry="0.51"></ellipse><ellipse class="cls-6" cx="70.81" cy="265.17" rx="0.89" ry="0.51"></ellipse><ellipse class="cls-6" cx="64.2" cy="265.15" rx="0.89" ry="0.51"></ellipse><path class="cls-6" d="M68.12,262.89a.38.38,0,0,1,0,.72,1.4,1.4,0,0,1-1.26,0c-.35-.2-.35-.52,0-.72A1.4,1.4,0,0,1,68.12,262.89Z"></path><path class="cls-6" d="M61.54,262.89c.35.2.35.52,0,.72a1.4,1.4,0,0,1-1.26,0c-.35-.2-.35-.52,0-.72A1.4,1.4,0,0,1,61.54,262.89Z"></path><path class="cls-6" d="M64.83,261a.39.39,0,0,1,0,.73,1.4,1.4,0,0,1-1.26,0c-.35-.21-.35-.53,0-.73A1.4,1.4,0,0,1,64.83,261Z"></path><path class="cls-6" d="M58.25,261c.35.2.35.52,0,.73a1.4,1.4,0,0,1-1.26,0c-.35-.21-.35-.53,0-.73A1.4,1.4,0,0,1,58.25,261Z"></path><path class="cls-6" d="M61.54,259.09a.39.39,0,0,1,0,.73,1.4,1.4,0,0,1-1.26,0,.39.39,0,0,1,0-.73A1.4,1.4,0,0,1,61.54,259.09Z"></path><path class="cls-6" d="M55,259.09a.39.39,0,0,1,0,.73,1.4,1.4,0,0,1-1.26,0,.39.39,0,0,1,0-.73A1.4,1.4,0,0,1,55,259.09Z"></path><path class="cls-6" d="M58.25,257.19a.39.39,0,0,1,0,.73,1.4,1.4,0,0,1-1.26,0,.39.39,0,0,1,0-.73A1.4,1.4,0,0,1,58.25,257.19Z"></path><path class="cls-6" d="M145.86,263a1.4,1.4,0,0,1,1.26,0,.39.39,0,0,1,0,.73,1.4,1.4,0,0,1-1.26,0A.39.39,0,0,1,145.86,263Z"></path><path class="cls-6" d="M150.41,261.05a.39.39,0,0,1,0,.73,1.4,1.4,0,0,1-1.26,0,.39.39,0,0,1,0-.73A1.4,1.4,0,0,1,150.41,261.05Z"></path><path class="cls-6" d="M142.57,261.06a1.37,1.37,0,0,1,1.26,0,.39.39,0,0,1,0,.73,1.4,1.4,0,0,1-1.26,0A.38.38,0,0,1,142.57,261.06Z"></path><ellipse class="cls-6" cx="146.49" cy="259.52" rx="0.89" ry="0.51"></ellipse><ellipse class="cls-6" cx="224.69" cy="259.2" rx="0.89" ry="0.51"></ellipse><path class="cls-6" d="M228.61,256.94c.35.2.35.52,0,.72a1.4,1.4,0,0,1-1.26,0,.38.38,0,0,1,0-.72A1.34,1.34,0,0,1,228.61,256.94Z"></path><path class="cls-6" d="M231.9,255c.35.2.35.52,0,.72a1.4,1.4,0,0,1-1.26,0,.38.38,0,0,1,0-.72A1.4,1.4,0,0,1,231.9,255Z"></path><path class="cls-6" d="M235.19,253.14c.35.2.35.52,0,.72a1.4,1.4,0,0,1-1.26,0,.38.38,0,0,1,0-.72A1.4,1.4,0,0,1,235.19,253.14Z"></path><path class="cls-6" d="M238.48,251.24c.35.2.35.52,0,.72a1.4,1.4,0,0,1-1.26,0c-.35-.2-.35-.52,0-.72A1.4,1.4,0,0,1,238.48,251.24Z"></path><path class="cls-6" d="M241.77,249.34c.35.2.35.52,0,.73a1.4,1.4,0,0,1-1.26,0c-.35-.21-.35-.53,0-.73A1.4,1.4,0,0,1,241.77,249.34Z"></path><path class="cls-6" d="M208.88,264.53a.39.39,0,0,1,0,.73,1.4,1.4,0,0,1-1.26,0,.39.39,0,0,1,0-.73A1.4,1.4,0,0,1,208.88,264.53Z"></path><ellipse class="cls-6" cx="211.54" cy="263" rx="0.89" ry="0.51"></ellipse><ellipse class="cls-6" cx="214.83" cy="261.1" rx="0.89" ry="0.51"></ellipse><path class="cls-6" d="M218.75,258.83a.39.39,0,0,1,0,.73,1.4,1.4,0,0,1-1.26,0,.39.39,0,0,1,0-.73A1.4,1.4,0,0,1,218.75,258.83Z"></path><path class="cls-6" d="M222,256.94c.35.2.35.52,0,.72a1.38,1.38,0,0,1-1.25,0c-.35-.2-.35-.52,0-.72A1.32,1.32,0,0,1,222,256.94Z"></path><path class="cls-6" d="M225.32,255c.35.2.35.52,0,.72a1.38,1.38,0,0,1-1.25,0c-.35-.2-.35-.52,0-.72A1.38,1.38,0,0,1,225.32,255Z"></path><path class="cls-6" d="M228.61,253.14c.35.2.35.52,0,.72a1.4,1.4,0,0,1-1.26,0,.38.38,0,0,1,0-.72A1.4,1.4,0,0,1,228.61,253.14Z"></path><path class="cls-6" d="M231.9,251.24c.35.2.35.52,0,.72a1.4,1.4,0,0,1-1.26,0,.38.38,0,0,1,0-.72A1.4,1.4,0,0,1,231.9,251.24Z"></path><ellipse class="cls-6" cx="234.56" cy="249.7" rx="0.89" ry="0.51"></ellipse><path class="cls-6" d="M238.48,247.44a.39.39,0,0,1,0,.73,1.4,1.4,0,0,1-1.26,0,.39.39,0,0,1,0-.73A1.4,1.4,0,0,1,238.48,247.44Z"></path><path class="cls-6" d="M241.77,245.54a.39.39,0,0,1,0,.73,1.4,1.4,0,0,1-1.26,0,.39.39,0,0,1,0-.73A1.4,1.4,0,0,1,241.77,245.54Z"></path><path class="cls-6" d="M202.3,264.53a.39.39,0,0,1,0,.73,1.4,1.4,0,0,1-1.26,0,.39.39,0,0,1,0-.73A1.4,1.4,0,0,1,202.3,264.53Z"></path><path class="cls-6" d="M205.59,262.63a.39.39,0,0,1,0,.73,1.4,1.4,0,0,1-1.26,0,.39.39,0,0,1,0-.73A1.4,1.4,0,0,1,205.59,262.63Z"></path><path class="cls-6" d="M208.88,260.73a.39.39,0,0,1,0,.73,1.4,1.4,0,0,1-1.26,0,.39.39,0,0,1,0-.73A1.4,1.4,0,0,1,208.88,260.73Z"></path><path class="cls-6" d="M212.17,258.83a.39.39,0,0,1,0,.73,1.4,1.4,0,0,1-1.26,0,.39.39,0,0,1,0-.73A1.4,1.4,0,0,1,212.17,258.83Z"></path><path class="cls-6" d="M215.46,256.94a.38.38,0,0,1,0,.72,1.4,1.4,0,0,1-1.26,0c-.35-.2-.35-.52,0-.72A1.34,1.34,0,0,1,215.46,256.94Z"></path><ellipse class="cls-6" cx="218.12" cy="255.4" rx="0.89" ry="0.51"></ellipse><ellipse class="cls-6" cx="198.38" cy="263" rx="0.89" ry="0.51"></ellipse><path class="cls-6" d="M202.3,260.73a.39.39,0,0,1,0,.73,1.4,1.4,0,0,1-1.26,0,.39.39,0,0,1,0-.73A1.4,1.4,0,0,1,202.3,260.73Z"></path><path class="cls-6" d="M195.69,260.71a.39.39,0,0,1,0,.73,1.4,1.4,0,0,1-1.26,0,.39.39,0,0,1,0-.73A1.4,1.4,0,0,1,195.69,260.71Z"></path><ellipse class="cls-6" cx="198.35" cy="259.18" rx="0.89" ry="0.51"></ellipse><ellipse class="cls-6" cx="191.77" cy="259.18" rx="0.89" ry="0.51"></ellipse><path class="cls-6" d="M195.69,256.92c.35.2.35.52,0,.72a1.4,1.4,0,0,1-1.26,0,.38.38,0,0,1,0-.72A1.34,1.34,0,0,1,195.69,256.92Z"></path><path class="cls-6" d="M243.81,243.67a1.38,1.38,0,0,1,1.25,0c.35.2.35.52,0,.72a1.37,1.37,0,0,1-1.26,0A.39.39,0,0,1,243.81,243.67Z"></path><path class="cls-6" d="M248.36,241.77c.35.2.35.52,0,.72a1.4,1.4,0,0,1-1.26,0c-.35-.2-.35-.52,0-.72A1.4,1.4,0,0,1,248.36,241.77Z"></path><path class="cls-6" d="M251.65,239.87a.39.39,0,0,1,0,.73,1.4,1.4,0,0,1-1.26,0c-.35-.21-.35-.53,0-.73A1.4,1.4,0,0,1,251.65,239.87Z"></path><path class="cls-6" d="M254.94,238a.39.39,0,0,1,0,.73,1.4,1.4,0,0,1-1.26,0,.39.39,0,0,1,0-.73A1.4,1.4,0,0,1,254.94,238Z"></path><path class="cls-6" d="M258.23,236.07a.39.39,0,0,1,0,.73,1.4,1.4,0,0,1-1.26,0,.39.39,0,0,1,0-.73A1.4,1.4,0,0,1,258.23,236.07Z"></path><path class="cls-6" d="M261.51,234.17a.39.39,0,0,1,0,.73,1.38,1.38,0,0,1-1.25,0,.39.39,0,0,1,0-.73A1.38,1.38,0,0,1,261.51,234.17Z"></path><path class="cls-6" d="M264.8,232.27a.39.39,0,0,1,0,.73,1.38,1.38,0,0,1-1.25,0,.39.39,0,0,1,0-.73A1.38,1.38,0,0,1,264.8,232.27Z"></path><path class="cls-6" d="M268.09,230.37a.39.39,0,0,1,0,.73,1.4,1.4,0,0,1-1.26,0,.39.39,0,0,1,0-.73A1.4,1.4,0,0,1,268.09,230.37Z"></path><path class="cls-6" d="M271.38,228.47c.35.21.35.53,0,.73a1.4,1.4,0,0,1-1.26,0,.39.39,0,0,1,0-.73A1.4,1.4,0,0,1,271.38,228.47Z"></path><path class="cls-6" d="M240.52,241.77a1.4,1.4,0,0,1,1.26,0,.39.39,0,0,1,0,.73,1.4,1.4,0,0,1-1.26,0A.39.39,0,0,1,240.52,241.77Z"></path><path class="cls-6" d="M245.07,239.87c.35.2.35.52,0,.73a1.4,1.4,0,0,1-1.26,0c-.35-.21-.35-.53,0-.73A1.4,1.4,0,0,1,245.07,239.87Z"></path><ellipse class="cls-6" cx="247.73" cy="238.33" rx="0.89" ry="0.51"></ellipse><path class="cls-6" d="M251.65,236.07a.39.39,0,0,1,0,.73,1.4,1.4,0,0,1-1.26,0,.39.39,0,0,1,0-.73A1.4,1.4,0,0,1,251.65,236.07Z"></path><ellipse class="cls-6" cx="254.31" cy="234.53" rx="0.89" ry="0.51"></ellipse><path class="cls-6" d="M258.23,232.27a.39.39,0,0,1,0,.73,1.4,1.4,0,0,1-1.26,0,.39.39,0,0,1,0-.73A1.4,1.4,0,0,1,258.23,232.27Z"></path><path class="cls-6" d="M261.51,230.37a.39.39,0,0,1,0,.73,1.38,1.38,0,0,1-1.25,0,.39.39,0,0,1,0-.73A1.38,1.38,0,0,1,261.51,230.37Z"></path><path class="cls-6" d="M264.8,228.47c.35.21.35.53,0,.73a1.38,1.38,0,0,1-1.25,0c-.35-.2-.35-.52,0-.73A1.38,1.38,0,0,1,264.8,228.47Z"></path><path class="cls-6" d="M268.09,226.58c.35.2.35.52,0,.72a1.4,1.4,0,0,1-1.26,0,.38.38,0,0,1,0-.72A1.4,1.4,0,0,1,268.09,226.58Z"></path><path class="cls-6" d="M271.38,224.68c.35.2.35.52,0,.72a1.4,1.4,0,0,1-1.26,0,.38.38,0,0,1,0-.72A1.4,1.4,0,0,1,271.38,224.68Z"></path><path class="cls-6" d="M176.74,280.09c.35.2.35.52,0,.72a1.38,1.38,0,0,1-1.25,0c-.35-.2-.35-.52,0-.72A1.38,1.38,0,0,1,176.74,280.09Z"></path><path class="cls-6" d="M180,278.19c.35.2.35.52,0,.72a1.32,1.32,0,0,1-1.25,0c-.35-.2-.35-.52,0-.72A1.38,1.38,0,0,1,180,278.19Z"></path><ellipse class="cls-6" cx="182.69" cy="276.65" rx="0.89" ry="0.51"></ellipse><path class="cls-6" d="M170.17,280.09a.38.38,0,0,1,0,.72,1.4,1.4,0,0,1-1.26,0c-.35-.2-.35-.52,0-.72A1.4,1.4,0,0,1,170.17,280.09Z"></path><path class="cls-6" d="M173.45,278.19c.35.2.35.52,0,.72a1.32,1.32,0,0,1-1.25,0c-.35-.2-.35-.52,0-.72A1.38,1.38,0,0,1,173.45,278.19Z"></path><path class="cls-6" d="M176.74,276.29a.39.39,0,0,1,0,.73,1.38,1.38,0,0,1-1.25,0,.39.39,0,0,1,0-.73A1.38,1.38,0,0,1,176.74,276.29Z"></path><path class="cls-6" d="M180,274.39a.39.39,0,0,1,0,.73,1.38,1.38,0,0,1-1.25,0,.39.39,0,0,1,0-.73A1.38,1.38,0,0,1,180,274.39Z"></path><path class="cls-6" d="M183.32,272.49a.39.39,0,0,1,0,.73,1.4,1.4,0,0,1-1.26,0,.39.39,0,0,1,0-.73A1.4,1.4,0,0,1,183.32,272.49Z"></path><ellipse class="cls-6" cx="166.25" cy="278.55" rx="0.89" ry="0.51"></ellipse><ellipse class="cls-6" cx="169.54" cy="276.65" rx="0.89" ry="0.51"></ellipse><path class="cls-6" d="M173.45,274.39a.39.39,0,0,1,0,.73,1.38,1.38,0,0,1-1.25,0,.39.39,0,0,1,0-.73A1.38,1.38,0,0,1,173.45,274.39Z"></path><path class="cls-6" d="M176.74,272.49a.39.39,0,0,1,0,.73,1.38,1.38,0,0,1-1.25,0,.39.39,0,0,1,0-.73A1.38,1.38,0,0,1,176.74,272.49Z"></path><path class="cls-6" d="M163.59,276.29a.39.39,0,0,1,0,.73,1.4,1.4,0,0,1-1.26,0,.39.39,0,0,1,0-.73A1.4,1.4,0,0,1,163.59,276.29Z"></path><path class="cls-6" d="M166.88,274.39a.39.39,0,0,1,0,.73,1.4,1.4,0,0,1-1.26,0,.39.39,0,0,1,0-.73A1.4,1.4,0,0,1,166.88,274.39Z"></path><ellipse class="cls-6" cx="159.67" cy="274.75" rx="0.89" ry="0.51"></ellipse><ellipse class="cls-6" cx="162.96" cy="272.85" rx="0.89" ry="0.51"></ellipse><path class="cls-6" d="M157,272.49a.39.39,0,0,1,0,.73,1.4,1.4,0,0,1-1.26,0,.39.39,0,0,1,0-.73A1.4,1.4,0,0,1,157,272.49Z"></path><path class="cls-6" d="M160.3,270.59a.39.39,0,0,1,0,.73,1.4,1.4,0,0,1-1.26,0,.39.39,0,0,1,0-.73A1.4,1.4,0,0,1,160.3,270.59Z"></path><path class="cls-6" d="M153.69,270.57a.39.39,0,0,1,0,.73,1.4,1.4,0,0,1-1.26,0,.39.39,0,0,1,0-.73A1.4,1.4,0,0,1,153.69,270.57Z"></path><path class="cls-6" d="M157,268.67a.39.39,0,0,1,0,.73,1.4,1.4,0,0,1-1.26,0,.39.39,0,0,1,0-.73A1.4,1.4,0,0,1,157,268.67Z"></path><ellipse class="cls-6" cx="149.77" cy="269.04" rx="0.89" ry="0.51"></ellipse><ellipse class="cls-6" cx="153.06" cy="267.14" rx="0.89" ry="0.51"></ellipse><path class="cls-6" d="M150.4,264.88c.35.2.35.52,0,.72a1.4,1.4,0,0,1-1.26,0,.38.38,0,0,1,0-.72A1.34,1.34,0,0,1,150.4,264.88Z"></path><path class="cls-6" d="M35.78,178.46c.35.2.35.52,0,.72a1.4,1.4,0,0,1-1.26,0,.38.38,0,0,1,0-.72A1.4,1.4,0,0,1,35.78,178.46Z"></path><ellipse class="cls-6" cx="38.44" cy="176.92" rx="0.89" ry="0.51"></ellipse><path class="cls-6" d="M42.36,174.66c.35.2.35.52,0,.72a1.34,1.34,0,0,1-1.26,0c-.35-.2-.35-.52,0-.72A1.4,1.4,0,0,1,42.36,174.66Z"></path><path class="cls-6" d="M45.65,172.76c.35.2.35.52,0,.73a1.4,1.4,0,0,1-1.26,0c-.35-.21-.35-.53,0-.73A1.4,1.4,0,0,1,45.65,172.76Z"></path><path class="cls-6" d="M48.94,170.86a.39.39,0,0,1,0,.73,1.4,1.4,0,0,1-1.26,0,.39.39,0,0,1,0-.73A1.4,1.4,0,0,1,48.94,170.86Z"></path><path class="cls-6" d="M29.2,178.46c.35.2.35.52,0,.72a1.4,1.4,0,0,1-1.26,0,.38.38,0,0,1,0-.72A1.4,1.4,0,0,1,29.2,178.46Z"></path><ellipse class="cls-6" cx="31.86" cy="176.92" rx="0.89" ry="0.51"></ellipse><path class="cls-6" d="M35.78,174.66c.35.2.35.52,0,.72a1.34,1.34,0,0,1-1.26,0,.38.38,0,0,1,0-.72A1.4,1.4,0,0,1,35.78,174.66Z"></path><path class="cls-6" d="M39.07,172.76c.35.2.35.52,0,.73a1.4,1.4,0,0,1-1.26,0,.39.39,0,0,1,0-.73A1.4,1.4,0,0,1,39.07,172.76Z"></path><path class="cls-6" d="M42.36,170.86a.39.39,0,0,1,0,.73,1.4,1.4,0,0,1-1.26,0,.39.39,0,0,1,0-.73A1.4,1.4,0,0,1,42.36,170.86Z"></path><path class="cls-6" d="M45.65,169a.39.39,0,0,1,0,.73,1.4,1.4,0,0,1-1.26,0,.39.39,0,0,1,0-.73A1.4,1.4,0,0,1,45.65,169Z"></path><ellipse class="cls-6" cx="48.31" cy="167.43" rx="0.89" ry="0.51"></ellipse><path class="cls-6" d="M25.91,176.56c.35.2.35.52,0,.72a1.38,1.38,0,0,1-1.25,0c-.35-.2-.35-.52,0-.72A1.38,1.38,0,0,1,25.91,176.56Z"></path><path class="cls-6" d="M29.2,174.66c.35.2.35.52,0,.72a1.34,1.34,0,0,1-1.26,0,.38.38,0,0,1,0-.72A1.4,1.4,0,0,1,29.2,174.66Z"></path><path class="cls-6" d="M22.62,174.66c.35.2.35.52,0,.72a1.32,1.32,0,0,1-1.25,0c-.35-.2-.35-.52,0-.72A1.38,1.38,0,0,1,22.62,174.66Z"></path><path class="cls-6" d="M25.91,172.76a.39.39,0,0,1,0,.73,1.38,1.38,0,0,1-1.25,0,.39.39,0,0,1,0-.73A1.38,1.38,0,0,1,25.91,172.76Z"></path><ellipse class="cls-6" cx="18.68" cy="173.1" rx="0.89" ry="0.51"></ellipse><path class="cls-6" d="M22.6,170.84a.39.39,0,0,1,0,.73,1.4,1.4,0,0,1-1.26,0,.39.39,0,0,1,0-.73A1.4,1.4,0,0,1,22.6,170.84Z"></path><ellipse class="cls-6" cx="12.1" cy="169.3" rx="0.89" ry="0.51"></ellipse><path class="cls-6" d="M16,167a.39.39,0,0,1,0,.73,1.4,1.4,0,0,1-1.26,0,.39.39,0,0,1,0-.73A1.4,1.4,0,0,1,16,167Z"></path><path class="cls-6" d="M12.73,165.14a.39.39,0,0,1,0,.73,1.4,1.4,0,0,1-1.26,0,.39.39,0,0,1,0-.73A1.4,1.4,0,0,1,12.73,165.14Z"></path><path class="cls-6" d="M268.14,168.78a.38.38,0,0,1,0,.72,1.4,1.4,0,0,1-1.26,0c-.35-.2-.35-.52,0-.72A1.34,1.34,0,0,1,268.14,168.78Z"></path><ellipse class="cls-6" cx="270.8" cy="167.24" rx="0.89" ry="0.51"></ellipse><path class="cls-6" d="M274.71,165c.35.2.35.52,0,.72a1.38,1.38,0,0,1-1.25,0c-.35-.2-.35-.52,0-.72A1.38,1.38,0,0,1,274.71,165Z"></path><path class="cls-6" d="M281.29,161.18c.35.2.35.52,0,.73a1.38,1.38,0,0,1-1.25,0,.39.39,0,0,1,0-.73A1.38,1.38,0,0,1,281.29,161.18Z"></path><path class="cls-6" d="M261.56,168.78c.35.2.35.52,0,.72a1.4,1.4,0,0,1-1.26,0c-.35-.2-.35-.52,0-.72A1.34,1.34,0,0,1,261.56,168.78Z"></path><ellipse class="cls-6" cx="264.22" cy="167.24" rx="0.89" ry="0.51"></ellipse><path class="cls-6" d="M268.14,165a.38.38,0,0,1,0,.72,1.4,1.4,0,0,1-1.26,0c-.35-.2-.35-.52,0-.72A1.4,1.4,0,0,1,268.14,165Z"></path><path class="cls-6" d="M271.43,163.08a.38.38,0,0,1,0,.72,1.34,1.34,0,0,1-1.26,0c-.35-.2-.35-.52,0-.72A1.4,1.4,0,0,1,271.43,163.08Z"></path><path class="cls-6" d="M278,159.28a.39.39,0,0,1,0,.73,1.38,1.38,0,0,1-1.25,0,.39.39,0,0,1,0-.73A1.38,1.38,0,0,1,278,159.28Z"></path><path class="cls-6" d="M281.29,157.38a.39.39,0,0,1,0,.73,1.38,1.38,0,0,1-1.25,0,.39.39,0,0,1,0-.73A1.38,1.38,0,0,1,281.29,157.38Z"></path><path class="cls-6" d="M258.27,166.88c.35.2.35.52,0,.72a1.4,1.4,0,0,1-1.26,0c-.35-.2-.35-.52,0-.72A1.4,1.4,0,0,1,258.27,166.88Z"></path><path class="cls-6" d="M261.56,165c.35.2.35.52,0,.72a1.4,1.4,0,0,1-1.26,0c-.35-.2-.35-.52,0-.72A1.4,1.4,0,0,1,261.56,165Z"></path><path class="cls-6" d="M255,165c.35.2.35.52,0,.72a1.4,1.4,0,0,1-1.26,0c-.35-.2-.35-.52,0-.72A1.4,1.4,0,0,1,255,165Z"></path><path class="cls-6" d="M258.27,163.08c.35.2.35.52,0,.72a1.34,1.34,0,0,1-1.26,0c-.35-.2-.35-.52,0-.72A1.4,1.4,0,0,1,258.27,163.08Z"></path><ellipse class="cls-6" cx="251.03" cy="163.42" rx="0.89" ry="0.51"></ellipse><path class="cls-6" d="M255,161.16a.39.39,0,0,1,0,.73,1.4,1.4,0,0,1-1.26,0,.39.39,0,0,1,0-.73A1.4,1.4,0,0,1,255,161.16Z"></path><path class="cls-6" d="M248.37,161.16a.39.39,0,0,1,0,.73,1.38,1.38,0,0,1-1.25,0,.39.39,0,0,1,0-.73A1.38,1.38,0,0,1,248.37,161.16Z"></path><ellipse class="cls-6" cx="251.03" cy="159.62" rx="0.89" ry="0.51"></ellipse><ellipse class="cls-6" cx="244.46" cy="159.62" rx="0.89" ry="0.51"></ellipse><path class="cls-6" d="M248.37,157.36a.39.39,0,0,1,0,.73,1.38,1.38,0,0,1-1.25,0,.39.39,0,0,1,0-.73A1.38,1.38,0,0,1,248.37,157.36Z"></path><path class="cls-6" d="M245.08,155.46a.39.39,0,0,1,0,.73,1.38,1.38,0,0,1-1.25,0,.39.39,0,0,1,0-.73A1.38,1.38,0,0,1,245.08,155.46Z"></path><path class="cls-3" d="M238.34,243.86v-7l-11.47-.26L222.34,234a3.49,3.49,0,0,0-3.14.1l-4.11,2.32-10.88-.25v7a.94.94,0,0,0,.53.78L220.21,253a3.49,3.49,0,0,0,3.14-.09l14.21-8A1.27,1.27,0,0,0,238.34,243.86Z"></path><path class="cls-4" d="M223.73,235.06l-2.83,1.59-5.59-.13-.22.13-5.07-.12v6.84a1,1,0,0,0,.54.78l14.07,8.33,12.93-7.29c.53-.3.8-.69.78-1.06v-7l-11.47-.25Z"></path><path class="cls-5" d="M221.61,253.81a3.25,3.25,0,0,1-1.63-.39l-15.47-9.14a1.37,1.37,0,0,1-.75-1.16v-7a.47.47,0,0,1,.48-.47l10.74.24,4-2.25a3.9,3.9,0,0,1,3.59-.09L227,236.2l11.43.26a.37.37,0,0,1,.36.36v7a1.68,1.68,0,0,1-1,1.47l-14.21,8A4.09,4.09,0,0,1,221.61,253.81Zm-17-17.21v6.51c0,.18.2.32.31.39l15.47,9.14a2.31,2.31,0,0,0,1.16.27l0-8.57L234,239.05l3.86-1.7-11.14-.25-4.63-2.74a3.08,3.08,0,0,0-2.69.1l-4.22,2.38Z"></path><path class="cls-3" d="M220.21,246l-15.47-9.14c-.8-.47-.69-1.28.25-1.81l14.21-8a3.49,3.49,0,0,1,3.14-.09l15.46,9.14c.8.47.69,1.28-.24,1.81l-14.21,8A3.49,3.49,0,0,1,220.21,246Z"></path><path class="cls-1" d="M219.27,229.08l-14.21,8a2.53,2.53,0,0,0-.32.21l15.39,9.1a3.49,3.49,0,0,0,3.14-.09l14.21-8a2,2,0,0,0,.32-.22L222.42,229A3.51,3.51,0,0,0,219.27,229.08Z"></path><path class="cls-5" d="M221.61,246.81a3.15,3.15,0,0,1-1.63-.39h0l-15.46-9.14a1.35,1.35,0,0,1-.75-1.19,1.7,1.7,0,0,1,1-1.4l14.21-8a3.92,3.92,0,0,1,3.6-.09L238,235.73a1.38,1.38,0,0,1,.76,1.19,1.71,1.71,0,0,1-1,1.4l-14.21,8A4.09,4.09,0,0,1,221.61,246.81Zm-1.17-1.16a3,3,0,0,0,2.69-.11l14.21-8c.4-.23.54-.48.55-.63s-.2-.33-.32-.4l-15.46-9.15a3,3,0,0,0-2.69.11l-14.21,8c-.4.23-.55.48-.55.63s.19.33.31.4Z"></path><path class="cls-3" d="M220.7,242.18l-9.47-5.61c-.49-.29-.43-.78.15-1.11l8.7-4.9a2.16,2.16,0,0,1,1.93-.06l9.47,5.6c.49.29.42.79-.15,1.11l-8.71,4.91A2.14,2.14,0,0,1,220.7,242.18Z"></path><path class="cls-4" d="M220.08,235.73l-5.41,3,6,3.57a2.14,2.14,0,0,0,1.92-.06l5.41-3.05-6-3.56A2.13,2.13,0,0,0,220.08,235.73Z"></path><path class="cls-5" d="M221.56,242.83a2.15,2.15,0,0,1-1.09-.27L211,237a1,1,0,0,1-.54-.88,1.22,1.22,0,0,1,.7-1l8.71-4.9a2.54,2.54,0,0,1,2.38-.06l9.47,5.6a1,1,0,0,1,.55.88,1.26,1.26,0,0,1-.71,1l-8.7,4.9A2.71,2.71,0,0,1,221.56,242.83Zm-.41-12.08a1.87,1.87,0,0,0-.85.2l-8.7,4.91c-.2.11-.25.21-.25.23s0,0,.11.09l9.47,5.61a1.67,1.67,0,0,0,1.47-.07l8.71-4.9c.2-.12.25-.22.25-.24a.42.42,0,0,0-.11-.09l-9.47-5.6A1.22,1.22,0,0,0,221.15,230.75Z"></path><path class="cls-3" d="M211.23,236.59l1.58.94,7.27-4.1a2.13,2.13,0,0,1,1.93-.06L229.9,238l1.43-.8c.57-.32.64-.82.15-1.11l-9.47-5.6a2.13,2.13,0,0,0-1.93.06l-8.7,4.9C210.8,235.8,210.74,236.3,211.23,236.59Z"></path><path class="cls-5" d="M229.89,238.56l-8.11-4.8a1.72,1.72,0,0,0-1.48.06l-7.5,4.23L211,237a1,1,0,0,1-.55-.88,1.22,1.22,0,0,1,.7-1l8.71-4.91a2.57,2.57,0,0,1,2.38-.05l9.47,5.6a1,1,0,0,1,.55.88,1.23,1.23,0,0,1-.71,1Zm-8.74-5.85a2.12,2.12,0,0,1,1.09.27l7.67,4.53,1.2-.67c.2-.12.25-.22.25-.24a.28.28,0,0,0-.11-.09l-9.47-5.6a1.22,1.22,0,0,0-.63-.14Z"></path><path class="cls-2" d="M227.38,214.29l-6-11.27s-.07,0-.07,0v14.75a0,0,0,0,0,.05,0l6-3.47A0,0,0,0,0,227.38,214.29Z"></path><path class="cls-6" d="M221.4,218.33l-.48-.26,0-.29.16-14.86.55-.44.2.32,6.08,11.55-.3.37Zm.41-13.61v12.33l5-2.91Z"></path><path class="cls-3" d="M215.33,214.29l6-11.27s.06,0,.06,0v14.75s0,0,0,0l-6-3.47S215.32,214.3,215.33,214.29Z"></path><path class="cls-4" d="M217,215.32l4.26,2.48a0,0,0,0,0,.05,0V207.17Z"></path><path class="cls-6" d="M221.34,218.33l-.26-.14-6.26-3.8.11-.31h0l6.42-12.14.52,1-.06.11v15Zm-5.42-4.19,5,2.91V204.72Z"></path><path class="cls-2" d="M227.32,214.44l-5.91,9.06a0,0,0,0,1-.06,0v-5.63s0,0,0,0l5.9-3.44A0,0,0,0,1,227.32,214.44Z"></path><path class="cls-6" d="M221.35,224.37l-.16-1.05-.29.17v-5.88l.23-.16,6.23-3.63.53.53-.19.33Zm.46-6.27v4l4.16-6.4Z"></path><path class="cls-3" d="M215.39,214.44l5.9,9.06s.06,0,.06,0v-5.63a0,0,0,0,0,0,0l-5.91-3.44S215.37,214.41,215.39,214.44Z"></path><path class="cls-6" d="M221.35,224.37l-.43-.62-6.1-9.36.49-.56.35.17,6.13,3.57,0,.29-.19,5.17Zm-4.62-8.7,4.17,6.4v-4Z"></path><polygon class="cls-3" points="221.62 218.05 221.62 217.28 226.83 214.25 226.83 215.02 221.62 218.05"></polygon></g><path class="cls-3" d="M119.88,126.32c-.32,2.1-1.29,4.17-2.85,5s-3.75,2.1-4.46-.87S98.78,116,98.47,116s-10.39-7.51-10.39-7.51.54-2,4.18-3.58a19.29,19.29,0,0,1,12.87-.2c4.39,1.54,7,3.94,10.39,7.88S120.74,120.74,119.88,126.32Z"></path><path class="cls-6" d="M113.6,132.28a2.48,2.48,0,0,1-1.22-1.83c-.69-2.86-13.27-13.94-14-14.32h0c-.61-.29-6.75-4.81-10.43-7.53l-.1-.08,0-.12c0-.09.6-2.12,4.29-3.7a19.54,19.54,0,0,1,13-.21c4.42,1.55,7.09,4,10.47,7.94,3.84,4.49,5.2,8.78,4.41,13.92h0c-.29,1.89-1.22,4.22-2.95,5.09l-.26.13a6.08,6.08,0,0,1-2.52.87A1.7,1.7,0,0,1,113.6,132.28ZM92.34,105c-3,1.29-3.86,2.9-4,3.34,4,2.92,9.85,7.24,10.2,7.4a87.52,87.52,0,0,1,7,6.17c3.1,3,6.87,6.8,7.26,8.41a2.13,2.13,0,0,0,1,1.58c.81.38,2-.22,2.93-.7l.26-.13c1.61-.81,2.47-3,2.75-4.82h0c.77-5-.56-9.22-4.32-13.62-3.34-3.9-6-6.31-10.31-7.83a19.3,19.3,0,0,0-6.22-1A16.9,16.9,0,0,0,92.34,105Z"></path><path class="cls-6" d="M91,105.48a20.32,20.32,0,0,1,14.8,5.18c9,7.59,8.52,16.59,9.29,19.11s3,.59,3.15.49a3.91,3.91,0,0,1-1.23,1c-1.55.79-3.75,2.1-4.47-.87S98.78,116,98.48,116s-10.39-7.51-10.39-7.51A12.93,12.93,0,0,1,91,105.48Z"></path><path class="cls-6" d="M113.61,132.28a2.46,2.46,0,0,1-1.22-1.83c-.69-2.86-13.27-13.94-14-14.32h0c-.62-.29-6.76-4.81-10.43-7.53l-.14-.11.09-.14a13,13,0,0,1,3-3l0,0H91c3.67-.27,9.24.41,14.94,5.23,7.39,6.24,8.43,13.38,9,17.22a14.3,14.3,0,0,0,.36,2,1.44,1.44,0,0,0,.87,1.09c.84.25,1.93-.64,2-.68l.26.26a4,4,0,0,1-1.29,1.06l-.26.13a6,6,0,0,1-2.52.87A1.69,1.69,0,0,1,113.61,132.28Zm2.45-1.13a1.77,1.77,0,0,1-1.12-1.33,15.68,15.68,0,0,1-.37-2C114,124,113,117,105.71,110.8c-5.58-4.71-11-5.4-14.61-5.14a14.06,14.06,0,0,0-2.76,2.74c4,2.92,9.81,7.22,10.17,7.38a89.44,89.44,0,0,1,7,6.17c3.09,3,6.86,6.8,7.25,8.41a2.13,2.13,0,0,0,1,1.58c.82.38,2-.22,2.93-.7l.11-.05A1.68,1.68,0,0,1,116.06,131.15Z"></path><path class="cls-3" d="M116.2,130.85a3.18,3.18,0,0,0,2.28-1.19c.62-.68.71-1.62-.13-2h0a1.37,1.37,0,0,0-1.65.34,1.27,1.27,0,0,1-.5.41s0,0,0-.09a4.22,4.22,0,0,1,.73-2.81,4.65,4.65,0,0,0,.29-4A4.18,4.18,0,0,0,114.3,119a5.9,5.9,0,0,0-1.67-.23,1.39,1.39,0,0,0-.6,2.63h0a.28.28,0,0,1,0,.07s.35-.46,1.66-.1a1.74,1.74,0,0,1,1.24,1,2.17,2.17,0,0,1-.17,1.88c-.38.68-1.57,3-.88,4.89a2.54,2.54,0,0,0,1.54,1.53A2.5,2.5,0,0,0,116.2,130.85Z"></path><path class="cls-6" d="M115.32,130.88a2.71,2.71,0,0,1-1.66-1.65c-.72-1.92.51-4.34.9-5a2,2,0,0,0,.16-1.72,1.55,1.55,0,0,0-1.12-.89c-1.16-.32-1.46,0-1.46,0h0l-.15-.11,0,.09a1.52,1.52,0,0,1-.82-1.74,1.55,1.55,0,0,1,1.5-1.23,6,6,0,0,1,1.73.23,4.41,4.41,0,0,1,3,2.53,4.87,4.87,0,0,1-.31,4.2,4.62,4.62,0,0,0-.74,2.54,2.15,2.15,0,0,0,.25-.26,1.58,1.58,0,0,1,1.89-.38,1.15,1.15,0,0,1,.69.83,1.73,1.73,0,0,1-.51,1.48A3.31,3.31,0,0,1,116.2,131,2.71,2.71,0,0,1,115.32,130.88Zm1.51-2.78c-.25.29-.45.45-.61.47h-.07l-.05,0a.31.31,0,0,1-.14-.18,4.43,4.43,0,0,1,.74-3,4.45,4.45,0,0,0,.29-3.87,4,4,0,0,0-2.74-2.31,5.58,5.58,0,0,0-1.62-.22,1.2,1.2,0,0,0-1.15.94,1.17,1.17,0,0,0,.56,1.29,2.27,2.27,0,0,1,1.66,0,1.94,1.94,0,0,1,1.37,1.11,2.42,2.42,0,0,1-.18,2c-.38.66-1.54,3-.88,4.73a2.36,2.36,0,0,0,1.43,1.43,2.29,2.29,0,0,0,.76.13,3,3,0,0,0,2.14-1.12,1.41,1.41,0,0,0,.42-1.15.8.8,0,0,0-.5-.58,1.24,1.24,0,0,0-.53-.12A1.16,1.16,0,0,0,116.83,128.1Z"></path><path class="cls-9" d="M118.48,126.31a1.22,1.22,0,0,0,1.91-.56,7.64,7.64,0,0,0,.41-2.45,6.46,6.46,0,0,0-.59-2.82,1.23,1.23,0,0,0-2-.36h0a1.22,1.22,0,0,0-.27,1.4,4.08,4.08,0,0,1,.36,1.75,5.65,5.65,0,0,1-.26,1.66,1.24,1.24,0,0,0,.4,1.38Z"></path><path class="cls-6" d="M118.36,126.45h0a1.43,1.43,0,0,1-.46-1.58,5.43,5.43,0,0,0,.26-1.61,3.72,3.72,0,0,0-.35-1.66,1.41,1.41,0,0,1,1.56-2,1.37,1.37,0,0,1,1,.78,6.68,6.68,0,0,1,.61,2.9,7.86,7.86,0,0,1-.42,2.51,1.4,1.4,0,0,1-.93.89,1.39,1.39,0,0,1-.4.06A1.41,1.41,0,0,1,118.36,126.45Zm0-6.19a1,1,0,0,0-.23,1.18,4.2,4.2,0,0,1,.38,1.83,5.54,5.54,0,0,1-.28,1.72,1.07,1.07,0,0,0,.34,1.17h0a1,1,0,0,0,1,.18,1,1,0,0,0,.68-.65,8,8,0,0,0,.4-2.39,6.22,6.22,0,0,0-.58-2.74,1,1,0,0,0-.74-.58h-.2A1,1,0,0,0,118.38,120.26Z"></path><path class="cls-9" d="M117.84,118.81h0a1.23,1.23,0,0,0-.17-2,7.52,7.52,0,0,0-5.29-.88c-.78.14-1.2,0-1.32-.23a.5.5,0,0,1,.07-.54,2.08,2.08,0,0,1,2.08-.72,5.64,5.64,0,0,1,1.37.37,1.22,1.22,0,0,0,1.45-.41h0a1.22,1.22,0,0,0-.51-1.85,7.6,7.6,0,0,0-2-.54,4.54,4.54,0,0,0-4.37,1.7A2.94,2.94,0,0,0,109,117a3.56,3.56,0,0,0,3.84,1.36,5.15,5.15,0,0,1,3.58.55A1.25,1.25,0,0,0,117.84,118.81Z"></path><path class="cls-6" d="M116.3,119.07a5,5,0,0,0-3.46-.53,3.76,3.76,0,0,1-4-1.44,3.13,3.13,0,0,1,.19-3.51,4.76,4.76,0,0,1,4.54-1.77,7.8,7.8,0,0,1,2,.56,1.36,1.36,0,0,1,.81.92,1.41,1.41,0,0,1-1.89,1.69,5.36,5.36,0,0,0-1.33-.36,1.9,1.9,0,0,0-1.9.65.33.33,0,0,0-.06.33c0,.09.36.28,1.13.15a7.64,7.64,0,0,1,5.41.9,1.41,1.41,0,0,1,.69,1.1A1.39,1.39,0,0,1,118,119h0a1.4,1.4,0,0,1-.91.33A1.44,1.44,0,0,1,116.3,119.07Zm1.54-.26-.12-.15a1,1,0,0,0,.36-.87,1,1,0,0,0-.51-.81,7.31,7.31,0,0,0-5.15-.86c-1.11.2-1.44-.19-1.52-.31a.68.68,0,0,1,.08-.75,2.28,2.28,0,0,1,2.25-.8,5.18,5.18,0,0,1,1.42.39,1,1,0,0,0,1.23-.36,1,1,0,0,0-.43-1.57,8.07,8.07,0,0,0-2-.53,4.37,4.37,0,0,0-4.2,1.63,2.74,2.74,0,0,0-.17,3.08,3.39,3.39,0,0,0,3.64,1.28,5.34,5.34,0,0,1,3.72.57,1.05,1.05,0,0,0,1.23-.09Z"></path><path class="cls-9" d="M103.56,111.85a1.24,1.24,0,0,0,1.79.24c1.31-1.09,2.93-2.76,2.78-4.32a2.75,2.75,0,0,0-1.6-2.41,3,3,0,0,0-3.11.63l-.23.18c-.43.35-1.32,1.08-1.65,1,0,0-.19-.1-.38-.44a.12.12,0,0,1,0-.06c0-.16.37-.47.8-.75a1.23,1.23,0,0,0,.48-1.49h0a1.23,1.23,0,0,0-1.79-.59,4.25,4.25,0,0,0-1.81,2A2.41,2.41,0,0,0,99,108a3,3,0,0,0,2.07,1.61c1.43.26,2.65-.74,3.63-1.53l.22-.18c.35-.28.58-.29.61-.28a.76.76,0,0,1,.12.39,6.43,6.43,0,0,1-1.92,2.19,1.24,1.24,0,0,0-.21,1.65Z"></path><path class="cls-6" d="M104.38,112.54a1.42,1.42,0,0,1-1-.58h0a1.42,1.42,0,0,1,.24-1.9,6.74,6.74,0,0,0,1.85-2,.77.77,0,0,0,0-.2,1.48,1.48,0,0,0-.39.23l-.21.17c-1,.82-2.27,1.84-3.79,1.57a3.22,3.22,0,0,1-2.19-1.69,2.63,2.63,0,0,1-.25-2.26,4.3,4.3,0,0,1,1.89-2.14,1.4,1.4,0,0,1,1.18-.15,1.42,1.42,0,0,1,.33,2.55,2.67,2.67,0,0,0-.7.59,1.83,1.83,0,0,0,.25.32c.11,0,.46-.14,1.5-1l.22-.18a3.24,3.24,0,0,1,3.3-.66,3,3,0,0,1,1.72,2.57c.16,1.63-1.46,3.34-2.85,4.48a1.41,1.41,0,0,1-.9.33Zm-.85-6.41-.23.19c-.85.7-1.45,1.12-1.79,1.05-.15,0-.33-.21-.51-.52a.21.21,0,0,1,0-.12v-.07c0-.29.58-.67.89-.87a1.07,1.07,0,0,0,.41-1.27,1.05,1.05,0,0,0-.66-.61,1,1,0,0,0-.86.11A4.1,4.1,0,0,0,99,106a2.29,2.29,0,0,0,.22,2,2.89,2.89,0,0,0,1.94,1.52c1.35.24,2.53-.73,3.49-1.5l.21-.17c.4-.32.68-.35.79-.32l0,0,0,0a.84.84,0,0,1,.17.53c-.05.5-1,1.52-2,2.32a1,1,0,0,0-.17,1.4h0a1,1,0,0,0,.71.43,1,1,0,0,0,.8-.23c1.32-1.08,2.86-2.69,2.72-4.15a2.59,2.59,0,0,0-1.5-2.26,2.34,2.34,0,0,0-.91-.18A3.25,3.25,0,0,0,103.53,106.13Z"></path><path class="cls-3" d="M107.2,113.58a1.22,1.22,0,0,0,1.48-.33,7.11,7.11,0,0,1,1.17-1.15,6,6,0,0,1,1.86-.84,1.2,1.2,0,0,0,.84-1.33v-.07a1.2,1.2,0,0,0-1.52-1,8.33,8.33,0,0,0-2.67,1.27,9.55,9.55,0,0,0-1.6,1.56,1.2,1.2,0,0,0,.39,1.83Z"></path><path class="cls-6" d="M107.12,113.75l-.07,0a1.39,1.39,0,0,1-.73-.94,1.42,1.42,0,0,1,.28-1.16,9.94,9.94,0,0,1,1.64-1.6,8.75,8.75,0,0,1,2.73-1.3,1.37,1.37,0,0,1,1.13.17,1.35,1.35,0,0,1,.62,1l0,.07a1.39,1.39,0,0,1-1,1.53,5.76,5.76,0,0,0-1.79.82,7.17,7.17,0,0,0-1.15,1.12,1.4,1.4,0,0,1-1.08.52A1.34,1.34,0,0,1,107.12,113.75Zm3.95-4.68a8.17,8.17,0,0,0-2.6,1.24,9.55,9.55,0,0,0-1.58,1.53,1,1,0,0,0,.33,1.54l.06,0a1,1,0,0,0,1.25-.27,7.11,7.11,0,0,1,1.21-1.18,5.9,5.9,0,0,1,1.92-.88,1,1,0,0,0,.71-1.12v-.07a1,1,0,0,0-1-.86A.92.92,0,0,0,111.07,109.07Z"></path><path class="cls-3" d="M112.51,133.59c-.79,1.45-3.26,4-7.94,4.53-4.34.53-9.17-.66-15-3.89s-10.94-5.62-10.23-13.73,5.68-11.12,7.88-12,6.82-.9,10.49,1c3.22,1.65,9.24,6,12.26,11.49C112.8,126.15,113.84,131.13,112.51,133.59Z"></path><path class="cls-6" d="M89.46,134.39l-.81-.44c-5.48-3-10.21-5.61-9.52-13.47.73-8.33,5.84-11.29,8-12.17,2.39-1,7-.88,10.65,1,2.88,1.48,9.18,5.79,12.34,11.56,2.9,5.3,3.9,10.34,2.55,12.83h0c-1,1.8-3.67,4.08-8.08,4.62a16.69,16.69,0,0,1-2,.12C98.67,138.42,94.35,137.1,89.46,134.39Zm22.89-.89c1.29-2.38.28-7.27-2.56-12.47-3.11-5.69-9.33-10-12.18-11.41-3.49-1.78-8.08-1.89-10.33-1-2.1.86-7.06,3.74-7.78,11.87-.67,7.61,3.75,10,9.33,13.1l.81.45c5.67,3.13,10.55,4.39,14.9,3.86s6.87-2.71,7.81-4.43Z"></path><path class="cls-6" d="M87.21,108.43c.17-.07.35-.13.55-.19-3.17,2.72-3.38,7.29-1.73,14a29,29,0,0,0,9.25,14.58,29,29,0,0,1-5.73-2.68c-5.84-3.23-10.94-5.61-10.23-13.72S85,109.34,87.21,108.43Z"></path><path class="cls-6" d="M95.23,137a27.67,27.67,0,0,1-5.61-2.61l-1-.53c-5.48-3-10.21-5.61-9.52-13.46.73-8.34,5.84-11.29,8-12.18h0a4.72,4.72,0,0,1,.57-.19l.84-.25-.67.57c-2.93,2.5-3.43,6.65-1.67,13.84a28.89,28.89,0,0,0,9.16,14.47l1.11.69ZM79.5,120.47c-.66,7.61,3.75,10,9.33,13.11l1,.53a36.37,36.37,0,0,0,4.65,2.29,29.52,29.52,0,0,1-8.6-14.08c-1.67-6.79-1.34-10.93,1.13-13.59C84.74,109.73,80.19,112.7,79.5,120.47Z"></path><path class="cls-9" d="M104.12,137.43c.33,0,.67,0,1-.05,2.53-.27,4.46-1.25,5.31-2.69a2.84,2.84,0,0,0,.23-2.6c-.79-1.88-3.84-1.58-6.66-.81a1.23,1.23,0,0,0-.85,1.56h0a1.22,1.22,0,0,0,1.48.82,11,11,0,0,1,3.77-.47.88.88,0,0,1-.09.26c-.35.57-1.43,1.27-3.46,1.48a4,4,0,0,1-3.57-1,1.78,1.78,0,0,1-.21-1.78c.38-1.1,4-1.9,7-1.93l2.22,0a.74.74,0,0,0,.3-1.41l-2-.91s-2-1-1.64-2.18a1.71,1.71,0,0,1,1.35-1.08,2.21,2.21,0,0,1,2,.51,1.51,1.51,0,0,1,.36,1.2,1.19,1.19,0,0,0,.63,1.15h0a1.23,1.23,0,0,0,1.8-1,3.93,3.93,0,0,0-1-3,4.66,4.66,0,0,0-4.37-1.28,4.09,4.09,0,0,0-3.17,2.71A3.43,3.43,0,0,0,105,128c-2.46.35-5.53,1.22-6.27,3.37a4.2,4.2,0,0,0,.62,4.1A5.86,5.86,0,0,0,104.12,137.43Z"></path><path class="cls-6" d="M99.24,135.6a4.38,4.38,0,0,1-.64-4.29c.74-2.15,3.68-3.06,6.13-3.44a3.59,3.59,0,0,1-.3-3,4.28,4.28,0,0,1,3.32-2.83,4.82,4.82,0,0,1,4.54,1.33,4.15,4.15,0,0,1,1,3.14,1.44,1.44,0,0,1-.73,1.14,1.42,1.42,0,0,1-1.37,0,1.34,1.34,0,0,1-.73-1.33,1.31,1.31,0,0,0-.32-1,2.06,2.06,0,0,0-1.87-.46,1.53,1.53,0,0,0-1.2,1c-.34,1,1.52,1.94,1.54,2l2,.91a.93.93,0,0,1-.37,1.77l-2.22,0c-3.25,0-6.5.9-6.81,1.81a1.61,1.61,0,0,0,.18,1.61,3.85,3.85,0,0,0,3.4.91c2-.21,3-.89,3.31-1.4h0a13,13,0,0,0-3.48.5,1.41,1.41,0,0,1-1.7-1,1.43,1.43,0,0,1,.1-1.11,1.4,1.4,0,0,1,.88-.68c3.86-1,6.18-.74,6.88.91a3.07,3.07,0,0,1-.25,2.78c-.88,1.49-2.87,2.5-5.46,2.77a8.89,8.89,0,0,1-1,.06A6.05,6.05,0,0,1,99.24,135.6Zm4.83-4.14a1,1,0,0,0-.64.5,1,1,0,0,0,1.18,1.52,10.89,10.89,0,0,1,3.87-.47l.16,0,0,.17a1.15,1.15,0,0,1-.12.32c-.37.62-1.5,1.36-3.6,1.58a4.24,4.24,0,0,1-3.74-1.05,2,2,0,0,1-.24-2c.45-1.3,4.45-2,7.17-2.06l2.22,0a.56.56,0,0,0,.54-.44.54.54,0,0,0-.32-.62l-2-.91s-2.2-1-1.75-2.41a1.9,1.9,0,0,1,1.49-1.21,2.44,2.44,0,0,1,2.22.58,1.71,1.71,0,0,1,.41,1.33,1,1,0,0,0,.56,1,1.05,1.05,0,0,0,1,0,1,1,0,0,0,.53-.84,3.74,3.74,0,0,0-.94-2.86,4.48,4.48,0,0,0-4.2-1.22,3.92,3.92,0,0,0-3,2.59,3.25,3.25,0,0,0,.4,2.92l.16.25-.29,0c-2.4.34-5.4,1.18-6.11,3.24a4,4,0,0,0,.58,3.93,5.68,5.68,0,0,0,4.59,1.87,8.58,8.58,0,0,0,1-.05c2.47-.26,4.35-1.2,5.17-2.59a2.7,2.7,0,0,0,.22-2.44c-.4-1-1.48-1.29-2.77-1.29A14.93,14.93,0,0,0,104.07,131.46Z"></path><path class="cls-3" d="M111.48,134.36a1.19,1.19,0,0,0,1.89-.2,4.33,4.33,0,0,0,.65-2.07,4.67,4.67,0,0,0-.19-1.43,1.2,1.2,0,0,0-1.76-.73l-.06,0a1.2,1.2,0,0,0-.55,1.34,2.5,2.5,0,0,1,.11.71,1.92,1.92,0,0,1-.29.85,1.2,1.2,0,0,0,.15,1.45Z"></path><path class="cls-6" d="M111.34,134.49l0-.05a1.4,1.4,0,0,1-.19-1.67,1.74,1.74,0,0,0,.27-.77,2.1,2.1,0,0,0-.1-.65,1.39,1.39,0,0,1,.64-1.55l0,0a1.38,1.38,0,0,1,1.22-.09,1.35,1.35,0,0,1,.82.93,5,5,0,0,1,.2,1.49,4.47,4.47,0,0,1-.68,2.16,1.35,1.35,0,0,1-1,.65h-.16A1.39,1.39,0,0,1,111.34,134.49Zm.82-4.4,0,0a1,1,0,0,0-.47,1.13,2.47,2.47,0,0,1,.11.77,2.07,2.07,0,0,1-.31.94,1,1,0,0,0,.13,1.22l0,0a1,1,0,0,0,.86.31,1,1,0,0,0,.74-.47,4.24,4.24,0,0,0,.63-2,4.52,4.52,0,0,0-.19-1.37,1,1,0,0,0-.6-.68,1,1,0,0,0-.38-.08A1.06,1.06,0,0,0,112.16,130.09Z"></path><path class="cls-3" d="M97.17,137.13A1.22,1.22,0,0,0,98.73,136a3.1,3.1,0,0,0-.62-2.16,2.28,2.28,0,0,0-2.08-.72,2.67,2.67,0,0,1-2-.32.78.78,0,0,1-.21-.7,1.41,1.41,0,0,1,.77-1.14,1.2,1.2,0,0,0,.55-1.29l0-.06a1.2,1.2,0,0,0-1.78-.77,3.83,3.83,0,0,0-2,3.14,3.22,3.22,0,0,0,1,2.63,4.85,4.85,0,0,0,3.94,1,1.33,1.33,0,0,1,0,.35,1.22,1.22,0,0,0,.9,1.22Z"></path><path class="cls-6" d="M97.12,137.31h0a1.4,1.4,0,0,1-1-1.41v-.13a5,5,0,0,1-3.89-1A3.4,3.4,0,0,1,91.13,132a4,4,0,0,1,2.07-3.29,1.33,1.33,0,0,1,1.24-.09,1.44,1.44,0,0,1,.83,1v.07a1.37,1.37,0,0,1-.64,1.48,1.27,1.27,0,0,0-.68,1c0,.4.11.51.16.56a2.54,2.54,0,0,0,1.89.27,2.41,2.41,0,0,1,2.24.78,3.26,3.26,0,0,1,.67,2.28,1.38,1.38,0,0,1-.58,1.1,1.42,1.42,0,0,1-.83.27A1.27,1.27,0,0,1,97.12,137.31Zm-1.07-4a2.91,2.91,0,0,1-2.19-.37,1,1,0,0,1-.27-.85,1.62,1.62,0,0,1,.86-1.29,1,1,0,0,0,.47-1.09l0-.06a1,1,0,0,0-1.51-.66,3.67,3.67,0,0,0-1.88,3,3,3,0,0,0,.94,2.48,4.69,4.69,0,0,0,3.79.92l.18,0,0,.18c0,.1,0,.23,0,.37a1,1,0,0,0,.76,1h0a1,1,0,0,0,.9-.16,1,1,0,0,0,.43-.81,2.89,2.89,0,0,0-.58-2,2,2,0,0,0-1.56-.68A2.23,2.23,0,0,0,96.05,133.3Z"></path><path class="cls-9" d="M89.61,131a2.1,2.1,0,0,0,.56-.08c1.28-.39,2.44-2.19,1.53-6-.45-1.84.62-2.7,2.43-3.9,1.21-.8,2.71-1.8,2.26-3.5a2.65,2.65,0,0,0-1.77-1.92c-1.86-.58-4.19.79-5.27,1.7l-1.1,1a1.24,1.24,0,0,0,.07,1.89l.85.65h0a18.32,18.32,0,0,1,1.76-1.6,4.48,4.48,0,0,1,2.95-1.25s.07,0,.1.12a8.21,8.21,0,0,1-1.21.91c-1.62,1.07-4.34,2.87-3.47,6.52a6.58,6.58,0,0,1,.2,2.71c0-.07-.07-.15-.1-.24-.64-1.77-1.72-4.75-4.61-4.33a2.66,2.66,0,0,0-2.05,1.61,3.08,3.08,0,0,0-.23,1.75,1.24,1.24,0,0,0,1.91.81h0a1.25,1.25,0,0,0,.52-1.22.79.79,0,0,1,0-.35c0-.1.12-.16.17-.16.49-.07,1,.08,1.94,2.73C87.67,130.32,88.69,131,89.61,131Z"></path><path class="cls-6" d="M86.92,128.8c-1-2.73-1.43-2.66-1.72-2.63l0,.07a.65.65,0,0,0,0,.25,1.48,1.48,0,0,1-.61,1.4,1.42,1.42,0,0,1-1.37.12,1.38,1.38,0,0,1-.82-1.06,3.26,3.26,0,0,1,.24-1.86,2.86,2.86,0,0,1,2.2-1.71c2.74-.4,3.92,2.08,4.61,3.91a8.34,8.34,0,0,0-.26-1.82c-.9-3.78,1.88-5.62,3.54-6.73a10.69,10.69,0,0,0,1-.71h0a4.94,4.94,0,0,0-2.6,1.23,21.34,21.34,0,0,0-1.74,1.58l-.12.14-1-.77a1.41,1.41,0,0,1-.55-1.06,1.43,1.43,0,0,1,.47-1.1c.31-.29.68-.61,1.1-1,1.11-.93,3.51-2.35,5.45-1.74a2.84,2.84,0,0,1,1.89,2.05c.49,1.83-1.15,2.91-2.34,3.7-1.9,1.26-2.75,2-2.35,3.71.94,4-.3,5.84-1.66,6.25a2,2,0,0,1-.61.09h0A3.07,3.07,0,0,1,86.92,128.8Zm2.55-11.42c-.41.34-.78.66-1.09.94a1.05,1.05,0,0,0,.06,1.6l.7.55c.21-.21.69-.67,1.67-1.5s2.5-1.47,3.13-1.27c.07,0,.15.06.22.22l0,.1-.07.08a7.5,7.5,0,0,1-1.26,1c-1.58,1-4.23,2.8-3.38,6.32a6.69,6.69,0,0,1,.19,2.78l-.11.56-.24-.51a1.57,1.57,0,0,1-.1-.26c-.63-1.72-1.69-4.6-4.41-4.2a2.49,2.49,0,0,0-1.91,1.49,2.9,2.9,0,0,0-.21,1.65,1,1,0,0,0,.6.78,1.05,1.05,0,0,0,1.46-1.14.91.91,0,0,1,0-.44.47.47,0,0,1,.31-.28c.7-.1,1.22.32,2.15,2.86.48,1.32,1.35,2.1,2.34,2.1a1.79,1.79,0,0,0,.51-.07c1.19-.36,2.28-2.1,1.39-5.8-.46-2,.69-2.9,2.51-4.11,1.23-.81,2.61-1.72,2.19-3.29a2.46,2.46,0,0,0-1.65-1.79,3,3,0,0,0-.9-.13A7.38,7.38,0,0,0,89.47,117.38Z"></path><path class="cls-9" d="M89.55,134.23h0a.91.91,0,0,0,.89-1l0-.22h0v-.06a1.47,1.47,0,0,0-1.19-1.2,2.84,2.84,0,0,1-1.42-.67,3.41,3.41,0,0,1-.87-1.17,1.22,1.22,0,0,0-1.1-.74h-.09a1.19,1.19,0,0,0-1.09,1.65,5.68,5.68,0,0,0,1.5,2.08A4.8,4.8,0,0,0,89.55,134.23Z"></path><path class="cls-6" d="M86,133a5.94,5.94,0,0,1-1.54-2.15,1.37,1.37,0,0,1,1.26-1.9h.09a1.41,1.41,0,0,1,1.27.84,3.2,3.2,0,0,0,.82,1.11,2.67,2.67,0,0,0,1.33.63,1.64,1.64,0,0,1,1.34,1.35l0,.28a1.1,1.1,0,0,1-1.07,1.26h0A5,5,0,0,1,86,133Zm-.28-3.68a1,1,0,0,0-.83.45,1,1,0,0,0-.09.94,5.53,5.53,0,0,0,1.45,2A4.6,4.6,0,0,0,89.55,134v.19l0-.19a.71.71,0,0,0,.54-.25.68.68,0,0,0,.16-.58l0-.27a1.26,1.26,0,0,0-1-1.05,3,3,0,0,1-1.52-.71,3.68,3.68,0,0,1-.91-1.24,1,1,0,0,0-.93-.62Z"></path><path class="cls-3" d="M81.33,124a4.58,4.58,0,0,0,2.15-.72,12.32,12.32,0,0,1,1.15-.56,1.78,1.78,0,0,1,1.81.21,1.1,1.1,0,0,0,1.24.07l.07,0a1.23,1.23,0,0,0,.08-2.06,4.16,4.16,0,0,0-4.1-.46,13.63,13.63,0,0,0-1.42.68c-.91.49-.94.47-1.12.33l0,0c0-.08.17-.6,1.14-1.28a4.58,4.58,0,0,1,2.39-.61,1.22,1.22,0,0,0,1.19-1h0A1.22,1.22,0,0,0,84.65,117a6.75,6.75,0,0,0-3.76,1.06,4.42,4.42,0,0,0-2.19,3.2,2.43,2.43,0,0,0,.93,2A2.59,2.59,0,0,0,81.33,124Z"></path><path class="cls-6" d="M79.51,123.46a2.64,2.64,0,0,1-1-2.18,4.58,4.58,0,0,1,2.26-3.35,7.08,7.08,0,0,1,3.86-1.09,1.38,1.38,0,0,1,1.08.48,1.42,1.42,0,0,1-1,2.36,4.39,4.39,0,0,0-2.28.58,2.92,2.92,0,0,0-1,1c.07,0,.23,0,.85-.38a14,14,0,0,1,1.44-.7,4.31,4.31,0,0,1,4.27.49,1.39,1.39,0,0,1,.6,1.21,1.43,1.43,0,0,1-.68,1.16l-.07,0a1.3,1.3,0,0,1-1.45-.08,1.58,1.58,0,0,0-1.63-.18,9.89,9.89,0,0,0-1.13.55,4.84,4.84,0,0,1-2.24.74A2.87,2.87,0,0,1,79.51,123.46Zm7-.71a.93.93,0,0,0,1,.06l.07,0a1,1,0,0,0,.51-.86,1.05,1.05,0,0,0-.44-.89,4,4,0,0,0-3.92-.44,14.35,14.35,0,0,0-1.4.67c-.9.49-1,.54-1.33.31l0,0-.07,0v-.11c0-.15.21-.73,1.22-1.43a4.69,4.69,0,0,1,2.49-.65,1,1,0,0,0,1-.88,1,1,0,0,0-.25-.85,1,1,0,0,0-.79-.36,6.73,6.73,0,0,0-3.66,1,4.23,4.23,0,0,0-2.1,3.06,2.27,2.27,0,0,0,.86,1.87,2.4,2.4,0,0,0,1.58.62,4.51,4.51,0,0,0,2.06-.7,10.61,10.61,0,0,1,1.17-.57,2.28,2.28,0,0,1,.83-.17A1.93,1.93,0,0,1,86.55,122.75Z"></path><path class="cls-9" d="M109.39,120.86h0a1.22,1.22,0,0,0,.58-1.71,19,19,0,0,0-4-5.14c-2.06-1.79-4.2-1.66-5.41-.74a2.85,2.85,0,0,0-.74,3.63h0a4.5,4.5,0,0,1-1.18.17,1.23,1.23,0,0,0-1.17,1.1h0a1.22,1.22,0,0,0,1.25,1.36,4,4,0,0,0,3.22-1.26,2.3,2.3,0,0,0,.07-2.48c-.19-.39,0-.52,0-.57.32-.24,1.23-.29,2.3.64a16.85,16.85,0,0,1,3.41,4.47A1.22,1.22,0,0,0,109.39,120.86Z"></path><path class="cls-6" d="M107.65,120.42a17.07,17.07,0,0,0-3.37-4.42c-1-.89-1.84-.81-2.07-.63,0,0-.11.09,0,.34a2.52,2.52,0,0,1-.08,2.67c-.73,1-2.24,1.3-3.37,1.34a1.38,1.38,0,0,1-1.07-.45,1.42,1.42,0,0,1,1-2.39,5.38,5.38,0,0,0,.92-.1,3,3,0,0,1,.89-3.66c1.27-1,3.5-1.11,5.64.75a19.5,19.5,0,0,1,4,5.19,1.42,1.42,0,0,1-.66,2,1.31,1.31,0,0,1-.57.13A1.41,1.41,0,0,1,107.65,120.42Zm-6.93-7a2.67,2.67,0,0,0-.7,3.39l.06.13,0,0v0l-.12,0a4.28,4.28,0,0,1-1.23.19A1.05,1.05,0,0,0,98,119a1,1,0,0,0,.79.33,4,4,0,0,0,3.07-1.18,2.16,2.16,0,0,0,.06-2.29c-.17-.36-.14-.63.1-.81s1.37-.36,2.53.65a17.6,17.6,0,0,1,3.46,4.52,1,1,0,0,0,1.34.45h0a1,1,0,0,0,.56-.62,1,1,0,0,0-.07-.83,19.26,19.26,0,0,0-3.92-5.09,4.94,4.94,0,0,0-3.22-1.36A3.16,3.16,0,0,0,100.72,113.42Z"></path><path class="cls-3" d="M92.08,124c.39-1.37,1.85-2.5,4.46-3.44a9.61,9.61,0,0,1,6.08-.27h0a5.34,5.34,0,0,0,1.75.28,2.57,2.57,0,0,0-1-1.23A1,1,0,0,1,103,118l.15-.31a1.07,1.07,0,0,1,1.59-.39,4.26,4.26,0,0,1,2,3.62,2.16,2.16,0,0,1-1,1.67,3.23,3.23,0,0,1-1.69.41,8,8,0,0,1-2.55-.49,7.45,7.45,0,0,0-4.24.32c-2.62.94-2.9,1.71-2.92,1.79s0,.22.16.39a.88.88,0,0,0,.1.1,5.23,5.23,0,0,0,1.24-.62c.33-.18.69-.4,1.09-.6,1.55-.8,4.7-1.2,6.32,0a2.44,2.44,0,0,1,1,2.38c-.33,2.21-2,2.23-2.93,2.24a4,4,0,0,0-2.15.45,1.84,1.84,0,0,0-1,1.84,1.08,1.08,0,0,1-.71,1.07l-.3.11h0a1.06,1.06,0,0,1-1.43-.92,4.25,4.25,0,0,1,2.22-4.25,6.47,6.47,0,0,1,3.31-.76h.5a.51.51,0,0,0,0-.13v0c-.42-.37-2.56-.39-3.77.23-.34.18-.66.36-1,.55-1.21.7-3,1.77-4.51-.08A2.78,2.78,0,0,1,92.08,124Z"></path><path class="cls-6" d="M96.26,132a1.24,1.24,0,0,1-.57-.95A4.47,4.47,0,0,1,98,126.61a6.46,6.46,0,0,1,3.29-.77,5.75,5.75,0,0,0-3,.42c-.34.17-.65.36-1,.54-1.18.69-3.16,1.85-4.74-.12a3,3,0,0,1-.65-2.75h0c.41-1.44,1.9-2.6,4.57-3.57a9.89,9.89,0,0,1,6.22-.27l.09,0a6.13,6.13,0,0,0,1.33.25,3.05,3.05,0,0,0-.86-.9,1.25,1.25,0,0,1-.38-1.54l.16-.31a1.19,1.19,0,0,1,.82-.66,1.24,1.24,0,0,1,1,.2A4.45,4.45,0,0,1,107,121a2.33,2.33,0,0,1-1.07,1.8,3.28,3.28,0,0,1-1.79.45,8.14,8.14,0,0,1-2.59-.5,7.29,7.29,0,0,0-4.14.32c-2.56.92-2.8,1.66-2.8,1.66s0,.06.13.22v0a8.3,8.3,0,0,0,1.09-.58c.33-.19.69-.4,1.1-.61,1.59-.82,4.83-1.22,6.51,0a2.59,2.59,0,0,1,1.08,2.56c-.35,2.37-2.21,2.39-3.11,2.39a4,4,0,0,0-2.06.43,1.65,1.65,0,0,0-.88,1.67,1.25,1.25,0,0,1-.82,1.26l-.3.11a1.35,1.35,0,0,1-.44.07A1.2,1.2,0,0,1,96.26,132Zm.87-7.93c-.4.2-.76.42-1.08.61a5.45,5.45,0,0,1-1.32.64h-.08l-.06,0a.87.87,0,0,1-.12-.14c-.18-.22-.25-.39-.2-.55s.39-1,3-1.91a7.5,7.5,0,0,1,4.36-.32,8.21,8.21,0,0,0,2.49.48,2.93,2.93,0,0,0,1.59-.39,2,2,0,0,0,.9-1.52,4.09,4.09,0,0,0-2-3.46.89.89,0,0,0-1.31.32l-.15.32a.87.87,0,0,0,.26,1.08,2.8,2.8,0,0,1,1.09,1.34l0,.2-.2,0a5.73,5.73,0,0,1-1.82-.29l-.18-.07a9.67,9.67,0,0,0-5.79.32c-2.55.92-4,2-4.34,3.32h0a2.62,2.62,0,0,0,.58,2.42c1.38,1.71,3,.74,4.26,0,.31-.19.63-.38,1-.55,1.22-.63,3.48-.66,4-.2l.07.08v.1l0,.14,0,.13h-.13l-.52,0a6.26,6.26,0,0,0-3.22.73A4.11,4.11,0,0,0,96.06,131a.87.87,0,0,0,.4.67.88.88,0,0,0,.79.08l.3-.1a.89.89,0,0,0,.58-.89,2,2,0,0,1,1.07-2,4.29,4.29,0,0,1,2.24-.48c.91,0,2.44,0,2.74-2.08a2.21,2.21,0,0,0-.93-2.19,4.62,4.62,0,0,0-2.68-.69A8.1,8.1,0,0,0,97.13,124.07Z"></path><path class="cls-9" d="M84.26,111.31a1.23,1.23,0,0,0,1.56.19,8.79,8.79,0,0,1,4.69-1.41h0a11.87,11.87,0,0,1,4.75.83,1.23,1.23,0,0,0,1.43-.33h0a1.23,1.23,0,0,0-.46-1.93,14,14,0,0,0-5.72-1h0a11.29,11.29,0,0,0-6,1.8,1.23,1.23,0,0,0-.23,1.88l.75.79-.85-.89Z"></path><path class="cls-6" d="M84.16,111.47l0,0-.09-.1h0a1.4,1.4,0,0,1-.28-1,1.42,1.42,0,0,1,.64-1,11.38,11.38,0,0,1,6.15-1.82,14.55,14.55,0,0,1,5.8,1,1.43,1.43,0,0,1,.82,1,1.41,1.41,0,0,1-1.94,1.62,11.74,11.74,0,0,0-4.71-.81,8.52,8.52,0,0,0-4.59,1.38,1.42,1.42,0,0,1-.87.22l.09.09-.27.26Zm11.21-.72a1,1,0,1,0,.82-1.92,14.1,14.1,0,0,0-5.68-1,10.93,10.93,0,0,0-5.92,1.77,1.05,1.05,0,0,0-.47.75,1,1,0,0,0,.27.84l0,0a1.06,1.06,0,0,0,1.3.14,8.88,8.88,0,0,1,4.82-1.44A12,12,0,0,1,95.37,110.75Z"></path><path class="cls-3" d="M80.59,116a1.23,1.23,0,0,0,1.45.7,9.36,9.36,0,0,1,4.15-.24c2.3.43,3.84.18,4.72-.77a2.92,2.92,0,0,0,.51-2.92,2.26,2.26,0,0,0-1.11-1.39,3.86,3.86,0,0,0-2.11-.33,1.24,1.24,0,0,0-1.08,1.6h0a1.22,1.22,0,0,0,1.28.85,2.29,2.29,0,0,1,.67,0,.91.91,0,0,1,0,.51s-.44.39-2.46,0a12,12,0,0,0-5.24.28,1.23,1.23,0,0,0-.81,1.68Z"></path><path class="cls-6" d="M80.42,116.1a1.47,1.47,0,0,1,0-1.18,1.44,1.44,0,0,1,.91-.76,12.17,12.17,0,0,1,5.33-.28,4.41,4.41,0,0,0,2.25.06,1.3,1.3,0,0,0,0-.24,2.79,2.79,0,0,0-.49,0,1.44,1.44,0,0,1-1.48-1,1.4,1.4,0,0,1,.17-1.21,1.43,1.43,0,0,1,1.07-.63,3.94,3.94,0,0,1,2.22.35,2.46,2.46,0,0,1,1.2,1.5,3.09,3.09,0,0,1-.56,3.1c-.92,1-2.52,1.27-4.89.82a9.4,9.4,0,0,0-4.07.24,1.49,1.49,0,0,1-.36,0A1.43,1.43,0,0,1,80.42,116.1Zm5.8.19c2.23.43,3.72.19,4.55-.7a2.75,2.75,0,0,0,.47-2.75,2.06,2.06,0,0,0-1-1.27,3.54,3.54,0,0,0-2-.31,1.07,1.07,0,0,0-.79.47,1,1,0,0,0-.12.89,1.05,1.05,0,0,0,1.09.72,2.22,2.22,0,0,1,.73,0l.1,0,0,.1a1,1,0,0,1,0,.63l0,0s-.48.48-2.63.07a11.87,11.87,0,0,0-5.16.28,1,1,0,0,0-.67.56,1.06,1.06,0,0,0,0,.87h0a1.06,1.06,0,0,0,1.23.59,10.69,10.69,0,0,1,2.74-.38A8.58,8.58,0,0,1,86.22,116.29Z"></path><path class="cls-3" d="M97.13,115.16a1.93,1.93,0,0,0,.57-.09,2.93,2.93,0,0,0,1.64-1.94c.1-.28.51-.47.94-.57a1.22,1.22,0,0,0,.9-1.18h0a1.23,1.23,0,0,0-1.54-1.2,3.55,3.55,0,0,0-2.6,2.08c0,.11-.08.2-.11.27l-.13-.08a4.21,4.21,0,0,0-2.65-.89,5.77,5.77,0,0,0-.63.07,1.24,1.24,0,0,0-.71,2l.53.62,0,0a2,2,0,0,1,1-.28,2.15,2.15,0,0,1,1.14.49A3.13,3.13,0,0,0,97.13,115.16Z"></path><path class="cls-6" d="M95.35,114.66a2,2,0,0,0-1-.46,1.89,1.89,0,0,0-.91.24l-.11-.15-.11.09-.52-.62a1.4,1.4,0,0,1-.25-1.4,1.38,1.38,0,0,1,1.07-.91c.21,0,.42-.06.64-.08a4.41,4.41,0,0,1,2.71.88l0-.06A3.77,3.77,0,0,1,99.6,110a1.4,1.4,0,0,1,1.22.25,1.44,1.44,0,0,1,.55,1.13,1.42,1.42,0,0,1-1.05,1.36c-.44.11-.74.28-.81.45a3.08,3.08,0,0,1-1.75,2.06,2.24,2.24,0,0,1-.63.1A3.36,3.36,0,0,1,95.35,114.66Zm4.34-4.3a3.41,3.41,0,0,0-2.48,2l-.11.28-.09.19-.31-.2a4.13,4.13,0,0,0-2.54-.86,5.44,5.44,0,0,0-.6.08,1,1,0,0,0-.79.67,1,1,0,0,0,.18,1l.44.51a2.62,2.62,0,0,1,.9-.21,2.28,2.28,0,0,1,1.27.53,2.94,2.94,0,0,0,1.57.63,1.58,1.58,0,0,0,.52-.09,2.74,2.74,0,0,0,1.51-1.83c.15-.38.66-.58,1.07-.68a1,1,0,0,0,.36-1.83,1,1,0,0,0-.64-.22A1.15,1.15,0,0,0,99.69,110.36Z"></path><path class="cls-3" d="M97.83,105.39a1.23,1.23,0,0,0-.71-1.87,8,8,0,0,0-2.48-.2,6.34,6.34,0,0,0-2.76.83,1.23,1.23,0,0,0-.19,2h0a1.22,1.22,0,0,0,1.41.15,4,4,0,0,1,1.71-.51,5.52,5.52,0,0,1,1.69.13,1.25,1.25,0,0,0,1.33-.51Z"></path><path class="cls-6" d="M91.56,106.26a1.37,1.37,0,0,1-.47-1.21,1.4,1.4,0,0,1,.7-1.07,6.62,6.62,0,0,1,2.84-.85,8.08,8.08,0,0,1,2.53.21,1.35,1.35,0,0,1,1,.85,1.43,1.43,0,0,1-.13,1.3h0a1.46,1.46,0,0,1-1.54.59,5.38,5.38,0,0,0-1.63-.12,3.85,3.85,0,0,0-1.63.48,1.3,1.3,0,0,1-.69.18A1.42,1.42,0,0,1,91.56,106.26Zm5-.54a1.06,1.06,0,0,0,1.13-.44h0a1,1,0,0,0,.11-1,1,1,0,0,0-.71-.63,8,8,0,0,0-2.42-.2,6.25,6.25,0,0,0-2.68.81,1,1,0,0,0-.51.78,1.06,1.06,0,0,0,.35.9,1,1,0,0,0,1.2.13,4.25,4.25,0,0,1,1.79-.54h.45A5.37,5.37,0,0,1,96.54,105.72Z"></path><path class="cls-3" d="M79.21,125.83a1.27,1.27,0,1,0,1.27-1.26A1.27,1.27,0,0,0,79.21,125.83Z"></path><path class="cls-6" d="M79,125.83a1.45,1.45,0,1,1,1.45,1.46A1.45,1.45,0,0,1,79,125.83Zm.37,0a1.08,1.08,0,1,0,1.08-1.08A1.08,1.08,0,0,0,79.4,125.83Z"></path></g></g></svg>