<svg xmlns="http://www.w3.org/2000/svg" xmlns:xlink="http://www.w3.org/1999/xlink" viewBox="0 0 568.05 492.82"><defs><style>.cls-1,.cls-12,.cls-19{fill:none;}.cls-2{clip-path:url(#clip-path);}.cls-3{fill:#f0f6fc;}.cls-4{fill:#cf2027;}.cls-13,.cls-5,.cls-8{fill:#003954;}.cls-6{fill:#001e32;}.cls-11,.cls-7{fill:#fff;}.cls-8{font-size:18.93px;}.cls-13,.cls-8{font-family:Bebas;}.cls-9{fill:#ffcba8;}.cls-10{fill:#f5a87f;}.cls-11{opacity:0.43;}.cls-12{stroke:#d8e0e3;stroke-width:0.5px;}.cls-12,.cls-19{stroke-miterlimit:10;}.cls-13{font-size:13.74px;}.cls-14{letter-spacing:-0.03em;}.cls-15{letter-spacing:0em;}.cls-16{letter-spacing:-0.01em;}.cls-17{letter-spacing:0em;}.cls-18{letter-spacing:-0.01em;}.cls-19{stroke:#fff;}</style><clipPath id="clip-path" transform="translate(34.03 -7.18)"><rect class="cls-1" width="500" height="500"></rect></clipPath></defs><g id="Layer_2" data-name="Layer 2"><g id="OBJECTS"><g class="cls-2"><ellipse class="cls-3" cx="293.39" cy="310.98" rx="151.46" ry="155.55" transform="translate(-34.96 530.68) rotate(-78.72)"></ellipse><ellipse class="cls-3" cx="186.91" cy="196.38" rx="144.87" ry="151.1" transform="translate(-8.22 334.08) rotate(-78.72)"></ellipse><circle class="cls-3" cx="183.74" cy="360.11" r="101.69"></circle><ellipse class="cls-4" cx="553.59" cy="294.38" rx="8.42" ry="7.85"></ellipse><ellipse class="cls-4" cx="451.44" cy="294.38" rx="8.42" ry="7.85"></ellipse><ellipse class="cls-4" cx="349.28" cy="294.38" rx="8.42" ry="7.85"></ellipse><rect class="cls-5" x="551.17" y="302.23" width="4.84" height="113.54"></rect><rect class="cls-5" x="449.01" y="302.23" width="4.84" height="113.54"></rect><rect class="cls-5" x="346.86" y="302.23" width="4.84" height="113.54"></rect><rect class="cls-5" x="545.45" y="299.97" width="16.29" height="4.52"></rect><rect class="cls-5" x="443.29" y="299.97" width="16.29" height="4.52"></rect><rect class="cls-5" x="341.14" y="299.97" width="16.29" height="4.52"></rect><path class="cls-5" d="M465.29,347.59a93.84,93.84,0,0,1-47.91-12.53c-5.21,2.57-56.51,26.62-102.55-.23l.85-1.28c47.49,27.7,100.8.26,101.33,0l.42-.22.41.24c47.53,28.09,100.79.27,101.32,0l.81,1.31A129.59,129.59,0,0,1,465.29,347.59Z" transform="translate(34.03 -7.18)"></path><rect class="cls-6" x="334.58" y="415.24" width="28.92" height="5.23"></rect><rect class="cls-5" x="436.96" y="415.24" width="28.92" height="5.23"></rect><rect class="cls-5" x="539.13" y="415.24" width="28.92" height="5.23"></rect><ellipse class="cls-4" cx="219.01" cy="294.38" rx="8.42" ry="7.85"></ellipse><ellipse class="cls-4" cx="116.85" cy="294.38" rx="8.42" ry="7.85"></ellipse><ellipse class="cls-4" cx="14.7" cy="294.38" rx="8.42" ry="7.85"></ellipse><rect class="cls-5" x="216.59" y="302.23" width="4.84" height="113.54"></rect><rect class="cls-5" x="114.43" y="302.23" width="4.84" height="113.54"></rect><rect class="cls-5" x="12.28" y="302.23" width="4.84" height="113.54"></rect><rect class="cls-5" x="210.87" y="299.97" width="16.29" height="4.52"></rect><rect class="cls-5" x="108.71" y="299.97" width="16.29" height="4.52"></rect><rect class="cls-5" x="6.56" y="299.97" width="16.29" height="4.52"></rect><path class="cls-5" d="M130.71,347.59A93.84,93.84,0,0,1,82.8,335.06c-5.21,2.57-56.52,26.62-102.56-.23l.86-1.28c47.49,27.7,100.8.26,101.33,0l.42-.22.41.24c47.53,28.09,100.79.27,101.32,0l.8,1.31A129.57,129.57,0,0,1,130.71,347.59Z" transform="translate(34.03 -7.18)"></path><rect class="cls-5" y="415.24" width="28.92" height="5.23"></rect><rect class="cls-5" x="102.38" y="415.24" width="28.92" height="5.23"></rect><rect class="cls-6" x="204.55" y="415.24" width="28.92" height="5.23"></rect><path class="cls-3" d="M68.93,34.62a12.15,12.15,0,0,0-2.72-.44l-1.19-5-6.09,1.44,1.19,5a11.58,11.58,0,0,0-2.23,1.61L53.5,34.53l-3.28,5.33,4.39,2.71a11.46,11.46,0,0,0-.45,2.72l-5,1.19,1.44,6.08,5-1.19a11.65,11.65,0,0,0,1.61,2.24L54.52,58l5.32,3.28,2.71-4.39a11,11,0,0,0,2.72.44l1.19,5,6.08-1.45-1.18-5a11.52,11.52,0,0,0,2.23-1.62L78,57l3.28-5.32L76.87,49a11.11,11.11,0,0,0,.44-2.72l5-1.19L80.89,39l-5,1.19a11.28,11.28,0,0,0-1.61-2.23L77,33.52l-5.32-3.29Zm.13,5.75a6.33,6.33,0,1,1-8.71,2.06A6.32,6.32,0,0,1,69.06,40.37Z" transform="translate(34.03 -7.18)"></path><path class="cls-3" d="M37.82,51.33a6.93,6.93,0,0,0-1.63-.26l-.71-3-3.65.87.71,3a7,7,0,0,0-1.34,1l-2.63-1.62-2,3.19,2.63,1.63A6.93,6.93,0,0,0,29,57.73l-3,.71.87,3.65,3-.71a7,7,0,0,0,1,1.34l-1.62,2.63,3.19,2L34,64.69a6.93,6.93,0,0,0,1.63.26l.71,3L40,67.09l-.71-3a7,7,0,0,0,1.34-1l2.63,1.62,2-3.19-2.63-1.63a6.93,6.93,0,0,0,.26-1.63l3-.71L45,53.93l-3,.71a7,7,0,0,0-1-1.34l1.62-2.63-3.19-2Zm.08,3.45A3.79,3.79,0,1,1,32.68,56,3.79,3.79,0,0,1,37.9,54.78Z" transform="translate(34.03 -7.18)"></path><circle class="cls-3" cx="163.51" cy="24.06" r="13.39" transform="translate(46.18 83.26) rotate(-32.05)"></circle><path class="cls-3" d="M27.4,15.8a6,6,0,1,1-2.68-8A6,6,0,0,1,27.4,15.8Z" transform="translate(34.03 -7.18)"></path><circle class="cls-3" cx="16.11" cy="105.37" r="8.12" transform="translate(-45.06 50.22) rotate(-54.56)"></circle><path class="cls-3" d="M464.42,62.31a17.47,17.47,0,0,0-1.66-3.83l5.42-5.62-6.82-6.59-5.43,5.62A17.5,17.5,0,0,0,452,50.36l-.14-7.81-9.48.17.14,7.81a17.68,17.68,0,0,0-3.83,1.66l-5.62-5.42-6.59,6.82L432.14,59a17,17,0,0,0-1.52,3.89l-7.82.14.17,9.48,7.82-.14a17.2,17.2,0,0,0,1.66,3.83L427,81.84l6.83,6.59,5.42-5.62a17,17,0,0,0,3.89,1.52l.14,7.82,9.48-.17-.14-7.82a17,17,0,0,0,3.83-1.66l5.62,5.43,6.59-6.83-5.62-5.42a17.5,17.5,0,0,0,1.53-3.89l7.81-.14-.17-9.48Zm-7.22,4.87a9.6,9.6,0,1,1-9.77-9.43A9.61,9.61,0,0,1,457.2,67.18Z" transform="translate(34.03 -7.18)"></path><path class="cls-3" d="M417.64,36.3a10.47,10.47,0,0,0-1-2.3l3.26-3.37-4.1-3.95-3.25,3.37a10.44,10.44,0,0,0-2.33-.91l-.08-4.69-5.69.1.08,4.69a10.16,10.16,0,0,0-2.29,1L398.87,27l-3.95,4.09,3.37,3.26a10.47,10.47,0,0,0-.92,2.33l-4.68.08.1,5.69,4.68-.09a11,11,0,0,0,1,2.3L395.22,48l4.09,4,3.25-3.37a10.44,10.44,0,0,0,2.33.91l.09,4.69,5.68-.1-.08-4.69a10.44,10.44,0,0,0,2.3-1l3.37,3.25,3.95-4.09-3.37-3.26a10.44,10.44,0,0,0,.91-2.33l4.69-.08-.1-5.69Zm-4.33,2.92a5.76,5.76,0,1,1-5.86-5.66A5.75,5.75,0,0,1,413.31,39.22Z" transform="translate(34.03 -7.18)"></path><circle class="cls-3" cx="485.12" cy="150.13" r="8.48" transform="translate(158.71 500.66) rotate(-61.98)"></circle><path class="cls-3" d="M469.26,125.44a5.39,5.39,0,1,1-2.43-7.23A5.39,5.39,0,0,1,469.26,125.44Z" transform="translate(34.03 -7.18)"></path><path class="cls-3" d="M486.21,18.61a5.95,5.95,0,1,1-2.68-8A5.93,5.93,0,0,1,486.21,18.61Z" transform="translate(34.03 -7.18)"></path><path class="cls-3" d="M359.39,35.87a4.1,4.1,0,1,1-1.23,5.67A4.1,4.1,0,0,1,359.39,35.87Z" transform="translate(34.03 -7.18)"></path><rect class="cls-7" x="53.85" y="136.72" width="68.88" height="93.55" transform="translate(48.19 -13.35) rotate(4.35)"></rect><polygon class="cls-4" points="115.45 227.26 107.74 222.24 99.36 226.04 101.03 204.12 117.11 205.34 115.45 227.26"></polygon><path class="cls-5" d="M77.94,188.67h0a2.32,2.32,0,0,1,2.79.66h0a2.29,2.29,0,0,0,2.09.86h0a2.32,2.32,0,0,1,2.45,1.5h0A2.34,2.34,0,0,0,87,193.15h0a2.29,2.29,0,0,1,1.86,2.17h0a2.34,2.34,0,0,0,1.19,1.93h0a2.31,2.31,0,0,1,1.1,2.64h0a2.33,2.33,0,0,0,.54,2.2h0a2.32,2.32,0,0,1,.23,2.86h0a2.29,2.29,0,0,0-.17,2.25h0a2.33,2.33,0,0,1-.66,2.79h0a2.28,2.28,0,0,0-.86,2.09h0a2.32,2.32,0,0,1-1.49,2.45h0a2.31,2.31,0,0,0-1.47,1.72h0a2.3,2.3,0,0,1-2.17,1.87h0a2.29,2.29,0,0,0-1.93,1.19h0a2.31,2.31,0,0,1-2.64,1.1h0a2.33,2.33,0,0,0-2.2.53h0a2.32,2.32,0,0,1-2.86.24h0a2.32,2.32,0,0,0-2.25-.18h0a2.3,2.3,0,0,1-2.79-.66h0a2.33,2.33,0,0,0-2.09-.86h0A2.31,2.31,0,0,1,65.89,218h0a2.3,2.3,0,0,0-1.72-1.46h0a2.33,2.33,0,0,1-1.87-2.18h0a2.29,2.29,0,0,0-1.19-1.92h0a2.32,2.32,0,0,1-1.1-2.65h0a2.29,2.29,0,0,0-.53-2.19h0a2.32,2.32,0,0,1-.24-2.86h0a2.29,2.29,0,0,0,.18-2.25h0a2.3,2.3,0,0,1,.66-2.79h0a2.33,2.33,0,0,0,.86-2.09h0a2.3,2.3,0,0,1,1.49-2.45h0a2.3,2.3,0,0,0,1.46-1.73h0a2.31,2.31,0,0,1,2.18-1.86h0A2.31,2.31,0,0,0,68,190.37h0a2.32,2.32,0,0,1,2.65-1.1h0a2.32,2.32,0,0,0,2.19-.54h0a2.34,2.34,0,0,1,2.86-.23h0A2.29,2.29,0,0,0,77.94,188.67Z" transform="translate(34.03 -7.18)"></path><path class="cls-7" d="M77.34,192.78h0a1.73,1.73,0,0,1,2.08.5h0a1.74,1.74,0,0,0,1.56.64h0A1.72,1.72,0,0,1,82.81,195h0a1.71,1.71,0,0,0,1.28,1.09h0a1.73,1.73,0,0,1,1.4,1.62h0a1.72,1.72,0,0,0,.88,1.44h0a1.71,1.71,0,0,1,.82,2h0a1.73,1.73,0,0,0,.4,1.64h0a1.72,1.72,0,0,1,.18,2.13h0a1.69,1.69,0,0,0-.13,1.68h0a1.73,1.73,0,0,1-.5,2.08h0a1.72,1.72,0,0,0-.64,1.56h0a1.73,1.73,0,0,1-1.11,1.83h0a1.69,1.69,0,0,0-1.09,1.28h0a1.72,1.72,0,0,1-1.62,1.39h0a1.73,1.73,0,0,0-1.44.89h0a1.71,1.71,0,0,1-2,.82h0a1.73,1.73,0,0,0-1.64.4h0a1.73,1.73,0,0,1-2.13.17h0a1.74,1.74,0,0,0-1.68-.13h0a1.72,1.72,0,0,1-2.08-.49h0a1.72,1.72,0,0,0-1.56-.64h0a1.71,1.71,0,0,1-1.82-1.11h0a1.72,1.72,0,0,0-1.29-1.09h0a1.73,1.73,0,0,1-1.39-1.62h0a1.73,1.73,0,0,0-.89-1.44h0a1.71,1.71,0,0,1-.82-2h0a1.73,1.73,0,0,0-.4-1.64h0a1.73,1.73,0,0,1-.17-2.13h0a1.74,1.74,0,0,0,.13-1.68h0A1.71,1.71,0,0,1,64,201h0a1.74,1.74,0,0,0,.64-1.56h0a1.73,1.73,0,0,1,1.11-1.83h0a1.69,1.69,0,0,0,1.09-1.28h0a1.75,1.75,0,0,1,1.63-1.4h0a1.71,1.71,0,0,0,1.43-.88h0a1.71,1.71,0,0,1,2-.82h0a1.73,1.73,0,0,0,1.64-.4h0a1.72,1.72,0,0,1,2.13-.17h0A1.71,1.71,0,0,0,77.34,192.78Z" transform="translate(34.03 -7.18)"></path><rect class="cls-4" x="66.87" y="143.57" width="48.15" height="7.73" transform="translate(45.46 -13.65) rotate(4.35)"></rect><rect class="cls-5" x="66.14" y="156.24" width="48.15" height="1.68" transform="translate(46.19 -13.57) rotate(4.35)"></rect><rect class="cls-5" x="65.76" y="161.21" width="48.15" height="1.68" transform="translate(46.57 -13.53) rotate(4.35)"></rect><rect class="cls-5" x="65.38" y="166.19" width="48.15" height="1.68" transform="matrix(1, 0.08, -0.08, 1, 46.95, -13.48)"></rect><rect class="cls-5" x="65.03" y="170.46" width="29.56" height="1.68" transform="translate(47.24 -12.74) rotate(4.35)"></rect><text class="cls-8" transform="translate(104.73 205.79) rotate(4.35)">c</text><path class="cls-4" d="M74.77,215.58a10.77,10.77,0,1,1,11.55-9.92A10.79,10.79,0,0,1,74.77,215.58Zm1.57-20.68a10,10,0,1,0,9.18,10.69A10,10,0,0,0,76.34,194.9Z" transform="translate(34.03 -7.18)"></path><path class="cls-6" d="M439.19,194l-47.68,2.56-1.21-22.41A23.88,23.88,0,0,1,438,171.6Zm-42.66-3,37.07-2-.92-17.11a18.56,18.56,0,1,0-37.07,2Z" transform="translate(34.03 -7.18)"></path><rect class="cls-5" x="384.81" y="187.54" width="62.37" height="39.35" rx="6.56" transform="matrix(1, -0.05, 0.05, 1, 23.49, 15.48)"></rect><rect class="cls-7" x="415.08" y="202.75" width="1.96" height="11.32" transform="translate(23.42 15.5) rotate(-3.08)"></rect><path class="cls-7" d="M420.09,204.53a4.24,4.24,0,1,1-4.46-4A4.24,4.24,0,0,1,420.09,204.53Z" transform="translate(34.03 -7.18)"></path><polygon class="cls-5" points="116.87 213.34 65.98 213.34 115.7 105.63 118.03 106.7 70 210.77 116.87 210.77 116.87 213.34"></polygon><polygon class="cls-5" points="167.75 213.34 116.87 213.34 116.87 210.77 163.74 210.77 115.7 106.7 118.03 105.63 167.75 213.34"></polygon><path class="cls-4" d="M88.29,209.91H37a11.93,11.93,0,0,0-10.41,17.77l9.24,16.48a49.58,49.58,0,0,0,43.24,25.33H97.52a49.58,49.58,0,0,0,43.24-25.33L150,227.68a11.93,11.93,0,0,0-10.4-17.77Z" transform="translate(34.03 -7.18)"></path><polygon class="cls-5" points="502.07 213.34 451.18 213.34 451.18 210.77 498.06 210.77 450.02 106.7 452.35 105.63 502.07 213.34"></polygon><polygon class="cls-5" points="451.18 213.34 400.3 213.34 450.02 105.63 452.35 106.7 404.31 210.77 451.18 210.77 451.18 213.34"></polygon><path class="cls-4" d="M411.71,209.91H463a11.93,11.93,0,0,1,10.41,17.77l-9.24,16.48a49.58,49.58,0,0,1-43.24,25.33H402.48a49.58,49.58,0,0,1-43.24-25.33L350,227.68a11.93,11.93,0,0,1,10.4-17.77Z" transform="translate(34.03 -7.18)"></path><path class="cls-5" d="M249,120.5l-.65.15-.33.06-.23,0-.55.07-.55.07-.27,0-.21,0c-.52,0-1.05,0-1.58.06l-1.32,0a12.1,12.1,0,0,1-1.26-.07c-.76-.07-1.55-.14-2.29-.24l-2.09-.34c-.72-.11-1.35-.26-2-.41l-2-.44-3.67-1c-2.34-.76-4.69-1.52-6.88-2.42s-4.37-1.8-6.51-2.74a225,225,0,0,1-24-12.84c-3.85-2.28-7.56-4.71-11.29-7.11l-2.49-1.59c-.73-.51-1.47-.87-2.2-1.31a33.46,33.46,0,0,0-4.39-1.94,19.68,19.68,0,0,0-8.65-1,28.9,28.9,0,0,0-9.39,3.11c-13.28,6.74-26.49,20.86-45.25,27a53.91,53.91,0,0,1-7.13,1.8c-1.21.25-2.43.39-3.65.56s-2.45.24-3.68.27a55.18,55.18,0,0,1-14.45-1.33,70.28,70.28,0,0,1-13.33-4.46A101.35,101.35,0,0,1,54.69,108a5,5,0,0,1,4.86-8.62l.06,0c7.32,3.78,15,6.75,22.65,7.83a41.85,41.85,0,0,0,22.13-2.57c7-2.8,13.45-7.44,19.93-12.71l10-8.26a101.75,101.75,0,0,1,11.46-8.22,47,47,0,0,1,14.74-6,37,37,0,0,1,8.56-.7A40.71,40.71,0,0,1,177.53,70a51.37,51.37,0,0,1,7.69,2.71c1.17.57,2.4,1.11,3.51,1.74l3.09,1.69c3.68,2,7.35,4.09,11.08,6a204,204,0,0,0,22.42,10.13c1.86.67,3.73,1.37,5.57,1.91s3.66,1.08,5.45,1.55l2.6.57,1.23.2c.41.06.84.15,1.19.17l1.11.11.94,0a3.33,3.33,0,0,0,.35,0l.31,0,0,0h-.23l-.15,0-.35.06-.46.11A12.15,12.15,0,0,1,249,120.5Z" transform="translate(34.03 -7.18)"></path><circle class="cls-4" cx="116.87" cy="106.17" r="17.33"></circle><circle class="cls-7" cx="116.87" cy="106.17" r="9.11"></circle><path class="cls-5" d="M257.09,97l-.45-.11-.36-.06-.15,0h-.22l0,0,.3,0a3.55,3.55,0,0,0,.36,0l.93,0,1.11-.11c.36,0,.79-.11,1.19-.17l1.23-.2,2.61-.57c1.78-.47,3.58-.93,5.44-1.55s3.71-1.24,5.58-1.91a205.7,205.7,0,0,0,22.42-10.13c3.72-1.87,7.39-3.93,11.08-6l3.09-1.69c1.1-.63,2.33-1.17,3.51-1.74A50.59,50.59,0,0,1,322.48,70a40.52,40.52,0,0,1,8.43-1.21,37,37,0,0,1,8.56.7,46.94,46.94,0,0,1,14.74,6,101.9,101.9,0,0,1,11.47,8.22l10,8.26c6.48,5.27,12.94,9.91,19.93,12.71a41.85,41.85,0,0,0,22.13,2.57c7.67-1.08,15.33-4,22.65-7.83l0,0a5,5,0,0,1,4.88,8.61,102,102,0,0,1-12.06,6.43,70.38,70.38,0,0,1-13.34,4.46,55.1,55.1,0,0,1-14.45,1.33c-1.23,0-2.45-.17-3.68-.27s-2.44-.31-3.64-.56a53.52,53.52,0,0,1-7.13-1.8c-18.76-6.09-32-20.21-45.25-26.95a29,29,0,0,0-9.4-3.11,19.69,19.69,0,0,0-8.65,1,33.46,33.46,0,0,0-4.39,1.94c-.73.44-1.47.8-2.2,1.31l-2.49,1.59c-3.73,2.4-7.43,4.83-11.28,7.11a225.16,225.16,0,0,1-24,12.84c-2.14.94-4.26,1.9-6.51,2.74s-4.53,1.66-6.88,2.42l-3.67,1-1.95.44c-.65.15-1.27.3-2,.41l-2.1.34c-.74.1-1.53.17-2.29.24a12.1,12.1,0,0,1-1.26.07l-1.32,0-1.58-.06-.2,0-.28,0-.55-.07-.55-.07-.23,0-.33-.06-.65-.15A12.15,12.15,0,1,1,257.09,97Z" transform="translate(34.03 -7.18)"></path><circle class="cls-4" cx="451.19" cy="106.17" r="17.33"></circle><circle class="cls-7" cx="451.19" cy="106.17" r="9.11"></circle><path class="cls-4" d="M230.39,382.22l11.78-270.45a7.84,7.84,0,0,1,15.66,0l11.78,270.45a19.62,19.62,0,0,1-39.22,1.52C230.37,383.24,230.37,382.71,230.39,382.22Z" transform="translate(34.03 -7.18)"></path><circle class="cls-4" cx="250" cy="111.59" r="22.95" transform="translate(10.31 109.95) rotate(-25.21)"></circle><circle class="cls-7" cx="284.03" cy="104.41" r="13.14"></circle><path class="cls-5" d="M317,393a14,14,0,0,0-13.59-10.73H196.62A14,14,0,0,0,183,393l-4.33,18.1H321.3Z" transform="translate(34.03 -7.18)"></path><path class="cls-4" d="M349.3,414.14a6.58,6.58,0,0,0-5.58-3.09H156.28a6.58,6.58,0,0,0-5.58,3.09l-2.23,3.59a6.57,6.57,0,0,0,5.57,10H346a6.57,6.57,0,0,0,5.57-10Z" transform="translate(34.03 -7.18)"></path><path class="cls-9" d="M264.55,196.58c5.74,4.08,11.1,8.16,16.63,14.87,3.27-12.62,5.44-20.25,6.38-24.86l16.22,6c-.15.47-.31,1-.5,1.57v0L303,195l-.07.22-.57,1.78-.11.35c-.1.29-.19.58-.29.88,0,.08-.05.16-.07.24l-.73,2.26-.05.18-.81,2.5-.06.19-1.38,4.27,0,.09c-.31.95-.62,1.92-.95,2.91l-.09.29c-.15.47-.31.94-.46,1.42l-.05.14c-.15.46-.3.93-.46,1.4l-.06.19c-.16.5-.33,1-.5,1.52l0,.13c-.34,1-.69,2.09-1,3.14l-.07.21-1,3.08-.09.28-.51,1.53,0,.09-.07.22c-1.66,4.43-6.79,14.81-16.56,7.75L262.68,220.8Z" transform="translate(34.03 -7.18)"></path><path class="cls-1" d="M293.5,224.26l0-.09.51-1.53s-.2.74-.61,1.84Z" transform="translate(34.03 -7.18)"></path><polygon class="cls-6" points="307.03 405.83 325.1 410.51 326.32 419.12 284.34 419.12 286.94 405.83 307.03 405.83"></polygon><path class="cls-6" d="M250.31,423.5l31.63.07a7.16,7.16,0,0,1,7.53-6.08c6.8,0,7.94,10.28,7.94,10.28H250.07Z" transform="translate(34.03 -7.18)"></path><polygon class="cls-9" points="267.07 395.88 266.41 408.36 249.72 408.36 249.26 391.89 267.07 395.88"></polygon><polygon class="cls-6" points="248.49 405.83 229.83 410.71 229.2 419.12 271.18 419.12 268.58 405.83 248.49 405.83"></polygon><path class="cls-6" d="M237.16,423.5l-31.63.07a7.16,7.16,0,0,0-7.53-6.08c-6.8,0-7.94,10.28-7.94,10.28H237.4Z" transform="translate(34.03 -7.18)"></path><polygon class="cls-10" points="266.92 398.86 249.56 402.4 249.46 398.86 266.92 398.86"></polygon><path class="cls-9" d="M261,173c-.76,2.15-2.78,3.33-4.52,2.65s-2.51-3-1.75-5.12,2.79-3.33,4.52-2.65,2.52,3,1.75,5.12" transform="translate(34.03 -7.18)"></path><path class="cls-6" d="M259.73,173.34l-.34-.1s.64-2.28-.9-3.5l.22-.28C260.45,170.83,259.76,173.24,259.73,173.34Z" transform="translate(34.03 -7.18)"></path><path class="cls-9" d="M227.76,173c.76,2.15,2.79,3.33,4.52,2.65s2.52-3,1.75-5.12-2.78-3.33-4.52-2.65-2.51,3-1.75,5.12" transform="translate(34.03 -7.18)"></path><path class="cls-6" d="M228.75,173.34c0-.1-.71-2.51,1-3.88l.23.28c-1.55,1.22-.91,3.48-.9,3.5Z" transform="translate(34.03 -7.18)"></path><polygon class="cls-6" points="302.01 249.22 277.79 249.22 277.79 279.44 279.5 279.44 283.4 406.94 315.75 406.94 302.01 249.22"></polygon><polygon class="cls-6" points="253.97 249.22 277.79 249.22 277.79 279.44 276.14 279.44 272.05 406.94 239.82 406.94 253.97 249.22"></polygon><path class="cls-5" d="M253.17,193.38H234.85c-15,0-21.64,13.13-19.82,28l3,40.33h52.25l1.6-33.53,2-6.8c1.82-14.89-5.74-28-20.74-28" transform="translate(34.03 -7.18)"></path><path class="cls-7" d="M232.71,193.47s1.36,8,11.84,8,11.49-7.9,11.49-7.9l-3.78-.68-7.88.1-7.79-.16Z" transform="translate(34.03 -7.18)"></path><path class="cls-9" d="M252.26,192.86h0l-.7-10.43h-14.2l-.77,10.37h0l-.11,1.59s2,3.66,7.94,3.66,8-3.66,8-3.66Z" transform="translate(34.03 -7.18)"></path><rect class="cls-5" x="279.02" y="201.66" width="0.54" height="23.51"></rect><path class="cls-5" d="M270.27,274.92c-4.36,0-7.71-1.22-10-3.61a12.23,12.23,0,0,1-3.06-8.4l.54,0a11.81,11.81,0,0,0,2.91,8c2.16,2.28,5.38,3.44,9.58,3.44Z" transform="translate(34.03 -7.18)"></path><path class="cls-5" d="M217.26,274.92v-.54c4.2,0,7.42-1.16,9.58-3.44a11.88,11.88,0,0,0,2.91-8l.53,0a12.2,12.2,0,0,1-3.05,8.4C225,273.7,221.61,274.92,217.26,274.92Z" transform="translate(34.03 -7.18)"></path><rect class="cls-5" x="243.74" y="282.95" width="0.54" height="7.36" transform="matrix(0.18, -0.98, 0.98, 0.18, -48.1, 467.42)"></rect><path class="cls-10" d="M236.94,188.09s2.79,4.87,7.44,4.87,7.56-4.9,7.56-4.9v-3.82h-15Z" transform="translate(34.03 -7.18)"></path><path class="cls-9" d="M258.3,167.33a1.1,1.1,0,0,0,0-.18v0h0a12.81,12.81,0,0,0,.07-1.39,14,14,0,1,0-27.94,0,12.81,12.81,0,0,0,.07,1.39h0v0a.88.88,0,0,1,0,.17l1.45,12s0,.05,0,.07l0,.29h0a12.5,12.5,0,0,0,24.75.2h0l0-.15.06-.46Z" transform="translate(34.03 -7.18)"></path><path class="cls-6" d="M244.44,151.59s-13.46-.22-14,13.56a20.7,20.7,0,0,0,.24,3.85l.49,3.4a21.7,21.7,0,0,0,4.78-8.05h16.9a21.7,21.7,0,0,0,4.78,8.05l.5-3.4a21.58,21.58,0,0,0,.23-3.85c-.5-13.78-14-13.56-14-13.56" transform="translate(34.03 -7.18)"></path><rect class="cls-5" x="241.17" y="395.32" width="30.25" height="0.54"></rect><rect class="cls-5" x="283.99" y="395.32" width="30.25" height="0.54"></rect><rect class="cls-6" x="250.54" y="165.92" width="1.43" height="4.9" transform="translate(59.87 362.85) rotate(-75.64)"></rect><rect class="cls-6" x="235.21" y="167.66" width="4.9" height="1.43" transform="translate(-0.8 58.32) rotate(-14.63)"></rect><path class="cls-6" d="M239.36,173.9a.85.85,0,1,1-.85-.85.85.85,0,0,1,.85.85" transform="translate(34.03 -7.18)"></path><path class="cls-6" d="M251.25,173.9a.85.85,0,1,1-.85-.85.85.85,0,0,1,.85.85" transform="translate(34.03 -7.18)"></path><path class="cls-9" d="M303.78,192.62a29.28,29.28,0,0,0,3.89-12.93c.35-4.92-1.16-6.06-2.85-5.3a1.78,1.78,0,0,0-2.61-.49s-.6-1.31-1.8-1.2a2.07,2.07,0,0,0-1.42.94s-.44-7.46-1.82-7.52c-1.65-.08-3.05,6.26-3.63,11.82,0,0-.73-4.66-2.76-4.54s-3.22,13.19-3.22,13.19Z" transform="translate(34.03 -7.18)"></path><path class="cls-6" d="M293.28,177.79s.85,1.72,1.65,3l.34-.21c-.79-1.27-1.62-3-1.63-3Z" transform="translate(34.03 -7.18)"></path><path class="cls-10" d="M287.56,186.59l17.72,3.08s-.75,1.63-1.44,3Z" transform="translate(34.03 -7.18)"></path><path class="cls-6" d="M304.67,179.18a2.12,2.12,0,0,0,1-.29l-.2-.31a1.45,1.45,0,0,1-1,.21,1,1,0,0,1-.63-.51l-.09-.15-.16.09a1.85,1.85,0,0,1-1.26.2.93.93,0,0,1-.55-.55l-.08-.19-.18.1a2.33,2.33,0,0,1-1.65.28,1.34,1.34,0,0,1-.8-.83l-.33.13a1.66,1.66,0,0,0,1,1,2.5,2.5,0,0,0,1.79-.22,1.17,1.17,0,0,0,.68.58,2.06,2.06,0,0,0,1.4-.15,1.28,1.28,0,0,0,.77.53A.84.84,0,0,0,304.67,179.18Z" transform="translate(34.03 -7.18)"></path><polygon class="cls-6" points="315.37 203.85 316.66 209.99 316.25 210.06 314.95 203.92 315.37 203.85"></polygon><rect class="cls-5" x="269.3" y="223.4" width="0.54" height="5.9" transform="matrix(0.63, -0.78, 0.78, 0.63, -41.78, 287.16)"></rect><path class="cls-5" d="M227.1,241c2.09-10.08,3.53-23.11,6.09-32.11l-15.86-4.7c-3.52,7.61-7.43,21.28-11.05,32.86-3.85,13.94,9.69,26.36,27.68,23Z" transform="translate(34.03 -7.18)"></path><path class="cls-6" d="M244.92,180.22a1.83,1.83,0,0,1-1.67-.92c-.61-1.33,1-3.5,1.14-3.74l.44.33c-.44.59-1.48,2.3-1.08,3.18.16.35.57.55,1.21.6Z" transform="translate(34.03 -7.18)"></path><path class="cls-6" d="M244.68,184.24a4.19,4.19,0,0,1-1.39-.21l.19-.52-.1.26.1-.26a4.81,4.81,0,0,0,4.81-1.37l.38.4A5.75,5.75,0,0,1,244.68,184.24Z" transform="translate(34.03 -7.18)"></path><path class="cls-5" d="M278.94,207.13c-14.6-14-22.9-13.59-22.9-13.59l8.3,22.26,4.13,13.12s11.44,7.66,19.09,5.7,19.38-43.12,19.38-43.12-9.64-2.8-21.11-4.91Z" transform="translate(34.03 -7.18)"></path><rect class="cls-5" x="247.76" y="238" width="46.97" height="0.54" transform="matrix(0.04, -1, 1, 0.04, 56.88, 493.09)"></rect><path class="cls-11" d="M270.94,163.69h4.33a1.73,1.73,0,0,1,1.73,1.73v2.14a3.24,3.24,0,0,1-3.24,3.24h-1.3a3.24,3.24,0,0,1-3.24-3.24v-2.14A1.73,1.73,0,0,1,270.94,163.69Z"></path><path class="cls-11" d="M281.56,163.69h4.33a1.73,1.73,0,0,1,1.73,1.73v2.14a3.24,3.24,0,0,1-3.24,3.24h-1.3a3.24,3.24,0,0,1-3.24-3.24v-2.14A1.73,1.73,0,0,1,281.56,163.69Z"></path><rect class="cls-5" x="277" y="165.71" width="2.83" height="0.64"></rect><polygon class="cls-5" points="252.04 254.55 251.15 224.67 259.4 232.91 252.04 254.55"></polygon><path class="cls-5" d="M301.75,205.91a1.07,1.07,0,0,1-1.44.42,1.06,1.06,0,1,1,1.44-.42Z" transform="translate(34.03 -7.18)"></path><circle class="cls-4" cx="310.03" cy="176.06" r="40.79" transform="translate(-2.14 83.64) rotate(-15.76)"></circle><path class="cls-7" d="M330.86,205.91l-1.72-2.46A33,33,0,0,0,339.36,192a33.35,33.35,0,0,0,1.76-28.14l2.79-1.09a36.42,36.42,0,0,1-13.05,43.13Z" transform="translate(34.03 -7.18)"></path><path class="cls-7" d="M333.75,152.55a33,33,0,0,0-7.78-5.83l1.44-2.64a36.49,36.49,0,0,1,8.48,6.36Z" transform="translate(34.03 -7.18)"></path><polygon class="cls-4" points="323.65 230.84 303.14 219.69 311.41 187.33 346.31 206.31 323.65 230.84"></polygon><rect class="cls-7" x="263.81" y="211.96" width="38.79" height="1" transform="translate(-4.65 352.7) rotate(-61.49)"></rect><rect class="cls-7" x="274.9" y="217.99" width="38.79" height="1" transform="translate(-4.16 365.6) rotate(-61.49)"></rect><rect class="cls-7" x="297.4" y="185.17" width="1" height="26.41" transform="translate(15.36 358.18) rotate(-61.47)"></rect><path class="cls-7" d="M292.27,195.32l-.88-.48a7,7,0,0,0,.9-3c0-.76-.16-1.31-.52-1.51-.75-.4-2.39.62-3.54,2.75l-.88-.48c1.37-2.51,3.52-3.89,4.9-3.14a2.45,2.45,0,0,1,1,2.41A8,8,0,0,1,292.27,195.32Z" transform="translate(34.03 -7.18)"></path><path class="cls-7" d="M296.31,197.51l-.87-.47c1.15-2.13,1.12-4.06.37-4.47s-2.38.62-3.54,2.75l-.88-.48c1.37-2.51,3.52-3.9,4.9-3.15S297.68,195,296.31,197.51Z" transform="translate(34.03 -7.18)"></path><path class="cls-7" d="M300.36,199.71l-.88-.48c1.15-2.12,1.12-4,.37-4.46s-2.38.62-3.54,2.74l-.87-.47c1.36-2.52,3.52-3.9,4.89-3.15S301.72,197.2,300.36,199.71Z" transform="translate(34.03 -7.18)"></path><path class="cls-7" d="M304.4,201.91l-.88-.48c1.15-2.12,1.13-4.06.38-4.46-.36-.2-.93-.06-1.55.37a7,7,0,0,0-2,2.37l-.88-.48a8,8,0,0,1,2.3-2.71,2.46,2.46,0,0,1,2.6-.43C305.75,196.84,305.77,199.39,304.4,201.91Z" transform="translate(34.03 -7.18)"></path><path class="cls-7" d="M308.44,204.11l-.88-.48c1.16-2.13,1.13-4.06.38-4.47-.36-.19-.92,0-1.55.38a6.91,6.91,0,0,0-2,2.37l-.88-.48a7.89,7.89,0,0,1,2.3-2.71,2.46,2.46,0,0,1,2.6-.43C309.8,199,309.81,201.59,308.44,204.11Z" transform="translate(34.03 -7.18)"></path><rect class="cls-6" x="264.42" y="230.65" width="28.97" height="5.25" rx="1.5" transform="translate(179.3 -112.06) rotate(28.53)"></rect><rect class="cls-6" x="261.91" y="235.27" width="28.97" height="5.25" rx="1.5" transform="translate(181.19 -110.3) rotate(28.53)"></rect><rect class="cls-6" x="259.4" y="239.88" width="28.97" height="5.25" rx="1.5" transform="translate(183.09 -108.54) rotate(28.53)"></rect><rect class="cls-6" x="263.68" y="242.19" width="17.9" height="5.25" rx="1.5" transform="translate(184.04 -107.66) rotate(28.53)"></rect><path class="cls-9" d="M266.27,254.68a26.34,26.34,0,0,0,11.13-5.06c5.39-4.08,7.19-8,4.67-7.26,0,0,1.66-3.18-1.26-2.17,0,0,1.32-1.75.53-2.51-.59-.56-1.81-.22-1.81-.22s1.64-2.11.86-3.09c-.93-1.17-6.09,1.66-10.23,4.58,0,0,2.75-3.28,1.45-4.59s-9.85,5.22-9.85,5.22Z" transform="translate(34.03 -7.18)"></path><path class="cls-6" d="M282.21,242.41a38.75,38.75,0,0,1-4.2,4.14l-.22-.28a39.89,39.89,0,0,0,4.15-4.09Z" transform="translate(34.03 -7.18)"></path><path class="cls-6" d="M281,240.28a50.3,50.3,0,0,1-4.34,3.55l-.2-.29a49.65,49.65,0,0,0,4.3-3.53Z" transform="translate(34.03 -7.18)"></path><path class="cls-6" d="M279.67,237.57a47.9,47.9,0,0,1-5.17,4.59l-.21-.28a48.92,48.92,0,0,0,5.13-4.56Z" transform="translate(34.03 -7.18)"></path><path class="cls-6" d="M270.39,239s-1.2,1.26-2.23,2.16l-.24-.27c1-.88,2.2-2.12,2.21-2.13Z" transform="translate(34.03 -7.18)"></path><path class="cls-6" d="M214,240.12l0-.34c.27,0,26.92-4.2,46.49-3.34v.35C240.9,235.92,214.28,240.08,214,240.12Z" transform="translate(34.03 -7.18)"></path><path class="cls-6" d="M223.2,238.75l-.34-.07c2.32-11,4-27,4-27.18l.34,0C227.18,211.7,225.52,227.71,223.2,238.75Z" transform="translate(34.03 -7.18)"></path><path class="cls-6" d="M237.93,260.12a143.17,143.17,0,0,1-20-1.33l0-.33c.26,0,26.63,4.07,48.93-2.17l.09.33C257.23,259.34,246.72,260.12,237.93,260.12Z" transform="translate(34.03 -7.18)"></path><path class="cls-6" d="M231.21,172.4s4.24-3.43,5.73-7.74a3.46,3.46,0,0,1-.19,2.7,5.28,5.28,0,0,0,3.31-2.28,4.56,4.56,0,0,1,.47,3s5.46.28,8.17-2.87a2.27,2.27,0,0,1-.49,1.85s3.42,0,4.68-2.72l-.63-2.35-12-1.39-5.89,2.48Z" transform="translate(34.03 -7.18)"></path><polygon class="cls-5" points="269.33 167.89 264.2 160.39 264.94 159.88 269.2 166.11 269.33 167.89"></polygon><polygon class="cls-5" points="287.47 167.92 287.62 166.11 291.88 159.88 292.63 160.39 287.47 167.92"></polygon><path class="cls-7" d="M219.31,218.49a.47.47,0,0,0,.48.48.48.48,0,0,0,.49-.48.49.49,0,0,0-.49-.49A.48.48,0,0,0,219.31,218.49Z" transform="translate(34.03 -7.18)"></path><circle class="cls-7" cx="296.77" cy="191.8" r="0.48"></circle><circle class="cls-7" cx="262.62" cy="192.29" r="0.48"></circle><circle class="cls-7" cx="244.29" cy="233.48" r="0.48"></circle><circle class="cls-7" cx="296.29" cy="207.61" r="0.48"></circle><path class="cls-7" d="M220.77,254.68a.47.47,0,0,0,.48.48.48.48,0,0,0,.49-.48.49.49,0,0,0-.49-.49A.48.48,0,0,0,220.77,254.68Z" transform="translate(34.03 -7.18)"></path><path class="cls-7" d="M253.94,241.15a.48.48,0,0,0,.49.48.47.47,0,0,0,.48-.48.48.48,0,0,0-.48-.49A.49.49,0,0,0,253.94,241.15Z" transform="translate(34.03 -7.18)"></path><circle class="cls-7" cx="271.69" cy="203.85" r="0.48"></circle><path class="cls-7" d="M251.88,229.38a.49.49,0,1,0,.49-.48A.49.49,0,0,0,251.88,229.38Z" transform="translate(34.03 -7.18)"></path><path class="cls-7" d="M252.37,206.62a.48.48,0,0,0,.48.49.49.49,0,0,0,.49-.49.48.48,0,0,0-.49-.48A.47.47,0,0,0,252.37,206.62Z" transform="translate(34.03 -7.18)"></path><path class="cls-7" d="M240.41,251.77a.49.49,0,1,0,.49-.48A.49.49,0,0,0,240.41,251.77Z" transform="translate(34.03 -7.18)"></path><circle class="cls-7" cx="265.24" cy="221.72" r="0.48"></circle><circle class="cls-7" cx="259.4" cy="233.48" r="0.48"></circle><path class="cls-7" d="M259.27,251.29a.49.49,0,0,0,1,0,.49.49,0,1,0-1,0Z" transform="translate(34.03 -7.18)"></path><path class="cls-6" d="M266.54,256.55a132.74,132.74,0,0,0-6.46-20l.32-.13a132,132,0,0,1,6.47,20.05Z" transform="translate(34.03 -7.18)"></path><polygon class="cls-6" points="237.45 408.72 241.86 411.57 243.84 410.94 239.82 408.1 237.45 408.72"></polygon><polygon class="cls-6" points="242.59 407.37 246.76 409.59 248.66 408.96 244.25 406.94 242.59 407.37"></polygon><polygon class="cls-6" points="318.16 408.72 313.75 411.57 311.77 410.94 315.79 408.1 318.16 408.72"></polygon><polygon class="cls-6" points="313.02 407.37 308.85 409.59 306.95 408.96 311.36 406.94 313.02 407.37"></polygon><path class="cls-4" d="M65.16,427.71l-.86,1.74a76.76,76.76,0,0,0,0,68.81l.86,1.74H275.57V427.71Z" transform="translate(34.03 -7.18)"></path><path class="cls-5" d="M104.8,464.46a77.74,77.74,0,0,1,8.14-35l.86-1.74H87.31l-.86,1.74a76.76,76.76,0,0,0,0,68.81l.86,1.74H113.8l-.86-1.74A77.76,77.76,0,0,1,104.8,464.46Z" transform="translate(34.03 -7.18)"></path><path class="cls-5" d="M220.33,464.46a77.6,77.6,0,0,1,8.14-35l.86-1.74H202.84l-.87,1.74a76.76,76.76,0,0,0,0,68.81l.87,1.74h26.49l-.86-1.74A77.62,77.62,0,0,1,220.33,464.46Z" transform="translate(34.03 -7.18)"></path><polygon class="cls-7" points="467.08 423.53 290.9 423.53 283.06 457.26 290.9 489.82 467.08 489.82 467.08 423.53"></polygon><path class="cls-6" d="M439.19,500H254.83l-.87-1.74a76.84,76.84,0,0,1,0-68.81l.87-1.74H439.19v6H259A71,71,0,0,0,259,494H439.19Z" transform="translate(34.03 -7.18)"></path><line class="cls-12" x1="295.29" y1="430.06" x2="464.17" y2="430.06"></line><line class="cls-12" x1="295.29" y1="433.83" x2="464.17" y2="433.83"></line><line class="cls-12" x1="295.29" y1="437.6" x2="464.17" y2="437.6"></line><line class="cls-12" x1="295.29" y1="441.37" x2="464.17" y2="441.37"></line><line class="cls-12" x1="295.29" y1="445.14" x2="464.17" y2="445.14"></line><line class="cls-12" x1="295.29" y1="448.91" x2="464.17" y2="448.91"></line><line class="cls-12" x1="295.29" y1="452.68" x2="464.17" y2="452.68"></line><line class="cls-12" x1="295.29" y1="456.46" x2="464.17" y2="456.46"></line><line class="cls-12" x1="295.29" y1="460.23" x2="464.17" y2="460.23"></line><line class="cls-12" x1="295.29" y1="464" x2="464.17" y2="464"></line><line class="cls-12" x1="295.29" y1="467.77" x2="464.17" y2="467.77"></line><line class="cls-12" x1="295.29" y1="471.54" x2="464.17" y2="471.54"></line><line class="cls-12" x1="295.29" y1="475.31" x2="464.17" y2="475.31"></line><line class="cls-12" x1="295.29" y1="479.08" x2="464.17" y2="479.08"></line><line class="cls-12" x1="295.29" y1="482.85" x2="464.17" y2="482.85"></line><text class="cls-13" transform="translate(164.35 454.2) scale(1.07 1)"><tspan class="cls-14">P</tspan><tspan class="cls-15" x="6.95" y="0">a</tspan><tspan class="cls-16" x="13.52" y="0">t</tspan><tspan class="cls-17" x="17.99" y="0">e</tspan><tspan class="cls-15" x="24.87" y="0">n</tspan><tspan x="32.45" y="0">t</tspan><tspan x="6.94" y="16.49">L</tspan><tspan class="cls-18" x="13.43" y="16.49">a</tspan><tspan x="19.94" y="16.49">w</tspan></text><rect class="cls-19" x="150.79" y="438.04" width="66.7" height="37.27"></rect><polygon class="cls-4" points="463.07 480.02 439.35 466.22 415.62 480.02 415.62 445.14 463.07 445.14 463.07 480.02"></polygon></g></g></g></svg>