<svg xmlns="http://www.w3.org/2000/svg" xmlns:xlink="http://www.w3.org/1999/xlink" viewBox="0 0 249.77 128.94"><defs><style>.cls-1{fill:none;}.cls-2{fill:#db2700;}.cls-13,.cls-15,.cls-3{fill:#fff;}.cls-4{fill:#00909f;}.cls-5{fill:#53d1ce;}.cls-6{clip-path:url(#clip-path);}.cls-7{fill:#009200;}.cls-17,.cls-7{opacity:0.1;}.cls-8{fill:#ffb000;}.cls-9{fill:#514f42;}.cls-10{fill:#e7efef;}.cls-10,.cls-13{opacity:0.4;}.cls-11{fill:#9ba4ab;}.cls-12{fill:#c9c9c2;}.cls-14,.cls-17{fill:#920000;}.cls-15,.cls-23{opacity:0.2;}.cls-16{clip-path:url(#clip-path-2);}.cls-18{fill:#b0510b;}.cls-19{fill:#924a18;}.cls-20{fill:#a15a2f;}.cls-21{fill:#c9776f;opacity:0.3;}.cls-22{clip-path:url(#clip-path-3);}.cls-23{fill:#312c00;}.cls-24{clip-path:url(#clip-path-4);}.cls-25{fill:#ffa47c;}.cls-26{fill:#3b0500;}.cls-27{fill:#13589b;}.cls-28{clip-path:url(#clip-path-5);}.cls-29{fill:#276eae;}.cls-30{fill:#25b2c4;}.cls-31{fill:#ffbd95;}.cls-32{fill:#ffcaaa;}.cls-33{fill:#54c9ef;}.cls-34{fill:#1d5383;}.cls-35{fill:#dc602d;}.cls-36{fill:#f36c35;}.cls-37{clip-path:url(#clip-path-6);}.cls-38{fill:#1a1318;}.cls-39{fill:#31333b;}.cls-40{fill:#fff6fb;}</style><clipPath id="clip-path"><path class="cls-1" d="M161.25,33.61C158.66,28.06,137,24.14,131,24.26c-6.06-.12-27.69,3.8-30.27,9.35-1.73,3.71-1.79,37.37,5,48.54,12.11,20,25.29,22.71,25.29,22.71s13.17-2.75,25.28-22.71C163,71,163,37.32,161.25,33.61Z"></path></clipPath><clipPath id="clip-path-2"><path class="cls-1" d="M132.89,34.27a16.55,16.55,0,0,0-11.43,28.28,18.7,18.7,0,0,1,3.23,3.54,10.65,10.65,0,0,1,1.2,4.43v9.71c0,2.09,1.48,4,3.14,5.25h0a9.12,9.12,0,0,0,1.09.74h0a9,9,0,0,0,1.06.55h0c0,.49.22.87.47.87h2.44c.26,0,.46-.39.48-.88a8.88,8.88,0,0,0,1-.55h0a11.92,11.92,0,0,0,1.07-.73h0c1.66-1.29,3.14-3.15,3.14-5.24V70.62s.35-3.39,1-4.43a13.09,13.09,0,0,1,2.78-3,16.55,16.55,0,0,0-10.78-28.9Z"></path></clipPath><clipPath id="clip-path-3"><path class="cls-1" d="M169.46,105.88l-43-15.16a1.9,1.9,0,0,0-1.23-1.16,1.84,1.84,0,0,0-1.74.11l-1.19-.41a1.81,1.81,0,0,0-1.24-1.2,1.79,1.79,0,0,0-1.76.14L117,87.39l2.86-7.69a2,2,0,0,0,1.34-3.61l.37-1a2.24,2.24,0,0,0-1.42-2.83l-10.82-4a2.24,2.24,0,0,0-2.93,1.2l-.37,1a2,2,0,0,0-1.34,3.61L97.63,93a2.14,2.14,0,0,0-1.43,3.84l-.24.66a2.24,2.24,0,0,0,1.43,2.83l10.81,4a2.26,2.26,0,0,0,2.93-1.21l.25-.65a2.14,2.14,0,0,0,1.42-3.85l2.52-6.76,2.15.85c-.19.57.35,1.28,1.22,1.61s1.69.14,1.94-.38l1,.4c-.08.54.42,1.18,1.23,1.48a1.67,1.67,0,0,0,1.87-.27l42.6,16.7c.87.33,2.31-1.34,2.78-2.59S170.32,106.2,169.46,105.88Z"></path></clipPath><clipPath id="clip-path-4"><path class="cls-1" d="M117.51,106.33h-.89a2,2,0,0,0-2.23-1.77H92.64a2,2,0,0,0-2.24,1.77h-.89a2.18,2.18,0,0,0-2.38,1.88v3.3a2.18,2.18,0,0,0,2.38,1.89h28a2.18,2.18,0,0,0,2.38-1.89v-3.3A2.17,2.17,0,0,0,117.51,106.33Z"></path></clipPath><clipPath id="clip-path-5"><path class="cls-1" d="M42.32,39.08A10.43,10.43,0,0,1,30.87,54.54a12.17,12.17,0,0,0-3-.57,6.87,6.87,0,0,0-2.78.82l-2,1.22-1.23.76-2,1.21A4.49,4.49,0,0,1,16,58h0a7.41,7.41,0,0,1-.75-.35h0l-.65-.39h0c-.27.15-.54.17-.62,0L13.18,56c-.08-.14.07-.37.32-.55,0-.23,0-.48,0-.74v0a5.77,5.77,0,0,1,0-.82h0a4.49,4.49,0,0,1,1.78-3.42l2-1.21,1.23-.75,1.95-1.2a10.29,10.29,0,0,0,2.06-2,8.21,8.21,0,0,0,.71-2.48,10.44,10.44,0,0,1,19.1-3.72Z"></path></clipPath><clipPath id="clip-path-6"><path class="cls-1" d="M223,32a10.27,10.27,0,0,0-9,16.64,11.4,11.4,0,0,1,1.74,2.4,6.45,6.45,0,0,1,.43,2.82c-.05.48-.16,1.46-.25,2.3s-.16,1.4-.16,1.4l-.26,2.28A4.46,4.46,0,0,0,217,63.34h0a6,6,0,0,0,.62.53h0c.21.15.42.29.62.41h0c0,.3.08.55.23.57L220,65c.15,0,.3-.21.35-.51a6,6,0,0,0,.68-.27h0c.23-.11.47-.24.71-.38h0a4.43,4.43,0,0,0,2.31-3l.25-2.28.16-1.41.25-2.24a10,10,0,0,1,.93-2.66,7.88,7.88,0,0,1,1.92-1.67A10.27,10.27,0,0,0,223,32Z"></path></clipPath></defs><g id="Layer_2" data-name="Layer 2"><g id="Background"><path class="cls-2" d="M182.17,62A51.39,51.39,0,1,1,130.78,10.6,51.39,51.39,0,0,1,182.17,62Z"></path><path class="cls-3" d="M192,65a.6.6,0,0,1-.56-.64.59.59,0,0,1,.62-.58A.61.61,0,1,1,192,65Z"></path><path class="cls-3" d="M191.62,68.68a.6.6,0,0,1-.53-.68.63.63,0,0,1,.68-.54.6.6,0,0,1,.53.68A.62.62,0,0,1,191.62,68.68Z"></path><path class="cls-3" d="M191.07,72.31a.61.61,0,0,1,.22-1.21.6.6,0,0,1,.49.71A.62.62,0,0,1,191.07,72.31Z"></path><path class="cls-3" d="M190.31,75.9a.62.62,0,0,1,.28-1.2.62.62,0,0,1,.45.74A.61.61,0,0,1,190.31,75.9Z"></path><path class="cls-3" d="M189.34,79.44a.64.64,0,0,1-.42-.77.61.61,0,0,1,1.17.35A.6.6,0,0,1,189.34,79.44Z"></path><path class="cls-3" d="M188.13,82.9a.6.6,0,0,1-.35-.78.61.61,0,0,1,.77-.37.61.61,0,1,1-.42,1.15Z"></path><path class="cls-3" d="M186.72,86.29a.6.6,0,0,1-.31-.8.62.62,0,0,1,.81-.32.61.61,0,1,1-.5,1.12Z"></path><path class="cls-3" d="M185.11,89.59a.61.61,0,1,1,.83-.27A.61.61,0,0,1,185.11,89.59Z"></path><path class="cls-3" d="M183.32,92.79a.62.62,0,0,1-.22-.84.6.6,0,0,1,.83-.22.62.62,0,0,1,.22.84A.59.59,0,0,1,183.32,92.79Z"></path><path class="cls-3" d="M181.31,95.87a.62.62,0,1,1,.86-.16A.62.62,0,0,1,181.31,95.87Z"></path><path class="cls-3" d="M179.13,98.82A.62.62,0,0,1,179,98a.63.63,0,0,1,.86-.11.6.6,0,0,1,.1.86A.61.61,0,0,1,179.13,98.82Z"></path><path class="cls-3" d="M176.78,101.64a.62.62,0,1,1,.87-.06A.63.63,0,0,1,176.78,101.64Z"></path><path class="cls-3" d="M174.28,104.32a.63.63,0,0,1,0-.87.61.61,0,1,1,.88.85A.6.6,0,0,1,174.28,104.32Z"></path><path class="cls-3" d="M171.6,106.83a.6.6,0,0,1,.05-.86.61.61,0,0,1,.82.91A.63.63,0,0,1,171.6,106.83Z"></path><path class="cls-3" d="M168.78,109.17a.6.6,0,0,1,.1-.85.62.62,0,0,1,.86.1.6.6,0,0,1-.1.85A.61.61,0,0,1,168.78,109.17Z"></path><path class="cls-3" d="M165.83,111.36a.62.62,0,0,1,.14-.86.61.61,0,0,1,.85.15.61.61,0,1,1-1,.71Z"></path><path class="cls-3" d="M162.75,113.36a.63.63,0,0,1,.2-.85.6.6,0,0,1,.83.19.61.61,0,0,1-.19.85A.59.59,0,0,1,162.75,113.36Z"></path><path class="cls-3" d="M159.55,115.15a.6.6,0,0,1,.25-.81.62.62,0,0,1,.83.24.6.6,0,0,1-.25.83A.61.61,0,0,1,159.55,115.15Z"></path><path class="cls-3" d="M156.25,116.76a.62.62,0,0,1,.3-.81.62.62,0,0,1,.81.31.58.58,0,0,1-.3.8A.61.61,0,0,1,156.25,116.76Z"></path><path class="cls-3" d="M152.86,118.17a.61.61,0,0,1,1.14-.45.6.6,0,0,1-.35.79A.59.59,0,0,1,152.86,118.17Z"></path><path class="cls-3" d="M149.4,119.38a.62.62,0,0,1,.39-.78.61.61,0,0,1,.37,1.16A.59.59,0,0,1,149.4,119.38Z"></path><path class="cls-3" d="M145.86,120.35a.61.61,0,0,1,1.18-.3.61.61,0,1,1-1.18.3Z"></path><path class="cls-3" d="M142.27,121.11a.61.61,0,0,1,.48-.71.64.64,0,0,1,.72.5.59.59,0,0,1-.49.7A.61.61,0,0,1,142.27,121.11Z"></path><path class="cls-3" d="M138.64,121.66a.61.61,0,0,1,1.21-.15.61.61,0,1,1-1.21.15Z"></path><path class="cls-3" d="M135,122a.62.62,0,0,1,.57-.66.61.61,0,1,1-.57.66Z"></path><path class="cls-3" d="M131.31,122.12a.64.64,0,0,1,.61-.63.61.61,0,0,1,.62.6.63.63,0,0,1-.61.62A.6.6,0,0,1,131.31,122.12Z"></path><path class="cls-3" d="M127.65,122a.61.61,0,0,1,1.22,0,.63.63,0,0,1-.64.6A.61.61,0,0,1,127.65,122Z"></path><path class="cls-3" d="M124,121.66a.61.61,0,0,1,.67-.53.63.63,0,0,1,.55.68.6.6,0,0,1-.68.53A.61.61,0,0,1,124,121.66Z"></path><path class="cls-3" d="M120.36,121.11a.61.61,0,0,1,.71-.49.62.62,0,0,1,.5.71.61.61,0,0,1-1.21-.22Z"></path><path class="cls-3" d="M116.77,120.35a.62.62,0,0,1,.74-.46.62.62,0,0,1,.45.74.61.61,0,0,1-1.19-.28Z"></path><path class="cls-3" d="M113.23,119.38A.63.63,0,0,1,114,119a.61.61,0,0,1-.35,1.17A.6.6,0,0,1,113.23,119.38Z"></path><path class="cls-3" d="M109.77,118.17a.61.61,0,1,1,.36.8A.63.63,0,0,1,109.77,118.17Z"></path><path class="cls-3" d="M106.38,116.76a.61.61,0,1,1,1.11.5.6.6,0,0,1-.8.31A.61.61,0,0,1,106.38,116.76Z"></path><path class="cls-3" d="M103.08,115.16a.61.61,0,1,1,.26.82A.61.61,0,0,1,103.08,115.16Z"></path><path class="cls-3" d="M99.88,113.36a.62.62,0,0,1,.84-.22.61.61,0,0,1,.22.83.62.62,0,0,1-.84.22A.59.59,0,0,1,99.88,113.36Z"></path><path class="cls-3" d="M96.8,111.36a.61.61,0,0,1,1,.68.61.61,0,0,1-.85.18A.63.63,0,0,1,96.8,111.36Z"></path><path class="cls-3" d="M93.85,109.17a.61.61,0,0,1,1,.76A.6.6,0,0,1,94,110,.62.62,0,0,1,93.85,109.17Z"></path><path class="cls-3" d="M91,106.83a.61.61,0,0,1,.93.8.63.63,0,0,1-.87.06A.61.61,0,0,1,91,106.83Z"></path><path class="cls-3" d="M88.35,104.32a.63.63,0,0,1,.87,0,.6.6,0,0,1,0,.86.62.62,0,0,1-.87,0A.6.6,0,0,1,88.35,104.32Z"></path><path class="cls-3" d="M85.84,101.64a.61.61,0,1,1,0,.87A.63.63,0,0,1,85.84,101.64Z"></path><path class="cls-3" d="M83.49,98.82a.61.61,0,0,1,.86.1.62.62,0,0,1-.1.86.6.6,0,0,1-.85-.1A.61.61,0,0,1,83.49,98.82Z"></path><path class="cls-3" d="M81.31,95.87a.63.63,0,0,1,.86.14.62.62,0,0,1-.15.85.61.61,0,1,1-.71-1Z"></path><path class="cls-3" d="M79.31,92.79a.64.64,0,0,1,.85.2.61.61,0,1,1-1,.64A.59.59,0,0,1,79.31,92.79Z"></path><path class="cls-3" d="M77.51,89.59a.6.6,0,0,1,.82.26.61.61,0,0,1-.24.82.62.62,0,0,1-.84-.24A.64.64,0,0,1,77.51,89.59Z"></path><path class="cls-3" d="M75.91,86.29a.6.6,0,0,1,.8.3.62.62,0,0,1-.3.82.6.6,0,0,1-.8-.3A.61.61,0,0,1,75.91,86.29Z"></path><path class="cls-3" d="M74.5,82.9a.61.61,0,1,1-.35.79A.61.61,0,0,1,74.5,82.9Z"></path><path class="cls-3" d="M73.29,79.44a.63.63,0,0,1,.78.39.62.62,0,0,1-.39.77.63.63,0,0,1-.78-.39A.6.6,0,0,1,73.29,79.44Z"></path><path class="cls-3" d="M72.32,75.9a.61.61,0,0,1,.73.44.6.6,0,0,1-.43.74.62.62,0,0,1-.76-.43A.63.63,0,0,1,72.32,75.9Z"></path><path class="cls-3" d="M71.56,72.31a.6.6,0,0,1,.7.49.62.62,0,0,1-.49.71.6.6,0,0,1-.71-.48A.62.62,0,0,1,71.56,72.31Z"></path><path class="cls-3" d="M71,68.68a.62.62,0,0,1,.68.53.61.61,0,0,1-.53.68.59.59,0,0,1-.68-.52A.61.61,0,0,1,71,68.68Z"></path><path class="cls-3" d="M70.67,65a.64.64,0,0,1,.66.57.61.61,0,1,1-1.22.09A.61.61,0,0,1,70.67,65Z"></path><path class="cls-3" d="M70.55,61.36a.63.63,0,0,1,.63.6.61.61,0,0,1-.6.62A.61.61,0,0,1,70,62,.59.59,0,0,1,70.55,61.36Z"></path><path class="cls-3" d="M70.67,57.69a.6.6,0,0,1,.57.64.6.6,0,0,1-.63.58.61.61,0,1,1,.06-1.22Z"></path><path class="cls-3" d="M71,54a.62.62,0,0,1,.53.68.64.64,0,0,1-.68.54.61.61,0,0,1-.54-.68A.62.62,0,0,1,71,54Z"></path><path class="cls-3" d="M71.56,50.4a.62.62,0,0,1,.49.71.63.63,0,0,1-.71.5.6.6,0,0,1-.49-.71A.61.61,0,0,1,71.56,50.4Z"></path><path class="cls-3" d="M72.32,46.81a.62.62,0,0,1,.45.74A.61.61,0,0,1,72,48a.62.62,0,0,1-.46-.74A.62.62,0,0,1,72.32,46.81Z"></path><path class="cls-3" d="M73.29,43.28a.63.63,0,0,1,.42.76.61.61,0,0,1-1.17-.35A.58.58,0,0,1,73.29,43.28Z"></path><path class="cls-3" d="M74.5,39.81a.61.61,0,0,1,.35.78.61.61,0,1,1-.35-.78Z"></path><path class="cls-3" d="M75.91,36.42a.61.61,0,0,1,.3.8.62.62,0,0,1-.81.32.6.6,0,0,1-.3-.81A.61.61,0,0,1,75.91,36.42Z"></path><path class="cls-3" d="M77.51,33.12A.61.61,0,1,1,77,34.21a.61.61,0,0,1,.55-1.09Z"></path><path class="cls-3" d="M79.31,29.92a.62.62,0,0,1,.22.84.61.61,0,0,1-.83.22.62.62,0,0,1-.22-.84A.6.6,0,0,1,79.31,29.92Z"></path><path class="cls-3" d="M81.31,26.84a.61.61,0,0,1-.68,1,.62.62,0,0,1-.18-.86A.63.63,0,0,1,81.31,26.84Z"></path><path class="cls-3" d="M83.49,23.89a.61.61,0,0,1,.11.86.63.63,0,0,1-.86.11.61.61,0,0,1-.11-.86A.62.62,0,0,1,83.49,23.89Z"></path><path class="cls-3" d="M85.84,21.07a.63.63,0,0,1,.06.87.61.61,0,1,1-.06-.87Z"></path><path class="cls-3" d="M88.35,18.39a.63.63,0,0,1,0,.87.6.6,0,0,1-.86,0,.62.62,0,0,1,0-.87A.6.6,0,0,1,88.35,18.39Z"></path><path class="cls-3" d="M91,15.89a.6.6,0,0,1,0,.85.61.61,0,1,1,0-.85Z"></path><path class="cls-3" d="M93.85,13.54a.6.6,0,0,1-.1.85.62.62,0,0,1-.86-.1.59.59,0,0,1,.1-.85A.61.61,0,0,1,93.85,13.54Z"></path><path class="cls-3" d="M96.8,11.36a.62.62,0,0,1-.14.85.63.63,0,0,1-.86-.14.62.62,0,0,1,.15-.86A.6.6,0,0,1,96.8,11.36Z"></path><path class="cls-3" d="M99.88,9.35a.64.64,0,0,1-.2.85.61.61,0,1,1-.64-1A.59.59,0,0,1,99.88,9.35Z"></path><path class="cls-3" d="M103.08,7.56a.6.6,0,0,1-.26.81.61.61,0,0,1-.58-1.07A.62.62,0,0,1,103.08,7.56Z"></path><path class="cls-3" d="M106.38,6a.62.62,0,0,1-1.12.51.61.61,0,0,1,.3-.81A.62.62,0,0,1,106.38,6Z"></path><path class="cls-3" d="M109.77,4.54a.64.64,0,0,1-.35.8.62.62,0,0,1-.79-.35A.6.6,0,0,1,109,4.2.61.61,0,0,1,109.77,4.54Z"></path><path class="cls-3" d="M113.23,3.33a.63.63,0,0,1-.39.78A.61.61,0,1,1,112.46,3,.6.6,0,0,1,113.23,3.33Z"></path><path class="cls-3" d="M116.77,2.36a.6.6,0,0,1-.44.73.59.59,0,0,1-.74-.43.61.61,0,0,1,.43-.75A.62.62,0,0,1,116.77,2.36Z"></path><path class="cls-3" d="M120.36,1.6a.61.61,0,0,1-.49.71.62.62,0,0,1-.71-.5.59.59,0,0,1,.48-.7A.62.62,0,0,1,120.36,1.6Z"></path><path class="cls-3" d="M124,1.05a.61.61,0,0,1-.53.68A.61.61,0,1,1,123.3.52.62.62,0,0,1,124,1.05Z"></path><path class="cls-3" d="M127.64.72a.61.61,0,0,1-1.22.09A.62.62,0,0,1,127,.15.61.61,0,0,1,127.64.72Z"></path><path class="cls-3" d="M131.31.6a.63.63,0,0,1-.6.62.6.6,0,0,1-.62-.59.61.61,0,0,1,.6-.63A.59.59,0,0,1,131.31.6Z"></path><path class="cls-3" d="M135,.72a.6.6,0,0,1-.64.56.6.6,0,0,1-.58-.62A.61.61,0,1,1,135,.72Z"></path><path class="cls-3" d="M138.63,1.05a.61.61,0,0,1-.67.53.63.63,0,0,1-.54-.68.59.59,0,0,1,.67-.53A.61.61,0,0,1,138.63,1.05Z"></path><path class="cls-3" d="M142.26,1.6a.6.6,0,0,1-.7.49.62.62,0,0,1-.5-.71.6.6,0,0,1,.7-.49A.61.61,0,0,1,142.26,1.6Z"></path><path class="cls-3" d="M145.85,2.36a.61.61,0,1,1-1.19-.28.61.61,0,0,1,.74-.45A.6.6,0,0,1,145.85,2.36Z"></path><path class="cls-3" d="M149.39,3.33a.63.63,0,0,1-.76.42.6.6,0,0,1-.41-.75.61.61,0,0,1,.76-.42A.59.59,0,0,1,149.39,3.33Z"></path><path class="cls-3" d="M152.86,4.54a.61.61,0,0,1-1.15-.42.62.62,0,0,1,.79-.38A.63.63,0,0,1,152.86,4.54Z"></path><path class="cls-3" d="M156.25,6a.61.61,0,0,1-.81.31.63.63,0,0,1-.31-.81.6.6,0,0,1,.8-.31A.61.61,0,0,1,156.25,6Z"></path><path class="cls-3" d="M159.55,7.56a.63.63,0,0,1-.83.26.61.61,0,1,1,.83-.26Z"></path><path class="cls-3" d="M162.75,9.35a.62.62,0,0,1-.84.22.6.6,0,0,1-.22-.83.62.62,0,0,1,.84-.22A.6.6,0,0,1,162.75,9.35Z"></path><path class="cls-3" d="M165.82,11.36a.61.61,0,0,1-1-.69.61.61,0,1,1,1,.69Z"></path><path class="cls-3" d="M168.77,13.54a.6.6,0,0,1-.85.1.63.63,0,0,1-.11-.86.61.61,0,0,1,.86-.11A.63.63,0,0,1,168.77,13.54Z"></path><path class="cls-3" d="M171.6,15.88a.61.61,0,1,1-.93-.8.61.61,0,0,1,.86-.06A.61.61,0,0,1,171.6,15.88Z"></path><path class="cls-3" d="M174.28,18.39a.63.63,0,0,1-.87,0,.6.6,0,0,1,0-.86.62.62,0,0,1,.87,0A.6.6,0,0,1,174.28,18.39Z"></path><path class="cls-3" d="M176.78,21.07a.59.59,0,0,1-.85-.05.61.61,0,1,1,.85.05Z"></path><path class="cls-3" d="M179.13,23.89a.6.6,0,0,1-.85-.1.61.61,0,0,1,.1-.86.6.6,0,0,1,.85.1A.61.61,0,0,1,179.13,23.89Z"></path><path class="cls-3" d="M181.31,26.84a.61.61,0,1,1,.15-.85A.6.6,0,0,1,181.31,26.84Z"></path><path class="cls-3" d="M183.32,29.92a.64.64,0,0,1-.85-.2.6.6,0,0,1,.19-.83.62.62,0,0,1,.85.19A.6.6,0,0,1,183.32,29.92Z"></path><path class="cls-3" d="M185.11,33.12a.61.61,0,0,1-.82-.25.63.63,0,0,1,.25-.83.6.6,0,0,1,.83.25A.61.61,0,0,1,185.11,33.12Z"></path><path class="cls-3" d="M186.72,36.42a.62.62,0,0,1-.81-.3.63.63,0,0,1,.3-.82.62.62,0,0,1,.51,1.12Z"></path><path class="cls-3" d="M188.13,39.81a.63.63,0,0,1-.8-.35.62.62,0,0,1,.35-.79.61.61,0,0,1,.45,1.14Z"></path><path class="cls-3" d="M189.34,43.27a.62.62,0,0,1-.78-.39.61.61,0,1,1,1.16-.37A.59.59,0,0,1,189.34,43.27Z"></path><path class="cls-3" d="M190.31,46.81a.61.61,0,0,1-.3-1.18.61.61,0,0,1,.75.43A.62.62,0,0,1,190.31,46.81Z"></path><path class="cls-3" d="M191.07,50.4a.61.61,0,0,1-.71-.48.63.63,0,0,1,.5-.72.59.59,0,0,1,.7.49A.61.61,0,0,1,191.07,50.4Z"></path><path class="cls-3" d="M191.62,54a.61.61,0,0,1-.16-1.21.61.61,0,1,1,.16,1.21Z"></path><path class="cls-3" d="M192,57.69a.62.62,0,0,1-.65-.57.6.6,0,0,1,.56-.65.61.61,0,1,1,.09,1.22Z"></path><path class="cls-3" d="M192.07,61.35a.63.63,0,0,1-.62-.6.6.6,0,0,1,.59-.62.62.62,0,0,1,.63.61A.59.59,0,0,1,192.07,61.35Z"></path><path class="cls-4" d="M161.25,33.61C158.66,28.06,137,24.14,131,24.26c-6.06-.12-27.69,3.8-30.27,9.35-1.73,3.71-1.79,37.37,5,48.54,12.11,20,25.29,22.71,25.29,22.71s13.17-2.75,25.28-22.71C163,71,163,37.32,161.25,33.61Z"></path><path class="cls-5" d="M158.43,35.91c-2.34-5-22-8.59-27.45-8.48-5.49-.11-25.11,3.44-27.45,8.48-1.57,3.36-1.63,33.89,4.52,44C119,98,131,100.53,131,100.53s11.94-2.49,22.93-20.6C160.05,69.8,160,39.27,158.43,35.91Z"></path><g class="cls-6"><rect class="cls-7" x="97.38" y="22.68" width="33.44" height="87.6"></rect></g><path class="cls-8" d="M149.2,50.79a16.31,16.31,0,1,0-27.74,11.76,18.7,18.7,0,0,1,3.23,3.54,10.65,10.65,0,0,1,1.2,4.43v6h14V70.62s.35-3.39,1-4.43a13.09,13.09,0,0,1,2.78-3A16.52,16.52,0,0,0,149.2,50.79Z"></path><path class="cls-9" d="M130,63.36a.29.29,0,0,1-.28-.23s-.27-1.29-3.47-11.81c-.35-1.14-.33-1.89.06-2.3s1.37-.3,2-.14a2.15,2.15,0,0,0,.54.1c.15,0,.35-.28.53-.51a2,2,0,0,1,1.48-1h0a1.82,1.82,0,0,1,1.37,1c.2.27.39.53.57.53h0a.29.29,0,0,1,0,.57c-.49,0-.77-.38-1.05-.76s-.53-.73-.92-.73h0c-.43,0-.73.39-1,.76s-.52.67-.89.73a2.26,2.26,0,0,1-.77-.12c-.5-.12-1.19-.29-1.46,0s-.29.54.07,1.73C130.07,61.8,130.31,63,130.32,63a.28.28,0,0,1-.23.33Z"></path><path class="cls-9" d="M135.7,63.37h-.07a.29.29,0,0,1-.21-.35s.3-1.22,3.54-11.86c.36-1.19.19-1.59.06-1.73s-1-.11-1.46,0a2.52,2.52,0,0,1-.76.12c-.37-.06-.62-.39-.89-.73s-.61-.76-1-.76h0c-.39,0-.65.35-.92.72s-.56.77-1.06.77a.29.29,0,0,1,0-.57h0c.19,0,.38-.26.58-.53a1.82,1.82,0,0,1,1.37-1h0a1.94,1.94,0,0,1,1.47,1c.19.23.39.49.53.51a2.21,2.21,0,0,0,.55-.1c.64-.16,1.52-.37,2,.14s.41,1.16.06,2.3C136.29,61.88,136,63.1,136,63.15A.28.28,0,0,1,135.7,63.37Z"></path><path class="cls-10" d="M136.4,64.47c0-2.35-1.57-2.41-3.51-2.41h0c-1.93,0-3.5.06-3.5,2.41v9.36c0,2.35,7,2.35,7,0Z"></path><rect class="cls-10" x="131.77" y="54.47" width="2.04" height="7.59"></rect><path class="cls-10" d="M134.17,54.47a.3.3,0,0,1-.31.3h-2.24a.3.3,0,0,1-.31-.3h0a.31.31,0,0,1,.31-.31h2.24a.31.31,0,0,1,.31.31Z"></path><path class="cls-11" d="M139.89,80.23c0,3.87-5.1,7-7,7h0c-2,0-7-3.13-7-7v-6h14Z"></path><path class="cls-11" d="M134.59,86.7c0,.53-.21,1-.48,1h-2.44c-.27,0-.48-.42-.48-1h0c0-.53.21-1,.48-1h2.44c.27,0,.48.43.48,1Z"></path><path class="cls-12" d="M139.89,75.83a.57.57,0,0,1-.55.6L126.5,77a.58.58,0,0,1-.61-.54h0a.58.58,0,0,1,.55-.6l12.85-.61a.56.56,0,0,1,.6.54Z"></path><path class="cls-12" d="M139.89,77.91a.57.57,0,0,1-.55.6l-12.84.63a.59.59,0,0,1-.61-.55h0a.59.59,0,0,1,.55-.6l12.85-.62a.57.57,0,0,1,.6.54Z"></path><path class="cls-12" d="M139.89,80a.58.58,0,0,1-.55.6l-12.84.61a.59.59,0,0,1-.61-.55h0a.59.59,0,0,1,.55-.6l12.85-.6a.57.57,0,0,1,.6.54Z"></path><path class="cls-13" d="M135.59,73a.89.89,0,0,1-.89.89h0a.89.89,0,0,1-.89-.89V63.7a.89.89,0,0,1,.89-.89h0a.89.89,0,0,1,.89.89Z"></path><path class="cls-13" d="M133.46,61.37a.34.34,0,0,1-.34.33h0a.33.33,0,0,1-.33-.33V55.73a.33.33,0,0,1,.33-.33h0a.34.34,0,0,1,.34.33Z"></path><path class="cls-14" d="M127.09,83.51a10.61,10.61,0,0,0,4.11,3.27c0,.49.22.87.47.87h2.44c.26,0,.46-.39.48-.88a10.79,10.79,0,0,0,4.1-3.26Z"></path><path class="cls-15" d="M146.69,44c1.45,3.28,1.15,6.6-.68,7.41s-4.48-1.2-5.93-4.48-1.15-6.6.68-7.41S145.24,40.7,146.69,44Z"></path><g class="cls-16"><rect class="cls-17" x="115.77" y="32.96" width="16.97" height="55.85"></rect></g><path class="cls-18" d="M116.62,106.33a2,2,0,0,1-2.23,1.77H92.64a2.06,2.06,0,0,1-2.24-1.77h0a2,2,0,0,1,2.24-1.77h21.75a2,2,0,0,1,2.23,1.77Z"></path><path class="cls-19" d="M119.89,111.51a2.18,2.18,0,0,1-2.38,1.89h-28a2.18,2.18,0,0,1-2.38-1.89v-3.3a2.18,2.18,0,0,1,2.38-1.88h28a2.17,2.17,0,0,1,2.38,1.88Z"></path><path class="cls-19" d="M111.13,103.19a2.26,2.26,0,0,1-2.93,1.21l-10.81-4A2.24,2.24,0,0,1,96,97.54l10.45-28.09a2.24,2.24,0,0,1,2.93-1.2l10.82,4a2.24,2.24,0,0,1,1.42,2.83Z"></path><path class="cls-20" d="M113.52,101.15a1.86,1.86,0,0,1-2.19,1.38L96.24,96.91a1.88,1.88,0,0,1-.76-2.48h0a1.87,1.87,0,0,1,2.2-1.38l15.09,5.62a1.86,1.86,0,0,1,.75,2.48Z"></path><path class="cls-20" d="M122,78.43a1.79,1.79,0,0,1-2.15,1.27l-15.09-5.62a1.79,1.79,0,0,1-.81-2.37h0a1.79,1.79,0,0,1,2.16-1.26l15.09,5.61a1.8,1.8,0,0,1,.8,2.37Z"></path><path class="cls-19" d="M170.11,109.73c-.47,1.25-1.91,2.92-2.78,2.59L114.68,91.68c-.86-.32-1.18-1.59-.72-2.84h0c.46-1.25,1.54-2,2.41-1.68l53.09,18.72c.86.32,1.11,2.6.65,3.85Z"></path><path class="cls-20" d="M120.69,94c-.21.57-1.11.77-2,.44h0c-.88-.33-1.43-1.06-1.21-1.64l1.58-4.25c.21-.58,1.1-.77,2-.44h0c.89.33,1.43,1.06,1.22,1.63Z"></path><path class="cls-20" d="M124.86,95.45c-.22.57-1.11.77-2,.44h0c-.89-.33-1.43-1.06-1.22-1.63L123.23,90c.21-.57,1.1-.77,2-.44h0c.88.33,1.43,1.06,1.22,1.63Z"></path><path class="cls-21" d="M168.62,106.88a.72.72,0,0,1-.93.44L127.38,92.91A.73.73,0,0,1,127,92h0a.71.71,0,0,1,.92-.43L168.18,106a.73.73,0,0,1,.44.92Z"></path><path class="cls-21" d="M121.19,74.08a.72.72,0,0,1-.93.42l-12.11-4.58a.71.71,0,0,1-.41-.93h0a.72.72,0,0,1,.93-.42l12.1,4.58a.73.73,0,0,1,.42.93Z"></path><path class="cls-21" d="M121.53,77.69a.82.82,0,0,1-1.09.36l-15-5.66a.81.81,0,0,1-.57-1h0a.81.81,0,0,1,1.09-.36L121,76.71a.81.81,0,0,1,.58,1Z"></path><path class="cls-21" d="M113.19,100.21a.81.81,0,0,1-1.09.36L97.15,94.92a.83.83,0,0,1-.57-1h0a.81.81,0,0,1,1.09-.36l14.94,5.66a.81.81,0,0,1,.58,1Z"></path><path class="cls-21" d="M121.58,89.19a1,1,0,0,1-2,0,1,1,0,1,1,2,0Z"></path><path class="cls-21" d="M125.75,90.78a1,1,0,1,1-1-1A1,1,0,0,1,125.75,90.78Z"></path><path class="cls-21" d="M118.66,111.06a1.66,1.66,0,0,1-1.66,1.66h0a1.66,1.66,0,0,1-1.66-1.66v-2.42A1.66,1.66,0,0,1,117,107h0a1.66,1.66,0,0,1,1.66,1.66Z"></path><g class="cls-22"><rect class="cls-23" x="121.55" y="58.11" width="17.76" height="92.62" transform="matrix(0.35, -0.94, 0.94, 0.35, -13.01, 190.1)"></rect></g><g class="cls-24"><rect class="cls-23" x="81.57" y="103.71" width="21.94" height="10.49"></rect></g><path class="cls-25" d="M54.06,48.12A2.17,2.17,0,0,1,53.29,50c-1.66,1-10.28-1.8-10.93-2.42s-.68-2.13.54-2C46.22,45.86,53.41,46,54.06,48.12Z"></path><path class="cls-25" d="M43.89,46.31s0,1.17-.73,1.33c-1.39.32-8.06-5.16-8.55-5.91s.08-1.49,1.07-1C38.35,42.13,43.41,44.64,43.89,46.31Z"></path><path class="cls-26" d="M20.41,82.79a6.07,6.07,0,0,0,0,2A5.33,5.33,0,0,0,21.13,86l2.3-.46,0-.29a17.8,17.8,0,0,0,3-.45c.87-.33,2.46-2.86,2.46-2.86s-.2-.51-.35-.57c-.77-.32-1.71,1.43-2.45,1.45A5.76,5.76,0,0,1,24,81.89Z"></path><path class="cls-25" d="M3.36,47a2.2,2.2,0,0,0-.4,2c.83,1.8,9.73,4.29,10.63,4.14s1.79-1.41.69-2C11.28,49.57,5.11,45.62,3.36,47Z"></path><path class="cls-25" d="M12.4,51.67s-.25,1.17.47,1.48c1.34.58,9.06-3.64,9.69-4.3s.2-1.51-.88-1.19C18.74,48.54,13.19,50.09,12.4,51.67Z"></path><path class="cls-27" d="M6.21,62.32S2.8,65.71,2.52,66.74s1.59,1.44,2.76,1.48,10.9.84,11.4,3.29,3.58,11.87,3.58,11.87l4.21-1.26S21.8,67.81,19.88,66C18.77,65,6.21,62.32,6.21,62.32Z"></path><path class="cls-8" d="M28.06,35.75a10.29,10.29,0,1,1,2.81,18.79,12.17,12.17,0,0,0-3-.57,6.87,6.87,0,0,0-2.78.82l-3.23,2-4.61-7.54,3.18-1.95a10.29,10.29,0,0,0,2.06-2,8.21,8.21,0,0,0,.71-2.48A10.43,10.43,0,0,1,28.06,35.75Z"></path><path class="cls-9" d="M27.59,50.2a.18.18,0,0,0,.23.08s.79-.28,7.5-2c.73-.18,1.13-.45,1.23-.79s-.29-.85-.59-1.15a2.11,2.11,0,0,1-.23-.25c0-.08,0-.27.1-.44a1.25,1.25,0,0,0,0-1.13s0,0,0,0a1.18,1.18,0,0,0-1-.43c-.21,0-.4,0-.46-.13h0a.21.21,0,0,0-.27-.07.19.19,0,0,0-.07.26.91.91,0,0,0,.77.33c.28,0,.56,0,.69.25s0,.52-.07.8a1,1,0,0,0-.1.73,1.43,1.43,0,0,0,.32.38c.22.21.54.54.48.77s-.19.33-.94.52c-6.8,1.76-7.52,2-7.54,2a.21.21,0,0,0-.12.25Z"></path><path class="cls-9" d="M25.73,47.16s0,0,0,0a.18.18,0,0,0,.27,0s.56-.56,5.22-5.8c.52-.58.78-.63.9-.61s.37.5.46.79a1.38,1.38,0,0,0,.19.45,1,1,0,0,0,.69.24c.3,0,.61.09.75.31s0,.46-.09.72a.93.93,0,0,0-.06.84.19.19,0,0,0,.27,0,.2.2,0,0,0,0-.27c-.06-.08,0-.27.1-.47a1.13,1.13,0,0,0,.06-1.06,1.23,1.23,0,0,0-1-.5c-.18,0-.39,0-.44-.11a1,1,0,0,1-.12-.32c-.13-.4-.3-1-.75-1s-.77.16-1.27.72c-4.63,5.21-5.19,5.77-5.2,5.79A.19.19,0,0,0,25.73,47.16Z"></path><path class="cls-10" d="M24.91,47.14c1.27-.78,1.81,0,2.45,1.09h0c.64,1.05,1.12,1.91-.14,2.68l-5,3.08c-1.26.78-3.57-3-2.31-3.77Z"></path><rect class="cls-10" x="27.04" y="46.39" width="4.79" height="1.29" transform="translate(-20.25 22.33) rotate(-31.52)"></rect><path class="cls-10" d="M31,45.05a.18.18,0,0,0-.06.26l.73,1.21a.2.2,0,0,0,.27.06h0a.18.18,0,0,0,.06-.26l-.73-1.21a.2.2,0,0,0-.27-.06Z"></path><path class="cls-11" d="M15.28,50.44c-2.08,1.28-2.09,5.06-1.47,6.08h0c.65,1,4,2.73,6.08,1.46l3.22-2L18.5,48.48Z"></path><path class="cls-11" d="M13.54,55.43c-.28.17-.44.42-.36.57L14,57.31c.09.15.39.12.67-.05h0c.29-.18.45-.43.36-.58l-.81-1.31c-.08-.14-.38-.12-.67.06Z"></path><path class="cls-12" d="M17.65,49a.36.36,0,0,0-.15.49l3.9,7.11a.36.36,0,0,0,.49.15h0a.36.36,0,0,0,.15-.49l-3.9-7.12a.36.36,0,0,0-.49-.14Z"></path><path class="cls-12" d="M16.53,49.69a.37.37,0,0,0-.15.49l3.9,7.11a.36.36,0,0,0,.49.15h0a.36.36,0,0,0,.14-.49L17,49.83a.35.35,0,0,0-.49-.14Z"></path><path class="cls-12" d="M15.4,50.37a.36.36,0,0,0-.14.5L19.16,58a.36.36,0,0,0,.49.14h0a.36.36,0,0,0,.14-.49l-3.9-7.11a.37.37,0,0,0-.49-.15Z"></path><path class="cls-13" d="M20.61,50.37a.56.56,0,0,0-.19.77h0a.56.56,0,0,0,.77.19l5-3a.57.57,0,0,0,.19-.77h0a.57.57,0,0,0-.78-.19Z"></path><path class="cls-13" d="M27.55,47.7a.21.21,0,0,0-.07.29h0a.21.21,0,0,0,.29.07l3-1.86a.2.2,0,0,0,.07-.28h0a.21.21,0,0,0-.29-.07Z"></path><path class="cls-14" d="M17.73,58.42a6.85,6.85,0,0,1-3.12-1.14c-.27.15-.54.17-.62,0L13.18,56c-.08-.14.07-.37.32-.55a6.87,6.87,0,0,1,.41-3.28Z"></path><path class="cls-15" d="M32.55,34.86c-2.24.29-3.92,1.55-3.76,2.8s2.12,2,4.36,1.72,3.93-1.56,3.77-2.81S34.8,34.56,32.55,34.86Z"></path><g class="cls-28"><rect class="cls-17" x="13.22" y="47.14" width="35.23" height="10.71" transform="matrix(0.85, -0.52, 0.52, 0.85, -22.85, 23.79)"></rect></g><path class="cls-26" d="M14.28,89.52a5.53,5.53,0,0,0-.39,1.87,4.92,4.92,0,0,0,.43,1.23h2.22l.09-.26s2.11.18,2.86.17c.93,0,3.49-.06,3.8-.51.09-.12-.09-.5-.22-.59a14,14,0,0,0-3.51-.8,5.26,5.26,0,0,1-1.79-1.26Z"></path><path class="cls-29" d="M6.52,61S.23,61.57.1,62.62a5.62,5.62,0,0,0,1.12,4.3c.77,1.08,4.89,6.62,5.72,9s6.72,14.8,6.72,14.8l4.51-.92L11.56,73.62Z"></path><path class="cls-25" d="M7.82,46.71a8,8,0,0,1-1.94,0A5.88,5.88,0,0,1,4,45.92a7.56,7.56,0,0,0,.7-3.59c0-.67,3.52.45,3.52.76S7.52,45.75,7.82,46.71Z"></path><path class="cls-30" d="M7.89,46.64c-.8.26-3.43-.66-3.69-1s-2.12,1.3-2.89,3S.14,55.36,0,57C0,58.3,0,62.8,0,62.8l7.2-.48a40.06,40.06,0,0,1-.12-5.43c.16-2.52,2.05-4.7,1.7-6.72A21.8,21.8,0,0,0,7.89,46.64Z"></path><path class="cls-31" d="M5.72,38.17c1.75-1.41,4.23-.3,4.61.94a2.41,2.41,0,0,1,0,2.08c-.07,1.21-.05,2-.05,2h-.5s-.23.85-.39,1.52c-.09.36-1,.16-1.94.08a3.76,3.76,0,0,1-2.1-1.08,4.77,4.77,0,0,1-.65-2.5A4,4,0,0,1,5.72,38.17Z"></path><path class="cls-32" d="M3.66,47s-1.17.67-1.11,1.72c.1,2,7.45,7.59,8.34,7.78s2.18-.65,1.38-1.61C10.09,52.25,5.81,46.3,3.66,47Z"></path><path class="cls-32" d="M10.94,54.62s-.75.93-.26,1.53c.92,1.14,9.72,1,10.58.66s.88-1.25-.23-1.47C18,54.77,12.38,53.59,10.94,54.62Z"></path><path class="cls-33" d="M2.8,47.27c-1,1-.88,2.65,1.3,4.11.92.63,3.35-2.59,3-3S4.13,45.86,2.8,47.27Z"></path><path class="cls-26" d="M10.4,39.4a2.12,2.12,0,0,0,.1-.78c-.2-.8-1.58-1.66-3.06-2-1.88-.39-3.18,2-3.41,3.12-.27,1.26.58,2.6.57,3.7,0,.6,1-.31,1-.31l.66-1.41s0-1.77,1-1.28c.65.35.18,1.38.18,1.38l.35,0a5.68,5.68,0,0,1,.73-1.6A9.19,9.19,0,0,1,10.4,39.4Z"></path><path class="cls-34" d="M5.5,62.79h.61A3.07,3.07,0,0,1,5.57,65a2.15,2.15,0,0,1-2.07.74l-.06-.58a1.81,1.81,0,0,0,1.63-.51A2.47,2.47,0,0,0,5.5,62.79Z"></path><path class="cls-26" d="M52.38,85.72A6.15,6.15,0,0,1,54,87a5.13,5.13,0,0,1,.47,1.3l-1.8,1.51-.26-.16a17.59,17.59,0,0,1-2.23,2.07c-.8.48-3.77.14-3.77.14s-.27-.48-.22-.64c.23-.8,2.18-.43,2.65-1A5.72,5.72,0,0,0,49.43,88Z"></path><path class="cls-27" d="M45.26,61.83s4.79-.54,5.76-.11.14,2.14-.56,3.07-6.16,9-4.56,10.95,7,10.22,7,10.22l-3.62,2.5s-9.49-11-9.7-13.65C39.49,73.29,45.26,61.83,45.26,61.83Z"></path><path class="cls-26" d="M38.85,89.76a5.65,5.65,0,0,1-.3,1.89,4.71,4.71,0,0,1-.84,1l-2.08-.77v-.28s-2-.58-2.73-.86c-.87-.35-3.24-1.3-3.37-1.82,0-.15.26-.44.41-.48a13.74,13.74,0,0,1,3.57.51,5.41,5.41,0,0,0,2.12-.54Z"></path><path class="cls-29" d="M46,60.54s6.15.55,6.28,1.6a5.43,5.43,0,0,1-1,4.29c-.77,1.08-4.89,6.62-5.73,9s-6.71,14.8-6.71,14.8l-4-1.83,6.09-15.24Z"></path><path class="cls-34" d="M47,62.3h-.62a3.13,3.13,0,0,0,.54,2.18,2.17,2.17,0,0,0,2.07.75l.06-.59a1.76,1.76,0,0,1-1.62-.51A2.42,2.42,0,0,1,47,62.3Z"></path><path class="cls-32" d="M20.48,55.11c-.61.36-.83,1.08-.22,1.39a2.44,2.44,0,0,0,2.24,0c1-.41,2.84-1.58,2.63-1.88S23.9,55,23,55.14C21.68,55.32,21.16,54.7,20.48,55.11Z"></path><path class="cls-32" d="M21.84,55.2c.67-.18,1.18-.45,1.13-.61s-.63-.13-1.3,0-1.18.46-1.13.61S21.17,55.38,21.84,55.2Z"></path><path class="cls-25" d="M51.68,46.94a6.52,6.52,0,0,0,1.77.09,5.05,5.05,0,0,0,1.73-.73,7.68,7.68,0,0,1-.56-3.53c.06-.66-3.24.31-3.24.61S52,46,51.68,46.94Z"></path><path class="cls-35" d="M51.74,45.69a6.56,6.56,0,0,0,3.33.66c.33-.22,1.17,1.81.9,3.62s-3.63,4.13-3.84,9.23a33.53,33.53,0,0,0,.37,4.11L45.15,62s.26-2.41.78-4.84a46,46,0,0,1,2.17-7.92C49,47.42,51.74,45.69,51.74,45.69Z"></path><path class="cls-31" d="M53.82,38.64c-1.69-1.43-4.14-.4-4.54.8a2.38,2.38,0,0,0,0,2c0,1.19,0,2,0,2h.49s.2.83.35,1.5c.08.35,1,.18,1.9.13a3.59,3.59,0,0,0,2.08-1,4.53,4.53,0,0,0,.7-2.43A3.89,3.89,0,0,0,53.82,38.64Z"></path><path class="cls-32" d="M53.28,48.4a2.13,2.13,0,0,1-.3,2c-1.35,1.39-10.4.76-11.18.32s-1.18-1.89,0-2.08C45.13,48.12,52.13,46.51,53.28,48.4Z"></path><path class="cls-32" d="M42.84,49.14s.44,1.08-.19,1.52c-1.18.81-9.39-1.82-10.12-2.34s-.48-1.42.62-1.31C36.15,47.3,41.78,47.77,42.84,49.14Z"></path><path class="cls-36" d="M53.72,49.18c.05,1.37-1.06,2.53-3.62,2.19-1.08-.15-.78-4.09-.22-4.17S53.66,47.28,53.72,49.18Z"></path><path class="cls-26" d="M49.2,39.73a2,2,0,0,1-.08-.77c.22-.78,1.59-1.59,3.05-1.86,1.85-.33,3.06,2.07,3.26,3.15.24,1.24-.63,2.53-.64,3.6,0,.6-1-.32-1-.32l-.61-1.4s0-1.74-.91-1.28c-.64.33-.21,1.35-.21,1.35l-.34,0a5.57,5.57,0,0,0-.68-1.59A9.37,9.37,0,0,0,49.2,39.73Z"></path><path class="cls-32" d="M33.35,48c-.22.47-1.45.34-2.75-.27s-2.17-1.5-2-2,1.45-.35,2.75.27S33.57,47.57,33.35,48Z"></path><path class="cls-32" d="M31.91,46.53c.5.49,1,.79,1.1.67s-.2-.61-.7-1.1-1-.78-1.1-.66S31.41,46.05,31.91,46.53Z"></path><path class="cls-8" d="M231.85,43.35a10.11,10.11,0,1,0-17.91,5.33,11.4,11.4,0,0,1,1.74,2.4,6.45,6.45,0,0,1,.43,2.82c-.1.92-.41,3.7-.41,3.7l8.63,1,.41-3.65a10,10,0,0,1,.93-2.66,7.88,7.88,0,0,1,1.92-1.67A10.26,10.26,0,0,0,231.85,43.35Z"></path><path class="cls-9" d="M219.19,49.84a.25.25,0,0,1-.24-.22h0s-.08-.84-1.32-7.52c-.14-.76-.07-1.22.22-1.47s.92-.11,1.31,0a1.76,1.76,0,0,0,.31.1,1.2,1.2,0,0,0,.32-.26,1.25,1.25,0,0,1,1.05-.52,1.2,1.2,0,0,1,.82.72c.09.15.19.33.27.33a.24.24,0,0,1,.22.26.24.24,0,0,1-.26.22c-.33,0-.5-.32-.65-.58s-.27-.45-.47-.48-.4.14-.64.38a1,1,0,0,1-.64.41,1.19,1.19,0,0,1-.49-.13c-.28-.1-.69-.25-.84-.12s-.2.26-.06,1c1.26,6.79,1.33,7.54,1.33,7.57a.24.24,0,0,1-.22.26Z"></path><path class="cls-9" d="M222.68,50.23h-.09a.25.25,0,0,1-.14-.31s.27-.73,3-7.07c.3-.7.22-.93.17-1s-.56-.1-.85-.07a1.46,1.46,0,0,1-.5,0c-.25-.07-.39-.31-.54-.54s-.32-.49-.54-.51-.35.13-.57.36-.42.47-.75.42a.24.24,0,0,1-.21-.27.25.25,0,0,1,.27-.21c.09,0,.22-.13.34-.26a1.2,1.2,0,0,1,1-.52,1.24,1.24,0,0,1,.91.74c.08.13.19.31.26.32a2,2,0,0,0,.31,0c.42-.06,1-.13,1.29.25s.19.77-.11,1.48c-2.71,6.27-3,7-3,7A.23.23,0,0,1,222.68,50.23Z"></path><path class="cls-10" d="M223,50.9c.17-1.45-.79-1.6-2-1.73h0c-1.19-.14-2.17-.21-2.33,1.24L218,56.18c-.16,1.45,4.16,1.93,4.32.49Z"></path><rect class="cls-10" x="218.87" y="46.19" width="4.71" height="1.26" transform="translate(150.33 261.54) rotate(-83.68)"></rect><path class="cls-10" d="M222.33,44.58a.18.18,0,0,1-.21.16l-1.38-.15a.2.2,0,0,1-.17-.21h0a.2.2,0,0,1,.21-.17l1.39.16a.18.18,0,0,1,.16.21Z"></path><path class="cls-11" d="M224.08,60.86c-.27,2.38-3.64,4-4.81,3.82h0c-1.21-.13-4.1-2.41-3.83-4.8l.42-3.68,8.63,1Z"></path><path class="cls-11" d="M220.36,64.47c0,.33-.2.58-.36.56l-1.51-.17c-.16,0-.27-.3-.23-.62h0c0-.33.2-.58.36-.56l1.51.17c.16,0,.26.3.23.62Z"></path><path class="cls-12" d="M224.38,58.14a.37.37,0,0,1-.38.34L216,58a.34.34,0,0,1-.33-.38h0a.35.35,0,0,1,.37-.33l8,.51a.37.37,0,0,1,.34.38Z"></path><path class="cls-12" d="M224.23,59.43a.36.36,0,0,1-.38.33l-8-.51a.35.35,0,0,1-.33-.38h0a.36.36,0,0,1,.38-.33l8,.51a.36.36,0,0,1,.33.38Z"></path><path class="cls-12" d="M224.09,60.72a.37.37,0,0,1-.38.33l-8-.52a.36.36,0,0,1-.34-.37h0a.35.35,0,0,1,.38-.33l8,.51a.37.37,0,0,1,.34.38Z"></path><path class="cls-13" d="M221.93,56.08a.56.56,0,0,1-.61.49h0a.55.55,0,0,1-.49-.61l.64-5.72a.54.54,0,0,1,.61-.48h0a.55.55,0,0,1,.49.61Z"></path><path class="cls-13" d="M221.41,48.78a.2.2,0,0,1-.22.19h0a.22.22,0,0,1-.19-.23l.39-3.48a.22.22,0,0,1,.23-.18h0a.19.19,0,0,1,.18.23Z"></path><path class="cls-14" d="M216,62a6.59,6.59,0,0,0,2.31,2.3c0,.3.08.55.23.57L220,65c.15,0,.3-.21.35-.51a6.73,6.73,0,0,0,2.75-1.72Z"></path><path class="cls-15" d="M230.78,39c.67,2.13.25,4.15-.93,4.52s-2.68-1-3.35-3.17-.25-4.15.93-4.52S230.11,36.86,230.78,39Z"></path><g class="cls-37"><rect class="cls-17" x="198.46" y="42.58" width="34.64" height="10.53" transform="translate(144.07 256.91) rotate(-83.57)"></rect></g><path class="cls-26" d="M208.6,83.17a6,6,0,0,0-2,.09,4.78,4.78,0,0,0-1.13.77l.56,2.26.29,0a18.22,18.22,0,0,0,.59,3,26.58,26.58,0,0,0,2.16,3.18s.5-.22.55-.38c.29-.78-.72-2.5-.76-3.23a9.43,9.43,0,0,1,1.13-2.8Z"></path><path d="M233.84,66.82s-3.45-5.72-4.54-5.45a5.57,5.57,0,0,0-3.63,3c-.71,1.2-3.88,8-6.09,9.43-2.8,1.82-12.27,9.25-12.27,9.25l2.44,3.71,14.08-9.49Z"></path><path d="M238.27,46.27s-1.43,0-1.9,1c-.89,1.88,3.14,10.75,3.88,11.38s2.34.48,2.08-.81C241.61,54.37,240.6,46.72,238.27,46.27Z"></path><path class="cls-26" d="M239.91,92.66a6,6,0,0,0,.08,2,5,5,0,0,0,.77,1.13l2.26-.55,0-.29s2.21-.37,3-.57c1-.26,3.55-1,3.75-1.5.06-.16-.22-.49-.37-.55-.78-.29-3.07.05-3.8.1a5.68,5.68,0,0,1-2.15-.83Z"></path><path class="cls-38" d="M231.57,62.22s-6.72-.19-7,.92a6,6,0,0,0,.66,4.69c.67,1.25,7.45,7.63,8,10.23s5.82,15.31,5.82,15.31l5.12-1.7-6-16.35Z"></path><path class="cls-25" d="M240.24,48.56a7.9,7.9,0,0,1-1.86-.82,6.18,6.18,0,0,1-1.44-1.59A7.88,7.88,0,0,0,239.17,43c.26-.68,3.19,2,3.06,2.26S240.38,47.52,240.24,48.56Z"></path><path class="cls-38" d="M240.35,48.54c-.88-.1-3-2.14-3.12-2.55s-2.55.28-4,1.54-5,6.88-5.78,8.45c-.63,1.18-2.82,7.16-2.82,7.16l8.1,1.49s1.74-4.37,3-6.72,3.47-3.51,4-5.59A22.73,22.73,0,0,0,240.35,48.54Z"></path><path class="cls-31" d="M240.84,39c2.17-.95,4.38.86,4.43,2.22a2.54,2.54,0,0,1-.6,2.11c-.41,1.22-.61,2-.61,2l-.51-.15s-.46.8-.81,1.44c-.19.34-1.11-.12-2-.45a3.94,3.94,0,0,1-1.83-1.68,4.89,4.89,0,0,1,0-2.73A4.19,4.19,0,0,1,240.84,39Z"></path><path class="cls-25" d="M240.06,47a1,1,0,0,1,1.05-1.56,1.63,1.63,0,0,1,1.58,1.65c0,.87-.63,1.86-1.5,1.64C240.63,48.59,240.62,47.89,240.06,47Z"></path><path class="cls-25" d="M240.52,58.63s1,.73,1.63.21c1.15-1,.54-9.88.2-10.74s-1.36-.85-1.54.29C240.34,51.46,239.37,57.22,240.52,58.63Z"></path><path class="cls-26" d="M245.26,41.51a2.25,2.25,0,0,0,.32-.77c0-.87-1.16-2.13-2.58-2.84-1.79-.92-3.78,1.18-4.32,2.23-.62,1.21-.13,2.8-.44,3.91-.17.62,1.11,0,1.11,0l1.05-1.26s.54-1.79,1.33-1c.56.54-.19,1.46-.19,1.46l.34.13a6.22,6.22,0,0,1,1.18-1.43A9.77,9.77,0,0,1,245.26,41.51Z"></path><path class="cls-39" d="M231.27,64.84l.65.08a3.29,3.29,0,0,1-.83,2.22,2.3,2.3,0,0,1-2.26.53v-.62a1.89,1.89,0,0,0,1.76-.34A2.55,2.55,0,0,0,231.27,64.84Z"></path><path d="M240.52,58.63s1,.73,1.63.21c.86-.73.74-5.92.47-8.83-.09-1-1.94-.77-2-.29C240.13,52.89,239.52,57.4,240.52,58.63Z"></path><path d="M245.58,41,239,39.62a4.14,4.14,0,0,1,4.35-1.95C244.46,37.9,246,39.48,245.58,41Z"></path><path class="cls-38" d="M235.86,47s-1.4.22-1.74,1.28c-.64,2,4.51,10.25,5.32,10.77s2.39.18,2-1.07C240.23,54.61,238.23,47.15,235.86,47Z"></path><path class="cls-39" d="M245.87,41.09a.4.4,0,0,1-.47.3l-6.28-1.5a.38.38,0,0,1-.28-.48h0a.39.39,0,0,1,.47-.3l6.28,1.5a.4.4,0,0,1,.28.48Z"></path><path d="M238.41,40.5l-.19.48,6.32,3.26L245,43Zm6,3c-.11.23-.36.25-.68.1a.75.75,0,0,1-.35-.59.75.75,0,0,1,.67-.09C244.32,43,244.47,43.21,244.36,43.45Z"></path><path d="M213.3,48.56c-.23-1.05,2.83,2.09,7.42,2.39s13.58-5.5,18.86-4.13c1.33.35,3.84,0,4.08.67a3.18,3.18,0,0,1,0,2.11c-.24.51-1.41-1.81-2.59-1.82s-7.23,1.45-12.64,7.47c-2,2.17-3.85,4.33-7.21,4.93-2,.35-6-.36-6-1a31.77,31.77,0,0,0-.6-6.94C214.1,50.41,213.48,49.38,213.3,48.56Z"></path><path class="cls-31" d="M239.91,47.1a1.09,1.09,0,0,1,1.76-.82,1.64,1.64,0,0,1,.44,2.28c-.52.75-1.57,1.31-2.19.65C239.53,48.79,239.9,48.17,239.91,47.1Z"></path><path class="cls-31" d="M239.67,58.8s1,.75,1.62.21c1.16-1,.55-10.27.2-11.17s-1.35-.86-1.53.32C239.5,51.35,238.52,57.34,239.67,58.8Z"></path><path class="cls-38" d="M239.67,58.8s1,.75,1.62.21c.81-.71.78-5.45.53-8.54,0-.73-2.07-.86-2.19,0C239.18,53.66,238.76,57.65,239.67,58.8Z"></path><path class="cls-3" d="M179.73,106.24a.62.62,0,0,1-.88-.06.6.6,0,0,1,0-.87.63.63,0,0,1,.84.93Z"></path><path class="cls-3" d="M182.39,108.89a.63.63,0,0,1-.91-.86.63.63,0,0,1,.91.86Z"></path><path class="cls-3" d="M185.29,111.28a.63.63,0,0,1-1-.77.63.63,0,0,1,1,.77Z"></path><path class="cls-3" d="M188.41,113.36a.62.62,0,0,1-.86.2.6.6,0,0,1-.21-.85.63.63,0,0,1,.85-.18A.6.6,0,0,1,188.41,113.36Z"></path><path class="cls-3" d="M191.74,115.1a.59.59,0,0,1-.82.28.62.62,0,0,1-.3-.83.61.61,0,0,1,.82-.28A.64.64,0,0,1,191.74,115.1Z"></path><path class="cls-3" d="M195.28,116.34a.62.62,0,0,1-.78.42.59.59,0,0,1-.42-.75.65.65,0,0,1,.78-.42A.61.61,0,0,1,195.28,116.34Z"></path><path class="cls-3" d="M199,117.11a.59.59,0,0,1-.71.5.63.63,0,0,1-.53-.71.62.62,0,0,1,.71-.5A.66.66,0,0,1,199,117.11Z"></path><path class="cls-3" d="M202.71,117.23a.64.64,0,0,1-.62.65.6.6,0,0,1-.63-.61.65.65,0,0,1,.61-.62A.61.61,0,0,1,202.71,117.23Z"></path><path class="cls-3" d="M206.43,116.79a.6.6,0,0,1-.51.71.61.61,0,0,1-.72-.5.62.62,0,0,1,1.23-.21Z"></path><path class="cls-3" d="M210.05,115.79a.63.63,0,0,1-.39.8.64.64,0,0,1-.8-.41.6.6,0,0,1,.42-.75A.6.6,0,0,1,210.05,115.79Z"></path><path class="cls-3" d="M213.51,114.33a.61.61,0,0,1-.3.82.61.61,0,0,1-.83-.29.62.62,0,0,1,1.13-.53Z"></path><path class="cls-3" d="M216.78,112.48a.63.63,0,1,1-.84-.18A.61.61,0,0,1,216.78,112.48Z"></path><path class="cls-3" d="M219.86,110.33a.61.61,0,0,1-.14.86.62.62,0,0,1-.87-.12.61.61,0,0,1,.14-.86A.63.63,0,0,1,219.86,110.33Z"></path><path class="cls-3" d="M222.73,107.9a.63.63,0,0,1-.94.83.63.63,0,0,1,.94-.83Z"></path><path class="cls-3" d="M225.39,105.25a.62.62,0,0,1,0,.88.63.63,0,0,1-.88,0,.62.62,0,0,1,0-.87A.63.63,0,0,1,225.39,105.25Z"></path><polygon class="cls-40" points="221.71 105.49 227.34 102.44 225.93 108.55 221.71 105.49"></polygon><path class="cls-3" d="M180.1,18.88a.62.62,0,0,1,0,.87.63.63,0,0,1-.87,0,.61.61,0,0,1,0-.88A.62.62,0,0,1,180.1,18.88Z"></path><path class="cls-3" d="M182.88,16.35a.63.63,0,1,1-.87-.06A.61.61,0,0,1,182.88,16.35Z"></path><path class="cls-3" d="M185.88,14.09a.62.62,0,0,1-1,.72.62.62,0,0,1,1-.72Z"></path><path class="cls-3" d="M189.09,12.14a.61.61,0,0,1-.25.83.64.64,0,0,1-.85-.23.6.6,0,0,1,.25-.84A.63.63,0,0,1,189.09,12.14Z"></path><path class="cls-3" d="M192.49,10.55a.64.64,0,0,1-.34.81.61.61,0,0,1-.81-.31.64.64,0,0,1,.34-.82A.6.6,0,0,1,192.49,10.55Z"></path><path class="cls-3" d="M196.09,9.46a.61.61,0,0,1-.46.73.64.64,0,0,1-.76-.45.58.58,0,0,1,.45-.73A.63.63,0,0,1,196.09,9.46Z"></path><path class="cls-3" d="M199.79,8.85a.66.66,0,0,1-.56.69.61.61,0,0,1-.68-.53.62.62,0,0,1,.56-.69A.6.6,0,0,1,199.79,8.85Z"></path><path class="cls-3" d="M203.54,8.9a.59.59,0,0,1-.66.54.65.65,0,0,1-.59-.64.6.6,0,0,1,.66-.58A.64.64,0,0,1,203.54,8.9Z"></path><path class="cls-3" d="M207.25,9.5a.65.65,0,0,1-.75.47.64.64,0,0,1-.48-.73.63.63,0,0,1,1.23.26Z"></path><path class="cls-3" d="M210.82,10.65a.61.61,0,0,1-.8.33.6.6,0,0,1-.38-.77.65.65,0,0,1,.82-.37A.64.64,0,0,1,210.82,10.65Z"></path><path class="cls-3" d="M214.21,12.26a.63.63,0,0,1-1.11-.58.63.63,0,0,1,1.11.58Z"></path><path class="cls-3" d="M217.39,14.25a.62.62,0,0,1-1-.7.62.62,0,0,1,.87-.17A.63.63,0,0,1,217.39,14.25Z"></path><path class="cls-3" d="M220.38,16.54a.65.65,0,0,1-.88.08.62.62,0,0,1-.1-.87.63.63,0,0,1,.88-.08A.62.62,0,0,1,220.38,16.54Z"></path><path class="cls-3" d="M223.14,19.09a.64.64,0,0,1-.88,0,.61.61,0,1,1,.85-.88A.61.61,0,0,1,223.14,19.09Z"></path><path class="cls-3" d="M225.68,21.85a.62.62,0,0,1-.82-.94.62.62,0,0,1,.82.94Z"></path><polygon class="cls-40" points="222.01 21.45 227.51 24.74 226.36 18.57 222.01 21.45"></polygon><path class="cls-3" d="M83.65,106.24a.62.62,0,0,1,0-.87.63.63,0,0,1,.87-.06.6.6,0,0,1,0,.87A.61.61,0,0,1,83.65,106.24Z"></path><path class="cls-3" d="M81,108.89a.63.63,0,0,1,.92-.86.63.63,0,0,1,0,.88A.62.62,0,0,1,81,108.89Z"></path><path class="cls-3" d="M78.08,111.28a.63.63,0,0,1,1-.77.63.63,0,0,1-1,.77Z"></path><path class="cls-3" d="M75,113.36a.61.61,0,0,1,.22-.83.63.63,0,0,1,.85.18.6.6,0,0,1-.21.85A.62.62,0,0,1,75,113.36Z"></path><path class="cls-3" d="M71.63,115.1a.65.65,0,0,1,.31-.83.62.62,0,0,1,.82.28.62.62,0,0,1-.31.83A.59.59,0,0,1,71.63,115.1Z"></path><path class="cls-3" d="M68.09,116.35a.62.62,0,0,1,.42-.76.64.64,0,0,1,.78.42.59.59,0,0,1-.42.75A.62.62,0,0,1,68.09,116.35Z"></path><path class="cls-3" d="M64.41,117.11a.67.67,0,0,1,.53-.71.62.62,0,0,1,.71.5.63.63,0,0,1-.53.71A.59.59,0,0,1,64.41,117.11Z"></path><path class="cls-3" d="M60.66,117.23a.61.61,0,0,1,.64-.58.65.65,0,0,1,.61.62.59.59,0,0,1-.63.61A.64.64,0,0,1,60.66,117.23Z"></path><path class="cls-3" d="M56.94,116.79a.62.62,0,0,1,1.23.21.61.61,0,0,1-.72.5A.6.6,0,0,1,56.94,116.79Z"></path><path class="cls-3" d="M53.32,115.79a.63.63,0,0,1,1.19.39.63.63,0,1,1-1.19-.39Z"></path><path class="cls-3" d="M49.86,114.33a.63.63,0,0,1,1.13.54.6.6,0,0,1-.82.28A.61.61,0,0,1,49.86,114.33Z"></path><path class="cls-3" d="M46.59,112.48a.63.63,0,1,1,.21.86A.62.62,0,0,1,46.59,112.48Z"></path><path class="cls-3" d="M43.51,110.33a.63.63,0,0,1,.87-.12.61.61,0,1,1-.87.12Z"></path><path class="cls-3" d="M40.64,107.9a.63.63,0,0,1,.94.83.6.6,0,0,1-.87,0A.61.61,0,0,1,40.64,107.9Z"></path><path class="cls-3" d="M38,105.25a.63.63,0,0,1,.87,0,.62.62,0,0,1,0,.87.63.63,0,0,1-.88,0A.62.62,0,0,1,38,105.25Z"></path><polygon class="cls-40" points="41.66 105.49 36.03 102.44 37.45 108.55 41.66 105.49"></polygon><path class="cls-3" d="M83.27,18.88a.62.62,0,0,1,.88,0,.61.61,0,0,1,0,.88.63.63,0,0,1-.87,0A.62.62,0,0,1,83.27,18.88Z"></path><path class="cls-3" d="M80.49,16.35a.61.61,0,0,1,.87-.06.61.61,0,1,1-.87.06Z"></path><path class="cls-3" d="M77.49,14.09a.63.63,0,0,1,1,.72.64.64,0,0,1-.87.14A.62.62,0,0,1,77.49,14.09Z"></path><path class="cls-3" d="M74.28,12.14a.63.63,0,0,1,.85-.24.6.6,0,0,1,.25.84.64.64,0,0,1-.85.23A.62.62,0,0,1,74.28,12.14Z"></path><path class="cls-3" d="M70.88,10.55a.6.6,0,0,1,.81-.32.64.64,0,0,1,.34.82.61.61,0,0,1-.81.31A.64.64,0,0,1,70.88,10.55Z"></path><path class="cls-3" d="M67.29,9.46A.62.62,0,0,1,68.05,9a.6.6,0,0,1,.46.74.65.65,0,0,1-.77.44A.6.6,0,0,1,67.29,9.46Z"></path><path class="cls-3" d="M63.58,8.85a.6.6,0,0,1,.69-.53.64.64,0,0,1,.56.69.62.62,0,0,1-.69.53A.66.66,0,0,1,63.58,8.85Z"></path><path class="cls-3" d="M59.83,8.9a.64.64,0,0,1,.59-.68.6.6,0,0,1,.66.58.64.64,0,0,1-.59.64A.6.6,0,0,1,59.83,8.9Z"></path><path class="cls-3" d="M56.13,9.5a.6.6,0,0,1,.48-.73.6.6,0,0,1,.74.47.62.62,0,0,1-1.22.26Z"></path><path class="cls-3" d="M52.55,10.65a.64.64,0,0,1,.37-.81.64.64,0,0,1,.81.38.59.59,0,0,1-.38.76A.61.61,0,0,1,52.55,10.65Z"></path><path class="cls-3" d="M49.16,12.27a.62.62,0,0,1,.27-.84.61.61,0,0,1,.84.25.63.63,0,0,1-1.11.59Z"></path><path class="cls-3" d="M46,14.25a.63.63,0,1,1,1-.7.61.61,0,0,1-.19.84A.6.6,0,0,1,46,14.25Z"></path><path class="cls-3" d="M43,16.54a.6.6,0,0,1,.1-.87.61.61,0,1,1,.77,1A.64.64,0,0,1,43,16.54Z"></path><path class="cls-3" d="M40.24,19.09a.62.62,0,0,1,0-.88.61.61,0,1,1,0,.88Z"></path><path class="cls-3" d="M37.69,21.85a.63.63,0,1,1,.87-.07A.63.63,0,0,1,37.69,21.85Z"></path><polygon class="cls-40" points="41.36 21.45 35.86 24.74 37.01 18.57 41.36 21.45"></polygon></g></g></svg>