<svg xmlns="http://www.w3.org/2000/svg" viewBox="0 0 786.14 478.07"><defs><style>.cls-1{isolation:isolate;}.cls-2{fill:#f25252;}.cls-3{fill:#d2d7f9;}.cls-3,.cls-9{mix-blend-mode:multiply;}.cls-4{fill:#13163f;}.cls-10,.cls-11,.cls-5,.cls-8,.cls-9{fill:none;}.cls-10,.cls-5{stroke:#03062d;}.cls-11,.cls-5{stroke-linecap:round;stroke-linejoin:round;}.cls-6{fill:#ebc24b;}.cls-7{fill:#fff;}.cls-8{stroke:#fff;}.cls-10,.cls-8,.cls-9{stroke-miterlimit:10;}.cls-9{stroke:#d2d7f9;}.cls-11{stroke:#f25252;}.cls-12{fill:#020659;}</style></defs><g class="cls-1"><g id="Layer_2" data-name="Layer 2"><g id="OBJECTS"><ellipse class="cls-2" cx="393.07" cy="239.04" rx="393.07" ry="239.04"></ellipse><path class="cls-3" d="M619.46,325.07c0-.12,0-.24,0-.36,0-43.17-59.05-78.17-131.88-78.17s-131.88,35-131.88,78.17v10.81c0,43.18,59,78.17,131.88,78.17s131.88-35,131.88-78.17C619.47,334.17,619.51,328.68,619.46,325.07Zm-243.9,4c.13-34.78,50.26-63,111.9-63,61.34,0,111.33,28,112,62.52-3.59,34.7-52.34,62.18-112,62.18C428.12,390.74,379.54,363.51,375.56,329Z"></path><path class="cls-3" d="M489.4,274c-37.45,0-67.8,17.83-67.8,39.83,0,.56,0,1.11.07,1.67l-.07,18c0,22,30.35,39.82,67.8,39.82A106.19,106.19,0,0,0,523.05,368V347.81l-15.72-9.29a74.1,74.1,0,0,1-17.93,2.15c-18.73,0-34.83-6.62-41.91-16.08,7.11-9.43,23.23-16,41.91-16s35.07,6.22,42.18,15.65l-.13.2v19.66l16.81,9.14c5.69-5.83,8.94-12.58,8.94-19.78V313.78C557.2,291.78,526.85,274,489.4,274Z"></path><path class="cls-4" d="M610.86,316.37c-.34,43-59.25,77.81-131.88,77.81-72.83,0-131.87-35-131.87-78.17v10.81C347.11,370,406.15,405,479,405s131.88-35,131.88-78.17C610.86,325.47,610.91,320,610.86,316.37Z"></path><path class="cls-5" d="M610.86,316.37c-.34,43-59.25,77.81-131.88,77.81-72.83,0-131.87-35-131.87-78.17v10.81C347.11,370,406.15,405,479,405s131.88-35,131.88-78.17C610.86,325.47,610.91,320,610.86,316.37Z"></path><path class="cls-6" d="M479,394.18c72.63,0,131.54-34.8,131.88-77.81,0-1.35-.06-2.44-.12-2.94.06.5.09,1.59.12,2.94V316c0-43.17-59-78.17-131.88-78.17s-131.87,35-131.87,78.17S406.16,394.18,479,394.18Zm-.12-144.71c62,0,112.17,29.68,112.17,66.29a37.15,37.15,0,0,1-.22,4.1c0,.22,0,.44,0,.65,0-.21,0-.43,0-.65-3.58,34.7-52.33,62.18-112,62.18C419.53,382,371,354.81,367,320.34v0a38.83,38.83,0,0,1-.27-4.58C366.7,279.15,416.92,249.47,478.87,249.47Z"></path><path class="cls-4" d="M478.86,257.34c61.34,0,111.33,28,111.95,62.52a37.14,37.14,0,0,0,.23-4.1c0-36.61-50.23-66.29-112.18-66.29s-112.17,29.68-112.17,66.29a38.83,38.83,0,0,0,.27,4.58C367.09,285.56,417.22,257.34,478.86,257.34Z"></path><path class="cls-5" d="M478.86,257.34c61.34,0,111.33,28,111.95,62.52a37.14,37.14,0,0,0,.23-4.1c0-36.61-50.23-66.29-112.18-66.29s-112.17,29.68-112.17,66.29a38.83,38.83,0,0,0,.27,4.58C367.09,285.56,417.22,257.34,478.86,257.34Z"></path><path class="cls-7" d="M479,244.5c70.92,0,128.76,33.18,131.75,74.78.07-1,.12-1.93.13-2.91,0-1.35-.06-2.44-.12-2.94.06.5.09,1.59.12,2.94V316c0-43.17-59-78.17-131.88-78.17s-131.87,35-131.87,78.17q0,1.67.12,3.33C350.18,277.71,408,244.5,479,244.5Z"></path><path class="cls-7" d="M610.86,323c0-1.36-.06-2.45-.12-3,.06.5.09,1.59.12,3v-.37c0-1.13-.05-2.26-.13-3.39"></path><path class="cls-7" d="M347.23,319.34q-.12,1.65-.12,3.33"></path><path class="cls-5" d="M479,394.18c72.63,0,131.54-34.8,131.88-77.81,0-1.35-.06-2.44-.12-2.94.06.5.09,1.59.12,2.94V316c0-43.17-59-78.17-131.88-78.17s-131.87,35-131.87,78.17S406.15,394.18,479,394.18Zm-.12-144.71c61.95,0,112.18,29.68,112.18,66.29a37.14,37.14,0,0,1-.23,4.1c0,.22,0,.44,0,.65,0-.21,0-.43,0-.65C587.23,354.56,538.48,382,478.86,382c-59.34,0-107.92-27.23-111.9-61.7v0a38.83,38.83,0,0,1-.27-4.58C366.69,279.15,416.91,249.47,478.86,249.47Z"></path><path class="cls-4" d="M480.8,278.19c-25.28,0-45.78,12-45.78,26.89a18,18,0,0,0,3.86,10.81c7.12-9.43,23.24-16,41.92-16s35.07,6.22,42.18,15.65a17.77,17.77,0,0,0,3.59-10.44C526.57,290.23,506.08,278.19,480.8,278.19Z"></path><path class="cls-5" d="M480.8,278.19c-25.28,0-45.78,12-45.78,26.89a18,18,0,0,0,3.86,10.81c7.12-9.43,23.24-16,41.92-16s35.07,6.22,42.18,15.65a17.77,17.77,0,0,0,3.59-10.44C526.57,290.23,506.08,278.19,480.8,278.19Z"></path><polygon class="cls-4" points="522.85 315.72 522.85 335.38 539.66 344.52 539.66 324.86 522.85 315.72"></polygon><polygon class="cls-5" points="522.85 315.72 522.85 335.38 539.66 344.52 539.66 324.86 522.85 315.72"></polygon><path class="cls-4" d="M413.07,306.75l-.07,18c0,22,30.35,39.82,67.8,39.82a106.23,106.23,0,0,0,33.65-5.24V339.66a106.52,106.52,0,0,1-33.65,5.24C444.3,344.9,414.56,328,413.07,306.75Z"></path><path class="cls-5" d="M413.07,306.75l-.07,18c0,22,30.35,39.82,67.8,39.82a106.23,106.23,0,0,0,33.65-5.24V339.66a106.52,106.52,0,0,1-33.65,5.24C444.3,344.9,414.56,328,413.07,306.75Z"></path><path class="cls-4" d="M539.66,324.86v19.66c5.69-5.83,8.94-12.58,8.94-19.78V305.08C548.6,312.28,545.35,319,539.66,324.86Z"></path><path class="cls-5" d="M539.66,324.86v19.66c5.69-5.83,8.94-12.58,8.94-19.78V305.08C548.6,312.28,545.35,319,539.66,324.86Z"></path><path class="cls-6" d="M548.6,305.08c0-22-30.36-39.83-67.8-39.83S413,283.08,413,305.08c0,.56,0,1.11.07,1.67v0C414.56,328,444.3,344.9,480.8,344.9a106.52,106.52,0,0,0,33.65-5.24v-.55l-15.73-9.29A74,74,0,0,1,480.8,332c-18.73,0-34.83-6.61-41.92-16.07l0,.05,0-.05A18,18,0,0,1,435,305.08c0-14.85,20.5-26.89,45.78-26.89s45.77,12,45.77,26.89A17.77,17.77,0,0,1,523,315.52l0,0,0,0-.13.2,16.81,9.14C545.35,319,548.6,312.28,548.6,305.08Z"></path><path class="cls-7" d="M416,309.35c0-22,30.35-39.82,67.8-39.82,28.21,0,52.4,10.12,62.61,24.52-8.15-16.63-34.22-28.8-65.15-28.8-37.45,0-67.8,17.83-67.8,39.83,0,.56,0,1.11.07,1.67v0a26.66,26.66,0,0,0,5.09,13.56,25,25,0,0,1-2.55-9.29C416,310.47,416,309.91,416,309.35Z"></path><path class="cls-5" d="M548.6,305.08c0-22-30.36-39.83-67.8-39.83S413,283.08,413,305.08c0,.56,0,1.11.07,1.67v0C414.56,328,444.3,344.9,480.8,344.9a106.52,106.52,0,0,0,33.65-5.24v-.55l-15.73-9.29A74,74,0,0,1,480.8,332c-18.73,0-34.83-6.61-41.92-16.07l0,.05,0-.05A18,18,0,0,1,435,305.08c0-14.85,20.5-26.89,45.78-26.89s45.77,12,45.77,26.89A17.77,17.77,0,0,1,523,315.52l0,0,0,0-.13.2,16.81,9.14C545.35,319,548.6,312.28,548.6,305.08Z"></path><ellipse class="cls-8" cx="479.24" cy="326.51" rx="202.88" ry="120.42"></ellipse><ellipse class="cls-9" cx="479.24" cy="326.51" rx="159.71" ry="94.8"></ellipse><polygon class="cls-3" points="218.08 273.82 66.99 356.89 66.88 363.1 148.13 412.04 298.87 329.68 298.87 323.15 218.08 273.82"></polygon><polygon class="cls-7" points="142.85 399.29 61.59 350.35 212.68 267.28 293.47 316.61 142.85 399.29"></polygon><polygon class="cls-2" points="148.1 389.31 79.13 347.77 207.37 277.26 275.94 319.13 148.1 389.31"></polygon><polygon class="cls-10" points="148.1 389.31 79.13 347.77 207.37 277.26 275.94 319.13 148.1 389.31"></polygon><polygon class="cls-10" points="142.85 399.29 61.59 350.35 212.68 267.28 293.47 316.61 142.85 399.29"></polygon><polygon class="cls-7" points="207.37 286.25 256.3 316.04 263.61 311.67 215.24 282.29 207.37 286.25"></polygon><polygon class="cls-10" points="207.37 286.25 256.3 316.04 263.61 311.67 215.24 282.29 207.37 286.25"></polygon><polygon class="cls-4" points="142.74 405.5 61.48 356.56 61.59 350.35 142.85 399.29 142.74 405.5"></polygon><polygon class="cls-10" points="142.74 405.5 61.48 356.56 61.59 350.35 142.85 399.29 142.74 405.5"></polygon><polygon class="cls-4" points="142.74 405.5 293.47 323.14 293.47 316.61 142.85 399.29 142.74 405.5"></polygon><polygon class="cls-10" points="142.74 405.5 293.47 323.14 293.47 316.61 142.85 399.29 142.74 405.5"></polygon><polygon class="cls-7" points="152.7 310.11 150 385.07 158.93 380.24 160.46 305.62 152.7 310.11"></polygon><polygon class="cls-7" points="98.64 339.5 95.94 355.68 104.86 360.95 106.39 335.01 98.64 339.5"></polygon><path class="cls-7" d="M178.75,295.1,162,304.8c-.36,17.82-1.05,51.35-1.53,74.61l17.64-9.54Z"></path><path d="M160.46,305.62l-1.53,74.62h0c.48-23.27,1.17-56.8,1.53-74.62Z"></path><path class="cls-3" d="M181.05,309.41c-18.19,0-32.93,8.66-32.93,19.34q0,.4,0,.81l0,8.74c0,10.68,14.74,19.34,32.93,19.34a51.58,51.58,0,0,0,16.34-2.54v-9.82l-7.63-4.51a36,36,0,0,1-8.71,1c-9.1,0-16.92-3.21-20.36-7.81,3.46-4.58,11.29-7.78,20.36-7.78s17,3,20.49,7.6c0,0,0,.07-.07.1v9.55l8.17,4.44A13.78,13.78,0,0,0,214,338.3v-9.55C214,318.07,199.24,309.41,181.05,309.41Z"></path><path class="cls-4" d="M176.87,311.47c-12.28,0-22.23,5.84-22.23,13a8.65,8.65,0,0,0,1.88,5.25C160,325.2,167.8,322,176.87,322s17,3,20.49,7.61a8.66,8.66,0,0,0,1.74-5.08C199.1,317.31,189.15,311.47,176.87,311.47Z"></path><path class="cls-5" d="M176.87,311.47c-12.28,0-22.23,5.84-22.23,13a8.65,8.65,0,0,0,1.88,5.25C160,325.2,167.8,322,176.87,322s17,3,20.49,7.61a8.66,8.66,0,0,0,1.74-5.08C199.1,317.31,189.15,311.47,176.87,311.47Z"></path><polygon class="cls-4" points="197.29 329.69 197.29 339.24 205.46 343.68 205.46 334.13 197.29 329.69"></polygon><polygon class="cls-5" points="197.29 329.69 197.29 339.24 205.46 343.68 205.46 334.13 197.29 329.69"></polygon><path class="cls-4" d="M144,325.34l0,8.73c0,10.69,14.74,19.35,32.93,19.35a51.68,51.68,0,0,0,16.35-2.55v-9.55a51.68,51.68,0,0,1-16.35,2.55C159.15,343.87,144.7,335.64,144,325.34Z"></path><path class="cls-5" d="M144,325.34l0,8.73c0,10.69,14.74,19.35,32.93,19.35a51.68,51.68,0,0,0,16.35-2.55v-9.55a51.68,51.68,0,0,1-16.35,2.55C159.15,343.87,144.7,335.64,144,325.34Z"></path><path class="cls-4" d="M205.46,334.13v9.55a13.78,13.78,0,0,0,4.34-9.61v-9.55A13.78,13.78,0,0,1,205.46,334.13Z"></path><path class="cls-5" d="M205.46,334.13v9.55a13.78,13.78,0,0,0,4.34-9.61v-9.55A13.78,13.78,0,0,1,205.46,334.13Z"></path><path class="cls-6" d="M209.8,324.52c0-10.68-14.74-19.34-32.93-19.34s-32.93,8.66-32.93,19.34c0,.28,0,.55,0,.82v0c.72,10.3,15.17,18.53,32.89,18.53a51.68,51.68,0,0,0,16.35-2.55v-.27l-7.64-4.51a36,36,0,0,1-8.71,1c-9.1,0-16.91-3.21-20.35-7.81l0,0,0,0a8.65,8.65,0,0,1-1.88-5.25c0-7.21,10-13,22.23-13s22.23,5.84,22.23,13a8.66,8.66,0,0,1-1.74,5.08h0l-.06.09,8.16,4.44A13.78,13.78,0,0,0,209.8,324.52Z"></path><path class="cls-7" d="M145.39,326.6c0-10.68,14.74-19.34,32.93-19.34,13.7,0,25.45,4.92,30.41,11.91-4-8.08-16.62-14-31.64-14-18.19,0-32.94,8.66-32.94,19.34,0,.28,0,.55,0,.82v0a12.94,12.94,0,0,0,2.47,6.58,12.25,12.25,0,0,1-1.24-4.51Q145.39,327,145.39,326.6Z"></path><path class="cls-5" d="M209.8,324.52c0-10.68-14.74-19.34-32.93-19.34s-32.93,8.66-32.93,19.34c0,.28,0,.55,0,.82v0c.72,10.3,15.17,18.53,32.89,18.53a51.68,51.68,0,0,0,16.35-2.55v-.27l-7.64-4.51a36,36,0,0,1-8.71,1c-9.1,0-16.91-3.21-20.35-7.81l0,0,0,0a8.65,8.65,0,0,1-1.88-5.25c0-7.21,10-13,22.23-13s22.23,5.84,22.23,13a8.66,8.66,0,0,1-1.74,5.08h0l-.06.09,8.16,4.44A13.78,13.78,0,0,0,209.8,324.52Z"></path><path class="cls-3" d="M602.63,185.33v0a4.38,4.38,0,0,0-1.3-2.38c-8.72-9-13.38-18.69-13.33-29.36s-15-7.75-27.68-9.86a120.49,120.49,0,0,1-22.41-6.09c-7.54-2.8-13.25-6.93-22.1-3a23.74,23.74,0,0,0-2.59,1.63,108.5,108.5,0,0,0-13.07,9.63c-12.21,10.2-21.43,21.67-27.46,33.63a82.84,82.84,0,0,0-7.89,24.22c-.25,1.6-1.6,6-1.52,9-.43,3.87-.82,10.16,1,11.21,2.81,1.66,17.88.46,21.93.41a297.91,297.91,0,0,0,70.71-9.24c13.71-3.59,29.17-8,40.13-14.64,4.54-2.75,5.4-11,5.57-14.06a.88.88,0,0,1-.05.15,1,1,0,0,0,.05-.24v.09a1.38,1.38,0,0,1,0-.2l0-.27a1.61,1.61,0,0,0,0-.31A1.42,1.42,0,0,0,602.63,185.33Z"></path><path class="cls-7" d="M598.73,176.19c-8.73-9-13.39-18.69-13.33-29.36s-15-7.76-27.68-9.87a120.27,120.27,0,0,1-22.41-6.08c-7.55-2.81-13.25-6.93-22.1-3a22.31,22.31,0,0,0-2.59,1.63,110.48,110.48,0,0,0-13.08,9.62c-12.21,10.2-21.42,21.67-27.45,33.63A82.94,82.94,0,0,0,462.2,197c-.36,2.25-2.88,10.11-.56,11.48,2.81,1.65,17.88.45,21.93.4a297.84,297.84,0,0,0,70.71-9.23c13.72-3.6,29-8.3,40.14-14.65C598.58,182.64,602.07,179.64,598.73,176.19Z"></path><path class="cls-10" d="M598.73,176.19c-8.73-9-13.39-18.69-13.33-29.36s-15-7.76-27.68-9.87a120.27,120.27,0,0,1-22.41-6.08c-7.55-2.81-13.25-6.93-22.1-3a22.31,22.31,0,0,0-2.59,1.63,110.48,110.48,0,0,0-13.08,9.62c-12.21,10.2-21.42,21.67-27.45,33.63A82.94,82.94,0,0,0,462.2,197c-.36,2.25-2.88,10.11-.56,11.48,2.81,1.65,17.88.45,21.93.4a297.84,297.84,0,0,0,70.71-9.23c13.72-3.6,29-8.3,40.14-14.65C598.58,182.64,602.07,179.64,598.73,176.19Z"></path><path class="cls-4" d="M594.42,185c-11.15,6.35-26.42,11.05-40.13,14.65a297.91,297.91,0,0,1-70.71,9.23c-4.05.05-19.13,1.25-21.94-.4a2.91,2.91,0,0,1-1-2.53c-.43,3.87-.82,10.18,1,11.24,2.81,1.66,17.89.46,21.94.4a297.39,297.39,0,0,0,70.71-9.23c13.71-3.6,29.16-8,40.13-14.65,4.53-2.75,5.4-11,5.57-14.06C599.53,181.68,597.12,183.48,594.42,185Z"></path><path class="cls-7" d="M600,178.5s0,.44,0,1.16A3.22,3.22,0,0,0,600,178.5Z"></path><path class="cls-5" d="M594.42,185c-11.15,6.35-26.42,11.05-40.13,14.65a297.91,297.91,0,0,1-70.71,9.23c-4.05.05-19.13,1.25-21.94-.4a2.91,2.91,0,0,1-1-2.53c-.43,3.87-.82,10.18,1,11.24,2.81,1.66,17.89.46,21.94.4a297.39,297.39,0,0,0,70.71-9.23c13.71-3.6,29.16-8,40.13-14.65,4.53-2.75,5.4-11,5.57-14.06C599.53,181.68,597.12,183.48,594.42,185Z"></path><path class="cls-5" d="M600,178.5s0,.44,0,1.16A3.22,3.22,0,0,0,600,178.5Z"></path><path class="cls-2" d="M584.1,175.81c-7.06-7.28-10.83-15.12-10.79-23.75s-12.1-6.27-22.39-8a97.92,97.92,0,0,1-18.13-4.92c-6.1-2.27-10.72-5.61-17.88-2.41a19.16,19.16,0,0,0-2.1,1.32,88.33,88.33,0,0,0-10.57,7.79A86.8,86.8,0,0,0,480,173.07a66.89,66.89,0,0,0-6.39,19.59c-.29,1.82-2.33,8.18-.45,9.28,2.27,1.35,14.47.37,17.74.33a240.88,240.88,0,0,0,57.21-7.47c11.1-2.91,23.45-6.71,32.47-11.85C584,181,586.8,178.61,584.1,175.81Z"></path><path class="cls-7" d="M532.86,139.14c-1.66-.62-3.2-1.31-4.72-1.93-.19,15.81-.44,43.18-.66,61.92q6-1,11.85-2.23l.27-55.49Q536.15,140.38,532.86,139.14Z"></path><path class="cls-7" d="M515.86,136.39c-.19,16.12-.45,45.32-.69,64.39,1.69-.18,3.38-.38,5.06-.59l.33-64.76A13.45,13.45,0,0,0,515.86,136.39Z"></path><path class="cls-10" d="M584.1,175.81c-7.06-7.28-10.83-15.12-10.79-23.75s-12.1-6.27-22.39-8a97.92,97.92,0,0,1-18.13-4.92c-6.1-2.27-10.72-5.61-17.88-2.41a19.16,19.16,0,0,0-2.1,1.32,88.33,88.33,0,0,0-10.57,7.79A86.8,86.8,0,0,0,480,173.07a66.89,66.89,0,0,0-6.39,19.59c-.29,1.82-2.33,8.18-.45,9.28,2.27,1.35,14.47.37,17.74.33a240.88,240.88,0,0,0,57.21-7.47c11.1-2.91,23.45-6.71,32.47-11.85C584,181,586.8,178.61,584.1,175.81Z"></path><polygon class="cls-3" points="510.21 173.91 507.86 165.28 500.16 167.79 500.16 182.53 500.16 188.56 562.81 177.68 562.81 171.65 562.81 171.56 562.81 164.19 510.21 173.91"></polygon><polygon class="cls-7" points="562.81 167.87 500.16 178.76 500.16 164.02 507.86 161.51 510.21 170.13 562.81 160.41 562.81 167.87"></polygon><polygon class="cls-10" points="562.81 167.87 500.16 178.76 500.16 164.02 507.86 161.51 510.21 170.13 562.81 160.41 562.81 167.87"></polygon><polygon class="cls-2" points="500.16 178.76 500.16 184.79 562.81 173.9 562.81 167.78 500.16 178.76"></polygon><polygon class="cls-10" points="500.16 178.76 500.16 184.79 562.81 173.9 562.81 167.78 500.16 178.76"></polygon><path class="cls-3" d="M386.68,199.87l-6.94-3.33L125.33,71.84,49,118.42l.88,32.4L267.31,271.69v.08l2-1.08v-.11Z"></path><path class="cls-7" d="M262.14,264.1l2-1.07-.67-34.16-2.22,1.2h0S261.74,248.58,262.14,264.1Z"></path><polygon class="cls-6" points="262.14 264.02 261.23 230.07 43.87 110.75 44.75 143.15 262.14 264.02"></polygon><path class="cls-10" d="M262.14,264l-.61-3c-.3-31,.61,3-.7-28.72l.4-2.27L43.87,110.75l.88,32.4Z"></path><polygon class="cls-4" points="261.23 230.07 378.49 159.45 160.46 39.57 43.87 110.75 261.23 230.07"></polygon><polygon class="cls-7" points="266.8 215.06 352.21 163.62 193.39 76.3 108.47 128.15 266.8 215.06"></polygon><polygon class="cls-10" points="261.23 230.07 378.49 159.45 160.46 39.57 43.87 110.75 261.23 230.07"></polygon><polygon class="cls-6" points="261.4 239.04 378.66 168.41 378.49 159.45 261.23 230.07 261.4 239.04"></polygon><polygon class="cls-10" points="261.4 239.04 378.66 168.41 378.49 159.45 261.23 230.07 261.4 239.04"></polygon><polygon class="cls-6" points="262.14 264.1 379.4 193.47 379.24 184.51 261.98 255.14 262.14 264.1"></polygon><polygon class="cls-10" points="262.14 264.1 379.4 193.47 379.24 184.51 261.98 255.14 262.14 264.1"></polygon><polygon class="cls-7" points="372.58 172.01 373.16 188.28 261.98 255.14 261.4 239.04 372.58 172.01"></polygon><polygon class="cls-10" points="372.58 172.01 373.16 188.28 261.98 255.14 261.4 239.04 372.58 172.01"></polygon><polygon class="cls-7" points="50.43 142.07 50.43 122.36 250.16 232.08 250.16 250.48 50.43 142.07"></polygon><polygon class="cls-3" points="261.4 239.04 261.4 246.49 373.16 179.08 371.9 172.01 261.4 239.04"></polygon><path class="cls-3" d="M349.17,157.24l-5.59-2.69L157.14,60.22,95.72,97.72l.71,26.07L253.09,215v.07l1.59-.87v-.09Z"></path><path class="cls-7" d="M239.65,206.83l1.34-.73-.45-33.93L239,173l-1.63-1S229.78,195,239.65,206.83Z"></path><path class="cls-2" d="M239.64,206.78l-.41-2c-3.77-11.06-4.66-16.35-.47-30.25L239,173,91.26,91.87l.6,32.74Z"></path><path class="cls-10" d="M239.64,206.78l-.41-2c-3.77-11.06-4.66-16.35-.47-30.25L239,173,91.26,91.87l.6,32.74Z"></path><polygon class="cls-2" points="239.03 172.98 318.74 124.97 170.52 43.48 91.27 91.87 239.03 172.98"></polygon><polygon class="cls-4" points="242.81 162.78 300.87 127.81 192.91 68.45 135.18 103.69 242.81 162.78"></polygon><polygon class="cls-10" points="239.03 172.98 318.74 124.97 170.52 43.48 91.27 91.87 239.03 172.98"></polygon><polygon class="cls-7" points="242.81 154.6 288.45 127.11 192.01 75.11 147.24 102.45 242.81 154.6"></polygon><polygon class="cls-2" points="239.14 179.08 318.85 131.06 318.74 124.97 239.03 172.98 239.14 179.08"></polygon><polygon class="cls-10" points="239.14 179.08 318.85 131.06 318.74 124.97 239.03 172.98 239.14 179.08"></polygon><polygon class="cls-2" points="239.65 206.83 319.36 158.82 319.25 152.73 239.53 200.74 239.65 206.83"></polygon><polygon class="cls-10" points="239.65 206.83 319.36 158.82 319.25 152.73 239.53 200.74 239.65 206.83"></polygon><path class="cls-7" d="M314.72,133.51l.4,21.78-75.59,45.45-.58-4.6a56.86,56.86,0,0,1-.23-12.44l.42-4.62Z"></path><path class="cls-10" d="M314.72,133.51l.4,21.78-75.59,45.45-.58-4.6a56.86,56.86,0,0,1-.23-12.44l.42-4.62Z"></path><polygon class="cls-7" points="95.72 123.88 95.72 99.76 231.5 174.35 231.5 197.57 95.72 123.88"></polygon><polygon class="cls-3" points="239.14 179.08 238.5 187.39 239.03 192.17 315.12 143.22 314.72 133.51 239.14 179.08"></polygon><path class="cls-7" d="M130.29,91.11a.17.17,0,0,0-.08.21.36.36,0,0,0,.21.21l2.44,1.29a.38.38,0,0,1,.23.24c0,.1,0,.18-.14.25l-1.51.89a.74.74,0,0,1-.43.09.94.94,0,0,1-.45-.11l-12.78-6.71c-.15-.08-.24-.17-.25-.26s0-.17.15-.24l2.64-1.56a10.48,10.48,0,0,1,5-1.53,9.77,9.77,0,0,1,5,1.17,6.65,6.65,0,0,1,1.87,1.36,2.66,2.66,0,0,1,.75,1.47,2.22,2.22,0,0,1-.46,1.52,5.56,5.56,0,0,1-1.73,1.47Zm-7.53-4a.22.22,0,0,0-.12.21.33.33,0,0,0,.2.22l3.84,2a1.17,1.17,0,0,0,.44.13.68.68,0,0,0,.38-.07l.4-.24c1.79-1.06,1.88-2,.3-2.84a4.51,4.51,0,0,0-2.46-.55,6,6,0,0,0-2.59.9Z"></path><path class="cls-7" d="M146.39,85.35a3.6,3.6,0,0,1-.39.19.84.84,0,0,1-.57,0l-2.55-.7a2.05,2.05,0,0,0-.51-.08.74.74,0,0,0-.4.1l-2.51,1.49c-.1,0-.14.12-.11.21a.51.51,0,0,0,.11.22L141,88.2c.12.13.13.24,0,.33a3.15,3.15,0,0,1-.33.22l-1.45.86a.57.57,0,0,1-.42,0,.8.8,0,0,1-.41-.21l-9.15-8.94a.19.19,0,0,1-.06-.2.31.31,0,0,1,.16-.21l.9-.53a1,1,0,0,1,.69-.08L147.47,84a1.1,1.1,0,0,1,.42.2c.1.09.08.18,0,.26ZM137,84.25a.68.68,0,0,0,.27.13.65.65,0,0,0,.43-.13l.59-.35c.15-.09.2-.16.14-.2a.45.45,0,0,0-.23-.11l-1.66-.47a.42.42,0,0,0-.41,0,.14.14,0,0,0,0,.23Z"></path><path class="cls-7" d="M134.71,77.45a.4.4,0,0,1-.25-.25c0-.1,0-.18.14-.25l7.2-4.26a.82.82,0,0,1,.42-.09,1,1,0,0,1,.48.12l1.82,1a.45.45,0,0,1,.24.26.22.22,0,0,1-.13.24l-2.12,1.26a.17.17,0,0,0-.1.21.4.4,0,0,0,.2.21l10,5.26a.42.42,0,0,1,.23.25q0,.14-.15.24l-1.5.89a.84.84,0,0,1-.44.1,1.24,1.24,0,0,1-.45-.11l-10-5.24a1.09,1.09,0,0,0-.43-.11.58.58,0,0,0-.37.05l-2.13,1.26a.74.74,0,0,1-.43.09,1.21,1.21,0,0,1-.47-.12Z"></path><path class="cls-7" d="M150.25,67.68a.82.82,0,0,1,.42-.09,1.21,1.21,0,0,1,.48.12l1.82,1a.4.4,0,0,1,.24.26.23.23,0,0,1-.13.24l-4.16,2.46a.16.16,0,0,0-.08.22.59.59,0,0,0,.24.23l1.92,1a1.18,1.18,0,0,0,.45.14.54.54,0,0,0,.37-.06L156,70.7a.71.71,0,0,1,.41-.1,1,1,0,0,1,.47.11l1.84,1c.14.08.22.16.23.26a.24.24,0,0,1-.14.23l-4.17,2.47a.17.17,0,0,0-.09.2.36.36,0,0,0,.2.21l1.55.81a.77.77,0,0,0,.42.1.66.66,0,0,0,.34-.07l4.15-2.46a.86.86,0,0,1,.41-.09,1,1,0,0,1,.47.11l1.84,1c.15.07.22.16.23.25a.23.23,0,0,1-.14.24l-6.39,3.78a.81.81,0,0,1-.43.1,1.07,1.07,0,0,1-.45-.12L144,72c-.16-.08-.24-.16-.26-.25s0-.18.15-.25Z"></path><path class="cls-7" d="M160.57,61.57a.74.74,0,0,1,.43-.1,1,1,0,0,1,.47.12l12.78,6.71a.39.39,0,0,1,.23.25c0,.09,0,.17-.14.24l-1.43.85a1,1,0,0,1-.66.13l-10.52-1.65a.41.41,0,0,0-.19,0,.2.2,0,0,0-.13.08s0,.08,0,.14a.68.68,0,0,0,.29.21l6.41,3.37a.38.38,0,0,1,.23.24c0,.1,0,.18-.14.25l-1.51.89a.74.74,0,0,1-.43.09.94.94,0,0,1-.45-.11l-12.78-6.71c-.15-.08-.24-.17-.25-.26s0-.17.15-.24l1.51-.89a1.15,1.15,0,0,1,.67-.08l10.46,1.65h.24c.08,0,.12,0,.14-.06s0-.08,0-.13a.9.9,0,0,0-.31-.22L159.17,63c-.15-.08-.24-.17-.26-.26a.26.26,0,0,1,.15-.24Z"></path><path class="cls-7" d="M162.75,60.84a.4.4,0,0,1-.25-.25c0-.1,0-.18.14-.25l7.2-4.26a.82.82,0,0,1,.42-.09,1,1,0,0,1,.48.12l1.82,1a.41.41,0,0,1,.24.25.24.24,0,0,1-.13.25l-2.12,1.25a.17.17,0,0,0-.1.21.4.4,0,0,0,.2.21l10,5.26a.42.42,0,0,1,.23.25c0,.09,0,.17-.14.24l-1.51.9a.74.74,0,0,1-.43.09,1.24,1.24,0,0,1-.46-.11l-10-5.24a1,1,0,0,0-.42-.11.6.6,0,0,0-.38,0l-2.13,1.26a.74.74,0,0,1-.43.09,1.21,1.21,0,0,1-.47-.12Z"></path><line class="cls-11" x1="192.91" y1="68.45" x2="242.81" y2="162.78"></line><path class="cls-3" d="M366.68,17.91l11.69,6.69L409,42.09Q428,53,447.09,63.86l34.13,19.5c4,2.28,7.4,3,11.39,5.23,2.78,1.59,8.38,3.64,8.73,7.06.36,3.59-3,4.61-5.63,5.95-10.2,5.29-79.59,43.25-85.67,46.41l-128-74.67,3.28-5.76Z"></path><path class="cls-4" d="M492.56,94.31,408.5,143a7.39,7.39,0,0,1-7.43,0L280.46,72.42a7.39,7.39,0,0,1,0-12.76l84.89-49.12a7.35,7.35,0,0,1,7.46,0l119.79,71A7.38,7.38,0,0,1,492.56,94.31Z"></path><path class="cls-10" d="M492.56,94.31,408.5,143a7.39,7.39,0,0,1-7.43,0L280.46,72.42a7.39,7.39,0,0,1,0-12.76l84.89-49.12a7.35,7.35,0,0,1,7.46,0l119.79,71A7.38,7.38,0,0,1,492.56,94.31Z"></path><polygon class="cls-7" points="403.52 137.3 287.9 69.6 371.06 21.68 487.92 89.39 403.52 137.3"></polygon><polygon class="cls-10" points="403.52 137.3 287.9 69.6 371.06 21.68 487.92 89.39 403.52 137.3"></polygon><path d="M402.82,52.84c.13.08.2.16.19.26a.34.34,0,0,1-.21.27l-6.54,3.71a1,1,0,0,1-.89,0l-1.7-1c-.14-.07-.2-.16-.19-.26a.29.29,0,0,1,.19-.25l6.54-3.72a.94.94,0,0,1,.45-.11,1,1,0,0,1,.46.11Z"></path><path d="M393.93,57.88c.13.08.2.17.19.27a.33.33,0,0,1-.21.26l-6.54,3.71a.83.83,0,0,1-.43.1.77.77,0,0,1-.46-.11l-1.7-1c-.13-.08-.2-.17-.19-.27a.33.33,0,0,1,.19-.25l6.54-3.71a.84.84,0,0,1,.45-.12.85.85,0,0,1,.46.12Z"></path><path d="M385,62.92c.14.08.2.17.19.27a.31.31,0,0,1-.2.26l-6.55,3.71a.82.82,0,0,1-.44.11.84.84,0,0,1-.45-.12l-1.7-1c-.13-.08-.2-.17-.19-.27a.33.33,0,0,1,.19-.25l6.54-3.71a1,1,0,0,1,.46-.11.76.76,0,0,1,.45.11Z"></path><path d="M376.16,68c.13.07.19.16.18.26s-.07.19-.2.27l-6.54,3.71a1,1,0,0,1-.44.1,1,1,0,0,1-.46-.11l-1.7-1c-.13-.08-.19-.16-.19-.27a.34.34,0,0,1,.19-.25L373.54,67a1,1,0,0,1,.46-.11.84.84,0,0,1,.45.11Z"></path><path d="M367.27,73q.19.12.18.27c0,.1-.07.18-.2.26l-6.54,3.71a1,1,0,0,1-.9,0l-1.7-1a.3.3,0,0,1-.19-.26.31.31,0,0,1,.19-.25L364.65,72a.88.88,0,0,1,.46-.12,1,1,0,0,1,.46.11Z"></path><path d="M358.38,78.05a.33.33,0,0,1,.19.27.35.35,0,0,1-.21.26l-6.54,3.71a1,1,0,0,1-.44.11.88.88,0,0,1-.46-.12l-1.7-1a.27.27,0,0,1,0-.52l6.54-3.71a1,1,0,0,1,.46-.12.88.88,0,0,1,.46.12Z"></path><path d="M349.49,83.09a.33.33,0,0,1,.19.27.35.35,0,0,1-.21.26l-6.54,3.71a.87.87,0,0,1-.44.11.9.9,0,0,1-.46-.12l-1.7-1a.27.27,0,0,1,0-.52l6.54-3.71a1,1,0,0,1,.46-.11.87.87,0,0,1,.46.11Z"></path><path d="M424.31,65.52c.13.08.2.17.19.27a.33.33,0,0,1-.21.26l-6.54,3.71a1,1,0,0,1-.44.11.84.84,0,0,1-.45-.12l-1.7-1c-.14-.08-.2-.17-.19-.27s.07-.18.19-.25l6.54-3.71a.94.94,0,0,1,.45-.12.85.85,0,0,1,.46.12Z"></path><path d="M415.42,70.57c.13.07.2.16.19.26s-.07.19-.21.26l-6.54,3.71a.92.92,0,0,1-.89,0l-1.7-1c-.13-.08-.2-.17-.19-.27a.33.33,0,0,1,.19-.25l6.54-3.71a1,1,0,0,1,.46-.11.84.84,0,0,1,.45.11Z"></path><path d="M406.53,75.61c.14.08.2.16.19.26s-.07.19-.2.27L400,79.85a.92.92,0,0,1-.44.1.94.94,0,0,1-.45-.11l-1.7-1c-.13-.07-.2-.16-.19-.26a.34.34,0,0,1,.19-.26l6.54-3.71a1,1,0,0,1,.46-.11.94.94,0,0,1,.45.11Z"></path><path d="M397.65,80.65q.19.12.18.27c0,.1-.07.18-.2.26l-6.54,3.71a.87.87,0,0,1-.44.1.79.79,0,0,1-.46-.11l-1.7-1a.33.33,0,0,1-.19-.27.31.31,0,0,1,.19-.25L395,79.65a.85.85,0,0,1,.46-.12.84.84,0,0,1,.45.12Z"></path><path d="M388.76,85.69q.19.12.18.27a.31.31,0,0,1-.2.26l-6.54,3.71a1,1,0,0,1-.44.11.88.88,0,0,1-.46-.12l-1.7-1a.27.27,0,0,1,0-.52l6.54-3.71a1,1,0,0,1,.46-.12.9.9,0,0,1,.46.12Z"></path><path d="M379.87,90.74a.3.3,0,0,1,.19.26.35.35,0,0,1-.21.26L373.31,95a1,1,0,0,1-.44.1.88.88,0,0,1-.46-.12l-1.7-1a.27.27,0,0,1,0-.52l6.54-3.71a1,1,0,0,1,.46-.11.87.87,0,0,1,.46.11Z"></path><path d="M371,95.78a.33.33,0,0,1,.19.26.36.36,0,0,1-.21.27L364.42,100a.87.87,0,0,1-.44.1.9.9,0,0,1-.46-.11l-1.7-1a.3.3,0,0,1-.19-.26.31.31,0,0,1,.19-.25l6.54-3.72a1,1,0,0,1,.46-.11,1,1,0,0,1,.46.11Z"></path><path d="M445.8,78.21c.13.07.2.16.19.26a.35.35,0,0,1-.21.26l-6.54,3.72a1,1,0,0,1-.44.1.94.94,0,0,1-.45-.11l-1.7-1c-.13-.08-.2-.16-.19-.26a.31.31,0,0,1,.19-.26l6.54-3.71a.94.94,0,0,1,.45-.11.85.85,0,0,1,.46.11Z"></path><path d="M436.91,83.25c.13.08.2.17.19.27s-.07.18-.21.26l-6.54,3.71a1,1,0,0,1-.89,0l-1.7-1c-.14-.07-.2-.16-.19-.26a.29.29,0,0,1,.19-.25l6.54-3.71a.85.85,0,0,1,.46-.12.94.94,0,0,1,.45.11Z"></path><path d="M428,88.29c.14.08.2.17.19.27a.31.31,0,0,1-.2.26l-6.55,3.71a.82.82,0,0,1-.44.1.76.76,0,0,1-.45-.11l-1.7-1c-.13-.08-.2-.17-.19-.27a.33.33,0,0,1,.19-.25l6.54-3.71a1,1,0,0,1,.46-.12.84.84,0,0,1,.45.12Z"></path><polygon class="cls-7" points="403.16 133.06 287.54 65.36 370.7 17.45 487.55 85.14 403.16 133.06"></polygon><polygon class="cls-10" points="403.16 133.06 287.54 65.36 370.7 17.45 487.55 85.14 403.16 133.06"></polygon><path d="M402.46,48.6a.33.33,0,0,1,.19.27c0,.1-.08.18-.21.26l-6.54,3.71a.84.84,0,0,1-.44.1.9.9,0,0,1-.46-.11l-1.7-1c-.13-.07-.19-.16-.18-.26a.3.3,0,0,1,.18-.25l6.55-3.71a.84.84,0,0,1,.45-.12.85.85,0,0,1,.46.12Z"></path><path d="M393.57,53.64c.13.08.2.17.19.27a.35.35,0,0,1-.21.26L387,57.88a1,1,0,0,1-.44.11.84.84,0,0,1-.45-.12l-1.71-1q-.2-.12-.18-.27a.31.31,0,0,1,.18-.25L391,52.64a.94.94,0,0,1,.45-.12.85.85,0,0,1,.46.12Z"></path><path d="M384.68,58.69c.13.07.2.16.19.26a.33.33,0,0,1-.21.26l-6.54,3.71a.92.92,0,0,1-.89,0l-1.7-1c-.13-.08-.2-.17-.19-.27s.07-.18.19-.25l6.54-3.71a.94.94,0,0,1,.45-.11.85.85,0,0,1,.46.11Z"></path><path d="M375.79,63.73c.14.08.2.16.19.26s-.07.19-.2.27L369.23,68a.91.91,0,0,1-.43.1,1,1,0,0,1-.46-.11l-1.7-1c-.13-.07-.2-.16-.19-.26a.34.34,0,0,1,.19-.26l6.54-3.71a1,1,0,0,1,.46-.11.94.94,0,0,1,.45.11Z"></path><path d="M366.9,68.77c.14.08.2.17.19.27s-.07.18-.2.26L360.35,73a.87.87,0,0,1-.44.1.77.77,0,0,1-.46-.11l-1.7-1a.33.33,0,0,1-.19-.27.31.31,0,0,1,.19-.25l6.54-3.71a.85.85,0,0,1,.46-.12.84.84,0,0,1,.45.12Z"></path><path d="M358,73.81q.19.12.18.27a.31.31,0,0,1-.2.26l-6.54,3.71a1,1,0,0,1-.44.11.88.88,0,0,1-.46-.12l-1.7-1a.27.27,0,0,1,0-.52l6.54-3.71a1,1,0,0,1,.46-.12.9.9,0,0,1,.46.12Z"></path><path d="M349.13,78.86a.3.3,0,0,1,.19.26.35.35,0,0,1-.21.26l-6.54,3.72a1,1,0,0,1-.9,0l-1.7-1a.27.27,0,0,1,0-.52l6.54-3.71a1,1,0,0,1,.46-.11.87.87,0,0,1,.46.11Z"></path><path d="M424,61.28a.33.33,0,0,1,.19.27.35.35,0,0,1-.21.26l-6.54,3.71a.84.84,0,0,1-.44.11.9.9,0,0,1-.46-.12l-1.7-1q-.19-.12-.18-.27a.31.31,0,0,1,.18-.25l6.55-3.71a.84.84,0,0,1,.45-.11.79.79,0,0,1,.46.11Z"></path><path d="M415.06,66.33c.13.07.2.16.19.26a.38.38,0,0,1-.21.27l-6.54,3.71a1,1,0,0,1-.44.1.94.94,0,0,1-.45-.11l-1.71-1c-.13-.08-.19-.16-.18-.26a.31.31,0,0,1,.18-.26l6.54-3.71a1,1,0,0,1,.46-.11.85.85,0,0,1,.46.11Z"></path><path d="M406.17,71.37c.13.08.2.17.19.27s-.08.18-.21.26l-6.54,3.71a1,1,0,0,1-.89,0l-1.7-1c-.14-.07-.2-.16-.19-.26a.29.29,0,0,1,.19-.25l6.54-3.71a.84.84,0,0,1,.45-.12,1,1,0,0,1,.46.11Z"></path><path d="M397.28,76.41c.14.08.2.17.19.27a.31.31,0,0,1-.2.26l-6.55,3.71a.91.91,0,0,1-.43.11.85.85,0,0,1-.46-.12l-1.7-1c-.13-.08-.2-.17-.19-.27a.33.33,0,0,1,.19-.25l6.54-3.71a.85.85,0,0,1,.46-.12.84.84,0,0,1,.45.12Z"></path><path d="M388.4,81.45q.19.12.18.27a.31.31,0,0,1-.2.26l-6.54,3.71a.87.87,0,0,1-.44.11.85.85,0,0,1-.46-.12l-1.7-1c-.13-.08-.2-.17-.19-.27a.33.33,0,0,1,.19-.25l6.54-3.71a1,1,0,0,1,.46-.11.84.84,0,0,1,.45.11Z"></path><path d="M379.51,86.5c.13.07.19.16.18.26s-.07.19-.2.27L373,90.74a1,1,0,0,1-.9,0l-1.7-1a.3.3,0,0,1-.19-.26.34.34,0,0,1,.19-.26l6.54-3.71a1,1,0,0,1,.46-.11,1,1,0,0,1,.46.11Z"></path><path d="M370.62,91.54a.33.33,0,0,1,.19.27c0,.1-.08.18-.21.26l-6.54,3.71a1,1,0,0,1-.9,0l-1.7-1a.33.33,0,0,1-.19-.27.31.31,0,0,1,.19-.25L368,90.54a.88.88,0,0,1,.46-.12.9.9,0,0,1,.46.12Z"></path><path d="M445.44,74c.13.08.19.16.19.26a.38.38,0,0,1-.21.27l-6.54,3.71a1,1,0,0,1-.44.1,1,1,0,0,1-.46-.11l-1.7-1c-.13-.08-.19-.16-.18-.26a.31.31,0,0,1,.18-.26L442.82,73a1,1,0,0,1,.46-.11,1,1,0,0,1,.46.11Z"></path><path d="M436.55,79c.13.08.2.17.19.27s-.08.18-.21.26L430,83.25a.84.84,0,0,1-.44.1.76.76,0,0,1-.45-.11l-1.7-1c-.14-.08-.2-.17-.19-.27a.28.28,0,0,1,.18-.25L433.94,78a.84.84,0,0,1,.45-.12.85.85,0,0,1,.46.12Z"></path><path d="M427.66,84.05c.13.08.2.17.19.27a.35.35,0,0,1-.21.26l-6.54,3.71a1,1,0,0,1-.44.11.84.84,0,0,1-.45-.12l-1.7-1c-.14-.08-.2-.17-.19-.27s.07-.18.19-.25l6.54-3.71a.84.84,0,0,1,.45-.11.77.77,0,0,1,.46.11Z"></path><polygon class="cls-7" points="403.52 130.3 287.9 62.6 371.06 14.69 487.92 82.39 403.52 130.3"></polygon><polygon class="cls-10" points="403.52 130.3 287.9 62.6 371.06 14.69 487.92 82.39 403.52 130.3"></polygon><path class="cls-6" d="M405.37,48.47c.14.08.2.17.19.27a.31.31,0,0,1-.2.26l-6.54,3.71a1,1,0,0,1-.44.11.85.85,0,0,1-.46-.12l-1.7-1a.27.27,0,0,1,0-.52l6.54-3.71a1,1,0,0,1,.46-.12.84.84,0,0,1,.45.12Z"></path><path class="cls-6" d="M396.49,53.51a.33.33,0,0,1,.19.27.35.35,0,0,1-.21.26l-6.54,3.71a.94.94,0,0,1-.9,0l-1.7-1a.27.27,0,0,1,0-.52l6.54-3.71a1,1,0,0,1,.46-.11.84.84,0,0,1,.45.11Z"></path><path class="cls-6" d="M387.6,58.56a.3.3,0,0,1,.19.26.38.38,0,0,1-.21.27L381,62.8a1,1,0,0,1-.9,0l-1.7-1c-.13-.08-.19-.16-.19-.26a.34.34,0,0,1,.19-.26L385,57.55a1,1,0,0,1,.92,0Z"></path><path class="cls-6" d="M378.71,63.6a.33.33,0,0,1,.19.27c0,.1-.08.18-.21.26l-6.54,3.71a.87.87,0,0,1-.44.1.84.84,0,0,1-.45-.11l-1.71-1a.3.3,0,0,1-.19-.26.31.31,0,0,1,.19-.25l6.54-3.71a.9.9,0,0,1,.46-.12.85.85,0,0,1,.46.12Z"></path><path class="cls-6" d="M369.82,68.64c.13.08.2.17.19.27a.35.35,0,0,1-.21.26l-6.54,3.71a1,1,0,0,1-.44.11.9.9,0,0,1-.46-.12l-1.7-1q-.2-.12-.18-.27a.31.31,0,0,1,.18-.25l6.55-3.71a.94.94,0,0,1,.45-.12.85.85,0,0,1,.46.12Z"></path><path class="cls-6" d="M360.93,73.69c.13.07.2.16.19.26a.35.35,0,0,1-.21.26l-6.54,3.71a.92.92,0,0,1-.89,0l-1.71-1q-.19-.12-.18-.27a.31.31,0,0,1,.18-.25l6.55-3.71a.94.94,0,0,1,.45-.11.85.85,0,0,1,.46.11Z"></path><path class="cls-6" d="M352,78.73c.13.08.2.17.19.26a.34.34,0,0,1-.21.27L345.48,83a1,1,0,0,1-.89,0l-1.7-1c-.13-.07-.2-.16-.19-.26a.29.29,0,0,1,.19-.25l6.54-3.72a.94.94,0,0,1,.45-.11,1,1,0,0,1,.46.11Z"></path><path class="cls-6" d="M426.86,61.16c.14.07.2.16.19.26a.31.31,0,0,1-.2.26l-6.54,3.72a1,1,0,0,1-.44.1,1,1,0,0,1-.46-.11l-1.7-1a.27.27,0,0,1,0-.52l6.54-3.71a1,1,0,0,1,.46-.11.84.84,0,0,1,.45.11Z"></path><path class="cls-6" d="M418,66.2c.13.08.19.16.18.26s-.07.19-.2.27l-6.54,3.71a1,1,0,0,1-.9,0l-1.7-1a.3.3,0,0,1-.19-.26.31.31,0,0,1,.19-.25l6.54-3.72a1,1,0,0,1,.46-.11.94.94,0,0,1,.45.11Z"></path><path class="cls-6" d="M409.09,71.24a.33.33,0,0,1,.19.27c0,.1-.08.18-.21.26l-6.54,3.71a.87.87,0,0,1-.44.1.79.79,0,0,1-.46-.11l-1.7-1a.27.27,0,0,1,0-.52l6.54-3.71a.94.94,0,0,1,.92,0Z"></path><path class="cls-6" d="M400.2,76.28a.33.33,0,0,1,.19.27.35.35,0,0,1-.21.26l-6.54,3.71a.87.87,0,0,1-.44.11.9.9,0,0,1-.46-.12l-1.7-1q-.19-.12-.18-.27A.29.29,0,0,1,391,79l6.54-3.71a1,1,0,0,1,.46-.11.77.77,0,0,1,.46.11Z"></path><path class="cls-6" d="M391.31,81.33a.3.3,0,0,1,.19.26.38.38,0,0,1-.21.27l-6.54,3.71a1,1,0,0,1-.44.1.94.94,0,0,1-.45-.11l-1.71-1c-.13-.08-.19-.16-.18-.26a.31.31,0,0,1,.18-.26l6.55-3.71a.94.94,0,0,1,.45-.11.85.85,0,0,1,.46.11Z"></path><path class="cls-6" d="M382.42,86.37c.13.08.2.17.19.27s-.08.18-.21.26l-6.54,3.71a1,1,0,0,1-.89,0l-1.7-1c-.14-.07-.2-.16-.19-.26a.29.29,0,0,1,.19-.25l6.54-3.71a.84.84,0,0,1,.45-.12.85.85,0,0,1,.46.12Z"></path><path class="cls-6" d="M373.53,91.41c.13.08.2.17.19.27a.33.33,0,0,1-.21.26L367,95.65a1,1,0,0,1-.44.11.84.84,0,0,1-.45-.12l-1.7-1c-.13-.08-.2-.17-.19-.27s.07-.18.19-.25l6.54-3.71a.94.94,0,0,1,.45-.12.85.85,0,0,1,.46.12Z"></path><path class="cls-6" d="M412.8,94a.33.33,0,0,1,.19.27c0,.1-.08.18-.21.26l-6.54,3.71a.84.84,0,0,1-.44.1.76.76,0,0,1-.45-.11l-1.71-1q-.19-.12-.18-.27a.28.28,0,0,1,.18-.25L410.19,93a.84.84,0,0,1,.45-.12.85.85,0,0,1,.46.12Z"></path><path class="cls-6" d="M403.91,99.05c.13.08.2.17.19.27a.35.35,0,0,1-.21.26l-6.54,3.71a.92.92,0,0,1-.89,0l-1.7-1c-.14-.08-.2-.17-.19-.27s.07-.18.19-.25l6.54-3.71a.94.94,0,0,1,.45-.12.85.85,0,0,1,.46.12Z"></path><path class="cls-6" d="M395,104.1c.13.07.2.16.19.26a.33.33,0,0,1-.21.26l-6.54,3.72a1,1,0,0,1-.44.1.94.94,0,0,1-.45-.11l-1.7-1c-.13-.08-.2-.17-.19-.27s.07-.18.19-.25l6.54-3.71a.94.94,0,0,1,.45-.11.85.85,0,0,1,.46.11Z"></path><path class="cls-12" d="M324.51,68.13a4.69,4.69,0,0,1-1.46-1.1,2.22,2.22,0,0,1-.57-1.24,1.94,1.94,0,0,1,.32-1.23A3.3,3.3,0,0,1,324,63.48a6.63,6.63,0,0,1,1.88-.73,9.81,9.81,0,0,1,2.22-.24.88.88,0,0,1,.3.07c.09,0,.14.1.14.16l.09.83a.18.18,0,0,1-.11.17.57.57,0,0,1-.31.07A7.57,7.57,0,0,0,327,64a3.94,3.94,0,0,0-1.12.42,2.06,2.06,0,0,0-.75.66,1.08,1.08,0,0,0-.19.74,1.3,1.3,0,0,0,.35.74,3.13,3.13,0,0,0,.9.66,5.09,5.09,0,0,0,1.26.45,6.48,6.48,0,0,0,1.38.15,6.07,6.07,0,0,0,1.35-.14,4,4,0,0,0,1.17-.44,1.9,1.9,0,0,0,.72-.63,1.45,1.45,0,0,0,.25-.71.19.19,0,0,1,.11-.17.68.68,0,0,1,.31-.06h1.53a.59.59,0,0,1,.31.07.27.27,0,0,1,.14.16,1.79,1.79,0,0,1-.33,1.21,3.61,3.61,0,0,1-1.24,1.06,6.67,6.67,0,0,1-1.93.72,9.91,9.91,0,0,1-2.26.23,11.18,11.18,0,0,1-2.31-.24A8.73,8.73,0,0,1,324.51,68.13Z"></path><path class="cls-12" d="M332,63.83a4.64,4.64,0,0,1-1.45-1.1A2.32,2.32,0,0,1,330,61.5a1.91,1.91,0,0,1,.33-1.24,3.45,3.45,0,0,1,1.22-1.08,6.86,6.86,0,0,1,1.94-.73,10,10,0,0,1,2.27-.23,11.25,11.25,0,0,1,2.31.24,8.88,8.88,0,0,1,2.09.73,4.78,4.78,0,0,1,1.45,1.09,2.34,2.34,0,0,1,.56,1.24,1.82,1.82,0,0,1-.32,1.23,3.41,3.41,0,0,1-1.23,1.09,6.85,6.85,0,0,1-1.94.72,10.5,10.5,0,0,1-2.26.24,11.09,11.09,0,0,1-2.3-.24A8.46,8.46,0,0,1,332,63.83Zm1.63-.93a5.16,5.16,0,0,0,1.27.45,6.32,6.32,0,0,0,1.37.15,6.62,6.62,0,0,0,1.34-.14,4.65,4.65,0,0,0,1.17-.44,2.11,2.11,0,0,0,.76-.67,1.06,1.06,0,0,0,.2-.73,1.28,1.28,0,0,0-.34-.74,2.82,2.82,0,0,0-.89-.66,5,5,0,0,0-1.26-.45,6.64,6.64,0,0,0-1.39-.15,6.75,6.75,0,0,0-1.36.14,4.38,4.38,0,0,0-1.18.45,2,2,0,0,0-.75.65,1.19,1.19,0,0,0-.19.74,1.38,1.38,0,0,0,.36.74A3.08,3.08,0,0,0,333.67,62.9Z"></path><path class="cls-12" d="M345.36,58.66a.12.12,0,0,0-.07.13.2.2,0,0,0,.13.14l1.57.81a.24.24,0,0,1,.14.16c0,.06,0,.11-.11.16l-1.06.6a.54.54,0,0,1-.29.07.6.6,0,0,1-.3-.07l-8.19-4.22c-.1,0-.15-.1-.16-.16s0-.11.11-.16L339,55.06A7.73,7.73,0,0,1,342.4,54a6.21,6.21,0,0,1,3.28.7,4,4,0,0,1,1.18.86,1.38,1.38,0,0,1,0,1.95,4.09,4.09,0,0,1-1.24,1Zm-4.83-2.51c-.07,0-.1.09-.09.14s0,.1.12.14L343,57.7a.74.74,0,0,0,.29.08.45.45,0,0,0,.26-.05l.28-.16c1.25-.72,1.37-1.34.35-1.87a3,3,0,0,0-1.61-.32,4.36,4.36,0,0,0-1.79.62Z"></path><path class="cls-12" d="M353.89,56.14a.56.56,0,0,1-.3.07.54.54,0,0,1-.29-.07l-3.09-1.59a1.51,1.51,0,0,0-.32-.11l-.38-.08-6.35-1.25a.49.49,0,0,1-.28-.12c-.07-.06-.06-.12,0-.16l1-.58.32-.15a.57.57,0,0,1,.32,0l3.56.68a.56.56,0,0,0,.32,0c.06,0,.08-.07.05-.11l-1.5-2a.12.12,0,0,1,0-.18,1.3,1.3,0,0,1,.26-.17l1-.58a.4.4,0,0,1,.29,0,.48.48,0,0,1,.25.15l2.61,3.35.18.2a.69.69,0,0,0,.24.18l3.08,1.59a.22.22,0,0,1,.14.16c0,.06,0,.11-.1.16Z"></path><path class="cls-12" d="M357.84,51.54c-.09.11-.07.2.07.27l1.56.81a.2.2,0,0,1,.14.16c0,.06,0,.11-.11.16l-1.06.6a.52.52,0,0,1-.29.07.65.65,0,0,1-.29-.07l-8.2-4.22c-.1,0-.15-.1-.16-.16s0-.11.12-.16l1.85-1.06a11.1,11.1,0,0,1,1.65-.77,6.42,6.42,0,0,1,1.64-.35,5.87,5.87,0,0,1,1.66.12,7,7,0,0,1,1.74.64,2.39,2.39,0,0,1,1,.86,1.8,1.8,0,0,1,.29,1.05.36.36,0,0,0,.07.28,1,1,0,0,0,.42.16l3.09.58a.71.71,0,0,1,.3.12c.07,0,0,.11-.09.18l-1.18.67a.54.54,0,0,1-.28.09.77.77,0,0,1-.22,0l-2.95-.45a.44.44,0,0,0-.21,0,1,1,0,0,0-.23.12l-.17.12A1.2,1.2,0,0,0,357.84,51.54ZM353,49a.16.16,0,0,0-.09.14.2.2,0,0,0,.12.14l2.47,1.27a.9.9,0,0,0,.28.08.44.44,0,0,0,.26-.06l.28-.15A2.69,2.69,0,0,0,357,50a1,1,0,0,0,.26-.51.65.65,0,0,0-.09-.47,1.07,1.07,0,0,0-.46-.39,3.21,3.21,0,0,0-.9-.31,3,3,0,0,0-.85,0,3.54,3.54,0,0,0-.83.23,6.85,6.85,0,0,0-.82.4Z"></path><path class="cls-12" d="M357.48,44.51a.57.57,0,0,1,.29-.07.72.72,0,0,1,.32.08l8.19,4.21c.08.05.13.1.14.16s0,.12-.11.16l-1.06.61a.54.54,0,0,1-.29.06.65.65,0,0,1-.29-.06l-8.2-4.22c-.1,0-.15-.11-.16-.17s0-.11.12-.16Z"></path><path class="cls-12" d="M373.45,44.24a2.12,2.12,0,0,1-.49.92,3.78,3.78,0,0,1-1,.82,7,7,0,0,1-1.93.71,10.5,10.5,0,0,1-2.26.24,11.18,11.18,0,0,1-2.31-.24,8.13,8.13,0,0,1-2.08-.73,4.62,4.62,0,0,1-1.45-1.09,2.38,2.38,0,0,1-.58-1.24,1.93,1.93,0,0,1,.33-1.24,3.36,3.36,0,0,1,1.22-1.08,5.56,5.56,0,0,1,1.16-.5,9.36,9.36,0,0,1,1.34-.32.84.84,0,0,1,.31,0,.36.36,0,0,1,.21.13l.49.81a.14.14,0,0,1,0,.17.45.45,0,0,1-.27.12,6.17,6.17,0,0,0-.74.19,4,4,0,0,0-.66.3,2.06,2.06,0,0,0-.75.66,1.11,1.11,0,0,0-.19.73,1.23,1.23,0,0,0,.36.74A2.75,2.75,0,0,0,365,45a5.24,5.24,0,0,0,1.26.45,5.33,5.33,0,0,0,1.37.15,6.55,6.55,0,0,0,1.34-.14,4.24,4.24,0,0,0,1.18-.44l.27-.17a.85.85,0,0,0,.2-.17h0c.06-.08.07-.15,0-.21a.85.85,0,0,0-.29-.21l-.45-.23a.73.73,0,0,0-.29-.07.49.49,0,0,0-.27.05l-.76.44a.68.68,0,0,1-.58,0l-1.19-.6c-.09,0-.14-.1-.14-.16s0-.12.11-.16l2.34-1.34a.61.61,0,0,1,.28-.06.62.62,0,0,1,.31.06l3.61,1.86C373.43,44.11,373.47,44.17,373.45,44.24Z"></path><path class="cls-12" d="M368.08,38.46a.69.69,0,0,1,.29-.07.72.72,0,0,1,.32.08l3,1.56a.61.61,0,0,0,.3.08.49.49,0,0,0,.27,0l2.43-1.39a.15.15,0,0,0,.08-.15.29.29,0,0,0-.16-.15l-3-1.57c-.1,0-.16-.1-.16-.16s0-.11.11-.16l1.06-.61a.82.82,0,0,1,.29-.07.84.84,0,0,1,.31.08l8.2,4.22a.22.22,0,0,1,.14.16c0,.06,0,.11-.11.16l-1.06.6a.54.54,0,0,1-.29.07.66.66,0,0,1-.3-.07l-2.72-1.4a.74.74,0,0,0-.29-.08.57.57,0,0,0-.27.06L374.13,41c-.09,0-.13.1-.12.16s.06.11.15.16l2.72,1.4a.23.23,0,0,1,.14.15c0,.07,0,.12-.11.17l-1.06.6a.54.54,0,0,1-.29.07.94.94,0,0,1-.3-.07l-8.19-4.22c-.1,0-.15-.1-.16-.16a.18.18,0,0,1,.11-.16Z"></path><path class="cls-12" d="M374.11,35.37a.23.23,0,0,1-.15-.16c0-.06,0-.12.11-.16l5.05-2.88a.59.59,0,0,1,.29-.07.78.78,0,0,1,.31.07l1.17.61c.09,0,.14.1.14.16s0,.12-.1.16l-1.48.85c-.07,0-.09.08-.08.14a.19.19,0,0,0,.12.13l6.43,3.31a.24.24,0,0,1,.14.16c0,.06,0,.11-.11.16l-1.06.6a.54.54,0,0,1-.29.07.58.58,0,0,1-.3-.07l-6.39-3.29a.72.72,0,0,0-.28-.07.45.45,0,0,0-.25,0l-1.5.85a.54.54,0,0,1-.29.07.78.78,0,0,1-.31-.07Z"></path><path class="cls-2" d="M305,28.41a8.72,8.72,0,0,1-2.52-6c0-5.65,5.91-10.23,13.21-10.23a14.8,14.8,0,0,1,10.39,3.94l11.3-6.59,25.09,15.27L312,53.64,286.43,39.23Z"></path><path class="cls-10" d="M305,28.41a8.72,8.72,0,0,1-2.52-6c0-5.65,5.91-10.23,13.21-10.23a14.8,14.8,0,0,1,10.39,3.94l11.3-6.59,25.09,15.27L312,53.64,286.43,39.23Z"></path><path class="cls-12" d="M309.55,20.72c0,1.91,2,3.45,4.56,3.45s4.56-1.54,4.56-3.45-2-3.44-4.56-3.44S309.55,18.82,309.55,20.72Z"></path><polygon class="cls-7" points="362.12 24.82 362.12 27.62 311.63 56.45 311.63 53.64 362.12 24.82"></polygon><polygon class="cls-10" points="362.12 24.82 362.12 27.62 311.63 56.45 311.63 53.64 362.12 24.82"></polygon><polygon class="cls-7" points="311.63 53.64 311.63 56.45 286.08 42.03 286.08 39.23 311.63 53.64"></polygon><polygon class="cls-10" points="311.63 53.64 311.63 56.45 286.08 42.03 286.08 39.23 311.63 53.64"></polygon><polygon class="cls-7" points="330.19 15.47 326.41 43.01 336.42 36.92 337.95 10.98 330.19 15.47"></polygon><ellipse class="cls-2" cx="440.45" cy="82.96" rx="13.77" ry="10.26"></ellipse><path class="cls-3" d="M487.55,40.68a77.82,77.82,0,0,1,16-2,67.4,67.4,0,0,1,12.8,1,55.54,55.54,0,0,1,12.18,3.57,48.84,48.84,0,0,1,8.37,4.55,34.85,34.85,0,0,1,5.42,4.49,26.06,26.06,0,0,1,2.26,2.68,21,21,0,0,1,1.81,3,17.89,17.89,0,0,1,1.22,3.31,16,16,0,0,1,.5,3.7l0,0a7.43,7.43,0,0,1,1.6.91l10.51,6h0L655.12,126h0a8.81,8.81,0,0,1,5.3,8.27c0,4.87-3.63,8.81-8.1,8.81a7.64,7.64,0,0,1-2.48-.42h0a7.79,7.79,0,0,1-2.39-1.36L560.82,91.85v0s0,0,0,0l-8-4.61h0L543,81.64h0a8.06,8.06,0,0,1-4.21-3.11c-9.24,3.79-22.16-.71-29.1-7a21.4,21.4,0,0,1-4.12-4.93c-2.48-4.23-2.91-9.36-4.87-13.86A22.1,22.1,0,0,0,487.87,40.8h0Z"></path><path class="cls-2" d="M511,66.05a21.52,21.52,0,0,1-4.11-4.92c-2.48-4.24-2.91-9.36-4.87-13.87a22.12,22.12,0,0,0-13.11-12c16.65-3.84,35.19-2.54,49.32,7.09,3.87,2.64,7.42,5.95,9.49,10.15s2.45,9.42.21,13.53C540.38,79.77,520.28,74.57,511,66.05Z"></path><path class="cls-7" d="M529.67,43.79c-4.36-2.7-8.9-5.25-13.88-6.47A56.32,56.32,0,0,0,506,36.14l-9.85-.6c-2.32-.15-4.65-.28-7-.26l-.31-.11c16.65-3.85,35.19-2.54,49.32,7.08,3.87,2.64,7.42,6,9.49,10.16s2.45,9.41.21,13.52a17.52,17.52,0,0,1-1.27,2,31.77,31.77,0,0,0-9.29-18.57A47.56,47.56,0,0,0,529.67,43.79Z"></path><path class="cls-10" d="M511,66.05a21.52,21.52,0,0,1-4.11-4.92c-2.48-4.24-2.91-9.36-4.87-13.87a22.12,22.12,0,0,0-13.11-12c16.65-3.84,35.19-2.54,49.32,7.09,3.87,2.64,7.42,5.95,9.49,10.15s2.45,9.42.21,13.53C540.38,79.77,520.28,74.57,511,66.05Z"></path><path class="cls-7" d="M551,60.45a7.79,7.79,0,0,0-1.61-.92l0,0h0a7.44,7.44,0,0,0-2.9-.59c-4.47,0-8.1,3.95-8.1,8.82a8.73,8.73,0,0,0,5.89,8.47h0l106.88,61.06,5.28-16.67Z"></path><path class="cls-10" d="M551,60.45a7.79,7.79,0,0,0-1.61-.92l0,0h0a7.44,7.44,0,0,0-2.9-.59c-4.47,0-8.1,3.95-8.1,8.82a8.73,8.73,0,0,0,5.89,8.47h0l106.88,61.06,5.28-16.67Z"></path><ellipse class="cls-6" cx="653.63" cy="128.89" rx="8.09" ry="8.82"></ellipse><ellipse class="cls-10" cx="653.63" cy="128.89" rx="8.09" ry="8.82"></ellipse><path class="cls-10" d="M554.06,81.81a10.92,10.92,0,0,1-1.24-5.1c0-5.42,3.85-9.86,8.73-10.26"></path><path class="cls-10" d="M562.13,86.46a11,11,0,0,1-1.24-5.1c0-5.42,3.85-9.87,8.74-10.27"></path><path class="cls-10" d="M570,90.9a11,11,0,0,1-1.24-5.1c0-5.42,3.85-9.87,8.74-10.26"></path><path class="cls-3" d="M200.47,245.46a76,76,0,0,0-15.5-1.94,64.31,64.31,0,0,0-12.42.94,54,54,0,0,0-11.81,3.45,47.42,47.42,0,0,0-8.13,4.42,34.8,34.8,0,0,0-5.26,4.36,24.69,24.69,0,0,0-2.19,2.6,19.77,19.77,0,0,0-1.75,2.9c-.25.51-.48,1-.68,1.57s-.36,1.09-.51,1.64a15.66,15.66,0,0,0-.48,3.59l0,0a7.56,7.56,0,0,0-1.56.89l-10.2,5.82h0L37.88,328.28h0a8.54,8.54,0,0,0-5.13,8c0,4.72,3.51,8.55,7.85,8.55a7.08,7.08,0,0,0,2.4-.41h0a7.73,7.73,0,0,0,2.31-1.33l84-48v0a.08.08,0,0,0,0,0l7.82-4.47h0l9.49-5.42h0a7.88,7.88,0,0,0,4.08-3c9,3.68,21.51-.68,28.24-6.83a20.76,20.76,0,0,0,4-4.78c2.41-4.11,2.82-9.09,4.72-13.45a21.51,21.51,0,0,1,12.42-11.54h0Z"></path><path class="cls-6" d="M183.22,268.61a21,21,0,0,0,4-4.77c2.4-4.12,2.82-9.09,4.72-13.46a21.43,21.43,0,0,1,12.72-11.64c-16.16-3.73-34.15-2.47-47.85,6.87a26.63,26.63,0,0,0-9.21,9.86c-2,4.08-2.38,9.13-.2,13.12C154.68,281.92,174.18,276.88,183.22,268.61Z"></path><path class="cls-7" d="M165.07,247.1c4.23-2.61,8.64-5.09,13.48-6.27a54.69,54.69,0,0,1,9.48-1.15l9.56-.58c2.25-.14,4.51-.28,6.77-.25l.3-.11c-16.16-3.73-34.15-2.47-47.85,6.87a26.63,26.63,0,0,0-9.21,9.86c-2,4.08-2.38,9.13-.2,13.12a16.46,16.46,0,0,0,1.23,1.91,30.81,30.81,0,0,1,9-18A47.36,47.36,0,0,1,165.07,247.1Z"></path><path class="cls-10" d="M183.22,268.61a21,21,0,0,0,4-4.77c2.4-4.12,2.82-9.09,4.72-13.46a21.43,21.43,0,0,1,12.72-11.64c-16.16-3.73-34.15-2.47-47.85,6.87a26.63,26.63,0,0,0-9.21,9.86c-2,4.08-2.38,9.13-.2,13.12C154.68,281.92,174.18,276.88,183.22,268.61Z"></path><path class="cls-7" d="M144.34,263.18a7.08,7.08,0,0,1,1.56-.89l0,0h0a7.21,7.21,0,0,1,2.81-.58c4.34,0,7.86,3.83,7.86,8.56a8.47,8.47,0,0,1-5.71,8.22h0L47.2,337.73l-5.13-16.18Z"></path><path class="cls-10" d="M144.34,263.18a7.08,7.08,0,0,1,1.56-.89l0,0h0a7.21,7.21,0,0,1,2.81-.58c4.34,0,7.86,3.83,7.86,8.56a8.47,8.47,0,0,1-5.71,8.22h0L47.2,337.73l-5.13-16.18Z"></path><ellipse class="cls-6" cx="44.79" cy="329.58" rx="7.85" ry="8.56"></ellipse><ellipse class="cls-10" cx="44.79" cy="329.58" rx="7.85" ry="8.56"></ellipse><path class="cls-10" d="M141.41,283.9a10.55,10.55,0,0,0,1.2-4.94c0-5.26-3.73-9.58-8.47-10"></path><path class="cls-10" d="M133.58,288.41a10.67,10.67,0,0,0,1.2-4.94c0-5.27-3.74-9.58-8.48-10"></path><path class="cls-10" d="M126,292.72a10.58,10.58,0,0,0,1.2-4.94c0-5.27-3.73-9.58-8.47-10"></path></g></g></g></svg>