<svg xmlns="http://www.w3.org/2000/svg" viewBox="0 0 195.59 264.53"><defs><style>.cls-1{fill:#cf2027;}.cls-2{fill:#3b3a4a;}</style></defs><g id="Layer_2" data-name="Layer 2"><g id="Layer_1-2" data-name="Layer 1"><path class="cls-1" d="M118.93,223.15q11.14-13.25,22.17-26.23a367.2,367.2,0,0,0,24.57-32.33,165.74,165.74,0,0,0,17.54-33.25,95.31,95.31,0,0,0,6.47-34.55,79.74,79.74,0,0,0-10-39.16,76.86,76.86,0,0,0-27.89-29q-17.92-10.87-41.93-10.9Q81.07,17.72,60.93,29T30.26,58A73.28,73.28,0,0,0,19.73,96.06a78.7,78.7,0,0,0,3.51,21.42,94,94,0,0,0,10.16,23.1A46.24,46.24,0,0,0,49.66,157l26.23-24a52.63,52.63,0,0,1-10.53-16.44A56.32,56.32,0,0,1,61.47,95a31.32,31.32,0,0,1,2.59-12.38,41.28,41.28,0,0,1,7.39-11.45A35,35,0,0,1,84,62.43a46.78,46.78,0,0,1,18.47-3.32,50.41,50.41,0,0,1,16.44,2.59,39.78,39.78,0,0,1,13.49,7.75,35.54,35.54,0,0,1,9.23,12.94,45.57,45.57,0,0,1,3.33,18.1q0,17.73-9.8,36.94T108.4,177.16Q91.4,197.65,70,219.45T25.63,264.53h170V223.15Z"></path><path class="cls-2" d="M185,255.67H0l9.16-9.31q22-22.35,42.59-43.31c14.17-14.41,27-28.55,38.18-42s19.91-26.46,26.24-38.9c6.19-12.12,9.32-23.88,9.32-34.94a41.62,41.62,0,0,0-3-16.36,31.45,31.45,0,0,0-8.09-11.35,35.41,35.41,0,0,0-12-6.88,46.32,46.32,0,0,0-15-2.35,42.54,42.54,0,0,0-16.73,3,30.84,30.84,0,0,0-11,7.57A37,37,0,0,0,53.08,71a27.18,27.18,0,0,0-2.24,10.65,52.35,52.35,0,0,0,3.55,19.93A48.82,48.82,0,0,0,64,116.66l3.11,3.27-32,29.25-2.81-1.62a50.81,50.81,0,0,1-17.83-18A99.19,99.19,0,0,1,3.92,105.41,83.21,83.21,0,0,1,.23,82.76,78,78,0,0,1,11.39,42.44C18.78,30,29.65,19.69,43.7,11.83S74.93,0,94.82,0c16.73,0,31.62,3.88,44.23,11.54A81.72,81.72,0,0,1,168.53,42.2a84.59,84.59,0,0,1,10.52,41.3,100.43,100.43,0,0,1-6.76,36.14l-1.6,4.13-8.26-3.18,1.59-4.14a91.5,91.5,0,0,0,6.17-32.95,75.75,75.75,0,0,0-9.43-37,72.91,72.91,0,0,0-26.31-27.36c-11.21-6.8-24.54-10.25-39.63-10.25-18.36,0-34.1,3.6-46.79,10.71S25.59,35.88,19,47A69.17,69.17,0,0,0,9.09,82.76,75,75,0,0,0,12.43,103a89.81,89.81,0,0,0,9.69,22,43.58,43.58,0,0,0,12,13.18l20.54-18.8A58.27,58.27,0,0,1,46.2,105,61,61,0,0,1,42,81.65a35.75,35.75,0,0,1,3-14.11,45.37,45.37,0,0,1,8.16-12.67,39.49,39.49,0,0,1,14.12-9.8,51.19,51.19,0,0,1,20.22-3.68,55.29,55.29,0,0,1,17.88,2.82,44.48,44.48,0,0,1,15,8.61,40.08,40.08,0,0,1,10.39,14.53,50.19,50.19,0,0,1,3.69,19.84c0,12.48-3.46,25.58-10.28,39-6.63,13-15.82,26.66-27.32,40.54-11.32,13.66-24.34,28-38.68,42.57q-17.94,18.27-36.92,37.55h155V214.28H94.34l6.13-7.28c8.13-9.65,15.39-18.23,22.19-26.24.44-.51.87-1,1.3-1.54l2.85-3.39,6.78,5.7-2.85,3.39-1.33,1.58c-5,5.92-10.32,12.17-16,18.92H185Z"></path></g></g></svg>