<svg xmlns="http://www.w3.org/2000/svg" viewBox="0 0 173.94 264.52"><defs><style>.cls-1{fill:#cf2027;}.cls-2{fill:#3b3a4a;}</style></defs><g id="Layer_2" data-name="Layer 2"><g id="Layer_1-2" data-name="Layer 1"><path class="cls-1" d="M167.66,144.45q-6.28-14.4-16.63-22.9a61.62,61.62,0,0,0-23.27-12,90.72,90.72,0,0,0-12.51-2.47l52-89.34h-130V59.1h68L56.82,139.65l1.11,1.11a115.79,115.79,0,0,1,12.56-3.14,93.57,93.57,0,0,1,17.37-1.29q19.58,0,30.66,11.08t11.09,30.3q0,14.4-6.28,24.56a43,43,0,0,1-16.08,15.52A43.46,43.46,0,0,1,86,223.15a51.34,51.34,0,0,1-25.3-6.66q-12-6.65-18.3-14.4l-21.8,35.47q11.46,12.19,30.11,19.58a98.6,98.6,0,0,0,36.4,7.38,92.7,92.7,0,0,0,43-10.15,80.94,80.94,0,0,0,31.77-29q12-18.84,12-45.07Q173.94,158.87,167.66,144.45Z"></path><path class="cls-2" d="M72.05,255.66A103.29,103.29,0,0,1,34,248c-13-5.13-23.65-12.09-31.71-20.67L0,224.82l26.85-43.68L30.79,186c3.81,4.71,9.53,9.19,17,13.32A47.2,47.2,0,0,0,71,205.42a39.32,39.32,0,0,0,19.11-4.81,38.88,38.88,0,0,0,14.44-14c3.72-6,5.62-13.52,5.62-22.24,0-11.69-3.21-20.58-9.79-27.16s-15.59-9.79-27.53-9.79a90.14,90.14,0,0,0-16.51,1.21,113.15,113.15,0,0,0-12.1,3l-2.56.8L36.18,127l46.15-76.8H17.75V0H159.94L107.26,90.43c2.23.43,4.44.95,6.6,1.53a66.5,66.5,0,0,1,24.93,12.87l3.42,2.82-5.63,6.84-3.42-2.81a57.7,57.7,0,0,0-21.63-11.17,87.57,87.57,0,0,0-11.9-2.34L93,97.34,144.52,8.86H26.61V41.38H98L50.2,120.9c1.44-.33,2.91-.64,4.39-.92A96.39,96.39,0,0,1,72.8,118.6c14.21,0,25.58,4.17,33.8,12.38S119,150.45,119,164.41c0,10.39-2.34,19.44-7,26.9a47.39,47.39,0,0,1-41.08,23,56,56,0,0,1-27.46-7.21,74.56,74.56,0,0,1-15.42-11L11.14,223.61c6.86,6.54,15.64,12,26.15,16.11a94.46,94.46,0,0,0,34.76,7.08,88.74,88.74,0,0,0,41-9.66,77,77,0,0,0,30.06-27.45l2.38-3.74,7.47,4.76-2.38,3.74A85.67,85.67,0,0,1,117.12,245,97.51,97.51,0,0,1,72.05,255.66Z"></path></g></g></svg>