<svg xmlns="http://www.w3.org/2000/svg" viewBox="0 0 206.39 264.53"><defs><style>.cls-1{fill:#cf2027;}.cls-2{fill:#3b3a4a;}</style></defs><g id="Layer_2" data-name="Layer 2"><g id="Layer_1-2" data-name="Layer 1"><path class="cls-1" d="M176.1,175.11V17.72h-.74L24.25,207.63H132.87v56.9H176.1V208h30.29V175.11Zm-43.23,0H87.74l45.13-58.8Z"></path><polygon class="cls-2" points="165.47 255.66 113.38 255.66 113.38 198.77 0 198.77 158.16 0 165.47 0 165.47 55.67 156.61 55.67 156.61 16.18 18.37 189.91 122.24 189.91 122.24 246.8 156.61 246.8 156.61 190.28 186.9 190.28 186.9 166.25 156.61 166.25 156.61 157.39 195.76 157.39 195.76 199.14 165.47 199.14 165.47 255.66"></polygon><path class="cls-2" d="M124.9,161.82H66.35L124.9,85.54ZM84.32,153H116V111.63Z"></path></g></g></svg>