<svg xmlns="http://www.w3.org/2000/svg" viewBox="0 0 172.25 264.52"><defs><style>.cls-1{fill:#cf2027;}.cls-2{fill:#3b3a4a;}</style></defs><g id="Layer_2" data-name="Layer 2"><g id="Layer_1-2" data-name="Layer 1"><path class="cls-1" d="M163.21,140.39a72.06,72.06,0,0,0-26.43-29.56Q119.41,99.75,94.3,99.74a91.89,91.89,0,0,0-13.12.93c-2.46.35-4.87.77-7.21,1.25V59.1h81.66V17.73H37V150h.37a110.34,110.34,0,0,1,23.46-10.71A78.6,78.6,0,0,1,84,136q14,0,24,5.9a37.53,37.53,0,0,1,15,16.26q5,10.37,5,24,0,12.59-5.36,21.81A38.24,38.24,0,0,1,108,218.35a42.38,42.38,0,0,1-21.06,5.17,60.63,60.63,0,0,1-24.2-5.36q-12.37-5.35-19.4-13.49L20.77,238.3Q31.86,249.39,50.89,257a106.49,106.49,0,0,0,39.72,7.56q23.27,0,41.74-11.08a80.67,80.67,0,0,0,29.19-30.11q10.71-19,10.71-42.67A90.34,90.34,0,0,0,163.21,140.39Z"></path><path class="cls-2" d="M75.54,255.66a111.38,111.38,0,0,1-41.35-7.88C21,242.53,10.36,235.92,2.58,228.14L0,225.56l27.8-41.48,3.8,4.41c4.21,4.88,10.2,9,17.8,12.31a56.68,56.68,0,0,0,22.45,5,38.11,38.11,0,0,0,18.89-4.61,34.09,34.09,0,0,0,12.93-12.77c3.15-5.45,4.75-12,4.75-19.58,0-8.4-1.53-15.83-4.54-22.09a32.81,32.81,0,0,0-13.23-14.37c-5.94-3.51-13.26-5.29-21.76-5.29a74.51,74.51,0,0,0-21.8,3.13,106.53,106.53,0,0,0-22.51,10.3l-1,.6h-6V0H145V50.24H63.34V83.31L65.5,83a97.46,97.46,0,0,1,13.74-1c17.52,0,32.61,4,44.87,11.78l1.57,1,3.68,2.47-4.93,7.36-3.68-2.47-1.41-.92c-10.8-6.9-24.29-10.39-40.1-10.39a88.92,88.92,0,0,0-12.49.88c-2.33.33-4.66.73-7,1.2l-5.32,1.09V41.38h81.66V8.86H26.39V129.37a105.94,105.94,0,0,1,18.12-7.63,83.5,83.5,0,0,1,24.38-3.51c10.11,0,19,2.2,26.27,6.53a42,42,0,0,1,16.7,18.14c3.6,7.47,5.42,16.19,5.42,25.94,0,9.12-2,17.2-5.94,24a42.81,42.81,0,0,1-16.27,16.06,47,47,0,0,1-23.22,5.74,65.35,65.35,0,0,1-26-5.73,62.23,62.23,0,0,1-17-10.57l-17.42,26c6.66,5.87,15.38,11,26,15.2a102.66,102.66,0,0,0,38.08,7.25c14.62,0,27.9-3.52,39.48-10.45a76.71,76.71,0,0,0,27.6-28.49l2.17-3.86,7.72,4.35-2.17,3.86a85.35,85.35,0,0,1-30.77,31.73C106.6,251.72,91.79,255.66,75.54,255.66Z"></path></g></g></svg>