<svg xmlns="http://www.w3.org/2000/svg" viewBox="0 0 644.46 430.97"><defs><style>.cls-1{fill:#e0e0e0;}.cls-2{fill:#f5f5f5;}.cls-3{fill:#fff;}.cls-4{fill:#ebebeb;}.cls-5{fill:#263238;}.cls-6{fill:#455a64;}.cls-7{fill:#ff725e;}.cls-8{fill:#efbda8;}.cls-9{opacity:0.3;}.cls-10{fill:#d1967c;}</style></defs><title>Asset 1q10</title><g id="Layer_2" data-name="Layer 2"><g id="Background_Complete" data-name="Background Complete"><polygon class="cls-1" points="434.93 324.86 444.8 330.78 434.77 336.73 424.75 342.67 424.91 330.8 425.06 318.93 434.93 324.86"></polygon><polygon class="cls-2" points="46.76 383.94 46.76 430.1 114.27 430.1 188.72 430.1 188.72 383.94 46.76 383.94"></polygon><polygon class="cls-1" points="40.8 371.04 40.8 383.94 193.69 383.94 193.69 371.04 114.27 371.04 40.8 371.04"></polygon><polygon class="cls-1" points="117.25 430.1 188.72 430.1 188.72 383.94 193.69 383.94 193.69 371.04 114.27 371.04 114.27 382.75 117.25 430.1"></polygon><rect class="cls-1" x="66.62" y="391.39" width="28.79" height="6.95"></rect><rect class="cls-3" x="62.91" y="407.02" width="36.97" height="14.67"></rect><polygon class="cls-2" points="68.6 324.94 68.6 371.1 136.11 371.1 210.56 371.1 210.56 324.94 68.6 324.94"></polygon><polygon class="cls-1" points="62.65 312.03 62.65 324.94 215.53 324.94 215.53 312.03 136.11 312.03 62.65 312.03"></polygon><polygon class="cls-1" points="139.09 371.1 210.56 371.1 210.56 324.94 215.53 324.94 215.53 312.03 136.11 312.03 136.11 323.74 139.09 371.1"></polygon><rect class="cls-1" x="88.46" y="332.38" width="28.79" height="6.95"></rect><rect class="cls-3" x="84.75" y="348.01" width="36.97" height="14.67"></rect><rect class="cls-1" x="438.96" y="157.06" width="182.91" height="113.36" rx="7.87"></rect><circle class="cls-4" cx="530.41" cy="215.28" r="13.93"></circle><path class="cls-3" d="M527.05,219.36v-8.22a.53.53,0,0,1,.78-.46l7.35,4.14a.53.53,0,0,1,0,.92l-7.35,4.08A.53.53,0,0,1,527.05,219.36Z"></path><path class="cls-3" d="M449.41,257.4v.29H448v-.23l.75-.7c.18-.18.21-.29.21-.39s-.12-.27-.35-.27a.51.51,0,0,0-.43.19l-.25-.18a.87.87,0,0,1,.71-.31c.41,0,.67.2.67.53a.73.73,0,0,1-.31.59l-.5.48Z"></path><path class="cls-3" d="M449.6,256.47a.22.22,0,0,1,.44,0,.22.22,0,1,1-.44,0Zm0,1a.22.22,0,1,1,.22.22A.22.22,0,0,1,449.6,257.49Z"></path><path class="cls-3" d="M450.9,255.82v1.87h-.34v-1.57h-.4v-.3Z"></path><path class="cls-3" d="M452.94,257.27h-.33v.42h-.34v-.42h-1V257l.92-1.21h.37l-.87,1.16h.61v-.38h.33V257h.33Z"></path><rect class="cls-3" x="455.99" y="256.47" width="141.66" height="0.75"></rect><rect class="cls-4" x="455.88" y="255.69" width="44.27" height="2"></rect><path class="cls-4" d="M501.58,256.85a2.16,2.16,0,1,1-2.16-2.16A2.16,2.16,0,0,1,501.58,256.85Z"></path><path class="cls-3" d="M601.21,256.83a.62.62,0,0,1-.68.6c-.51,0-.81-.33-.81-.93a.89.89,0,0,1,.92-1,.94.94,0,0,1,.49.12l-.13.26a.59.59,0,0,0-.35-.09c-.36,0-.58.22-.58.64h0a.64.64,0,0,1,.5-.2A.58.58,0,0,1,601.21,256.83Zm-.33,0c0-.19-.15-.32-.38-.32a.34.34,0,0,0-.37.32c0,.18.13.32.38.32S600.88,257,600.88,256.84Z"></path><path class="cls-3" d="M601.38,256.18a.22.22,0,0,1,.44,0,.22.22,0,1,1-.44,0Zm0,1a.22.22,0,1,1,.22.22A.22.22,0,0,1,601.38,257.2Z"></path><path class="cls-3" d="M602,256.47c0-.61.34-1,.78-1s.78.35.78,1-.33,1-.78,1S602,257.08,602,256.47Zm1.22,0c0-.45-.18-.66-.44-.66s-.43.21-.43.66.18.66.43.66S603.26,256.92,603.26,256.47Z"></path><path class="cls-3" d="M603.84,256.47c0-.61.33-1,.78-1s.78.35.78,1-.34,1-.78,1S603.84,257.08,603.84,256.47Zm1.21,0c0-.45-.18-.66-.43-.66s-.43.21-.43.66.17.66.43.66S605.05,256.92,605.05,256.47Z"></path><polygon class="cls-3" points="608.46 256.36 607.71 256.36 607.71 254.44 609.62 254.44 609.62 255.19 608.46 255.19 608.46 256.36"></polygon><polygon class="cls-3" points="609.63 258.84 607.71 258.84 607.71 256.93 608.46 256.93 608.46 258.09 609.63 258.09 609.63 258.84"></polygon><polygon class="cls-3" points="612.64 258.84 610.73 258.84 610.73 258.09 611.89 258.09 611.89 256.92 612.64 256.92 612.64 258.84"></polygon><polygon class="cls-3" points="612.65 256.35 611.9 256.35 611.9 255.19 610.73 255.19 610.73 254.44 612.65 254.44 612.65 256.35"></polygon><path class="cls-3" d="M588.49,168.08a29.85,29.85,0,0,1,3.85-.21h.21v.21c0,1.46,0,3.11.05,4.9v.63l-.45-.45-.52-.51-1.3-1.32h.35l-2.05,1.8-.39.35V173c0-1.52.07-2.77.12-3.62a5.41,5.41,0,0,1,.11-1.28,10.33,10.33,0,0,1,.11,1.42c0,.87.09,2.06.11,3.48l-.37-.17,2-1.85.18-.16.17.17c.42.43.86.86,1.31,1.31.18.17.35.35.51.51l-.44.19c0-1.79,0-3.44,0-4.9l.21.21A37.69,37.69,0,0,1,588.49,168.08Z"></path><path class="cls-3" d="M602.66,168.69a12.25,12.25,0,0,1-.94,1.19c-.63.79-1.58,2-2.73,3.26l-.43.49V173c0-.77,0-1.59,0-2.43v-.24l.08.19-1.7-1.66-.45-.44h.62c1.69,0,3.15.11,4.11.17a13.76,13.76,0,0,1,1.46.11c-.06,0-.69.05-1.69.09s-2.33.12-3.88.13l.17-.43,1.72,1.64.08.08v.35c0,.84,0,1.66,0,2.43l-.43-.17c1.08-1.18,2.06-2.15,2.79-2.89S602.6,168.72,602.66,168.69Z"></path><path class="cls-3" d="M602.66,168.69c.05.13-.77.6-1.83,1.05a4.4,4.4,0,0,1-2,.57c0-.13.76-.6,1.83-1.05A4.4,4.4,0,0,1,602.66,168.69Z"></path><path class="cls-3" d="M609.56,168.08s.25-.09.69,0a2.7,2.7,0,0,1,1.63,1,2.87,2.87,0,0,1,.47,2.77,3,3,0,0,1-5.58,0,2.9,2.9,0,0,1,.48-2.77,2.71,2.71,0,0,1,1.62-1c.45-.08.69,0,.69,0s-.24.06-.64.18a2.82,2.82,0,0,0-1.38,1,2.55,2.55,0,0,0-.31,2.39,2.49,2.49,0,0,0,4.67,0,2.55,2.55,0,0,0-.32-2.39,2.74,2.74,0,0,0-1.38-1C609.81,168.14,609.56,168.13,609.56,168.08Z"></path><path class="cls-3" d="M610.49,172c-.1.1-.7-.33-1.34-1l-.08-.07v-.13c0-.91.12-1.66.26-1.66s.26.75.26,1.66v0l-.08-.18C610.16,171.27,610.59,171.87,610.49,172Z"></path><path class="cls-3" d="M543.31,171.79c0,.15-18.8.26-42,.26s-42-.11-42-.26,18.79-.26,42-.26S543.31,171.65,543.31,171.79Z"></path><path class="cls-3" d="M455.38,171.79a3.31,3.31,0,1,1-3.31-3.31A3.31,3.31,0,0,1,455.38,171.79Z"></path></g><g id="Plant"><path class="cls-5" d="M535.81,340.2c-.09.12-.88-.35-1.75-1.05s-1.5-1.36-1.41-1.47.88.35,1.75,1.05S535.9,340.08,535.81,340.2Z"></path><path class="cls-6" d="M559.58,304.67c.14-3.32.24-6.72-.81-9.87s-3.48-6.06-6.73-6.73c-3.72-.77-7.52,1.58-9.6,4.75s-2.8,7-3.41,10.76a379.66,379.66,0,0,0-4.66,78.11l15.19,2.13C556.24,356.55,558.37,332.72,559.58,304.67Z"></path><path class="cls-5" d="M549.93,288a2.31,2.31,0,0,1-.07.25c-.07.18-.15.41-.25.68l-1,2.63c-.21.57-.49,1.19-.72,1.9s-.47,1.48-.73,2.3-.55,1.71-.86,2.64-.51,2-.78,3a130.15,130.15,0,0,0-2.93,15c-.83,5.72-1.37,12.05-1.79,18.7-.78,13.31-.9,25.39-1.24,34.13-.16,4.37-.31,7.91-.48,10.35-.08,1.18-.14,2.12-.19,2.81,0,.29,0,.53-.06.73a1.08,1.08,0,0,1,0,.25.81.81,0,0,1,0-.26c0-.19,0-.43,0-.73,0-.69,0-1.63.09-2.81.1-2.44.19-6,.31-10.35.24-8.74.3-20.82,1.08-34.16.42-6.66,1-13,1.83-18.73a125.66,125.66,0,0,1,3.06-15.06l.82-3,.9-2.64.78-2.29c.24-.7.54-1.32.77-1.89.46-1.09.83-2,1.11-2.59l.3-.67A.85.85,0,0,1,549.93,288Z"></path><path class="cls-5" d="M551.33,288a10.75,10.75,0,0,1,1.86,3.15,23.12,23.12,0,0,1,1.39,9.82c-.41,8.4-1.16,20-2.16,32.74s-2.12,24.33-3,32.68c-.45,4.17-.84,7.55-1.13,9.88-.14,1.13-.26,2-.34,2.68,0,.28-.08.51-.1.7a.79.79,0,0,1-.06.23.73.73,0,0,1,0-.24c0-.19,0-.42.05-.7.06-.66.14-1.56.24-2.69.23-2.39.56-5.76.95-9.9.8-8.36,1.86-19.91,2.86-32.68s1.81-24.34,2.31-32.71a23.61,23.61,0,0,0-1.2-9.74A19.65,19.65,0,0,0,551.33,288Z"></path><path class="cls-5" d="M561.87,327.29a8.23,8.23,0,0,1-2.88-.75,8.4,8.4,0,0,1-2.7-1.25,16.1,16.1,0,0,1,5.58,2Z"></path><path class="cls-5" d="M563.7,311.8a9.3,9.3,0,0,1-2.74,1.53,9.09,9.09,0,0,1-3,1,9.25,9.25,0,0,1,2.74-1.52A9.58,9.58,0,0,1,563.7,311.8Z"></path><path class="cls-5" d="M562.75,299.16a9.33,9.33,0,0,1-4.49-.31,9.67,9.67,0,0,1,4.49.31Z"></path><path class="cls-5" d="M547.07,291.06c-.13.08-.79-.74-1.49-1.85s-1.15-2.06-1-2.14.79.75,1.48,1.85S547.2,291,547.07,291.06Z"></path><path class="cls-5" d="M541.89,298.71a8.74,8.74,0,0,1-4.31-.1,4.5,4.5,0,0,1,2.16-.22A4.44,4.44,0,0,1,541.89,298.71Z"></path><path class="cls-5" d="M538.17,314a5.27,5.27,0,0,1-2.27-.62c-1.2-.49-2.13-1-2.07-1.13a5.27,5.27,0,0,1,2.27.62C537.3,313.36,538.22,313.86,538.17,314Z"></path><path class="cls-5" d="M537.77,326.86c0,.15-.83.45-1.93.68s-2,.3-2.05.15.84-.45,1.94-.68S537.74,326.71,537.77,326.86Z"></path><path class="cls-5" d="M536,347.89c0,.15-.89.44-2,.65s-2.12.26-2.15.11.89-.44,2-.65A4.68,4.68,0,0,1,536,347.89Z"></path><path class="cls-5" d="M534.86,359.51c.07.13-.7.67-1.71,1.21s-1.9.86-2,.73.7-.67,1.71-1.21S534.79,359.37,534.86,359.51Z"></path><path class="cls-5" d="M544.34,372.69c-.13.07-.8-.85-1.49-2.06a6,6,0,0,1-1-2.33c.13-.08.8.85,1.49,2.06A6.14,6.14,0,0,1,544.34,372.69Z"></path><path class="cls-5" d="M547.08,350.78c.1.11-.64,1-1.67,2s-1.93,1.73-2,1.62.64-1,1.66-2S547,350.68,547.08,350.78Z"></path><path class="cls-5" d="M546.47,339.29c-.11.1-.8-.46-1.54-1.26s-1.25-1.53-1.14-1.64.8.47,1.54,1.27S546.58,339.19,546.47,339.29Z"></path><path class="cls-5" d="M548.35,324.61c.11.1-.51,1-1.38,1.95s-1.68,1.69-1.79,1.59.51-1,1.38-1.95S548.24,324.51,548.35,324.61Z"></path><path class="cls-5" d="M549.41,314c-.1.11-1-.57-1.93-1.52s-1.66-1.8-1.55-1.9,1,.57,1.93,1.52S549.52,313.85,549.41,314Z"></path><path class="cls-5" d="M551.49,299.55a5.21,5.21,0,0,1-1,2.15c-.66,1.12-1.31,2-1.44,1.88a5.56,5.56,0,0,1,1-2.16C550.72,300.31,551.36,299.47,551.49,299.55Z"></path><path class="cls-5" d="M555.4,286.2c.14.07-.25,1-.85,2.16s-1.21,2-1.34,1.9a5.12,5.12,0,0,1,.86-2.16C554.67,287,555.27,286.13,555.4,286.2Z"></path><path class="cls-5" d="M559.84,292.26c.07.14-.54.56-1.35.95s-1.53.6-1.6.46.55-.56,1.36-.95S559.78,292.13,559.84,292.26Z"></path><path class="cls-5" d="M560,340.2a6.17,6.17,0,0,1-3-.72,6.24,6.24,0,0,1-2.58-1.64,14,14,0,0,1,2.79,1.14A14.68,14.68,0,0,1,560,340.2Z"></path><path class="cls-5" d="M558.14,350.36a4.71,4.71,0,0,1-2,.67,4.57,4.57,0,0,1-2.14.14c0-.15.88-.45,2-.67S558.11,350.21,558.14,350.36Z"></path><path class="cls-5" d="M555.91,367.77a8.56,8.56,0,0,1-3.77-4.75A17.84,17.84,0,0,1,554,365.4,18.4,18.4,0,0,1,555.91,367.77Z"></path><path class="cls-5" d="M531.48,375.73c-.1-.11.52-.8,1.38-1.54s1.63-1.23,1.73-1.12-.52.8-1.38,1.54S531.58,375.84,531.48,375.73Z"></path><path class="cls-6" d="M524.46,337.73c-1-3.09-2.85-6.69-6.09-6.73a5.39,5.39,0,0,0-4.56,3.05,11.33,11.33,0,0,0-1.23,5.59,145.54,145.54,0,0,0,7,40.47h11.86A141,141,0,0,0,524.46,337.73Z"></path><path class="cls-6" d="M503,318.29c-1.65-6.63-6.6-10.21-12.35-10.55-5.24.92-7.28,6.08-7.9,11.37s1,10.55,2.64,15.62q7.82,24.43,15.62,48.85L515.77,382C511.1,360.15,508.41,339.93,503,318.29Z"></path><path class="cls-5" d="M518.37,331a12.85,12.85,0,0,0-1,1.67,11.09,11.09,0,0,0-.56,5.25c.23,2.25.49,5,.87,7.95s.92,6.24,1.59,9.65c1.34,6.81,2.85,12.93,3.81,17.39.49,2.23.85,4,1.08,5.29.1.58.19,1.05.25,1.45a1.79,1.79,0,0,1,.05.51,1.88,1.88,0,0,1-.15-.49c-.1-.39-.21-.86-.35-1.43-.32-1.32-.74-3.09-1.25-5.25-1.06-4.43-2.63-10.53-4-17.37-.67-3.41-1.2-6.69-1.56-9.69-.19-1.5-.31-2.93-.43-4.27s-.26-2.57-.32-3.71a10.7,10.7,0,0,1,.75-5.36A4.59,4.59,0,0,1,518.37,331Z"></path><path class="cls-5" d="M490.87,307.32a20.09,20.09,0,0,0-1.79,2.4,16.87,16.87,0,0,0-2.24,7.72,35.69,35.69,0,0,0,1.82,11.88l4.21,14.28c2.95,10.11,5.61,19.27,7.56,26l2.23,7.89c.24.89.43,1.61.58,2.15a4.45,4.45,0,0,1,.16.76,4.62,4.62,0,0,1-.27-.73l-.67-2.12c-.59-1.91-1.4-4.57-2.4-7.84-2-6.68-4.7-15.82-7.71-25.92-1.48-5.07-2.88-9.89-4.17-14.29s-2-8.54-1.73-12a16.64,16.64,0,0,1,2.45-7.81A9.12,9.12,0,0,1,490.87,307.32Z"></path><path class="cls-5" d="M512.55,380.39a4,4,0,0,1-.33-.71c-.2-.47-.51-1.16-.84-2.07-.71-1.82-1.61-4.49-2.54-7.84s-1.86-7.4-2.75-11.9-1.8-9.48-2.78-14.69-2.17-10.11-3.5-14.5a81.66,81.66,0,0,0-4.3-11.37,60.19,60.19,0,0,0-4-7.17c-.51-.83-1-1.42-1.24-1.85a5.11,5.11,0,0,1-.42-.67,4,4,0,0,1,.5.6c.31.41.8,1,1.34,1.8a54.25,54.25,0,0,1,4.14,7.13,77.36,77.36,0,0,1,4.44,11.39,145.55,145.55,0,0,1,3.55,14.54c1,5.21,1.9,10.17,2.74,14.69s1.74,8.55,2.63,11.9,1.72,6,2.36,7.86c.31.93.59,1.63.75,2.11A3.81,3.81,0,0,1,512.55,380.39Z"></path><path class="cls-5" d="M485.66,332.3c0,.14-.77.46-1.8.71s-1.88.33-1.92.19.77-.47,1.8-.72S485.62,332.15,485.66,332.3Z"></path><path class="cls-5" d="M484.09,322.22a6.92,6.92,0,0,1-2.49.27,7.44,7.44,0,0,1-2.5-.07,5,5,0,0,1,2.48-.47A5.15,5.15,0,0,1,484.09,322.22Z"></path><path class="cls-5" d="M485.76,313c-.1.12-.9-.4-1.8-1.16s-1.53-1.46-1.43-1.58.89.41,1.79,1.17S485.85,312.91,485.76,313Z"></path><path class="cls-5" d="M490.26,304.51c.15,0,.11.75.08,1.62s0,1.58-.18,1.61-.39-.7-.36-1.63S490.12,304.47,490.26,304.51Z"></path><path class="cls-5" d="M499.46,308.52c.12.09-.24.81-.81,1.62s-1.12,1.4-1.25,1.32.24-.82.81-1.63S499.34,308.43,499.46,308.52Z"></path><path class="cls-5" d="M505.43,318.89c.06.14-.71.58-1.71,1s-1.85.63-1.91.49.71-.58,1.71-1S505.37,318.75,505.43,318.89Z"></path><path class="cls-5" d="M509.05,329.56a6.83,6.83,0,0,1-4.89,1.11,9.77,9.77,0,0,1,2.43-.61A10,10,0,0,1,509.05,329.56Z"></path><path class="cls-5" d="M492.42,326.53c-.14,0,0-.78.23-1.64s.61-1.53.75-1.49,0,.78-.23,1.65S492.56,326.58,492.42,326.53Z"></path><path class="cls-5" d="M494.74,339.93a5,5,0,0,1,.67-2.22c.5-1.16,1-2.06,1.16-2a5.11,5.11,0,0,1-.66,2.22C495.4,339.09,494.88,340,494.74,339.93Z"></path><path class="cls-5" d="M489,343.6c-.06.14-1-.12-2.13-.47s-2-.68-2-.83a4.11,4.11,0,0,1,2.18.31C488.2,343,489.07,343.46,489,343.6Z"></path><path class="cls-5" d="M492.31,354.52c.09.13-.54.73-1.41,1.34s-1.64,1-1.73.9.55-.72,1.42-1.34S492.23,354.4,492.31,354.52Z"></path><path class="cls-5" d="M495,365.41c0,.15-.74.47-1.74.71s-1.84.32-1.88.18.75-.47,1.75-.71S494.93,365.27,495,365.41Z"></path><path class="cls-5" d="M509.34,338.66c.08.13-.59.66-1.56,1s-1.83.41-1.86.26.74-.42,1.66-.77S509.27,338.53,509.34,338.66Z"></path><path class="cls-5" d="M511.4,355.61c-.07.13-.86-.11-1.78-.54s-1.61-.89-1.55-1,.86.11,1.78.54S511.46,355.47,511.4,355.61Z"></path><path class="cls-5" d="M515,367.73a11,11,0,0,1-4.5-1.76,5.54,5.54,0,0,1,2.35.63C514.12,367.08,515.08,367.59,515,367.73Z"></path><path class="cls-5" d="M495.54,377.23c-.07-.13.9-.79,2-1.67s2-1.66,2.1-1.56-.6,1.08-1.77,2A4.87,4.87,0,0,1,495.54,377.23Z"></path><path class="cls-5" d="M505.13,371.07c-.15,0-.36-.8-.73-1.75s-.76-1.69-.63-1.78.74.56,1.14,1.59S505.28,371.05,505.13,371.07Z"></path><path class="cls-5" d="M502.59,356.48c-.09.12-.71-.17-1.38-.66s-1.16-1-1.07-1.1.71.18,1.38.66S502.68,356.36,502.59,356.48Z"></path><path class="cls-5" d="M524.94,333.63c.09.12-.52.72-1.35,1.33s-1.58,1-1.67.89.52-.71,1.35-1.33S524.85,333.51,524.94,333.63Z"></path><path class="cls-5" d="M528.31,342.84a3.31,3.31,0,0,1-2.1.21c-1.17-.12-2.05-.52-2-.66a6.51,6.51,0,0,1,2.07.12C527.38,342.64,528.3,342.68,528.31,342.84Z"></path><path class="cls-5" d="M513.83,344.9c0,.15-.84.46-2,.53s-2-.11-2-.26.91-.2,2-.28S513.8,344.75,513.83,344.9Z"></path><path class="cls-5" d="M515.07,336.2c0,.14-.89.16-1.86-.28s-1.53-1.13-1.42-1.23.77.33,1.65.73S515.09,336,515.07,336.2Z"></path><path class="cls-5" d="M529.55,352.72c-.08.13-1-.3-2-1s-1.81-1.28-1.73-1.41,1,.3,2,.95S529.63,352.6,529.55,352.72Z"></path><rect class="cls-7" x="487.63" y="378.56" width="77.24" height="13.69"></rect><polygon class="cls-7" points="493.4 389.54 502.8 430.45 548.83 430.45 559.11 389.54 493.4 389.54"></polygon><path class="cls-5" d="M564.83,392.27c0,.15-17.42.27-38.91.27s-38.91-.12-38.91-.27,17.42-.27,38.91-.27S564.83,392.12,564.83,392.27Z"></path><path class="cls-5" d="M521.88,345.2c-.13.08-.66-.53-1.18-1.37s-.85-1.58-.72-1.66.65.53,1.18,1.37S522,345.12,521.88,345.2Z"></path><path class="cls-5" d="M521.91,356.22c-.15-.05,0-1,.4-2.08s.78-2,.92-1.91,0,1-.41,2.08S522.05,356.26,521.91,356.22Z"></path><path class="cls-5" d="M525.68,367.78c-.14.06-.72-.86-1.29-2.06a5.53,5.53,0,0,1-.8-2.3c.13-.07.71.86,1.29,2.06A5.9,5.9,0,0,1,525.68,367.78Z"></path><path class="cls-5" d="M517.52,377.08c-.12-.09.35-.81,1-1.6s1.32-1.34,1.44-1.24-.35.81-1,1.6S517.63,377.18,517.52,377.08Z"></path><path class="cls-5" d="M515.81,360.19c0,.15-.77.14-1.66,0s-1.6-.4-1.57-.55.77-.14,1.66,0S515.83,360,515.81,360.19Z"></path></g><g id="Character"><path class="cls-5" d="M345.69,152.81l-53-19c3.46,41.35,6.84,83.71-4.16,123.72-1.19,4.32-2.23,9.75,1.21,12.63,2.06,1.72,5,1.78,7.68,1.69q8.25-.25,16.45-1.2c5.82-.67,12-1.81,16.17-6,3.48-3.47,4.88-8.46,6.05-13.23A347.23,347.23,0,0,0,345.69,152.81Z"></path><path class="cls-7" d="M258.93,323.46l6.27-8.24,4.21-22L279,239.66s4.22-20.15,17.2-25.92l2.76,53.51-26.5,67.23Z"></path><path class="cls-7" d="M315.88,199.2l-7.81,9.25-11.91,5.29S270,263.83,269.25,264.3s-4.92,14.74-2.58,26.91,4,28.09,3.75,39.56-15.22,49.15-16.15,57.81-4,42.13-4,42.13l132.47-1a245,245,0,0,0-4.91-25s-.47-33.23-5.39-39.55c0,0,3.75-8.66,3.28-13.58s19.66-31.13,23.64-40.26,19.66-30,19.9-44.94-2.11-27.61-9.6-37.91S388.61,211.17,383,207.42l-11-14Z"></path><path class="cls-5" d="M268.65,430.71s0-.14,0-.4,0-.68,0-1.17c.05-1.06.11-2.58.2-4.51.16-3.95.4-9.61.69-16.59.12-3.5.24-7.33.29-11.45,0-2.06,0-4.19,0-6.37a28.64,28.64,0,0,1,.68-6.78,106.16,106.16,0,0,1,4.32-13.9,65.85,65.85,0,0,0,2.29-7.3,30.3,30.3,0,0,0,.51-3.87c.14-1.31.27-2.63.4-4,.53-5.32,1.06-10.52,1.56-15.53.25-2.51.5-5,.74-7.39s.56-4.77.63-7.09A180.39,180.39,0,0,1,284.3,300c1.35-6.88,2.59-12.41,3.39-16.25.39-1.9.7-3.38.92-4.42l.24-1.14a1.86,1.86,0,0,1,.11-.39,2.49,2.49,0,0,1,0,.4c-.05.28-.12.66-.2,1.15-.19,1-.47,2.54-.83,4.44-.73,3.85-1.92,9.4-3.22,16.28a185.19,185.19,0,0,0-3.22,24.37c-.07,2.31-.4,4.67-.61,7.09s-.48,4.88-.73,7.39l-1.55,15.53c-.13,1.33-.27,2.66-.4,4a31.11,31.11,0,0,1-.52,3.93,67.9,67.9,0,0,1-2.32,7.36A106.21,106.21,0,0,0,271,383.54a28.35,28.35,0,0,0-.69,6.66c.06,2.2,0,4.33,0,6.4-.07,4.12-.22,8-.36,11.46-.3,7-.62,12.67-.86,16.58-.13,1.93-.22,3.44-.29,4.5,0,.5-.07.88-.1,1.17A1.73,1.73,0,0,1,268.65,430.71Z"></path><path class="cls-8" d="M289.27,277.37c0-1.06,4.7-19.22,14.53-34.38s12-28.41,12-28.41l.15-19.58.84,2.52,49.81-7.22,1.5,7.19-33.27,30.12s-15.4,3-16,3.41S289.27,277.37,289.27,277.37Z"></path><path class="cls-5" d="M383,207.42a6.15,6.15,0,0,1-.44.7c-.3.44-.75,1.1-1.35,1.93-1.18,1.67-2.93,4.06-5.17,7s-4.94,6.31-7.85,10.16c-1.46,1.92-3,4-4.5,6.1a15,15,0,0,1-1.25,1.59,3,3,0,0,1-1.92,1,3.76,3.76,0,0,1-2.09-.6c-.61-.35-1.18-.74-1.77-1.11l-6.85-4.41c-1.11-.7-2.2-1.42-3.26-2.08a5.47,5.47,0,0,0-3.35-1,6.66,6.66,0,0,0-3.05,1.43c-.91.68-1.8,1.38-2.73,1.94a19.29,19.29,0,0,1-5.55,2.32,19.66,19.66,0,0,1-8.66.2,12.68,12.68,0,0,1-1.32-.33,8.38,8.38,0,0,1-.95-.3,5.37,5.37,0,0,1-.77-.31,5,5,0,0,1,.8.21,7.67,7.67,0,0,0,1,.25,11.16,11.16,0,0,0,1.32.28,20.14,20.14,0,0,0,8.52-.36,19.1,19.1,0,0,0,5.42-2.32c.91-.56,1.76-1.24,2.69-1.95a7.13,7.13,0,0,1,3.27-1.53,5.81,5.81,0,0,1,3.65,1c1.1.66,2.17,1.37,3.28,2.07l6.86,4.4c1.18.7,2.31,1.7,3.54,1.63a2.52,2.52,0,0,0,1.59-.84,13.07,13.07,0,0,0,1.2-1.53c1.54-2.14,3.06-4.17,4.53-6.09,2.95-3.84,5.69-7.23,7.95-10.1s4.07-5.22,5.3-6.85c.6-.78,1.07-1.41,1.42-1.87A4.22,4.22,0,0,1,383,207.42Z"></path><path class="cls-5" d="M308.07,264.55a10.76,10.76,0,0,1,.74-1.41c.51-.9,1.27-2.17,2.25-3.73,1.94-3.13,4.78-7.35,8.16-11.83s6.69-8.35,9.16-11.07c1.24-1.37,2.26-2.45,3-3.18a9.5,9.5,0,0,1,1.16-1.1,9.8,9.8,0,0,1-1,1.24l-2.86,3.28c-2.4,2.78-5.64,6.68-9,11.14s-6.25,8.65-8.27,11.71L309,263.24A8.43,8.43,0,0,1,308.07,264.55Z"></path><path class="cls-5" d="M312.37,268.4s.07,0,.2,0l.56.11,2.22.48c1.93.41,4.77,1,8.4,1.76,1.81.36,3.82.76,6,1.13,1.1.19,2.24.36,3.44.54s2.42.48,3.67.8c2.5.65,5.12,1.48,7.85,2.44,1.36.48,2.76,1,4.17,1.54.71.28,1.43.57,2.14.87l1.08.48.54.26.27.15a.55.55,0,0,1,.14.09l.08.05a.39.39,0,0,1,.12.23v.07l-10.44,33.34v0a19.15,19.15,0,0,1-2,3,14.59,14.59,0,0,1-2.63,2.7,5.31,5.31,0,0,1-1.22.66l-1.24.42c-.83.27-1.65.55-2.46.83l-4.86,1.63-9.37,3.16-.14.05-.11-.1L309,316.1l-2.33-2.16a27.22,27.22,0,0,1-2.23-2.2,5.56,5.56,0,0,1-1.33-2.81,10.09,10.09,0,0,1,.07-3c1.33-7.66,2.85-14.37,4.22-19.93s2.63-10,3.52-13c.45-1.48.81-2.63,1.06-3.44l.29-.89a2.19,2.19,0,0,1,.11-.29,1.05,1.05,0,0,1-.07.31c-.06.22-.14.52-.25.89-.23.82-.55,2-1,3.47-.84,3-2.05,7.43-3.38,13s-2.8,12.3-4.1,19.93a9.53,9.53,0,0,0-.05,2.87,5.16,5.16,0,0,0,1.23,2.59,28.06,28.06,0,0,0,2.2,2.15l2.34,2.15,9.82,9.07-.25-.05,9.37-3.17,4.85-1.64,2.46-.83,1.24-.41a4.74,4.74,0,0,0,1.08-.59,13.55,13.55,0,0,0,2.53-2.6,19.07,19.07,0,0,0,1.91-3v0l10.5-33.32.2.07a133.42,133.42,0,0,0-16.25-5.75c-1.24-.33-2.45-.61-3.63-.82s-2.34-.37-3.43-.56c-2.2-.4-4.21-.81-6-1.19-3.62-.77-6.45-1.43-8.37-1.89l-2.2-.54-.56-.15A.94.94,0,0,1,312.37,268.4Z"></path><g class="cls-9"><path d="M313.47,383.89c-11.59-1.75-27.67-6.59-40.87-9.34-4.72-1-8.79-2.12-13.51-3.11l-.84,2.62a158.5,158.5,0,0,1,38.49,13.73c7.33,3.75,14.58,8.13,22.73,9.33,9.11,1.33,18.26-1.47,27-4.24,4.95-1.56,10.14-3.27,13.67-7.08,2.49-2.68,3.92-6.16,5.22-9.58q5.19-13.58,9.06-27.6C358.73,366.26,336.84,387.42,313.47,383.89Z"></path></g><path class="cls-7" d="M368.06,269.91l-33.27,61.2s-7.73,1.56-7.73,9.73c0,0-2.68-2.15-6.59.17-2.51,1.49-9.59,3.48-13.49,5.57a4.66,4.66,0,0,0-2.3,5.36L315,389.47s12.55,0,13.67-3.12l17.2-5.38S357,378,361.27,370.63,391.21,325,391.21,325"></path><path class="cls-5" d="M391.21,325l-.23.38-.72,1.1c-.64,1-1.58,2.41-2.79,4.25L377,346.63l-7.34,11.2c-2.63,4.07-5.49,8.43-8.35,13.16a19.57,19.57,0,0,1-6.11,6,35.67,35.67,0,0,1-8.14,3.87l-18.3,5.73.16-.15a2.73,2.73,0,0,1-1.31,1.33,8.65,8.65,0,0,1-1.67.69,24.74,24.74,0,0,1-3.54.75,59.77,59.77,0,0,1-7.38.51h-.19l-.06-.19c-1.87-6.81-3.83-13.92-5.83-21.17q-1.57-5.73-3.11-11.31c-.5-1.88-1.05-3.68-1.5-5.59a4.94,4.94,0,0,1,2.46-5,98.24,98.24,0,0,1,10.28-4.15c.84-.32,1.67-.66,2.47-1a20.28,20.28,0,0,1,2.43-1.18,5.84,5.84,0,0,1,5.26.6l-.39.19a9.9,9.9,0,0,1,2.23-6.49,10.9,10.9,0,0,1,5.69-3.46l-.15.11,24.15-44.22,6.85-12.47,1.82-3.28.48-.84.17-.28a2.72,2.72,0,0,1-.14.3l-.44.86c-.41.76-1,1.87-1.76,3.31L359,286.91l-24,44.31,0,.09-.11,0a10.44,10.44,0,0,0-5.42,3.31,9.45,9.45,0,0,0-2.11,6.19v.46l-.39-.27a5.4,5.4,0,0,0-4.8-.51,20,20,0,0,0-2.38,1.16c-.82.39-1.66.72-2.5,1.05A102.28,102.28,0,0,0,307,346.85a4.42,4.42,0,0,0-2.2,4.53c.43,1.8,1,3.68,1.49,5.53,1,3.72,2.07,7.5,3.12,11.31,2,7.26,3.95,14.36,5.82,21.18l-.25-.19a58.64,58.64,0,0,0,7.31-.51,23.07,23.07,0,0,0,3.46-.72,8.43,8.43,0,0,0,1.58-.64,2.33,2.33,0,0,0,1.08-1.07l.05-.12.11,0,18.3-5.71a35,35,0,0,0,8-3.8,18.9,18.9,0,0,0,6-5.84c2.88-4.74,5.76-9.09,8.41-13.15l7.39-11.16,10.61-15.81,2.86-4.2.75-1.08C391.11,325.13,391.21,325,391.21,325Z"></path><path class="cls-3" d="M373.19,350.59A2.91,2.91,0,0,1,373,350c-.11-.45-.26-1-.44-1.71L371,342c-1.31-5.32-3.17-12.66-5.35-20.73s-4.28-15.34-5.83-20.6c-.76-2.57-1.38-4.69-1.83-6.22-.2-.69-.36-1.26-.48-1.7a2.13,2.13,0,0,1-.13-.6,3.73,3.73,0,0,1,.23.57l.57,1.67c.5,1.45,1.18,3.56,2,6.18,1.63,5.23,3.79,12.49,6,20.57s4,15.43,5.2,20.77c.61,2.68,1.08,4.84,1.39,6.34.14.71.26,1.29.35,1.74A2.47,2.47,0,0,1,373.19,350.59Z"></path><path class="cls-3" d="M361.06,369.72c-.14,0-2.92-14.47-6.21-32.38s-5.83-32.45-5.69-32.47,2.92,14.47,6.2,32.38S361.2,369.69,361.06,369.72Z"></path><path class="cls-3" d="M306.28,284.78c.08.12-4.79,3.58-10.89,7.72s-11.1,7.41-11.18,7.29,4.79-3.57,10.89-7.72S306.2,284.66,306.28,284.78Z"></path><path class="cls-3" d="M303,297.84s-.23.3-.72.76-1.2,1.12-2.1,1.91c-1.79,1.59-4.32,3.73-7.18,6s-5.52,4.25-7.47,5.65c-1,.69-1.77,1.24-2.34,1.61a4,4,0,0,1-.9.53,4.17,4.17,0,0,1,.79-.69c.61-.49,1.36-1.07,2.23-1.75,1.89-1.47,4.51-3.49,7.37-5.76s5.41-4.37,7.27-5.88l2.2-1.78A4.11,4.11,0,0,1,303,297.84Z"></path><path class="cls-3" d="M281.3,299.26c-.11.08-3.59-4.48-7.77-10.2s-7.46-10.42-7.35-10.5,3.6,4.48,7.77,10.19S281.42,299.17,281.3,299.26Z"></path><path class="cls-3" d="M279.56,316.78a9.17,9.17,0,0,1-1.78-1.53c-1-1-2.42-2.47-3.84-4.15s-2.63-3.3-3.45-4.49a10.28,10.28,0,0,1-1.22-2,12.08,12.08,0,0,1,1.51,1.79c.9,1.13,2.14,2.69,3.55,4.37s2.75,3.16,3.72,4.23A12.67,12.67,0,0,1,279.56,316.78Z"></path><path class="cls-3" d="M370.51,222.91a18.86,18.86,0,0,1-2.46-1.66l-5.78-4.18c-2.25-1.65-4.27-3.18-5.7-4.32a15.69,15.69,0,0,1-2.23-1.95,18.45,18.45,0,0,1,2.45,1.66l5.79,4.19c2.25,1.65,4.26,3.17,5.69,4.31A16.23,16.23,0,0,1,370.51,222.91Z"></path><path class="cls-3" d="M375.07,216.6a79,79,0,0,1-7.23-5.66,80.68,80.68,0,0,1-6.89-6.05,78.44,78.44,0,0,1,7.22,5.65A83,83,0,0,1,375.07,216.6Z"></path><path class="cls-3" d="M327,280c.14,0-1.64,10-4,22.18s-4.35,22.12-4.49,22.09,1.64-10,4-22.19S326.88,280,327,280Z"></path><path class="cls-5" d="M352.34,354.47a3.12,3.12,0,0,1-.87-.41,26,26,0,0,1-2.23-1.35,42.74,42.74,0,0,1-6.66-5.44,43.35,43.35,0,0,1-5.45-6.66c-.6-.92-1.06-1.69-1.35-2.23a3.75,3.75,0,0,1-.41-.87c.08-.05.79,1.11,2.06,2.89a54.45,54.45,0,0,0,5.52,6.5,53.47,53.47,0,0,0,6.5,5.51C351.22,353.69,352.38,354.4,352.34,354.47Z"></path><path class="cls-5" d="M353.43,335.27a11.27,11.27,0,0,1-2.84.52,34,34,0,0,1-13.78-1.46,11.94,11.94,0,0,1-2.67-1.1,23.89,23.89,0,0,1,2.77.74,41.78,41.78,0,0,0,13.65,1.45A27.85,27.85,0,0,1,353.43,335.27Z"></path><path class="cls-5" d="M281.92,240.21s0,.08-.07.24l-.26.68c-.23.6-.61,1.46-1.11,2.57-1,2.21-2.74,5.29-5,9a81.69,81.69,0,0,0-6.88,13.54l-.37,1c-.1.34-.19.69-.29,1-.19.71-.39,1.42-.59,2.14a16.18,16.18,0,0,0-.46,2.22c-.13.75-.26,1.51-.38,2.27-.19,1.54-.28,3.13-.37,4.73v2.42c0,.82,0,1.64.08,2.46A155.91,155.91,0,0,0,268.83,303a131.76,131.76,0,0,1,2.06,15.13c.2,2.17.1,4.15.13,5.87-.13,1.73-.21,3.22-.37,4.42s-.37,2.09-.49,2.76l-.14.72a.81.81,0,0,1-.06.24.69.69,0,0,1,0-.25c0-.2.06-.43.09-.72.1-.68.23-1.6.39-2.77s.18-2.69.28-4.4c-.06-1.72,0-3.69-.21-5.84a136.32,136.32,0,0,0-2.16-15.08,150.73,150.73,0,0,1-2.61-18.52c-.07-.83-.09-1.66-.08-2.48v-2.45c.09-1.62.19-3.22.38-4.77l.39-2.31a15.39,15.39,0,0,1,.48-2.24c.2-.72.4-1.45.6-2.16l.3-1.06c.13-.34.25-.68.37-1a79.83,79.83,0,0,1,7-13.57c2.26-3.71,4-6.76,5.08-8.93.54-1.09.95-1.94,1.2-2.52l.31-.66A1.53,1.53,0,0,1,281.92,240.21Z"></path><path class="cls-5" d="M315.88,199.2s0,.08-.12.21l-.4.59c-.36.51-.93,1.24-1.68,2.16-1.5,1.85-3.79,4.43-6.68,7.61L302.3,215c-1.67,1.9-3.47,3.94-5.15,6.24a40.46,40.46,0,0,0-6.47,17.31l-.49-.15a28.38,28.38,0,0,1,2.81-4.34c.54-.74,1.07-1.47,1.58-2.21.25-.37.49-.74.72-1.12l.33-.57.15-.29.07-.14,0-.07s0,0,.06-.1a.31.31,0,0,1,.5.07l0,0,0,.08.06.16.12.32a4.92,4.92,0,0,1,.21.65,9.89,9.89,0,0,1,.29,1.31,14.7,14.7,0,0,1,.17,2.64,53.25,53.25,0,0,1-1.64,9.82c-1.17,6.24-3.31,11.57-4.58,16.16a41.81,41.81,0,0,0-1.86,11.1c0,1.33.08,2.37.14,3.06,0,.33.07.59.1.8a1.37,1.37,0,0,1,0,.27,18.31,18.31,0,0,1-.45-4.13,40.39,40.39,0,0,1,1.7-11.2c1.24-4.63,3.33-9.95,4.47-16.16a53.86,53.86,0,0,0,1.6-9.73,14.57,14.57,0,0,0-.17-2.55,9,9,0,0,0-.28-1.25,4.35,4.35,0,0,0-.2-.61l-.11-.31L296,230l0-.07v0c.08-.05-.2.07.18-.1h0a1.94,1.94,0,0,1,.19.1v0l0,.08-.08.15-.15.3-.35.59c-.23.39-.48.77-.73,1.15-.51.75-1.05,1.48-1.59,2.21a29,29,0,0,0-2.76,4.26l-.75,1.56.26-1.71a40.71,40.71,0,0,1,6.6-17.51c1.72-2.32,3.53-4.35,5.22-6.24s3.29-3.61,4.75-5.18c2.92-3.14,5.25-5.68,6.8-7.49.77-.9,1.36-1.61,1.74-2.1l.44-.56A1.22,1.22,0,0,1,315.88,199.2Z"></path><path class="cls-5" d="M318,341.92a2.19,2.19,0,0,1,.35.35l.93,1c.4.46.88,1,1.39,1.73s1.13,1.46,1.7,2.39,1.25,1.91,1.86,3,1.23,2.35,1.86,3.65a50.13,50.13,0,0,1,4.44,18.12c0,1.44.11,2.81,0,4.09s-.13,2.47-.24,3.55-.27,2.06-.41,2.91a20,20,0,0,1-.43,2.18l-.34,1.36a1.9,1.9,0,0,1-.16.46,2.26,2.26,0,0,1,.05-.49c.07-.37.15-.83.25-1.37s.25-1.33.35-2.18.27-1.82.32-2.9.18-2.26.18-3.53,0-2.63-.09-4.05a51.64,51.64,0,0,0-4.4-18c-.61-1.29-1.16-2.53-1.8-3.63s-1.21-2.14-1.79-3.05-1.14-1.71-1.63-2.42-.93-1.3-1.31-1.77l-.85-1.11C318,342.08,317.94,341.94,318,341.92Z"></path><path class="cls-5" d="M349.71,287.46a9.53,9.53,0,0,1-1.51-.51l-4.08-1.5c-3.44-1.24-8.25-2.83-13.65-4.27s-10.36-2.43-14-3.06l-4.28-.72a9.08,9.08,0,0,1-1.56-.31,8.21,8.21,0,0,1,1.59.11c1,.09,2.5.28,4.31.55a131.9,131.9,0,0,1,14.05,2.93,129.93,129.93,0,0,1,13.64,4.43c1.71.66,3.09,1.23,4,1.65A10.2,10.2,0,0,1,349.71,287.46Z"></path><g class="cls-9"><path d="M344.29,358a13.41,13.41,0,0,0-2.82-3.6c-4.9-5-9.45-9.63-14.36-14.62l-.05,1.08c3.2,2.17,3.88,6.56,4.8,10.32s1.71,7.76,4.33,10.6a6.91,6.91,0,0,0,4,2.3,4.19,4.19,0,0,0,4.1-1.67A4.63,4.63,0,0,0,344.29,358Z"></path></g><g class="cls-9"><path d="M324.56,323.31a6.62,6.62,0,0,1-8.63-1.61L304,310.8c3.42,5,6.16,10.13,9.58,15.16.92,1.35,1.93,2.79,3.47,3.35s3.41.07,5-.55a42.51,42.51,0,0,0,15.23-10.06Z"></path></g><g class="cls-9"><path d="M309.55,261.55c11.17-5.36,15.19-20.21,26.27-25.75A20,20,0,0,1,356,237.42c1.92,1.38,4.05,3.23,6.32,2.57,1.72-.49,2.71-2.23,3.53-3.83q4.15-8.15,8.32-16.29l-10.91,12.85a6,6,0,0,1-2.83,2.21c-2.2.56-3.79-1.9-5.82-2.91-6.33-3.16-10.76-7.12-14.29-4.46,0,0-6.14,4.23-8.61,4.67l-22.12,28.9"></path></g><g class="cls-9"><path d="M290.53,272.42c-.92-4.92.17-10.35,2.2-14.93s4.58-9,5.84-13.82a27.6,27.6,0,0,0,.4-11.86c-.34-1.84-.87-3.72-.48-5.54A10.24,10.24,0,0,1,300,223a71.66,71.66,0,0,1,8.71-11.29l7-10.5s.3,12.19.07,13.35a78.67,78.67,0,0,1-3,10.63,85,85,0,0,1-7.93,16.21A128.58,128.58,0,0,0,295,259.88Z"></path></g><path class="cls-8" d="M334.79,227.61c-14.17-3.35-18.53-10.39-18.69-22.86l-.22-15.85s-15.69-.82-19.34-24.18c-1.82-11.62-3.4-30.4-2.39-46,.92-14,15.47-38.71,29.43-37.2l38.33,18.65a8.22,8.22,0,0,1,7.34,8.35h0l-3,90.57"></path><path class="cls-5" d="M300.14,135.92a3,3,0,0,0,2.89,3,2.87,2.87,0,0,0,3.09-2.69,3,3,0,0,0-2.88-3A2.87,2.87,0,0,0,300.14,135.92Z"></path><path class="cls-5" d="M298.28,129.47c.33.29,2.68,0,5.81.74s5.27,2.16,5.65,2c.18-.05-.12-.5-1.05-1.13a14.48,14.48,0,0,0-4.48-1.88,12.84,12.84,0,0,0-4.67-.34C298.51,129.06,298.12,129.34,298.28,129.47Z"></path><path class="cls-5" d="M330.15,136.82a3,3,0,0,0,2.88,3,2.86,2.86,0,0,0,3.09-2.69,3,3,0,0,0-2.87-3A2.86,2.86,0,0,0,330.15,136.82Z"></path><path class="cls-5" d="M330,132c.46.12,2.54-1.47,5.92-2.37s6.16-.65,6.46-1c.14-.14-.38-.44-1.61-.57a14.83,14.83,0,0,0-5.26.5,13.3,13.3,0,0,0-4.61,2.16C330,131.44,329.81,131.93,330,132Z"></path><path class="cls-5" d="M318.19,153.22c0-.18-2-.53-5.23-1-.82-.08-1.6-.25-1.74-.81a4.21,4.21,0,0,1,.55-2.44l2.45-6.26c3.4-8.92,5.87-16.25,5.51-16.38s-3.41,7-6.81,15.9l-2.35,6.3a4.76,4.76,0,0,0-.43,3.23,2.05,2.05,0,0,0,1.35,1.2,6,6,0,0,0,1.4.2C316.15,153.38,318.18,153.4,318.19,153.22Z"></path><path class="cls-10" d="M315.88,189.12a59.42,59.42,0,0,0,31.3-8.27s-7.93,16.47-31.3,14.23Z"></path><path class="cls-10" d="M318.71,161.05c1.6-2.39,4-4,6.19-4.09a3.68,3.68,0,0,1,3.63,2,5.85,5.85,0,0,1-.51,5.35,5,5,0,0,1-4.89,2.37,8.33,8.33,0,0,1-4-2.63,2.82,2.82,0,0,1-.82-1.16,2,2,0,0,1,.26-1.69"></path><path class="cls-5" d="M327.67,155.47c-.52,0-.54,3.47-3.54,5.94s-6.72,2.09-6.75,2.58c-.05.21.83.68,2.41.72a8.66,8.66,0,0,0,5.63-2,7.58,7.58,0,0,0,2.74-5C328.3,156.32,327.91,155.45,327.67,155.47Z"></path><path class="cls-5" d="M327.4,117.89c.41.84,3.57.11,7.38.19s7,.81,7.37,0c.19-.4-.42-1.16-1.73-1.89a12.84,12.84,0,0,0-11.24-.13C327.86,116.74,327.23,117.49,327.4,117.89Z"></path><path class="cls-5" d="M297.3,122.37c.7.73,3.46,0,6.78-.07s6.13.48,6.77-.29c.28-.37-.16-1.1-1.39-1.79A11.08,11.08,0,0,0,304,119a10.8,10.8,0,0,0-5.41,1.48C297.37,121.26,297,122,297.3,122.37Z"></path><path class="cls-5" d="M402.8,205.91c-5.1-8.24-9.25-28.74-11-39.14s-7.29-43.73-16.14-61.24-19.29-24.61-29.53-27.36a23.5,23.5,0,0,0-22.53,5.12c-4.62,4.13-6.2,16.16-6.2,16.16s24.69,5.49,33,19.57c9.56,16.17,11.87,24.31,11.87,24.31l3.09,8.84s-2.89,17.13-3.95,25.59.63,16.33,7.59,19.76l14,9.9s18.31,12.45,19.16,13.1c3.91,3,11.57,14.37,11.57,14.37S413.21,222.73,402.8,205.91Z"></path><path class="cls-5" d="M316.68,99.6S302.57,98.08,297.35,114c-2.36,7.21-4.16,28-4.16,28s-2.06-16.54-1.3-26,5.47-21.38,12.71-28c7-6.43,13-9.44,25.55-8.68,0,0-5.86,2-9.08,6.79C319.46,88.59,318.75,90.63,316.68,99.6Z"></path><path class="cls-8" d="M362.08,144.56c.26-5.17,5.89-8.62,10.37-6,2.46,1.42,4.34,4.28,4.12,9.77-.61,14.63-15.18,11-15.18,10.59C361.38,158.63,361.78,150.61,362.08,144.56Z"></path><path class="cls-10" d="M366.08,153.53c.07-.05.25.19.68.4a2.55,2.55,0,0,0,1.9.12c1.57-.5,3-2.9,3.15-5.54a8.44,8.44,0,0,0-.56-3.68,2.94,2.94,0,0,0-1.84-2,1.28,1.28,0,0,0-1.53.63c-.22.4-.13.7-.21.72s-.31-.26-.16-.86a1.61,1.61,0,0,1,.61-.89,1.87,1.87,0,0,1,1.42-.31,3.56,3.56,0,0,1,2.57,2.37,8.67,8.67,0,0,1,.72,4.12c-.22,2.94-1.84,5.64-4,6.17a2.71,2.71,0,0,1-2.31-.49C366.1,153.88,366,153.55,366.08,153.53Z"></path><path class="cls-6" d="M340.25,77.25c0,.1-2,0-5.18.47a18,18,0,0,0-5.34,1.59,17.61,17.61,0,0,0-5.36,4.18,27,27,0,0,0-5.93,10.87c-.85,3.1-1,5.11-1.06,5.09a6.46,6.46,0,0,1,.05-1.4,25.08,25.08,0,0,1,.65-3.78A26.06,26.06,0,0,1,324,83.14a16.63,16.63,0,0,1,11-5.79,30.81,30.81,0,0,1,3.83-.18A6.15,6.15,0,0,1,340.25,77.25Z"></path><path class="cls-6" d="M375.63,155.14a.87.87,0,0,1,0-.24l.13-.68c.06-.32.13-.69.22-1.11s.14-1,.22-1.53a35.28,35.28,0,0,0-5.2-23.26,39.44,39.44,0,0,0-12.84-12.07A73.65,73.65,0,0,0,350,112c-2.71-1.24-5.42-2.21-7.94-3.35a94.65,94.65,0,0,1-12.75-7.17c-3.47-2.31-6.18-4.32-8-5.76-.91-.72-1.62-1.28-2.09-1.68-.21-.18-.39-.32-.53-.45a1.45,1.45,0,0,1-.17-.16s.08,0,.2.12l.57.41,2.14,1.6c1.87,1.38,4.6,3.35,8.09,5.61a98.74,98.74,0,0,0,12.74,7c2.5,1.11,5.23,2.08,8,3.33a70.6,70.6,0,0,1,8.24,4.3,39.49,39.49,0,0,1,13,12.25,34.93,34.93,0,0,1,5,13.69,33.43,33.43,0,0,1,0,9.86c-.1.57-.19,1.08-.27,1.52s-.19.8-.27,1.11l-.18.67C375.66,155.06,375.63,155.14,375.63,155.14Z"></path><path class="cls-6" d="M379,149.61a.64.64,0,0,1,0-.24c0-.19,0-.42,0-.7,0-.61.06-1.52,0-2.68a56.21,56.21,0,0,0-.95-9.81,57.29,57.29,0,0,0-4.53-13.85,55.25,55.25,0,0,0-10.22-14.56A64.83,64.83,0,0,0,349,97.12c-4.79-2.73-9.29-4.85-13-6.68s-6.8-3.3-8.86-4.4c-1-.54-1.83-1-2.37-1.29l-.6-.35a.82.82,0,0,1-.2-.13.67.67,0,0,1,.22.09l.63.3,2.41,1.2c2.09,1,5.14,2.48,8.93,4.25s8.3,3.87,13.12,6.59a64.63,64.63,0,0,1,14.45,10.7A54.72,54.72,0,0,1,374,122.13a55.6,55.6,0,0,1,4.46,14,53.27,53.27,0,0,1,.8,9.87c0,1.17-.12,2.07-.15,2.69q0,.42-.06.69A1.48,1.48,0,0,1,379,149.61Z"></path><path class="cls-6" d="M378.59,204.31a1.93,1.93,0,0,1-.23-.44l-.54-1.31a18.85,18.85,0,0,1-.78-2.1c-.27-.83-.61-1.77-.87-2.84-.15-.53-.29-1.09-.45-1.67s-.26-1.2-.4-1.83c-.29-1.26-.48-2.63-.71-4.07a89,89,0,0,1-.72-9.43,146,146,0,0,1,.86-17.15c.22-2.18.43-3.95.58-5.17.08-.55.15-1,.2-1.4a1.71,1.71,0,0,1,.1-.48,1.53,1.53,0,0,1,0,.49l-.09,1.41c-.11,1.31-.25,3.06-.42,5.18-.35,4.37-.82,10.42-.71,17.11.08,3.33.32,6.51.68,9.38.22,1.43.38,2.79.66,4,.13.63.23,1.24.36,1.82l.41,1.67c.24,1.07.55,2,.8,2.84a22.22,22.22,0,0,0,.69,2.12l.45,1.34A1.7,1.7,0,0,1,378.59,204.31Z"></path><path class="cls-8" d="M193.46,338.64s15.9,20.39,21.6,22,27.29,6.95,27.29,6.95L313.21,384l-8.35-30.37-67.09-.92Z"></path><path class="cls-6" d="M102.36,234.75c5.31,13.17,32.07,73.42,38.28,87.37a7,7,0,0,0,4.3,3.85l84.22,26.73L312.72,359v-2.76l-67.56-20.46-21.34-2.5-31.86-79a11.41,11.41,0,0,0-8.51-7L104,232.71A1.51,1.51,0,0,0,102.36,234.75Z"></path><path class="cls-5" d="M312.72,356.19h-.27l-.78-.06-3-.27-10.95-1.09-16.24-1.7-19.89-2c-7.06-.7-13.79-1.23-19.93-1.58L233,349a17.05,17.05,0,0,1-2-.25,4.79,4.79,0,0,1-1-.32,1.7,1.7,0,0,1-.76-.74,31.68,31.68,0,0,1-1.38-3.41l-3.89-10.3-1-2.81-.25-.73a.72.72,0,0,1-.07-.26l.12.24.3.72,1.13,2.77,4.05,10.24a32.45,32.45,0,0,0,1.37,3.33,1.25,1.25,0,0,0,.6.58,3.94,3.94,0,0,0,.88.28,15.39,15.39,0,0,0,2,.23c2.72.13,5.64.32,8.71.5,6.14.32,12.88.84,20,1.54l19.88,2,16.23,1.8,10.94,1.26,3,.37.77.11Z"></path><path class="cls-8" d="M269.54,340.05s1.21-7.94,0-9.5-9.73-9.22-9.73-9.22L255,316.79l-10.65-1.63a3.24,3.24,0,0,0-3.25,1.49L240,318.4l-2.88-.48-2.55-3.69h-7.1l-5.25,5.68v7.66a1.44,1.44,0,0,0,2.55.57c1.85-1.56,2-5.88,2-5.88l3.15,2.9-3.34,10.22s2.35,2.13,4.05,0,4.12-5.26,4.12-5.26,2.83,7.66,7.66,9.93,16.46,4.35,18.87,3.81S269.08,344.3,269.54,340.05Z"></path><path class="cls-10" d="M252.69,322.64s0,.12-.2.28a2,2,0,0,1-.83.54,4.18,4.18,0,0,1-1.55.21c-.61,0-1.29-.15-2-.22a3.51,3.51,0,0,0-2.25.36,10.39,10.39,0,0,0-1.86,2,8.5,8.5,0,0,1-5.69,3.1,5.35,5.35,0,0,1-4.75-2.21l-.11-.17.13-.14a53.66,53.66,0,0,0,5.15-6.28c1.16-1.64,1.78-2.65,1.83-2.62a3.09,3.09,0,0,1-.36.77c-.26.48-.67,1.17-1.21,2a45.37,45.37,0,0,1-5.05,6.45l0-.3a4.92,4.92,0,0,0,4.31,2,8.14,8.14,0,0,0,5.36-2.9,9.73,9.73,0,0,1,2-2.05,3.79,3.79,0,0,1,2.51-.35c.76.1,1.41.26,2,.29a4.21,4.21,0,0,0,1.48-.11A3.27,3.27,0,0,0,252.69,322.64Z"></path><path class="cls-10" d="M261,339.64c-.06,0-.11-.45-.43-1.2a11.93,11.93,0,0,0-1.85-2.92c-.92-1.14-2.18-2.38-3.33-4a8.7,8.7,0,0,1-1.33-2.85,6.73,6.73,0,0,1,.06-3.39,8.31,8.31,0,0,1,1.52-3A3.53,3.53,0,0,1,257,321.2a1.87,1.87,0,0,1,1.65,0,3.84,3.84,0,0,1,1.7,2.33,11.33,11.33,0,0,0,.94,2.18,9.59,9.59,0,0,0,2.27,2.58c.64.5,1,.72,1,.76a3.66,3.66,0,0,1-1.14-.6,8.46,8.46,0,0,1-2.46-2.55,10.85,10.85,0,0,1-1-2.22,3.4,3.4,0,0,0-1.5-2.05,1.42,1.42,0,0,0-1.24,0,3.21,3.21,0,0,0-1.09.94,7.94,7.94,0,0,0-1.42,2.83,6.39,6.39,0,0,0-.06,3.13,8.31,8.31,0,0,0,1.23,2.7c1.08,1.59,2.32,2.86,3.22,4.05a10.19,10.19,0,0,1,1.75,3.07,4.4,4.4,0,0,1,.22.93C261.05,339.52,261.06,339.63,261,339.64Z"></path><path class="cls-10" d="M234,320a2.28,2.28,0,0,0-1.53.64,10.33,10.33,0,0,0-1.91,3.76c-.57,1.6-1.07,3.06-1.49,4.1a5,5,0,0,1-.81,1.63,9.28,9.28,0,0,1,.46-1.75c.33-1.07.77-2.54,1.35-4.15a9.05,9.05,0,0,1,2.15-3.87,2,2,0,0,1,1.3-.5C233.83,319.87,234,320,234,320Z"></path><path class="cls-10" d="M234.74,319.88c0,.05-.43.15-1.16.06a5.45,5.45,0,0,1-2.67-1.19h.33l-.66.56a22.92,22.92,0,0,1-3.86,2.95,22.87,22.87,0,0,1,3.53-3.34l.65-.56.17-.14.17.14a6.1,6.1,0,0,0,2.4,1.25A5.49,5.49,0,0,1,234.74,319.88Z"></path><path class="cls-10" d="M246,338.16a5.74,5.74,0,0,1,.76-1.81,21,21,0,0,1,6.2-7.06,5.56,5.56,0,0,1,1.7-1,56.94,56.94,0,0,0-4.81,4.5A62.47,62.47,0,0,0,246,338.16Z"></path><path class="cls-5" d="M186,248.54a1.63,1.63,0,0,1,.13.26c.09.21.2.46.33.78.3.72.72,1.73,1.24,3l4.47,11.1c3.73,9.42,8.87,22.37,14.54,36.69l14.41,36.75c1.81,4.68,3.28,8.48,4.31,11.16.49,1.29.87,2.31,1.15,3,.12.33.21.59.28.8a2.11,2.11,0,0,1,.09.27s-.06-.08-.13-.25l-.34-.78-1.24-3-4.46-11.1c-3.74-9.42-8.87-22.38-14.55-36.69L191.8,263.82c-1.8-4.68-3.27-8.49-4.31-11.16l-1.14-3-.29-.8A1.07,1.07,0,0,1,186,248.54Z"></path><ellipse class="cls-3" cx="164.09" cy="288.63" rx="4.81" ry="6.56" transform="translate(-138.01 150.9) rotate(-35.87)"></ellipse></g><g id="Desk"><path class="cls-5" d="M644.46,430.71c0,.14-144.28.26-322.21.26S0,430.85,0,430.71s144.25-.26,322.25-.26S644.46,430.57,644.46,430.71Z"></path></g><g id="Screens"><rect class="cls-5" x="29.91" y="82.14" width="212.4" height="131.64" rx="7.87"></rect><circle class="cls-7" cx="136.11" cy="149.75" r="16.18"></circle><path class="cls-3" d="M132.21,154.48v-9.54a.6.6,0,0,1,.9-.53l8.54,4.81a.61.61,0,0,1,0,1.06L133.11,155A.61.61,0,0,1,132.21,154.48Z"></path><path class="cls-3" d="M42.05,198.66V199h-1.6v-.27l.86-.82c.21-.2.25-.32.25-.45s-.14-.31-.4-.31a.6.6,0,0,0-.51.23l-.28-.22a1,1,0,0,1,.82-.36c.47,0,.78.24.78.62a.88.88,0,0,1-.36.69l-.58.55Z"></path><path class="cls-3" d="M42.27,197.59a.25.25,0,1,1,.5,0,.25.25,0,0,1-.5,0Zm0,1.18a.25.25,0,1,1,.5,0,.25.25,0,0,1-.5,0Z"></path><path class="cls-3" d="M43.78,196.83V199h-.4v-1.83h-.46v-.34Z"></path><path class="cls-3" d="M46.15,198.51h-.39V199h-.39v-.49H44.18v-.28l1.07-1.4h.43l-1,1.34h.71v-.44h.38v.44h.39Z"></path><rect class="cls-3" x="49.69" y="197.64" width="164.5" height="0.75"></rect><rect class="cls-7" x="49.56" y="196.83" width="51.41" height="2"></rect><path class="cls-7" d="M102.63,198a2.51,2.51,0,1,1-2.5-2.51A2.5,2.5,0,0,1,102.63,198Z"></path><path class="cls-3" d="M218.33,198a.73.73,0,0,1-.79.71c-.59,0-.94-.38-.94-1.08a1,1,0,0,1,1.06-1.15,1.09,1.09,0,0,1,.57.13l-.15.31a.72.72,0,0,0-.41-.11c-.41,0-.67.26-.67.75h0a.75.75,0,0,1,.58-.22A.68.68,0,0,1,218.33,198Zm-.39,0c0-.23-.17-.37-.43-.37a.4.4,0,0,0-.44.37c0,.21.16.37.45.37A.37.37,0,0,0,217.94,198Z"></path><path class="cls-3" d="M218.53,197.25a.25.25,0,1,1,.5,0,.25.25,0,1,1-.5,0Zm0,1.18a.25.25,0,1,1,.5,0,.25.25,0,1,1-.5,0Z"></path><path class="cls-3" d="M219.29,197.58c0-.71.39-1.11.91-1.11s.9.4.9,1.11-.39,1.12-.9,1.12S219.29,198.29,219.29,197.58Zm1.41,0c0-.52-.21-.76-.5-.76s-.5.24-.5.76.2.77.5.77S220.7,198.1,220.7,197.58Z"></path><path class="cls-3" d="M221.37,197.58c0-.71.39-1.11.91-1.11s.91.4.91,1.11-.39,1.12-.91,1.12S221.37,198.29,221.37,197.58Zm1.41,0c0-.52-.2-.76-.5-.76s-.5.24-.5.76.21.77.5.77S222.78,198.1,222.78,197.58Z"></path><polygon class="cls-3" points="226.69 197.45 225.94 197.45 225.94 195.28 228.1 195.28 228.1 196.03 226.69 196.03 226.69 197.45"></polygon><polygon class="cls-3" points="228.1 200.27 225.94 200.27 225.94 198.11 226.69 198.11 226.69 199.52 228.1 199.52 228.1 200.27"></polygon><polygon class="cls-3" points="231.54 200.27 229.38 200.27 229.38 199.52 230.79 199.52 230.79 198.1 231.54 198.1 231.54 200.27"></polygon><polygon class="cls-3" points="231.54 197.44 230.79 197.44 230.79 196.03 229.38 196.03 229.38 195.28 231.54 195.28 231.54 197.44"></polygon><path class="cls-3" d="M203.55,94.94a5.49,5.49,0,0,1,1.15-.1c.78,0,1.92-.09,3.33-.11h.2v.22c0,1.67,0,3.6,0,5.68v.63l-.45-.44-.59-.6-1.52-1.52h.35l-2.38,2.09-.38.34v-.51c0-1.75.08-3.2.12-4.19a8.31,8.31,0,0,1,.11-1.49,11.19,11.19,0,0,1,.11,1.64c.05,1,.1,2.39.12,4l-.38-.17,2.34-2.13.18-.17.17.17,1.52,1.52.6.6-.44.18c0-2.08,0-4,0-5.68l.21.21c-1.32,0-2.41-.07-3.19-.11A9.24,9.24,0,0,1,203.55,94.94Z"></path><path class="cls-3" d="M220,95.65c.05,0-.37.47-1.11,1.38s-1.85,2.25-3.18,3.76l-.44.48v-.65c0-.89,0-1.83,0-2.82v-.27l.08.18-2-1.92-.45-.44h.62c2,0,3.63.12,4.76.18s1.76.09,1.71.11-.78,0-1.94.09-2.72.11-4.53.12l.17-.43,2,1.91.08.08v.38c0,1,0,1.93,0,2.82l-.43-.16c1.26-1.39,2.39-2.53,3.24-3.39S220,95.67,220,95.65Z"></path><path class="cls-3" d="M220,95.65a6.11,6.11,0,0,1-2.14,1.18,5.92,5.92,0,0,1-2.34.7,5.82,5.82,0,0,1,2.14-1.18A5.69,5.69,0,0,1,220,95.65Z"></path><path class="cls-3" d="M228,94.94s.28-.09.79,0a3.13,3.13,0,0,1,1.87,1.14,3.36,3.36,0,0,1,.54,3.19,3.4,3.4,0,0,1-6.41,0,3.36,3.36,0,0,1,.54-3.19,3.16,3.16,0,0,1,1.87-1.14,1.41,1.41,0,0,1,.8,0s-.29,0-.75.2a3.21,3.21,0,0,0-1.63,1.16,3,3,0,0,0-.37,2.8,2.93,2.93,0,0,0,5.5,0,3,3,0,0,0-.38-2.8,3.17,3.17,0,0,0-1.63-1.16C228.31,95,228,95,228,94.94Z"></path><path class="cls-3" d="M229.1,99.46c-.1.1-.78-.42-1.53-1.17l-.08-.08v-.12c0-1.07.12-1.93.26-1.93s.26.86.26,1.93v0l-.07-.19C228.68,98.67,229.2,99.35,229.1,99.46Z"></path><path class="cls-3" d="M151.09,99.25c0,.14-21.83.26-48.75.26s-48.75-.12-48.75-.26S75.41,99,102.34,99,151.09,99.1,151.09,99.25Z"></path><circle class="cls-3" cx="45.14" cy="99.25" r="3.85"></circle><rect class="cls-2" x="400.26" y="20.09" width="161.6" height="100.16" rx="7.87"></rect><path class="cls-6" d="M536.22,63.91c-3.87-2.36-8.19-4.38-12.72-4.2-6.42.24-11.79,4.74-16.6,9l-22.5,20c-.87.77-1.9,1.59-3,1.42a4.06,4.06,0,0,1-2.22-1.54l-19.92-22.1c-4.13-4.58-8.86-9.48-15-10.07-5-.49-9.74,2-13.92,4.76a99.49,99.49,0,0,0-29.8,30.31l-.24,20.92c1.33,4.52,5.35,7.88,9.63,7.88H552.24a9.75,9.75,0,0,0,9.63-8.83V91.73A68,68,0,0,0,536.22,63.91Z"></path><path class="cls-5" d="M409.5,108.75V109h-1.21v-.2l.65-.62a.45.45,0,0,0,.19-.34c0-.15-.11-.24-.31-.24a.47.47,0,0,0-.38.17l-.22-.16a.78.78,0,0,1,.63-.27c.35,0,.58.18.58.47a.66.66,0,0,1-.27.52l-.44.42Z"></path><path class="cls-5" d="M409.67,107.93a.19.19,0,0,1,.38,0,.19.19,0,1,1-.38,0Zm0,.9a.19.19,0,1,1,.38,0,.19.19,0,0,1-.38,0Z"></path><path class="cls-5" d="M410.82,107.36V109h-.31v-1.38h-.34v-.26Z"></path><path class="cls-5" d="M412.61,108.63h-.29V109H412v-.37h-.91v-.21l.81-1.06h.33l-.76,1H412V108h.28v.33h.29Z"></path><rect class="cls-5" x="415.31" y="107.88" width="125.16" height="0.75"></rect><rect class="cls-7" x="415.22" y="107.12" width="39.11" height="2"></rect><path class="cls-7" d="M455.59,108.26a1.9,1.9,0,1,1-1.9-1.91A1.9,1.9,0,0,1,455.59,108.26Z"></path><path class="cls-5" d="M543.62,108.24a.55.55,0,0,1-.6.53c-.45,0-.72-.29-.72-.82a.78.78,0,0,1,.81-.87.81.81,0,0,1,.43.11l-.11.23a.55.55,0,0,0-.31-.08.49.49,0,0,0-.51.56h0a.59.59,0,0,1,.44-.17A.52.52,0,0,1,543.62,108.24Zm-.3,0c0-.17-.13-.28-.33-.28a.3.3,0,0,0-.33.29c0,.15.12.27.34.27A.29.29,0,0,0,543.32,108.25Z"></path><path class="cls-5" d="M543.77,107.67a.19.19,0,0,1,.19-.19.19.19,0,0,1,.2.19.19.19,0,0,1-.2.2A.19.19,0,0,1,543.77,107.67Zm0,.9a.18.18,0,0,1,.19-.19.19.19,0,0,1,.2.19.2.2,0,1,1-.39,0Z"></path><path class="cls-5" d="M544.35,107.93c0-.54.3-.85.69-.85s.69.31.69.85-.3.84-.69.84S544.35,108.47,544.35,107.93Zm1.07,0c0-.4-.15-.58-.38-.58s-.38.18-.38.58.16.58.38.58S545.42,108.32,545.42,107.93Z"></path><path class="cls-5" d="M545.94,107.93c0-.54.29-.85.68-.85s.69.31.69.85-.29.84-.69.84S545.94,108.47,545.94,107.93Zm1.07,0c0-.4-.16-.58-.39-.58s-.37.18-.37.58.15.58.37.58S547,108.32,547,107.93Z"></path><polygon class="cls-5" points="550.07 107.82 549.32 107.82 549.32 106.09 551.05 106.09 551.05 106.84 550.07 106.84 550.07 107.82"></polygon><polygon class="cls-5" points="551.06 110.06 549.32 110.06 549.32 108.33 550.07 108.33 550.07 109.31 551.06 109.31 551.06 110.06"></polygon><polygon class="cls-5" points="553.77 110.06 552.03 110.06 552.03 109.31 553.02 109.31 553.02 108.33 553.77 108.33 553.77 110.06"></polygon><polygon class="cls-5" points="553.77 107.82 553.02 107.82 553.02 106.84 552.03 106.84 552.03 106.09 553.77 106.09 553.77 107.82"></polygon><path class="cls-5" d="M532.38,29.83a22.91,22.91,0,0,1,3.4-.21H536v.22c0,1.23,0,2.71,0,4.32v.63l-.45-.44c-.14-.15-.3-.3-.45-.45L534,32.72h.35l-1.81,1.59-.39.35v-.52a32.48,32.48,0,0,1,.23-4.32,40.72,40.72,0,0,1,.23,4.32l-.38-.16L534,32.35l.18-.16.17.17c.38.38.77.76,1.16,1.16L536,34l-.45.18c0-1.61,0-3.09.05-4.32l.21.21A30.07,30.07,0,0,1,532.38,29.83Z"></path><path class="cls-5" d="M544.9,30.37a9.73,9.73,0,0,1-.81,1.05c-.55.69-1.39,1.74-2.41,2.9l-.43.49v-.66c0-.68,0-1.39,0-2.14V31.8l.08.19-1.5-1.47-.45-.44H540c1.5,0,2.79.11,3.65.17a10,10,0,0,1,1.27.11s-.62,0-1.5.09-2.06.12-3.42.13l.17-.43,1.52,1.45.08.08V32c0,.75,0,1.46,0,2.14l-.43-.16c1-1,1.82-1.89,2.47-2.53S544.85,30.39,544.9,30.37Z"></path><path class="cls-5" d="M544.9,30.37c.05.13-.66.56-1.6,1s-1.75.6-1.81.47.67-.56,1.61-1S544.84,30.24,544.9,30.37Z"></path><path class="cls-5" d="M551,29.83s.22-.09.61,0a2.36,2.36,0,0,1,1.45.86,2.55,2.55,0,0,1,.43,2.47,2.64,2.64,0,0,1-5,0,2.6,2.6,0,0,1,.43-2.47,2.36,2.36,0,0,1,1.45-.86c.39-.07.61,0,.61,0s-.21.06-.56.17a2.44,2.44,0,0,0-1.21.89A2.25,2.25,0,0,0,549,33,2.18,2.18,0,0,0,553,33a2.25,2.25,0,0,0-.27-2.09,2.44,2.44,0,0,0-1.21-.89C551.21,29.89,551,29.87,551,29.83Z"></path><path class="cls-5" d="M551.82,33.27c-.1.1-.64-.28-1.21-.85l-.08-.07v-.11h0c0-.81.12-1.47.26-1.47s.26.66.26,1.47h0l-.07-.18C551.55,32.63,551.92,33.17,551.82,33.27Z"></path><path class="cls-5" d="M492.47,33.11c0,.14-16.61.26-37.1.26s-37.09-.12-37.09-.26,16.6-.26,37.09-.26S492.47,33,492.47,33.11Z"></path><path class="cls-5" d="M414.78,33.11a2.93,2.93,0,1,1-2.93-2.93A2.93,2.93,0,0,1,414.78,33.11Z"></path><path class="cls-5" d="M554,120.25s.45,0,1.31-.14a7.82,7.82,0,0,0,3.47-1.55,7.92,7.92,0,0,0,3-5.3c.09-2.46,0-5.34,0-8.56,0-12.91,0-31.58-.09-54.65q0-8.65,0-18.11c0-1.56,0-3.19,0-4.75a7.66,7.66,0,0,0-5.93-6.69,9.94,9.94,0,0,0-2.45-.19H550.7l-43.31,0-99.25,0a7.64,7.64,0,0,0-5.64,2.51,7.87,7.87,0,0,0-2,5.86V67q0,12.47,0,24.45V112a8.71,8.71,0,0,0,.38,2.75,7.63,7.63,0,0,0,5.93,5.14,14.6,14.6,0,0,0,2.74.13h11l21,0,37.74,0,54.64.08,14.86,0,3.86,0c.87,0,1.32,0,1.32,0l-1.32,0-3.86,0-14.86,0-54.64.09-37.74,0h-32a16,16,0,0,1-2.83-.13,8.23,8.23,0,0,1-2.7-1,8,8,0,0,1-3.59-4.46A8.7,8.7,0,0,1,400,112v-8.72q0-5.85,0-11.84V67q0-12.45,0-25.32v-13a9.4,9.4,0,0,1,.42-3.31,8.08,8.08,0,0,1,1.69-2.9,8.16,8.16,0,0,1,6-2.68l99.25,0,43.31,0h2.54a11.46,11.46,0,0,1,2.54.2A8.12,8.12,0,0,1,562,27.15c.08,1.65,0,3.21,0,4.79q0,9.45,0,18.11c0,23.07-.06,41.74-.08,54.65,0,3.23,0,6.08-.08,8.58a7.91,7.91,0,0,1-3,5.36,7.69,7.69,0,0,1-3.53,1.52,5.21,5.21,0,0,1-1,.09A2.73,2.73,0,0,1,554,120.25Z"></path><circle class="cls-6" cx="483.78" cy="55.17" r="10.74"></circle><path class="cls-7" d="M318,58.91a5.27,5.27,0,0,0,2.55-.91,4.75,4.75,0,0,0,1.8-2.67,7.69,7.69,0,0,0,.16-2.09V50.8c0-6.95.08-16.93.14-29.23q0-4.63.06-9.69c0-1.68,0-3.4,0-5.15a15.3,15.3,0,0,0-.09-2.56A4.45,4.45,0,0,0,321.51,2,4.15,4.15,0,0,0,319.33.84a21.74,21.74,0,0,0-2.71-.06l-5.72,0L299,.9l-53.08.29a4.34,4.34,0,0,0-4.19,4c0,2.32-.05,4.61-.08,6.89q-.07,6.88-.14,13.55c-.09,8.88-.18,17.44-.27,25.6l0,3a4.51,4.51,0,0,0,.66,2.64,4.06,4.06,0,0,0,2,1.69,7.17,7.17,0,0,0,2.74.27l11.24,0,20.19,0h29.23l7.94,0,2.07,0a3.35,3.35,0,0,1,.7,0,3.68,3.68,0,0,1-.7.05l-2.07,0-7.94.13-29.23.28-20.18.15-11.25.08a7.84,7.84,0,0,1-3-.3,5,5,0,0,1-2.44-2,5.3,5.3,0,0,1-.79-3.09c0-1,0-2,0-3,.07-8.16.14-16.72.22-25.6q.06-6.66.12-13.54,0-3.46.08-7A5.25,5.25,0,0,1,245.9.28L299,.06,310.9,0l5.71,0a21.38,21.38,0,0,1,2.86.08,4.92,4.92,0,0,1,2.58,1.39A5.13,5.13,0,0,1,323.38,4a14.84,14.84,0,0,1,.09,2.72c0,1.75,0,3.47-.06,5.15q-.07,5.06-.12,9.68c-.18,12.31-.33,22.28-.43,29.23,0,.86,0,1.68,0,2.44a7.89,7.89,0,0,1-.21,2.16,4.93,4.93,0,0,1-2,2.75,4.57,4.57,0,0,1-1.94.74A2.72,2.72,0,0,1,318,58.91Z"></path><polygon class="cls-7" points="285 24.84 294.87 30.76 284.85 36.7 274.82 42.65 274.98 30.78 275.13 18.91 285 24.84"></polygon></g></g></svg>