<svg xmlns="http://www.w3.org/2000/svg" viewBox="0 0 458.32 425.08"><defs><style>.cls-1{fill:#fafafa;}.cls-2{fill:#e0e0e0;}.cls-3{fill:#ebebeb;}.cls-4{fill:#f5f5f5;}.cls-5{fill:#e8505b;}.cls-6{fill:#263238;}.cls-7{opacity:0.3;}.cls-8{fill:#ef9d78;}.cls-9{fill:#d37a57;}.cls-10{fill:#455a64;}</style></defs><title>Asset 1q1</title><g id="Layer_2" data-name="Layer 2"><g id="Background_Complete" data-name="Background Complete"><rect class="cls-1" x="19.62" y="0.55" width="207.47" height="185.62"></rect><path class="cls-2" d="M227.09,186.17s0-1.19-.05-3.44,0-5.61,0-9.95c0-8.71-.07-21.45-.13-37.68-.05-32.43-.14-78.77-.24-134.55l.47.47L19.64,1.11h0l.55-.56c0,67.54-.05,131.08-.06,185.62l-.49-.48,150.06.24,42.32.13,11.21.06,2.89,0c.65,0,1,0,1,0s-.31,0-.94,0l-2.83,0-11.11.06-42.22.13-150.37.24h-.49v-.49c0-54.54,0-118.08-.07-185.62V0h.58L227.09.08h.47V.55c-.1,55.9-.18,102.35-.24,134.85,0,16.18-.09,28.88-.12,37.58,0,4.29,0,7.59-.06,9.85S227.09,186.17,227.09,186.17Z"></path><path class="cls-2" d="M99.17,33.54c0,.3-10.92.55-24.39.55s-24.39-.25-24.39-.55S61.31,33,74.78,33,99.17,33.23,99.17,33.54Z"></path><path class="cls-2" d="M187.08,47.47c0,.31-30,.56-67,.56s-67-.25-67-.56,30-.55,67-.55S187.08,47.17,187.08,47.47Z"></path><rect class="cls-2" x="50.75" y="71.08" width="8.74" height="8.74"></rect><rect class="cls-2" x="72.26" y="71.08" width="8.74" height="8.74"></rect><rect class="cls-2" x="94.18" y="70.68" width="8.74" height="8.74"></rect><rect class="cls-2" x="115.3" y="71.08" width="8.74" height="8.74"></rect><rect class="cls-2" x="136.81" y="71.08" width="8.74" height="8.74"></rect><rect class="cls-2" x="158.33" y="71.08" width="8.74" height="8.74"></rect><rect class="cls-3" x="179.84" y="71.08" width="8.74" height="8.74"></rect><rect class="cls-3" x="50.75" y="89.66" width="8.74" height="8.74"></rect><rect class="cls-2" x="72.26" y="89.66" width="8.74" height="8.74"></rect><rect class="cls-3" x="93.78" y="89.66" width="8.74" height="8.74"></rect><rect class="cls-2" x="115.3" y="89.66" width="8.74" height="8.74"></rect><rect class="cls-2" x="136.81" y="89.66" width="8.74" height="8.74"></rect><rect class="cls-2" x="158.73" y="89.27" width="8.74" height="8.74"></rect><rect class="cls-2" x="179.84" y="89.66" width="8.74" height="8.74"></rect><rect class="cls-2" x="50.75" y="108.25" width="8.74" height="8.74"></rect><rect class="cls-2" x="72.66" y="107.85" width="8.74" height="8.74"></rect><rect class="cls-2" x="93.78" y="108.25" width="8.74" height="8.74"></rect><rect class="cls-3" x="115.3" y="108.25" width="8.74" height="8.74"></rect><rect class="cls-2" x="136.81" y="108.25" width="8.74" height="8.74"></rect><rect class="cls-2" x="158.33" y="108.25" width="8.74" height="8.74"></rect><rect class="cls-2" x="179.84" y="108.25" width="8.74" height="8.74"></rect><rect class="cls-2" x="50.75" y="126.83" width="8.74" height="8.74"></rect><rect class="cls-2" x="72.26" y="126.83" width="8.74" height="8.74"></rect><rect class="cls-2" x="93.78" y="126.83" width="8.74" height="8.74"></rect><rect class="cls-2" x="115.69" y="126.43" width="8.74" height="8.74"></rect><rect class="cls-2" x="136.81" y="126.83" width="8.74" height="8.74"></rect><rect class="cls-3" x="158.33" y="126.83" width="8.74" height="8.74"></rect><rect class="cls-2" x="179.84" y="126.83" width="8.74" height="8.74"></rect><rect class="cls-2" x="50.75" y="145.41" width="8.74" height="8.74"></rect><rect class="cls-3" x="72.26" y="145.41" width="8.74" height="8.74"></rect><rect class="cls-2" x="93.78" y="145.41" width="8.74" height="8.74"></rect><rect class="cls-2" x="115.3" y="145.41" width="8.74" height="8.74"></rect><rect class="cls-2" x="136.81" y="145.41" width="8.74" height="8.74"></rect><rect class="cls-2" x="158.73" y="145.01" width="8.74" height="8.74"></rect><rect class="cls-2" x="179.84" y="145.41" width="8.74" height="8.74"></rect><path class="cls-3" d="M409.8,250.06c9.25-4.77,20.13-5.39,30.4-3.69,5.51.91,11.26,2.56,15,6.7s4.46,11.43.15,15c-2.56,2.12-6.14,2.44-9.46,2.4-8-.09-16.95-1.51-23.37,3.33-3.66,2.75-6.1,7.34-10.48,8.7s-9.12-1.21-11.39-5.07-2.35-8.7-1.29-13.06A19.94,19.94,0,0,1,409.8,250.06Z"></path><path class="cls-3" d="M388.62,209.17c5.65,8.08,16.64,5.4,21.74.47s7.24-12.07,9.2-18.88c4.48-15.56,9-31.89,5.67-47.73-1-4.74-2.77-9.47-6.1-13s-8.45-5.61-13.13-4.37c-5.54,1.46-9,6.89-11.47,12a113.75,113.75,0,0,0-11.25,48.83c0,7.87.9,16.12,5.34,22.61"></path><path class="cls-3" d="M373.1,220.76c6.13-7.29,7.3-17.91,4.57-27s-8.9-16.89-16-23.23A86.14,86.14,0,0,0,333,153.58c-4.14-1.46-8.52-2.61-12.89-2.19s-8.78,2.65-10.82,6.54c-3,5.76-.13,12.74,3,18.43A218,218,0,0,0,331.1,205c5.65,7.28,12.11,14.46,20.72,17.75s17.54,2.9,22.1-3.07"></path><path class="cls-2" d="M388.24,331a18.09,18.09,0,0,0,.51-3.67c.26-2.67.59-6,1-10A146,146,0,0,1,392,302.6a112.77,112.77,0,0,1,5.33-17.33,63.63,63.63,0,0,1,8.86-15.69,33,33,0,0,1,11.19-9.3,31.47,31.47,0,0,1,9.42-2.94,18.38,18.38,0,0,0,3.65-.52,16.19,16.19,0,0,0-3.72-.06,28.42,28.42,0,0,0-9.82,2.56,32.91,32.91,0,0,0-11.81,9.38,62.32,62.32,0,0,0-9.17,16,105.14,105.14,0,0,0-5.3,17.61,124,124,0,0,0-1.95,14.88c-.32,4.25-.44,7.69-.5,10.07A16.84,16.84,0,0,0,388.24,331Z"></path><path class="cls-2" d="M388.93,323.26a7.78,7.78,0,0,0,.1-1.7c0-1.28,0-2.89,0-4.87,0-4.22,0-10.34.22-17.89.37-15.1,1.67-31.35,4.19-54.26,2.37-21.54,5.56-46.61,8.93-62.91.72-3.71,1.45-7,2.14-10s1.21-5.46,1.75-7.5.83-3.49,1.13-4.73a7,7,0,0,0,.3-1.68,7.58,7.58,0,0,0-.59,1.6L405.67,164c-.63,2-1.27,4.53-2,7.45s-1.56,6.24-2.35,9.94a549.09,549.09,0,0,0-9.4,58.37c-2.52,23-3.65,43.87-3.75,59-.09,7.57.07,13.7.26,17.93.13,2,.22,3.58.3,4.86A7.62,7.62,0,0,0,388.93,323.26Z"></path><path class="cls-2" d="M389,282.94a32.35,32.35,0,0,0,0-5.08,138.6,138.6,0,0,0-1.55-13.78A183.25,183.25,0,0,0,383,244a164.09,164.09,0,0,0-8.4-23.75c-7-16.52-16.42-30-24.65-38.39a62.58,62.58,0,0,0-5.8-5.39c-.89-.75-1.67-1.5-2.48-2.09l-2.25-1.56a32.78,32.78,0,0,0-4.28-2.74c-.24.33,6.07,4,14,12.52s17.13,21.87,24,38.25a186.72,186.72,0,0,1,8.44,23.53,203.35,203.35,0,0,1,4.77,19.88c1.05,5.72,1.66,10.4,2,13.64A33.12,33.12,0,0,0,389,282.94Z"></path><polygon class="cls-2" points="350.06 354.06 354.1 409.41 425.2 409.41 429.24 354.06 350.06 354.06"></polygon><rect class="cls-2" x="343.19" y="332.25" width="94.53" height="21.82"></rect><polygon class="cls-3" points="343.19 407.29 343.19 413.34 347.63 413.34 436.16 413.34 436.16 407.29 343.19 407.29"></polygon><polygon class="cls-2" points="351.99 423.98 347.63 413.34 432.78 413.34 427.7 423.98 351.99 423.98"></polygon><path class="cls-4" d="M427.92,372.15s-.09.19-.33.51l-1.06,1.41-4.14,5.3-.19.24-.18-.25-10.17-14.07h.58l-10,14.18-.31.45-.35-.42-11.88-14.14h.68l-.65.82-10.63,13.32-.35.45-.33-.47-10-14.18.58,0-12.34,14.06-.22.25-.17-.28c-1.63-2.73-2.92-4.91-3.86-6.49-.41-.7-.74-1.27-1-1.73a2.69,2.69,0,0,1-.3-.62,3.07,3.07,0,0,1,.42.55c.28.44.65,1,1.09,1.67l4.06,6.37-.39,0,12.15-14.24.31-.36.27.39L379.29,379l-.68,0,10.6-13.34.65-.82.34-.42.35.41L402.39,379l-.66,0,10.12-14.11.29-.41.29.41c4,5.72,7.42,10.59,10,14.23l-.36,0,4.31-5.16,1.16-1.34A3,3,0,0,1,427.92,372.15Z"></path><path class="cls-4" d="M430.23,353.7c0,.24-17.81.44-39.79.44s-39.79-.2-39.79-.44,17.81-.44,39.79-.44S430.23,353.45,430.23,353.7Z"></path><path class="cls-4" d="M433.82,413.94c0,.24-19.36.44-43.24.44s-43.24-.2-43.24-.44,19.35-.45,43.24-.45S433.82,413.69,433.82,413.94Z"></path></g><g id="Character"><path class="cls-5" d="M177.38,203.92l-8,4.29-17.71,13.63S97.45,229,95.37,230.6,66.32,245,62.67,262.15,51.53,391.46,51.53,391.46l9.84,33.12,197.51.31,46.32-.66s17.79-41.57,17.79-53-5.2-97.37-5.2-97.37l-55.55-39.17Z"></path><path class="cls-6" d="M151.17,221a2.2,2.2,0,0,1-.28.46l-.86,1.27c-.78,1.08-1.84,2.7-3.07,4.73-.6,1-1.28,2.14-1.91,3.39s-1.31,2.58-2,4a81.71,81.71,0,0,0-3.59,9.57,130.07,130.07,0,0,0-3.89,18.19c-.34,2.3-.61,4.19-.81,5.59-.09.61-.16,1.11-.22,1.52a1.82,1.82,0,0,1-.12.52,2.2,2.2,0,0,1,0-.54c0-.4.08-.91.13-1.53.12-1.33.33-3.25.64-5.62A116.44,116.44,0,0,1,139,244.3a78.38,78.38,0,0,1,3.65-9.62c.68-1.43,1.33-2.78,2-4s1.35-2.36,2-3.38c1.29-2,2.39-3.61,3.22-4.66l.95-1.21A2.37,2.37,0,0,1,151.17,221Z"></path><g class="cls-7"><path d="M152.4,254c-.33-1.06-.75-2.25-1.78-2.66-.8-.33-.48.19-1.28.53-7.5,3.09-11.13,10-14.3,17.84l.18-.19a3.13,3.13,0,0,0,1.23,3.63c1.69,1,3.86.45,5.6-.45s3.33-2.15,5.23-2.64c4.1-1.05,8.19,1.76,11.08,4.86s5.51,6.78,9.47,8.31A91.21,91.21,0,0,1,152.4,254Z"></path></g><path class="cls-6" d="M134.45,270.27a48.21,48.21,0,0,1,3.18-6.36,47.68,47.68,0,0,1,4.76-6.84,28.14,28.14,0,0,1,3.73-3.65,12.55,12.55,0,0,1,5.28-2.53l.16,0,.06.15c1.25,3.27,2.57,6.84,4.09,10.6a84.36,84.36,0,0,0,5.6,11.58,56,56,0,0,0,8.6,11.12,70.5,70.5,0,0,0,11.77,9.34c1.45.85,2.85,1.76,4.3,2.56l4.33,2.31h-.26l7.22-5,3.5-2.41c1.16-.79,2.29-1.58,3.36-2.42a88.35,88.35,0,0,0,11.2-10.53l0,0h0A42.15,42.15,0,0,0,225.64,267a38.48,38.48,0,0,0,4.63-10.77,39.67,39.67,0,0,0,1.18-7.46c.06-.88,0-1.55.07-2s0-.68,0-.68,0,.23,0,.68,0,1.13,0,2a36.8,36.8,0,0,1-1.06,7.52,38,38,0,0,1-4.58,10.89,42,42,0,0,1-10.31,11.38l0,0a88.61,88.61,0,0,1-11.24,10.63c-1.08.85-2.21,1.65-3.37,2.43l-3.5,2.43-7.22,5-.12.09-.14-.07-4.36-2.32c-1.45-.8-2.86-1.71-4.32-2.57a70.1,70.1,0,0,1-11.86-9.42,56.52,56.52,0,0,1-8.65-11.23,84.4,84.4,0,0,1-5.59-11.66c-1.51-3.78-2.81-7.36-4-10.63l.21.12a12.15,12.15,0,0,0-5.13,2.43,27.63,27.63,0,0,0-3.72,3.57,49.61,49.61,0,0,0-4.81,6.75c-1.17,2-2,3.54-2.53,4.61l-.61,1.23A1.73,1.73,0,0,1,134.45,270.27Z"></path><path class="cls-6" d="M246.22,245.65a99.28,99.28,0,0,1-.72,15.25,116.68,116.68,0,0,1-3.05,16.37,140.06,140.06,0,0,1-6.62,19.38l-.38.9-.12-1c-.07-.58-.12-1.22-.22-1.85a53.39,53.39,0,0,0-2.52-10.56c-.57-1.66-1.22-3.26-1.92-4.8-.35-.77-.72-1.52-1.1-2.26a13.68,13.68,0,0,0-1.22-2.08,4.08,4.08,0,0,0-1.72-1.44,2,2,0,0,0-2,.38,13.84,13.84,0,0,0-1.52,1.62l-1.45,1.65-5.29,6L208.71,292l-2.11,2.36-.56.6-.2.19a1.5,1.5,0,0,1,.16-.23l.52-.63,2-2.42,7.56-8.82,5.24-6.08,1.44-1.67a14.48,14.48,0,0,1,1.58-1.68,2.44,2.44,0,0,1,2.41-.46,4.52,4.52,0,0,1,1.94,1.59,14.18,14.18,0,0,1,1.28,2.15c.38.74.75,1.5,1.11,2.27.71,1.55,1.37,3.17,2,4.84a54.24,54.24,0,0,1,2.55,10.66c.1.64.15,1.28.22,1.87l-.5-.07a142.58,142.58,0,0,0,6.64-19.3,122,122,0,0,0,3.15-16.29c.58-4.68.81-8.49.92-11.12.07-1.32.07-2.34.1-3,0-.32,0-.58,0-.79S246.22,245.65,246.22,245.65Z"></path><path class="cls-6" d="M171.64,218s0,.08-.15.2l-.48.54c-.44.45-1,1.19-1.76,2.14a39.86,39.86,0,0,0-4.79,8.95,57.78,57.78,0,0,0-3.59,14.63,58.62,58.62,0,0,0,.8,18.38,49,49,0,0,0,2.8,9.13,47.69,47.69,0,0,0,4.11,7.89,50.69,50.69,0,0,0,10,11.22c1.61,1.42,3.25,2.48,4.62,3.5s2.69,1.72,3.73,2.31l2.43,1.34.63.36a.87.87,0,0,1,.21.14s-.08,0-.23-.09l-.65-.32-2.49-1.25c-1.06-.57-2.31-1.37-3.79-2.25s-3-2-4.69-3.46a50.12,50.12,0,0,1-10.18-11.24,47.81,47.81,0,0,1-4.17-8,49.13,49.13,0,0,1-2.84-9.21,57.89,57.89,0,0,1-.76-18.55,57,57,0,0,1,3.72-14.7,38,38,0,0,1,5-8.94,21,21,0,0,1,1.85-2.09l.51-.51Z"></path><path class="cls-6" d="M86.56,314.1a2.12,2.12,0,0,1,.2.29l.53.93-.15.05c-.71-3.36-2.65-13.66-4.86-25.85-1.32-7.5-2.53-14.3-3.41-19.3-.4-2.42-.73-4.4-1-5.86-.09-.65-.17-1.17-.24-1.6a2.36,2.36,0,0,1,0-.56,2.76,2.76,0,0,1,.15.54q.13.63.33,1.59c.29,1.44.67,3.42,1.14,5.83.93,5,2.18,11.77,3.57,19.27,2.2,12.18,4,22.52,4.5,25.91l.08.51-.23-.46-.47-1A1.25,1.25,0,0,1,86.56,314.1Z"></path><path class="cls-6" d="M84.15,312.05c-.13.06-2.65-5-5.63-11.31s-5.28-11.48-5.15-11.54,2.65,5,5.63,11.31S84.28,312,84.15,312.05Z"></path><g class="cls-7"><path d="M83.12,422c6.27,3.15,20.8-2.41,26.09-9.34s6.81-16,8-24.59q2.6-19.53,3.69-39.22a59.6,59.6,0,0,0,37.56,11.35c8.48-.39,18.15-3.76,20.77-11.83s-3-16.21-8.79-22.28a137.4,137.4,0,0,0-18-15.8c-4.23-3.1-8.87-6-14.09-6.61-5.63-.61-11.32,1.69-15.6,5.4s-7.27,8.71-9.47,13.93c-6.68,15.95-6.32,33.8-7.69,51s-3.19,35.09-18.46,46.31"></path></g><path class="cls-6" d="M83.53,422.06a2.53,2.53,0,0,1,.43-.2l1.26-.55a22.9,22.9,0,0,0,4.28-2.94A59.84,59.84,0,0,0,101.05,404l0,.08c.91-6.85,2-14.85,3.11-23.35,1.84-13.48,3.46-25.68,4.77-34.5.81-4.35,1.46-7.89,1.93-10.38.23-1.19.41-2.13.55-2.82l.15-.73a1,1,0,0,1,.07-.24.6.6,0,0,1,0,.25c0,.2-.06.44-.1.74l-.45,2.84c-.43,2.49-1,6-1.77,10.4-1.18,8.87-2.81,21.05-4.61,34.51-1.16,8.5-2.25,16.49-3.18,23.34v.05l0,0a58.35,58.35,0,0,1-11.78,14.39,21.31,21.31,0,0,1-4.39,2.86c-.56.23-1,.38-1.3.48A1.47,1.47,0,0,1,83.53,422.06Z"></path><path class="cls-6" d="M179.78,424.23a1.9,1.9,0,0,1-.09-.31c-.06-.24-.13-.55-.22-.94-.18-.83-.51-2-.77-3.62a90.74,90.74,0,0,1-1.38-13.56,131.39,131.39,0,0,1,1.08-20.18c.92-7.56,2.45-15.79,4.23-24.39s3.85-16.71,5.59-24.1a114.54,114.54,0,0,0,3.21-19.88,72.33,72.33,0,0,0-.5-13.56c-.17-1.6-.44-2.82-.56-3.66l-.14-.95a1.38,1.38,0,0,1,0-.33,1.86,1.86,0,0,1,.08.32c.05.24.12.55.2.94.14.83.45,2.05.65,3.65a69.4,69.4,0,0,1,.67,13.61,112.36,112.36,0,0,1-3.11,20c-1.72,7.41-3.85,15.49-5.55,24.1s-3.32,16.8-4.27,24.34a134.31,134.31,0,0,0-1.18,20.11,96.27,96.27,0,0,0,1.21,13.53c.23,1.59.53,2.8.67,3.64.07.39.13.71.17,1A1.11,1.11,0,0,1,179.78,424.23Z"></path><path class="cls-6" d="M196.61,311.47c-.12-.08,1.6-2.83,3.52-6.34s3.31-6.44,3.45-6.38a8.14,8.14,0,0,1-.72,2c-.52,1.21-1.31,2.85-2.28,4.62s-1.92,3.31-2.66,4.4A7.81,7.81,0,0,1,196.61,311.47Z"></path><g class="cls-7"><path d="M199.84,307.32a167.38,167.38,0,0,1,16.89-17.11c1.65-1.45,3.44-2.92,5.61-3.28,2.64-.44,5.33.92,7.16,2.88a24.7,24.7,0,0,1,4.08,6.88c2.62-6.44-.1-13.7-2.8-20.11-.88-2.09-2.4-4.57-4.64-4.23a5.18,5.18,0,0,0-2.88,2.06,312.29,312.29,0,0,0-24,31.75"></path></g><g class="cls-7"><path d="M287.76,259.69l.37-3.17c-3.81.36-8.49.81-11.53,3.13-3.55,2.71-5,7.32-6.14,11.62-2.72,9.78,5,60.13,4.6,70.28,3.37-1.43,5.75-23,6.35-26.66,1.48-8.81-1.51-14.31-.6-16.77s.88-5.13.95-7.75c.33-11.68,1.49-19.9,6-30.68"></path></g><path class="cls-6" d="M238.05,98.09c-4.84-6-3.25-15.59,2.29-21s14-6.91,21.57-5.63a35.48,35.48,0,0,1,25.71,19.4c2.6,5.45,4,11.89,8.77,15.59,4.18,3.26,9.94,3.54,14.7,5.88,6.38,3.12,10.5,9.8,12,16.76s.58,14.19-.89,21.15c-1.35,6.38-3.15,13.28-.41,19.19s8.91,8.92,13,13.78c7.74,9.13,6,24.67-3.59,31.85-3.05,2.29-6.91,4-8.37,7.56-1.33,3.22-.2,6.87-.27,10.35-.17,9-10.06,16.35-18.71,14-4.36-1.2-8.38-4.42-12.87-3.81s-7.43,4.73-11,7.4a19.37,19.37,0,0,1-24.32-1.8c-2.62-2.61-4.73-6.16-8.31-7.11s-7.34,1.1-11,.6c-4.79-.65-7.94-5.41-9.36-10s-1.79-9.64-4.19-13.85c-3.13-5.5-9.09-8.62-14.11-12.49A49,49,0,0,1,204.43,132"></path><path class="cls-8" d="M171,218.05a46.08,46.08,0,0,0-9.78,40.84c3.56,14.11,15.37,34.74,29,39.86,8.84-6.48,20.19-15.53,28.44-22.75,5.33-4.67,8.16-11.5,10.8-18.08,1.52-3.8,3.07-7.9,2.12-11.88-.71-2.93-2.69-5.37-4.78-7.54a61.13,61.13,0,0,0-52.94-17.66"></path><path class="cls-8" d="M211.45,116.45h0a24.27,24.27,0,0,1,27.75-12.77l34.11,8.7c17.05,5.49,30.4,31.88,20.35,55-7.94,18.25-16.07,41.18-24.22,53.78-16.4,25.32-38.82,19.54-38.82,19.54l-12.1,27-49.47-46.39Z"></path><path class="cls-6" d="M269.05,174.51c.64-.24,2.32,3,6,4.73s7.32,1.24,7.5,1.89c.1.3-.73.9-2.33,1.18a10.41,10.41,0,0,1-6.27-1,10,10,0,0,1-4.52-4.32C268.73,175.6,268.74,174.61,269.05,174.51Z"></path><path class="cls-6" d="M230.42,156.92c.72-.14,2.38,3.41,6.36,5.87s8,2.55,8.17,3.24c.09.32-.86.79-2.65.8a13.26,13.26,0,0,1-6.87-2.06,12.51,12.51,0,0,1-4.73-5.21C230,158,230.07,157,230.42,156.92Z"></path><path class="cls-6" d="M246.79,194.64c.08-.22,2.59.41,6.59,1.61,1,.32,2,.54,2.45-.05s.59-1.8.62-3.13c.13-2.72.27-5.58.4-8.57.67-12.15,1.61-22,2.1-21.95s.35,9.91-.32,22.07q-.28,4.49-.54,8.56c-.12,1.25,0,2.77-1.18,4a2.62,2.62,0,0,1-2.2.7,7,7,0,0,1-1.73-.49C249.08,195.89,246.71,194.86,246.79,194.64Z"></path><path class="cls-9" d="M230.57,240.75s-19.76-7.4-33.08-26.37c0,0,.75,23.16,30.06,33.16Z"></path><path class="cls-6" d="M233.52,144.1c.62-1,4.53.36,9.37.78s8.93,0,9.35,1.07c.18.53-.7,1.41-2.46,2.15a16.37,16.37,0,0,1-14.27-1.41C233.93,145.62,233.23,144.58,233.52,144.1Z"></path><path class="cls-6" d="M277.11,155.1c1.26,0,2.82,3.11,5.51,6.08s5.5,5,5.32,6.26c-.12.57-1.17.82-2.83.33a13,13,0,0,1-5.65-3.86,12.77,12.77,0,0,1-3.07-6.08C276.13,156.13,276.52,155.14,277.11,155.1Z"></path><path class="cls-9" d="M238.12,205.09s2.32-1.21,1.24-5.67-6.74-8.49-10.33-4.82c0,0-3.62.27-2.2,4.45s9.68,10.08,11.22,6.72"></path><path class="cls-6" d="M236.77,208.5c-.66-.12.34-4.47-2.66-8.42s-7.74-4.55-7.63-5.17c0-.29,1.23-.6,3.2-.2a11.07,11.07,0,0,1,6.42,4.07,9.66,9.66,0,0,1,2,7C237.8,207.63,237.06,208.59,236.77,208.5Z"></path><path class="cls-6" d="M182.28,102.25a21.32,21.32,0,0,0-8.2,17.47c.15,3.74,1.06,8.15-1.69,10.69s-7.22,1.19-11,1.21a14.18,14.18,0,0,0-13.54,12.13c-.27,2.37,0,4.92-1.17,7s-3.76,3.09-5.88,4.37a17.65,17.65,0,0,0,.59,30.53c2.45,1.35,5.31,2.2,7.1,4.35,2,2.47,2.12,6,3.13,9a14.82,14.82,0,0,0,28.08.2"></path><path class="cls-6" d="M237.58,92.68a21.1,21.1,0,0,0,16.91,27.73c4.74.7,10.4.1,13.46,3.79,3.22,3.88,1.31,10.06,3.86,14.42,3.63,6.21,9.84,11.17,15.72,15.33,4.55,3.21-.65,12.14,1.33,17.34s10.13,17.07,15.69,17.28c1.22-4.65,8.14-25.08,8.26-29.88s-1-9.8-3.94-13.58c-1.63-2.07-3.77-3.72-5.18-5.94-3.05-4.81-2-11-3-16.63a23.1,23.1,0,0,0-12.94-16.73c-5.56-2.54-12.06-2.82-17.19-6.13-3.79-2.45-6.5-6.36-10.43-8.58-7.65-4.32-17.23-1-25.14,2.8"></path><path class="cls-6" d="M200.75,150.81c-.79-.53-6,3.44-.86,6.61C209,163,216.75,144.22,216.41,138c4.62-2,9.3-3.93,13.37-7s10.15-13.21,11.24-18.33c3.47,1.41,20.24,1.54,18.78.53-3.31-2.29-10-7.2-10.89-11-1.93-8.35-7.86-15.62-15.7-17.8a19.52,19.52,0,0,0-21.59,9c-9.33-3.08-20.39-.31-27.83,7a32.55,32.55,0,0,0-8.88,28.94c.55,2.66,1.45,5.44.6,8.08-1.06,3.26-4.34,5-6.95,7.14-7.11,5.77-10.18,16-9.3,25.17s2.45,12.86,7,16.18c8.91,6.51-9.61,23.13,7,28.75"></path><path class="cls-10" d="M324.58,214.33c0-.06.59-.41,1.56-1.32a13.78,13.78,0,0,0,3.34-4.71,14.16,14.16,0,0,0,.94-8.91c-.78-3.49-3.41-6.81-6.93-9.64s-7.91-5.56-11.09-10.19-3.75-11-2.73-17,3.53-12,5.16-18.31a34.66,34.66,0,0,0,1.23-9.76,19.28,19.28,0,0,0-2.62-9.53,17.67,17.67,0,0,0-7.44-6.45,34.61,34.61,0,0,0-9.4-2.86,67.76,67.76,0,0,1-9.6-1.84,12,12,0,0,1-7.47-5.89c-1.45-2.86-1.77-5.89-2.4-8.64A17.4,17.4,0,0,0,273.89,92a20,20,0,0,0-12.25-7.32,21.06,21.06,0,0,0-11.86,1.42,27.2,27.2,0,0,0-7.69,5,39.7,39.7,0,0,0-5.07,6s0-.18.22-.48A14.91,14.91,0,0,1,238,95.3a25.55,25.55,0,0,1,3.73-4.61,27,27,0,0,1,7.75-5.3,21.7,21.7,0,0,1,12.31-1.67,20.92,20.92,0,0,1,12.95,7.58,18.44,18.44,0,0,1,3.5,7.76c.66,2.81,1,5.77,2.35,8.33a10.78,10.78,0,0,0,6.78,5.25,66,66,0,0,0,9.43,1.77,36,36,0,0,1,9.77,3,19,19,0,0,1,8,6.93,20.56,20.56,0,0,1,2.8,10.18,35.7,35.7,0,0,1-1.28,10.12c-1.69,6.43-4.23,12.3-5.22,18.19s-.53,11.81,2.44,16.17S320.64,186,324.09,189s6.29,6.46,7.05,10.19a14.68,14.68,0,0,1-1.19,9.29,13.45,13.45,0,0,1-3.63,4.69A7.29,7.29,0,0,1,324.58,214.33Z"></path><path class="cls-10" d="M293.91,154c.11.05-.49,1.43-1.1,4.05a29.64,29.64,0,0,0-.35,11.27,27.49,27.49,0,0,0,2.26,7.42,36.89,36.89,0,0,0,4.9,7.51,22.08,22.08,0,0,1,2.67,4.29,10.67,10.67,0,0,1,.94,5.3c-.29,3.72-2.12,7-3.48,10.39s-2.23,6.89-.92,10,3.69,5.44,5.94,7.68a30.41,30.41,0,0,1,5.87,7.14,11.18,11.18,0,0,1,1,8,13.38,13.38,0,0,1-7.16,8.91,10.42,10.42,0,0,1-3.05.85,3.82,3.82,0,0,1-1.1,0,20.37,20.37,0,0,0,3.93-1.3,13.15,13.15,0,0,0,6.47-8.67,10.34,10.34,0,0,0-1-7.33,29.75,29.75,0,0,0-5.76-6.78c-2.26-2.23-4.89-4.63-6.29-8.09a11,11,0,0,1-.67-5.54,21.56,21.56,0,0,1,1.58-5.41c1.41-3.45,3.15-6.66,3.41-10s-1.41-6.27-3.3-8.78a37,37,0,0,1-4.92-7.78,28.7,28.7,0,0,1-1.41-19.27,18.65,18.65,0,0,1,1.07-3A3.35,3.35,0,0,1,293.91,154Z"></path><path class="cls-10" d="M143.87,185.34s-.22-.12-.58-.42a11.83,11.83,0,0,1-1.45-1.47,15.73,15.73,0,0,1-3.32-7.11A15.28,15.28,0,0,1,141,164.47,16.5,16.5,0,0,1,155,157.58l-.55.74a25.34,25.34,0,0,1-1.69-10.41,13.35,13.35,0,0,1,5.35-10,10,10,0,0,1,5.85-2,14.73,14.73,0,0,1,6.05,1.71,23,23,0,0,0,5.59,2.15,6,6,0,0,0,5.29-1.56,11.72,11.72,0,0,0,3.28-7.87c.23-2.94-.05-5.93.25-8.92a25,25,0,0,1,7.37-15.16,23.84,23.84,0,0,1,13.54-6.57,24.54,24.54,0,0,1,12.71,1.59l-.56.23a13.08,13.08,0,0,1,6.88-6.32,14.36,14.36,0,0,1,6.93-1,12.18,12.18,0,0,1,4.21,1.22,5.94,5.94,0,0,1,1.27.84,14.93,14.93,0,0,0-5.52-1.58,14.21,14.21,0,0,0-6.62,1.19,12.42,12.42,0,0,0-6.35,6l-.18.38-.39-.15a23.93,23.93,0,0,0-12.23-1.37,23,23,0,0,0-12.85,6.38,23.85,23.85,0,0,0-6.93,14.43c-.29,2.83,0,5.81-.23,8.91a12.94,12.94,0,0,1-3.69,8.72,7.37,7.37,0,0,1-6.39,1.9,24.51,24.51,0,0,1-5.93-2.27,13.47,13.47,0,0,0-5.5-1.61,8.79,8.79,0,0,0-5.11,1.74A12.1,12.1,0,0,0,154,148a24.51,24.51,0,0,0,1.53,9.94l.27.78-.82,0A15.58,15.58,0,0,0,141.7,165a14.67,14.67,0,0,0-2.55,11.24,16,16,0,0,0,3,7C143.18,184.66,143.92,185.28,143.87,185.34Z"></path><path class="cls-10" d="M237.17,100.21c.06.23-1.95-.1-4.51,1.75s-4.77,6.18-5.42,11.74l-.06.47-.47,0A17.94,17.94,0,0,0,212,120.29a13.87,13.87,0,0,0-2.37,4,27.32,27.32,0,0,0-1,4.83,37.84,37.84,0,0,1-1,5.24,8.8,8.8,0,0,1-3.15,4.73c-3.32,2.59-7.4,3-11,3.6a31.23,31.23,0,0,0-10,2.59A23.17,23.17,0,0,0,171.9,157.8a24.21,24.21,0,0,0-1.37,11.66c.36,2.8.95,4.28.83,4.32s-.21-.34-.49-1.05a19.61,19.61,0,0,1-.84-3.19,23.58,23.58,0,0,1,1-12.07,23.88,23.88,0,0,1,11.91-13.29,32.07,32.07,0,0,1,10.33-2.77c3.56-.57,7.43-1.07,10.33-3.36,2.86-2,3.17-5.8,3.72-9.13a27.83,27.83,0,0,1,1.11-5.07,15.42,15.42,0,0,1,2.62-4.35,18.87,18.87,0,0,1,15.75-6.33l-.53.43c.8-5.78,3.24-10.26,6.08-12.08a7.7,7.7,0,0,1,3.51-1.31A4.36,4.36,0,0,1,237.17,100.21Z"></path><path class="cls-8" d="M202.68,153.65c2.85-5.58-1-12.61-7.25-12.6-3.45,0-7.15,1.88-10.23,7.78-8.21,15.74,9.29,20.74,9.55,20.3C194.91,168.86,199.34,160.2,202.68,153.65Z"></path><path class="cls-9" d="M193.05,160.66c0-.09-.37.05-1,0a3.08,3.08,0,0,1-2.07-1c-1.34-1.48-1.37-4.85,0-7.72a10,10,0,0,1,2.81-3.53,3.57,3.57,0,0,1,3.16-1,1.58,1.58,0,0,1,1.23,1.6c0,.55-.28.81-.22.88s.48-.09.69-.8a2,2,0,0,0-.1-1.31,2.36,2.36,0,0,0-1.31-1.2,4.37,4.37,0,0,0-4.14,1,10.62,10.62,0,0,0-3.24,3.89c-1.55,3.23-1.47,7,.46,8.89a3.34,3.34,0,0,0,2.72.89C192.82,161,193.09,160.71,193.05,160.66Z"></path><path class="cls-6" d="M187,372.27c-1.39-2.58-5-4.17-5-4.17l-3-7.35a8,8,0,0,0,0-5.77c-1.19-3.18-9.94-21.65-9.74-22.25l-2.26-.13s8.06,19.55,8.85,20.55,2,6.81,0,7.6-6.21-1.36-8-3.14-7.48-15.24-8.47-18,.77-6.65.77-6.65l1.59-3.78h-2.18a73.88,73.88,0,0,0-2.19,7.75c-.79,3.78,8.15,20.27,9.54,22.06s6.16,3.18,8.74,5,2.19,7.36,2.19,7.36a13.78,13.78,0,0,0-2.39,6.55c-.2,3.58,7.75,20.47,13.11,24s11.73,1,12.32,1.19,2-2.78,2-2.78S188.39,374.85,187,372.27Zm7.33,29.53a11.2,11.2,0,0,1-7.38-4.27c-.65-.86-7.61-13-8.51-15.22-1.56-3.93-.48-6.11.09-8.41.83-3.35,6-1.39,6-1.39s15.22,26.3,14.87,27.1S197.18,402,194.32,401.8Z"></path><path class="cls-6" d="M202.89,400.28s44.31-16.86,46.38-18.77,9.55-12.89,9.55-12.89,3.66.63,3.18,1.59-7.48,11.94-15,15.12-46.14,17.73-46.14,17.73Z"></path><path class="cls-5" d="M62.67,261.33,44.42,366.59s-6.72,20.48-5.76,25,4.35,23.8,14.59,29.88,30.52,2.11,34.68-2.05,12.36-11.78,13.32-15.3,7.69-57,7.69-57l2.67-15s-9.92,3.2-16-1S81.53,309,81.53,309l-9,13.76Z"></path><path class="cls-6" d="M81.53,309a2.89,2.89,0,0,1-.34.59l-1.09,1.65c-.94,1.42-2.3,3.49-3.93,6.07-3.28,5.16-7.66,12.37-12.45,20.38s-9.12,15.26-12.33,20.47c-1.6,2.6-2.92,4.69-3.86,6.13l-1.09,1.64a2.83,2.83,0,0,1-.41.55,4.06,4.06,0,0,1,.33-.61l1-1.69L51.08,358l12.19-20.54c4.79-8,9.23-15.2,12.59-20.31,1.68-2.56,3.08-4.6,4.08-6l1.16-1.59A3.76,3.76,0,0,1,81.53,309Z"></path><path class="cls-6" d="M109.32,344.94a2.78,2.78,0,0,1-.38.43c-.27.27-.63.7-1.17,1.17a20.33,20.33,0,0,1-5,3.41,15.88,15.88,0,0,1-4,1.27,15.1,15.1,0,0,1-4.86.12,19.79,19.79,0,0,1-5.18-1.4,28.45,28.45,0,0,1-5-2.79,27.26,27.26,0,0,1-4.23-3.9,27.46,27.46,0,0,1-6.08-12.92,26.15,26.15,0,0,1-.41-6.07c0-.72.12-1.27.15-1.65a2.51,2.51,0,0,1,.1-.57,22,22,0,0,1-.05,2.23,29.21,29.21,0,0,0,.57,6,28.53,28.53,0,0,0,3.08,8.35,29,29,0,0,0,3,4.3,27.59,27.59,0,0,0,4.15,3.82,28.64,28.64,0,0,0,4.93,2.74,19.73,19.73,0,0,0,5,1.4,15.15,15.15,0,0,0,4.72-.07,16.29,16.29,0,0,0,4-1.18,21.44,21.44,0,0,0,5.06-3.23C108.72,345.46,109.28,344.9,109.32,344.94Z"></path><path class="cls-8" d="M81.53,309l13.66-8.78s36.4-14.79,40.1-15.64,8-2.56,10,0S168,302.2,168,302.2s12.23,23,12.23,26.17,3.41,7.13,0,8.26l-3.41,1.12s-1.14,5.58-5.41,6.2-5.69,0-5.69,0-.28,5.58-3.69,5.24-9.1-5.24-9.1-5.24-2.56,2.9-4.56,2.9-8.24-4.26-8.24-4.26L128,332.06l-10.66-3.69L111.61,332s-12.3,1-14.15,0S81.53,309,81.53,309Z"></path><path class="cls-9" d="M151.44,344.94a10.16,10.16,0,0,1-.63-1.62c-.18-.52-.41-1.16-.72-1.89s-.61-1.57-1.05-2.46-.87-1.89-1.43-2.91-1.19-2.09-1.86-3.22a56.89,56.89,0,0,0-5.07-6.83,58.9,58.9,0,0,0-6.11-5.92c-1-.81-2-1.61-3-2.26s-1.85-1.28-2.69-1.8-1.63-1-2.31-1.36-1.28-.72-1.78-1a13.29,13.29,0,0,1-1.52-.83,9.69,9.69,0,0,1,1.61.65,19.25,19.25,0,0,1,1.83.88c.7.37,1.51.77,2.36,1.3s1.79,1.08,2.75,1.77,2,1.43,3,2.23a55.2,55.2,0,0,1,6.2,6,54.24,54.24,0,0,1,5.09,6.92c.67,1.14,1.32,2.21,1.83,3.28s1,2,1.39,2.95.7,1.77,1,2.51a19.57,19.57,0,0,1,.64,1.93A12.84,12.84,0,0,1,151.44,344.94Z"></path><path class="cls-9" d="M165.7,344.59s-.12-.14-.31-.44-.47-.73-.78-1.32a37.34,37.34,0,0,1-2.22-5.18c-.79-2.24-1.56-5-2.46-8a42,42,0,0,0-3.84-9.35,24.59,24.59,0,0,0-6.84-7.34c-2.52-1.83-4.95-3.31-6.8-4.83a17.26,17.26,0,0,1-3.86-4.1,10,10,0,0,1-.72-1.36,1.5,1.5,0,0,1-.19-.5s.33.66,1.08,1.74a18.09,18.09,0,0,0,3.92,3.93c1.86,1.46,4.29,2.9,6.85,4.73a24.55,24.55,0,0,1,7,7.46,41.14,41.14,0,0,1,3.86,9.48c.88,3,1.6,5.74,2.35,8a45,45,0,0,0,2,5.2A19,19,0,0,1,165.7,344.59Z"></path><path class="cls-9" d="M176,338a1.89,1.89,0,0,1-.16-.49c-.09-.39-.2-.86-.34-1.44s-.31-1.39-.57-2.26-.48-1.89-.87-3-.74-2.27-1.25-3.52-1.07-2.57-1.68-3.95a69.36,69.36,0,0,0-4.86-8.53,67.67,67.67,0,0,0-6.16-7.66c-1-1.08-2-2.13-3-3s-1.93-1.73-2.82-2.46-1.71-1.34-2.43-1.9-1.36-1-1.9-1.36l-1.21-.84c-.27-.2-.41-.31-.4-.33a2.31,2.31,0,0,1,.46.24l1.27.77c.55.33,1.21.75,1.95,1.29s1.61,1.11,2.49,1.85,1.89,1.5,2.88,2.43,2,1.92,3.11,3a65.75,65.75,0,0,1,6.24,7.7,64.64,64.64,0,0,1,4.86,8.62c.61,1.4,1.21,2.71,1.65,4s.87,2.46,1.2,3.57.58,2.11.81,3,.38,1.66.48,2.3.18,1.07.25,1.46A1.79,1.79,0,0,1,176,338Z"></path><path class="cls-9" d="M122.38,299.17c0,.08-.71.19-1.76.65a8.43,8.43,0,0,0-5.11,6.74c-.15,1.14-.06,1.86-.15,1.87a3.85,3.85,0,0,1-.21-1.9,7.93,7.93,0,0,1,5.34-7.06A3.79,3.79,0,0,1,122.38,299.17Z"></path><path class="cls-9" d="M132.52,289.53c.08.14-1.68,1.25-3.42,3.11s-2.78,3.66-2.92,3.59a12.66,12.66,0,0,1,6.34-6.7Z"></path><path class="cls-8" d="M275.23,170.78c-1.73.72-2.08,2.78-2.05,4.66,0,2.34.62,2.72,2.53,6.64,3.13,6.41,6.87,18.57,6.87,18.57s-3.07,30.7-1.05,37.91a12.2,12.2,0,0,0,8,8.17l-2.8,23.71h33.49s-1.19-22.95-1.91-29.95c-.76-7.4-.26-52.15-.26-52.15l-3.29-23.89L307,151a6.05,6.05,0,0,0-2.29,7.35c1.75,4.91,2.9,14.34,2.9,14.34L288.2,143.54s-3.81.91-4,8c0,0-5.64,3.67-2,9.63,4.05,6.65,8.27,26.63,6.79,26.63l-12-17.67Z"></path><path class="cls-9" d="M286.7,270.44s0-.53.15-1.57.29-2.59.51-4.59c.46-4,1.14-10,2-17.57l.09.14a12.44,12.44,0,0,1-4.26-2.37,11.43,11.43,0,0,1-3.2-4.22,16.26,16.26,0,0,1-1.18-5.59q-.17-3-.14-6.1c.09-8.39.74-17.76,1.69-27.94v.08c-1.57-4.94-3.31-10.15-5.49-15.43-.55-1.32-1.13-2.63-1.79-3.93a31.74,31.74,0,0,1-1.92-4,8.46,8.46,0,0,1-.24-2.29,8,8,0,0,1,.34-2.3,3.42,3.42,0,0,1,1.4-1.93,6.82,6.82,0,0,1,1.07-.5l1.06-.44.18-.07.11.16,12.56,18.41-.46.1a19.43,19.43,0,0,0-.06-4.63,39.8,39.8,0,0,0-.8-4.68,72.1,72.1,0,0,0-2.8-9.29c-1.1-3.09-2.49-6.09-3.84-9.18a8.22,8.22,0,0,1-.54-5.09,7.48,7.48,0,0,1,2.86-4.32l-.11.19A18.55,18.55,0,0,1,285,147a9.29,9.29,0,0,1,1.18-2.13,4.17,4.17,0,0,1,2-1.55l.16-.05.11.16.23.34c6.55,9.88,13,19.53,19.16,28.85l-.47.17a102.91,102.91,0,0,0-2-11.43c-.23-.93-.49-1.84-.79-2.73a7.82,7.82,0,0,1-.48-2.88,6.26,6.26,0,0,1,2.83-4.89l.21-.14.13.23,7.75,13.42,0,0v0q1.71,12.54,3.27,23.9v0h0c-.14,12.38-.21,23.71-.19,33.73,0,5,0,9.7.15,14,.06,2.16.18,4.22.38,6.2s.29,3.86.41,5.66c.47,7.16.75,12.78.95,16.61.09,1.91.16,3.37.2,4.37s.05,1.5.05,1.5-.05-.51-.11-1.5-.16-2.46-.27-4.36c-.24-3.83-.57-9.45-1.07-16.61-.13-1.79-.26-3.67-.43-5.65s-.35-4-.42-6.22c-.13-4.33-.17-9-.2-14-.05-10,0-21.35.12-33.73v0q-1.57-11.34-3.31-23.89l0,.08q-3.79-6.52-7.77-13.4l.34.08a5.85,5.85,0,0,0-2.59,4.49,7.67,7.67,0,0,0,.46,2.7q.46,1.37.81,2.76a105,105,0,0,1,2.07,11.5l.14,1.09-.61-.92L288.21,144l-.22-.34.27.11a3.81,3.81,0,0,0-1.7,1.36,8.47,8.47,0,0,0-1.1,2,18.11,18.11,0,0,0-1,4.38v.11l-.1.08a7,7,0,0,0-2.65,4,7.73,7.73,0,0,0,.52,4.78c1.33,3.05,2.74,6.09,3.84,9.19a72.71,72.71,0,0,1,2.82,9.36,40.43,40.43,0,0,1,.8,4.74,19.51,19.51,0,0,1,.05,4.77l-.08.64-.37-.54c-4.33-6.38-8.55-12.58-12.53-18.43l.29.08c-.69.31-1.48.56-2.07.9a3,3,0,0,0-1.21,1.68,7.78,7.78,0,0,0-.31,2.16,8.06,8.06,0,0,0,.22,2.15,32.29,32.29,0,0,0,1.88,4c.66,1.3,1.25,2.63,1.8,4,2.18,5.31,3.91,10.52,5.47,15.48v.08c-1,10.17-1.64,19.54-1.76,27.91q0,3.13.12,6.07a15.8,15.8,0,0,0,1.13,5.49,12,12,0,0,0,7.25,6.46l.11,0v.1c-.93,7.59-1.65,13.51-2.14,17.55l-.57,4.59C286.79,269.91,286.7,270.44,286.7,270.44Z"></path><path class="cls-9" d="M301.5,190.33a9.88,9.88,0,0,1-.36-1.65c-.19-1.08-.51-2.62-.94-4.51a75.65,75.65,0,0,0-4.95-14.3,97.08,97.08,0,0,0-7.55-13.16c-1.08-1.61-2-2.9-2.61-3.79a11.05,11.05,0,0,1-.93-1.42,9.87,9.87,0,0,1,1.09,1.3c.68.85,1.63,2.11,2.76,3.7a84.54,84.54,0,0,1,7.71,13.15,68.2,68.2,0,0,1,4.84,14.44c.38,1.91.66,3.47.78,4.55A9.61,9.61,0,0,1,301.5,190.33Z"></path><path class="cls-9" d="M311.9,182.88a32.25,32.25,0,0,1-2.45-5.2,32.28,32.28,0,0,1-2-5.39,30.92,30.92,0,0,1,2.45,5.19A32.2,32.2,0,0,1,311.9,182.88Z"></path><path class="cls-5" d="M284,260.62h0c-5.87,51.87-13.52,107.1-22.32,164.46h68.17c12.82-28.38,5-53.14,1.56-88.43l-11.24-80.13Z"></path><path class="cls-6" d="M261.7,425.08a1.64,1.64,0,0,1,0-.33l.12-1c.13-.89.3-2.16.52-3.78l2-13.87c1.72-11.74,4.1-27.9,6.72-45.76s4.75-34.09,6.18-45.83c.73-5.88,1.28-10.63,1.65-13.92.19-1.62.34-2.89.45-3.79l.12-1a1.52,1.52,0,0,1,.07-.33s0,.11,0,.33l-.08,1c-.08.9-.2,2.18-.35,3.8-.31,3.29-.8,8.06-1.49,13.94-1.34,11.76-3.45,28-6,45.87s-5.06,34-6.88,45.74c-.92,5.82-1.66,10.54-2.18,13.84-.26,1.61-.47,2.87-.61,3.77-.07.4-.13.73-.18,1A1.77,1.77,0,0,1,261.7,425.08Z"></path></g><g id="Device"><path class="cls-10" d="M409.4,424.63H215L240.09,288.2a10.2,10.2,0,0,1,10-8.35H424.79a10.2,10.2,0,0,1,10,12.11Z"></path><path class="cls-10" d="M215,424.63H141.27l.3-.22a39.88,39.88,0,0,1,22.74-8L217,414.9Z"></path><path class="cls-6" d="M261.7,280c0,.05-.54-.1-1.57-.11a9.77,9.77,0,0,0-4.32,1.08,13.22,13.22,0,0,0-5.18,4.71,25,25,0,0,0-3.18,8.82c-.63,3.45-1.19,7.28-1.88,11.37s-1.45,8.45-2.31,13c-1.69,9.17-3.7,19.23-5.88,29.76-4.39,21.07-8.46,40.12-11.11,54-1.34,6.92-2.37,12.53-3.07,16.41-.35,1.9-.62,3.39-.81,4.46-.1.48-.17.86-.23,1.16s-.09.4-.11.39a2,2,0,0,1,0-.4c0-.3.1-.69.16-1.17.17-1.08.39-2.58.68-4.49.61-3.9,1.57-9.52,2.84-16.46,2.53-13.88,6.52-32.95,10.91-54,2.18-10.53,4.2-20.57,5.93-29.73.88-4.57,1.65-8.93,2.38-13s1.3-7.89,2-11.37a25.06,25.06,0,0,1,3.34-8.94,13.4,13.4,0,0,1,5.4-4.75,9.38,9.38,0,0,1,4.44-1A5.55,5.55,0,0,1,261.7,280Z"></path><path class="cls-4" d="M343.8,349.17a9.4,9.4,0,1,1-9.4-9.4A9.4,9.4,0,0,1,343.8,349.17Z"></path></g><g id="Desk"><path class="cls-6" d="M457.24,424.79c0,.14-102.37.26-228.61.26S0,424.93,0,424.79s102.34-.26,228.63-.26S457.24,424.64,457.24,424.79Z"></path></g><g id="Lighting_bolts" data-name="Lighting bolts"><polygon class="cls-5" points="186.2 66.59 183.53 41.48 170.72 44.37 159.68 24.87 166.56 51.23 179.55 48.25 186.2 66.59"></polygon><polygon class="cls-5" points="180.98 71.33 169.08 59.08 163.47 65.97 149.46 60.2 164.12 71.36 169.79 64.35 180.98 71.33"></polygon><polygon class="cls-5" points="309.62 82.16 320.44 62.48 329.95 69.25 345.7 57.05 331.01 76.31 321.37 69.41 309.62 82.16"></polygon><polygon class="cls-5" points="329.47 93.39 340.66 88.62 342.45 94.68 353.24 94.75 340.54 98.04 338.74 91.88 329.47 93.39"></polygon></g><g id="Line"><path class="cls-6" d="M251.85,16.93s.45-.29,1.35-.83A36.57,36.57,0,0,1,257.37,14a40.44,40.44,0,0,1,17.69-3.26,29.59,29.59,0,0,1,3.05.25,19.22,19.22,0,0,1,3.18.58,13,13,0,0,1,3.15,1.28A7,7,0,0,1,287,15.33a5.37,5.37,0,0,1,.62,3.66,7.35,7.35,0,0,1-1.85,3.43,17,17,0,0,1-7,4.25,43.94,43.94,0,0,1-18.07,2.59A44.24,44.24,0,0,1,241,23.21l-.14-.08.09-.14a27.12,27.12,0,0,1,10.38-9.54,36.43,36.43,0,0,1,14.46-4.14,56,56,0,0,1,15.9,1.28q4,.87,8,2.12a45.39,45.39,0,0,1,8,3,15.48,15.48,0,0,1,6.41,5.87,10.66,10.66,0,0,1,1.39,4.25,9,9,0,0,1-.74,4.46,13.9,13.9,0,0,1-6.5,6.28,35.94,35.94,0,0,1-8.75,3.07,91.5,91.5,0,0,1-38.54,1c-.83-.14-1.64-.34-2.47-.51s-1.64-.36-2.46-.57a31.78,31.78,0,0,1-4.87-1.5,16.22,16.22,0,0,1-4.45-2.6A7.63,7.63,0,0,1,234,31a7.06,7.06,0,0,1,1.12-5.11,14.08,14.08,0,0,1,3.73-3.73,28.57,28.57,0,0,1,4.61-2.58c.79-.4,1.61-.75,2.42-1.09s1.63-.69,2.47-1a62.81,62.81,0,0,1,21.1-4,63.83,63.83,0,0,1,10.94.76c.91.14,1.82.29,2.72.5s1.82.36,2.71.61a31.62,31.62,0,0,1,5.31,1.72,17.74,17.74,0,0,1,4.8,2.95,9.37,9.37,0,0,1,3,4.79l.15.71.06.73a8.82,8.82,0,0,1,0,1.45,8.64,8.64,0,0,1-.83,2.76A13.67,13.67,0,0,1,294.67,35a25,25,0,0,1-4.8,3.15c-.85.45-1.73.83-2.61,1.2s-1.76.75-2.66,1.09a78.61,78.61,0,0,1-11,3.39,80.63,80.63,0,0,1-23.23,1.92,27.11,27.11,0,0,1-11.43-3,12.44,12.44,0,0,1-4.47-4A9.59,9.59,0,0,1,233,32.86a10.53,10.53,0,0,1,1.62-4.68,17.16,17.16,0,0,1,3.22-3.73,29.54,29.54,0,0,1,8.33-5,58.58,58.58,0,0,1,18.66-4.5,59.31,59.31,0,0,1,9.52.07c1.58.14,3.15.33,4.71.61a25.58,25.58,0,0,1,4.61,1.11,16.19,16.19,0,0,1,4.24,2.12A8.52,8.52,0,0,1,291,22.48a6.57,6.57,0,0,1,.15,4.72,9.27,9.27,0,0,1-2.65,3.89c-2.4,2.12-5.5,3-8.45,3.73s-5.93,1.41-8.89,2.06a131.2,131.2,0,0,1-17.77,2.87,63.64,63.64,0,0,1-17.62-.85,42.8,42.8,0,0,1-15.94-6.5l-.26-.17.23-.21A55.67,55.67,0,0,1,248.54,19a54.75,54.75,0,0,1,29.83,3.85,14.29,14.29,0,0,1,3.12,2,7.25,7.25,0,0,1,2.17,3,5.24,5.24,0,0,1-.18,3.7,7.39,7.39,0,0,1-2.36,2.8,21.77,21.77,0,0,1-6.48,3A45.75,45.75,0,0,1,267.81,39a44.38,44.38,0,0,1-13.66,0A6.73,6.73,0,0,1,251,37.76a3.3,3.3,0,0,1-1.15-3.15,5.74,5.74,0,0,1,1.75-2.86,11.51,11.51,0,0,1,2.7-1.89A47.23,47.23,0,0,1,278.65,26a22,22,0,0,1,5.77,1.33,10.48,10.48,0,0,1,4.64,3.43,7.74,7.74,0,0,1,1.59,5.38,7.39,7.39,0,0,1-2.8,4.7,28.57,28.57,0,0,1-4.49,2.93A42.73,42.73,0,0,1,278.65,46a45.26,45.26,0,0,1-9.6,2.65,44.37,44.37,0,0,1-18-.78l-.19,0,.11-.15a21.57,21.57,0,0,1,10-7.47,21.27,21.27,0,0,1,10.92-1.08,11.21,11.21,0,0,1,4.62,1.73,6.3,6.3,0,0,1,1.63,1.67,5,5,0,0,1,.74,2.11,6,6,0,0,1-1.1,3.94,11,11,0,0,1-2.58,2.67,21.9,21.9,0,0,1-5.53,2.68,30.05,30.05,0,0,0-4.05,1.81,11.37,11.37,0,0,0-2.18,1.57c-.22.2-.37.37-.48.48l-.16.16a8.86,8.86,0,0,1,.62-.67,11.07,11.07,0,0,1,2.16-1.6,28,28,0,0,1,4-1.84,22.55,22.55,0,0,0,5.49-2.7,10.69,10.69,0,0,0,2.53-2.65,5.82,5.82,0,0,0,1.06-3.83,4.64,4.64,0,0,0-.72-2A5.67,5.67,0,0,0,276.42,41a10.9,10.9,0,0,0-4.54-1.69,21.07,21.07,0,0,0-10.81,1.09,21.43,21.43,0,0,0-9.88,7.41l-.07-.2a44.24,44.24,0,0,0,17.88.74,45.7,45.7,0,0,0,9.53-2.65,44.11,44.11,0,0,0,4.68-2.2,28.36,28.36,0,0,0,4.43-2.9,7.14,7.14,0,0,0,2.68-4.48A7.44,7.44,0,0,0,288.78,31a10.1,10.1,0,0,0-4.49-3.31,21.15,21.15,0,0,0-5.68-1.29,46.71,46.71,0,0,0-24.15,3.81,11.07,11.07,0,0,0-2.6,1.82,5.36,5.36,0,0,0-1.63,2.64,2.92,2.92,0,0,0,1,2.77,6.35,6.35,0,0,0,3,1.19,44.1,44.1,0,0,0,13.52,0A46,46,0,0,0,274.51,37a21.42,21.42,0,0,0,6.35-3,7.07,7.07,0,0,0,2.22-2.64,4.75,4.75,0,0,0,.16-3.38,6.71,6.71,0,0,0-2-2.83,13.6,13.6,0,0,0-3-2,54.4,54.4,0,0,0-29.56-3.79,55.17,55.17,0,0,0-28.51,13l0-.39a42.72,42.72,0,0,0,15.77,6.42,63.37,63.37,0,0,0,17.48.84A129.44,129.44,0,0,0,271,36.38c3-.65,5.91-1.35,8.88-2.06s6-1.59,8.23-3.61a8.64,8.64,0,0,0,2.5-3.67,6.1,6.1,0,0,0-.14-4.37,8,8,0,0,0-2.88-3.4,16.32,16.32,0,0,0-4.11-2.06A25.55,25.55,0,0,0,279,16.13c-1.54-.27-3.1-.47-4.66-.61a59.61,59.61,0,0,0-9.45-.06,58.18,58.18,0,0,0-18.49,4.46,29,29,0,0,0-8.19,4.92c-2.36,2.1-4.4,4.87-4.66,8.07a9.06,9.06,0,0,0,1.36,5.51,12,12,0,0,0,4.28,3.83,26.65,26.65,0,0,0,11.21,2.94,80.4,80.4,0,0,0,23.09-1.9,79.37,79.37,0,0,0,11-3.37q1.33-.51,2.64-1.08c.87-.37,1.74-.75,2.57-1.19a24.65,24.65,0,0,0,4.71-3.08,13.29,13.29,0,0,0,3.49-4.27,8.48,8.48,0,0,0,.79-2.61,8.7,8.7,0,0,0,0-1.35l-.06-.68-.14-.67a8.8,8.8,0,0,0-2.87-4.53,17.14,17.14,0,0,0-4.66-2.86,31,31,0,0,0-5.23-1.7c-.89-.24-1.79-.42-2.69-.61s-1.79-.35-2.7-.49A62.89,62.89,0,0,0,248.51,18c-.83.29-1.64.62-2.45,1s-1.61.68-2.4,1.08a28.37,28.37,0,0,0-4.54,2.54,13.37,13.37,0,0,0-3.6,3.59A6.6,6.6,0,0,0,234.46,31,7.16,7.16,0,0,0,237,35.11a15.65,15.65,0,0,0,4.32,2.54,31.82,31.82,0,0,0,4.81,1.47c.81.21,1.62.41,2.44.57s1.63.37,2.45.51a91.1,91.1,0,0,0,38.35-1,35.43,35.43,0,0,0,8.66-3c2.65-1.4,5.12-3.36,6.31-6.07a8.5,8.5,0,0,0,.71-4.24,10.23,10.23,0,0,0-1.34-4.09,15,15,0,0,0-6.23-5.71,46,46,0,0,0-7.88-3c-2.67-.83-5.34-1.54-8-2.11a55.26,55.26,0,0,0-15.79-1.3,36,36,0,0,0-14.32,4.08,26.91,26.91,0,0,0-10.27,9.4l-.06-.23a43.94,43.94,0,0,0,19.55,6,43.6,43.6,0,0,0,18-2.54,16.78,16.78,0,0,0,6.94-4.17A7.18,7.18,0,0,0,287.41,19a5.13,5.13,0,0,0-.59-3.51,6.74,6.74,0,0,0-2.49-2.4,12.58,12.58,0,0,0-3.1-1.27,19.58,19.58,0,0,0-3.15-.59c-1-.14-2-.21-3-.26a40.72,40.72,0,0,0-17.65,3.17,39.1,39.1,0,0,0-4.18,2.05C252.32,16.67,251.85,16.93,251.85,16.93Z"></path></g></g></svg>