<svg xmlns="http://www.w3.org/2000/svg" viewBox="0 0 464.86 450.64"><defs><style>.cls-1{fill:#f5f5f5;}.cls-2{fill:#e0e0e0;}.cls-3{fill:#fff;}.cls-4{fill:#ebebeb;}.cls-5{fill:#ffbe9d;}.cls-6{fill:#eb996e;}.cls-7{fill:#263238;}.cls-8{fill:#455a64;}.cls-9{fill:#cf2027;}.cls-10{opacity:0.3;}</style></defs><title>Asset 1q3</title><g id="Layer_2" data-name="Layer 2"><g id="Background_Complete" data-name="Background Complete"><rect class="cls-1" x="11.05" y="286.47" width="93.51" height="84.19"></rect><rect class="cls-2" x="23.24" y="322.34" width="69.12" height="25.75" rx="7.53"></rect><path class="cls-2" d="M104,302.46c0,.14-20.61.25-46,.25s-46-.11-46-.25,20.61-.26,46-.26S104,302.32,104,302.46Z"></path><path class="cls-2" d="M21.48,296.18a2.32,2.32,0,1,1-2.32-2.31A2.32,2.32,0,0,1,21.48,296.18Z"></path><path class="cls-2" d="M28.34,296.18A2.32,2.32,0,1,1,26,293.87,2.32,2.32,0,0,1,28.34,296.18Z"></path><path class="cls-2" d="M35.19,296.18a2.32,2.32,0,1,1-2.32-2.31A2.32,2.32,0,0,1,35.19,296.18Z"></path><path class="cls-3" d="M41.23,335.92v1.14a1.88,1.88,0,0,1-2,2.15c-1.32,0-2-.78-2-2.15v-4.45c0-1.37.68-2.15,2-2.15a1.88,1.88,0,0,1,2,2.15v.83H40v-.92c0-.61-.27-.84-.7-.84s-.7.23-.7.84v4.63c0,.61.27.83.7.83s.7-.22.7-.83v-1.23Z"></path><path class="cls-3" d="M42.05,330.55h1.34v7.34h2.22v1.23H42.05Z"></path><path class="cls-3" d="M46.19,330.55h1.35v8.57H46.19Z"></path><path class="cls-3" d="M52.42,335.92v1.14a1.88,1.88,0,0,1-2,2.15c-1.32,0-2-.78-2-2.15v-4.45c0-1.37.68-2.15,2-2.15a1.88,1.88,0,0,1,2,2.15v.83H51.15v-.92c0-.61-.27-.84-.7-.84s-.7.23-.7.84v4.63c0,.61.27.83.7.83s.7-.22.7-.83v-1.23Z"></path><path class="cls-3" d="M55,335.7l-.42.79v2.63H53.24v-8.57h1.34v3.73l1.77-3.73h1.34l-1.87,3.82,1.87,4.75H56.31Z"></path><path class="cls-3" d="M61.54,339.12H60.2v-8.57h1.34v3.67h1.53v-3.67h1.37v8.57H63.07v-3.67H61.54Z"></path><path class="cls-3" d="M66.77,334.16h1.84v1.22H66.77v2.51h2.32v1.23H65.42v-8.57h3.67v1.23H66.77Z"></path><path class="cls-3" d="M72.74,339.12a2.49,2.49,0,0,1-.13-1.06v-1.34c0-.8-.27-1.09-.88-1.09h-.46v3.49H69.92v-8.57h2c1.4,0,2,.65,2,2v.67a1.7,1.7,0,0,1-.88,1.74c.67.28.89.93.89,1.82v1.33a2.45,2.45,0,0,0,.15,1Zm-1.47-7.34v2.63h.52c.51,0,.81-.22.81-.91v-.84c0-.61-.21-.88-.68-.88Z"></path><path class="cls-3" d="M76.18,334.16H78v1.22H76.18v2.51h2.33v1.23H74.84v-8.57h3.67v1.23H76.18Z"></path><rect class="cls-2" x="21.28" y="42.53" width="122.61" height="45.68" rx="12.66"></rect><path class="cls-3" d="M53.19,66.62v2c0,2.43-1.22,3.82-3.56,3.82s-3.56-1.39-3.56-3.82v-7.9c0-2.43,1.22-3.81,3.56-3.81s3.56,1.38,3.56,3.81v1.48H50.93V60.58c0-1.08-.47-1.49-1.23-1.49s-1.24.41-1.24,1.49v8.21c0,1.08.48,1.47,1.24,1.47s1.23-.39,1.23-1.47V66.62Z"></path><path class="cls-3" d="M54.64,57.09H57v13H61v2.17H54.64Z"></path><path class="cls-3" d="M62,57.09h2.39V72.28H62Z"></path><path class="cls-3" d="M73,66.62v2c0,2.43-1.21,3.82-3.56,3.82s-3.55-1.39-3.55-3.82v-7.9c0-2.43,1.21-3.81,3.55-3.81S73,58.3,73,60.73v1.48H70.79V60.58c0-1.08-.48-1.49-1.24-1.49s-1.24.41-1.24,1.49v8.21c0,1.08.48,1.47,1.24,1.47s1.24-.39,1.24-1.47V66.62Z"></path><path class="cls-3" d="M77.62,66.23l-.74,1.38v4.67H74.5V57.09h2.38v6.62L80,57.09h2.38l-3.32,6.77,3.32,8.42H79.94Z"></path><path class="cls-3" d="M89.23,72.28H86.84V57.09h2.39V63.6h2.71V57.09h2.43V72.28H91.94V65.77H89.23Z"></path><path class="cls-3" d="M98.5,63.49h3.27v2.17H98.5v4.45h4.12v2.17H96.11V57.09h6.51v2.17H98.5Z"></path><path class="cls-3" d="M109.08,72.28a4.74,4.74,0,0,1-.21-1.87V68c0-1.41-.48-1.93-1.57-1.93h-.82v6.18h-2.39V57.09h3.6c2.48,0,3.54,1.15,3.54,3.49v1.2c0,1.56-.5,2.58-1.56,3.08,1.19.5,1.58,1.65,1.58,3.23v2.35a4.46,4.46,0,0,0,.26,1.84Zm-2.6-13v4.66h.93c.89,0,1.43-.39,1.43-1.6v-1.5c0-1.08-.36-1.56-1.21-1.56Z"></path><path class="cls-3" d="M115.2,63.49h3.28v2.17H115.2v4.45h4.12v2.17h-6.51V57.09h6.51v2.17H115.2Z"></path><polygon class="cls-1" points="323.17 42.34 323.17 138.35 323.17 157.63 341.74 138.35 429.81 138.35 429.81 42.34 323.17 42.34"></polygon><path class="cls-2" d="M429.22,60.56c0,.16-23.5.29-52.49.29s-52.5-.13-52.5-.29,23.5-.28,52.5-.28S429.22,60.4,429.22,60.56Z"></path><path class="cls-2" d="M335.07,53.41a2.65,2.65,0,1,1-2.64-2.64A2.65,2.65,0,0,1,335.07,53.41Z"></path><path class="cls-2" d="M342.89,53.41a2.65,2.65,0,1,1-2.65-2.64A2.65,2.65,0,0,1,342.89,53.41Z"></path><path class="cls-2" d="M350.71,53.41a2.65,2.65,0,1,1-2.65-2.64A2.65,2.65,0,0,1,350.71,53.41Z"></path><path class="cls-2" d="M361.72,102.68h-7.07l-1.31,3.25h-4.82l7.38-16.71h4.65l7.4,16.71H363Zm-1.39-3.48-2.14-5.35L356,99.2Z"></path><path class="cls-2" d="M369.28,89.22h7.9c5.54,0,9.33,3.23,9.33,8.36s-3.79,8.35-9.33,8.35h-7.9ZM377,102.16c2.84,0,4.75-1.69,4.75-4.58S379.83,93,377,93h-3v9.16Z"></path><path class="cls-2" d="M387.82,104.43l1.56-3.49a10.47,10.47,0,0,0,5.51,1.65c2,0,2.72-.55,2.72-1.36,0-2.65-9.5-.72-9.5-6.92,0-3,2.43-5.42,7.4-5.42a12.46,12.46,0,0,1,6.06,1.46l-1.46,3.5a9.92,9.92,0,0,0-4.63-1.28c-2,0-2.69.66-2.69,1.5,0,2.55,9.47.64,9.47,6.8,0,2.91-2.43,5.39-7.4,5.39A13.25,13.25,0,0,1,387.82,104.43Z"></path><path class="cls-1" d="M430.54,357.59A23.5,23.5,0,1,1,420,326.12,23.47,23.47,0,0,1,430.54,357.59Z"></path><path class="cls-4" d="M425.54,355.1a17.91,17.91,0,1,1-8.05-24A17.9,17.9,0,0,1,425.54,355.1Z"></path><path class="cls-2" d="M425.79,354.59a10.57,10.57,0,0,1,.53-2.14,19,19,0,0,0,.61-5.83,18.73,18.73,0,0,0-.67-4,18,18,0,0,0-1.84-4.22,17.57,17.57,0,0,0-3.19-3.93,18.07,18.07,0,0,0-2.11-1.65,18,18,0,0,0-5-2.31,18.85,18.85,0,0,0-2.63-.53,17.46,17.46,0,0,0-2.59-.12,16.67,16.67,0,0,0-2.48.25,17.84,17.84,0,0,0-7.84,3.42,19.08,19.08,0,0,0-4,4.25c-.8,1.15-1.18,1.85-1.28,1.8a5.41,5.41,0,0,1,.82-2.08,16.71,16.71,0,0,1,3.89-4.72,18,18,0,0,1,3.57-2.35,18.37,18.37,0,0,1,4.66-1.56,16.27,16.27,0,0,1,2.65-.31,17.46,17.46,0,0,1,2.79.09,17.9,17.9,0,0,1,2.85.55,20.06,20.06,0,0,1,2.8,1,20.36,20.36,0,0,1,2.59,1.46,19.38,19.38,0,0,1,2.27,1.81,18.1,18.1,0,0,1,3.38,4.28,18.48,18.48,0,0,1,1.84,4.56,18.23,18.23,0,0,1,.54,4.23,16.57,16.57,0,0,1-1.07,6A5.23,5.23,0,0,1,425.79,354.59Z"></path><path class="cls-2" d="M406.56,357.56l-1.35,2.81-2.51-1.21,1.31-2.73a13.24,13.24,0,0,1-5.28-5l2.85-2.4a11.21,11.21,0,0,0,4,4.12l2-4.19c-2.46-2-5.12-4.44-3.4-8,1.28-2.66,4.31-4,8.5-2.56l1.34-2.79,2.51,1.21-1.32,2.74a12.58,12.58,0,0,1,4.36,4L416.86,346a11.4,11.4,0,0,0-3.21-3.15l-2.06,4.27c2.48,2,5.09,4.39,3.39,7.93C413.72,357.64,410.73,359,406.56,357.56Zm2.83-12.3,1.71-3.56c-1.47-.34-2.35.13-2.75,1S408.45,344.38,409.39,345.26Zm1.4,8.13c.43-.88-.07-1.71-1-2.6l-1.67,3.46C409.54,354.58,410.41,354.19,410.79,353.39Z"></path></g><g id="Character"><path class="cls-5" d="M269.15,186.82l-2.27,92.12c-.38,15.67-4.15,38.6-28.89,36.86h0c-21.35-3.13-26.28-23.63-25.91-38.25.18-6.93.31-12.72.28-13.43,0,0-23.39-2.78-24.52-26-.54-11.24.23-34.48,1.16-55.49a43.37,43.37,0,0,1,41.78-41.37l2.24-.08C257.28,141.69,270.36,162.59,269.15,186.82Z"></path><path class="cls-6" d="M212.36,264.12s14.7.33,30-10c0,0-6.78,17.25-30.07,16Z"></path><path class="cls-7" d="M228.28,193.57c.44.48,3.2-1.57,7.09-1.53s6.71,2.05,7.14,1.56c.21-.21-.24-1.08-1.47-2a9.68,9.68,0,0,0-5.71-1.85,9.32,9.32,0,0,0-5.65,1.82C228.48,192.48,228.06,193.35,228.28,193.57Z"></path><path class="cls-7" d="M227.52,202.42a3.15,3.15,0,0,0,3.15,3.06,3,3,0,0,0,3.13-2.95,3.16,3.16,0,0,0-3.14-3.07A3,3,0,0,0,227.52,202.42Z"></path><path class="cls-7" d="M217.55,220.22c0-.2-2.22-.51-5.84-.84-.92-.06-1.79-.21-2-.83a4.56,4.56,0,0,1,.51-2.72c.78-2.24,1.59-4.59,2.45-7.05,3.39-10,5.81-18.27,5.41-18.4s-3.49,7.89-6.88,17.92l-2.33,7.08c-.31,1.05-.86,2.25-.35,3.6a2.26,2.26,0,0,0,1.55,1.28,6.07,6.07,0,0,0,1.56.16C215.3,220.49,217.55,220.43,217.55,220.22Z"></path><path class="cls-7" d="M230.47,179c.35.87,3.48.34,7.2.67s6.74,1.26,7.2.45c.21-.39-.34-1.2-1.58-2a11.69,11.69,0,0,0-5.39-1.73,11.49,11.49,0,0,0-5.58.88C231,177.89,230.32,178.61,230.47,179Z"></path><path class="cls-7" d="M192.81,179.8c.38.72,3.44,0,7.12.07s6.71.61,7.12-.11c.18-.35-.4-1-1.66-1.6a12.63,12.63,0,0,0-5.4-1.1,13.25,13.25,0,0,0-5.44,1.13C193.26,178.8,192.65,179.46,192.81,179.8Z"></path><path class="cls-5" d="M267.87,204.11c.39-.18,15.81-5.3,15.87,10.62s-15.93,12.71-16,12.25S267.87,204.11,267.87,204.11Z"></path><path class="cls-6" d="M272.62,220.93c.07-.05.28.19.75.4a2.77,2.77,0,0,0,2.07,0c1.68-.63,3.09-3.3,3.15-6.17a9.06,9.06,0,0,0-.79-4,3.22,3.22,0,0,0-2.1-2.12,1.41,1.41,0,0,0-1.63.77c-.21.44-.11.76-.19.79s-.35-.27-.22-.93a1.84,1.84,0,0,1,.62-1,2.13,2.13,0,0,1,1.54-.41,3.91,3.91,0,0,1,2.9,2.46,9.38,9.38,0,0,1,1,4.43c-.09,3.21-1.72,6.22-4,6.9a3,3,0,0,1-2.54-.42C272.65,221.31,272.56,221,272.62,220.93Z"></path><path class="cls-7" d="M290,179.16c-3.11-5.73-3.63-12.45-5.21-18.77s-6.21-14.35-12.27-16.77c-5.35-3.31-12.52-3.14-17.19.51-.81-8.3-6.25-13.2-14.24-15.61s-21-1.63-28.82,1.2c-6.07,2.18-12,6.9-19.33,13.88a78.93,78.93,0,0,0-8.47,9.53l-7.82,21.4,5.59,11.58a24.79,24.79,0,0,0,1.1,2.35v-.05l4.53,24.13c.59-6.51.95-29.23,1.54-35.75a36.39,36.39,0,0,0,26.38-11c3.71-3.81,6.7-8.66,11.55-10.84,6.26-2.81,13.5-.33,19.9,2.16l-.27-.25a29,29,0,0,1,8.74,6.81,90.62,90.62,0,0,0,2.5,38.44c.54,1.87,2.06,5.74,3.85,6.51,3.52,1.51,4.62-2.08,6.84-3.94,1.63-1.36,4-1.46,6.55-1.35,1.65-3.91,3.45-10.54,5-16.34a14.5,14.5,0,0,0,6.66.69l-1.87-5a7.5,7.5,0,0,0,2.81,1.4,2.58,2.58,0,0,0,2.75-1.08C291.38,181.79,290.61,180.36,290,179.16Z"></path><path class="cls-8" d="M249.46,148.44a20.13,20.13,0,0,1,2.24,2.21,16.64,16.64,0,0,1,3.28,7.83,29.27,29.27,0,0,1,.37,5.92c-.07,2.13-.32,4.41-.58,6.82a61.39,61.39,0,0,0-.45,7.6,28,28,0,0,0,.37,4,8.48,8.48,0,0,0,1.49,4,3.53,3.53,0,0,0,3.24,1.22,5.15,5.15,0,0,0,3-1.56c1.56-1.68,2-3.88,2.45-5.81l-.48,0a19.28,19.28,0,0,0,2.64,5,6.86,6.86,0,0,0,4.42,2.63,4.53,4.53,0,0,0,2.4-.33,4,4,0,0,0,2.25-3.58,2.85,2.85,0,0,0-.67-1.83l-.26.21a15,15,0,0,0,4.85,3.92,12.44,12.44,0,0,0,1.52.66,2.85,2.85,0,0,0,.55.16,2.87,2.87,0,0,0-.52-.25c-.34-.15-.84-.38-1.47-.73a15.41,15.41,0,0,1-4.67-4l-.25.21a3,3,0,0,1,0,3.45,3.47,3.47,0,0,1-1.52,1.36,4,4,0,0,1-2.18.27,6.5,6.5,0,0,1-4.1-2.49,19.2,19.2,0,0,1-2.54-4.85l-.3-.76-.19.8c-.44,1.93-.91,4-2.33,5.55a4.71,4.71,0,0,1-2.69,1.39,2.94,2.94,0,0,1-2.75-1,8,8,0,0,1-1.38-3.7,26.51,26.51,0,0,1-.37-3.95,63,63,0,0,1,.42-7.53c.24-2.4.48-4.7.53-6.86a29.75,29.75,0,0,0-.44-6,16.51,16.51,0,0,0-3.49-7.9A9.59,9.59,0,0,0,249.46,148.44Z"></path><path class="cls-7" d="M192.82,193.72c.45.49,3.2-1.57,7.09-1.53s6.72,2.05,7.14,1.57c.21-.22-.24-1.09-1.47-2a9.75,9.75,0,0,0-5.71-1.85,9.41,9.41,0,0,0-5.65,1.82C193,192.63,192.61,193.5,192.82,193.72Z"></path><path class="cls-7" d="M195.16,201.24a3.14,3.14,0,0,0,3.14,3.07,3,3,0,0,0,3.14-2.95,3.15,3.15,0,0,0-3.14-3.07A3,3,0,0,0,195.16,201.24Z"></path><path class="cls-7" d="M186.47,150.53c-2,2.56-5.13,4.86-8.38,4.44a25,25,0,0,1-3.43-1.1c-1.15.66-1,4.55-.23,5.64a21,21,0,0,0,2.38,2.58c-3.86,2-7.31.87-11.34-.72a20,20,0,0,0,11.45,16.28c2,.91,4.5,1.44,6.4.28,1.67-1,2.39-3.05,2.94-4.93a87.48,87.48,0,0,0,3.37-21.25Z"></path><path class="cls-6" d="M220.92,228a3.21,3.21,0,0,1,2.78-1.68c1.08,0,2-.11,2.79.64a5.06,5.06,0,0,1,1.11,5.72,4.2,4.2,0,0,1-5.27,2c-1.89-.88-2.63-5.74-1.33-7.36"></path><path class="cls-7" d="M220.29,231.5a8.84,8.84,0,0,1,.42.91,3.28,3.28,0,0,0,1.92,1.71,4.86,4.86,0,0,0,3.77-.46,3.93,3.93,0,0,0-1.93-7.06A3.86,3.86,0,0,0,221,228a4,4,0,0,0-.8,2.48c0,.64.11,1,.06,1s0-.08-.1-.25a3.48,3.48,0,0,1-.16-.75,3.88,3.88,0,0,1,.71-2.71,4.19,4.19,0,0,1,3.78-1.67,4.4,4.4,0,0,1,2.13,8,5.16,5.16,0,0,1-4.15.39,3.43,3.43,0,0,1-2-2,3.33,3.33,0,0,1-.21-.74C220.28,231.59,220.27,231.5,220.29,231.5Z"></path><path class="cls-8" d="M249.64,148.3a15.18,15.18,0,0,0-2.37-3,15.5,15.5,0,0,0-9.33-4,19.22,19.22,0,0,0-7.05.84,28.05,28.05,0,0,0-7.36,3.58c-4.86,3.21-9.15,8-13.84,12.85a61.56,61.56,0,0,1-7.36,6.56,29.65,29.65,0,0,1-8.1,4.34,26.82,26.82,0,0,1-15.4.25,26.32,26.32,0,0,1-9.31-4.72l-1.24-1.08c-.36-.32-.62-.62-.85-.85l-.51-.54a1.55,1.55,0,0,1-.16-.2,1,1,0,0,1,.2.16l.54.5c.24.22.52.51.88.82l1.27,1a26.87,26.87,0,0,0,9.28,4.52,26.48,26.48,0,0,0,15.15-.35,29,29,0,0,0,7.95-4.29,62.08,62.08,0,0,0,7.29-6.52c4.68-4.8,9-9.65,13.94-12.88a28.6,28.6,0,0,1,7.5-3.6A19.52,19.52,0,0,1,238,141a15.51,15.51,0,0,1,9.44,4.22,11.42,11.42,0,0,1,1.77,2.24l.35.65A2.18,2.18,0,0,1,249.64,148.3Z"></path><polygon class="cls-5" points="203.44 271.83 212.26 270.07 266.82 266.71 278.45 269.87 276.93 298.2 250.63 314.97 225.13 314.46 209.1 299.85 205.54 285.37 203.44 271.83"></polygon><path class="cls-9" d="M352.23,316.43a171.58,171.58,0,0,0-10.49-18.74,46.64,46.64,0,0,0-26.9-19.59l-42-11.39s-2.19,42-31.1,42-34.54-39.37-34.54-39.37l-48.65,19.4c-1.67.65-13,4.56-26.08,32.71-12.5,26.81-18,40.52-18,40.52l50.12,14.47,3.13,45.07-1.07,25.73,152.09-.33-.85-29.43.64-45.1,1.91,3.07,50.61-20.3S364.54,341.77,352.23,316.43Z"></path><path class="cls-7" d="M319.31,343.66c.22,0,.08,16.3-.31,36.4s-.89,36.38-1.11,36.38-.08-16.3.31-36.4S319.08,343.66,319.31,343.66Z"></path><path class="cls-7" d="M157,334.45a6.89,6.89,0,0,1,.56,1.67c.31,1.09.71,2.68,1.19,4.64.95,3.94,2.13,9.4,3.23,15.48s1.89,11.61,2.37,15.63c.24,2,.41,3.64.5,4.77a7.16,7.16,0,0,1,.06,1.76,8.08,8.08,0,0,1-.37-1.72c-.21-1.29-.46-2.87-.76-4.73-.62-4-1.5-9.5-2.59-15.57s-2.19-11.54-3-15.49c-.37-1.85-.68-3.42-.94-4.7A7.88,7.88,0,0,1,157,334.45Z"></path><path class="cls-5" d="M118.81,363.22,98.43,404.13a29.78,29.78,0,0,0-3.1,14.75h0a29.82,29.82,0,0,0,29.78,28.36l58.45-3.38,2.55-26.67-44.47-10.72,16.86-31.86Z"></path><path class="cls-6" d="M141.64,406.47c0,.18-2-.15-5.25-.13a40.38,40.38,0,0,0-12.32,2.18,37.17,37.17,0,0,0-11,5.86c-2.53,2-3.72,3.63-3.87,3.52s.21-.47.74-1.23a20,20,0,0,1,2.67-2.84,33.29,33.29,0,0,1,11.17-6.27,35.31,35.31,0,0,1,12.66-1.93,25.2,25.2,0,0,1,3.86.45A4.06,4.06,0,0,1,141.64,406.47Z"></path><path class="cls-6" d="M159.21,374.29a12.1,12.1,0,0,1-1,3.12,60.72,60.72,0,0,1-3.36,7.13,60,60,0,0,1-4.25,6.63,12,12,0,0,1-2.13,2.47c-.2-.15,2.74-4.15,5.68-9.49S159,374.2,159.21,374.29Z"></path><path class="cls-5" d="M369,447.11H300.35v-25.9l39.74-16.84-14.74-30.89,39.79-16,19.41,43.2c4.51,12.55,9.12,18.51,5.19,29.93C387.7,436.59,379.27,447.11,369,447.11Z"></path><path class="cls-5" d="M174.67,415.65h11.44s25.82-9.33,31.12-8.44c4.79.8,22.29,12.43,25.72,14.73a2.23,2.23,0,0,1,.83,1.06h0a3.75,3.75,0,0,1-2.09,4.77l-.36.15.16.52a6.25,6.25,0,0,1,.26,2.09,2.52,2.52,0,0,1-4.69,1.09l.66,1.17a2.87,2.87,0,0,1,.36,1.57l-.05,1.06a2.88,2.88,0,0,1-2,2.58h0a2.89,2.89,0,0,1-3-.79c-2.22-2.45-7-7.34-10.26-7.88a76.51,76.51,0,0,0-10.59-.53,3.59,3.59,0,0,0-3.33,2.3h0c1.92.13,15.34,7.13,20.08,9.63a5.08,5.08,0,0,1,2.76,3.82c.18,1.49-.57,3.05-3.51,2.36-6.31-1.47-17.66-6.69-17.66-6.69s-5.86-1.68-9.65,1c-5.33,3.77-7.78,5.15-12.36,3.63a38.86,38.86,0,0,1-8-3.7l-9-.9S163,418.92,174.67,415.65Z"></path><path class="cls-6" d="M208.76,420c0,.1,1.83-.48,4.85-.67a25.08,25.08,0,0,1,20.87,8.91c2,2.31,2.78,4,2.87,4a7.2,7.2,0,0,0-.58-1.19,22,22,0,0,0-2-3,24.27,24.27,0,0,0-21.16-9,21.85,21.85,0,0,0-3.56.6A6.42,6.42,0,0,0,208.76,420Z"></path><path class="cls-6" d="M211.49,413.74a20.45,20.45,0,0,1,5-.89,22.07,22.07,0,0,1,11.74,3.33,47.67,47.67,0,0,1,9.47,8c1,1.12,1.92,2,2.59,2.76a7.37,7.37,0,0,0,1,1,7.89,7.89,0,0,0-.85-1.1c-.57-.69-1.41-1.68-2.48-2.87a43.52,43.52,0,0,0-9.47-8.19,21.45,21.45,0,0,0-12-3.25,14.2,14.2,0,0,0-3.75.69,7.51,7.51,0,0,0-1,.37C211.6,413.66,211.49,413.72,211.49,413.74Z"></path><path class="cls-5" d="M317.11,416.45H305.67s-25.82-9.32-31.13-8.43c-4.78.8-22.28,12.43-25.71,14.73a2.12,2.12,0,0,0-.83,1.06h0a3.75,3.75,0,0,0,2.08,4.77l.37.15-.16.52a6.25,6.25,0,0,0-.26,2.09,2.53,2.53,0,0,0,4.69,1.09l-.66,1.17a2.87,2.87,0,0,0-.37,1.57l.06,1.06a2.87,2.87,0,0,0,2,2.57h0a2.83,2.83,0,0,0,3-.79c2.22-2.44,7-7.33,10.26-7.87a76.66,76.66,0,0,1,10.6-.53,3.6,3.6,0,0,1,3.33,2.29h0c-1.93.14-15.34,7.14-20.09,9.64a5.08,5.08,0,0,0-2.76,3.82c-.17,1.49.58,3,3.52,2.36,6.31-1.48,17.66-6.7,17.66-6.7s5.85-1.67,9.64,1c5.34,3.76,7.78,5.14,12.37,3.62a39.16,39.16,0,0,0,8-3.69l9-.91S328.78,419.72,317.11,416.45Z"></path><path class="cls-6" d="M283,420.81c0,.1-1.83-.48-4.85-.67A25,25,0,0,0,257.3,429c-2,2.32-2.78,4-2.87,4a6,6,0,0,1,.58-1.19,21.2,21.2,0,0,1,2-3,24.24,24.24,0,0,1,21.16-9,22,22,0,0,1,3.57.6A6.76,6.76,0,0,1,283,420.81Z"></path><path class="cls-6" d="M280.28,414.54a21.27,21.27,0,0,0-5-.88A22.1,22.1,0,0,0,263.49,417a47.25,47.25,0,0,0-9.46,8l-2.59,2.76a9.19,9.19,0,0,1-1,1,6.23,6.23,0,0,1,.84-1.11c.58-.69,1.41-1.67,2.49-2.86a43.41,43.41,0,0,1,9.46-8.19,21.48,21.48,0,0,1,12-3.25A14.78,14.78,0,0,1,279,414a8.66,8.66,0,0,1,1,.38A1,1,0,0,1,280.28,414.54Z"></path><path class="cls-6" d="M370.75,406.21c-.07.1-1.56-1-4.25-2.24-.68-.3-1.42-.63-2.24-.91s-1.71-.56-2.65-.83a34.13,34.13,0,0,0-6.26-1,35,35,0,0,0-6.34.28c-1,.17-1.89.3-2.73.53s-1.62.42-2.33.64c-2.81.92-4.43,1.84-4.48,1.74a7,7,0,0,1,1.12-.66,10.34,10.34,0,0,1,1.37-.67,19.61,19.61,0,0,1,1.87-.75,21.93,21.93,0,0,1,2.35-.72c.85-.25,1.78-.4,2.75-.59a32.68,32.68,0,0,1,6.45-.32,33.49,33.49,0,0,1,6.36,1.06c.94.3,1.85.55,2.67.9a21.73,21.73,0,0,1,2.24,1,18.91,18.91,0,0,1,1.78,1,12.66,12.66,0,0,1,1.28.82A6.17,6.17,0,0,1,370.75,406.21Z"></path><path class="cls-2" d="M312.54,450.41H169.64a7.59,7.59,0,0,1-7.58-7.26l-4.29-98.35a7.59,7.59,0,0,1,7.58-7.92H316.54a7.58,7.58,0,0,1,7.58,7.89l-4,98.36A7.58,7.58,0,0,1,312.54,450.41Z"></path><path class="cls-7" d="M312.54,450.41s.47,0,1.37-.16a7.51,7.51,0,0,0,3.6-1.78,7.67,7.67,0,0,0,2.55-5.85q.15-3.93.34-9.05c.54-13.62,1.31-33.33,2.27-57.67q.36-9.13.76-19.11.19-5,.41-10.17c0-.85.09-1.74.06-2.58a7.61,7.61,0,0,0-.58-2.47,7.35,7.35,0,0,0-3.48-3.69,7.45,7.45,0,0,0-2.5-.74c-.86-.07-1.79,0-2.69,0H274.32l-104.82,0H166a8.18,8.18,0,0,0-3.31.5,7.34,7.34,0,0,0-4.38,4.73A8.07,8.07,0,0,0,158,344c0,.54,0,1.11,0,1.68l.15,3.43c.1,2.28.19,4.55.29,6.81q.6,13.56,1.16,26.72c.76,17.51,1.49,34.41,2.19,50.51q.13,3,.26,6c0,1,.09,2,.13,3a10.07,10.07,0,0,0,.37,2.86,7.31,7.31,0,0,0,3.48,4.28,7.18,7.18,0,0,0,2.65.86c.92.1,1.9,0,2.84.06H193.8l39.86,0,57.71.09,15.69,0,4.08,0,1.4,0-1.4,0-4.08,0-15.69.05-57.71.08-39.86,0-22.21,0c-1,0-1.89,0-2.89-.06a7.82,7.82,0,0,1-6.53-5.47,10.41,10.41,0,0,1-.39-3c-.05-1-.09-2-.13-3l-.27-6c-.7-16.1-1.45-33-2.22-50.51q-.57-13.14-1.16-26.72l-.3-6.81-.15-3.42c0-.57-.05-1.15,0-1.75a7.91,7.91,0,0,1,5-6.81,9,9,0,0,1,3.5-.53h3.48l104.82,0h40.33c.91,0,1.8,0,2.74,0a7.61,7.61,0,0,1,2.64.79,7.76,7.76,0,0,1,3.68,3.9,8,8,0,0,1,.61,2.62c0,.91,0,1.75-.07,2.62q-.21,5.17-.42,10.17c-.27,6.64-.54,13-.79,19.1-1,24.35-1.86,44-2.44,57.67-.14,3.4-.27,6.43-.39,9.05a7.73,7.73,0,0,1-2.64,5.92,7.39,7.39,0,0,1-3.65,1.75,5.1,5.1,0,0,1-1,.1Z"></path><path class="cls-3" d="M248.76,395.38a7.83,7.83,0,1,1-7.83-7.83A7.82,7.82,0,0,1,248.76,395.38Z"></path></g><g id="Windows"><polygon class="cls-3" points="150.82 254.69 150.71 254.69 150.71 134.1 0.21 134.1 0.21 255.02 131.21 255.02 150.82 274.63 150.82 254.69"></polygon><path class="cls-7" d="M150.82,254.69s0,.43,0,1.29,0,2.14,0,3.82c0,3.38,0,8.36,0,14.82v.19l-.13-.13L131.13,255.1l.08,0-131,.08H0V255c0-32.84,0-68.92,0-106.71V133.89H.21l150.5,0h.17v.17c0,36.45,0,66.53-.07,87.53,0,10.5,0,18.72-.05,24.35,0,2.81,0,5,0,6.44,0,.73,0,1.28,0,1.67s0,.58,0,.6h0s0-.22,0-.6,0-.94,0-1.67c0-1.47,0-3.63,0-6.44,0-5.63,0-13.85,0-24.35,0-21-.05-51.08-.08-87.53l.17.17-150.5,0,.2-.21v14.21C.41,186.1.4,222.18.4,255l-.19-.2,131,.08h0l0,0,19.58,19.63-.13.05C150.79,261.78,150.81,255.22,150.82,254.69Z"></path><path class="cls-7" d="M150.71,147.55c0,.11-33.69.21-75.25.21s-75.25-.1-75.25-.21,33.68-.21,75.25-.21S150.71,147.43,150.71,147.55Z"></path><path class="cls-2" d="M9,141a1.9,1.9,0,1,1-1.9-1.9A1.9,1.9,0,0,1,9,141Z"></path><path class="cls-2" d="M14.55,141a1.9,1.9,0,1,1-1.89-1.9A1.9,1.9,0,0,1,14.55,141Z"></path><circle class="cls-2" cx="18.27" cy="141.02" r="1.9"></circle><circle class="cls-9" cx="150.82" cy="137.9" r="14.24"></circle><rect class="cls-3" x="149.38" y="131.48" width="2.86" height="12.84" transform="translate(141.68 -66.25) rotate(45)"></rect><rect class="cls-3" x="149.38" y="131.48" width="2.86" height="12.84" transform="translate(-53.34 147.03) rotate(-45)"></rect><polygon class="cls-9" points="69.87 150.38 81 161.86 96.57 158.22 99.73 173.89 114.8 179.25 108.98 194.15 118.76 206.8 105.81 216.18 107.2 232.11 91.23 233.01 83.78 247.16 69.87 239.28 55.95 247.16 48.51 233.01 32.54 232.11 33.93 216.18 20.98 206.8 30.76 194.15 24.94 179.25 40.01 173.89 43.17 158.22 58.74 161.86 69.87 150.38"></polygon><g class="cls-10"><path d="M63.75,186.13c0-3.25-1.13-4.12-2.94-4.12s-2.94,1-2.94,3.56v2.32H52.51v-2c0-5.78,2.89-9.08,8.46-9.08s8.46,3.3,8.46,9.08v.93c0,3.86-1.24,6.29-4,7.42,2.84,1.24,4,3.92,4,7.58v2.84c0,5.78-2.89,9.08-8.46,9.08s-8.46-3.3-8.46-9.08v-3h5.36v3.35c0,2.58,1.14,3.56,2.94,3.56s2.94-.88,2.94-4.07v-2.84c0-3.35-1.13-4.59-3.71-4.59H58.13V192h2.22c2.11,0,3.4-.93,3.4-3.82Z"></path><path d="M72.78,185.93c0-5.78,3-9.08,8.61-9.08s8.62,3.3,8.62,9.08V204.7c0,5.78-3.05,9.08-8.62,9.08s-8.61-3.3-8.61-9.08Zm5.67,19.13c0,2.58,1.14,3.56,2.94,3.56s2.94-1,2.94-3.56V185.57c0-2.58-1.13-3.56-2.94-3.56s-2.94,1-2.94,3.56Z"></path></g><g class="cls-10"><path d="M91.51,177a1.52,1.52,0,1,1,3,0v3.29a1.52,1.52,0,1,1-3,0Zm1,3.36c0,.45.18.63.51.63s.52-.18.52-.63V176.9c0-.44-.2-.63-.52-.63s-.51.19-.51.63ZM97,175.44h.93l-4,10H93Zm-.5,5.19a1.52,1.52,0,1,1,3,0v3.29a1.52,1.52,0,1,1-3,0Zm1,3.36c0,.45.19.63.51.63s.52-.18.52-.63v-3.43c0-.44-.2-.63-.52-.63s-.51.19-.51.63Z"></path></g><g class="cls-10"><path d="M59.61,215.59c2.26,0,3.41,1.35,3.41,3.71v.46H60.83v-.61c0-1.05-.42-1.45-1.16-1.45s-1.15.4-1.15,1.45c0,3,4.53,3.6,4.53,7.82,0,2.36-1.18,3.71-3.46,3.71s-3.46-1.35-3.46-3.71v-.91h2.2v1.06c0,1,.46,1.43,1.2,1.43s1.2-.38,1.2-1.43c0-3-4.53-3.61-4.53-7.82C56.2,216.94,57.36,215.59,59.61,215.59Z"></path><path d="M71.88,230.51H69.54l-.4-2.68H66.29l-.4,2.68H63.77l2.35-14.75h3.4Zm-5.29-4.68h2.23l-1.11-7.46Z"></path><path d="M73,215.76h2.31V228.4h3.82v2.11H73Z"></path><path d="M82.42,222H85.6v2.1H82.42v4.32h4v2.11H80.1V215.76h6.32v2.11h-4Z"></path></g><path class="cls-3" d="M61.64,187.18c0-3.25-1.14-4.13-2.94-4.13s-2.94,1-2.94,3.56v2.32H50.4v-2c0-5.77,2.88-9.08,8.45-9.08s8.46,3.31,8.46,9.08v.93c0,3.87-1.24,6.29-4,7.43,2.84,1.23,4,3.92,4,7.58v2.83c0,5.78-2.89,9.08-8.46,9.08s-8.45-3.3-8.45-9.08v-3h5.36v3.36c0,2.57,1.13,3.55,2.94,3.55s2.94-.87,2.94-4.07v-2.84c0-3.35-1.14-4.59-3.71-4.59H56V193h2.22c2.11,0,3.4-.93,3.4-3.82Z"></path><path class="cls-3" d="M70.67,187c0-5.77,3-9.08,8.61-9.08s8.61,3.31,8.61,9.08v18.77c0,5.78-3,9.08-8.61,9.08s-8.61-3.3-8.61-9.08Zm5.67,19.14c0,2.57,1.13,3.55,2.94,3.55s2.94-1,2.94-3.55v-19.5c0-2.58-1.14-3.56-2.94-3.56s-2.94,1-2.94,3.56Z"></path><path class="cls-3" d="M89.39,177a1.52,1.52,0,1,1,3,0v3.29a1.52,1.52,0,1,1-3,0Zm1,3.36c0,.45.19.63.51.63s.52-.18.52-.63V176.9c0-.44-.2-.63-.52-.63s-.51.19-.51.63Zm4.46-4.89h.93l-4,10H90.9Zm-.5,5.19a1.52,1.52,0,1,1,3,0v3.29a1.52,1.52,0,1,1-3,0Zm1,3.36c0,.45.19.63.52.63s.51-.18.51-.63v-3.43c0-.44-.2-.63-.51-.63s-.52.19-.52.63Z"></path><path class="cls-3" d="M57.49,215.59c2.26,0,3.42,1.35,3.42,3.71v.46h-2.2v-.61c0-1.05-.42-1.45-1.15-1.45s-1.16.4-1.16,1.45c0,3,4.53,3.6,4.53,7.82,0,2.36-1.18,3.71-3.46,3.71S54,229.33,54,227v-.91h2.19v1.06c0,1,.46,1.43,1.2,1.43s1.2-.38,1.2-1.43c0-3-4.53-3.61-4.53-7.82C54.08,216.94,55.24,215.59,57.49,215.59Z"></path><path class="cls-3" d="M69.76,230.51H67.42l-.4-2.68H64.17l-.4,2.68H61.65L64,215.76H67.4Zm-5.29-4.68H66.7l-1.11-7.46Z"></path><path class="cls-3" d="M70.84,215.76h2.31V228.4H77v2.11H70.84Z"></path><path class="cls-3" d="M80.3,222h3.18v2.1H80.3v4.32h4v2.11H78V215.76H84.3v2.11h-4Z"></path><path class="cls-2" d="M99.81,159l.66-1.47a4.46,4.46,0,0,0,2.32.7c.83,0,1.15-.23,1.15-.58,0-1.12-4-.3-4-2.92,0-1.26,1-2.28,3.12-2.28a5.29,5.29,0,0,1,2.56.61l-.61,1.48a4.21,4.21,0,0,0-2-.54c-.83,0-1.13.28-1.13.63,0,1.08,4,.27,4,2.87,0,1.23-1,2.28-3.12,2.28A5.5,5.5,0,0,1,99.81,159Z"></path><path class="cls-2" d="M109.21,157.69l-.56.58v1.34h-1.92v-7.48h1.92v3.92l1.95-1.9h2.27l-2.27,2.33,2.46,3.13h-2.32Z"></path><path class="cls-2" d="M113.41,152.53a1.05,1.05,0,0,1,1.17-1,1,1,0,0,1,1.17,1,1.18,1.18,0,0,1-2.34,0Zm.21,1.62h1.92v5.46h-1.92Z"></path><path class="cls-2" d="M122.89,156.88a2.65,2.65,0,0,1-2.68,2.82,2,2,0,0,1-1.52-.58v2.44h-1.92v-7.41h1.83v.54a2,2,0,0,1,1.61-.63A2.65,2.65,0,0,1,122.89,156.88Zm-1.94,0a1.15,1.15,0,1,0-1.14,1.3A1.16,1.16,0,0,0,121,156.88Z"></path><path class="cls-2" d="M131.52,158.24h-3l-.56,1.37h-2l3.11-7.05h2l3.12,7.05h-2.08Zm-.58-1.47-.91-2.26-.91,2.26Z"></path><path class="cls-2" d="M140.37,152.13v7.48h-1.82v-.55a1.94,1.94,0,0,1-1.6.64,2.82,2.82,0,0,1,0-5.64,2,2,0,0,1,1.51.56v-2.49Zm-1.88,4.74a1.15,1.15,0,1,0-2.29,0,1.16,1.16,0,1,0,2.29,0Z"></path><path class="cls-2" d="M141.17,159.13l.57-1.31a3.78,3.78,0,0,0,1.91.51c.64,0,.85-.14.85-.38,0-.73-3.22.11-3.22-2.08,0-1,.95-1.81,2.66-1.81a4.8,4.8,0,0,1,2.15.46l-.57,1.3a3.21,3.21,0,0,0-1.57-.4c-.64,0-.88.18-.88.38,0,.76,3.22-.06,3.22,2.1,0,1-.93,1.8-2.7,1.8A4.91,4.91,0,0,1,141.17,159.13Z"></path><polygon class="cls-3" points="452.17 179.02 307.19 179.02 307.93 280.58 323.77 280.58 323.77 304.07 345.21 280.58 452.9 280.58 452.17 179.02"></polygon><path class="cls-7" d="M452.17,179l0,1.8c0,1.2,0,3,.06,5.3.05,4.67.11,11.53.2,20.33.16,17.65.38,43.06.65,74.13v.21h-.21l-107.69,0,.19-.09L324,304.25l-.45.49V280.58l.26.26h-16.1v-.26c-.25-36.57-.49-71-.71-101.56v-.23h.24l104.91.12,29.59.06,7.81,0h2.67l-.7,0h-2l-7.85,0-29.65.06-104.76.12.23-.24c.23,30.5.49,65,.76,101.56l-.26-.26H324v23.75l-.46-.17c7.37-8.07,14.62-16,21.45-23.49l.08-.08h.11l107.69.05-.2.2c-.18-31-.33-56.38-.43-74,0-8.82-.08-15.7-.1-20.38,0-2.34,0-4.13,0-5.34S452.17,179,452.17,179Z"></path><path class="cls-7" d="M451.43,193.35c0,.12-32.13.22-71.75.22s-71.76-.1-71.76-.22,32.12-.23,71.76-.23S451.43,193.22,451.43,193.35Z"></path><ellipse class="cls-2" cx="313.88" cy="187.66" rx="1.92" ry="2.1"></ellipse><ellipse class="cls-2" cx="319.55" cy="187.66" rx="1.92" ry="2.1"></ellipse><ellipse class="cls-2" cx="325.22" cy="187.66" rx="1.92" ry="2.1"></ellipse><circle class="cls-9" cx="381.67" cy="229.77" r="20.45"></circle><path class="cls-3" d="M376.75,235.75V223.68a.77.77,0,0,1,1.14-.67l10.78,6.08a.76.76,0,0,1,0,1.34l-10.78,6A.76.76,0,0,1,376.75,235.75Z"></path><rect class="cls-7" x="316.78" y="267.68" width="125.19" height="0.62"></rect><rect class="cls-9" x="316.68" y="267.01" width="39.12" height="1.66"></rect><ellipse class="cls-9" cx="355.16" cy="267.99" rx="1.9" ry="2.08"></ellipse><circle class="cls-9" cx="451.06" cy="183.45" r="13.8"></circle><rect class="cls-3" x="449.67" y="177.23" width="2.78" height="12.44" transform="translate(261.83 -265.22) rotate(45)"></rect><rect class="cls-3" x="449.67" y="177.23" width="2.78" height="12.44" transform="translate(2.39 372.67) rotate(-45)"></rect><polygon class="cls-3" points="178.65 14.9 178.65 114.21 269.35 114.21 288.95 129.37 288.95 114.21 288.95 110.32 288.95 14.9 178.65 14.9"></polygon><path class="cls-7" d="M178.65,14.9h2l5.89,0,22.38-.06,80-.11h.22v.22c0,31.84,0,69.4,0,109.47v5.53l-.42-.33L269.2,114.42l.15,0-90.7,0h-.22v-.22c0-30,.09-54.81.11-72.18,0-8.65.05-15.44.06-20.08,0-2.29,0-4.06,0-5.26s0-1.79,0-1.79,0,.63,0,1.84,0,3,0,5.3c0,4.65,0,11.46.05,20.13,0,17.34.07,42.14.12,72l-.22-.22,90.7,0h.09l.07.06,19.6,15.15-.42.21v-5c0-40.07,0-77.63,0-109.47l.23.23L209.07,15,186.63,15l-5.93,0-1.53,0Z"></path><path class="cls-7" d="M288.34,33.75c0,.17-24.31.3-54.3.3s-54.3-.13-54.3-.3,24.31-.29,54.3-.29S288.34,33.59,288.34,33.75Z"></path><path class="cls-2" d="M191,26.36a2.74,2.74,0,1,1-2.74-2.74A2.74,2.74,0,0,1,191,26.36Z"></path><path class="cls-2" d="M199.05,26.36a2.74,2.74,0,1,1-2.74-2.74A2.74,2.74,0,0,1,199.05,26.36Z"></path><path class="cls-2" d="M207.13,26.36a2.74,2.74,0,1,1-2.73-2.74A2.73,2.73,0,0,1,207.13,26.36Z"></path><path class="cls-9" d="M268.6,69.83a30.72,30.72,0,1,1-31.45-29.91A30.67,30.67,0,0,1,268.6,69.83Z"></path><path class="cls-9" d="M261.29,70a23.41,23.41,0,1,1-24-22.8A23.39,23.39,0,0,1,261.29,70Z"></path><g class="cls-10"><path d="M261.27,69.27a14.12,14.12,0,0,1-.68-2.8,24.84,24.84,0,0,0-2.88-7.11,23.89,23.89,0,0,0-3.2-4.18,23.47,23.47,0,0,0-4.7-3.75,22.36,22.36,0,0,0-6.1-2.58,21.45,21.45,0,0,0-3.45-.63,25.47,25.47,0,0,0-3.61-.08,24.68,24.68,0,0,0-3.58.48,23,23,0,0,0-3.37,1,20.48,20.48,0,0,0-3.06,1.45,21.54,21.54,0,0,0-2.71,1.79,23.47,23.47,0,0,0-4.26,4.25A24.25,24.25,0,0,0,217,61.62,25,25,0,0,0,214.88,69c-.21,1.82-.22,2.86-.37,2.86a7,7,0,0,1-.32-2.9,21.81,21.81,0,0,1,1.59-7.84,23.88,23.88,0,0,1,2.69-4.89,24.16,24.16,0,0,1,4.43-4.66,22.94,22.94,0,0,1,2.88-2A22.1,22.1,0,0,1,229.06,48a23.89,23.89,0,0,1,3.63-1.11,25.62,25.62,0,0,1,3.86-.53,25.28,25.28,0,0,1,3.9.1,24,24,0,0,1,3.72.7,22.61,22.61,0,0,1,3.44,1.23A22.05,22.05,0,0,1,250.69,50a23.48,23.48,0,0,1,8.13,8.71,21.48,21.48,0,0,1,2.45,7.61C261.49,68.23,261.38,69.27,261.27,69.27Z"></path></g><g class="cls-10"><path d="M240.87,84.47l.16,4.07-3.64.14-.16-4c-3.61-.08-7.11-1.07-9.17-2.56l1.83-4.51A14.85,14.85,0,0,0,237.05,80l-.23-6.08c-4.08-.83-8.64-2-8.84-7.2-.15-3.86,2.52-7.28,8.25-8.16l-.16-4,3.64-.14.15,4a16.54,16.54,0,0,1,7.48,1.94l-1.65,4.54a15,15,0,0,0-5.64-1.68l.24,6.19c4.07.79,8.56,2,8.76,7.1C249.2,80.17,246.56,83.55,240.87,84.47Zm-4.26-16-.2-5.17c-1.91.51-2.63,1.6-2.59,2.8S235,68.07,236.61,68.52Zm6.6,8.53c-.05-1.27-1.13-1.92-2.72-2.41l.19,5C242.49,79.19,243.25,78.22,243.21,77.05Z"></path></g><path class="cls-7" d="M261.73,69.55a2,2,0,0,1-.06-.38c0-.28-.06-.65-.11-1.13l-.07-.83c0-.3-.12-.63-.18-1a18.53,18.53,0,0,0-.57-2.44,22.69,22.69,0,0,0-2.81-6.23,23.83,23.83,0,0,0-16.25-10.69,23.72,23.72,0,0,0-12.37,1.33,24.58,24.58,0,0,0-3,1.42,23.39,23.39,0,0,0-2.85,1.93,25.08,25.08,0,0,0-2.62,2.33,25.41,25.41,0,0,0-2.25,2.79,22.52,22.52,0,0,0-3.22,6.56,23.18,23.18,0,0,0,.35,14.87,22.7,22.7,0,0,0,3.53,6.41,27.75,27.75,0,0,0,2.38,2.68,26.82,26.82,0,0,0,2.73,2.2,24.82,24.82,0,0,0,2.94,1.79,25.07,25.07,0,0,0,3.11,1.27,23.71,23.71,0,0,0,28.15-10.72,22.71,22.71,0,0,0,2.5-6.36,16.87,16.87,0,0,0,.45-2.46c0-.36.1-.69.13-1s0-.58,0-.83c0-.48.05-.85.06-1.13a2.33,2.33,0,0,1,0-.39,2.29,2.29,0,0,1,0,.39v1.14c0,.25,0,.53,0,.83s-.07.65-.11,1a16.74,16.74,0,0,1-.4,2.49,22.64,22.64,0,0,1-2.45,6.46,24,24,0,0,1-15.89,11.74,24.27,24.27,0,0,1-12.66-.71A26.15,26.15,0,0,1,227,91.61a25.78,25.78,0,0,1-3-1.82,27,27,0,0,1-2.8-2.25,28.73,28.73,0,0,1-2.43-2.72,23.37,23.37,0,0,1-3.62-6.55,26,26,0,0,1-1.43-7.57,25.64,25.64,0,0,1,1.07-7.63,23.45,23.45,0,0,1,3.3-6.71,27.68,27.68,0,0,1,2.3-2.84,28.51,28.51,0,0,1,2.68-2.38,25.15,25.15,0,0,1,2.92-2,23.65,23.65,0,0,1,3.11-1.45,24.19,24.19,0,0,1,12.61-1.31,24.06,24.06,0,0,1,16.43,11,22.84,22.84,0,0,1,2.76,6.34,17.73,17.73,0,0,1,.52,2.47c.06.36.12.69.16,1s0,.58.05.83q0,.72.06,1.14A1.83,1.83,0,0,1,261.73,69.55Z"></path><circle class="cls-9" cx="288.34" cy="14.9" r="14.9" transform="translate(73.92 208.25) rotate(-45)"></circle><rect class="cls-3" x="286.84" y="8.18" width="3" height="13.43" transform="translate(94.99 -199.52) rotate(45)"></rect><rect class="cls-3" x="286.84" y="8.18" width="3" height="13.43" transform="translate(73.91 208.25) rotate(-45)"></rect></g></g></svg>