<svg xmlns="http://www.w3.org/2000/svg" viewBox="0 0 500 374.18"><defs><style>.cls-1{fill:#ebebeb;}.cls-2{fill:#e8e8e8;}.cls-3{fill:#fafafa;}.cls-4{fill:#f0f0f0;}.cls-5{fill:#f5f5f5;}.cls-6{fill:#cf2027;}.cls-10,.cls-17,.cls-18,.cls-19,.cls-7,.cls-9{fill:#fff;}.cls-7{opacity:0.7;}.cls-8{opacity:0.4;}.cls-10,.cls-12{opacity:0.5;}.cls-11{fill:#263238;}.cls-13{fill:#f9bbb2;}.cls-14,.cls-17,.cls-20,.cls-22{opacity:0.2;}.cls-14{isolation:isolate;}.cls-15{fill:#ed847e;}.cls-16{fill:#e6a8a1;}.cls-18,.cls-24{opacity:0.3;}.cls-19{opacity:0.8;}.cls-21,.cls-23{opacity:0.1;}</style></defs><title>Asset 1q11</title><g id="Layer_2" data-name="Layer 2"><g id="Background_Complete" data-name="Background Complete"><rect class="cls-1" x="416.78" y="343.66" width="33.12" height="0.25"></rect><rect class="cls-1" x="322.53" y="346.37" width="8.69" height="0.25"></rect><rect class="cls-1" x="396.59" y="334.37" width="19.19" height="0.25"></rect><rect class="cls-1" x="52.46" y="336.05" width="43.19" height="0.25"></rect><rect class="cls-1" x="104.56" y="336.05" width="6.33" height="0.25"></rect><rect class="cls-1" x="131.47" y="340.27" width="93.68" height="0.25"></rect><path class="cls-1" d="M237,283H43.91a5.71,5.71,0,0,1-5.7-5.7V5.82a5.71,5.71,0,0,1,5.7-5.7H237a5.71,5.71,0,0,1,5.71,5.7V277.26A5.71,5.71,0,0,1,237,283ZM43.91.37a5.46,5.46,0,0,0-5.45,5.45V277.26a5.46,5.46,0,0,0,5.45,5.45H237a5.46,5.46,0,0,0,5.46-5.45V5.82A5.46,5.46,0,0,0,237,.37Z"></path><path class="cls-1" d="M453.31,282.85H260.21a5.72,5.72,0,0,1-5.71-5.71V5.71A5.72,5.72,0,0,1,260.21,0h193.1A5.71,5.71,0,0,1,459,5.71V277.14A5.71,5.71,0,0,1,453.31,282.85ZM260.21.25a5.47,5.47,0,0,0-5.46,5.46V277.14a5.47,5.47,0,0,0,5.46,5.46h193.1a5.47,5.47,0,0,0,5.46-5.46V5.71A5.47,5.47,0,0,0,453.31.25Z"></path><rect class="cls-1" y="327.56" width="500" height="0.25"></rect><rect class="cls-2" x="251.67" y="154.2" width="262.2" height="5.15" transform="translate(539.55 -225.99) rotate(90)"></rect><polygon class="cls-2" points="375.55 271.49 376.95 267.56 387.18 267.56 389.99 271.49 375.55 271.49"></polygon><polygon class="cls-2" points="364.1 284.23 366.62 287.06 380.1 302.11 380.1 302.11 381.13 302.11 381.22 302.11 384.32 302.11 384.41 302.11 385.44 302.11 384.45 301.01 384.32 300.86 382.77 299.13 381.22 297.4 380.96 297.11 380.1 296.15 368.95 283.68 366.5 280.95 366.18 280.95 364.1 284.23"></polygon><polygon class="cls-2" points="401.43 284.23 398.99 286.96 385.44 302.11 380.1 302.11 380.1 302.1 381.09 301 381.22 300.86 382.77 299.13 384.32 297.4 384.58 297.1 385.44 296.14 396.66 283.61 399.04 280.95 399.35 280.95 401.43 284.23"></polygon><path class="cls-2" d="M425.84,321.64H423.7l-24-34.58-2.34-3.35-8.48-12.22-2.73-3.93h3.79a2.78,2.78,0,0,1,2.37,1.3L400,281.05l2.08,3.28Z"></path><path class="cls-2" d="M340,321.64l33.55-52.78a2.82,2.82,0,0,1,2.37-1.3h3.8l-37.18,54.08Z"></path><rect class="cls-2" x="-14.79" y="154.2" width="262.2" height="5.15" transform="translate(273.09 40.47) rotate(90)"></rect><polygon class="cls-2" points="109.33 271.29 110.73 267.35 120.96 267.35 123.77 271.29 109.33 271.29"></polygon><polygon class="cls-2" points="97.88 284.13 100.4 286.96 113.88 302.01 113.88 302.01 114.91 302.01 115 302.01 118.1 302.01 118.19 302.01 119.22 302.01 118.23 300.9 118.1 300.76 116.55 299.03 115 297.3 114.73 297.01 113.88 296.05 102.73 283.58 100.28 280.85 99.96 280.85 97.88 284.13"></polygon><polygon class="cls-2" points="135.21 284.13 132.77 286.86 119.22 302.01 113.88 302.01 113.88 302 114.87 300.9 115 300.76 116.55 299.03 118.1 297.3 118.36 297 119.22 296.04 130.44 283.51 132.82 280.85 133.13 280.85 135.21 284.13"></polygon><path class="cls-2" d="M158.93,321.44H156.8l-24-34.58-2.33-3.35L122,271.29l-2.73-3.93H123a2.77,2.77,0,0,1,2.37,1.3l7.75,12.19,2.08,3.28Z"></path><path class="cls-2" d="M74.16,321.44l33.55-52.79a2.82,2.82,0,0,1,2.37-1.3h3.8L76.7,321.44Z"></path><rect class="cls-3" x="132.57" y="34.02" width="233.14" height="238.75"></rect><rect class="cls-2" x="117.14" y="28.07" width="264.8" height="5.15"></rect><polygon class="cls-4" points="367.18 25.68 130.37 25.68 131.13 38.37 367.94 38.37 367.18 25.68"></polygon></g><g id="Shadow"><ellipse id="_Path_" data-name="&lt;Path&gt;" class="cls-5" cx="250" cy="362.86" rx="193.89" ry="11.32"></ellipse></g><g id="Character"><path class="cls-6" d="M283.92,186.84c-4.45,14.91,2.18,31.11-.65,46.41a20.92,20.92,0,0,1-3.51,8.85c-3.65,4.9-59.62,4.75-63.27-.15A21,21,0,0,1,213,233.1c-2.83-15.31,3.8-31.51-.65-46.41a35.83,35.83,0,0,1-1.81-6.77c-.54-5.63,3-10.83,7-14.85s8.64-7.59,11.26-12.59c1.24-2.37,2-5,3.19-7.34a20.23,20.23,0,0,1,5-6.24,16.42,16.42,0,0,1,10.47-3.77h.1l1.23,0,.44,0a16.32,16.32,0,0,1,9.26,3.21,20.26,20.26,0,0,1,5.81,6.9c1.21,2.37,2,5,3.19,7.33,2.62,5,7.28,8.57,11.26,12.59s7.55,9.23,7,14.86A36.53,36.53,0,0,1,283.92,186.84Z"></path><path class="cls-7" d="M283.92,186.84c-4.45,14.91,2.18,31.11-.65,46.41a20.92,20.92,0,0,1-3.51,8.85c-3.65,4.9-59.62,4.75-63.27-.15A21,21,0,0,1,213,233.1c-2.83-15.31,3.8-31.51-.65-46.41a35.83,35.83,0,0,1-1.81-6.77c-.54-5.63,3-10.83,7-14.85s8.64-7.59,11.26-12.59c1.24-2.37,2-5,3.19-7.34a20.23,20.23,0,0,1,5-6.24,16.42,16.42,0,0,1,10.47-3.77h.1l1.23,0,.44,0a16.32,16.32,0,0,1,9.26,3.21,20.26,20.26,0,0,1,5.81,6.9c1.21,2.37,2,5,3.19,7.33,2.62,5,7.28,8.57,11.26,12.59s7.55,9.23,7,14.86A36.53,36.53,0,0,1,283.92,186.84Z"></path><polygon class="cls-6" points="246.9 135.12 246.79 135.13 246.79 135.12 246.9 135.12"></polygon><path class="cls-8" d="M269.84,245.23c-2.37-2.37-41-2.37-43.38,0s1.37-16,0-48.59,9.28-38.39,9.28-38.39h24.83s10.62,5.81,9.27,38.39S272.21,247.6,269.84,245.23Z"></path><path class="cls-9" d="M237.63,162.52c-1.07,1.41-2.3,3.5-1.77,5.11h9.6l1.33-9.38h-7.36l0,.24A9.13,9.13,0,0,1,237.63,162.52Z"></path><path class="cls-9" d="M260.07,162.52c1.07,1.41,2.31,3.5,1.77,5.11h-9.68l-1.25-9.38h7.36l0,.24A9.13,9.13,0,0,0,260.07,162.52Z"></path><path class="cls-6" d="M269.81,148.19c-.47,2.56-1.09,7.09-.42,10.7.58,3.07-6.87,3-13.36,2.4a84.56,84.56,0,0,0-15.75,0c-6.48.61-13.95.67-13.37-2.4.68-3.61.06-8.14-.41-10.7a1.69,1.69,0,0,1,1.67-2h40A1.69,1.69,0,0,1,269.81,148.19Z"></path><path class="cls-10" d="M269.81,148.19c-.47,2.56-1.09,7.09-.42,10.7.58,3.07-6.87,3-13.36,2.4a84.56,84.56,0,0,0-15.75,0c-6.48.61-13.95.67-13.37-2.4.68-3.61.06-8.14-.41-10.7a1.69,1.69,0,0,1,1.67-2h40A1.69,1.69,0,0,1,269.81,148.19Z"></path><path class="cls-11" d="M267.59,215.64s-.07,0-.08,0a0,0,0,0,1,0,0Z"></path><path class="cls-11" d="M237.26,148.72a3,3,0,0,0-.73,1.36,1.2,1.2,0,0,0,.61,1.32,1.51,1.51,0,0,0,1.5-.4c1.38-1.17,1.78-3.11,2.09-4.89,0,0-1.62.85-1.75,1A10.74,10.74,0,0,0,237.26,148.72Z"></path><path class="cls-6" d="M261.33,180.91c-11.83-1.38-20.13-1.06-32,.32l-.18,0a5.76,5.76,0,0,0-4.73,6.64,352.36,352.36,0,0,1,4.66,61.56l42.91-.8c.3-20.11,2-50.72.52-60.09C274.62,183.62,265.47,181.61,261.33,180.91Z"></path><path class="cls-8" d="M261.33,180.91c-11.83-1.38-20.13-1.06-32,.32l-.18,0a5.76,5.76,0,0,0-4.73,6.64,352.36,352.36,0,0,1,4.66,61.56l42.91-.8c.3-20.11,2-50.72.52-60.09C274.62,183.62,265.47,181.61,261.33,180.91Z"></path><path class="cls-11" d="M260,185.91c0,3.53,1.27,6.39,2.83,6.39s2.82-2.86,2.82-6.39-1.26-6.39-2.82-6.39S260,182.38,260,185.91Z"></path><path class="cls-11" d="M234.42,182.8c-.11-.25-2.43-6.27.88-10.91,2.52-3.56,7.54-5.19,14.9-4.86,5.9.26,9.91,1.83,11.91,4.68,2.4,3.41,1.15,7.46.68,9l-.05.18-2.34-.71.06-.2c.41-1.32,1.36-4.41-.34-6.84-1.55-2.2-4.92-3.42-10-3.65-6.48-.29-10.79,1-12.81,3.83-2.54,3.58-.61,8.55-.59,8.6Z"></path><path class="cls-11" d="M256.84,185.91c0,4.6,1.65,8.33,3.69,8.33s3.69-3.73,3.69-8.33-1.65-8.34-3.69-8.34S256.84,181.3,256.84,185.91Z"></path><path class="cls-11" d="M241.51,185.91c0,4.6-1.65,8.33-3.69,8.33s-3.68-3.73-3.68-8.33,1.65-8.34,3.68-8.34S241.51,181.3,241.51,185.91Z"></path><path class="cls-11" d="M241.51,185.91c0,4.6-1.65,8.33-3.69,8.33s-3.68-3.73-3.68-8.33,1.65-8.34,3.68-8.34S241.51,181.3,241.51,185.91Z"></path><path class="cls-11" d="M238.4,185.91c0,3.53-1.27,6.39-2.83,6.39s-2.83-2.86-2.83-6.39,1.27-6.39,2.83-6.39S238.4,182.38,238.4,185.91Z"></path><path class="cls-11" d="M238.4,185.91c0,3.53-1.27,6.39-2.83,6.39s-2.83-2.86-2.83-6.39,1.27-6.39,2.83-6.39S238.4,182.38,238.4,185.91Z"></path><g class="cls-12"><path class="cls-9" d="M238.4,185.91c0,3.53-1.27,6.39-2.83,6.39s-2.83-2.86-2.83-6.39,1.27-6.39,2.83-6.39S238.4,182.38,238.4,185.91Z"></path><path class="cls-9" d="M238.4,185.91c0,3.53-1.27,6.39-2.83,6.39s-2.83-2.86-2.83-6.39,1.27-6.39,2.83-6.39S238.4,182.38,238.4,185.91Z"></path></g><path class="cls-11" d="M260,185.91c0,3.53,1.27,6.39,2.83,6.39s2.82-2.86,2.82-6.39-1.26-6.39-2.82-6.39S260,182.38,260,185.91Z"></path><path class="cls-10" d="M260,185.91c0,3.53,1.27,6.39,2.83,6.39s2.82-2.86,2.82-6.39-1.26-6.39-2.82-6.39S260,182.38,260,185.91Z"></path><path class="cls-13" d="M240.65,180.38c-.4.54,4.14,7.19,12.19,7.19,5.48,0,3.25-7.11,3.25-7.11-4-1.53-4.6-4.34-4.28-7.63a19.54,19.54,0,0,1,.44-2.74l-6.81-5.65-5-4.16C241.75,165.92,243.82,175.84,240.65,180.38Z"></path><path class="cls-14" d="M245.6,166.49a11.83,11.83,0,0,0,.1,2.59c.32,2.59,3.7,5.29,6.24,5.8a21,21,0,0,1,.44-2.75Z"></path><path class="cls-13" d="M238.68,148.16a10.75,10.75,0,0,1,13.37-7.23c8.39,2.26,11.33,14.07,10.71,21.5a10.62,10.62,0,0,1-17.18,7.64c-4.71-3.65-5.32-8.39-7.05-16.37A10.73,10.73,0,0,1,238.68,148.16Z"></path><path class="cls-11" d="M256.85,162.17a.64.64,0,0,0,.71.32.6.6,0,0,0,.35-.59,1.29,1.29,0,0,0-.21-.8c-.11-.15-.29-.3-.46-.25C256.83,161,256.66,161.83,256.85,162.17Z"></path><path class="cls-13" d="M238.35,156.43c2.08-.52,4.31,1.88,5.2,3.7,1,2,.32,4.09-1.94,3.68a7.35,7.35,0,0,1-4.39-2.7C235.89,159.32,236.27,157,238.35,156.43Z"></path><path class="cls-11" d="M251.79,152.82c.44-.1.88.38,1,1s-.18,1.23-.6,1.28-.86-.44-1-1.09S251.35,152.92,251.79,152.82Z"></path><path class="cls-11" d="M259.85,151.64c.39,0,.78.39.87,1s-.16,1-.54,1.15-.77-.35-.86-.93S259.46,151.68,259.85,151.64Z"></path><path class="cls-15" d="M257.82,159.12a3.22,3.22,0,0,0,2.66-.64,20.59,20.59,0,0,1-3.12-4.67Z"></path><path class="cls-11" d="M250.25,152.25a3,3,0,0,1,2.24-1.62.41.41,0,0,0,.36-.42.39.39,0,0,0-.42-.36,3.73,3.73,0,0,0-2.86,2h0a.36.36,0,0,0,.31.57A.38.38,0,0,0,250.25,152.25Z"></path><path class="cls-11" d="M261.31,150.76a.39.39,0,0,0,0-.55,4,4,0,0,0-3.42-1.1h0a.38.38,0,0,0-.29.46.38.38,0,0,0,.46.29,3.23,3.23,0,0,1,2.74.91.4.4,0,0,0,.35.09A.45.45,0,0,0,261.31,150.76Z"></path><path class="cls-11" d="M245.59,148.1a.81.81,0,0,0-1-.78l-5.34.31a3.61,3.61,0,0,0-3.14,2.26c-2.77,6.7-.93,11.65.27,13.49,8,12.11,6.85,2.82,5.8.56-2.21-.51-3.54-1.35-4.08-3.26-.34-1.25-.41-3,.55-3.83a2.76,2.76,0,0,1,2.86-.43c-.12,2.62,1,4.34,2.6,6.61,0,0-1.9-7.85.22-8.85C245.55,153.58,245.58,150.05,245.59,148.1Z"></path><path class="cls-11" d="M239.59,141.66a7.31,7.31,0,0,0-2.26,5.63,1,1,0,0,0,.25.62,1,1,0,0,0,.65.2,85.72,85.72,0,0,0,12.1-.08l-2.69-1.74a16,16,0,0,0,6,1.7c1.9.15,4,0,5.56,1s2.35,3,3,4.8a17,17,0,0,0,1.68-6.87,10,10,0,0,0-2.29-6.58,11.23,11.23,0,0,0-7.41-3.29C242.11,135.87,239.59,141.66,239.59,141.66Z"></path><path class="cls-6" d="M220.25,187.81c-.76,2.14-2.93,14,11.28,30.71,1.17,1.37,6.09,4.06,10.53-.5,5.35-5.51,6.64-29.51,7.15-32.66s1.06-6.69,1.55-9.73c-5.31.62-4.57-2.09-5.74-3.69-1.19,1.51-6.64,29.63-9.88,35.1.1-3.64-4.91-25.65-7.52-25.28A8.6,8.6,0,0,0,220.25,187.81Z"></path><path class="cls-13" d="M236.52,203.91c.38-1.06.69-2.22,1.16-3.84l-3.87-2.31a.66.66,0,0,0-.74.15L231,200.05a3.39,3.39,0,0,0-.84,3.6,3.3,3.3,0,0,0,5.31,1.27l1.1-1h0Z"></path><path class="cls-6" d="M266.43,189.08c-.24.82-3.79,22-3.66,21.57-.88,1-1.85.49-2.49.3-4.95-1.48-11.21-6.25-16.16-7.73-.68-.21-1.53-.38-2,.14a2,2,0,0,0-.42,1.15c-.18,1.35-.92,4-1.1,5.32a1.51,1.51,0,0,0,.07.92,1.49,1.49,0,0,0,.6.51c6.12,3.54,8.52,5.35,14.63,8.88,2.66,1.54,11.55,5.76,14.57,2.92,3.19-3,11.64-34.34-.14-39.45C269.07,183.08,268.46,182.2,266.43,189.08Z"></path><path class="cls-16" d="M259.67,170.12c-.05.19-.09.38-.12.56a3.41,3.41,0,0,1-3.46,2.69l-.4,0c-.28.07-2.78,1.28-4.72,2.22a4.49,4.49,0,0,1-5.6-1.3A4.94,4.94,0,0,1,245,172c0-.16,3.09-3.23,5-5.18a4,4,0,0,1,3.22-1.15c1,.1,2.94.13,4.13.25C259.39,166.13,260.09,168.14,259.67,170.12Z"></path><path class="cls-6" d="M300.82,127.6c.23-2.57-1.89-4.2-5.31-4.2a9.8,9.8,0,0,0-8,3.89h0c-3.34-2.07-3.32-7.17.22-8.86a21.35,21.35,0,0,1,9.24-1.92c7.88,0,13,3.52,12.5,9.73-.74,8.41-9.65,9.35-10.14,14.92h-7.94C292.08,133.8,300.42,132.17,300.82,127.6Zm-11.17,22a5.24,5.24,0,0,1,5.45-4.68c2.94,0,4.87,2,4.64,4.68a5.37,5.37,0,0,1-5.47,4.78A4.35,4.35,0,0,1,289.65,149.57Z"></path><polygon class="cls-6" points="346.31 360.88 154.16 360.88 142.21 230.63 358.27 230.63 346.31 360.88"></polygon><rect class="cls-11" x="139.07" y="230.53" width="221.86" height="10.49"></rect><rect class="cls-17" x="139.07" y="230.53" width="221.86" height="10.49"></rect><polygon class="cls-9" points="279.46 294.67 230.61 266.47 230.61 322.87 279.46 294.67"></polygon></g><g id="Lamps"><polygon points="437.71 295.6 439.39 345.76 441.37 345.76 443.05 295.6 437.71 295.6"></polygon><polygon class="cls-11" points="433.16 312.56 434.56 308.63 444.79 308.63 447.6 312.56 433.16 312.56"></polygon><polygon class="cls-11" points="421.71 325.4 424.23 328.23 437.71 343.29 437.71 343.29 438.74 343.29 438.83 343.29 441.93 343.29 442.02 343.29 443.05 343.29 442.06 342.18 441.93 342.03 440.38 340.3 438.83 338.57 438.57 338.28 437.71 337.32 426.56 324.85 424.11 322.12 423.79 322.12 421.71 325.4"></polygon><polygon class="cls-11" points="459.04 325.4 456.6 328.13 443.05 343.29 437.71 343.29 437.71 343.28 438.7 342.17 438.83 342.03 440.38 340.3 441.93 338.57 442.19 338.27 443.05 337.32 454.27 324.78 456.65 322.12 456.96 322.12 459.04 325.4"></polygon><rect class="cls-11" x="336.29" y="228.59" width="208.19" height="3.1" transform="translate(670.52 -210.24) rotate(90)"></rect><rect class="cls-17" x="438.83" y="138.67" width="3.1" height="195.57"></rect><path class="cls-11" d="M482.76,362.72h-2.13l-24-34.59-2.33-3.35-8.49-12.22-2.73-3.93h3.79a2.77,2.77,0,0,1,2.37,1.3L457,322.12,459,325.4Z"></path><path class="cls-11" d="M398,362.71l33.55-52.78a2.82,2.82,0,0,1,2.37-1.3h3.8l-37.18,54.08Z"></path><rect class="cls-11" x="435.78" y="126.04" width="9.21" height="12.62"></rect><rect class="cls-18" x="435.78" y="126.04" width="9.21" height="12.62"></rect><path class="cls-11" d="M430.1,118.69l14.32-5.82a11.1,11.1,0,0,1,4.49,5.06,9.86,9.86,0,0,1,.08,6.93l-13.69,6Z"></path><path class="cls-10" d="M430.1,118.69l14.32-5.82a11.1,11.1,0,0,1,4.49,5.06,9.86,9.86,0,0,1,.08,6.93l-13.69,6Z"></path><path class="cls-11" d="M426.44,183.78s18.6-34.21,7.07-60.87a55.91,55.91,0,0,0-38.43-32.47l-.31.1,31.49,93.25Z"></path><polygon class="cls-11" points="395.08 90.44 374.25 97.16 405.43 184.88 426.44 183.78 395.08 90.44"></polygon><polygon class="cls-19" points="395.08 90.44 374.25 97.16 405.43 184.88 426.44 183.78 395.08 90.44"></polygon><polygon class="cls-6" points="396.18 93.72 379.32 99.28 407.15 178.94 424.4 177.71 396.18 93.72 396.18 93.72"></polygon><polygon class="cls-9" points="396.18 93.72 379.32 99.28 407.15 178.94 424.4 177.71 396.18 93.72 396.18 93.72"></polygon><rect class="cls-11" x="437.71" y="236.45" width="5.34" height="97.78"></rect><polygon points="59.82 295.6 58.14 345.76 56.16 345.76 54.48 295.6 59.82 295.6"></polygon><polygon class="cls-11" points="64.37 312.56 62.96 308.63 52.74 308.63 49.93 312.56 64.37 312.56"></polygon><polygon class="cls-11" points="75.81 325.4 73.3 328.23 59.82 343.29 59.81 343.29 58.79 343.29 58.7 343.29 55.6 343.29 55.5 343.29 54.48 343.29 55.47 342.18 55.6 342.03 57.15 340.3 58.7 338.57 58.96 338.28 59.81 337.32 70.97 324.85 73.42 322.12 73.73 322.12 75.81 325.4"></polygon><polygon class="cls-11" points="38.48 325.4 40.92 328.13 54.48 343.29 59.82 343.29 59.81 343.28 58.83 342.17 58.7 342.03 57.15 340.3 55.6 338.57 55.34 338.27 54.48 337.32 43.26 324.78 40.88 322.12 40.56 322.12 38.48 325.4"></polygon><rect class="cls-11" x="-46.95" y="228.59" width="208.19" height="3.1" transform="translate(287.28 172.99) rotate(90)"></rect><rect class="cls-17" x="55.6" y="138.67" width="3.1" height="195.57"></rect><path class="cls-11" d="M14.77,362.72H16.9l24-34.59,2.34-3.35,8.49-12.22,2.73-3.93h-3.8a2.78,2.78,0,0,0-2.37,1.3l-7.75,12.19-2.08,3.28Z"></path><path class="cls-11" d="M99.53,362.71,66,309.93a2.79,2.79,0,0,0-2.37-1.3H59.82L97,362.71Z"></path><rect class="cls-11" x="52.54" y="126.04" width="9.21" height="12.62" transform="translate(114.3 264.71) rotate(180)"></rect><rect class="cls-18" x="52.54" y="126.04" width="9.21" height="12.62" transform="translate(114.3 264.71) rotate(180)"></rect><path class="cls-11" d="M67.42,118.69l-14.31-5.82a11.1,11.1,0,0,0-4.49,5.06,9.86,9.86,0,0,0-.08,6.93l13.69,6Z"></path><path class="cls-10" d="M67.42,118.69l-14.31-5.82a11.1,11.1,0,0,0-4.49,5.06,9.86,9.86,0,0,0-.08,6.93l13.69,6Z"></path><path class="cls-11" d="M71.09,183.78S52.49,149.57,64,122.91a55.91,55.91,0,0,1,38.43-32.47l.3.1L71.27,183.79Z"></path><polygon class="cls-11" points="102.45 90.44 123.28 97.16 92.1 184.88 71.09 183.78 102.45 90.44"></polygon><polygon class="cls-19" points="102.45 90.44 123.28 97.16 92.1 184.88 71.09 183.78 102.45 90.44"></polygon><polygon class="cls-6" points="101.34 93.72 118.21 99.28 90.38 178.94 73.13 177.71 101.34 93.72 101.34 93.72"></polygon><polygon class="cls-9" points="101.34 93.72 118.21 99.28 90.38 178.94 73.13 177.71 101.34 93.72 101.34 93.72"></polygon><rect class="cls-11" x="54.48" y="236.45" width="5.34" height="97.78" transform="translate(114.3 570.68) rotate(180)"></rect><path class="cls-11" d="M142.17,164.14A28.16,28.16,0,1,0,170.33,136,28.16,28.16,0,0,0,142.17,164.14Zm8-.71a20.14,20.14,0,1,1,20.14,20.14A20.13,20.13,0,0,1,150.19,163.43Z"></path><g class="cls-20"><path class="cls-9" d="M142.17,164.14A28.16,28.16,0,1,0,170.33,136,28.16,28.16,0,0,0,142.17,164.14Zm8-.71a20.14,20.14,0,1,1,20.14,20.14A20.13,20.13,0,0,1,150.19,163.43Z"></path></g><rect class="cls-11" x="175.36" y="202.87" width="2.65" height="3.53" transform="translate(353.37 409.27) rotate(180)"></rect><rect class="cls-11" x="172.41" y="203.82" width="4.78" height="1.73" transform="translate(349.6 409.38) rotate(180)"></rect><rect class="cls-11" x="162.83" y="207.34" width="2.65" height="3.53"></rect><rect class="cls-11" x="163.65" y="208.29" width="4.78" height="1.73"></rect><rect class="cls-11" x="177.34" y="192.97" width="2.65" height="3.53" transform="translate(357.34 389.46) rotate(180)"></rect><rect class="cls-11" x="174.39" y="193.81" width="4.78" height="1.73" transform="translate(353.57 389.36) rotate(180)"></rect><rect x="169.19" y="203.28" width="3.23" height="39.82" transform="translate(341.6 446.38) rotate(180)"></rect><rect class="cls-11" x="167.86" y="214.16" width="6.04" height="5.37" transform="translate(341.76 433.69) rotate(180)"></rect><rect class="cls-11" x="169.84" y="196.45" width="2.07" height="6.43" transform="translate(341.74 399.32) rotate(180)"></rect><path d="M168.36,211.81h5v-10a2.51,2.51,0,0,0-2.52-2.51h0a2.51,2.51,0,0,0-2.52,2.51Z"></path><rect class="cls-11" x="166.97" y="211.81" width="7.89" height="2.24" transform="translate(341.83 425.87) rotate(180)"></rect><rect class="cls-11" x="167.05" y="191.88" width="7.67" height="5.53" transform="translate(341.77 389.29) rotate(180)"></rect><rect class="cls-11" x="164.2" y="226.02" width="14.43" height="4.66" transform="translate(342.83 456.7) rotate(180)"></rect><rect class="cls-21" x="164.2" y="226.02" width="14.43" height="4.66" transform="translate(342.83 456.7) rotate(180)"></rect><path class="cls-11" d="M173.73,230s-2.68-6.63-5.58,0l1.16,139.34s2,3.17,3.26,0Z"></path><path class="cls-11" d="M179.38,227.33s14.16,92,21,132.29c.64,3.75-2.46,5.94-3.5,1.23C196.5,359,174.7,228.78,174.7,228.78S175.77,222.66,179.38,227.33Z"></path><path class="cls-11" d="M162.38,227.33s-14.16,92-21,132.29c-.64,3.75,2.46,5.94,3.5,1.23.41-1.84,22.21-132.07,22.21-132.07S166,222.66,162.38,227.33Z"></path></g><g id="Camera"><path class="cls-11" d="M328,138.34a10.92,10.92,0,0,1,4.35.9L335,140.4a9.42,9.42,0,0,1,0,17.68l-2.62,1.16a10.9,10.9,0,1,1-4.35-20.9Z"></path><path class="cls-22" d="M328,138.34a10.92,10.92,0,0,1,4.35.9L335,140.4a9.42,9.42,0,0,1,0,17.68l-2.62,1.16a10.9,10.9,0,1,1-4.35-20.9Z"></path><path class="cls-11" d="M331.89,141h10.83a8.26,8.26,0,1,1,0,16.51H331.89a8.26,8.26,0,0,1,0-16.51Z"></path><path class="cls-17" d="M331.89,141h10.83a8.26,8.26,0,1,1,0,16.51H331.89a8.26,8.26,0,0,1,0-16.51Z"></path><path class="cls-17" d="M334.9,141h2.57a8.26,8.26,0,1,0,0,16.51H334.9a8.26,8.26,0,0,1,0-16.51Z"></path><path class="cls-11" d="M340.89,133.65h7.2a1.76,1.76,0,0,1,1.64,1.12l1.69,4.41H337.47S339.71,133.65,340.89,133.65Z"></path><path class="cls-17" d="M343.39,133.65h4.7a1.76,1.76,0,0,1,1.64,1.12l1.69,4.41H340.06l1.69-4.41A1.75,1.75,0,0,1,343.39,133.65Z"></path><path class="cls-11" d="M331.46,139.18H353.9a4,4,0,0,1,4,4V157.3a2,2,0,0,1-2,2H329.46a2,2,0,0,1-2-2V143.18A4,4,0,0,1,331.46,139.18Z" transform="translate(685.37 298.48) rotate(180)"></path><path class="cls-17" d="M336.8,139.18h17.1a4,4,0,0,1,4,4V157.3a2,2,0,0,1-2,2H334.8a2,2,0,0,1-2-2V143.18A4,4,0,0,1,336.8,139.18Z" transform="translate(690.71 298.48) rotate(180)"></path><rect class="cls-6" x="342.73" y="143.5" width="14.16" height="11.62" rx="1" transform="translate(699.62 298.63) rotate(180)"></rect><rect class="cls-10" x="342.73" y="143.5" width="14.16" height="11.62" rx="1" transform="translate(699.62 298.63) rotate(180)"></rect><rect class="cls-6" x="343.39" y="135.6" width="5.38" height="3.24" rx="1" transform="translate(692.15 274.45) rotate(180)"></rect><rect class="cls-10" x="343.39" y="135.6" width="5.38" height="3.24" rx="1" transform="translate(692.15 274.45) rotate(180)"></rect><rect class="cls-17" x="341.16" y="145.5" width="1.57" height="1.57" transform="translate(683.89 292.58) rotate(180)"></rect><rect class="cls-17" x="341.16" y="147.38" width="1.57" height="1.57" transform="translate(683.89 296.34) rotate(180)"></rect><rect class="cls-17" x="341.16" y="149.26" width="1.57" height="1.57" transform="translate(683.89 300.1) rotate(180)"></rect><rect class="cls-17" x="341.16" y="151.14" width="1.57" height="1.57" transform="translate(683.89 303.86) rotate(180)"></rect><path class="cls-11" d="M334,149.07a3.34,3.34,0,1,0,3.34-3.34A3.33,3.33,0,0,0,334,149.07Zm1.4,0a1.94,1.94,0,1,1,1.94,1.94A1.93,1.93,0,0,1,335.37,149.07Z"></path><path class="cls-11" d="M336.05,149.07a1.24,1.24,0,1,0,1.24-1.24A1.24,1.24,0,0,0,336.05,149.07Z"></path><path class="cls-6" d="M341.46,141a.48.48,0,0,0,.49.48.47.47,0,0,0,.48-.48.48.48,0,0,0-.48-.49A.49.49,0,0,0,341.46,141Z"></path><rect class="cls-11" x="348.44" y="171.59" width="2.96" height="3.95" transform="translate(699.84 347.12) rotate(180)"></rect><rect class="cls-11" x="345.14" y="172.65" width="5.35" height="1.94" transform="translate(695.62 347.23) rotate(180)"></rect><rect class="cls-11" x="334.42" y="176.59" width="2.96" height="3.95"></rect><rect class="cls-11" x="335.33" y="177.65" width="5.35" height="1.94"></rect><rect class="cls-11" x="350.65" y="160.51" width="2.96" height="3.95" transform="translate(704.27 324.96) rotate(180)"></rect><rect class="cls-11" x="347.35" y="161.45" width="5.35" height="1.94" transform="translate(700.06 324.84) rotate(180)"></rect><rect x="341.53" y="184.09" width="3.61" height="29.17" transform="translate(686.66 397.35) rotate(180)"></rect><rect class="cls-11" x="335.27" y="208.88" width="16.13" height="5.21" transform="translate(686.66 422.97) rotate(180)"></rect><rect class="cls-21" x="335.27" y="208.88" width="16.13" height="5.21" transform="translate(686.66 422.97) rotate(180)"></rect><path class="cls-11" d="M345.92,213.27s-3-7.42-6.24,0L341,369.12s2.28,3.55,3.64,0Z"></path><path class="cls-11" d="M352.24,210.34s15.84,102.91,23.53,148c.71,4.19-2.76,6.64-3.93,1.38C371.39,357.62,347,212,347,212S348.2,205.12,352.24,210.34Z"></path><path class="cls-11" d="M333.23,210.34s-15.85,102.91-23.53,148c-.71,4.19,2.75,6.64,3.92,1.38.46-2.07,24.84-147.72,24.84-147.72S337.26,205.12,333.23,210.34Z"></path><rect class="cls-11" x="340.05" y="196.34" width="6.75" height="6" transform="translate(686.85 398.68) rotate(180)"></rect><rect class="cls-11" x="340.05" y="187.21" width="6.75" height="6" transform="translate(686.85 380.43) rotate(180)"></rect><rect class="cls-11" x="342.26" y="164.4" width="2.31" height="7.19" transform="translate(686.83 335.98) rotate(180)"></rect><path d="M340.6,181.59h5.64V170.4a2.81,2.81,0,0,0-2.82-2.81h0a2.82,2.82,0,0,0-2.82,2.81Z"></path><rect class="cls-11" x="339.05" y="181.59" width="8.83" height="2.5" transform="translate(686.92 365.68) rotate(180)"></rect><rect class="cls-11" x="339.14" y="159.29" width="8.58" height="6.19" transform="translate(686.86 324.77) rotate(180)"></rect></g><g id="Content"><path class="cls-6" d="M231.68,105.87a.57.57,0,0,1-.18,0,51.6,51.6,0,0,1-25.14-19.36.54.54,0,0,1,.14-.74.53.53,0,0,1,.74.14,51.31,51.31,0,0,0,24.62,19,.53.53,0,0,1-.18,1Z"></path><path class="cls-6" d="M239.75,108.05h-.1c-1.62-.3-3.23-.68-4.81-1.12a.54.54,0,0,1-.37-.66.53.53,0,0,1,.66-.37c1.54.44,3.13.81,4.71,1.1a.53.53,0,0,1-.09,1.06Z"></path><path class="cls-6" d="M258.49,108a.53.53,0,0,1-.09-1.06,51,51,0,0,0,28.49-16.07.53.53,0,0,1,.79.71A52.06,52.06,0,0,1,258.59,108Z"></path><path class="cls-6" d="M290.08,88.37a.56.56,0,0,1-.32-.11.53.53,0,0,1-.1-.74c.81-1.08,1.58-2.2,2.3-3.34a.53.53,0,0,1,.73-.16.53.53,0,0,1,.17.73c-.74,1.16-1.53,2.31-2.35,3.41A.54.54,0,0,1,290.08,88.37Z"></path><path class="cls-6" d="M299.3,47.24a.54.54,0,0,1-.52-.43,50.28,50.28,0,0,0-7.52-18,.53.53,0,0,1,.88-.6,51.48,51.48,0,0,1,7.69,18.37.53.53,0,0,1-.42.63Z"></path><path class="cls-6" d="M289.73,26.32a.53.53,0,0,1-.42-.2A51,51,0,0,0,261.8,7.89a.53.53,0,1,1,.27-1,52.06,52.06,0,0,1,28.08,18.61.53.53,0,0,1-.09.74A.51.51,0,0,1,289.73,26.32Z"></path><path class="cls-6" d="M220.45,15a.53.53,0,0,1-.29-1,51.51,51.51,0,0,1,13-6.31.53.53,0,1,1,.33,1,50.48,50.48,0,0,0-12.75,6.19A.55.55,0,0,1,220.45,15Z"></path><path class="cls-6" d="M215.36,18.87a.54.54,0,0,1-.35-.94c.83-.71,1.68-1.41,2.55-2.08a.54.54,0,1,1,.65.85c-.85.65-1.69,1.34-2.5,2A.51.51,0,0,1,215.36,18.87Z"></path><path class="cls-6" d="M201.22,39a.43.43,0,0,1-.19,0,.53.53,0,0,1-.31-.69,51.46,51.46,0,0,1,11.86-18,.53.53,0,0,1,.75,0,.53.53,0,0,1,0,.75,50.44,50.44,0,0,0-11.61,17.66A.55.55,0,0,1,201.22,39Z"></path><g id="Podcast"><path class="cls-11" d="M248.75,109.26c-5.51,0-8.49-4.29-8.63-12.39a.44.44,0,0,1,.45-.46.47.47,0,0,1,.47.45c.13,7.61,2.73,11.47,7.71,11.47s7.59-3.75,7.71-11.47a.47.47,0,0,1,.47-.45h0a.46.46,0,0,1,.46.46C257.26,105.09,254.35,109.26,248.75,109.26Z"></path><path class="cls-11" d="M256.93,97.33H240.58a.46.46,0,0,1-.46-.46.45.45,0,0,1,.46-.46h16.35a.46.46,0,0,1,.46.46A.47.47,0,0,1,256.93,97.33Z"></path><path class="cls-11" d="M254.24,93.24h-11l.33-11.91.23-.12a10.91,10.91,0,0,1,9.89,0l.23.12Z"></path><g class="cls-23"><path class="cls-3" d="M254.24,93.24h-11l.33-11.91.23-.12a10.91,10.91,0,0,1,9.89,0l.23.12Z"></path></g><path class="cls-6" d="M243.23,93.24h11l-.33,11.91-.23.12a10.85,10.85,0,0,1-9.89,0l-.23-.12Z"></path><rect class="cls-11" x="242.93" y="92.31" width="11.65" height="2"></rect><rect class="cls-6" x="242.93" y="92.31" width="11.65" height="2"></rect><rect class="cls-22" x="242.93" y="92.31" width="11.65" height="2"></rect><path class="cls-11" d="M250.1,98.84a1.73,1.73,0,1,1-2.7-2.17,1.74,1.74,0,0,1,2.44-.26A1.72,1.72,0,0,1,250.1,98.84Z"></path><path class="cls-17" d="M250.49,97.76A1.74,1.74,0,1,1,248.75,96,1.74,1.74,0,0,1,250.49,97.76Z"></path><path class="cls-6" d="M249.49,96.94a.36.36,0,0,1-.37.37.37.37,0,0,1-.37-.37.38.38,0,0,1,.37-.37A.37.37,0,0,1,249.49,96.94Z"></path><path class="cls-11" d="M248.75,116.42a.47.47,0,0,1-.46-.46v-8.17a.47.47,0,0,1,.93,0V116A.47.47,0,0,1,248.75,116.42Z"></path><path class="cls-6" d="M239.75,119.72s4-3.93,9-3.93,9,3.93,9,3.93Z"></path></g><g id="Game"><rect class="cls-6" x="185.53" y="41.08" width="6.93" height="41.02"></rect><rect class="cls-21" x="185.53" y="41.08" width="6.93" height="41.02"></rect><polygon class="cls-11" points="194.93 82.88 182.59 82.88 185.53 80.68 192.46 80.68 194.93 82.88"></polygon><polygon class="cls-11" points="211 82.92 208.78 82.92 208.8 81 211 82.92"></polygon><polygon class="cls-6" points="208.8 41.15 208.78 82.92 194.93 82.88 192.46 80.68 192.46 41.08 208.8 41.15"></polygon><polygon class="cls-24" points="208.8 41.15 208.78 82.92 194.93 82.88 192.46 80.68 192.46 41.08 208.8 41.15"></polygon><path class="cls-6" d="M177.25,71.28V82.92h1.32a3.45,3.45,0,0,0,3-1.81L185.47,74Z"></path><path class="cls-6" d="M186.4,71.44a4.58,4.58,0,1,1-4.58-4.58A4.58,4.58,0,0,1,186.4,71.44Z"></path><path class="cls-6" d="M200.85,71.28a4.57,4.57,0,1,1-4.57-4.57A4.57,4.57,0,0,1,200.85,71.28Z"></path><rect class="cls-9" x="195.9" y="68.58" width="1.46" height="3.97"></rect><rect class="cls-9" x="195.9" y="68.58" width="1.46" height="3.97" transform="translate(126.07 267.2) rotate(-90)"></rect><path class="cls-9" d="M180.6,69.6a.71.71,0,1,1-.71-.71A.71.71,0,0,1,180.6,69.6Z"></path><path class="cls-9" d="M183.5,69.6a.71.71,0,1,1-.71-.71A.71.71,0,0,1,183.5,69.6Z"></path><path class="cls-9" d="M180.6,72.14a.71.71,0,1,1-.71-.7A.7.7,0,0,1,180.6,72.14Z"></path><path class="cls-9" d="M183.5,72.14a.71.71,0,1,1-.71-.7A.71.71,0,0,1,183.5,72.14Z"></path><rect class="cls-6" x="184.38" y="69.47" width="9.4" height="4.57"></rect><path class="cls-6" d="M200.85,71.28V82.92H199a2.56,2.56,0,0,1-2.24-1.33L192.63,74Z"></path><path class="cls-22" d="M177.25,81.7h1.68A2.31,2.31,0,0,0,181,80.44l4.09-8h7.55V74h-7.16l-4.08,7.5A2.68,2.68,0,0,1,179,82.92h-1.78Z"></path><path class="cls-22" d="M200.85,81.7h-1.68a2.32,2.32,0,0,1-2.06-1.26l-4.08-8h-7.56V74h7.16l4.08,7.5a2.69,2.69,0,0,0,2.36,1.39h1.78Z"></path></g><g id="Eat"><path class="cls-6" d="M318.77,65.61A16.13,16.13,0,0,1,309,80.42v-.11h-13a16.12,16.12,0,0,1-9.53-14.71c0-.13,0-.26,0-.39.18,1.33,5.15,2.44,11.87,2.79l1.33,0,.45,0,1.34,0h1.79c.15,0,.3,0,.45,0,.45,0,.9,0,1.34,0h.44l1.34,0C313.05,67.73,317.77,66.79,318.77,65.61Z"></path><path class="cls-6" d="M318.77,65.61c-1,1.18-5.72,2.12-11.87,2.41l-1.34,0h-.44c-.44,0-.89,0-1.34,0-.15,0-.3,0-.45,0h-1.79l-1.34,0-.45,0-1.33,0c-6.72-.35-11.69-1.46-11.87-2.79a1.09,1.09,0,0,1,0-.18c.25-1.32,5.19-2.41,11.86-2.75l1.33,0,.45,0,1.34,0h2.24l1.34,0,.44,0,1.34.05c6.08.29,10.77,1.21,11.84,2.37Q318.77,65.13,318.77,65.61Z"></path><path class="cls-24" d="M319,65.15a.67.67,0,0,1-.2.46c-1,1.18-5.72,2.12-11.87,2.41l-1.34,0h-.44c-.44,0-.89,0-1.34,0-.15,0-.3,0-.45,0h-1.79l-1.34,0-.45,0-1.33,0c-6.72-.35-11.69-1.46-11.87-2.79a.17.17,0,0,1,0-.07.2.2,0,0,1,0-.11c.25-1.32,5.19-2.41,11.86-2.75l1.33,0,.45,0,1.34,0h2.24l1.34,0,.44,0,1.34.05c6.08.29,10.77,1.21,11.84,2.37A.72.72,0,0,1,319,65.15Z"></path><polygon class="cls-11" points="284.92 52.41 284.92 51.97 291.68 51.69 320.39 51.69 320.39 52.81 291.68 52.81 284.92 52.41"></polygon><polygon class="cls-11" points="284.92 53.49 284.92 53.05 291.68 52.77 320.39 52.77 320.39 53.89 291.68 53.89 284.92 53.49"></polygon><path class="cls-6" d="M299.75,51.92V68.06l-1.33,0V51.92a.67.67,0,1,1,1.33,0Z"></path><path class="cls-6" d="M301.54,51.92V68.11l-1.34,0V51.92a.67.67,0,0,1,1.34,0Z"></path><path class="cls-6" d="M303.33,51.92V68.11H302V51.92a.67.67,0,0,1,1.34,0Z"></path><path class="cls-6" d="M305.12,51.92V68.08c-.44,0-.89,0-1.34,0V51.92a.67.67,0,0,1,1.34,0Z"></path><path class="cls-6" d="M306.9,51.92V68l-1.34,0V51.92a.67.67,0,0,1,1.34,0Z"></path><g class="cls-20"><path class="cls-9" d="M303.33,51.92V68.11H302V51.92a.67.67,0,0,1,1.34,0Z"></path></g><rect class="cls-11" x="296.07" y="80.31" width="12.96" height="1.41"></rect><path class="cls-17" d="M299.09,51.25a.67.67,0,0,0-.67.67V68l1.33,0V51.92A.67.67,0,0,0,299.09,51.25Z"></path><g class="cls-20"><path class="cls-9" d="M301.54,51.92V68.11l-1.34,0V51.92a.67.67,0,0,1,1.34,0Z"></path></g><g class="cls-20"><path class="cls-9" d="M305.12,51.92V68.08c-.44,0-.89,0-1.34,0V51.92a.67.67,0,0,1,1.34,0Z"></path></g><g class="cls-20"><path class="cls-9" d="M306.9,51.92V68l-1.34,0V51.92a.67.67,0,0,1,1.34,0Z"></path></g></g><g id="Unbox"><polygon class="cls-6" points="228.71 11.94 233.6 20.58 233.63 20.62 246.61 20.62 241.72 11.98 241.69 11.94 228.71 11.94"></polygon><polygon class="cls-24" points="228.71 11.94 233.6 20.58 233.63 20.62 246.61 20.62 241.72 11.98 241.69 11.94 228.71 11.94"></polygon><path class="cls-11" d="M254.68,7.87,253,26.68a1.58,1.58,0,0,1-1.54,1.42h-9.06a1.28,1.28,0,0,1-1.29-1.42L242.8,7.87a1.58,1.58,0,0,1,1.54-1.42h9A1.27,1.27,0,0,1,254.68,7.87Z"></path><path class="cls-18" d="M254.07,7.87l-1.64,18.81a1.58,1.58,0,0,1-1.54,1.42h-8.45a1.28,1.28,0,0,1-1.29-1.42L242.8,7.87a1.58,1.58,0,0,1,1.54-1.42h8.44A1.27,1.27,0,0,1,254.07,7.87Z"></path><path class="cls-9" d="M248.55,15.85c0-.46-.34-.76-1-.76a1.77,1.77,0,0,0-1.44.71h0a.93.93,0,0,1,0-1.61,3.92,3.92,0,0,1,1.67-.35c1.43,0,2.37.64,2.27,1.76-.14,1.53-1.75,1.7-1.84,2.71h-1.44C247,17,248.48,16.68,248.55,15.85Zm-2,4a1,1,0,0,1,1-.85.78.78,0,0,1,.84.85,1,1,0,0,1-1,.87A.79.79,0,0,1,246.53,19.83Z"></path><rect class="cls-6" x="233.58" y="20.62" width="22.88" height="18.86"></rect><rect class="cls-6" x="256.46" y="20.62" width="8.08" height="18.86"></rect><rect class="cls-24" x="251.54" y="20.62" width="13" height="18.86"></rect><polygon class="cls-6" points="269.45 11.94 264.55 20.58 264.53 20.62 251.54 20.62 256.44 11.98 256.46 11.94 269.45 11.94"></polygon><polygon points="264.55 20.58 264.54 20.62 264.53 20.62 264.55 20.58"></polygon><polygon points="256.46 11.94 256.44 11.98 256.45 11.94 256.46 11.94"></polygon></g></g></g></svg>