<svg xmlns="http://www.w3.org/2000/svg" xmlns:xlink="http://www.w3.org/1999/xlink" viewBox="0 0 1307.23 1258.35"><defs><style>.cls-1{fill:#fff;}.cls-2{font-size:104.95px;font-family:Caveat-Bold, Caveat Bold;font-weight:700;}.cls-3{letter-spacing:-0.04em;}.cls-4{letter-spacing:-0.01em;}.cls-5{fill:url(#linear-gradient);}.cls-6{letter-spacing:-0.02em;}.cls-7{letter-spacing:0em;}.cls-8{fill:url(#linear-gradient-7);}.cls-9{letter-spacing:-0.08em;}.cls-10{fill:url(#linear-gradient-12);}.cls-11{fill:url(#linear-gradient-17);}.cls-12{fill:url(#linear-gradient-18);}.cls-13{fill:url(#linear-gradient-19);}.cls-14{fill:url(#linear-gradient-20);}.cls-15{fill:url(#linear-gradient-21);}.cls-16{fill:url(#linear-gradient-22);}.cls-17{fill:url(#linear-gradient-23);}.cls-18{fill:url(#linear-gradient-24);}.cls-19{fill:url(#linear-gradient-25);}.cls-20{fill:url(#linear-gradient-26);}.cls-21{fill:url(#linear-gradient-27);}.cls-22{fill:url(#linear-gradient-28);}.cls-23{fill:url(#linear-gradient-29);}.cls-24{fill:url(#linear-gradient-30);}.cls-25{fill:url(#linear-gradient-31);}.cls-26{fill:url(#linear-gradient-32);}.cls-27{fill:url(#linear-gradient-33);}.cls-28{fill:url(#linear-gradient-34);}.cls-29{fill:url(#linear-gradient-35);}.cls-30{fill:url(#linear-gradient-36);}.cls-31{fill:url(#linear-gradient-37);}.cls-32{fill:url(#linear-gradient-38);}.cls-33{fill:url(#linear-gradient-39);}.cls-34{fill:url(#linear-gradient-40);}.cls-35{fill:url(#linear-gradient-41);}.cls-36{fill:url(#linear-gradient-42);}.cls-37{fill:#19a6a2;}.cls-38{fill:#d82548;}.cls-39{fill:#a31c36;}.cls-40{fill:#1bb5b1;}.cls-41{fill:#1fcfca;}.cls-42{fill:#bd213f;}.cls-43{fill:url(#linear-gradient-43);}.cls-44{fill:#84172c;}.cls-45{fill:#137f7c;}.cls-46{isolation:isolate;}.cls-47{clip-path:url(#clip-path);}.cls-48{fill:url(#linear-gradient-44);}.cls-49{fill:url(#linear-gradient-45);}.cls-50{fill:url(#linear-gradient-46);}.cls-51{fill:url(#linear-gradient-47);}.cls-52{fill:url(#linear-gradient-48);}.cls-53{fill:url(#linear-gradient-49);}.cls-54{fill:url(#linear-gradient-50);}.cls-55{fill:url(#linear-gradient-51);}.cls-56{fill:url(#linear-gradient-52);}.cls-57{fill:url(#linear-gradient-53);}.cls-58{fill:url(#linear-gradient-54);}.cls-59{fill:url(#linear-gradient-55);}.cls-60{fill:url(#linear-gradient-56);}.cls-61{fill:url(#linear-gradient-57);}.cls-62{fill:url(#linear-gradient-58);}.cls-63{fill:url(#linear-gradient-59);}.cls-64{fill:url(#linear-gradient-60);}.cls-65{fill:url(#linear-gradient-61);}.cls-66{fill:url(#linear-gradient-62);}.cls-67{fill:url(#linear-gradient-63);}.cls-68{fill:url(#linear-gradient-64);}.cls-69{fill:url(#linear-gradient-65);}.cls-70{fill:url(#linear-gradient-66);}.cls-71{fill:url(#linear-gradient-67);}.cls-72{fill:url(#linear-gradient-68);}.cls-73{fill:url(#linear-gradient-69);}.cls-74{fill:url(#linear-gradient-70);}.cls-75{fill:url(#linear-gradient-71);}.cls-76{fill:url(#linear-gradient-72);}.cls-77{fill:url(#linear-gradient-73);}.cls-78{fill:url(#linear-gradient-74);}.cls-79{fill:url(#linear-gradient-75);}.cls-80{fill:url(#linear-gradient-76);}.cls-81{fill:url(#linear-gradient-77);}.cls-82{fill:url(#linear-gradient-78);}.cls-83{fill:url(#linear-gradient-79);}.cls-84{fill:url(#linear-gradient-80);}.cls-85{fill:url(#linear-gradient-81);}.cls-86{fill:url(#linear-gradient-82);}.cls-87{fill:url(#linear-gradient-83);}.cls-88{fill:url(#linear-gradient-84);}.cls-89{fill:url(#linear-gradient-85);}.cls-90{fill:url(#linear-gradient-86);}.cls-91{fill:url(#linear-gradient-87);}.cls-92{fill:url(#linear-gradient-88);}.cls-93{fill:url(#linear-gradient-89);}.cls-94{fill:url(#linear-gradient-90);}.cls-95{fill:url(#linear-gradient-91);}.cls-96{fill:url(#linear-gradient-92);}.cls-97{fill:url(#linear-gradient-93);}.cls-98{fill:url(#linear-gradient-94);}.cls-99{fill:url(#linear-gradient-95);}.cls-100{fill:url(#linear-gradient-96);}.cls-101{fill:url(#linear-gradient-97);}.cls-102{fill:url(#linear-gradient-98);}.cls-103{fill:url(#linear-gradient-99);}.cls-104{fill:url(#linear-gradient-100);}.cls-105{fill:url(#linear-gradient-101);}.cls-106{fill:url(#linear-gradient-102);}.cls-107{fill:url(#linear-gradient-103);}.cls-108{fill:url(#linear-gradient-104);}</style><linearGradient id="linear-gradient" x1="903.21" y1="1099.14" x2="1183.1" y2="1099.14" gradientUnits="userSpaceOnUse"><stop offset="0" stop-color="#01ebfc"></stop><stop offset="1" stop-color="#f91425"></stop></linearGradient><linearGradient id="linear-gradient-7" x1="28.66" y1="1171.96" x2="210.95" y2="1171.96" xlink:href="#linear-gradient"></linearGradient><linearGradient id="linear-gradient-12" x1="801.64" y1="63.44" x2="1074.19" y2="63.44" xlink:href="#linear-gradient"></linearGradient><linearGradient id="linear-gradient-17" x1="39.71" y1="517.88" x2="225.57" y2="517.88" xlink:href="#linear-gradient"></linearGradient><linearGradient id="linear-gradient-18" x1="373.97" y1="409.34" x2="546.16" y2="285.58" xlink:href="#linear-gradient"></linearGradient><linearGradient id="linear-gradient-19" x1="975.42" y1="917.11" x2="1054.11" y2="860.55" xlink:href="#linear-gradient"></linearGradient><linearGradient id="linear-gradient-20" x1="1019.01" y1="1012.99" x2="1051.21" y2="989.84" xlink:href="#linear-gradient"></linearGradient><linearGradient id="linear-gradient-21" x1="52.95" y1="997.14" x2="194.28" y2="895.56" xlink:href="#linear-gradient"></linearGradient><linearGradient id="linear-gradient-22" x1="98.18" y1="1089.53" x2="141.56" y2="1058.35" xlink:href="#linear-gradient"></linearGradient><linearGradient id="linear-gradient-23" x1="590.14" y1="177.51" x2="740.85" y2="69.19" xlink:href="#linear-gradient"></linearGradient><linearGradient id="linear-gradient-24" x1="714.75" y1="72.63" x2="751.96" y2="45.89" xlink:href="#linear-gradient"></linearGradient><linearGradient id="linear-gradient-25" x1="693.3" y1="257.45" x2="780.22" y2="194.98" xlink:href="#linear-gradient"></linearGradient><linearGradient id="linear-gradient-26" x1="698.4" y1="330.37" x2="721.03" y2="314.11" xlink:href="#linear-gradient"></linearGradient><linearGradient id="linear-gradient-27" x1="489.03" y1="554.42" x2="590.87" y2="481.23" xlink:href="#linear-gradient"></linearGradient><linearGradient id="linear-gradient-28" x1="575.66" y1="492.05" x2="598.87" y2="475.37" xlink:href="#linear-gradient"></linearGradient><linearGradient id="linear-gradient-29" x1="176.07" y1="707" x2="328.15" y2="597.69" xlink:href="#linear-gradient"></linearGradient><linearGradient id="linear-gradient-30" x1="165.66" y1="697.85" x2="196.04" y2="676.02" xlink:href="#linear-gradient"></linearGradient><linearGradient id="linear-gradient-31" x1="427.28" y1="1277.11" x2="533.6" y2="1200.7" xlink:href="#linear-gradient"></linearGradient><linearGradient id="linear-gradient-32" x1="593.15" y1="1252.52" x2="638.11" y2="1220.21" xlink:href="#linear-gradient"></linearGradient><linearGradient id="linear-gradient-33" x1="815.15" y1="1059.1" x2="954.67" y2="958.82" xlink:href="#linear-gradient"></linearGradient><linearGradient id="linear-gradient-34" x1="803.78" y1="1156.29" x2="844.53" y2="1127" xlink:href="#linear-gradient"></linearGradient><linearGradient id="linear-gradient-35" x1="943.11" y1="689.79" x2="973.71" y2="667.79" xlink:href="#linear-gradient"></linearGradient><linearGradient id="linear-gradient-36" x1="1024.16" y1="715.08" x2="1106.29" y2="656.06" xlink:href="#linear-gradient"></linearGradient><linearGradient id="linear-gradient-37" x1="1173.82" y1="653.41" x2="1237.36" y2="607.74" xlink:href="#linear-gradient"></linearGradient><linearGradient id="linear-gradient-38" x1="1209.24" y1="558.6" x2="1233.88" y2="540.89" xlink:href="#linear-gradient"></linearGradient><linearGradient id="linear-gradient-39" x1="917.3" y1="221.07" x2="967.95" y2="184.67" xlink:href="#linear-gradient"></linearGradient><linearGradient id="linear-gradient-40" x1="1004.83" y1="258.7" x2="1015.5" y2="251.03" xlink:href="#linear-gradient"></linearGradient><linearGradient id="linear-gradient-41" x1="1117.91" y1="415.04" x2="1154.52" y2="388.72" xlink:href="#linear-gradient"></linearGradient><linearGradient id="linear-gradient-42" x1="1186.49" y1="438.94" x2="1197.6" y2="430.95" xlink:href="#linear-gradient"></linearGradient><linearGradient id="linear-gradient-43" x1="607.12" y1="758.4" x2="330.83" y2="958.26" gradientUnits="userSpaceOnUse"><stop offset="0" stop-color="#b21f3b"></stop><stop offset="1" stop-color="#84172c"></stop></linearGradient><clipPath id="clip-path"><path class="cls-1" d="M258,1072.63l26.46,57.68a158.54,158.54,0,0,1-14.14-13.13l-26.46-57.68A157.18,157.18,0,0,0,258,1072.63Z"></path></clipPath><linearGradient id="linear-gradient-44" x1="792.35" y1="827.3" x2="374.98" y2="1250.54" xlink:href="#linear-gradient-43"></linearGradient><linearGradient id="linear-gradient-45" x1="1073.96" y1="275.32" x2="1235.56" y2="247.08" xlink:href="#linear-gradient"></linearGradient><linearGradient id="linear-gradient-46" x1="52.79" y1="610.54" x2="73" y2="596.01" xlink:href="#linear-gradient"></linearGradient><linearGradient id="linear-gradient-47" x1="19.76" y1="588.64" x2="42.5" y2="572.3" xlink:href="#linear-gradient"></linearGradient><linearGradient id="linear-gradient-48" x1="3.42" y1="527.28" x2="21.12" y2="514.56" xlink:href="#linear-gradient"></linearGradient><linearGradient id="linear-gradient-49" x1="6.09" y1="456" x2="16.85" y2="448.27" xlink:href="#linear-gradient"></linearGradient><linearGradient id="linear-gradient-50" x1="37.18" y1="407.26" x2="52.22" y2="396.45" xlink:href="#linear-gradient"></linearGradient><linearGradient id="linear-gradient-51" x1="74.5" y1="398.97" x2="91.41" y2="386.83" xlink:href="#linear-gradient"></linearGradient><linearGradient id="linear-gradient-52" x1="128" y1="392.14" x2="150.58" y2="375.92" xlink:href="#linear-gradient"></linearGradient><linearGradient id="linear-gradient-53" x1="188.09" y1="386.96" x2="207.56" y2="372.96" xlink:href="#linear-gradient"></linearGradient><linearGradient id="linear-gradient-54" x1="240.59" y1="426.42" x2="262.33" y2="410.79" xlink:href="#linear-gradient"></linearGradient><linearGradient id="linear-gradient-55" x1="268.36" y1="479.59" x2="280.06" y2="471.18" xlink:href="#linear-gradient"></linearGradient><linearGradient id="linear-gradient-56" x1="253.45" y1="539.23" x2="262.99" y2="532.37" xlink:href="#linear-gradient"></linearGradient><linearGradient id="linear-gradient-57" x1="216.76" y1="591.11" x2="232.56" y2="579.76" xlink:href="#linear-gradient"></linearGradient><linearGradient id="linear-gradient-58" x1="175.9" y1="636.11" x2="195.59" y2="621.95" xlink:href="#linear-gradient"></linearGradient><linearGradient id="linear-gradient-59" x1="134.41" y1="646.68" x2="153.35" y2="633.07" xlink:href="#linear-gradient"></linearGradient><linearGradient id="linear-gradient-60" x1="96.67" y1="620.89" x2="112.48" y2="609.52" xlink:href="#linear-gradient"></linearGradient><linearGradient id="linear-gradient-61" x1="365.05" y1="339.21" x2="376.21" y2="331.19" xlink:href="#linear-gradient"></linearGradient><linearGradient id="linear-gradient-62" x1="380.21" y1="314.7" x2="394.65" y2="304.32" xlink:href="#linear-gradient"></linearGradient><linearGradient id="linear-gradient-63" x1="400.86" y1="280.92" x2="409.99" y2="274.36" xlink:href="#linear-gradient"></linearGradient><linearGradient id="linear-gradient-64" x1="416.57" y1="255.64" x2="429.5" y2="246.34" xlink:href="#linear-gradient"></linearGradient><linearGradient id="linear-gradient-65" x1="443.05" y1="233.82" x2="458.84" y2="222.47" xlink:href="#linear-gradient"></linearGradient><linearGradient id="linear-gradient-66" x1="473.51" y1="229.51" x2="493.88" y2="214.87" xlink:href="#linear-gradient"></linearGradient><linearGradient id="linear-gradient-67" x1="516.88" y1="251.46" x2="533.41" y2="239.58" xlink:href="#linear-gradient"></linearGradient><linearGradient id="linear-gradient-68" x1="556.2" y1="271.8" x2="569.98" y2="261.9" xlink:href="#linear-gradient"></linearGradient><linearGradient id="linear-gradient-69" x1="569.72" y1="314.96" x2="582.13" y2="306.04" xlink:href="#linear-gradient"></linearGradient><linearGradient id="linear-gradient-70" x1="564.73" y1="356.25" x2="573.74" y2="349.77" xlink:href="#linear-gradient"></linearGradient><linearGradient id="linear-gradient-71" x1="553.99" y1="393.9" x2="561.78" y2="388.31" xlink:href="#linear-gradient"></linearGradient><linearGradient id="linear-gradient-72" x1="535.77" y1="432.29" x2="548.74" y2="422.97" xlink:href="#linear-gradient"></linearGradient><linearGradient id="linear-gradient-73" x1="505.99" y1="448.17" x2="518.96" y2="438.85" xlink:href="#linear-gradient"></linearGradient><linearGradient id="linear-gradient-74" x1="463.54" y1="459.16" x2="485.32" y2="443.5" xlink:href="#linear-gradient"></linearGradient><linearGradient id="linear-gradient-75" x1="430.83" y1="458.26" x2="452.83" y2="442.45" xlink:href="#linear-gradient"></linearGradient><linearGradient id="linear-gradient-76" x1="394.32" y1="453.89" x2="418.08" y2="436.81" xlink:href="#linear-gradient"></linearGradient><linearGradient id="linear-gradient-77" x1="362.78" y1="452.28" x2="382.07" y2="438.42" xlink:href="#linear-gradient"></linearGradient><linearGradient id="linear-gradient-78" x1="343.78" y1="422.51" x2="361.76" y2="409.58" xlink:href="#linear-gradient"></linearGradient><linearGradient id="linear-gradient-79" x1="333.72" y1="390.69" x2="349.81" y2="379.13" xlink:href="#linear-gradient"></linearGradient><linearGradient id="linear-gradient-80" x1="344.41" y1="359.27" x2="353.03" y2="353.07" xlink:href="#linear-gradient"></linearGradient><linearGradient id="linear-gradient-81" x1="1085.07" y1="171.54" x2="1093.73" y2="165.31" xlink:href="#linear-gradient"></linearGradient><linearGradient id="linear-gradient-82" x1="1112.04" y1="164.7" x2="1122.94" y2="156.86" xlink:href="#linear-gradient"></linearGradient><linearGradient id="linear-gradient-83" x1="1138.35" y1="161.46" x2="1154.48" y2="149.86" xlink:href="#linear-gradient"></linearGradient><linearGradient id="linear-gradient-84" x1="1166.95" y1="167.56" x2="1189.17" y2="151.59" xlink:href="#linear-gradient"></linearGradient><linearGradient id="linear-gradient-85" x1="1196.97" y1="169.68" x2="1219.36" y2="153.58" xlink:href="#linear-gradient"></linearGradient><linearGradient id="linear-gradient-86" x1="1237.3" y1="179.18" x2="1258.49" y2="163.95" xlink:href="#linear-gradient"></linearGradient><linearGradient id="linear-gradient-87" x1="1269.06" y1="189.12" x2="1290.26" y2="173.88" xlink:href="#linear-gradient"></linearGradient><linearGradient id="linear-gradient-88" x1="1275.49" y1="220.79" x2="1294.27" y2="207.3" xlink:href="#linear-gradient"></linearGradient><linearGradient id="linear-gradient-89" x1="1280.8" y1="250.75" x2="1303.02" y2="234.78" xlink:href="#linear-gradient"></linearGradient><linearGradient id="linear-gradient-90" x1="1284.81" y1="283.06" x2="1305.44" y2="268.24" xlink:href="#linear-gradient"></linearGradient><linearGradient id="linear-gradient-91" x1="1279.62" y1="319.63" x2="1298.98" y2="305.71" xlink:href="#linear-gradient"></linearGradient><linearGradient id="linear-gradient-92" x1="1278.35" y1="344.3" x2="1293.24" y2="333.59" xlink:href="#linear-gradient"></linearGradient><linearGradient id="linear-gradient-93" x1="1237.41" y1="365.72" x2="1250.04" y2="356.64" xlink:href="#linear-gradient"></linearGradient><linearGradient id="linear-gradient-94" x1="1196.28" y1="374.07" x2="1210.19" y2="364.07" xlink:href="#linear-gradient"></linearGradient><linearGradient id="linear-gradient-95" x1="1159.71" y1="381.63" x2="1175.17" y2="370.52" xlink:href="#linear-gradient"></linearGradient><linearGradient id="linear-gradient-96" x1="1107.29" y1="379.28" x2="1122.21" y2="368.55" xlink:href="#linear-gradient"></linearGradient><linearGradient id="linear-gradient-97" x1="1083.12" y1="358.94" x2="1099.05" y2="347.49" xlink:href="#linear-gradient"></linearGradient><linearGradient id="linear-gradient-98" x1="1060.05" y1="341.94" x2="1076.27" y2="330.29" xlink:href="#linear-gradient"></linearGradient><linearGradient id="linear-gradient-99" x1="1041.72" y1="315.59" x2="1064.57" y2="299.16" xlink:href="#linear-gradient"></linearGradient><linearGradient id="linear-gradient-100" x1="1043.28" y1="285.77" x2="1059.68" y2="273.99" xlink:href="#linear-gradient"></linearGradient><linearGradient id="linear-gradient-101" x1="1043.83" y1="258.94" x2="1054.97" y2="250.93" xlink:href="#linear-gradient"></linearGradient><linearGradient id="linear-gradient-102" x1="1041.88" y1="224.21" x2="1052.9" y2="216.29" xlink:href="#linear-gradient"></linearGradient><linearGradient id="linear-gradient-103" x1="1055.2" y1="195.26" x2="1063.93" y2="188.98" xlink:href="#linear-gradient"></linearGradient><linearGradient id="linear-gradient-104" x1="1068.58" y1="173.85" x2="1077.23" y2="167.64" xlink:href="#linear-gradient"></linearGradient></defs><g id="Layer_2" data-name="Layer 2"><g id="Text"><text class="cls-2" transform="translate(903.31 1135.82)"><tspan class="cls-3">T</tspan><tspan class="cls-4" x="47.44" y="0">r</tspan><tspan x="80.7" y="0">end</tspan><tspan x="250.72" y="0">-</tspan></text><path class="cls-5" d="M924.72,1072.85H903.21v-7.77h52.37v7.77H934v63h-9.24Z"></path><path class="cls-5" d="M958.41,1100.87c0-6-.1-11.12-.42-15.85h8.08l.32,10h.42c2.31-6.82,7.87-11.12,14.06-11.12a10,10,0,0,1,2.62.31v8.71a13.78,13.78,0,0,0-3.14-.31c-6.51,0-11.13,4.93-12.39,11.86a26,26,0,0,0-.42,4.3v27.08h-9.13Z"></path><path class="cls-5" d="M996.82,1112.1c.21,12.49,8.19,17.63,17.42,17.63a33.42,33.42,0,0,0,14.07-2.62l1.57,6.61c-3.25,1.47-8.81,3.15-16.9,3.15-15.63,0-25-10.29-25-25.61s9-27.39,23.82-27.39c16.58,0,21,14.59,21,23.93a35.91,35.91,0,0,1-.31,4.3Zm27.08-6.61c.1-5.88-2.41-15-12.8-15-9.35,0-13.44,8.61-14.17,15Z"></path><path class="cls-5" d="M1044.26,1098.77c0-5.25-.11-9.55-.42-13.75H1052l.53,8.4h.21a18.67,18.67,0,0,1,16.79-9.55c7,0,18,4.2,18,21.62v30.33h-9.24v-29.28c0-8.19-3-15-11.75-15a13.13,13.13,0,0,0-12.39,9.44,13.32,13.32,0,0,0-.63,4.31v30.54h-9.23Z"></path><path class="cls-5" d="M1146.37,1061.3v61.4c0,4.51.11,9.66.42,13.12h-8.29l-.42-8.82h-.21c-2.83,5.67-9,10-17.32,10-12.27,0-21.72-10.39-21.72-25.81-.11-16.9,10.39-27.29,22.77-27.29,7.77,0,13,3.67,15.33,7.76h.21V1061.3Zm-9.23,44.4a16.61,16.61,0,0,0-.42-3.89,13.6,13.6,0,0,0-13.33-10.7c-9.55,0-15.22,8.4-15.22,19.63,0,10.28,5,18.78,15,18.78a13.88,13.88,0,0,0,13.54-11,16.29,16.29,0,0,0,.42-4Z"></path><path class="cls-5" d="M1183.1,1104v6.82h-25.92V1104Z"></path><text class="cls-2" transform="translate(28.24 1208.64)"><tspan class="cls-6">V</tspan><tspan x="56.88" y="0">i</tspan><tspan class="cls-7" x="81.44" y="0">r</tspan><tspan x="115.23" y="0">al</tspan></text><path class="cls-8" d="M51.75,1208.64l-23.09-70.73h9.86l11,34.84c3.05,9.55,5.67,18.16,7.56,26.45h.21c2-8.19,4.93-17.11,8.08-26.35l12-34.94h9.76l-25.29,70.73Z"></path><path class="cls-8" d="M103.07,1143.57c.1,3.15-2.21,5.67-5.88,5.67a5.49,5.49,0,0,1-5.56-5.67,5.62,5.62,0,0,1,5.77-5.77A5.49,5.49,0,0,1,103.07,1143.57Zm-10.29,65.07v-50.79H102v50.79Z"></path><path class="cls-8" d="M117.34,1173.69c0-6-.11-11.12-.42-15.84H125l.31,10h.42c2.31-6.83,7.88-11.13,14.07-11.13a10,10,0,0,1,2.62.32v8.71a13.83,13.83,0,0,0-3.15-.32c-6.5,0-11.12,4.93-12.38,11.86a26,26,0,0,0-.42,4.3v27.08h-9.13Z"></path><path class="cls-8" d="M179.26,1208.64l-.74-6.4h-.31a18.92,18.92,0,0,1-15.53,7.56c-10.29,0-15.54-7.25-15.54-14.59,0-12.28,10.92-19,30.54-18.89v-1c0-4.2-1.15-11.76-11.54-11.76a25.27,25.27,0,0,0-13.22,3.78l-2.1-6.09a31.59,31.59,0,0,1,16.68-4.51c15.54,0,19.32,10.6,19.32,20.78v19a72.5,72.5,0,0,0,.83,12.17Zm-1.37-25.92c-10.07-.21-21.51,1.57-21.51,11.44,0,6,4,8.81,8.71,8.81a12.63,12.63,0,0,0,12.28-8.5,9.73,9.73,0,0,0,.52-2.93Z"></path><path class="cls-8" d="M201.72,1134.13H211v74.51h-9.23Z"></path><text class="cls-2" transform="translate(800.27 87.84)"><tspan class="cls-9">Y</tspan><tspan x="48.8" y="0">oung</tspan></text><path class="cls-10" d="M824,87.84v-30L801.64,17.11H812l10,19.52c2.73,5.35,4.82,9.65,7,14.58h.21c2-4.61,4.41-9.23,7.13-14.58l10.19-19.52h10.38L833.23,57.72V87.84Z"></path><path class="cls-10" d="M902.7,62c0,18.79-13,27-25.29,27-13.75,0-24.35-10.08-24.35-26.14,0-17,11.13-27,25.19-27C892.84,35.89,902.7,46.49,902.7,62Zm-40.3.53c0,11.12,6.4,19.52,15.43,19.52,8.82,0,15.43-8.29,15.43-19.73,0-8.61-4.31-19.52-15.22-19.52S862.4,52.89,862.4,62.55Z"></path><path class="cls-10" d="M956.86,74c0,5.25.1,9.86.42,13.85h-8.19l-.53-8.29h-.21A19.11,19.11,0,0,1,931.56,89c-8,0-17.52-4.41-17.52-22.25V37.05h9.23V65.17c0,9.66,2.94,16.17,11.34,16.17a13.36,13.36,0,0,0,12.17-8.4,13.58,13.58,0,0,0,.84-4.72V37.05h9.24Z"></path><path class="cls-10" d="M972.18,50.79c0-5.24-.11-9.55-.42-13.74h8.18l.53,8.39h.21a18.67,18.67,0,0,1,16.79-9.55c7,0,17.95,4.2,17.95,21.62V87.84h-9.24V58.56c0-8.18-3-15-11.75-15a13.55,13.55,0,0,0-13,13.75V87.84h-9.23Z"></path><path class="cls-10" d="M1074.19,37.05c-.21,3.67-.42,7.76-.42,14V80.5c0,11.65-2.31,18.78-7.25,23.19-4.93,4.62-12.06,6.09-18.47,6.09-6.08,0-12.8-1.47-16.89-4.2l2.31-7a28.59,28.59,0,0,0,14.9,4c9.44,0,16.37-4.94,16.37-17.74V79.13h-.21c-2.83,4.72-8.29,8.5-16.16,8.5-12.6,0-21.62-10.7-21.62-24.77,0-17.21,11.23-27,22.88-27,8.81,0,13.64,4.62,15.85,8.82h.21l.42-7.66Zm-9.55,20a13.17,13.17,0,0,0-.53-4.2c-1.68-5.35-6.19-9.76-12.91-9.76-8.81,0-15.11,7.45-15.11,19.21,0,10,5,18.26,15,18.26a13.5,13.5,0,0,0,12.8-9.44,16,16,0,0,0,.74-4.94Z"></path></g><g id="Design"><path class="cls-11" d="M134.16,605.19l-1.95-.55c-36.69-10.32-75.38-49.21-88.09-88.52-5.56-17.23-8.65-42.21,8.29-63.37,11.31-14.14,24-21.21,37.72-21.05,19.13.22,34.72,14.56,42.05,22.72,7.11-8.34,22.32-23.09,41.44-23.82l.95,0h.51c13.17,0,25.55,6.75,36.8,20.08,17.48,20.71,15.05,45.77,9.94,63.14-11.67,39.63-49.33,79.51-85.73,90.79ZM89.67,445.39c-9.19,0-18.12,5.35-26.57,15.91-13.13,16.41-10.48,36.58-6,50.61,11.21,34.7,44.67,69,76.82,79,31.87-10.85,64.42-46,74.72-80.95,4.16-14.14,6.28-34.38-7.27-50.44h0c-8.63-10.22-17.61-15.3-26.68-15.22h-.61c-18.38.7-34,22.08-34.67,23l-7,9.68-7.23-9.49c-.68-.89-16.87-21.86-35.27-22.07Z"></path><path class="cls-12" d="M437.15,359.4c.88-1.85-15.78-7.23-17.83-7.62-19.62-3.74-46.54,9.66-44.83,32.73.57,7.66,6.75,14,13.84,16.93,34.89,14.47,56.51-21,67.53-48.12,6.24-15.35,10.71-31.41,14.51-47.52,1.84-7.75,10.85-30.82,7.82-38.3,0,0,14.25,35.23,53.15,40.37l-19.81,61.07S503,354.71,480,355.78s-24.68,32-11.71,43.65c16.09,14.5,34.84,9.3,45-8.67C521,377.25,525,360.09,529.69,345.3c2.65-8.32,3.94-21.94,8.85-29.22,0,0,7.82-11.6-5.13-17.74s-32.78-1.58-50.81-41c0,0-18.94-9.67-20.21,8.9S445.29,342.32,437.15,359.4Z"></path><path class="cls-13" d="M1062.5,927.72a207.93,207.93,0,0,0-8.65-22.86c-.44-1-.88-2.05-1.33-3.08a72.71,72.71,0,0,0,.3-17.81c-1.62-15.21-7.28-29.66-14.52-43-14.12-26.06-37.7-54.81-70.22-54-5.76.15-5.78,9.12,0,9,23-.58,41,16.71,53.24,34.43,11,15.91,21.13,35.36,22.73,55.2-.29-.41-.57-.83-.87-1.24-7.73-10.26-23.45-17.29-34.44-7.38-10.51,9.49-6.88,25.42.59,35.43,4.09,5.46,9.3,12.2,15.52,15.31,6,3,12.46,1.17,17.21-3.21a29.5,29.5,0,0,0,6.53-9.12c1.34,3.31,2.61,6.65,3.75,10,8,23.61,9.88,55.79-13.61,71.64-4.76,3.21-.28,11,4.52,7.75C1068.51,987.72,1070.55,954.52,1062.5,927.72Zm-36.29-10c-7.7-6.66-17.64-17.75-14.54-28.83a10.08,10.08,0,0,1,11.31-7.68c5.82.67,10.39,4.63,13.64,9.24a69.9,69.9,0,0,1,6.43,12C1040.92,911.78,1035.36,925.66,1026.21,917.74Z"></path><path class="cls-14" d="M1064.94,1012.31c-6,0-11.19,2.84-16.18,5.89-3.35,2-10,7.46-13.15,2.48-1.79-2.83-1.29-7.11-1.28-10.29,0-4.69,0-9.39.06-14.08l.14-28.17c0-5.77-8.94-5.78-9,0l-.16,33.45c0,8-1.79,18.87,3.8,25.51,11.37,13.5,23.83-5.89,35.74-5.82C1070.71,1021.31,1070.72,1012.34,1064.94,1012.31Z"></path><path class="cls-15" d="M130.38,1072.1a96.64,96.64,0,0,1-47.45-57.24,89.71,89.71,0,0,1-3.61-37.64c.1-.79.22-1.61.36-2.43.24.21.48.42.73.62,11.72,9.46,29.28,11.16,39.51-1.39,8.66-10.64,6.71-26.56-6.41-32.44s-27.37,0-35.11,11.37c-.59.88-1.15,1.78-1.67,2.7-4.1-9.61-4.73-21-4.65-31a133.8,133.8,0,0,1,6.1-38.45c8.91-28.72,27.22-54.47,52-71.64,4.71-3.26.23-11-4.53-7.74A146.58,146.58,0,0,0,70,882.46a141.31,141.31,0,0,0-6.77,47.6c.41,12.28,2.4,25.72,9.12,36.21-3,10.29-3.1,21.72-1.94,31.9,3.9,34.19,24.77,65.82,55.5,81.68C131,1082.49,135.52,1074.75,130.38,1072.1ZM99,948.6c10.41-2,21.8,5.84,15.85,17.06-7,13.22-23.73,9-32.07-.37-.13-.15-.25-.32-.38-.47C85.32,957.06,90.47,950.23,99,948.6Z"></path><path class="cls-16" d="M149.3,1082.25c-.43-3.38-2.76-6.63-4.28-9.6q-2.79-5.4-5.57-10.81l-11.54-22.39c-2.65-5.14-10.39-.6-7.75,4.52l18.31,35.53c.4.78,1.81,2.67,1.63,3.41-.14.59-3,1.38-3.5,1.61l-8.62,3.87-18.8,8.45c-5.26,2.36-.7,10.09,4.53,7.74l21.93-9.85C141.08,1092.29,150.29,1090,149.3,1082.25Z"></path><path class="cls-17" d="M732.75,58.91c-23.53-11-51.81-6.73-72.22,9-13.9,10.71-23.17,26.16-27.7,42.94l-.12.06c-5.45,3.34-8.75,10-11.78,15.36-14.47,25.8-22.82,59.78-5.57,86.34,3.13,4.82,10.9.33,7.74-4.53-11.86-18.26-9.7-40.54-2.44-60.14a117.54,117.54,0,0,1,6.65-14.64c.78-1.46,1.61-3.17,2.53-4.93-.21,2.84-.3,5.68-.25,8.5.17,10.67.94,28.65,14.52,30.65,12.8,1.89,21.29-10.67,20.94-22.18-.38-12.11-5.88-27.43-16.67-34.08a16.45,16.45,0,0,0-5.69-2.18c4.14-12.65,11.37-24.26,21.66-32.82,17.34-14.4,43.15-19.31,63.87-9.59C733.41,69.09,738,61.36,732.75,58.91Zm-78.42,76.93c1.52,5.3,3,11.87.45,17.13-1.65,3.37-6.34,6.95-10.3,5.48-4.25-1.58-4.75-8.17-5.24-11.93a87.45,87.45,0,0,1-.58-15.85,85.38,85.38,0,0,1,1.72-13C647.34,117.54,652.89,130.86,654.33,135.84Z"></path><path class="cls-18" d="M758.57,55.17A109.1,109.1,0,0,0,728.1,33.12c-5.17-2.52-9.72,5.22-4.53,7.74a102,102,0,0,1,26.16,18.19A119.3,119.3,0,0,1,728.13,85c-4.29,3.88,2.07,10.21,6.34,6.34a126.8,126.8,0,0,0,24.8-30.73A4.57,4.57,0,0,0,758.57,55.17Z"></path><path class="cls-19" d="M764.5,174.72c-21.73-6.85-40.79,11.82-46.24,31.38-6.84,24.49,1.71,50.47-6,74.77-1.75,5.52,6.91,7.88,8.65,2.39,6.81-21.46,1.33-43.79,4.16-65.68,1.27-9.86,4.55-19.84,11.82-26.9,6.72-6.52,16-10.21,25.23-7.31C767.64,185.11,770,176.45,764.5,174.72Z"></path><path class="cls-20" d="M705.23,306.09v32.3c0,5.77,9,5.78,9,0v-32.3C714.2,300.32,705.23,300.31,705.23,306.09Z"></path><path class="cls-21" d="M604.77,503.84a602.08,602.08,0,0,0-130.91,19.33c-5.58,1.47-3.21,10.12,2.39,8.65a590.73,590.73,0,0,1,128.52-19C610.52,512.6,610.55,503.63,604.77,503.84Z"></path><path class="cls-22" d="M599.37,479.23H575.15c-5.77,0-5.78,9,0,9h24.22C605.15,488.2,605.15,479.23,599.37,479.23Z"></path><path class="cls-23" d="M311.43,581c-7.83,3.58-14.66,8.88-21.6,13.9-6.58,4.75-13.14,9.54-19.6,14.45-13.2,10-26.07,20.54-37.76,32.32-21.41,21.57-39,47.85-45.5,77.89-1.22,5.63,7.43,8,8.65,2.39,6.3-29.16,23.43-54.3,44.34-75.09a352.71,352.71,0,0,1,36.09-30.75c6.48-4.89,13-9.66,19.62-14.42s12.94-9.59,20.28-12.94C321.2,586.34,316.65,578.61,311.43,581Z"></path><path class="cls-24" d="M183.79,669.87a82.13,82.13,0,0,0-14.34,30.56c-1.33,5.61,7.31,8,8.65,2.38a76,76,0,0,1,13.43-28.41C195,669.79,187.22,665.32,183.79,669.87Z"></path><path class="cls-25" d="M560.2,1242.49a237.31,237.31,0,0,1-158.37-15.81c-5.19-2.47-9.74,5.26-4.53,7.74a247.16,247.16,0,0,0,165.28,16.72C568.18,1249.75,565.81,1241.1,560.2,1242.49Z"></path><path class="cls-26" d="M638.83,1226l-48.78,12.11c-5.6,1.39-3.23,10,2.39,8.65l48.77-12.11C646.81,1233.25,644.44,1224.6,638.83,1226Z"></path><path class="cls-27" d="M918.08,909c-.61-5.68-9.59-5.74-9,0a274.35,274.35,0,0,1-30.87,158.12A266.54,266.54,0,0,1,853,1105.81c-3.53,4.49,2.78,10.88,6.34,6.34A283.67,283.67,0,0,0,919,957.06,272.66,272.66,0,0,0,918.08,909Z"></path><path class="cls-28" d="M835.08,1124.7a103.19,103.19,0,0,1-28.2,27.72c-4.79,3.18-.31,10.95,4.53,7.75a114.55,114.55,0,0,0,31.42-31C846.1,1124.45,838.33,1120,835.08,1124.7Z"></path><path class="cls-29" d="M957.5,657.31l-6.82,40.58c-.95,5.64,7.69,8.07,8.65,2.38l6.82-40.58C967.1,654.05,958.46,651.62,957.5,657.31Z"></path><path class="cls-30" d="M1132.25,695.35a309.31,309.31,0,0,1-131.77-28.28c-5.21-2.4-9.77,5.33-4.53,7.75a319.85,319.85,0,0,0,136.3,29.5C1138,704.28,1138,695.31,1132.25,695.35Z"></path><path class="cls-31" d="M1212.29,585a675.47,675.47,0,0,1-21.64,88.92c-1.75,5.51,6.91,7.87,8.65,2.38a677.3,677.3,0,0,0,21.64-88.91C1221.92,581.69,1213.27,579.26,1212.29,585Z"></path><path class="cls-32" d="M1220,533.77q-2.79,14.79-5.59,29.57c-1.07,5.64,7.58,8,8.65,2.38q2.79-14.79,5.59-29.57C1229.74,530.51,1221.1,528.1,1220,533.77Z"></path><path class="cls-33" d="M991.23,224.59c-3.23-17.54-16.8-31.39-32.59-38.73-19.78-9.21-42.17-8.82-63.49-7.87-5.75.26-5.78,9.23,0,9,19.19-.85,39.74-1.68,57.77,6.1,14.42,6.23,26.74,18.06,29.66,33.92C983.63,232.65,992.27,230.25,991.23,224.59Z"></path><path class="cls-34" d="M1015.86,259.05q-1.38-5.38-2.74-10.76c-1.42-5.59-10.08-3.22-8.65,2.39q1.37,5.37,2.74,10.75C1008.63,267,1017.28,264.65,1015.86,259.05Z"></path><path class="cls-35" d="M1164.6,402.93a51.25,51.25,0,0,0-55.95-8.78c-5.24,2.39-.69,10.12,4.53,7.74,14.85-6.77,33.14-3.64,45.08,7.38C1162.49,413.18,1168.85,406.86,1164.6,402.93Z"></path><path class="cls-36" d="M1188.23,420.78c-4.65-3.44-9.12,4.34-4.53,7.74a22.25,22.25,0,0,1,8.89,17.52c.14,5.76,9.11,5.78,9,0A31.79,31.79,0,0,0,1188.23,420.78Z"></path><path class="cls-37" d="M951.22,294.37c0-.74-.07-1.49-.1-2.2,0-.45,0-.88,0-1.32,0-.62,0-1.25-.06-1.85,0-.45,0-.87,0-1.31s0-1.13,0-1.67,0-.87,0-1.29,0-1,0-1.51V282c0-.46,0-.93,0-1.37s0-.78,0-1.16,0-.85,0-1.25l0-1.06q0-.57,0-1.11c0-.41,0-.8.05-1.19s0-.63,0-.93,0-.72,0-1.06,0-.55,0-.81,0-.64.06-.94,0-.48.05-.69,0-.53,0-.78,0-.41,0-.59,0-.46.06-.68l0-.42c0-.19,0-.34.05-.5s0-.24,0-.34,0-.29,0-.41a.69.69,0,0,0,0-.13,2.33,2.33,0,0,1,0-.27l-26.46-57.68a1.83,1.83,0,0,0,0,.25,1.36,1.36,0,0,0,0,.2c0,.11,0,.22,0,.37l0,.26c0,.18,0,.35-.05.57s0,.28,0,.42,0,.43,0,.68,0,.37-.05.55,0,.53-.06.83,0,.43,0,.66,0,.62-.06,1,0,.52,0,.8,0,.7-.05,1.07,0,.61,0,.92,0,.79,0,1.2c0,.17,0,.32,0,.5s0,.41,0,.61,0,.68,0,1,0,.85,0,1.3,0,.73,0,1.1,0,1,0,1.43v1.18c0,.51,0,1,0,1.55s0,.83,0,1.26,0,1.12,0,1.68,0,.86,0,1.31c0,.6,0,1.23.06,1.85,0,.44,0,.87,0,1.31,0,.72.06,1.46.1,2.2,0,.38,0,.75,0,1.14q.09,1.71.21,3.51L951.49,299c-.09-1.2-.16-2.37-.22-3.51C951.25,295.11,951.24,294.75,951.22,294.37Z"></path><path class="cls-38" d="M967.21,241.33H925a236.55,236.55,0,0,0,6.05,39.88,271.51,271.51,0,0,0,41.53,81.44,165,165,0,0,0,18.59,17.78C944,314.2,966.05,245,967.21,241.33Z"></path><path class="cls-39" d="M970.92,342.14c.21.57.42,1.15.64,1.73.42,1.11.87,2.23,1.32,3.35.21.52.42,1,.64,1.56q1,2.43,2.12,4.87h0l26.46,57.69c-.75-1.64-1.45-3.27-2.13-4.89-.22-.52-.42-1-.63-1.56-.46-1.12-.9-2.23-1.33-3.35-.22-.58-.43-1.16-.64-1.73-.4-1.09-.79-2.18-1.16-3.27-.18-.53-.37-1.07-.54-1.6-.25-.73-.46-1.45-.69-2.18-.39-1.22-.76-2.44-1.11-3.65-.21-.73-.41-1.45-.61-2.18-.31-1.16-.62-2.32-.91-3.48-.17-.71-.35-1.43-.52-2.14-.27-1.18-.53-2.35-.77-3.51-.14-.66-.29-1.32-.42-2-.26-1.33-.5-2.64-.72-3.95-.08-.48-.18-1-.26-1.44l-.24-1.6c-.15-1-.31-2-.44-3-.08-.61-.15-1.21-.23-1.82-.11-.91-.22-1.81-.31-2.71-.07-.63-.13-1.26-.19-1.89-.08-.85-.15-1.7-.22-2.54,0-.64-.09-1.26-.14-1.89l-.15-2.45c0-.62-.06-1.23-.08-1.85,0-.8-.06-1.6-.09-2.39,0-.59,0-1.19,0-1.77,0-.8,0-1.58,0-2.36,0-.56,0-1.12,0-1.68,0-.8,0-1.59,0-2.37l0-1.53c0-.63,0-1.24.08-1.85s.05-1.48.09-2.2.07-1.19.11-1.78.09-1.4.14-2.08.09-1.14.14-1.71.12-1.33.18-2,.11-1.08.17-1.62.13-1.25.21-1.86.12-1.05.19-1.56.15-1.18.23-1.75l.21-1.46c.09-.56.17-1.1.25-1.64s.15-.91.23-1.36.17-1,.26-1.53.15-.85.23-1.26.18-1,.27-1.42.15-.77.23-1.14l.27-1.29c.07-.35.15-.71.22-1s.18-.79.27-1.17.14-.62.21-.91.17-.71.26-1,.13-.54.2-.79.16-.62.24-.92.11-.45.17-.65l.22-.8c0-.17.1-.36.14-.51l.19-.65c0-.13.08-.27.11-.39s.12-.38.17-.54l.06-.2.14-.45-26.46-57.68-.14.45c0,.05,0,.14-.06.2s-.1.33-.17.54-.07.26-.11.39l-.19.64c0,.16-.1.35-.15.53s-.14.5-.21.78-.12.44-.18.67-.15.58-.23.9-.14.53-.2.8-.17.68-.26,1l-.21.92c-.09.38-.18.76-.27,1.16s-.15.7-.22,1.05-.18.85-.27,1.29-.15.75-.23,1.14-.18.93-.27,1.42-.16.83-.23,1.26-.18,1-.27,1.53-.14.9-.22,1.36-.17,1.08-.25,1.64-.14,1-.21,1.46-.16,1.15-.23,1.74-.13,1-.2,1.57-.14,1.23-.2,1.85-.12,1.08-.17,1.63-.12,1.31-.18,2-.1,1.13-.14,1.71-.1,1.38-.14,2.07-.08,1.18-.11,1.78-.07,1.46-.1,2.2c0,.49,0,1-.06,1.45,0,.13,0,.27,0,.41l0,1.52c0,.79,0,1.58,0,2.38,0,.55,0,1.12,0,1.68,0,.78,0,1.56,0,2.35,0,.59,0,1.18,0,1.78,0,.79,0,1.59.09,2.39,0,.61,0,1.23.08,1.85l.15,2.44c0,.63.09,1.26.14,1.89.06.85.14,1.7.22,2.55.06.63.12,1.25.19,1.89.09.89.2,1.8.31,2.7.08.61.15,1.22.23,1.83.13,1,.29,2,.44,3,.08.53.15,1.06.24,1.6a2.34,2.34,0,0,1,0,.26c.06.39.15.79.22,1.18.22,1.31.46,2.62.72,3.95.13.65.28,1.31.41,2,.25,1.17.51,2.34.78,3.52.17.71.34,1.42.52,2.14.29,1.15.59,2.31.91,3.47.2.73.4,1.46.61,2.19.35,1.21.72,2.42,1.1,3.63.16.51.29,1,.46,1.5.07.24.16.47.24.71.17.52.35,1.05.53,1.58C970.13,340,970.51,341,970.92,342.14Z"></path><polygon class="cls-40" points="589.28 539.26 582.32 581.16 608.78 638.85 615.74 596.94 589.28 539.26"></polygon><path class="cls-41" d="M991.19,380.43a165,165,0,0,1-18.59-17.78,245.86,245.86,0,0,0,37.46,39.9c29.07,24.82,67.64,46,118.7,57.65l5.44-32.83C1067.85,424.76,1022.36,406,991.19,380.43Z"></path><polygon class="cls-40" points="1134.2 427.37 1128.76 460.2 1155.22 517.88 1160.66 485.05 1134.2 427.37"></polygon><polygon class="cls-42" points="626.35 581.77 599.25 745.38 625.71 803.06 652.81 639.45 626.35 581.77"></polygon><path class="cls-43" d="M625.71,803.06l-26.46-57.68c-.74-.16-14.86-3.15-37-3.15l-4,0-1.38,0c-.94,0-1.87,0-2.83.08l-1.69.07-2.65.12-1.87.12-2.6.17-2,.16-2.6.23-2.08.21-2.62.29-2.14.27c-.88.11-1.77.22-2.66.35l-2.2.32-2.68.42-1.15.18-1,.18q-1.73.3-3.45.63l-2,.38c-1.31.27-2.64.56-4,.85l-1.46.32c-1.81.42-3.64.87-5.47,1.35l-1.2.33c-1.44.39-2.88.79-4.33,1.21l-.6.18c-.89.26-1.78.55-2.68.83l-1.21.37q-2.32.75-4.65,1.57l-1.05.39c-1.21.43-2.42.88-3.63,1.34l-1.63.64c-.62.25-1.24.48-1.86.74-.26.1-.53.23-.79.34-1.83.76-3.66,1.55-5.48,2.39l-.74.32q-3.06,1.43-6.12,3c-.2.1-.41.19-.61.3-.43.22-.85.47-1.27.69-1.25.66-2.5,1.34-3.74,2l-2,1.18c-1.25.72-2.49,1.48-3.73,2.25-.44.27-.88.51-1.32.79-.2.13-.39.27-.59.39-1.33.85-2.65,1.74-4,2.64-.47.32-.95.63-1.42,1-1.78,1.24-3.54,2.53-5.3,3.87l-.16.12c-.3.22-.59.48-.88.7-1.45,1.13-2.88,2.27-4.31,3.46l-1.79,1.54c-1.18,1-2.35,2-3.51,3.11l-1,.87c-.53.5-1.07,1-1.6,1.54l-1,.94q-2,2-4,4c-.25.25-.48.51-.73.77q-1.67,1.75-3.3,3.6l-1,1.14-.75.85c-1,1.2-2,2.41-3.05,3.65l-.39.5c-1.14,1.41-2.26,2.86-3.36,4.32l-1,1.29c-1.22,1.65-2.43,3.32-3.61,5.05q-1.51,2.22-2.95,4.41c-.32.49-.63,1-.94,1.47-.6.93-1.21,1.87-1.79,2.79l0,.1q-1.46,2.32-2.81,4.62l-.7,1.21c-.66,1.13-1.31,2.25-1.93,3.36-.32.57-.62,1.13-.92,1.69-.52,1-1,1.9-1.53,2.84l-.94,1.82c-.45.89-.9,1.77-1.33,2.65l-.91,1.87c-.41.86-.81,1.71-1.2,2.56-.28.63-.57,1.25-.84,1.87-.38.85-.74,1.7-1.1,2.54l-.76,1.81c-.35.87-.69,1.73-1,2.59-.23.57-.45,1.14-.67,1.7-.34.92-.66,1.82-1,2.73-.17.5-.36,1-.53,1.51-.38,1.12-.73,2.22-1.08,3.32-.08.29-.18.58-.27.86-.42,1.38-.81,2.76-1.18,4.13-.1.37-.19.74-.28,1.11-.26,1-.51,2-.74,3-.12.51-.22,1-.33,1.52-.18.84-.36,1.68-.53,2.51l-.3,1.63c-.14.78-.28,1.56-.4,2.34-.09.55-.17,1.11-.25,1.66q-.17,1.14-.3,2.28c-.07.55-.13,1.09-.19,1.64-.08.75-.14,1.5-.21,2.25,0,.54-.09,1.07-.12,1.6-.05.77-.09,1.52-.12,2.28,0,.36-.05.73-.06,1.09v.38c0,1.38-.06,2.76,0,4.12,0,.14,0,.27,0,.41q0,1.84.15,3.66c0,.42.06.84.09,1.25.07,1,.15,1.91.25,2.85,0,.43.09.85.14,1.27.13,1.11.28,2.2.45,3.3,0,.17.05.34.07.51a.31.31,0,0,1,0,.08c.35,2.1.77,4.16,1.26,6.2,0,.1,0,.2.07.3.49,2,1.07,4,1.7,6,0,.08,0,.15.07.22l0,.11c.47,1.42,1,2.81,1.51,4.19.12.33.25.65.38,1,.55,1.39,1.13,2.77,1.75,4.13l26.47,57.68c-.63-1.36-1.21-2.74-1.76-4.13-.13-.32-.26-.65-.38-1-.54-1.39-1-2.78-1.5-4.19,0-.11-.07-.22-.11-.33q-.94-3-1.7-6c0-.1,0-.2-.07-.3-.49-2-.91-4.1-1.26-6.19,0-.2-.05-.41-.09-.61-.17-1.09-.32-2.19-.45-3.29-.05-.42-.1-.84-.14-1.26-.1-.95-.18-1.9-.25-2.86,0-.41-.07-.83-.09-1.25-.07-1.22-.12-2.44-.14-3.68,0-.13,0-.25,0-.38,0-1.37,0-2.74,0-4.13,0-.48,0-1,.06-1.46,0-.76.07-1.52.12-2.29,0-.53.08-1.06.13-1.59.06-.75.13-1.5.2-2.26.06-.54.12-1.09.19-1.64.09-.76.2-1.52.3-2.28.08-.55.16-1.1.25-1.65.12-.78.26-1.57.41-2.36.09-.54.19-1.07.29-1.62.17-.83.35-1.67.53-2.51l.33-1.51c.23-1,.48-2,.73-2.94l.29-1.13c.37-1.37.76-2.74,1.18-4.13l.28-.85c.34-1.11.69-2.21,1.07-3.32.17-.51.36-1,.53-1.52.32-.9.64-1.81,1-2.72.21-.57.44-1.14.66-1.71q.49-1.29,1-2.58c.25-.61.51-1.21.76-1.82.36-.84.72-1.68,1.1-2.53l.84-1.87c.39-.85.79-1.71,1.2-2.56.3-.63.6-1.25.91-1.87.43-.88.88-1.77,1.33-2.65.31-.61.62-1.22.94-1.83.49-.94,1-1.88,1.53-2.83l.92-1.7c.62-1.1,1.26-2.22,1.91-3.33.25-.41.47-.82.72-1.24.91-1.53,1.84-3.07,2.81-4.62.59-1,1.22-1.92,1.84-2.88.32-.49.62-1,.94-1.48q1.44-2.19,2.95-4.4c1.18-1.73,2.39-3.41,3.61-5.06l1-1.28c1.11-1.47,2.22-2.92,3.36-4.32l.39-.5c1.25-1.54,2.52-3,3.8-4.5l1-1.16c1.09-1.21,2.18-2.41,3.29-3.58l.73-.78q2-2.06,4-4l1-1c.86-.82,1.72-1.61,2.59-2.41q1.74-1.59,3.51-3.1c.6-.52,1.19-1,1.79-1.54,1.43-1.19,2.87-2.34,4.32-3.47l1-.82q2.64-2,5.31-3.87c.46-.33.94-.63,1.4-1,1.33-.9,2.65-1.79,4-2.65l1.9-1.18c1.24-.77,2.48-1.52,3.73-2.25l2.05-1.18c1.24-.7,2.49-1.37,3.73-2l1.89-1c2-1,4.08-2.05,6.13-3l.72-.32q2.75-1.25,5.49-2.39l2.65-1.07,1.63-.65c1.21-.46,2.42-.91,3.63-1.34l1.05-.38q2.32-.82,4.65-1.57l1.21-.38c1.1-.34,2.19-.68,3.29-1,1.44-.43,2.88-.83,4.32-1.21l1.2-.34c1.84-.48,3.66-.92,5.48-1.34l1.42-.32c1.35-.3,2.68-.59,4-.86l1.94-.37c1.16-.22,2.32-.44,3.47-.64l2.12-.36,2.69-.42,2.2-.32,2.65-.35,2.14-.26c.88-.11,1.76-.2,2.62-.29l2.08-.21c.87-.09,1.74-.16,2.6-.23.67-.06,1.33-.12,2-.16l2.6-.18,1.86-.11,2.65-.13,1.69-.07,2.83-.08,1.38,0c1.37,0,2.73,0,4.05,0a226.76,226.76,0,0,1,24,1.23c1.76.19,3.36.38,4.79.57s2.68.38,3.75.55c2.68.42,4.22.75,4.45.8Z"></path><path class="cls-38" d="M582.32,581.16,568.48,664.5l-6.49,39a163.82,163.82,0,0,0-25.33-1.75c-1.25,0-2.54,0-3.86,0a196.76,196.76,0,0,0-57.41,9.49c-29.69,7.93-56.56,22-81.13,42.53a188.54,188.54,0,0,0-44.39,65.9C334,890.37,361.2,928.51,397.68,947.88,375,914.31,375,870.05,412.46,815.22c42.52-62.13,108.7-73,149.81-73,22.12,0,36.24,3,37,3.15l27.1-163.61Z"></path><polygon class="cls-42" points="1170.91 467.8 1145.03 624.05 1171.49 681.73 1197.37 525.49 1170.91 467.8"></polygon><path class="cls-44" d="M1145,624.05c-.15,0-3.1.22-8.86.22-27.34,0-114.68-5-215.81-62.72l26.46,57.68C1048,676.94,1135.3,682,1162.63,682c5.76,0,8.71-.21,8.86-.23Z"></path><path class="cls-45" d="M243.89,1059.5a157,157,0,0,1-22.72-18.67q-2.35-2.3-4.83-4.87c-1.64-1.72-3.32-3.53-5-5.45a202.78,202.78,0,0,1-32.65-50h0l26.46,57.68c23.72,51.71,61.52,76.57,65.22,79Z"></path><path class="cls-41" d="M925,241.33c-1.33-19.7.13-32.06.21-32.71H750C745.53,237.38,660.87,784,641.6,863s-98,93.75-144.55,101.11a141.42,141.42,0,0,1-21.69,1.53c-22.88,0-52.48-4.43-77.68-17.78C361.2,928.51,334,890.37,349.87,819.73a151.53,151.53,0,0,0-8.54,30.63,116.55,116.55,0,0,0,.21,41c7.48,38.6,33.88,71.19,69.61,91.81,20,11.51,43.6,19,68.52,21.89,1,.12,2.07.24,3.11.34a210.12,210.12,0,0,0,21.73,1.05c37.41-.17,75.73-10.48,108.21-33.27,1.08-.78,2.16-1.56,3.22-2.37,34.23-25.79,55.74-62.65,67-99.5,3-9.8,8.55-40.25,15.59-82.82,23.86-144.15,64.71-427.27,79.79-518.26,3-18.36,5-28.9,5.63-28.9H922c.08.8,1.55,16.15,9,39.88A236.55,236.55,0,0,1,925,241.33Z"></path><path class="cls-38" d="M1154.55,467.9a236.81,236.81,0,0,1-26.85-1.29l-22.46,123.21-2.81,0c-1.89,0-4.31-.08-7.56-.2-6-.23-13.9-.69-24.31-1.69-43.41-4.28-117.32-18-177.64-62.14-.91-.66-1.81-1.33-2.71-2s-1.81-1.38-4-3.08c-.6,3.38-1.18,6.77-1.75,10.19-10.1,60.8-15.79,127.8-26.84,194.59-20.12,121.58-58,242.45-172.43,323.89-1.77,1.26-3.56,2.51-5.35,3.74-70.42,48.37-157.5,74.78-241.49,75a352,352,0,0,1-88.37-11q-2.61-.69-5.2-1.41c-32.39-9.09-62.69-23.14-86.75-43,33.95,50.56,109.69,95.58,218,95.58,47.65,0,101.61-8.71,161.09-29.48,194.75-68,222.46-223.44,223.92-231.62l59.27-345.59c101.13,57.71,188.47,62.72,215.81,62.72,5.76,0,8.71-.21,8.86-.22l25.88-156.25C1165.66,467.8,1160.22,467.9,1154.55,467.9Z"></path><path class="cls-41" d="M571.1,538.79c-65.66,0-291.22,15.06-379.75,215.78-92.43,209.56,45.29,300.16,52.54,304.93-43.6-45.78-56.92-132.2-46.16-196.84C221.89,717.26,382.35,580.5,555,580q12.78,0,25.62,1l1.71.14c-.38,2.33-7.72,46.66-13.8,83.34l13.84-83.34,7-41.9C589,539.23,582.68,538.79,571.1,538.79Z"></path><g class="cls-46"><path class="cls-1" d="M258,1072.63l26.46,57.68a158.54,158.54,0,0,1-14.14-13.13l-26.46-57.68A157.18,157.18,0,0,0,258,1072.63Z"></path><g class="cls-47"><path class="cls-1" d="M258,1072.63a157.18,157.18,0,0,1-14.14-13.13l26.46,57.68a158.54,158.54,0,0,0,14.14,13.13Z"></path></g></g><path class="cls-1" d="M1010.06,402.55a246.33,246.33,0,0,1-37.49-39.93c-23-25.61-35.13-55.13-41.5-81.41-7.48-23.73-9-39.08-9-39.88H783.91c-.6,0-2.59,10.54-5.63,28.9-15.08,91-55.93,374.11-79.79,518.26-7,42.57-12.61,73-15.59,82.82-11.22,36.85-32.73,73.71-67,99.5-1.06.81-2.14,1.59-4.35,3.17-31.35,22-69.67,32.31-108.22,32.47a203.93,203.93,0,0,1-20.59-1.05c-1-.1-2.07-.22-3.12-.34-24.91-2.92-48.55-10.38-68.51-21.89C375.42,962.55,349,930,341.54,891.36a116.55,116.55,0,0,1-.21-41,151.53,151.53,0,0,1,8.54-30.63,188.54,188.54,0,0,1,44.39-65.9c24.57-20.5,51.44-34.6,81.13-42.53a196.81,196.81,0,0,1,57.41-9.49c1.32,0,2.61,0,4.22,0a162.73,162.73,0,0,1,25,1.75l6.46-39c6.08-36.68,13.8-83.34,12.09-83.48-8.56-.69-17.1-1-26.7-1-171.51.53-332,137.28-356.14,282.67-10.76,64.64,2.56,151.06,46.16,196.84h0A159.67,159.67,0,0,0,258,1072.62l0,0c24.06,19.88,54.36,33.93,86.75,43,1.73.48,3.46,1,5.8,1.56,28,7.27,57.55,10.81,89.15,10.84,82.6-.22,169.7-26.62,240.11-75,1.79-1.23,3.58-2.48,5.35-3.74C799.65,967.91,837.51,847,857.63,725.46c11-66.79,16.74-133.79,26.84-194.59.57-3.42,1.15-6.81,3-9.18.89.69,1.8,1.39,2.7,2.07s1.8,1.35,3.13,2.32c59.9,43.81,133.81,57.55,178.22,61.92,9.41.91,17.33,1.37,23.68,1.61,2.88.11,5.3.16,12.06.19l20.4-123.19,1.06-6.41C1077.7,448.59,1039.13,427.37,1010.06,402.55Z"></path><polygon class="cls-42" points="920.36 561.55 861.09 907.14 887.55 964.82 946.82 619.23 920.36 561.55"></polygon><path class="cls-48" d="M827.36,1086.43c.76-.92,1.49-1.84,2.23-2.75l1.65-2c.76-1,1.49-1.92,2.23-2.88.49-.64,1-1.27,1.48-1.91.79-1,1.57-2.09,2.34-3.13.4-.55.81-1.09,1.21-1.63,1.12-1.54,2.21-3.06,3.28-4.59l.11-.14q1.65-2.36,3.23-4.7c.37-.54.71-1.08,1.07-1.62.68-1,1.36-2,2-3l1.22-1.91c.58-.91,1.16-1.81,1.72-2.72l.18-.28c.48-.76.93-1.51,1.39-2.27.37-.6.75-1.21,1.11-1.81.55-.92,1.07-1.82,1.61-2.73l.94-1.6c.59-1,1.15-2,1.71-3,.24-.42.49-.85.72-1.27.79-1.41,1.56-2.82,2.31-4.21l.27-.52c.65-1.21,1.29-2.42,1.91-3.62l.72-1.42c.45-.89.91-1.78,1.34-2.65.27-.54.53-1.07.79-1.61.39-.8.78-1.59,1.16-2.38.27-.57.53-1.13.8-1.69l1-2.22c.26-.57.51-1.13.77-1.69s.65-1.43,1-2.13l.74-1.69c.29-.68.59-1.36.88-2s.47-1.11.7-1.67l.82-2c.23-.55.44-1.09.66-1.64s.51-1.26.76-1.88.42-1.07.62-1.61.47-1.21.7-1.8.4-1.05.59-1.57.43-1.16.64-1.73.37-1,.55-1.52l.59-1.65.51-1.48.54-1.58c.16-.48.32-.94.47-1.41s.34-1,.5-1.53l.42-1.32c.16-.5.32-1,.47-1.48s.26-.84.38-1.25.29-.93.42-1.39.24-.81.35-1.2.26-.88.39-1.32.21-.75.31-1.11.23-.84.35-1.25.19-.7.28-1,.21-.77.3-1.15.18-.66.26-1,.18-.72.27-1.07.15-.6.22-.89.16-.66.24-1,.13-.54.19-.8.15-.62.22-.92.11-.48.16-.71.12-.55.18-.82.09-.42.13-.62.11-.51.16-.75.08-.35.11-.51.09-.45.13-.66l.09-.42c0-.21.07-.4.11-.59l.06-.29.1-.57,0-.11q.06-.28.09-.48l-26.46-57.68c0,.12-.05.28-.09.48,0,0,0,.07,0,.1s-.06.36-.11.58a2.93,2.93,0,0,1,0,.29c0,.19-.07.37-.12.59s-.05.28-.08.41-.08.43-.13.66-.07.35-.11.52-.1.48-.16.74-.09.43-.14.64-.11.53-.17.81-.11.47-.17.71-.13.6-.21.91-.13.54-.19.82l-.24,1c-.07.29-.15.6-.22.9s-.18.7-.27,1.07-.17.64-.26,1-.2.76-.3,1.16-.19.69-.29,1-.22.82-.34,1.25-.21.73-.32,1.11-.25.87-.38,1.32-.23.79-.35,1.2l-.42,1.38c-.12.42-.25.83-.38,1.26l-.47,1.48-.42,1.32c-.17.5-.33,1-.5,1.52l-.47,1.41-.54,1.59c-.17.49-.34,1-.52,1.47s-.38,1.1-.58,1.66-.37,1-.55,1.52l-.64,1.72-.59,1.58-.7,1.8c-.2.53-.41,1.07-.63,1.61s-.49,1.25-.75,1.87-.44,1.09-.66,1.65-.55,1.3-.82,2l-.7,1.66-.89,2c-.24.56-.48,1.12-.74,1.69l-.95,2.12-.77,1.7-1,2.21-.8,1.7c-.37.78-.77,1.57-1.15,2.36-.27.54-.53,1.08-.8,1.63l-1.31,2.59c-.26.49-.5,1-.76,1.48-.61,1.19-1.25,2.39-1.89,3.6-.1.18-.19.36-.28.54q-1.12,2.09-2.31,4.21c-.23.42-.48.84-.72,1.26-.56,1-1.13,2-1.71,3l-.95,1.6-1.6,2.72-1.11,1.82c-.52.85-1,1.7-1.57,2.55s-1.15,1.81-1.72,2.72l-1.22,1.9c-.66,1-1.33,2-2,3l-1.07,1.62c-1,1.56-2.13,3.12-3.24,4.7l-.1.14q-1.61,2.28-3.28,4.58c-.4.55-.81,1.09-1.21,1.63-.78,1.05-1.55,2.09-2.34,3.14l-1.48,1.91c-.74.95-1.47,1.91-2.23,2.87-.54.69-1.1,1.37-1.65,2-.74.92-1.47,1.84-2.23,2.76l-1.78,2.12c-.75.9-1.5,1.79-2.27,2.69-.42.5-.86,1-1.29,1.49q-2,2.28-4,4.58L790,1041.3c-1.75,1.92-3.53,3.83-5.37,5.74l-.09.11c-1.87,1.93-3.79,3.87-5.74,5.8l-1.67,1.63q-2.32,2.26-4.73,4.52c-.54.51-1.07,1-1.62,1.51-1.19,1.11-2.41,2.21-3.64,3.3l-1.81,1.64c-1.84,1.62-3.71,3.25-5.62,4.86l-.05,0c-1.92,1.62-3.89,3.24-5.89,4.85-.64.52-1.31,1-2,1.56-1.37,1.08-2.74,2.17-4.14,3.25l-2.79,2.11c-1.06.8-2.11,1.59-3.19,2.38s-1.95,1.42-2.94,2.13l-3.28,2.35-3.05,2.1c-1.12.78-2.24,1.55-3.38,2.31l-3.16,2.09c-1.16.75-2.31,1.51-3.49,2.26s-2.23,1.41-3.35,2.11l-3.39,2.1c-1.15.7-2.32,1.39-3.49,2.08s-2.31,1.38-3.49,2.06-2.39,1.37-3.6,2-2.38,1.35-3.59,2-2.46,1.33-3.7,2l-3.72,2-3.62,1.86q-2.11,1.08-4.26,2.14c-1.22.61-2.47,1.21-3.71,1.81-1.44.69-2.89,1.39-4.35,2.07-1.28.6-2.56,1.19-3.85,1.77q-2.22,1-4.47,2c-1.31.58-2.63,1.15-4,1.72l-4.6,1.94c-1.24.52-2.49,1-3.75,1.54q-3.42,1.38-6.92,2.72l-3.14,1.21c-3.37,1.27-6.77,2.52-10.25,3.73q-6.12,2.15-12.18,4.1c-1.3.43-2.59.83-3.89,1.24-2.74.87-5.47,1.73-8.18,2.55-2.34.7-4.68,1.4-7,2.07l-2.1.61q-4.81,1.37-9.58,2.63l-2.32.6q-3.69,1-7.33,1.86l-3,.71c-2.5.6-5,1.18-7.48,1.74l-2,.44q-4.63,1-9.21,1.94l-2.27.44q-3.53.69-7,1.32l-2.83.51c-1.89.33-3.77.63-5.65.94l-4.49.72c-1.76.27-3.51.51-5.25.76-1.47.2-2.94.42-4.39.61-1.76.23-3.5.43-5.24.64-1.43.17-2.86.35-4.27.5-1.76.2-3.5.36-5.24.53-1.38.14-2.77.28-4.14.4-1.78.16-3.54.29-5.3.42l-3.92.3c-1.85.12-3.67.21-5.5.31-1.2.06-2.41.14-3.6.19-2,.09-4,.15-6,.21l-3,.09q-4.44.1-8.82.1c-50.79,0-94.41-9.89-129.93-25.61q-7.09-3.14-13.77-6.59a229.11,229.11,0,0,1-36-22.91q-5.32-4.16-10.18-8.5-2.42-2.16-4.73-4.37a167.51,167.51,0,0,1-23.45-27.6h0l26.47,57.69c33.94,50.55,109.68,95.58,218,95.58,2.91,0,5.85,0,8.81-.1,1,0,2-.07,3-.1,2-.06,4-.11,6-.2l3.63-.2c1.82-.1,3.63-.19,5.46-.31l3.94-.3c1.76-.13,3.52-.26,5.3-.41,1.36-.12,2.74-.27,4.12-.4,1.74-.17,3.49-.34,5.25-.53l4.28-.51c1.73-.2,3.47-.41,5.22-.64,1.46-.19,2.94-.4,4.41-.61,1.74-.25,3.48-.49,5.24-.76l4.5-.72c1.15-.18,2.29-.35,3.45-.55l2.2-.39,2.82-.5c2.33-.42,4.67-.87,7-1.33.75-.14,1.5-.28,2.26-.44q4.58-.92,9.22-1.93l2-.45c2.48-.56,5-1.13,7.49-1.73l2.94-.72c2.43-.59,4.88-1.22,7.33-1.85l2.32-.6q4.77-1.28,9.58-2.63l2.1-.62c1.77-.5,3.53-1,5.3-1.54l1.72-.53q4.05-1.23,8.15-2.54c1.31-.42,2.61-.82,3.92-1.25q6.06-2,12.17-4.09,5.22-1.83,10.25-3.73l3.14-1.21q3.5-1.35,6.92-2.73l1.7-.67,2.05-.86,4.6-1.94,4-1.73c1.5-.66,3-1.33,4.46-2l3.85-1.77,4.34-2.07,3.73-1.82c1.43-.7,2.83-1.42,4.23-2.13.8-.41,1.63-.81,2.42-1.22.42-.21.81-.44,1.22-.65,1.25-.65,2.48-1.31,3.71-2l3.71-2c1.21-.67,2.4-1.34,3.59-2s2.42-1.36,3.6-2.05,2.34-1.37,3.5-2l3.48-2.09,3.39-2.1c.75-.47,1.53-.93,2.27-1.41l1.09-.7,3.47-2.25c1.06-.7,2.13-1.4,3.17-2.1s2.26-1.53,3.38-2.3,2-1.4,3-2.11,2.19-1.56,3.28-2.34l2.95-2.13c1.07-.79,2.12-1.59,3.17-2.38.72-.54,1.46-1.08,2.17-1.63.22-.16.42-.33.63-.49,1.4-1.08,2.77-2.16,4.13-3.24.66-.52,1.33-1,2-1.57,2-1.61,4-3.22,5.88-4.85a.39.39,0,0,0,.1-.08c1.89-1.6,3.74-3.21,5.57-4.82l1.84-1.65c1.21-1.09,2.43-2.18,3.61-3.28l.57-.51,1.05-1c1.61-1.5,3.18-3,4.73-4.51l1.67-1.64c2-1.93,3.88-3.86,5.74-5.8l.1-.1c1.83-1.92,3.61-3.83,5.37-5.75.51-.55,1-1.11,1.51-1.67,1.38-1.53,2.73-3,4-4.58l.86-1,.44-.52,2.26-2.69C826.18,1087.85,826.78,1087.14,827.36,1086.43Z"></path><path class="cls-49" d="M1252.07,209.62l-34.42,36.21V230.24a29.74,29.74,0,0,0-29.7-29.7h-75.68a29.74,29.74,0,0,0-29.7,29.7v62.47a29.74,29.74,0,0,0,29.7,29.7H1188a29.74,29.74,0,0,0,29.7-29.7V278l34.42,34.7Zm-50.57,83.09A13.57,13.57,0,0,1,1188,306.26h-75.68a13.57,13.57,0,0,1-13.56-13.55V230.24a13.57,13.57,0,0,1,13.56-13.55H1188a13.57,13.57,0,0,1,13.55,13.55Zm34.43-19.19-9.64-9.72v-3.62l9.64-10.14Z"></path><path class="cls-50" d="M63.58,595.16a16.88,16.88,0,0,1-7.92,11.21c-4.95,3-.44,10.71,4.53,7.74a25.75,25.75,0,0,0,12-16.56C73.45,591.92,64.81,589.52,63.58,595.16Z"></path><path class="cls-51" d="M37.37,571.86l-17,9.47c-5,2.81-.53,10.56,4.53,7.74l17-9.46C46.94,576.8,42.43,569.05,37.37,571.86Z"></path><path class="cls-52" d="M20.21,516.44H4.33c-5.77,0-5.78,9,0,9H20.21C26,525.4,26,516.44,20.21,516.44Z"></path><path class="cls-53" d="M18.63,451.36l-9.78-6.19c-4.9-3.09-9.4,4.66-4.53,7.75l9.78,6.18C19,462.19,23.5,454.44,18.63,451.36Z"></path><path class="cls-54" d="M50.2,411.78l-2-19.85c-.58-5.68-9.55-5.74-9,0l2,19.85C41.81,417.47,50.78,417.53,50.2,411.78Z"></path><path class="cls-55" d="M79.35,382.75a42.45,42.45,0,0,0-2,19.07c.69,5.66,9.67,5.73,9,0A36.53,36.53,0,0,1,88,385.13C89.88,379.66,81.22,377.31,79.35,382.75Z"></path><path class="cls-56" d="M142.1,372.86a46.88,46.88,0,0,0-12.64,16.77c-1,2.23-.63,4.79,1.61,6.13,1.9,1.14,5.15.6,6.14-1.61a41,41,0,0,1,11.23-14.95C152.87,375.48,146.49,369.16,142.1,372.86Z"></path><path class="cls-57" d="M206,370.84c-1.59-1.6-4.78-1.87-6.34,0q-5,5.94-9.94,11.89a4.62,4.62,0,0,0,0,6.35c1.6,1.59,4.79,1.87,6.35,0l9.93-11.9A4.59,4.59,0,0,0,206,370.84Z"></path><path class="cls-58" d="M260.39,411.35a38.78,38.78,0,0,0-20.25,6.27c-4.82,3.15-.33,10.92,4.53,7.75a29.81,29.81,0,0,1,15.72-5.05C266.15,420.14,266.17,411.17,260.39,411.35Z"></path><path class="cls-59" d="M282.55,475.29l-12.16-7.55c-4.91-3.05-9.42,4.71-4.52,7.75L278,483C282.94,486.08,287.45,478.33,282.55,475.29Z"></path><path class="cls-60" d="M263.6,537.56a7.81,7.81,0,0,1-2.75-6.72,4.49,4.49,0,1,0-9,0,16.43,16.43,0,0,0,5.37,13.06C261.54,547.75,267.9,541.43,263.6,537.56Z"></path><path class="cls-61" d="M220.18,576.5v17.86c0,5.77,9,5.78,9,0V576.5C229.15,570.73,220.18,570.72,220.18,576.5Z"></path><path class="cls-62" d="M184.3,618.88q-2.88,9-5.77,17.92c-1.77,5.51,6.89,7.87,8.65,2.39q2.9-9,5.77-17.93C194.72,615.75,186.07,613.39,184.3,618.88Z"></path><path class="cls-63" d="M142.5,630.73l-5.88,15.9c-2,5.43,6.66,7.76,8.65,2.39l5.88-15.91C153.16,627.69,144.49,625.35,142.5,630.73Z"></path><path class="cls-64" d="M103.68,608q-3,5-6,9.92c-3,5,4.78,9.48,7.75,4.53l6-9.92C114.4,607.54,106.65,603,103.68,608Z"></path><path class="cls-65" d="M377.89,334.24l-10-5.83c-5-2.92-9.52,4.83-4.53,7.74l10,5.84C378.36,344.9,382.88,337.15,377.89,334.24Z"></path><path class="cls-66" d="M396.52,308.26l-15.79-6.16c-5.38-2.1-7.72,6.57-2.39,8.65l15.8,6.16C399.52,319,401.85,310.34,396.52,308.26Z"></path><path class="cls-67" d="M413.55,283.53a32.62,32.62,0,0,0-9-15.92c-4.13-4-10.47,2.3-6.34,6.34a24,24,0,0,1,6.72,12C406.22,291.53,414.87,289.15,413.55,283.53Z"></path><path class="cls-68" d="M429,257.81q-1.63-8-3.28-16c-1.15-5.65-9.8-3.26-8.65,2.38q1.65,8,3.28,16C421.51,265.85,430.15,263.46,429,257.81Z"></path><path class="cls-69" d="M446.46,219.21v17.86c0,5.78,9,5.79,9,0V219.21C455.43,213.44,446.46,213.43,446.46,219.21Z"></path><path class="cls-70" d="M490.92,211.37c-2.25-1.32-4.72-.37-6.14,1.61l-9.92,13.89c-1.41,2-.35,5,1.61,6.14,2.25,1.31,4.72.36,6.14-1.61l9.92-13.9C493.94,215.53,492.88,212.51,490.92,211.37Z"></path><path class="cls-71" d="M530.34,238.46a16.77,16.77,0,0,0-13.64,8.34c-2.88,5,4.87,9.54,7.74,4.53a7.62,7.62,0,0,1,5.9-3.9,4.59,4.59,0,0,0,4.48-4.48A4.53,4.53,0,0,0,530.34,238.46Z"></path><path class="cls-72" d="M568.05,262.36h-9.92c-5.77,0-5.78,9,0,9h9.92C573.83,271.33,573.84,262.36,568.05,262.36Z"></path><path class="cls-73" d="M583.08,307.39a9.68,9.68,0,0,0-14.16,0,4.6,4.6,0,0,0,0,6.34c1.61,1.61,4.77,1.85,6.34,0l.36-.38,0,0,.17-.05h.34l.17,0h0c-.4-.06.2.26,0,0,.14.17.36.41.35.4,1.57,1.85,4.73,1.62,6.35,0A4.59,4.59,0,0,0,583.08,307.39Z"></path><path class="cls-74" d="M577.32,354.85q-4.92-5-9.82-10c-4-4.13-10.39,2.22-6.35,6.35l9.82,10C575,365.33,581.36,359,577.32,354.85Z"></path><path class="cls-75" d="M565.05,392.88q-4-5-8-9.89c-1.52-1.89-4.75-1.59-6.34,0-1.86,1.86-1.53,4.45,0,6.34l8,9.89c1.52,1.88,4.76,1.58,6.34,0C566.91,397.35,566.58,394.77,565.05,392.88Z"></path><path class="cls-76" d="M537.77,421.67v11.91c0,5.77,9,5.78,9,0V421.67C546.74,415.9,537.77,415.89,537.77,421.67Z"></path><path class="cls-77" d="M508,437.55v11.91c0,5.77,9,5.78,9,0V437.55C517,431.78,508,431.77,508,437.55Z"></path><path class="cls-78" d="M473.71,440.08l-7.2,20.11c-1.95,5.45,6.71,7.79,8.65,2.39l7.2-20.11C484.31,437,475.65,434.68,473.71,440.08Z"></path><path class="cls-79" d="M442.83,439.11q-4.87,9-9.74,18c-2.75,5.07,5,9.6,7.74,4.52q4.88-9,9.74-18C453.32,438.56,445.58,434,442.83,439.11Z"></path><path class="cls-80" d="M410.75,433.33a40.23,40.23,0,0,0-15.55,19c-.92,2.26,1,4.91,3.13,5.52,2.56.74,4.61-.9,5.52-3.13a29.79,29.79,0,0,1,11.43-13.62C420.1,438,415.61,430.18,410.75,433.33Z"></path><path class="cls-81" d="M375,435.31a30.25,30.25,0,0,0-11.63,15c-.83,2.27.93,4.91,3.13,5.51a4.57,4.57,0,0,0,5.52-3.13,20,20,0,0,1,7.51-9.63C384.27,439.82,379.79,432,375,435.31Z"></path><path class="cls-82" d="M358.58,410l-14,3.54c-5.6,1.41-3.23,10.06,2.38,8.65l14-3.54C366.56,417.19,364.19,408.53,358.58,410Z"></path><path class="cls-83" d="M352,382.72c-.69-2.53-3.12-3.53-5.51-3.13l-11.91,2c-2.39.4-3.73,3.36-3.13,5.52.69,2.53,3.12,3.53,5.51,3.13l11.91-2C351.3,387.84,352.64,384.88,352,382.72Z"></path><path class="cls-84" d="M352.88,353a4.61,4.61,0,0,0-3.17-1.31h-2a4.63,4.63,0,0,0-3.17,1.31,4.55,4.55,0,0,0-1.32,3.17,4.49,4.49,0,0,0,1.32,3.17,4.62,4.62,0,0,0,3.17,1.32h2a4.64,4.64,0,0,0,3.17-1.32,4.47,4.47,0,0,0,0-6.34Z"></path><path class="cls-85" d="M1096.45,172.36a19.14,19.14,0,0,0-8.09-12.56c-2-1.42-5-.34-6.14,1.61-1.32,2.26-.36,4.71,1.61,6.13a10.54,10.54,0,0,1,4,7.2c.36,2.4,3.38,3.72,5.51,3.13C1095.88,177.17,1096.81,174.76,1096.45,172.36Z"></path><path class="cls-86" d="M1124,166.47l-4.35-13.77c-1.73-5.49-10.4-3.14-8.65,2.38l4.35,13.78C1117.07,174.34,1125.73,172,1124,166.47Z"></path><path class="cls-87" d="M1147.38,143.23c-2.67,0-4.2,2.09-4.49,4.49L1141,163.6c-.3,2.43,2.27,4.47,4.48,4.49,2.67,0,4.2-2.09,4.49-4.49l1.92-15.88C1152.16,145.29,1149.59,143.26,1147.38,143.23Z"></path><path class="cls-88" d="M1176.6,146.44q-2.86,11.94-5.72,23.88c-1.34,5.61,7.31,8,8.65,2.39q2.87-11.94,5.72-23.88C1186.59,143.22,1177.94,140.82,1176.6,146.44Z"></path><path class="cls-89" d="M1208.84,149.26l-9.1,20.22c-2.36,5.22,5.37,9.78,7.74,4.52l9.11-20.21C1218.94,148.57,1211.21,144,1208.84,149.26Z"></path><path class="cls-90" d="M1248.88,161.3q-4.86,8-9.73,16c-3,4.95,4.75,9.46,7.75,4.53l9.73-16C1259.63,160.89,1251.88,156.37,1248.88,161.3Z"></path><path class="cls-91" d="M1280.67,171.24l-9.75,16c-3,4.94,4.74,9.46,7.74,4.53l9.75-16C1291.42,170.83,1283.67,166.32,1280.67,171.24Z"></path><path class="cls-92" d="M1284.84,204.76q-3.84,7-7.66,14.05c-2.77,5.07,5,9.6,7.74,4.52l7.66-14C1295.35,204.22,1287.61,199.68,1284.84,204.76Z"></path><path class="cls-93" d="M1295.63,235a12.81,12.81,0,0,1-12.35,7.27c-5.77-.26-5.76,8.71,0,9a21.61,21.61,0,0,0,20.09-11.72C1306,234.36,1298.23,229.82,1295.63,235Z"></path><path class="cls-94" d="M1301.83,268.26,1286,274.4c-5.33,2.07-3,10.74,2.38,8.65l15.81-6.15C1309.54,274.84,1307.23,266.16,1301.83,268.26Z"></path><path class="cls-95" d="M1297.16,306a28.12,28.12,0,0,0-18.05,4.74c-4.75,3.22-.27,11,4.53,7.75a20.12,20.12,0,0,1,13.52-3.52C1302.91,315.46,1302.88,306.48,1297.16,306Z"></path><path class="cls-96" d="M1297.1,339.82,1279,330.33c-5.1-2.68-9.64,5.06-4.53,7.74l18.1,9.5C1297.68,350.25,1302.22,342.51,1297.1,339.82Z"></path><path class="cls-97" d="M1248.61,365.9a17.78,17.78,0,0,1-1.25-10.5c1-5.64-7.6-8.06-8.65-2.39a28.38,28.38,0,0,0,2.16,17.42c1,2.21,4.2,2.74,6.13,1.61C1249.27,370.71,1249.62,368.12,1248.61,365.9Z"></path><path class="cls-98" d="M1198.75,362.13V376c0,5.77,9,5.78,9,0V362.13C1207.72,356.35,1198.75,356.34,1198.75,362.13Z"></path><path class="cls-99" d="M1166.32,366.89a18.2,18.2,0,0,0-5.09,16.27c.38,2.4,3.37,3.72,5.52,3.13,2.55-.7,3.51-3.11,3.13-5.51a8.82,8.82,0,0,1,2.78-7.55C1176.78,369.18,1170.44,362.84,1166.32,366.89Z"></path><path class="cls-100" d="M1120,366.09c-2.3-1.34-4.66-.32-6.13,1.61l-6,7.91c-1.47,1.93-.31,5,1.61,6.13,2.3,1.35,4.66.33,6.13-1.61l6-7.9C1123.09,370.3,1121.93,367.21,1120,366.09Z"></path><path class="cls-101" d="M1098,346c-1.14-1.94-4.17-3-6.14-1.61a19.32,19.32,0,0,0-8.12,12.55c-.37,2.39.61,4.83,3.13,5.52,2.13.59,5.14-.73,5.52-3.13a10.57,10.57,0,0,1,4-7.19A4.63,4.63,0,0,0,1098,346Z"></path><path class="cls-102" d="M1076.52,331.07c-.59-2.16-3.24-4-5.51-3.13a18.05,18.05,0,0,0-11,11.19,4.49,4.49,0,0,0,8.65,2.38c.08-.22.11-.34.13-.41l.13-.23c.14-.28.29-.55.44-.82a4.91,4.91,0,0,1,1.14-1.48c.27-.27.56-.54.85-.79l.35-.3c-.22.19-.21.19,0,0s.66-.42,1-.6c.12-.07,1.27-.56.62-.31A4.61,4.61,0,0,0,1076.52,331.07Z"></path><path class="cls-103" d="M1058.08,296.76a36.61,36.61,0,0,0-15.77,15.34c-2.74,5.08,5,9.61,7.75,4.52a28.39,28.39,0,0,1,12.54-12.11C1067.77,301.92,1063.23,294.18,1058.08,296.76Z"></path><path class="cls-104" d="M1053.21,273.63a16.17,16.17,0,0,1-8,4.71c-5.59,1.43-3.22,10.08,2.38,8.65a24.83,24.83,0,0,0,12-7C1063.51,275.78,1057.18,269.42,1053.21,273.63Z"></path><path class="cls-105" d="M1052.38,250.45h-6a4.49,4.49,0,0,0,0,9h6a4.49,4.49,0,0,0,0-9Z"></path><path class="cls-106" d="M1054.61,219.36l-9.92-6c-5-3-9.48,4.77-4.53,7.74l9.92,6C1055.05,230.08,1059.56,222.33,1054.61,219.36Z"></path><path class="cls-107" d="M1066.48,194.23a12.51,12.51,0,0,0-8.9-9.29,4.49,4.49,0,0,0-2.38,8.65c.18,0,.73.29.61.22l.36.18.25.16.56.54.08.06.42.69a1,1,0,0,0,.08.11s0,0,0,.07c.09.33.19.65.26,1a4.51,4.51,0,0,0,5.51,3.13A4.6,4.6,0,0,0,1066.48,194.23Z"></path><path class="cls-108" d="M1078.49,171.63a10.64,10.64,0,0,1-4-7.2c-.38-2.39-3.37-3.72-5.52-3.13-2.55.7-3.51,3.12-3.13,5.52a19.31,19.31,0,0,0,8.11,12.55c2,1.42,5,.34,6.14-1.61C1081.42,175.5,1080.46,173.05,1078.49,171.63Z"></path></g></g></svg>